<svg width="500" height="500" fill="none" xmlns="http://www.w3.org/2000/svg"><path d="M322.1 97.34a9.043 9.043 0 01-3.54 1.74c-3.55.79-13 .39-14.6 4.73a9.39 9.39 0 01-5.91 5.52s-7.49.4-7.89 2c-.4 1.6-3.15 4.34-3.15 4.34H416s4.34-6.7-2.76-13c-6.21-5.52-17.56 2.84-19-4m-1.17-10.04c-1.44-5.19-4.47-12.19-10.62-14.79-10.26-4.34-18.93 1.58-21.3 7.49-2.37 5.91-3.94 9.86-13 4.73-9.06-5.13-17-4.73-19.72 2a30.81 30.81 0 01-2.93 5.56M103.05 166.1h44.79s2.62-4-1.67-7.87-12.65 3.34-11.45-4.77c0 0-1-10-7.16-12.64a10.002 10.002 0 00-9.9.9" stroke="#263238" stroke-linecap="round" stroke-linejoin="round"/><path d="M114.68 145.35c-1.43 3.58-2.39 6-7.87 2.86s-10.26-2.86-11.93 1.2-3.82 6.2-6 6.67c-2.18.47-7.87.24-8.83 2.87a5.706 5.706 0 01-3.58 3.34s-4.53.23-4.77 1.19a9.235 9.235 0 01-1.91 2.62H96m231.25 0h21.15s2.62-4-1.67-7.87-12.64 3.34-11.45-4.77c0 0-.95-10-7.16-12.64-6.21-2.64-11.44 1-12.88 4.53-1.44 3.53-2.38 6-7.87 2.86s-10.26-2.86-11.92 1.2c-1.66 4.06-3.82 6.2-6 6.67-2.18.47-7.87.24-8.82 2.87a5.732 5.732 0 01-3.58 3.34s-4.53.23-4.77 1.19a9.24 9.24 0 01-1.91 2.62h49.82" stroke="#263238" stroke-linecap="round" stroke-linejoin="round"/><g opacity=".1" fill="#000"><path opacity=".1" d="M23.23 232.17c3.94.78 12.69-1.33 12.69-1.33s-3.14-5.35-3.38-5.66c-2.81-3.62-10.37-9-15.18-7.2a6.087 6.087 0 00-3.454 3.536 6.085 6.085 0 00.314 4.934c1.57 3.26 5.66 5.05 9.01 5.72z"/><path opacity=".1" d="M31.82 257c3.84-.27 11.19-4.25 11.78-4.57a107.87 107.87 0 007.63 12.13c1.62 2.26 3.33 4.49 5.07 6.7-.95-.89-1.8-1.68-1.93-1.78-3.66-2.74-12.36-5.89-16.54-2.93a6.084 6.084 0 00-.79 9c2.38 2.72 6.79 3.37 10.2 3.13 3.41-.24 9.8-3.52 11.46-4.4.68.84 1.34 1.69 2 2.53 3.26 4 6.53 8 9.62 12.06 1.09 1.42 2.1 2.86 3.13 4.29-.84-.79-1.55-1.45-1.67-1.54-3.67-2.75-12.36-5.9-16.54-2.93a6.064 6.064 0 00-2.098 6.834 6.06 6.06 0 001.308 2.166c2.38 2.73 6.79 3.37 10.2 3.13 3.41-.24 9.18-3.2 11.16-4.24 1 1.5 2 3 2.92 4.5.6 1 1.24 2 1.78 3.07l1.66 3.13c1 2 2 4.12 2.91 6.12a226 226 0 011.82 4.07c-1.07-1.43-3.21-4.18-3.42-4.39-3.2-3.26-11.32-7.69-15.91-5.4a6.073 6.073 0 00-3.099 6.433c.152.838.48 1.634.96 2.337 1.94 3.06 6.2 4.36 9.61 4.64 3.75.31 11.33-2.37 12.27-2.71 1 2.23 1.9 4.4 2.74 6.47.632 1.52 1.222 2.99 1.77 4.41l3.12-.68c-.668-1.567-1.364-3.207-2.09-4.92-1-2.26-2.07-4.66-3.22-7.11a64.21 64.21 0 006.15-4.72c3.17 2.22 10.449 4 11.389 4.27-.42 2.39-.84 4.71-1.28 6.9-.23 1.16-.46 2.25-.69 3.34l3.3-.72c.13-.68.25-1.35.37-2.06.44-2.43.85-5 1.25-7.71 1 0 9-.13 12.45-1.72 3.1-1.45 6.64-4.15 7.4-7.69a6.061 6.061 0 00-.862-4.868 6.065 6.065 0 00-4.198-2.612c-5.09-.56-11.17 6.41-13 10.59-.11.25-1 3.06-1.54 4.84.15-1.1.32-2.16.46-3.29.31-2.23.55-4.46.82-6.87.09-1.16.18-2.34.27-3.53.09-1.19.09-2.43.14-3.66 0-2.86 0-5.75-.18-8.66 2 .26 8.91 1.1 12.2.14 3.29-.96 7.2-3.1 8.48-6.48a6.055 6.055 0 00-3.86-8.16c-5-1.33-12 4.64-14.5 8.49-.15.24-1.62 3.2-2.4 4.84-.1-1.75-.2-3.49-.36-5.26-.47-5.1-1.1-10.25-1.7-15.39-.19-1.58-.36-3.15-.53-4.72.69.1 8.94 1.28 12.63.2 3.28-1 7.19-3.1 8.48-6.48a6.063 6.063 0 00-.115-4.943 6.071 6.071 0 00-3.755-3.217c-5-1.33-12 4.65-14.49 8.49-.19.29-2.3 4.56-2.78 5.67-.38-3.47-.73-6.92-.93-10.34-.3-4.615-.3-9.245 0-13.86.32.05 8.92 1.32 12.7.21 3.28-1 7.2-3.09 8.48-6.48a6.072 6.072 0 00-1.643-6.949 6.083 6.083 0 00-2.217-1.211c-5-1.32-12 4.65-14.5 8.5-.19.3-2.46 4.88-2.81 5.75v-.82a78.04 78.04 0 012.51-13.66c.65-2.48 1.42-4.81 2.21-7.06 1.58.4 8.81 2.15 12.32 1.53 3.51-.62 7.49-2.29 9.14-5.51a6.068 6.068 0 00-2.95-8.53c-4.78-1.87-12.45 3.3-15.34 6.85-.15.19-1.53 2.33-2.52 3.9.38-1 .74-2.06 1.12-3 1.41-3.61 2.92-6.83 4.28-9.68.79-1.61 1.53-3 2.24-4.39 1.75-.41 8.8-2.17 11.58-4.3 2.78-2.13 5.59-5.48 5.57-9.1a6.066 6.066 0 00-4.043-5.892 6.07 6.07 0 00-2.507-.328c-5.1.55-9.53 8.66-10.45 13.15-.08.38-.64 6.59-.55 6.57h.1c-.71 1.28-1.45 2.65-2.24 4.17-1.42 2.82-3 6-4.5 9.61a107.413 107.413 0 00-4.23 11.74 78.676 78.676 0 00-2.84 13.78.965.965 0 000 .17c-.3-1.47-1.26-5.56-1.37-5.87-1.54-4.31-7.05-11.73-12.18-11.57a6.076 6.076 0 00-4.375 2.282A6.075 6.075 0 0088 226c.48 3.58 3.8 6.55 6.78 8.24 3.36 1.89 11.69 2.62 12.35 2.68a108.11 108.11 0 00-.33 14.33c.11 2.78.3 5.58.53 8.39-.29-1.27-.57-2.4-.62-2.55-1.54-4.31-7.06-11.73-12.18-11.57a6.062 6.062 0 00-5.513 4.536 6.061 6.061 0 00-.107 2.524c.48 3.59 3.8 6.56 6.78 8.24 2.98 1.68 10.11 2.48 12 2.66.1 1.07.18 2.15.29 3.22.49 5.16 1 10.3 1.36 15.37.13 1.78.18 3.54.25 5.3-.27-1.12-.5-2.06-.55-2.2-1.54-4.32-7-11.74-12.18-11.58a6.068 6.068 0 00-5.62 7.07c.48 3.59 3.81 6.56 6.78 8.24 2.97 1.68 9.42 2.4 11.65 2.62v5.36c-.08 1.2-.07 2.35-.21 3.55-.14 1.2-.23 2.36-.34 3.52-.31 2.24-.6 4.54-1 6.71-.23 1.51-.48 2.95-.73 4.4-.1-1.78-.38-5.26-.43-5.54a23.577 23.577 0 00-5.57-10.52 6.58 6.58 0 00-.37-1.29 6.07 6.07 0 00-3.4-3.587 6.046 6.046 0 00-4.94.137c-4.56 2.34-5.78 11.51-5 16 0 .26.85 3.1 1.38 4.88-.47-1-.92-2-1.42-3-1-2-2-4-3.11-6.18l-1.72-3.09c-.56-1-1.27-2.08-1.91-3.13-1.53-2.41-3.2-4.78-4.93-7.12 1.78-.86 8-4 10.26-6.62s4.29-6.55 3.5-10.08a6.08 6.08 0 00-7.73-4.65c-4.86 1.63-7.45 10.51-7.4 15.08 0 .29.41 3.57.66 5.37-1-1.4-2.09-2.81-3.2-4.2-3.2-4-6.57-7.94-9.91-11.89-1-1.21-2-2.43-3-3.64.63-.3 8.16-3.87 10.64-6.81 2.21-2.61 4.29-6.55 3.5-10.08a6.062 6.062 0 00-7.73-4.67c-4.86 1.62-7.45 10.5-7.4 15.08 0 .34.6 5.06.8 6.25-2.22-2.67-4.42-5.36-6.47-8.1a107.742 107.742 0 01-7.64-11.56c.29-.14 8.16-3.83 10.7-6.84 2.21-2.61 4.3-6.55 3.5-10.08a6.061 6.061 0 00-7.72-4.67c-4.87 1.62-7.46 10.5-7.41 15.08 0 .36.65 5.44.83 6.35-.13-.24-.3-.46-.43-.7a79.28 79.28 0 01-5.44-12.78c-.82-2.42-1.47-4.79-2-7.11 1.54-.53 8.53-3.06 11.12-5.52 2.59-2.46 5-6 4.58-9.63a6.058 6.058 0 00-4.633-5.437 6.048 6.048 0 00-2.527-.063c-5 1.08-8.56 9.62-9 14.18 0 .25 0 2.79.06 4.65-.25-1.05-.52-2.13-.74-3.14-.82-3.79-1.34-7.31-1.77-10.43-.23-1.78-.4-3.39-.55-4.9 1.23-1.31 6.13-6.67 7.28-10 1.15-3.33 1.64-7.66-.37-10.66a6.088 6.088 0 00-6.626-2.686 6.076 6.076 0 00-2.274 1.106c-3.94 3.27-3.16 12.49-1.46 16.74.14.37 3.1 5.85 3.16 5.78l.08-.08c.11 1.46.25 3 .43 4.72.37 3.13.81 6.67 1.55 10.5a108.35 108.35 0 003 12.22 78.801 78.801 0 005.23 13.05s.06.1.08.15c-1-1.07-4.11-3.95-4.37-4.14-3.67-2.75-12.36-5.9-16.54-2.93a6.064 6.064 0 00-2.098 6.834 6.06 6.06 0 001.308 2.166c2.2 2.74 6.61 3.38 10.02 3.17z"/><path opacity=".1" d="M112.58 214.71c.09 0 .33-6.19.3-6.58-.35-4.57-3.71-13.18-8.69-14.38a6.063 6.063 0 00-4.833 1.04 6.065 6.065 0 00-2.457 4.29c-.48 3.59 1.94 7.33 4.36 9.74 2.85 2.83 11.32 5.89 11.32 5.89z"/></g><g opacity=".1" fill="#000"><path opacity=".1" d="M469.06 318.29c-3.38.12-10.37-2.8-10.37-2.8s3.32-4 3.57-4.25c2.81-2.63 9.8-6.05 13.57-4a5.121 5.121 0 011.48 7.46c-1.75 2.54-5.38 3.48-8.25 3.59z"/><path opacity=".1" d="M458.61 337.75c-3.16-.73-8.73-5-9.18-5.37a89.363 89.363 0 01-8 9.06 157.88 157.88 0 01-5.1 4.9c.9-.62 1.71-1.16 1.84-1.22 3.41-1.8 11.05-3.25 14.13-.23a5.116 5.116 0 01.83 5.954 5.124 5.124 0 01-1.37 1.626c-2.34 1.95-6.09 1.89-8.89 1.24-2.8-.65-7.68-4.23-8.94-5.19-.68.61-1.34 1.23-2 1.83-3.24 2.92-6.49 5.81-9.6 8.75-1.09 1-2.13 2.09-3.17 3.14.8-.54 1.48-1 1.59-1.06 3.41-1.79 11.06-3.24 14.14-.22a5.106 5.106 0 01.829 5.946 5.09 5.09 0 01-1.369 1.624c-2.34 2-6.09 1.9-8.9 1.25-2.81-.65-7.2-3.89-8.71-5-1 1.11-2.07 2.23-3 3.35-.64.78-1.3 1.49-1.89 2.32l-1.8 2.38c-1.08 1.55-2.21 3.15-3.23 4.69-.72 1.07-1.38 2.1-2.06 3.14 1.08-1.05 3.23-3 3.43-3.19 3.1-2.29 10.43-4.88 13.94-2.37a5.119 5.119 0 01.61 7.58c-2 2.28-5.74 2.8-8.61 2.57-3.15-.24-9.09-3.48-9.83-3.89-1.11 1.72-2.17 3.4-3.14 5-.72 1.18-1.41 2.33-2.06 3.43l-2.5-1c.75-1.22 1.55-2.48 2.39-3.81 1.12-1.75 2.35-3.59 3.63-5.48a53.786 53.786 0 01-4.48-4.74c-2.93 1.42-9.22 2-10 2 0 2 .07 4 .15 5.9 0 1 .08 1.94.12 2.87l-2.64-1v-8.34c-.82-.14-7.5-1.31-10.12-3.09-2.38-1.62-5-4.34-5.12-7.38a5.096 5.096 0 013.11-5.145 5.095 5.095 0 012.09-.395c4.3.22 8.42 6.82 9.42 10.54.06.22.43 2.67.64 4.23 0-.94 0-1.84.05-2.8 0-1.89.14-3.78.23-5.81.09-1 .17-2 .25-3 .08-1 .25-2 .38-3.06.33-2.38.79-4.77 1.3-7.17-1.66 0-7.55-.27-10.16-1.51-2.61-1.24-5.56-3.53-6.18-6.52a5.104 5.104 0 01.756-4.087 5.121 5.121 0 013.544-2.173c4.29-.44 9.36 5.46 10.91 9 .1.22.93 2.88 1.35 4.34.32-1.44.63-2.88 1-4.32 1.07-4.18 2.28-8.37 3.47-12.56.37-1.29.71-2.57 1.07-3.85-.59 0-7.6-.13-10.52-1.52-2.6-1.24-5.57-3.54-6.18-6.52a5.08 5.08 0 01.748-4.093 5.096 5.096 0 013.552-2.167c4.29-.44 9.36 5.46 10.91 9 .11.26 1.3 4.09 1.55 5.07.78-2.82 1.53-5.65 2.15-8.46a89.53 89.53 0 001.85-11.51c-.28 0-7.59-.1-10.58-1.53-2.6-1.23-5.57-3.53-6.19-6.51a5.118 5.118 0 01.752-4.094 5.108 5.108 0 013.548-2.176c4.3-.44 9.36 5.47 10.91 9 .13.28 1.4 4.4 1.58 5.16 0-.23.06-.46.08-.68a65.41 65.41 0 00-.27-11.69c-.21-2.14-.53-4.18-.89-6.16-1.36.12-7.6.61-10.44-.37s-5.92-2.9-6.86-5.8a5.103 5.103 0 01.302-4.15 5.103 5.103 0 013.288-2.55c4.21-.91 9.9 4.4 11.83 7.74.1.18 1 2.14 1.57 3.58-.17-.89-.34-1.81-.52-2.66-.69-3.19-1.52-6.07-2.27-8.61-.44-1.44-.87-2.74-1.28-4-1.4-.58-7-3-9-5.12s-3.92-5.3-3.42-8.3a5.09 5.09 0 012.173-3.552 5.102 5.102 0 014.097-.748c4.16 1.14 6.76 8.47 6.94 12.32 0 .34-.35 5.56-.42 5.53h-.09c.42 1.16.86 2.4 1.31 3.77.81 2.53 1.7 5.4 2.46 8.58a91.858 91.858 0 012 10.4c.524 3.92.702 7.879.53 11.83a.547.547 0 000 .14c.44-1.19 1.79-4.46 1.92-4.7 1.85-3.37 7.42-8.81 11.66-8a5.107 5.107 0 013.73 6.62c-.88 2.92-4 5-6.73 6-3.05 1.13-10.07.62-10.62.58A91.533 91.533 0 01397.1 323c-.46 2.3-1 4.6-1.56 6.9.41-1 .79-1.91.86-2 1.86-3.38 7.43-8.81 11.66-8a5.103 5.103 0 013.73 6.62c-.88 2.91-4 4.94-6.73 5.94-2.73 1-8.73.71-10.32.6-.22.88-.44 1.77-.67 2.64-1.1 4.22-2.21 8.43-3.18 12.59-.34 1.47-.63 2.92-.91 4.38.37-.9.68-1.65.74-1.76 1.86-3.38 7.43-8.81 11.67-8a5.107 5.107 0 013.73 6.62c-.88 2.91-4 4.94-6.74 5.94s-8.14.73-10 .62c-.25 1.5-.5 3-.68 4.47-.09 1-.25 2-.3 3l-.18 3c-.05 1.9-.11 3.85-.11 5.7v3.75c.32-1.46 1-4.31 1.1-4.54a19.814 19.814 0 016-8c.127-.348.288-.683.48-1a5.107 5.107 0 015.429-2.569 5.122 5.122 0 011.961.819c3.48 2.56 3.27 10.34 2 14-.07.21-1.11 2.47-1.79 3.88.53-.77 1-1.52 1.58-2.31 1.08-1.55 2.2-3.08 3.41-4.72l1.84-2.34c.6-.79 1.33-1.56 2-2.35 1.6-1.79 3.3-3.54 5.05-5.26-1.37-.95-6.15-4.39-7.64-6.86-1.49-2.47-2.7-6-1.56-8.85a5.104 5.104 0 012.868-2.976 5.093 5.093 0 014.132.126c3.82 2 4.79 9.72 4.14 13.52 0 .23-.82 2.91-1.27 4.36 1.06-1 2.11-2.05 3.22-3.05 3.2-2.9 6.52-5.73 9.82-8.56l3-2.63c-.49-.33-6.27-4.3-7.94-7.07-1.49-2.46-2.69-6-1.56-8.84a5.104 5.104 0 012.867-2.978 5.12 5.12 0 014.133.118c3.82 2 4.79 9.72 4.14 13.52 0 .29-1.17 4.13-1.5 5.09 2.21-1.92 4.39-3.87 6.46-5.87a88.77 88.77 0 008.02-8.67c-.23-.16-6.27-4.27-8-7.11-1.49-2.47-2.7-6-1.57-8.85a5.123 5.123 0 014.986-3.363c.716.025 1.419.2 2.064.513 3.82 2 4.79 9.72 4.14 13.52-.05.3-1.26 4.43-1.53 5.16.14-.17.3-.34.44-.52a65.974 65.974 0 006.23-9.89c1-1.91 1.86-3.79 2.65-5.63-1.21-.65-6.68-3.69-8.5-6.07-1.82-2.38-3.34-5.69-2.53-8.62a5.092 5.092 0 014.581-3.898 5.096 5.096 0 012.109.288c4 1.57 5.83 9.13 5.6 13 0 .21-.38 2.32-.66 3.85.34-.83.71-1.69 1-2.5 1.18-3 2.08-5.9 2.86-8.44.43-1.44.79-2.76 1.11-4-.85-1.26-4.21-6.36-4.72-9.26-.51-2.9-.34-6.59 1.73-8.81a5.12 5.12 0 013.771-1.759 5.117 5.117 0 013.829 1.629c2.85 3.25 1 10.8-1 14.1-.17.29-3.36 4.45-3.4 4.39l-.06-.08c-.28 1.2-.61 2.47-1 3.86-.63 2.49-1.51 5.41-2.63 8.49a90.392 90.392 0 01-4.1 9.76 65.992 65.992 0 01-6.09 10.15.864.864 0 01-.09.11c1-.74 3.95-2.73 4.19-2.86 3.41-1.79 11.06-3.25 14.14-.23a5.116 5.116 0 01.83 5.954 5.124 5.124 0 01-1.37 1.626c-2.34 1.95-6.1 1.9-8.9 1.24z"/><path opacity=".1" d="M397.14 291.87c-.08 0 .55-5.19.63-5.52.9-3.74 4.84-10.45 9.14-10.78a5.097 5.097 0 015.022 3.298 5.09 5.09 0 01.318 2.102c-.07 3-2.58 5.83-4.92 7.51-2.75 1.97-10.19 3.38-10.19 3.39z"/></g><path d="M208.65 33.36l12.5 118.79" stroke="#263238" stroke-linecap="round" stroke-linejoin="round"/><path d="M246.14 58.6l-9.32 2.14-8.53 16.87-13.51-3.86-.38 3.68 16.8 6.97 6.01-8.34v14.55l18.04.78 3.69-16.49 6.59 5.82v15.32h3.88l2.33-19.2-10.28-16.68-15.32-1.56z" fill="#fff" stroke="#263238" stroke-linecap="round" stroke-linejoin="round"/><path d="M237.21 76.06l-.14-8.21" stroke="#263238" stroke-linecap="round" stroke-linejoin="round"/><path d="M246 64l2.53 4.75s7 2.22 8.24 2.53c1.24.31 5.07-.95 8.23-1.58 3.16-.63 13.31 4.43 13.31 4.43l8.87.32-4.75-5.7-17.11-2.54-8.87 2.86-6-1.59 1.28-2.48-2.85-4.44L246 64z" fill="#000" stroke="#263238" stroke-linecap="round" stroke-linejoin="round"/><path d="M246.91 57.24a2 2 0 00-2.33 1.56c-.38 1.94-.77 6.79-.77 6.79l4.65-1.36 5.44 2.33s1.74-5.05.77-6.79c-.97-1.74-5.43-4.08-7.76-2.53z" fill="#fff" stroke="#263238" stroke-linecap="round" stroke-linejoin="round"/><path d="M245.94 54.53s.58 5.43.78 7.37c.2 1.94 1.36 4.85 2.13 4.27.77-.58 3.49-6 3.49-6l1.36-3.68-7.76-1.96zm.06-7.93s-1.7-.15-1.7 2.63 1.23 2.93 1.23 2.93l.47-5.56zm11.37 2.32a1.513 1.513 0 011.397 1.196c.045.216.043.44-.007.654-.31 1.7-3.24 4-3.24 4l1.85-5.85z" fill="#fff" stroke="#263238" stroke-linecap="round" stroke-linejoin="round"/><path d="M251.76 41s-3.1-.78-4.85 2.91c-1.75 3.69-1.36 8.15-1 10.67.36 2.52 2.72 3.68 5.05 3.68 2.33 0 5.81-4.84 6.59-8.53.78-3.69.22-8.73-5.79-8.73zm-40.73 30.6l.77 5.82 3.49.39-.58-6.6-3.68.39zm3.75-.09l1.41-.19.28 3.1-1.41.19-.28-3.1zm50.75 24.53l-2.12 3.32.55 3.33 1.85-.18 3.15-1.11.45-5.36h-3.88z" fill="#fff" stroke="#263238" stroke-linecap="round" stroke-linejoin="round"/><path d="M237.21 90.61l-1.37 5.98-15.18 19.98 10.18 28.69 2.59-.56-2.22-27.39 12.4-13.14 1.48.93.04 14.66 14.21 24.02 2.96-.75-6.66-23.13.37-24.61-.76-3.9-18.04-.78z" fill="#263238" stroke="#263238" stroke-linecap="round" stroke-linejoin="round"/><path d="M230.84 145.26l-2.22 3.14s-3.52 1.67-4.07 2.59c-.55.92 3 .74 3 .74l4.07-.37 4.26-2.77-2.41-3.89-2.63.56z" fill="#fff" stroke="#263238" stroke-linecap="round" stroke-linejoin="round"/><path d="M209.18 37.59s-1.86 4.24-9.54 7.15c-7.68 2.91-18.8 4.5-21.71 10.59s-2.91 5.57-3.44 9a9.29 9.29 0 01-2.65 5.29s2.65.27 4-1.58 1.86-7.15 4-7.95c2.14-.8 6.03-2.09 6.03-2.09s-3.7 3.18-4 4.77c-.3 1.59-.53 5.3-1.06 7.68a6.32 6.32 0 01-1.81 3.42s3.44 0 4.5-2.38 0-5.56 3.44-7.95c3.44-2.39 7.15-1.32 13-1.06s11.39-3.17 11.39-3.17l-2.15-21.72z" fill="#000" stroke="#263238" stroke-linecap="round" stroke-linejoin="round"/><path d="M259.34 143.78l-2.55 8.47 6.33-.25-.82-8.97-2.96.75z" fill="#fff" stroke="#263238" stroke-linecap="round" stroke-linejoin="round"/><path d="M249.64 48.43c-.11.5-.46.85-.8.78-.34-.07-.52-.54-.41-1 .11-.46.46-.85.8-.78.34.07.51.5.41 1zm4.63 1.08c-.11.5-.46.85-.8.78-.34-.07-.52-.54-.41-1 .11-.46.46-.85.8-.78.34.07.51.49.41 1z" fill="#263238"/><path d="M251.19 49.07l-1.23 3.71h2.01m-3.55 1.08s1.08 1.85 3.86.77m-4.02-8.8a2 2 0 012.47.46m2.32.62a2.188 2.188 0 013.08 1.09" stroke="#263238" stroke-linecap="round" stroke-linejoin="round"/><path d="M245.33 45.37L256.44 44s-.46 1.85.16 2.31c.62.46.77 2.63.77 2.63l-.46 2.47 2.47-4.32s.77-3.4.15-4.48a2.71 2.71 0 00-1.85-1.24 6.316 6.316 0 00-6.18-2.77c-4.32.46-6.17 2.62-6.17 4.32v2.45z" fill="#263238" stroke="#263238" stroke-linecap="round" stroke-linejoin="round"/><path d="M237.13 465.2l19.6-112.47-73.98-67.89 26.85-91.48-28.74.64-12.14 10.86-25.37-.62-3.43 12.37-6.96-.87-2.4 4.34-11.87 23.7-6.17 23.67-23 28.75L87 364.04l-37.08 53.52-11.66 47.64h198.87z" fill="gray" stroke="#39515E" stroke-linecap="round" stroke-linejoin="round"/><path d="M404.06 465.2l-24.55-53.83 40 26.65v-42.65L396 367.52l3.48-31.33-35.7-67.89-1.78-23.5-12.18-11.32L287.3 238l-4.46-21.95-40-22.63-24 58.11-22.11 9.78 15.58 21.36-2.52 16.93 5.21 26.14-87 19.15s-.87 41.78-.87 45.26c0 3.48-17.41 23.5-17.41 23.5l-.81 51.55h295.15z" fill="#ABABAB" stroke="#39515E" stroke-linecap="round" stroke-linejoin="round"/><path d="M452.51 465.2l-10.39-4.55-13.06-27.85-15.67-11.31-6.96-16.54-6.96-13.06-37.2-18.17 5.77 91.48h84.47zm-389.36-.11h46.51l.84-27.07-4.35-15.66v-41.78l-10.44-1.74-8.71 9.57-13.92 7.84-30.17 68.95h20.24v-.11z" fill="#CCC" stroke="#39515E" stroke-linecap="round" stroke-linejoin="round"/><path d="M79.24 419.77l1.02-4.34M63.15 465.2l6.2-24.49 5.85-3.72 3.42-14.58m-25.51 43.05l9.85-27.94m32.89-47.12l-.96 4.54m3.19-15.16l-1.82 8.67" stroke="#39515E" stroke-miterlimit="10"/><path d="M109.66 465.09l.84-27.07-4.35-15.66v-41.78l-8.7 55.7-7.84 2.61L87 454.56l-1.62 10.53h24.28zm148.95-30.87A56.93 56.93 0 00273 430.3a23.427 23.427 0 009.4-7c.29-.39.56-.8.82-1.21l-6.87-31-13.55-11.82-2.26-10.14-13-10.14-4.5 15.78-7.33 10.14-.56 37.19 7 13.38a121.717 121.717 0 0016.46-1.26z" fill="#fff" stroke="#39515E" stroke-linecap="round" stroke-linejoin="round"/><path d="M258.61 434.22l-1.38-11.58 4.07-10.97v-6.5l-.82-10.16m6.38 4.01l2.16 12.24 4.06.81-.81 10.16 1.62 5.29m-8.53-36.98l.72 4.08m-14.13-30.09l3.25 33.32" stroke="#39515E" stroke-miterlimit="10"/><path d="M212.25 433.39a184.999 184.999 0 0028.25 2.1c1.9 0 3.76-.05 5.59-.12l-.2-10.46-3.38-4.5v-32.12l5.64-5.64-.57-23.65-6.76 12.4-9 7.88-5.64 16.34-9 10.71-2.26 11.27-10.7 9-4.27 4.55c4.033.86 8.133 1.607 12.3 2.24z" fill="#CCC" stroke="#39515E" stroke-linecap="round" stroke-linejoin="round"/><path d="M375.1 465.2l47.25-.09-61.18-36.66-14.79-35.69-12.19-1.74-10.44-13.92-5.23 5.22 3.48 30.46-13.05 21.76v13.93l-6.09 15.66 29.44 1.07h42.8z" fill="#fff" stroke="#39515E" stroke-linecap="round" stroke-linejoin="round"/><path d="M351.4 465.14l-2.23-12.45 3.51-7.35-.96-14.37 2.88 2.88 19.48 31.29H351.4z" fill="#CCC" stroke="#39515E" stroke-linecap="round" stroke-linejoin="round"/><path d="M351.72 430.97l13.74 6.71 5.42 6.7 15.65 7.99 10.86 6.71 6.67 6.12-29.98-.06-22.36-34.17z" fill="#fff" stroke="#39515E" stroke-linecap="round" stroke-linejoin="round"/><path d="M308.95 434.54v13.93l-6.56 16.45 24.85.32-5.24-29.83 10.45-9.57-13.93-43.52 3.48 30.46-13.05 21.76z" fill="#CCC" stroke="#39515E" stroke-linecap="round" stroke-linejoin="round"/><path d="M334.19 391.02l9.19 19.43 4.06.41 3.25 9.75m-10.33 29.19l1.4 4.54m-6.91-39.83l2.84 10.98 4.88 8.12-5.69 4.88 2.46 7.99" stroke="#39515E" stroke-miterlimit="10"/><path d="M218.74 191.25l-20.4 22.31-.7-40.9L217.95 148l.79 43.25zm-14.16 89.32l20.86-18.41a21.963 21.963 0 014.95-3.24 37.226 37.226 0 017-2.5 64.277 64.277 0 019.4-1.56c3.988-.368 7.995-.515 12-.44 9.683.128 19.343.981 28.9 2.55a191.996 191.996 0 0123.51 5.43c6.94 2.07 13 4.29 18.23 6.34s9.55 3.93 13.05 5.31l-27.07 17.55c-3.31-1.3-7.42-3.07-12.35-5-4.93-1.93-10.68-4-17.25-6a178.993 178.993 0 00-22.24-5.09 183.07 183.07 0 00-27.36-2.36c-3.799-.065-7.598.081-11.38.44a60.763 60.763 0 00-8.89 1.49 34.748 34.748 0 00-6.67 2.38 20.916 20.916 0 00-4.69 3.11zM271 431.11l-23.54 9a31.246 31.246 0 005.88-2.92 19.648 19.648 0 004.38-3.81 14.911 14.911 0 002.72-4.75c.623-1.851.914-3.797.86-5.75a16.901 16.901 0 00-3-9.53 28.372 28.372 0 00-9.3-7.95 91.515 91.515 0 00-16.46-7c-6.8-2.29-15-4.55-24.65-6.9a246.693 246.693 0 01-38.48-12.36A132.395 132.395 0 01138 360.88a79.272 79.272 0 01-21.27-25.4 74.56 74.56 0 01-8-33.83 88.856 88.856 0 011-14.26 80.348 80.348 0 013.2-13.36 76.625 76.625 0 015.37-12.35 77.557 77.557 0 017.49-11.23L142 230.12a79.988 79.988 0 00-13.58 24.94 84.083 84.083 0 00-3.42 14.13 93.499 93.499 0 00-1 15.1 79.218 79.218 0 008.55 35.85 84.294 84.294 0 0022.54 26.94c9.48 7.63 20.75 14 33.28 19.33a261.424 261.424 0 0040.72 13.14c10.25 2.5 18.88 4.91 26.07 7.34a96.211 96.211 0 0117.41 7.49c4.48 2.61 7.69 5.37 9.81 8.41a17.84 17.84 0 013.21 10.09 17.28 17.28 0 01-.9 6.09 15.71 15.71 0 01-2.86 5 20.673 20.673 0 01-4.63 4 32.969 32.969 0 01-6.2 3.14z" fill="#CCC" stroke="#39515E" stroke-linecap="round" stroke-linejoin="round"/><path d="M155.09 347.08c9.48 7.63 20.75 14 33.28 19.33a261.424 261.424 0 0040.72 13.14c10.25 2.5 18.88 4.91 26.07 7.34a96.211 96.211 0 0117.41 7.49c4.48 2.61 7.69 5.37 9.81 8.41a17.84 17.84 0 013.21 10.09 16.234 16.234 0 01-3.22 10.44 23.427 23.427 0 01-9.4 7 56.983 56.983 0 01-14.36 3.92 123.3 123.3 0 01-18.11 1.27 184.999 184.999 0 01-28.25-2.1 223.52 223.52 0 01-26.61-5.71c-8.5-2.37-16.59-5.11-24.13-8-7.54-2.89-14.54-6-20.85-9L127.88 465h229.69a85.76 85.76 0 0016.51-27.25 88.303 88.303 0 005.38-33.43c-.34-12.17-2.19-23-5.82-32.71a73.47 73.47 0 00-16.5-25.92c-7.47-7.66-17-14.41-28.86-20.43s-26.14-11.35-43-16.16c-10.854-3.16-20.344-6.193-28.47-9.1a163.275 163.275 0 01-20.26-8.58c-5.4-2.83-9.45-5.64-12.15-8.52-2.7-2.88-4.08-5.81-4.14-8.89a15.42 15.42 0 011.58-7.28 16.481 16.481 0 016-6.38 34.709 34.709 0 0111.86-4.45 89.68 89.68 0 0119.17-1.49c9.683.128 19.344.981 28.9 2.55a191.954 191.954 0 0123.51 5.43c6.94 2.07 13 4.29 18.23 6.34s9.55 3.93 13.05 5.31l14.88-67c-4.68-2-9.71-4-15.22-5.9-5.51-1.9-11.51-3.68-18.1-5.29-6.59-1.61-13.79-3-21.71-4.21-7.92-1.21-16.59-2.07-26.09-2.63l-.87-39.62L218 148l.79 43.25a151.11 151.11 0 00-40.5 11.51A101.718 101.718 0 00148.36 223 81.437 81.437 0 00130 250.62a87.432 87.432 0 00-6 33.67 79.218 79.218 0 008.55 35.85 84.294 84.294 0 0022.54 26.94z" fill="#fff" stroke="#39515E" stroke-linecap="round" stroke-linejoin="round"/><path d="M127.88 465l12.78-54.33-16.37 10.24L113.87 465h14.01z" fill="#CCC" stroke="#39515E" stroke-linecap="round" stroke-linejoin="round"/><path d="M404.15 451.89a3.998 3.998 0 00-2.91.57l4.48 2.69a2.487 2.487 0 00-.087-1.966 2.495 2.495 0 00-1.483-1.294zm1.26-35.4s.6-2.52.62-2.68c.2-1.89-.53-5.67-2.48-6.54a2.515 2.515 0 00-3.38 1.64c-.47 1.43.24 3.14 1.05 4.31.96 1.38 4.19 3.26 4.19 3.27zm29.65 15.38c1.22-1.47 2.69-5 1.54-6.82a2.51 2.51 0 00-3.72-.5 5.247 5.247 0 00-1.5 4.18c0 1.67 1.69 5 1.7 5 .01 0 1.92-1.73 1.98-1.86z" fill="#263238"/><path d="M393.86 445.77a16.029 16.029 0 004.58 2c-.13.74-.26 1.48-.42 2.19 0 .18-.09.36-.13.55l.94.56c.06-.29.12-.59.19-.88.23-1.17.42-2.36.57-3.56 1.605.592 3.292.929 5 1a5.265 5.265 0 002.222-.556 5.264 5.264 0 001.778-1.444 2.537 2.537 0 00-.175-2.981 2.551 2.551 0 00-.825-.659c-1.93-.91-5.27 1-6.58 2.39-.08.09-.9 1.19-1.34 1.81.09-.73.18-1.45.25-2.19.19-2.12.32-4.28.45-6.43 0-.65.09-1.31.14-2 .28.1 3.56 1.2 5.16 1 1.41-.15 3.18-.73 4-2a2.522 2.522 0 00.31-2.038 2.537 2.537 0 00-.485-.936 2.542 2.542 0 00-.825-.656c-1.93-.91-5.27 1-6.58 2.39-.09.11-1.28 1.7-1.56 2.11.1-1.44.22-2.88.39-4.3a46.141 46.141 0 011-5.67c.13 0 3.56 1.21 5.19 1 1.42-.15 3.18-.73 4-2a2.522 2.522 0 00.31-2.038 2.529 2.529 0 00-1.31-1.592c-1.93-.92-5.27 1-6.57 2.39-.11.11-1.38 1.82-1.59 2.14 0-.11.05-.22.08-.33a32.93 32.93 0 012.05-5.4c.45-1 .94-1.87 1.43-2.73.62.28 3.45 1.54 4.93 1.55 1.48.01 3.24-.37 4.16-1.57a2.535 2.535 0 00.544-1.987 2.512 2.512 0 00-1.114-1.733c-1.81-1.12-5.34.42-6.79 1.66-.08.07-.81.84-1.33 1.41.23-.39.46-.79.69-1.16.85-1.37 1.71-2.57 2.48-3.64.44-.6.85-1.13 1.24-1.63a16.763 16.763 0 005.07-.89c1.26-.65 2.7-1.83 3-3.31a2.532 2.532 0 00-2.21-3c-2.13-.15-4.55 2.84-5.27 4.6-.06.16-.76 2.65-.72 2.65h.05c-.39.47-.8 1-1.23 1.54-.8 1.05-1.69 2.24-2.57 3.6a47.027 47.027 0 00-2.63 4.52 32.804 32.804 0 00-2.2 5.43v.07c0-.63-.09-2.37-.11-2.51-.31-1.88-2-5.33-4.12-5.65a2.529 2.529 0 00-1.967.606 2.522 2.522 0 00-.873 1.864c-.07 1.51 1.07 3 2.16 3.89 1.24 1 4.59 2 4.86 2a45.402 45.402 0 00-1.21 5.84c-.17 1.15-.3 2.31-.41 3.48 0-.54-.06-1-.07-1.09-.31-1.88-2-5.34-4.12-5.65a2.51 2.51 0 00-1.967.602 2.525 2.525 0 00-.863 1.868c-.07 1.5 1.07 3 2.16 3.88a16.803 16.803 0 004.71 2c0 .44-.09.89-.12 1.34-.19 2.15-.36 4.29-.6 6.39-.08.74-.19 1.47-.3 2.19v-.94c-.31-1.88-2-5.33-4.12-5.65a2.51 2.51 0 00-1.967.602 2.525 2.525 0 00-.863 1.868c-.19 1.44.95 2.91 2.04 3.82zm55.85-17.72c-1.69-1.31-5.36-.15-6.93.93-.14.09-2.1 1.79-2.06 1.81-.58.17-1.2.37-1.88.6-1.24.44-2.64.94-4.12 1.59a42.378 42.378 0 00-4.69 2.32 33.027 33.027 0 00-4.83 3.31l-.05.05c.33-.53 1.23-2 1.28-2.15.78-1.74 1.27-5.56-.32-7a2.526 2.526 0 00-2.961-.227 2.53 2.53 0 00-.759.727c-.89 1.21-.75 3.06-.35 4.43.47 1.54 2.75 4.16 2.94 4.37a41.93 41.93 0 00-4.23 4.2c-.78.87-1.53 1.76-2.27 2.67.28-.46.52-.88.55-.94.78-1.74 1.27-5.56-.32-7a2.526 2.526 0 00-2.961-.227 2.53 2.53 0 00-.759.727c-.89 1.21-.75 3.07-.34 4.43a16.651 16.651 0 002.83 4.25l-.84 1c-1.34 1.7-2.67 3.39-4 5-.47.57-1 1.12-1.45 1.66l.47-.82c.78-1.73 1.27-5.55-.32-7a2.526 2.526 0 00-2.961-.227 2.53 2.53 0 00-.759.727c-.89 1.21-.75 3.06-.34 4.43A15.841 15.841 0 00410 456l-1 1.08.88.53c.61-.63 1.2-1.29 1.79-2a16.519 16.519 0 003.62 3.56 5.259 5.259 0 004.42.5c.325-.14.617-.348.856-.609a2.509 2.509 0 00.652-1.949 2.517 2.517 0 00-.318-1.002c-1.11-1.83-5-2.07-6.8-1.63-.12 0-1.41.49-2.12.76.47-.56.95-1.11 1.41-1.69 1.33-1.66 2.63-3.39 3.93-5.11l1.2-1.56c.18.23 2.32 3 3.74 3.7a5.266 5.266 0 004.41.5c.325-.14.617-.348.856-.609a2.509 2.509 0 00.652-1.949 2.517 2.517 0 00-.318-1.002c-1.1-1.83-4.94-2.08-6.8-1.64-.14 0-2 .71-2.46.9.88-1.15 1.77-2.28 2.7-3.37a42.703 42.703 0 014-4.16c.08.11 2.29 3 3.75 3.73 1.26.66 3.05 1.15 4.41.5.326-.139.619-.346.859-.607.241-.26.424-.568.537-.904a2.525 2.525 0 00-.196-2.049c-1.11-1.83-4.95-2.07-6.8-1.64-.15 0-2.15.76-2.51.92l.25-.24a32.66 32.66 0 014.69-3.37c.91-.56 1.81-1 2.7-1.48.36.57 2 3.18 3.26 4 1.26.82 2.91 1.47 4.33 1a2.529 2.529 0 001.58-3.41c-.9-1.94-4.69-2.6-6.58-2.37-.11 0-1.14.26-1.89.45.41-.2.82-.41 1.21-.59 1.47-.68 2.85-1.21 4.08-1.67l1.94-.67a17 17 0 004.71 2.05 5.262 5.262 0 004.3-1.13 2.517 2.517 0 00.717-1.909 2.508 2.508 0 00-.937-1.811zm-50.99 37.11l1.15.71.71-.52.27-.2-2.13.01zM67.41 399a2.528 2.528 0 00-.59 3.71 4.36 4.36 0 002.8 1.48l2.15-4.91c-1.51-.68-3.25-1-4.36-.28zm9.95-6.45A3.66 3.66 0 0076 394.6l3.77-2.11a2.4 2.4 0 00-2.41.06zm.64-35.74c1.28 1.08 4.89 2.06 4.89 2.06s-.07-2.58-.1-2.74c-.3-1.88-2-5.34-4.09-5.67a2.503 2.503 0 00-1.974.591 2.51 2.51 0 00-.866 1.869c-.04 1.5 1.14 2.97 2.14 3.89zm-26.33 11.34s-1.49-2.11-1.6-2.23c-1.28-1.4-4.6-3.36-6.54-2.47a2.52 2.52 0 00-1 3.62c.76 1.3 2.51 1.9 3.93 2.07 1.65.19 5.21-.98 5.21-.99z" fill="#263238"/><path d="M49.79 360.17c.1.6.21 1.24.34 1.94.26 1.29.56 2.74 1 4.3a43.609 43.609 0 001.64 5 33.186 33.186 0 002.61 5.24v.06c-.47-.4-1.84-1.5-2-1.57-1.61-1-5.33-2-7-.66a2.516 2.516 0 00-.622 2.91c.145.324.357.614.622.85 1.08 1.05 2.93 1.17 4.34 1 1.59-.24 4.5-2.15 4.73-2.3a46.867 46.867 0 003.58 4.78c.75.88 1.53 1.75 2.33 2.61l-.86-.68c-1.61-1-5.33-2-7-.65a2.527 2.527 0 000 3.76 5.266 5.266 0 004.34.95 16.923 16.923 0 004.61-2.21c.31.32.61.65.92 1 1.49 1.56 3 3.11 4.4 4.68.5.55 1 1.11 1.45 1.67l-.75-.58c-1.61-1-5.33-2-7-.66a2.527 2.527 0 000 3.76c1.08 1.05 2.94 1.17 4.34 1a16.173 16.173 0 004.49-2.14c.47.58.94 1.17 1.37 1.77.28.41.58.78.84 1.21v.06l.38-.86.22-.13-.65-.88c-.72-.95-1.49-1.88-2.29-2.79a16.7 16.7 0 004-3.09 5.29 5.29 0 001.11-4.31 2.522 2.522 0 00-3.36-1.67c-2 .84-2.74 4.61-2.56 6.5 0 .12.29 1.47.46 2.21-.49-.55-1-1.1-1.47-1.64-1.47-1.55-3-3.07-4.52-4.6l-1.38-1.4c.25-.15 3.25-1.88 4.18-3.19A5.271 5.271 0 0068 377a2.528 2.528 0 00-3.36-1.68c-2 .84-2.74 4.61-2.56 6.51 0 .14.41 2.08.54 2.57-1-1-2-2.08-3-3.14a43.698 43.698 0 01-3.56-4.54c.12-.07 3.26-1.87 4.21-3.2a5.275 5.275 0 001.11-4.3 2.534 2.534 0 00-2.33-1.894 2.526 2.526 0 00-1.05.174c-2 .84-2.74 4.61-2.56 6.51 0 .15.45 2.23.55 2.6l-.2-.27a33.14 33.14 0 01-2.69-5.12c-.42-1-.77-1.94-1.09-2.88a16.778 16.778 0 004.43-2.67 5.257 5.257 0 001.56-4.15 2.526 2.526 0 00-2.117-2.062 2.531 2.531 0 00-1.043.062c-2 .62-3.22 4.28-3.26 6.19 0 .1.1 1.16.18 1.93-.13-.43-.28-.87-.41-1.28-.47-1.54-.8-3-1.08-4.27-.16-.73-.29-1.39-.4-2a16.696 16.696 0 002.68-4.39 5.242 5.242 0 00-.51-4.41 2.518 2.518 0 00-3.74-.35c-1.53 1.49-.9 5.28 0 7 .06.06 1.47 2.26 1.49 2.23zm26.4 7.41c1.46.67 4.94.69 5.22.7a44.57 44.57 0 00.34 6c.14 1.15.32 2.31.51 3.46-.17-.51-.32-1-.35-1-.78-1.74-3.32-4.63-5.44-4.39a2.54 2.54 0 00-1.745 1.092 2.537 2.537 0 00-.355 2.028c.32 1.47 1.8 2.59 3.1 3.19a16.6 16.6 0 005.06.7c.08.44.15.88.23 1.32.38 2.13.77 4.24 1.09 6.33.11.74.19 1.47.28 2.2l-.3-.9c-.79-1.74-3.33-4.63-5.45-4.39a2.514 2.514 0 00-1.724 1.079A2.52 2.52 0 0076.29 387c.32 1.47 1.8 2.59 3.09 3.19 1.1.387 2.254.599 3.42.63l2.33-1.31 1.84-1L92 383a2.354 2.354 0 00-.35-.1c-2.1-.38-4.83 2.33-5.73 4 0 .11-.56 1.39-.83 2.09-.1-.72-.2-1.44-.33-2.17-.36-2.1-.8-4.21-1.22-6.33-.14-.64-.26-1.29-.38-1.94.29 0 3.75.23 5.24-.34 1.33-.51 2.89-1.53 3.3-3a2.52 2.52 0 00-1.92-3.21c-2.1-.38-4.82 2.33-5.72 4-.07.13-.8 2-1 2.45-.27-1.43-.53-2.85-.73-4.26a43.818 43.818 0 01-.47-5.75c.14 0 3.75.24 5.28-.34a5.297 5.297 0 003.3-3 2.52 2.52 0 00-1.88-3.25c-2.1-.39-4.83 2.33-5.73 4-.07.13-.85 2.11-1 2.48v-.34c.03-1.93.224-3.853.58-5.75.19-1.05.43-2 .68-3 .67.11 3.73.59 5.16.21 1.43-.38 3-1.2 3.61-2.59a2.532 2.532 0 00-1.51-3.44c-2-.61-5 1.79-6.13 3.36-.06.08-.56 1-.92 1.7.12-.43.24-.88.36-1.29.47-1.54 1-2.93 1.45-4.16.28-.69.54-1.31.78-1.89.72-.24 3.58-1.2 4.66-2.18 1.08-.98 2.14-2.47 2-4a2.531 2.531 0 00-2.93-2.36c-2.1.4-3.66 3.92-3.9 5.81v2.75c-.25.56-.51 1.15-.79 1.81-.49 1.22-1 2.6-1.54 4.14a45.918 45.918 0 00-1.37 5.05 33.457 33.457 0 00-.62 5.84v.07c-.17-.6-.71-2.27-.76-2.39-.79-1.74-3.33-4.63-5.45-4.39a2.522 2.522 0 00-2.09 3.12c.32 1.45 1.8 2.59 3.09 3.17zm145.03 22.18a2.519 2.519 0 00-2.09 3.12 5.242 5.242 0 003.09 3.19c.984.354 2.015.556 3.06.6l.89-1.06.5-1.45c-.79-1.75-3.33-4.64-5.45-4.4zm-10.97 15.11a2.53 2.53 0 00-.59 3.71c.9 1.21 2.72 1.6 4.14 1.6a9.177 9.177 0 002.71-.62l.58-2.92-.06-.06c-1.44-1.25-4.96-2.81-6.78-1.71zm9.95-6.4c-1.63 1-1.95 4.22-1.66 6.2l4.79-5.69a2.46 2.46 0 00-3.13-.51z" fill="#263238"/><path d="M205.43 391.32c.31.32.61.65.92 1 1.49 1.56 3 3.11 4.4 4.68.5.55 1 1.11 1.45 1.67l-.75-.58c-1.61-1-5.33-2-7-.66a2.529 2.529 0 000 3.76c1.08 1.05 2.94 1.17 4.34 1a16.142 16.142 0 004.49-2.14c.47.59.94 1.17 1.37 1.77.28.41.58.78.84 1.21l.79 1.24c.36.62.73 1.24 1.08 1.85l.77-.91c-.3-.5-.61-1-.94-1.53l-.82-1.23c-.26-.41-.59-.82-.89-1.23-.72-1-1.49-1.88-2.29-2.79a16.708 16.708 0 004-3.09 5.291 5.291 0 001.11-4.31 2.52 2.52 0 00-3.3-1.73c-2 .84-2.74 4.61-2.56 6.5 0 .12.29 1.47.46 2.21-.49-.55-1-1.1-1.47-1.63-1.47-1.55-3-3.08-4.52-4.61l-1.38-1.4c.25-.15 3.25-1.88 4.18-3.19a5.25 5.25 0 001.11-4.3 2.52 2.52 0 00-1.306-1.587 2.535 2.535 0 00-2.054-.093c-2 .84-2.74 4.61-2.56 6.51 0 .14.41 2.08.54 2.57-1-1-2-2.08-3-3.14a43.82 43.82 0 01-3.56-4.54c.12-.07 3.26-1.87 4.21-3.2a5.262 5.262 0 001.11-4.3 2.52 2.52 0 00-1.306-1.587 2.535 2.535 0 00-2.054-.093c-2 .84-2.74 4.61-2.56 6.51 0 .15.45 2.23.55 2.6l-.2-.27a33.167 33.167 0 01-2.69-5.12c-.42-1-.77-1.94-1.09-2.88a16.998 16.998 0 004.43-2.66c.95-1.07 1.86-2.68 1.57-4.16a2.535 2.535 0 00-1.138-1.698 2.537 2.537 0 00-2.022-.302c-2 .62-3.22 4.29-3.26 6.19 0 .1.1 1.16.18 1.93-.13-.43-.28-.87-.41-1.28-.47-1.54-.8-3-1.08-4.27-.16-.73-.29-1.39-.4-2a16.68 16.68 0 002.68-4.39 5.242 5.242 0 00-.51-4.41 2.525 2.525 0 00-3.74-.35c-1.53 1.49-.9 5.29 0 7 .08.15 1.49 2.32 1.51 2.29.1.6.21 1.24.34 1.94.26 1.29.56 2.74 1 4.3a43.668 43.668 0 001.64 5 33.688 33.688 0 002.61 5.25.106.106 0 010 .05c-.47-.4-1.84-1.5-1.95-1.57-1.61-1-5.33-2-7-.65a2.517 2.517 0 000 3.75c1.08 1.06 2.93 1.17 4.34 1 1.59-.24 4.5-2.15 4.73-2.3a46.815 46.815 0 003.58 4.78c.75.88 1.53 1.75 2.33 2.61l-.86-.68c-1.61-1-5.33-2-7-.65a2.523 2.523 0 00-.622 2.91c.145.324.357.614.622.85 1.07 1.05 2.93 1.17 4.33.95a16.929 16.929 0 004.68-2.37zm15.45-28.59c1.28 1.08 4.89 2.06 4.89 2.06s-.07-2.58-.1-2.74c-.3-1.88-2-5.34-4.09-5.67a2.532 2.532 0 00-1.049.087 2.532 2.532 0 00-1.555 1.348c-.15.321-.231.67-.236 1.025-.08 1.5 1.05 2.97 2.14 3.89z" fill="#263238"/><path d="M194.51 374.08s-1.49-2.12-1.6-2.24c-1.28-1.4-4.6-3.36-6.54-2.47a2.52 2.52 0 00-1 3.62c.76 1.3 2.51 1.9 3.93 2.07 1.7.19 5.21-.98 5.21-.98zm24.49-.58c1.46.67 4.94.7 5.22.7a44.655 44.655 0 00.34 5.95c.14 1.15.32 2.31.51 3.47-.17-.52-.32-1-.35-1-.78-1.74-3.32-4.63-5.44-4.39a2.525 2.525 0 00-2.1 3.12c.32 1.47 1.8 2.59 3.1 3.19 1.641.493 3.347.729 5.06.7.08.44.15.88.23 1.32.38 2.13.77 4.25 1.09 6.33 0 .31.07.62.11.93l.63-1.8c-.34-1.86-.72-3.73-1.09-5.6-.13-.64-.26-1.29-.38-1.93 1.364.082 2.732.052 4.09-.09l1.76-5.09 1.39-1.21a2.192 2.192 0 00-.58-.19c-2.1-.38-4.82 2.33-5.72 4-.07.13-.8 2-1 2.45-.27-1.43-.53-2.85-.73-4.26a43.749 43.749 0 01-.47-5.75c.14 0 3.75.24 5.28-.34a5.284 5.284 0 003.3-3 2.519 2.519 0 00-1.88-3.25c-2.1-.39-4.83 2.33-5.73 4-.07.13-.85 2.11-1 2.48v-.34c.03-1.93.224-3.853.58-5.75.19-1 .43-2 .68-3 .67.11 3.73.59 5.16.21 1.43-.38 3-1.2 3.61-2.59a2.543 2.543 0 00.01-2.056 2.519 2.519 0 00-1.52-1.384c-2-.61-5 1.79-6.13 3.36-.06.08-.56 1-.92 1.7.12-.43.24-.88.36-1.29.47-1.54 1-2.93 1.45-4.16.28-.69.54-1.31.78-1.89.72-.24 3.58-1.2 4.66-2.18 1.08-.98 2.14-2.47 2-4a2.526 2.526 0 00-2.93-2.36c-2.1.4-3.66 3.92-3.89 5.81 0 .17-.05 2.76 0 2.75-.25.56-.51 1.15-.78 1.81-.5 1.22-1.05 2.6-1.55 4.14a45.918 45.918 0 00-1.37 5.05 33.512 33.512 0 00-.71 5.82v.11c-.17-.6-.71-2.27-.76-2.39-.79-1.74-3.33-4.63-5.45-4.39a2.509 2.509 0 00-1.742 1.093 2.522 2.522 0 00-.348 2.027c.43 1.44 1.91 2.56 3.17 3.16z" fill="#263238"/><path d="M370.64 286.16l-3.99-4.95 3.59-2.83 2.41 3.01-.82 1.91.68 1.52-1.41 1.01" fill="#fff"/><path d="M370.64 286.16l-3.99-4.95 3.59-2.83 2.41 3.01-.82 1.91.68 1.52-1.41 1.01" stroke="#263238" stroke-linecap="round" stroke-linejoin="round"/><path d="M403 294.75s-2.73-2.44-3.75-2.28c-1.02.16-14.4 2.4-14.4 2.4l-12.31-10.05-1.88 1.34 11.78 14.78 12.8-.8-2.75 14-11.65 8.86 19 11.35 3.83-12.08 15.13-14.9-5.88-7.37-9.92-5.25z" fill="#000" stroke="#263238" stroke-linecap="round" stroke-linejoin="round"/><path d="M406.9 291.52l-2.15 4.52-.79-.72-1.51 10.99 10.48-6.35-1.05-1.66.24-3.43-5.22-3.35z" fill="#fff" stroke="#263238" stroke-linecap="round" stroke-linejoin="round"/><path d="M402.45 306.31l6.13-3.72-5.12-3.6-1.01 7.32z" fill="#fff" stroke="#263238" stroke-linecap="round" stroke-linejoin="round"/><path d="M419 280.75s4.63-5.42 9.34-2 3.41 6.76 6.77 4.93c3.36-1.83 9.67-6.48 13.47-.56 3.8 5.92.87 12.12-1.52 13.54s-1.76-1.29-1.71-2.6c.05-1.31-3.87-3-4.74-.3-.87 2.7-5.44 6.86-11.24 6.47-5.8-.39-6.92-7.52-6.79-11.71a7.249 7.249 0 00-3.59-6.21l.01-1.56z" fill="#263238" stroke="#263238" stroke-linecap="round" stroke-linejoin="round"/><path d="M407.9 279.63s-2.9 6.46-2.3 10.27c.6 3.81.28 6.74 2.22 7.48 1.94.74 8.37-3.15 9.79-5.72s3.45-6.28 2.89-9.84c-.56-3.56-7.38-8.74-12.6-2.19z" fill="#fff" stroke="#263238" stroke-linecap="round" stroke-linejoin="round"/><path d="M409 286.41c-.15.5-.47.84-.72.76-.25-.08-.33-.54-.18-1 .15-.46.47-.84.72-.76.25.08.29.5.18 1zm4.62 1.92c-.15.5-.48.85-.73.77-.25-.08-.33-.54-.18-1 .15-.46.48-.84.73-.77.25.07.33.5.18 1z" fill="#263238"/><path d="M410.17 287.24s.3.22-.12 1-1.43.5-1.32 1.17c.11.67 1.38 1 1.38 1m-2.27 1.16s1.61 1.52 3.05 1.15m4.25-5.99l-2.99-.76m-2.36-1.13l-1.43-1.28" stroke="#263238" stroke-linecap="round" stroke-linejoin="round"/><path d="M407.9 279.63s-.43 1-.93 2.37c1.69-.88 4.6-1.87 7.26-.23 2.66 1.64 4 5.41 4.54 7.72 1.13-2.29 2.14-5 1.73-7.67-.56-3.56-7.38-8.74-12.6-2.19z" fill="#263238" stroke="#263238" stroke-linecap="round" stroke-linejoin="round"/><path d="M418.08 289.39s2.08-1.91 2-.17c-.08 1.74-2.47 2.77-3 2.85-.53.08-.49-.59-.49-.59" fill="#fff"/><path d="M418.08 289.39s2.08-1.91 2-.17c-.08 1.74-2.47 2.77-3 2.85-.53.08-.49-.59-.49-.59" stroke="#263238" stroke-linecap="round" stroke-linejoin="round"/><path d="M418.79 307.38l-3.2 22.81c-.07.486-.309.931-.675 1.258a2.085 2.085 0 01-1.325.532h-.69a2.081 2.081 0 01-2.15-1.89l-1.25-13.72 9.29-8.99z" fill="#000" stroke="#263238" stroke-linecap="round" stroke-linejoin="round"/><path d="M413 327.06L402.73 318l-2.3 1.93 9.86 11.41a2.082 2.082 0 001.71.66h.81a2.091 2.091 0 001.94-2.6" fill="#000"/><path d="M413 327.06L402.73 318l-2.3 1.93 9.86 11.41a2.082 2.082 0 001.71.66h.81a2.091 2.091 0 001.94-2.6v0" stroke="#263238" stroke-linecap="round" stroke-linejoin="round"/><path d="M402.73 317.99l-2.41-3.85-5.42-.6.03 3.23 2.6 2.17 1.65.23 1.25.75 2.3-1.93zM373.71 330s-11.32 14.73-10.7 17.17c.62 2.44 17.16 28.27 17.16 28.27l2.3-1.52-9.09-28.38 18.27-7.27-17.94-8.27z" fill="#fff" stroke="#263238" stroke-linecap="round" stroke-linejoin="round"/><path d="M382.83 335.46l1.34 5.89 6.05-2.32-7.39-3.57z" fill="#263238" stroke="#263238" stroke-miterlimit="10"/><path d="M380.17 375.39l-3 5s-2.39 3.58-1.69 3.8c1.53.49 5.49-2.11 6.62-2.91 1.13-.8 2.34-1.33 3.09-1.86s2.25-.84.2-2.74c-.69-.63-2.88-2.81-2.88-2.81l-2.34 1.52z" fill="#fff" stroke="#263238" stroke-linecap="round" stroke-linejoin="round"/><path d="M398.86 325.3a137.884 137.884 0 00-15.61-5.17c-9.17-2.49-15.95-4.42-15.82-2.13.13 2.29 16.81 39.18 16.81 39.18l2.86-.91-4.36-20.34s7 4.9 12.17 2.47 7.14-9 6.78-11.24" fill="#263238"/><path d="M398.86 325.3a137.884 137.884 0 00-15.61-5.17c-9.17-2.49-15.95-4.42-15.82-2.13.13 2.29 16.81 39.18 16.81 39.18l2.86-.91-4.36-20.34s7 4.9 12.17 2.47 7.14-9 6.78-11.24" stroke="#263238" stroke-linecap="round" stroke-linejoin="round"/><path d="M381.3 319.6c-8.16-2.21-14-3.73-13.87-1.6.13 2.29 16.81 39.18 16.81 39.18l2.86-.91-4.36-20.34c1.49-3.63-.09-11.26-1.44-16.33z" fill="#fff" stroke="#263238" stroke-linecap="round" stroke-linejoin="round"/><path d="M382.74 335.93l-7.19-10.43" stroke="#263238" stroke-linecap="round" stroke-linejoin="round"/><path d="M384.24 357.18l-2.68 5.05s-5.41 5.24-4.21 5.51c1.2.27 11.37-4.1 12.13-5.14.76-1.04-2.38-6.33-2.38-6.33l-2.86.91z" fill="#fff" stroke="#263238" stroke-linecap="round" stroke-linejoin="round"/><path d="M371.8 283.72l25.22 30.03M294.2 190.72l74.01 88.56m30.97 39.88v146M158.33 278.59s5.32 31.13-.46 41c-5.78 9.87-20.28 2.77-20.28 2.77v141.8" stroke="#263238" stroke-miterlimit="10"/><path d="M126.39 290.24s4.71-.54 5.07.55a6.256 6.256 0 010 2.71s2.71 2.9 2.71 4.89c0 1.99-2.89 2.9-2.89 2.9l-.54 4.7-7.24.36-.91-5.61s-2.72-10.68 3.8-10.5z" fill="#fff" stroke="#263238" stroke-linecap="round" stroke-linejoin="round"/><path d="M127.84 298l-2-2.9a7.301 7.301 0 001.08-3.62c0-2-.18-5.61-4.34-5.61s-6.88 3.26-7.78 10.32c-.9 7.06 3.25 10.5 9.23 9.23 5.98-1.27 3.81-7.42 3.81-7.42z" fill="#263238" stroke="#263238" stroke-linecap="round" stroke-linejoin="round"/><path d="M127.66 296.76s-3.08-.36-2.9 2a2.525 2.525 0 001.829 2.191 2.518 2.518 0 002.701-.921" fill="#fff"/><path d="M127.66 296.76s-3.08-.36-2.9 2a2.525 2.525 0 001.829 2.191 2.518 2.518 0 002.701-.921" stroke="#263238" stroke-linecap="round" stroke-linejoin="round"/><path d="M123.37 308.12L116.7 310s-.52 1.3-1.3 3c-1.05 2.31-3.94 7-3.94 7l-13.35 3.81-4.29 13.83-.95 5.72 7.62-3.82.48-13.34 12-1.85 5.15-13 5.25-3.23z" fill="#263238" stroke="#263238" stroke-linecap="round" stroke-linejoin="round"/><path d="M134 306.17s-5.25-2.35-9.23-1.81c-3.98.54-3.62 2.54-3.62 2.54l.18 2.71s6.67-1.99 12.67-3.44zm-17.93 13.22l3.75 17.34a1.332 1.332 0 00.693.989 1.329 1.329 0 001.207.011l8.47-4.23-14.12-14.11z" fill="#000" stroke="#263238" stroke-linecap="round" stroke-linejoin="round"/><path d="M125.49 328.62l-1.99 3.98" stroke="#263238" stroke-linecap="round" stroke-linejoin="round"/><path d="M143.04 346.18l10.93 18.08-1.45 24.45 5.25-.18 5.25-29.16-7.67-20.43-12.31 7.24z" fill="#263238" stroke="#263238" stroke-linecap="round" stroke-linejoin="round"/><path d="M121.32 309.61s-5.25 9.05-5.25 9.78c0 .73 20.46 20.45 20.46 20.45l15.57-10.32-9.78-17 14.08-13.82 1.08-18.65-2.53-.18-4.53 13.58-15 11.82-14.1 4.34z" fill="#000" stroke="#263238" stroke-linecap="round" stroke-linejoin="round"/><path d="M154.95 279.87l.18-4.16 4.52-3.44.37.9v2.72l.18 2.17-2.72 1.99-2.53-.18z" fill="#fff" stroke="#263238" stroke-linecap="round" stroke-linejoin="round"/><path d="M136.53 339.84s3.44 5.79 6 7.6c2.56 1.81 10.47-3.8 12.47-5.44 2-1.64 9.6-11.4 9.6-11.4l7.06 30.08 4.35-1.81s-2.55-40-3.81-41.12c-1.26-1.12-20.82 11.58-20.82 11.58l-14.85 10.51z" fill="#263238" stroke="#263238" stroke-linecap="round" stroke-linejoin="round"/><path d="M176 358.88h6.15c1.09 0 3.8-1.63 4-.36.2 1.27-5.25 4.7-7.43 5.79a26.912 26.912 0 01-6.51 1.63l-.55-5.25 4.34-1.81zm-18.23 29.65l3.08 5.61s3.8 1.63 3.8 2.36-6.15.36-6.7.36c-.55 0-6.69-6-6.69-6l1.26-2.18 5.25-.15z" fill="#fff" stroke="#263238" stroke-linecap="round" stroke-linejoin="round"/><path d="M159.65 272.27l59.09-81.02" stroke="#263238" stroke-miterlimit="10"/><path d="M12 465.2h474" stroke="#263238" stroke-linecap="round" stroke-linejoin="round"/></svg>