<svg width="371" height="247" fill="none" xmlns="http://www.w3.org/2000/svg"><path d="M298.591 151.48s-6.08-3.374-6.53 4.268c-.45 7.642-1.578 57.354-1.578 57.354m-1.598-56.677s4.947 11.021 2.706 56" stroke="#263238" stroke-width="2" stroke-linecap="round" stroke-linejoin="round"/><path d="M293.777 153.016s-2.33 1.482-3.65-.212c-1.321-1.694.895-4.826-1.059-6.16-1.954-1.334-5.332.701-5.332.701s2.597.761 2.512 2.179c-.084 1.418-1.335 1.976-1.484 1.334-.148-.643-1.409-3.74-3.522-2.441a5.224 5.224 0 00-2.428 3.31s4.912-.524 5.208 1.324c.297 1.848-2.013-.321-4.041-.44-2.028-.118-3.878.178-3.745 1.403a16.058 16.058 0 01-.193 3.241 6.027 6.027 0 013.958-1.393c2.231.128 2.147 1.546.119 1.428-2.029-.119-3.77 1.808-3.77 1.808s1.85 3.156 4.2 4.717c2.35 1.561 3.195.988 3.463-.202.267-1.191-.357-4.288 1.063-4.204 1.42.084-2.35 5.35-.539 5.661 1.81.311 3.27-.217 3.745-1.408l.494-1.19s-.633-3.083-.356-4.288c.277-1.206.608.034.93 1.482.322 1.447.524 4.91 1.143 4.742.618-.168 2.602-2.692 3.067-3.68.465-.988-2.612-4.016-2.578-4.624.035-.608 2.409.548 2.78 1.181.269.48.512.975.728 1.482 0 0 1.484-.929 1.444-3.775-.04-2.845-2.157-1.976-2.157-1.976z" fill="#fff"/><path opacity=".3" d="M293.777 153.016s-2.33 1.482-3.65-.212c-1.321-1.694.895-4.826-1.059-6.16-1.954-1.334-5.332.701-5.332.701s2.597.761 2.512 2.179c-.084 1.418-1.335 1.976-1.484 1.334-.148-.643-1.409-3.74-3.522-2.441a5.224 5.224 0 00-2.428 3.31s4.912-.524 5.208 1.324c.297 1.848-2.013-.321-4.041-.44-2.028-.118-3.878.178-3.745 1.403a16.058 16.058 0 01-.193 3.241 6.027 6.027 0 013.958-1.393c2.231.128 2.147 1.546.119 1.428-2.029-.119-3.77 1.808-3.77 1.808s1.85 3.156 4.2 4.717c2.35 1.561 3.195.988 3.463-.202.267-1.191-.357-4.288 1.063-4.204 1.42.084-2.35 5.35-.539 5.661 1.81.311 3.27-.217 3.745-1.408l.494-1.19s-.633-3.083-.356-4.288c.277-1.206.608.034.93 1.482.322 1.447.524 4.91 1.143 4.742.618-.168 2.602-2.692 3.067-3.68.465-.988-2.612-4.016-2.578-4.624.035-.608 2.409.548 2.78 1.181.269.48.512.975.728 1.482 0 0 1.484-.929 1.444-3.775-.04-2.845-2.157-1.976-2.157-1.976z" fill="#263238"/><path d="M281.984 159.69c1.519-1.872 3.75-4.406 5.625-5.616m-7.385 7.899s.39-.544 1.024-1.354m7.35-6.081s2.256 3.181 2.671 6.457m-5.223-4.575s.633-.365.396 3.68m1.251-7.454s1.286-1.146.608-3.418m-2.349 5.359l-.92-1.679m-1.014 3.394s-2.919-2.204-4.744-2.312" stroke="#263238" stroke-linecap="round" stroke-linejoin="round"/><path d="M302.068 147.014s-.094 3.34-2.706 3.503c-2.612.163-4.224-4.179-6.896-3.137-2.671 1.042-2.928 5.809-2.928 5.809s2.533-2.079 3.898-1.027c1.365 1.052 1.049 2.667.312 2.411-.737-.257-4.71-1.142-4.843 1.852a6.32 6.32 0 001.657 4.688s2.825-5.266 4.882-4.308c2.058.959-1.696 1.794-3.2 3.74-1.504 1.946-2.473 3.996-1.143 4.703a19.609 19.609 0 013.117 2.401s-.357-2.757 1.296-4.896c1.652-2.139 3.012-1.092 1.513.855-1.499 1.946-.757 4.999-.757 4.999s4.423.306 7.589-.988c3.166-1.294 3.185-2.514 2.166-3.611-1.019-1.097-4.541-2.564-3.492-3.927 1.049-1.364 3.759 5.997 5.308 4.396 1.548-1.6 2.008-3.413 1.142-4.703l-.87-1.289s-3.522-1.482-4.541-2.564c-1.019-1.082.45-.588 2.117.074 1.667.662 5.273 2.821 5.53 2.09.258-.731-.925-4.446-1.597-5.572-.673-1.127-5.808-.129-6.392-.578-.583-.45 2.192-2.036 3.077-1.976.886.059 1.979.271 1.979.271s.079-2.109-2.8-4.016-3.418.8-3.418.8z" fill="#fff"/><path opacity=".2" d="M302.068 147.014s-.094 3.34-2.706 3.503c-2.612.163-4.224-4.179-6.896-3.137-2.671 1.042-2.928 5.809-2.928 5.809s2.533-2.079 3.898-1.027c1.365 1.052 1.049 2.667.312 2.411-.737-.257-4.71-1.142-4.843 1.852a6.32 6.32 0 001.657 4.688s2.825-5.266 4.882-4.308c2.058.959-1.696 1.794-3.2 3.74-1.504 1.946-2.473 3.996-1.143 4.703a19.609 19.609 0 013.117 2.401s-.357-2.757 1.296-4.896c1.652-2.139 3.012-1.092 1.513.855-1.499 1.946-.757 4.999-.757 4.999s4.423.306 7.589-.988c3.166-1.294 3.185-2.514 2.166-3.611-1.019-1.097-4.541-2.564-3.492-3.927 1.049-1.364 3.759 5.997 5.308 4.396 1.548-1.6 2.008-3.413 1.142-4.703l-.87-1.289s-3.522-1.482-4.541-2.564c-1.019-1.082.45-.588 2.117.074 1.667.662 5.273 2.821 5.53 2.09.258-.731-.925-4.446-1.597-5.572-.673-1.127-5.808-.129-6.392-.578-.583-.45 2.192-2.036 3.077-1.976.886.059 1.979.271 1.979.271s.079-2.109-2.8-4.016-3.418.8-3.418.8z" fill="#263238"/><path d="M300.717 163.356c-.841-2.796-1.86-6.758-1.79-9.455m2.879 12.765s-.277-.756-.658-1.942m-1.084-11.495s4.725-.084 8.291 1.729m-8.142 2.104s.059-.879 3.957 2.12m-6.609-6.329s-.267-2.069-3.012-2.939m3.76 5.997l-2.31-.227m2.71 3.325s-4.199 1.422-5.55 3.171" stroke="#263238" stroke-linecap="round" stroke-linejoin="round"/><path d="M274.045 169.244s13.287 8.774 13.059 42.731" stroke="#263238" stroke-width="2" stroke-linecap="round" stroke-linejoin="round"/><path d="M290.428 166.928s-.425 3.843-3.462 3.789c-3.038-.055-4.482-5.227-7.658-4.274-3.176.954-3.932 6.422-3.932 6.422s3.121-2.158 4.6-.82c1.479 1.339.955 3.177.129 2.811-.826-.365-5.323-1.758-5.763 1.685a7.302 7.302 0 001.484 5.567s3.759-5.814 6.04-4.515c2.28 1.299-2.127 1.912-4.047 4.016-1.919 2.105-3.22 4.382-1.766 5.321a22.325 22.325 0 013.374 3.062s-.153-3.216 1.979-5.527c2.132-2.312 3.581-.988 1.667 1.126-1.915 2.114-1.346 5.701-1.346 5.701s5.08.77 8.855-.415c3.774-1.186 3.908-2.599 2.834-3.952-1.073-1.354-4.996-3.389-3.655-4.861 1.34-1.472 3.769 7.271 5.708 5.572 1.939-1.699 2.642-3.749 1.761-5.32l-.925-1.571s-3.923-2.031-4.996-3.389c-1.074-1.359.574-.632 2.434.286 1.86.919 5.822 3.755 6.183 2.93.361-.825-.653-5.202-1.301-6.58-.648-1.378-6.688-.692-7.321-1.265s2.726-2.144 3.74-1.976c.755.126 1.503.291 2.24.494 0 0 .287-2.43-2.854-4.9s-4.002.583-4.002.583z" fill="#fff"/><path opacity=".3" d="M290.428 166.928s-.425 3.843-3.462 3.789c-3.038-.055-4.482-5.227-7.658-4.274-3.176.954-3.932 6.422-3.932 6.422s3.121-2.158 4.6-.82c1.479 1.339.955 3.177.129 2.811-.826-.365-5.323-1.758-5.763 1.685a7.302 7.302 0 001.484 5.567s3.759-5.814 6.04-4.515c2.28 1.299-2.127 1.912-4.047 4.016-1.919 2.105-3.22 4.382-1.766 5.321a22.325 22.325 0 013.374 3.062s-.153-3.216 1.979-5.527c2.132-2.312 3.581-.988 1.667 1.126-1.915 2.114-1.346 5.701-1.346 5.701s5.08.77 8.855-.415c3.774-1.186 3.908-2.599 2.834-3.952-1.073-1.354-4.996-3.389-3.655-4.861 1.34-1.472 3.769 7.271 5.708 5.572 1.939-1.699 2.642-3.749 1.761-5.32l-.925-1.571s-3.923-2.031-4.996-3.389c-1.074-1.359.574-.632 2.434.286 1.86.919 5.822 3.755 6.183 2.93.361-.825-.653-5.202-1.301-6.58-.648-1.378-6.688-.692-7.321-1.265s2.726-2.144 3.74-1.976c.755.126 1.503.291 2.24.494 0 0 .287-2.43-2.854-4.9s-4.002.583-4.002.583z" fill="#263238"/><path d="M287.332 185.655c-.712-3.3-1.509-7.968-1.182-11.075m2.122 14.997s-.248-.899-.579-2.302m-.163-13.387s5.441.351 9.398 2.781m-9.591 1.665s.153-.988 4.368 2.816m-7.029-7.909s-.114-2.411-3.196-3.676m3.769 7.272l-2.641-.479m2.815 4.095s-4.982 1.24-6.708 3.132" stroke="#263238" stroke-linecap="round" stroke-linejoin="round"/><path d="M279.224 196.009s8.558 6.521 9.458 16.194l-1.776-32.387m13.035 11.471c-11.259-2.026-11.259 20.916-11.259 20.916m1.351-.228s-6.53-47.453 12.367-47.453" stroke="#263238" stroke-width="2" stroke-linecap="round" stroke-linejoin="round"/><path d="M295.652 189.918c-1.538-1.724-4.808-1.724-6.727 2.693-1.92 4.416-.193 3.645-.193 3.645s3.65-1.151 5.936-1.921c2.285-.771 5.382-2.688 5.575-1.532.193 1.156-1.539 2.302-3.656 2.688-2.117.385-7.687 1.916-7.113 3.072.574 1.156 1.924 4.604 1.924 4.604a49.118 49.118 0 015.189-3.838c2.503-1.536 4.041-.958 2.696.766-1.346 1.724-5.194 3.65-4.422 5.952.771 2.302 5.401 5.187 5.401 5.187s.574-4.801 1.925-6.338c1.35-1.536 1.345.193.959 2.88a31.125 31.125 0 00-.386 3.458l5.382 1.917a38.604 38.604 0 012.884-3.838l.99-.959s-4.23-3.65-4.423-5.928c-.193-2.277 2.884 0 3.844.386.96.385 2.498 3.067 2.498 3.067s.965-4.411 1.157-5.928l.193-1.536s-4.041-1.536-5.579-1.536c-1.539 0-2.306 1.151-2.306-.386 0-1.536 1.539-2.494 3.27-2.302a29.52 29.52 0 014.615 1.151s1.153-.963.767-3.843-1.345-2.88-3.651-2.109c-2.305.77-3.848 2.47-5.579 2.47-1.732 0-.767-2.11.385-2.688 1.153-.578 4.037-1.729 4.616-1.921.578-.193-3.077-2.88-5.001-3.261-1.925-.38-4.413.988-4.23 2.88.366 4.012-5.402 4.802-6.94 3.048z" fill="#fff"/><path d="M308.029 209.688c.059.578.099 1.161.119 1.739m-3.982-15.521a50.851 50.851 0 013.62 11.9m-4.313-13.442c-.95-2.045-1.667-3.29-1.667-3.29a5.684 5.684 0 002.473-2.307 6.434 6.434 0 011.924-2.302m-11.13 11.135s6.926-2.88 6.926-2.302m3.843-1.344s3.077-1.536 5.768-1.536m-6.895 6.17a26.632 26.632 0 00-3.656 3.646 16.612 16.612 0 00-2.691 4.416m8.434-7.321s4.041-1.151 6.153.766" stroke="#263238" stroke-linecap="round" stroke-linejoin="round"/><path d="M314.113 173.394c-2.092-1.235-4.407-1.265-5.545-2.569s1.093-1.976 2.285-1.482c1.192.494 3.958 1.912 4.477 2.223.519.311.163-4.209-.806-5.928-.97-1.719-3.626-2.692-4.947-1.304-2.795 2.934-7.158-.914-6.861-3.206.297-2.292-1.845-4.757-6.431-3.31-4.585 1.448-2.884 2.243-2.884 2.243s3.265 2.001 5.363 3.241c2.097 1.239 5.56 2.297 4.813 3.196-.747.899-2.751.35-4.428-.988-1.676-1.339-6.49-4.54-6.984-3.35-.495 1.191-2.226 4.446-2.226 4.446a49.06 49.06 0 016.307 1.398c2.8.875 3.373 2.411 1.187 2.53-2.186.118-6.164-1.522-7.42.568-1.256 2.089-.391 7.459-.391 7.459s4.007-2.712 6.05-2.702c2.043.01.737 1.141-1.548 2.613a31.929 31.929 0 00-2.864 1.976l2.077 5.321a37.862 37.862 0 014.793-.341l1.356.094s0-5.583 1.603-7.237c1.602-1.655 1.889 2.173 2.23 3.151.342.978-.682 3.898-.682 3.898s3.957-2.169 5.253-3.028l1.291-.865s-1.484-4.051-2.473-5.211c-.989-1.161-2.379-.988-1.222-1.976 1.158-.988 2.899-.494 3.888.953a29.964 29.964 0 012.152 4.234s1.484.242 3.408-1.937c1.924-2.179 1.276-2.88-.821-4.11zm-18.194 6.145c-1.538-.765 2.113-2.302 2.113-2.302 1.35-.202-.574 3.073-2.108 2.292l-.005.01zm2.587-7.168c-.653-.326 1.311-.988 1.311-.988 2.85.529-.648 1.309-1.306.978l-.005.01z" fill="#fff"/><path d="M295.88 183.442c-.399.425-.81.835-1.232 1.23m9.122-13.18a50.715 50.715 0 01-6.624 10.532m7.336-12.063c.925-2.06 1.395-3.419 1.395-3.419a5.67 5.67 0 003.383.376 6.445 6.445 0 013.003-.06m-9.453 2.584c.435-.375-6.277-3.71-6.277-3.71m9.814 5.745s3.18 1.314 4.946 3.345m-9.186-1.196a26.873 26.873 0 00-5.154-.36 16.566 16.566 0 00-5.1.864m11.061 1.596s3.517 2.292 3.463 5.142" stroke="#263238" stroke-linecap="round" stroke-linejoin="round"/><path d="M284.24 199.991c-1.681-.988-3.546-1.018-4.452-2.07-.905-1.052.876-1.581 1.836-1.181.959.401 3.18 1.537 3.606 1.784.425.247.128-3.384-.653-4.752-.782-1.369-2.919-2.169-3.957-1.048-2.251 2.357-5.763-.736-5.521-2.583.242-1.848-1.484-3.829-5.189-2.663-3.705 1.166-2.32 1.808-2.32 1.808s2.627 1.61 4.313 2.603c1.687.993 4.452 1.848 3.874 2.574-.579.726-2.211.282-3.562-.8-1.35-1.082-5.224-3.656-5.624-2.697-.401.958-1.786 3.601-1.786 3.601 1.715.261 3.41.636 5.075 1.121 2.251.707 2.711 1.947.95 2.04-1.761.094-4.947-1.225-5.936.455-.989 1.68-.312 6.002-.312 6.002s3.226-2.178 4.868-2.174c1.642.005.594.919-1.242 2.105a25.453 25.453 0 00-2.31 1.586l1.672 4.283a30.374 30.374 0 013.859-.277l1.093.079s0-4.495 1.291-5.824c1.291-1.329 1.519 1.749 1.791 2.534.272.785-.549 3.137-.549 3.137s3.195-1.744 4.229-2.44l1.039-.692s-1.197-3.26-2.009-4.194c-.811-.934-1.919-.795-.989-1.606.93-.81 2.33-.38 3.126.771a24.176 24.176 0 011.737 3.409s1.192.192 2.74-1.561c1.548-1.754.989-2.337-.688-3.33zm-14.642 4.94c-1.236-.617 1.702-1.852 1.702-1.852 1.083-.154-.465 2.474-1.707 1.857l.005-.005zm2.088-5.77c-.529-.262 1.053-.79 1.053-.79 2.296.444-.529 1.062-1.053.795v-.005z" fill="#fff"/><path d="M269.593 208.083c-.321.34-.653.671-.989.988m7.311-10.602a40.983 40.983 0 01-5.332 8.473m5.906-9.708a37.867 37.867 0 001.123-2.751 4.56 4.56 0 002.72.301 5.21 5.21 0 012.414-.049m-12.658-.889s5.407 2.682 5.055 2.964m2.859 1.645s2.558 1.057 3.958 2.687m-7.386-.958a21.315 21.315 0 00-4.145-.292 13.398 13.398 0 00-4.106.697m8.9 1.284s2.834 1.843 2.78 4.14" stroke="#263238" stroke-linecap="round" stroke-linejoin="round"/><path d="M277.374 168.286s-2.117 1.536-3.462 0c-1.346-1.536.578-4.609-1.351-5.76-1.929-1.151-4.996.958-4.996.958s2.498.578 2.498 1.922c0 1.344-1.153 1.917-1.345 1.344-.193-.573-1.539-3.458-3.463-2.115a4.954 4.954 0 00-2.112 3.266s4.61-.771 4.996.958c.386 1.729-1.924-.193-3.844-.193-1.919 0-3.655.386-3.462 1.537a15.163 15.163 0 010 3.072 5.72 5.72 0 013.655-1.536c2.112 0 2.112 1.344.193 1.344s-3.463 1.921-3.463 1.921 1.925 2.88 4.23 4.224c2.305 1.344 3.077.771 3.27-.385.192-1.156-.579-4.031.766-4.031 1.346 0-1.919 5.187-.193 5.375 1.727.187 3.077-.381 3.463-1.537l.386-1.151s-.772-2.88-.579-4.031c.193-1.151.579 0 .96 1.344.381 1.343.771 4.609 1.345 4.416.574-.193 2.31-2.687 2.696-3.646.386-.958-2.696-3.65-2.696-4.223s2.31.38 2.696.958c.278.435.534.883.767 1.344 0 0 1.345-.959 1.153-3.651-.193-2.692-2.108-1.724-2.108-1.724z" fill="#fff"/><path d="M266.625 175.246c1.331-1.852 3.299-4.371 5.006-5.616m-6.564 7.869s.341-.533.89-1.334m6.604-6.155s2.305 2.88 2.884 5.953m-5.184-4.051s.574-.385.574 3.458m.771-7.084s1.153-1.156.381-3.265m-1.919 5.182l-.964-1.537m-.767 3.246s-2.884-1.922-4.615-1.922" stroke="#263238" stroke-linecap="round" stroke-linejoin="round"/><path d="M296.79 211.299h-14.865v21.365h14.865v-21.365z" fill="#263238" stroke="#263238" stroke-width="2" stroke-linecap="round" stroke-linejoin="round"/><path d="M162.904 47.118s.179-6.314-.045-11.743c-.223-5.429.229-17.067.229-17.067m-.105 6.846l-2.469-1.941m2.439 3.275l.881-1.418m-1.079 7.035l2.191-1.813m-1.859-9.598l-1.158-1.052m.807 13.446l-1.45-1.551m1.573 7.647l-3.012-2.747m3.091 6.131a18.442 18.442 0 002.236-1.042" stroke="#263238" stroke-miterlimit="10"/><path d="M161.261 26.128c-1.212-.934-5.278-.77-6.059 1.17-.782 1.942 1.706 5.108 4.081 4.886.935-.089 1.34-.153 1.706-.677l-3.339-3.26 3.616 2.905a3.27 3.27 0 00.248-.593c.039-.143.079-.302.108-.465.253-1.16.782-3.092-.361-3.966zm7.87-2.253v.07c-.326 1.447-1.978 2.267-3.378 2.143a3.106 3.106 0 01-.574-.104 3.94 3.94 0 00-.356 3.508c.058.163.136.32.232.464.411-.336 4.804-4.08 4.804-4.08l-4.561 4.386c1.375 1.482 4.6 1.27 5.723-1.452 1.123-2.722-.307-4.545-1.89-4.935z" fill="#fff"/><path d="M166.896 18.811c-2.365-.494-4.482.554-4.452 3.019a3.975 3.975 0 001.325 2.87l2.439-3.32-2.048 3.621c.459.313.99.503 1.544.554 1.394.118 3.052-.702 3.378-2.15.341-1.615.178-4.075-2.186-4.594zm-2.76-8.571s-.243.075-1.757.81a3.818 3.818 0 00-1.513 5.177 3.582 3.582 0 002.023 1.77l.608-5.874-.257 5.952c.115.012.231.012.346 0 .99-.098 2.538-1.274 2.686-3.68.149-2.406-2.136-4.154-2.136-4.154zm-6.911 5.34l4.566 3.647c.045-.161.06-.329.044-.494-.213-2.085-2.295-3.296-3.67-3.73-1.376-.435-2.33.34-1.445 2.336.886 1.996 3.206 2.964 4.24 2.663.245-.06.466-.195.633-.385l-4.368-4.036z" fill="#fff"/><path d="M160.366 20.254a4.642 4.642 0 01-3.507-2.026 1.868 1.868 0 00-2.028 1.636c-.465 2.173 1.108 4.446 3.378 4.169a3.017 3.017 0 001.91-.815l-4.057-3.7 4.344 3.305c.085-.153.139-.32.158-.494a3.602 3.602 0 00-.198-2.075zm-.025 12.088a3.523 3.523 0 01-1.162.277c-1.484.138-2.998-1.023-3.75-2.386a1.98 1.98 0 00-1.815 1.63c-.45 2.544 1.909 5.898 4.293 5.365a3.4 3.4 0 001.658-.84l-5.204-5 5.505 4.674c.315-.403.518-.882.589-1.388a3.161 3.161 0 00-.114-2.332zm10.472 5.202c-1.751-2.025-3.833-.212-3.833-.212s-1.277.42-1.761 2.227a2.79 2.79 0 00.064 1.665l5.263-3.063-5.135 3.35c.495.909 1.524 1.482 2.968 1.062 2.306-.632 4.18-2.989 2.434-5.029z" fill="#fff"/><path d="M166.451 45.21h-7.287v10.775h7.287V45.211z" fill="#263238"/><path d="M246.873 55.896H150.77v177.46h96.103V55.896z" fill="#fff" stroke="#263238" stroke-miterlimit="10"/><path d="M233.32 58.144h-80.552v172.51h80.552V58.144z" fill="#263238" stroke="#263238" stroke-linecap="round" stroke-linejoin="round"/><path d="M233.32 84.899h-80.552v2.544h80.552v-2.544zm0 29.413h-80.552v2.544h80.552v-2.544zm-25.961-56.139h-1.711v26.72h1.711v-26.72zm-27.384 0h-1.712v26.72h1.712v-26.72zm27.384 58.712h-1.711v26.721h1.711v-26.721zm-27.384 0h-1.712v26.721h1.712v-26.721zm13.558-29.299h-1.711v26.721h1.711v-26.72zm39.787 56.025h-80.552v2.544h80.552v-2.544zm0 29.314h-80.552v58.628h80.552v-58.628zm-39.787-26.726h-1.711v26.721h1.711v-26.721z" fill="#fff" stroke="#263238" stroke-miterlimit="10"/><path d="M235.293 55.881v177.435l11.586.04V55.881h-11.586z" fill="#263238" stroke="#263238" stroke-linecap="round" stroke-linejoin="round"/><path d="M212.682 60.248h-4.136v24.587h4.136V60.248z" fill="#fff" stroke="#263238" stroke-miterlimit="10"/><path d="M212.682 79.554h-4.136v2.015h4.136v-2.015zm0-16.811h-4.136v2.015h4.136v-2.015zm4.229-2.495h-4.135v24.587h4.135V60.248z" fill="#fff" stroke="#263238" stroke-miterlimit="10"/><path d="M216.911 79.554h-4.135v2.015h4.135v-2.015zm0-16.811h-4.135v2.015h4.135v-2.015zm4.235-2.495h-4.136v24.587h4.136V60.248z" fill="#fff" stroke="#263238" stroke-miterlimit="10"/><path d="M221.146 79.554h-4.136v2.015h4.136v-2.015zm0-16.811h-4.136v2.015h4.136v-2.015zm4.229-2.495h-4.135v24.587h4.135V60.248z" fill="#fff" stroke="#263238" stroke-miterlimit="10"/><path d="M232.266 60.248h-6.926v24.587h6.926V60.248z" fill="#fff" stroke="#263238" stroke-miterlimit="10"/><path d="M225.375 79.554h-4.135v2.015h4.135v-2.015zm0-16.811h-4.135v2.015h4.135v-2.015zm-40.36-2.495h-4.135v24.587h4.135V60.248z" fill="#fff" stroke="#263238" stroke-miterlimit="10"/><path d="M185.015 79.554h-4.135v2.015h4.135v-2.015zm0-16.811h-4.135v2.015h4.135v-2.015zm4.23-2.495h-4.136v24.587h4.136V60.248z" fill="#fff" stroke="#263238" stroke-miterlimit="10"/><path d="M189.245 79.554h-4.136v2.015h4.136v-2.015zm0-16.811h-4.136v2.015h4.136v-2.015zm4.234-2.495h-4.135v24.587h4.135V60.248z" fill="#fff" stroke="#263238" stroke-miterlimit="10"/><path d="M193.479 79.554h-4.135v2.015h4.135v-2.015zm0-16.811h-4.135v2.015h4.135v-2.015zm4.23-2.495h-4.136v24.587h4.136V60.248z" fill="#fff" stroke="#263238" stroke-miterlimit="10"/><path d="M204.599 60.248h-6.925v24.587h6.925V60.248z" fill="#fff" stroke="#263238" stroke-miterlimit="10"/><path d="M197.709 79.554h-4.136v2.015h4.136v-2.015zm0-16.811h-4.136v2.015h4.136v-2.015zm-12.694 56.306h-4.135v24.586h4.135v-24.586z" fill="#fff" stroke="#263238" stroke-miterlimit="10"/><path d="M185.015 138.354h-4.135v2.016h4.135v-2.016zm0-16.805h-4.135v2.015h4.135v-2.015zm4.23-2.5h-4.136v24.586h4.136v-24.586z" fill="#fff" stroke="#263238" stroke-miterlimit="10"/><path d="M189.245 138.354h-4.136v2.016h4.136v-2.016zm0-16.805h-4.136v2.015h4.136v-2.015zm4.234-2.5h-4.135v24.586h4.135v-24.586z" fill="#fff" stroke="#263238" stroke-miterlimit="10"/><path d="M193.479 138.354h-4.135v2.016h4.135v-2.016zm0-16.805h-4.135v2.015h4.135v-2.015zm4.23-2.5h-4.136v24.586h4.136v-24.586z" fill="#fff" stroke="#263238" stroke-miterlimit="10"/><path d="M204.599 119.049h-6.925v24.586h6.925v-24.586z" fill="#fff" stroke="#263238" stroke-miterlimit="10"/><path d="M197.709 138.354h-4.136v2.016h4.136v-2.016zm0-16.805h-4.136v2.015h4.136v-2.015zm14.617-2.5h-4.136v24.586h4.136v-24.586z" fill="#fff" stroke="#263238" stroke-miterlimit="10"/><path d="M212.326 138.354h-4.136v2.016h4.136v-2.016zm0-16.805h-4.136v2.015h4.136v-2.015zm4.234-2.5h-4.135v24.586h4.135v-24.586z" fill="#fff" stroke="#263238" stroke-miterlimit="10"/><path d="M216.56 138.354h-4.135v2.016h4.135v-2.016zm0-16.805h-4.135v2.015h4.135v-2.015zm4.23-2.5h-4.136v24.586h4.136v-24.586z" fill="#fff" stroke="#263238" stroke-miterlimit="10"/><path d="M220.79 138.354h-4.136v2.016h4.136v-2.016zm0-16.805h-4.136v2.015h4.136v-2.015zm4.234-2.5h-4.135v24.586h4.135v-24.586z" fill="#fff" stroke="#263238" stroke-miterlimit="10"/><path d="M231.91 119.049h-6.926v24.586h6.926v-24.586z" fill="#fff" stroke="#263238" stroke-miterlimit="10"/><path d="M225.024 138.354h-4.135v2.016h4.135v-2.016zm0-16.805h-4.135v2.015h4.135v-2.015zm-67.146-2.5h-4.135v24.586h4.135v-24.586z" fill="#fff" stroke="#263238" stroke-miterlimit="10"/><path d="M157.878 138.354h-4.135v2.016h4.135v-2.016zm0-16.805h-4.135v2.015h4.135v-2.015zm4.234-2.5h-4.135v24.586h4.135v-24.586z" fill="#fff" stroke="#263238" stroke-miterlimit="10"/><path d="M162.112 138.354h-4.135v2.016h4.135v-2.016zm0-16.805h-4.135v2.015h4.135v-2.015zm4.229-2.5h-4.135v24.586h4.135v-24.586z" fill="#fff" stroke="#263238" stroke-miterlimit="10"/><path d="M166.341 138.354h-4.135v2.016h4.135v-2.016zm0-16.805h-4.135v2.015h4.135v-2.015zm4.235-2.5h-4.136v24.586h4.136v-24.586z" fill="#fff" stroke="#263238" stroke-miterlimit="10"/><path d="M177.462 119.049h-6.925v24.586h6.925v-24.586z" fill="#fff" stroke="#263238" stroke-miterlimit="10"/><path d="M170.576 138.354h-4.136v2.016h4.136v-2.016zm0-16.805h-4.136v2.015h4.136v-2.015zm-13.227-61.301h-4.136v24.587h4.136V60.248z" fill="#fff" stroke="#263238" stroke-miterlimit="10"/><path d="M157.349 79.554h-4.136v2.015h4.136v-2.015zm0-16.811h-4.136v2.015h4.136v-2.015zm4.229-2.495h-4.136v24.587h4.136V60.248z" fill="#fff" stroke="#263238" stroke-miterlimit="10"/><path d="M161.578 79.554h-4.136v2.015h4.136v-2.015zm0-16.811h-4.136v2.015h4.136v-2.015zm4.234-2.495h-4.135v24.587h4.135V60.248z" fill="#fff" stroke="#263238" stroke-miterlimit="10"/><path d="M165.812 79.554h-4.135v2.015h4.135v-2.015zm0-16.811h-4.135v2.015h4.135v-2.015zm4.23-2.495h-4.136v24.587h4.136V60.248z" fill="#fff" stroke="#263238" stroke-miterlimit="10"/><path d="M176.933 60.248h-6.926v24.587h6.926V60.248z" fill="#fff" stroke="#263238" stroke-miterlimit="10"/><path d="M170.042 79.554h-4.136v2.015h4.136v-2.015zm0-16.811h-4.136v2.015h4.136v-2.015zm-.455 26.804h-4.136v24.587h4.136V89.547z" fill="#fff" stroke="#263238" stroke-miterlimit="10"/><path d="M169.587 108.853h-4.136v2.015h4.136v-2.015zm0-16.806h-4.136v2.016h4.136v-2.016z" fill="#fff" stroke="#263238" stroke-miterlimit="10"/><path d="M165.506 89.547h-4.136v24.587h4.136V89.547z" fill="#fff" stroke="#263238" stroke-miterlimit="10"/><path d="M165.506 108.853h-4.136v2.015h4.136v-2.015zm0-16.806h-4.136v2.016h4.136v-2.016z" fill="#fff" stroke="#263238" stroke-miterlimit="10"/><path d="M161.424 89.547h-4.135v24.587h4.135V89.547z" fill="#fff" stroke="#263238" stroke-miterlimit="10"/><path d="M161.424 108.853h-4.135v2.015h4.135v-2.015zm0-16.806h-4.135v2.016h4.135v-2.016z" fill="#fff" stroke="#263238" stroke-miterlimit="10"/><path d="M157.349 89.547h-4.136v24.587h4.136V89.547z" fill="#fff" stroke="#263238" stroke-miterlimit="10"/><path d="M157.349 108.853h-4.136v2.015h4.136v-2.015zm0-16.806h-4.136v2.016h4.136v-2.016zm16.467-2.5h-4.135v24.587h4.135V89.547z" fill="#fff" stroke="#263238" stroke-miterlimit="10"/><path d="M173.816 108.853h-4.135v2.015h4.135v-2.015zm0-16.806h-4.135v2.016h4.135v-2.016zm4.23-2.5h-4.136v24.587h4.136V89.547z" fill="#fff" stroke="#263238" stroke-miterlimit="10"/><path d="M178.046 108.853h-4.136v2.015h4.136v-2.015zm0-16.806h-4.136v2.016h4.136v-2.016zm4.234-2.5h-4.135v24.587h4.135V89.547z" fill="#fff" stroke="#263238" stroke-miterlimit="10"/><path d="M189.17 89.547h-6.925v24.587h6.925V89.547z" fill="#fff" stroke="#263238" stroke-miterlimit="10"/><path d="M182.28 108.853h-4.135v2.015h4.135v-2.015zm0-16.806h-4.135v2.016h4.135v-2.016zm16.709-2.5h-4.135v24.587h4.135V89.547z" fill="#fff" stroke="#263238" stroke-miterlimit="10"/><path d="M198.989 108.853h-4.135v2.015h4.135v-2.015zm0-16.806h-4.135v2.016h4.135v-2.016zm4.235-2.5h-4.136v24.587h4.136V89.547z" fill="#fff" stroke="#263238" stroke-miterlimit="10"/><path d="M203.224 108.853h-4.136v2.015h4.136v-2.015zm0-16.806h-4.136v2.016h4.136v-2.016zm8.467-2.506l-3.856 1.626 9.696 22.932 3.855-1.625-9.695-22.933z" fill="#fff" stroke="#263238" stroke-miterlimit="10"/><path d="M219.305 107.546l-3.856 1.626.795 1.879 3.855-1.625-.794-1.88zm-6.627-15.674l-3.856 1.625.795 1.88 3.855-1.626-.794-1.88zm4.857 22.217h8.632l3.883-1.615-8.662-.01-3.853 1.625zm-5.842-24.557h8.107l10.25 22.942-8.662-.01-9.695-22.931zm-4.388.015h-4.136v24.587h4.136V89.547z" fill="#fff" stroke="#263238" stroke-miterlimit="10"/><path d="M207.305 108.853h-4.136v2.015h4.136v-2.015zm0-16.806h-4.136v2.016h4.136v-2.016zm0-2.5h4.388l-3.859 1.61 9.701 22.932h-10.23V89.547zm-37.718 58.697h-4.136v24.587h4.136v-24.587z" fill="#fff" stroke="#263238" stroke-miterlimit="10"/><path d="M169.587 167.55h-4.136v2.015h4.136v-2.015zm0-16.811h-4.136v2.016h4.136v-2.016z" fill="#fff" stroke="#263238" stroke-miterlimit="10"/><path d="M165.506 148.244h-4.136v24.587h4.136v-24.587z" fill="#fff" stroke="#263238" stroke-miterlimit="10"/><path d="M165.506 167.55h-4.136v2.015h4.136v-2.015zm0-16.811h-4.136v2.016h4.136v-2.016z" fill="#fff" stroke="#263238" stroke-miterlimit="10"/><path d="M161.424 148.244h-4.135v24.587h4.135v-24.587z" fill="#fff" stroke="#263238" stroke-miterlimit="10"/><path d="M161.424 167.55h-4.135v2.015h4.135v-2.015zm0-16.811h-4.135v2.016h4.135v-2.016z" fill="#fff" stroke="#263238" stroke-miterlimit="10"/><path d="M157.349 148.244h-4.136v24.587h4.136v-24.587z" fill="#fff" stroke="#263238" stroke-miterlimit="10"/><path d="M157.349 167.55h-4.136v2.015h4.136v-2.015zm0-16.811h-4.136v2.016h4.136v-2.016zm16.467-2.495h-4.135v24.587h4.135v-24.587z" fill="#fff" stroke="#263238" stroke-miterlimit="10"/><path d="M173.816 167.55h-4.135v2.015h4.135v-2.015zm0-16.811h-4.135v2.016h4.135v-2.016zm4.23-2.495h-4.136v24.587h4.136v-24.587z" fill="#fff" stroke="#263238" stroke-miterlimit="10"/><path d="M178.046 167.55h-4.136v2.015h4.136v-2.015zm0-16.811h-4.136v2.016h4.136v-2.016zm4.234-2.495h-4.135v24.587h4.135v-24.587z" fill="#fff" stroke="#263238" stroke-miterlimit="10"/><path d="M189.17 148.244h-6.925v24.587h6.925v-24.587z" fill="#fff" stroke="#263238" stroke-miterlimit="10"/><path d="M182.28 167.55h-4.135v2.015h4.135v-2.015zm0-16.811h-4.135v2.016h4.135v-2.016zm16.709-2.495h-4.135v24.587h4.135v-24.587z" fill="#fff" stroke="#263238" stroke-miterlimit="10"/><path d="M198.989 167.55h-4.135v2.015h4.135v-2.015zm0-16.811h-4.135v2.016h4.135v-2.016zm4.235-2.495h-4.136v24.587h4.136v-24.587z" fill="#fff" stroke="#263238" stroke-miterlimit="10"/><path d="M203.224 167.55h-4.136v2.015h4.136v-2.015zm0-16.811h-4.136v2.016h4.136v-2.016zm8.463-2.504l-3.855 1.626 9.695 22.932 3.856-1.625-9.696-22.933z" fill="#fff" stroke="#263238" stroke-miterlimit="10"/><path d="M219.204 165.803l-3.85 1.63.796 1.877 3.85-1.63-.796-1.877z" fill="#fff" stroke="#263238" stroke-width=".999" stroke-miterlimit="10"/><path d="M212.674 150.566l-3.855 1.626.794 1.879 3.856-1.625-.795-1.88zm4.861 22.22h8.632l3.883-1.615-8.662-.015-3.853 1.63z" fill="#fff" stroke="#263238" stroke-miterlimit="10"/><path d="M211.693 148.225h8.107l10.25 22.946-8.662-.015-9.695-22.931zm-4.388.019h-4.136v24.587h4.136v-24.587z" fill="#fff" stroke="#263238" stroke-miterlimit="10"/><path d="M207.305 167.55h-4.136v2.015h4.136v-2.015zm0-16.811h-4.136v2.016h4.136v-2.016zm0-2.495h4.388l-3.859 1.606 9.701 22.936h-10.23v-24.542z" fill="#fff" stroke="#263238" stroke-miterlimit="10"/><path d="M191.822 172.92v57.649m-38.401-50.511H233.3" stroke="#263238" stroke-miterlimit="10"/><path d="M169.814 184.934v10.453m3.488-10.453v10.453m36.63-10.453v10.453m3.487-10.453v10.453" stroke="#263238" stroke-width="2" stroke-miterlimit="10"/><path d="M255.564 56.815V39.09h25.812m1.9 0h10.872v43.966h-38.584V59.502" stroke="#263238" stroke-miterlimit="10"/><path d="M280.11 77.128h-19.347v-32.11h28.181v32.11h-6.618" stroke="#263238" stroke-miterlimit="10"/><path d="M280.273 54.898h-10.838v12.35h10.838v-12.35zm17.304 22.408V66.25h16.101m1.182 0h6.782v27.422h-24.065V78.981" stroke="#263238" stroke-miterlimit="10"/><path d="M312.886 89.977h-12.065V69.945h17.576v20.032h-4.131" stroke="#263238" stroke-miterlimit="10"/><path d="M312.99 76.11h-6.762v7.702h6.762v-7.701z" stroke="#263238" stroke-miterlimit="10"/><path d="M42.442 233.356h278.992" stroke="#263238" stroke-linecap="round" stroke-linejoin="round"/><path d="M62.23 164.196s-2.969-39.52-1.485-43.966c1.484-4.446 10.635-4.199 12.367-4.199 1.731 0 37.842 0 43.036 2.47 5.194 2.47 5.936 63.232 5.936 63.232H64.702l-2.473-17.537z" fill="#263238" stroke="#263238" stroke-miterlimit="10"/><path d="M124.058 160.985s-5.936 0-7.124 5.928c-1.187 5.928 3.488 30.381 3.834 37.297.346 6.916 1.563 16.549 1.563 16.549h21.023l4.7-59.774h-23.996z" fill="#263238" stroke="#263238" stroke-miterlimit="10"/><path d="M148.054 160.985s-5.936 0-7.42 5.928 1.979 30.381 1.979 37.297c0 6.916.742 16.549.742 16.549h7.42s.742-17.784.742-20.254c0-2.47 2.968-28.158 1.484-33.345-1.484-5.187-2.721-5.681-4.947-6.175z" fill="#636363" stroke="#263238" stroke-miterlimit="10"/><path d="M85.355 118.624s-19.663 8.028-19.663 8.892c0 .865 6.678 24.083 9.151 27.664 2.474 3.582 4.205 7.534 4.947 9.016.742 1.482 3.957 5.187 6.554 5.187 2.597 0 5.689-3.088 13.975-4.323 8.285-1.235 15.705-1.111 17.189-2.223 1.484-1.111-.371-4.075-.618-4.693-.247-.617-1.237-2.84-1.237-2.84s8.039 6.669 11.254 6.916c3.215.247 5.565-1.359 6.06-3.458.494-2.1-1.361-7.163-2.597-9.88-1.237-2.717-7.049-7.04-9.646-10.374-2.597-3.335-5.936-7.287-8.286-10.004a22.5 22.5 0 00-7.42-5.681c-2.226-.988-7.915-3.458-11.501-3.828-3.586-.371-8.162-.371-8.162-.371z" fill="#fff" stroke="#263238" stroke-miterlimit="10"/><path d="M123.894 147.563s-2.8 7.741-1.81 9.717c.989 1.976 3.626 2.633 3.626 2.633m-43.323-38.695l16.324 15.808 2.473-11.856" stroke="#263238" stroke-miterlimit="10"/><path d="M124.681 148.511s3.957 2.841 5.318 1.853c1.36-.988.989-2.841.123-4.817-.865-1.976-3.71-3.087-4.823-2.223-1.113.865-1.484 4.323-.618 5.187zm-40.563-35.074l.619 7.41 13.108 12.844 1.979-9.139.865-3.828s-8.532-1.482-11.253-3.335c-2.72-1.852-5.318-3.952-5.318-3.952z" fill="#fff" stroke="#263238" stroke-miterlimit="10"/><path d="M100.689 120.724s-8.532-1.482-11.253-3.335c-2.72-1.852-5.318-3.952-5.318-3.952l.619 7.41 3.314 3.246c2.577.726 5.144 1.077 6.89.405a27.409 27.409 0 005.521-2.742l.227-1.032zM80.2 107.717s-2.31-10.542-2.31-12.35c0-1.808 6.268-11.036 14.84-9.554 8.573 1.482 13.356 6.422 13.688 7.904.331 1.482-.99 4.446-.99 4.446.261.858.427 1.743.495 2.638 0 .988-1.484 5.266-1.484 5.266l-.495-4.446s-4.12 1.156-6.43 1.156c-2.31 0-6.268-1.482-6.268-1.482s.826 2.633 0 3.952-3.294 2.47-3.294 2.47-.332 2.633-1.321 2.633a21.611 21.611 0 01-3.626-.494c-.663-.163-2.805-2.139-2.805-2.139z" fill="#263238" stroke="#263238" stroke-miterlimit="10"/><path d="M83.994 108.868s-.331-3.952-3.63-2.964c-3.3.988-1.153 4.609.662 6.422 1.816 1.813 2.306.494 2.306.494s.494 3.789 2.968 5.928c2.473 2.139 6.267 6.091 10.224 5.597 3.958-.494 6.762-5.434 7.257-9.055.495-3.621.821-12.187.821-13.175a18.43 18.43 0 00-.658-3.29s-3.462 2.47-6.594 1.808c-3.13-.662-6.43-1.976-7.914-1.976s-1.158 2.144-.663 2.801c.495.657 1.815 1.976.331 2.801-1.484.825-3.462 1.645-3.462 1.645v3.458l-1.648-.494z" fill="#fff" stroke="#263238" stroke-miterlimit="10"/><path d="M99.77 107.07l-.812 8.926-4.061-1.176" stroke="#263238" stroke-miterlimit="10"/><path d="M96.342 115.542s-1.979 0-3.067.093a8.35 8.35 0 01-1.979.089c-.45-.089-.99-.449-.089.45.9.899 3.611 1.976 5.056 2.164 1.444.187 2.438-.272 3.517-.988 1.078-.717 1.978-1.443 1.444-1.621-.744-.132-1.5-.193-2.256-.182v.454l-2.626-.459z" fill="#263238" stroke="#263238" stroke-miterlimit="10"/><path d="M93.497 110.132c.325 0 .588-.544.588-1.215s-.263-1.215-.588-1.215c-.325 0-.589.544-.589 1.215s.264 1.215.589 1.215zm8.8-1.393c0 .672-.262 1.216-.583 1.216-.322 0-.589-.544-.589-1.216 0-.671.262-1.22.589-1.22.326 0 .583.549.583 1.22z" fill="#263238"/><path d="M91.286 107.07s2.439-1.715 4.422-.988m4.517.089s2.527-1.176 3.611-.094m-8.756 5.073s-.544.632-2.35 1.171m7.312-1.556c.534.368 1.11.671 1.716.904" stroke="#263238" stroke-miterlimit="10"/><path d="M107.739 134.185l.865-2.223s1.113 1.112 4.081 1.112c2.968 0 7.791 2.099 7.791 2.099l.371.618s.866-2.594 2.474-3.088c1.607-.494 4.204-2.223 4.575-2.717l.371-.494 1.732 1.482-7.668 10.127-14.345-5.557-.247-1.359z" fill="#fff" stroke="#263238" stroke-miterlimit="10"/><path d="M107.862 133.321l-3.71 19.636 12.862 2.964 4.699-19.019-13.851-3.581z" fill="#fff" stroke="#263238" stroke-miterlimit="10"/><path d="M121.713 136.902l8.286-5.928-4.947 19.019-8.038 5.928 4.699-19.019zM91.91 149.376l5.604-2.307s4.946-5.266 5.441-5.76c.495-.494 5.441-.988 5.441-.988l5.442 3.621s.989.825 0 1.151c-.99.326-3.131-.657-3.131-.657l-2.147-1.319-1.316.662 2.8 2.302s.826 2.144.826 3.295a5.351 5.351 0 01-.495 2.139l-1.647 2.307-4.947-2.47s-2.968 2.139-3.631 2.47c-.663.331-6.925-.163-6.925-.163l-1.316-4.283z" fill="#fff" stroke="#263238" stroke-miterlimit="10"/><path d="M103.737 143.606l1.751-.331 1.504.415m-4.922 3.166s3.918-1.086 4.17-1.086c.252 0 3.171 2.998 3.171 2.998l.331 3.251" stroke="#263238" stroke-miterlimit="10"/><path d="M102.238 148.936l3.166.084 2.918 1.917c.296.932.433 1.907.406 2.885" stroke="#263238" stroke-miterlimit="10"/><path d="M69.154 125.17s-3.63.494-4.125 3.621c-.495 3.127-3.79 29.477-2.8 32.441.99 2.964 19.292-2.139 19.95-2.47.658-.331 11.046-3.458 11.214-4.115.168-.657.495-6.096-.99-6.422-1.483-.326-15.665.163-15.665.163l-1.979-17.127" fill="#fff"/><path d="M69.154 125.17s-3.63.494-4.125 3.621c-.495 3.127-3.79 29.477-2.8 32.441.99 2.964 19.292-2.139 19.95-2.47.658-.331 11.046-3.458 11.214-4.115.168-.657.495-6.096-.99-6.422-1.483-.326-15.665.163-15.665.163l-1.979-17.127m1.979 17.127l-8.74 1.482m-1.648-1.976l7.583.988" stroke="#263238" stroke-miterlimit="10"/><path d="M127.772 139.125s-3.339 3.458-3.215 4.323c.124.864 1.855-.494 2.226-.865.371-.37 2.102-1.358 2.102-2.346s-.371-2.1-1.113-1.112z" fill="#fff" stroke="#263238" stroke-miterlimit="10"/><path d="M128.144 141.225s.989.988.989 1.852c0 .865-2.102 3.705-3.092 3.705-.989 0-.247-1.976.248-2.84.494-.865 1.855-2.717 1.855-2.717z" fill="#fff" stroke="#263238" stroke-miterlimit="10"/><path d="M129.133 143.077s1.237.371 1.237 1.482c0 1.112-2.35 2.964-2.968 3.088-.619.123-.495-.988 0-1.853.494-.864 1.731-2.717 1.731-2.717z" fill="#fff" stroke="#263238" stroke-miterlimit="10"/><path d="M130.369 144.559c.254.626.339 1.307.248 1.976-.124 1.235-1.979 1.976-2.597 1.976-.619 0-.619-.864-.619-.864a37.947 37.947 0 002.968-3.088v0zm-38.895 88.797h-2.35l-1.172-15.561h4.699l-1.177 15.561zm-21.518 0h-2.35l-1.172-15.561h4.7l-1.178 15.561zm77.663 0h-2.35l-1.172-15.561h4.699l-1.177 15.561zm-21.518 0h-2.35l-1.172-15.561h4.699l-1.177 15.561z" fill="#fff" stroke="#263238" stroke-miterlimit="10"/><path d="M144.344 188.021H88.199v32.604h56.145v-32.604z" fill="#263238" stroke="#263238" stroke-miterlimit="10"/><path d="M185.07 182.805s5.936-2.47 7.256-3.458c1.321-.988 3.132 1.151 2.306 3.458-.827 2.307-2.968 6.422-6.263 8.398-3.294 1.976-5.936 3.621-6.599 4.278-.663.657-.494 3.132-3.294 4.12s-6.268-.988-8.246-4.12a745.92 745.92 0 01-3.3-5.266s.168-2.307 3.463-3.458c3.294-1.151 8.904-1.65 8.904-1.65l5.773-2.302z" fill="#fff" stroke="#263238" stroke-miterlimit="10"/><path d="M117.508 162.837s3.913-.948 4.902-.454c.99.494 4.289 3.626 4.289 3.626s19.95.326 21.434.988c1.484.662 16.819 12.35 20.118 13.995a317.409 317.409 0 016.099 3.127l-2.473 10.868v.988l.168 1.65s-8.577-2.638-10.719-3.132c-2.142-.494-11.046-5.103-11.872-5.103-.826 0-7.584-1.976-7.584-1.976s-.989-.657-11.708-1.645c-10.72-.988-22.755-2.144-27.044-2.307-4.288-.163-9.893-.494-12.035-1.319-2.142-.825-5.936-6.585-6.594-10.043-.658-3.458 6.263-6.422 9.23-7.741 2.969-1.319 14.019-2.964 15.998-2.964 1.979 0 7.791 1.442 7.791 1.442z" fill="#fff" stroke="#263238" stroke-miterlimit="10"/><path d="M121.258 167.654l-3.3 4.777 4.452-2.964" fill="#fff"/><path d="M121.258 167.654l-3.3 4.777 4.452-2.964" stroke="#263238" stroke-miterlimit="10"/><path d="M171.877 181.98s4.784-3.789 5.773-4.94c.989-1.151 4.289-7.41 4.947-9.386.658-1.976 2.31-2.964 3.462-1.482 1.153 1.482 1.979 4.446 2.637 5.765.658 1.319-.327 7.736-2.305 9.88-1.979 2.144-4.714 7.336-5.278 8.398-1.484 2.796-3.794 3.127-5.278 3.29-1.484.163-5.11-3.784-5.11-3.784l1.152-7.741z" fill="#fff" stroke="#263238" stroke-miterlimit="10"/><path d="M98.503 170.949s4.947-.988 9.399-.494c4.452.494 13.519 3.29 17.313 4.278 3.794.988 10.551 1.482 13.688 2.638 3.136 1.156 11.377 2.633 17.639 2.633 6.263 0 15.83.825 15.83.825s-1.316 9.549-.99 11.362a28.062 28.062 0 001.321 4.278s-12.698.988-16.324 1.482c-3.626.494-18.303-1.808-20.776-2.47-2.473-.662-6.099-1.645-8.409-1.645-2.31 0-6.762.988-13.193 1.645s-15.498-2.139-16.65-2.302c-1.153-.163-5.279-1.65-6.268-2.307-.99-.657-6.762-10.868-4.783-15.151 1.978-4.283 4.452-4.94 4.452-4.94" fill="#fff"/><path d="M98.503 170.949s4.947-.988 9.399-.494c4.452.494 13.519 3.29 17.313 4.278 3.794.988 10.551 1.482 13.688 2.638 3.136 1.156 11.377 2.633 17.639 2.633 6.263 0 15.83.825 15.83.825s-1.316 9.549-.99 11.362a28.062 28.062 0 001.321 4.278s-12.698.988-16.324 1.482c-3.626.494-18.303-1.808-20.776-2.47-2.473-.662-6.099-1.645-8.409-1.645-2.31 0-6.762.988-13.193 1.645s-15.498-2.139-16.65-2.302c-1.153-.163-5.279-1.65-6.268-2.307-.99-.657-6.762-10.868-4.783-15.151 1.978-4.283 4.452-4.94 4.452-4.94" stroke="#263238" stroke-miterlimit="10"/><path d="M128.836 187.562c3.181.632 6.549 2.559 11.105 4.342 6.08 2.376 18.248 2.159 19.817 2.376 1.568.218 5.55 0 5.55 0" fill="#fff"/><path d="M128.836 187.562c3.181.632 6.549 2.559 11.105 4.342 6.08 2.376 18.248 2.159 19.817 2.376 1.568.218 5.55 0 5.55 0" stroke="#263238" stroke-miterlimit="10"/><path d="M104.311 189.795l1.815.262c5.283.79 15.335-2.11 19.549-2.638" fill="#fff"/><path d="M104.311 189.795l1.815.262c5.283.79 15.335-2.11 19.549-2.638" stroke="#263238" stroke-miterlimit="10"/><path d="M98.993 189.266s.95 0 3.428.292z" fill="#fff"/><path d="M98.993 189.266s.95 0 3.428.292" stroke="#263238" stroke-miterlimit="10"/><path d="M66.924 160.985s-5.936 0-7.124 5.928c-1.187 5.928 3.463 30.381 3.834 37.297.371 6.916 1.563 16.549 1.563 16.549H86.22l4.7-59.774H66.924z" fill="#263238" stroke="#263238" stroke-miterlimit="10"/><path d="M90.92 160.985s-5.936 0-7.42 5.928 1.979 30.381 1.979 37.297c0 6.916.742 16.549.742 16.549h7.42s.742-17.784.742-20.254c0-2.47 2.968-28.158 1.484-33.345-1.484-5.187-2.72-5.681-4.947-6.175z" fill="#636363" stroke="#263238" stroke-miterlimit="10"/><path d="M139.209 233.356h-2.35l-1.172-15.561h4.699l-1.177 15.561zm20.034 0h-2.349l-1.173-15.561h4.7l-1.178 15.561zm9.399 0h-2.35l-1.172-15.561h4.699l-1.177 15.561zm19.787 0h-2.35l-1.172-15.561h4.699l-1.177 15.561z" fill="#fff" stroke="#263238" stroke-miterlimit="10"/><path d="M136.305 197.541h51.668a3.587 3.587 0 013.587 3.581v25.318h-58.866v-25.318a3.573 3.573 0 011.059-2.541 3.597 3.597 0 012.552-1.04v0z" fill="#263238" stroke="#263238" stroke-miterlimit="10"/><path d="M187.998 197.541h-18.797c-.951 0-1.863.377-2.536 1.049a3.579 3.579 0 00-1.05 2.532v25.318h25.97v-25.318a3.59 3.59 0 00-3.587-3.581v0z" fill="#636363" stroke="#263238" stroke-miterlimit="10"/></svg>