<svg width="390" height="390" fill="none" xmlns="http://www.w3.org/2000/svg"><path d="M341.897 130.533h-69.669v158.044h69.669V130.533z" stroke="#263238" stroke-width=".75" stroke-linecap="round" stroke-linejoin="round"/><path d="M335.782 136.648h-57.439v145.813h57.439V136.648zm-50.91 64.381l-1.568 2.722m18.057-31.27l-14.68 25.428m28.15-48.765l-11.123 19.266m13.479-23.338l-1.186 2.044m-26.457 123.216l-1.334 2.309m4.423-7.659l-1.412 2.457m20.249-35.085l-15.811 27.394m29.811-51.644l-12.378 21.45m15.444-26.754l-1.224 2.122m-20.249 47.962l-11.404 19.757m25.99-45.021l-12.925 22.386m15.959-27.636l-1.529 2.644m-39.85-3.533l-1.732 3.003m16.887-29.25l-13.767 23.845m32.682-56.605l-17.292 29.944m28.657-49.631l-10.031 17.378m-200.936-29.632h-69.67v158.044h69.67V130.533z" stroke="#263238" stroke-width=".75" stroke-linecap="round" stroke-linejoin="round"/><path d="M111.657 136.648h-57.44v145.813h57.44V136.648zm-50.911 64.381l-1.567 2.722m18.049-31.27l-14.68 25.428m28.158-48.765L79.583 168.41m13.471-23.338l-1.178 2.044M65.419 270.332l-1.334 2.309m4.422-7.659l-1.42 2.457m20.257-35.085l-15.818 27.394m29.819-51.644l-12.386 21.45m15.452-26.754l-1.233 2.122m-20.241 47.962l-11.411 19.757m25.997-45.021L84.6 250.006m15.95-27.636l-1.521 2.644m-39.851-3.533l-1.739 3.003m16.887-29.25L60.56 219.079m32.681-56.605l-17.284 29.944m28.649-49.631l-10.031 17.378" stroke="#263238" stroke-width=".75" stroke-linecap="round" stroke-linejoin="round"/><path d="M23.01 354.455h343.98" stroke="#263238" stroke-linecap="round" stroke-linejoin="round"/><path d="M142.498 292.664h-5.967v20.288h5.967v-20.288z" fill="#fff"/><path opacity=".2" d="M142.498 292.664h-5.967v20.288h5.967v-20.288z" fill="#000"/><path d="M148.473 294.895h-5.967v18.057h5.967v-18.057zm7.449 0h-4.212v18.057h4.212v-18.057z" fill="#fff"/><path opacity=".9" d="M155.922 294.895h-4.212v18.057h4.212v-18.057z" fill="#fff"/><path d="M151.718 292.991h-3.822v19.968h3.822v-19.968z" fill="#fff"/><path opacity=".1" d="M151.718 292.991h-3.822v19.968h3.822v-19.968z" fill="#000"/><path d="M161.897 292.664h-5.967v20.288h5.967v-20.288z" fill="#fff"/><path d="M167.863 294.895h-5.967v18.057h5.967v-18.057z" fill="#fff"/><path opacity=".2" d="M167.863 294.895h-5.967v18.057h5.967v-18.057z" fill="#263238"/><path d="M175.32 294.895h-4.212v18.057h4.212v-18.057z" fill="#fff"/><path opacity=".8" d="M175.32 294.895h-4.212v18.057h4.212v-18.057z" fill="#fff"/><path d="M171.109 292.991h-3.822v19.968h3.822v-19.968z" fill="#fff"/><path opacity=".1" d="M171.109 292.991h-3.822v19.968h3.822v-19.968z" fill="#000"/><path d="M203.79 312.959h5.967v-20.287h-5.967v20.287z" fill="#fff"/><path opacity=".2" d="M203.79 312.959h5.967v-20.287h-5.967v20.287z" fill="#000"/><path d="M197.816 312.959h5.967v-18.057h-5.967v18.057zm-7.449 0h4.212v-18.057h-4.212v18.057z" fill="#fff"/><path opacity=".9" d="M190.367 312.959h4.212v-18.057h-4.212v18.057z" fill="#fff"/><path d="M194.571 312.952h3.822v-19.968h-3.822v19.968z" fill="#fff"/><path opacity=".1" d="M194.571 312.952h3.822v-19.968h-3.822v19.968z" fill="#000"/><path d="M184.392 312.959h5.967v-20.287h-5.967v20.287z" fill="#fff"/><path d="M178.425 312.959h5.967v-18.057h-5.967v18.057z" fill="#fff"/><path opacity=".2" d="M178.425 312.959h5.967v-18.057h-5.967v18.057z" fill="#263238"/><path d="M175.18 312.952h3.822v-19.968h-3.822v19.968z" fill="#fff"/><path opacity=".1" d="M175.18 312.952h3.822v-19.968h-3.822v19.968z" fill="#000"/><path d="M238.188 312.959h5.967v-20.287h-5.967v20.287z" fill="#fff"/><path opacity=".2" d="M238.188 312.959h5.967v-20.287h-5.967v20.287z" fill="#000"/><path d="M232.214 312.959h5.967v-18.057h-5.967v18.057zm-7.449 0h4.212v-18.057h-4.212v18.057z" fill="#fff"/><path opacity=".9" d="M224.765 312.959h4.212v-18.057h-4.212v18.057z" fill="#fff"/><path d="M228.969 312.952h3.822v-19.968h-3.822v19.968z" fill="#fff"/><path opacity=".1" d="M228.969 312.952h3.822v-19.968h-3.822v19.968z" fill="#000"/><path d="M218.79 312.959h5.967v-20.287h-5.967v20.287zm29.25-.716l3.919-1.051-5.275-19.679-3.919 1.05 5.275 19.68z" fill="#fff"/><path d="M212.823 312.959h5.967v-18.057h-5.967v18.057z" fill="#fff"/><path opacity=".2" d="M212.823 312.959h5.967v-18.057h-5.967v18.057z" fill="#263238"/><path d="M209.578 312.952h3.822v-19.968h-3.822v19.968z" fill="#fff"/><path opacity=".1" d="M209.578 312.952h3.822v-19.968h-3.822v19.968z" fill="#000"/><path d="M250.038 339.313l4.008-1.074-5.251-19.597-4.008 1.074 5.251 19.597z" fill="#fff"/><path opacity=".2" d="M250.038 339.313l4.008-1.074-5.251-19.597-4.008 1.074 5.251 19.597z" fill="#000"/><path d="M239.741 339.113h5.967v-18.057h-5.967v18.057zm-7.465 0h4.212v-18.057h-4.212v18.057z" fill="#fff"/><path opacity=".9" d="M232.276 339.113h4.212v-18.057h-4.212v18.057z" fill="#fff"/><path d="M236.488 339.121h3.822v-19.968h-3.822v19.968z" fill="#fff"/><path opacity=".1" d="M236.488 339.121h3.822v-19.968h-3.822v19.968z" fill="#000"/><path d="M226.317 339.121h5.967v-20.288h-5.967v20.288zm-5.975-.008h5.967v-18.057h-5.967v18.057z" fill="#fff"/><path opacity=".2" d="M220.342 339.113h5.967v-18.057h-5.967v18.057z" fill="#263238"/><path d="M212.893 339.113h4.212v-18.057h-4.212v18.057z" fill="#fff"/><path opacity=".8" d="M212.893 339.113h4.212v-18.057h-4.212v18.057z" fill="#fff"/><path d="M217.097 339.121h3.822v-19.968h-3.822v19.968z" fill="#fff"/><path opacity=".1" d="M217.097 339.121h3.822v-19.968h-3.822v19.968z" fill="#000"/><path d="M184.423 318.833h-5.967v20.288h5.967v-20.288z" fill="#fff"/><path opacity=".2" d="M184.423 318.833h-5.967v20.288h5.967v-20.288z" fill="#000"/><path d="M190.39 321.063h-5.967v18.057h5.967v-18.057zm7.457 0h-4.212v18.057h4.212v-18.057z" fill="#fff"/><path opacity=".9" d="M197.847 321.063h-4.212v18.057h4.212v-18.057z" fill="#fff"/><path d="M193.635 319.153h-3.822v19.968h3.822v-19.968z" fill="#fff"/><path opacity=".1" d="M193.635 319.153h-3.822v19.968h3.822v-19.968z" fill="#000"/><path d="M203.814 318.833h-5.967v20.288h5.967v-20.288zm5.967 2.23h-5.967v18.057h5.967v-18.057z" fill="#fff"/><path opacity=".2" d="M209.781 321.063h-5.967v18.057h5.967v-18.057z" fill="#263238"/><path d="M213.026 319.153h-3.822v19.968h3.822v-19.968z" fill="#fff"/><path opacity=".1" d="M213.026 319.153h-3.822v19.968h3.822v-19.968z" fill="#000"/><path d="M150.025 318.833h-5.967v20.288h5.967v-20.288z" fill="#fff"/><path opacity=".2" d="M150.025 318.833h-5.967v20.288h5.967v-20.288z" fill="#000"/><path d="M155.992 321.063h-5.967v18.057h5.967v-18.057zm7.457 0h-4.212v18.057h4.212v-18.057z" fill="#fff"/><path opacity=".9" d="M163.449 321.063h-4.212v18.057h4.212v-18.057z" fill="#fff"/><path d="M159.237 319.153h-3.822v19.968h3.822v-19.968z" fill="#fff"/><path opacity=".1" d="M159.237 319.153h-3.822v19.968h3.822v-19.968z" fill="#000"/><path d="M169.416 318.833h-5.967v20.288h5.967v-20.288zm-25.37.867l-3.903-1.046-5.251 19.597 3.903 1.045 5.251-19.596zm31.337 1.363h-5.967v18.057h5.967v-18.057z" fill="#fff"/><path opacity=".2" d="M175.383 321.063h-5.967v18.057h5.967v-18.057z" fill="#263238"/><path d="M178.628 319.153h-3.822v19.968h3.822v-19.968z" fill="#fff"/><path opacity=".1" d="M178.628 319.153h-3.822v19.968h3.822v-19.968z" fill="#000"/><path d="M141.118 354.455h-5.967l-.819-11.544h7.605l-.819 11.544zm113.731 0h-5.967l-.819-11.544h7.605l-.819 11.544z" fill="#263238"/><path d="M261.425 285.004h-132.85a2.863 2.863 0 00-2.863 2.863v54.272a2.863 2.863 0 002.863 2.863h132.85a2.863 2.863 0 002.862-2.863v-54.272a2.86 2.86 0 00-2.862-2.863zm-2.871 5.733v22.222h-127.14v-22.222h127.14zM131.445 339.3v-22.246h127.14V339.3h-127.14z" fill="#fff" stroke="#263238" stroke-width=".75" stroke-linecap="round" stroke-linejoin="round"/><path d="M241.784 171.007h-91.923a5.351 5.351 0 00-5.351 5.351v19.734a5.351 5.351 0 005.351 5.351h91.923a5.351 5.351 0 005.351-5.351v-19.734a5.351 5.351 0 00-5.351-5.351z" fill="#263238" stroke="#263238" stroke-linecap="round" stroke-linejoin="round"/><path d="M240.146 169.369h-91.923a5.35 5.35 0 00-5.35 5.351v19.734a5.35 5.35 0 005.35 5.351h91.923a5.35 5.35 0 005.351-5.351V174.72a5.35 5.35 0 00-5.351-5.351z" fill="#fff" stroke="#263238" stroke-linecap="round" stroke-linejoin="round"/><path d="M240.146 169.369h-91.923a5.35 5.35 0 00-5.35 5.351v19.734a5.35 5.35 0 005.35 5.351h91.923a5.35 5.35 0 005.351-5.351V174.72a5.35 5.35 0 00-5.351-5.351z" stroke="#263238" stroke-linecap="round" stroke-linejoin="round"/><path d="M165.594 193.573h-13.517v-17.098h9.009l4.508 4.509v12.589z" fill="#fff"/><path opacity=".5" d="M165.594 193.573h-13.517v-17.098h9.009l4.508 4.509v12.589z" fill="#fff"/><path d="M165.594 193.573h-13.517v-17.098h9.009l4.508 4.508v12.59z" stroke="#263238" stroke-linecap="round" stroke-linejoin="round"/><path d="M161.085 180.984h4.509l-4.509-4.509v4.509z" fill="#fff" stroke="#263238" stroke-linecap="round" stroke-linejoin="round"/><path d="M155.08 185.546a.858.858 0 010-1.708h7.511a.86.86 0 01.776.854.855.855 0 01-.776.854h-7.511zm0 3.596a.858.858 0 010-1.708h5.873a.855.855 0 01.776.854.855.855 0 01-.776.854h-5.873z" fill="#858585" stroke="#263238" stroke-width=".75" stroke-linecap="round" stroke-linejoin="round"/><path d="M199.766 186.529h-25.155a1.772 1.772 0 000 3.534h25.155v-3.534z" fill="#fff"/><path d="M174.611 190.063a1.772 1.772 0 010-3.534h59.904a1.776 1.776 0 011.327.474 1.77 1.77 0 01.414 1.998 1.77 1.77 0 01-1.741 1.062h-59.904z" stroke="#263238" stroke-linecap="round" stroke-linejoin="round"/><path d="M200.335 181.74h-1.896v-.897l1.802-4.267h1.084v4.267h.468v.897h-.468v1.147h-.99v-1.147zm0-.897v-2.457l-.975 2.465.975-.008zm1.919.554v-.492h.936v.562c0 .452.195.616.515.616s.515-.164.515-.616v-1.412c0-.452-.203-.624-.515-.624s-.515.172-.515.624v.055h-.936l.179-3.526h2.613v.905h-1.731l-.078 1.505a.935.935 0 01.858-.46c.725 0 1.1.515 1.1 1.443v1.42c0 1.014-.507 1.56-1.482 1.56s-1.459-.546-1.459-1.56zm3.572-2.317v-1.56a.956.956 0 01.569-.964.953.953 0 011.095.231.96.96 0 01.247.733v1.56a.969.969 0 01-.247.734.968.968 0 01-.708.312.97.97 0 01-.709-.312.956.956 0 01-.247-.734zm1.279.047v-1.669c0-.273-.124-.39-.319-.39s-.328.117-.328.39v1.669c0 .281.117.398.328.398.21 0 .319-.125.319-.398zm1.966-2.543h.632l-2.442 6.311h-.631l2.441-6.311zm-.476 5.39v-1.56a.96.96 0 111.911 0v1.56a.969.969 0 01-.247.734.952.952 0 01-.708.312.956.956 0 01-.956-1.046zm1.279.047v-1.669c0-.281-.124-.398-.327-.398s-.32.117-.32.398v1.669c0 .281.117.398.32.398s.327-.117.327-.398z" fill="#263238"/><path d="M241.784 206.326h-91.923a5.35 5.35 0 00-5.351 5.35v19.734a5.35 5.35 0 005.351 5.351h91.923a5.35 5.35 0 005.351-5.351v-19.734a5.35 5.35 0 00-5.351-5.35z" fill="#263238" stroke="#263238" stroke-linecap="round" stroke-linejoin="round"/><path d="M240.146 204.688h-91.923a5.35 5.35 0 00-5.35 5.35v19.734a5.35 5.35 0 005.35 5.351h91.923a5.35 5.35 0 005.351-5.351v-19.734a5.35 5.35 0 00-5.351-5.35z" fill="#fff" stroke="#263238" stroke-linecap="round" stroke-linejoin="round"/><path d="M219.609 221.629h-44.998a1.772 1.772 0 000 3.534h44.998v-3.534z" fill="#fff"/><path d="M174.611 225.163a1.772 1.772 0 010-3.534h59.904a1.776 1.776 0 011.327.474 1.77 1.77 0 01.414 1.998 1.77 1.77 0 01-1.741 1.062h-59.904z" stroke="#263238" stroke-linecap="round" stroke-linejoin="round"/><path d="M198.557 216.528v-.561a1.303 1.303 0 01.647-1.287 1.248 1.248 0 01-.608-1.241v-.257a1.513 1.513 0 113.026 0v.257a1.278 1.278 0 01-.616 1.241 1.299 1.299 0 01.655 1.287v.561a1.557 1.557 0 01-1.56 1.56 1.557 1.557 0 01-1.56-1.56h.016zm2.113-.055v-.608c0-.476-.195-.71-.561-.71-.367 0-.562.234-.562.71v.608c0 .476.195.71.562.71.366 0 .561-.234.561-.71zm0-2.846v-.5c0-.413-.179-.632-.522-.632s-.523.219-.523.632v.5c0 .413.18.631.523.631s.483-.218.483-.631h.039zm1.584 2.87v-.491h.936v.561c0 .453.195.616.515.616.319 0 .514-.163.514-.616v-1.412c0-.452-.202-.624-.514-.624s-.515.172-.515.624v.055h-.936l.179-3.526h2.613v.905h-1.731l-.078 1.506a.93.93 0 01.858-.461c.725 0 1.099.515 1.099 1.443v1.42a1.493 1.493 0 01-.392 1.117 1.48 1.48 0 01-1.678.349 1.487 1.487 0 01-.806-.867 1.505 1.505 0 01-.08-.599h.016zm3.572-2.317v-1.56a.956.956 0 01.569-.964.953.953 0 011.095.231.96.96 0 01.247.733v1.56a.969.969 0 01-.247.734.968.968 0 01-.708.312.97.97 0 01-.709-.312.956.956 0 01-.247-.734zm1.279.047v-1.669c0-.273-.124-.398-.319-.398s-.328.125-.328.398v1.669c0 .281.117.398.328.398.21 0 .319-.125.319-.398zm1.966-2.543h.632l-2.442 6.31h-.631l2.441-6.31zm-.476 5.39v-1.56a.96.96 0 111.911 0v1.56a.969.969 0 01-.247.734.952.952 0 01-.708.312.956.956 0 01-.956-1.046zm1.279.047v-1.669c0-.281-.124-.398-.327-.398s-.32.117-.32.398v1.669c0 .281.117.398.32.398s.327-.117.327-.398z" fill="#263238"/><path d="M165.594 228.673h-13.517v-17.098h9.009l4.508 4.508v12.59z" fill="#fff"/><path opacity=".5" d="M165.594 228.673h-13.517v-17.098h9.009l4.508 4.508v12.59z" fill="#fff" stroke="#263238" stroke-linecap="round" stroke-linejoin="round"/><path d="M165.594 228.673h-13.517v-17.098h9.009l4.508 4.508v12.59z" stroke="#263238" stroke-linecap="round" stroke-linejoin="round"/><path d="M155.08 220.646a.858.858 0 010-1.708h7.511a.86.86 0 01.776.854.855.855 0 01-.776.854h-7.511zm0 3.596a.858.858 0 010-1.708h5.873a.855.855 0 01.776.854.855.855 0 01-.776.854h-5.873z" fill="#858585" stroke="#263238" stroke-width=".75" stroke-linecap="round" stroke-linejoin="round"/><path d="M161.085 216.083h4.509l-4.509-4.508v4.508z" fill="#fff" stroke="#263238" stroke-linecap="round" stroke-linejoin="round"/><path d="M254.35 123.849H137.288a5.35 5.35 0 00-5.351 5.35v27.199a5.351 5.351 0 005.351 5.351H254.35a5.351 5.351 0 005.351-5.351v-27.199a5.35 5.35 0 00-5.351-5.35z" fill="#263238" stroke="#263238" stroke-linecap="round" stroke-linejoin="round"/><path d="M252.712 122.21H135.65a5.35 5.35 0 00-5.351 5.351v27.199a5.35 5.35 0 005.351 5.351h117.062a5.351 5.351 0 005.351-5.351v-27.199a5.351 5.351 0 00-5.351-5.351z" fill="#fff" stroke="#263238" stroke-linecap="round" stroke-linejoin="round"/><path d="M174.892 156.991h-25.031V125.33h16.685l8.346 8.339v23.322z" fill="#fff"/><path opacity=".7" d="M174.892 156.991h-25.031V125.33h16.685l8.346 8.339v23.322z" fill="#fff"/><path d="M174.892 156.991h-25.031V125.33h16.685l8.346 8.339v23.322z" stroke="#263238" stroke-linecap="round" stroke-linejoin="round"/><path d="M166.545 133.669h8.346l-8.346-8.339v8.339z" fill="#fff" stroke="#263238" stroke-linecap="round" stroke-linejoin="round"/><path d="M157.248 137.569h-4.914v4.914h4.914v-4.914zm5.054 0h-4.914v4.914h4.914v-4.914zm5.062 0h-4.914v4.914h4.914v-4.914zm5.055 0h-4.914v4.914h4.914v-4.914zm-15.171 4.914h-4.914v4.914h4.914v-4.914zm5.054 0h-4.914v4.914h4.914v-4.914zm5.062 0h-4.914v4.914h4.914v-4.914zm5.055 0h-4.914v4.914h4.914v-4.914zm-15.171 4.914h-4.914v4.914h4.914v-4.914zm5.054 0h-4.914v4.914h4.914v-4.914zm5.062 0h-4.914v4.914h4.914v-4.914zm5.055 0h-4.914v4.914h4.914v-4.914z" stroke="#fff" stroke-width=".75" stroke-linecap="round" stroke-linejoin="round"/><path d="M152.427 151.835l4.961-4.555 2.457.117 2.683-4.844 2.379 2.387 2.668-2.801 2.387-4.57" stroke="#fff" stroke-width="2" stroke-linecap="round" stroke-linejoin="round"/><path d="M167.146 138.996l2.816-1.427.569 3.073" stroke="#fff" stroke-width="2" stroke-linecap="round" stroke-linejoin="round"/><path d="M184.735 140.15H183.3v-.951c1.139 0 1.56-.25 1.856-1.084h.905v8.58h-1.349l.023-6.545zm2.925 4.525v-4.524a2.05 2.05 0 013.502-1.451c.385.385.601.906.601 1.451v4.524a2.05 2.05 0 01-2.051 2.051 2.052 2.052 0 01-2.052-2.051zm2.754.085v-4.68c0-.608-.273-.842-.702-.842-.429 0-.702.234-.702.842v4.68c0 .617.273.851.702.851.429 0 .702-.234.702-.851zm2.16-.085v-4.524a2.05 2.05 0 013.502-1.451c.385.385.601.906.601 1.451v4.524a2.05 2.05 0 01-2.051 2.051 2.052 2.052 0 01-2.052-2.051zm2.754.085v-4.68c0-.608-.273-.842-.702-.842-.429 0-.702.234-.702.842v4.68c0 .617.273.851.702.851.429 0 .702-.234.702-.851zm2.183-3.245v-2.145a1.302 1.302 0 012.605 0v2.145a1.303 1.303 0 01-2.605 0zm1.747.063v-2.27c0-.382-.171-.546-.444-.546s-.445.164-.445.546v2.27c0 .382.164.538.445.538s.444-.156.444-.538zm2.676-3.463h.866l-3.331 8.58h-.858l3.323-8.58zm-.655 7.347v-2.153a1.29 1.29 0 01.381-.921 1.296 1.296 0 01.921-.381 1.314 1.314 0 01.921.381 1.315 1.315 0 01.382.921v2.153a1.31 1.31 0 01-1.303 1.303 1.309 1.309 0 01-.921-.382 1.292 1.292 0 01-.381-.921zm1.747.063v-2.278c0-.382-.172-.538-.445-.538s-.437.156-.437.538v2.278c0 .374.156.538.437.538s.445-.164.445-.538zm3.042-1.498v-3.393a1.459 1.459 0 012.917 0v.671h-.936v-.733c0-.414-.203-.585-.499-.585-.297 0-.492.171-.492.585v3.525c0 .414.195.577.492.577.296 0 .499-.163.499-.577v-.967h.936v.897a1.459 1.459 0 01-2.917 0zm3.455-.039v-3.315a1.506 1.506 0 013.011 0v3.315c0 .399-.158.782-.441 1.064a1.501 1.501 0 01-2.129 0 1.506 1.506 0 01-.441-1.064zm2.021.062v-3.439c0-.453-.195-.624-.515-.624s-.515.171-.515.624v3.439c0 .453.203.624.515.624s.515-.171.515-.624zm1.653-4.875h1.42l.632 4.517.631-4.517h1.412v6.311h-.936v-4.774l-.725 4.774h-.827l-.718-4.774v4.774h-.865l-.024-6.311zm4.852 0h1.458c.991 0 1.475.554 1.475 1.56v.624c0 1.007-.484 1.56-1.475 1.56h-.468v2.567h-.99v-6.311zm1.458 2.84c.312 0 .484-.141.484-.593v-.78c0-.453-.172-.593-.484-.593h-.468v1.934l.468.032zm2.013-2.84h.991v5.406h1.63v.905h-2.621v-6.311zm3.12 0h2.698v.905h-1.708v1.662h1.35v.904h-1.358v1.935h1.709v.905h-2.691v-6.311zm4.025.905h-1.03v-.905h3.058v.905h-1.038v5.406h-.99v-5.406zm2.511-.905h2.699v.905h-1.708v1.662h1.357v.904h-1.357v1.935h1.708v.905h-2.699v-6.311zm3.268 0h1.514c.99 0 1.474.554 1.474 1.56v3.191c0 1.006-.484 1.56-1.474 1.56h-1.514v-6.311zm1.49 5.406c.32 0 .507-.164.507-.609v-3.283c0-.445-.187-.609-.507-.609h-.499v4.501h.499z" fill="#263238"/><path d="M241.784 241.652h-91.923a5.351 5.351 0 00-5.351 5.351v19.734a5.35 5.35 0 005.351 5.35h91.923a5.35 5.35 0 005.351-5.35v-19.734a5.351 5.351 0 00-5.351-5.351z" fill="#263238" stroke="#263238" stroke-linecap="round" stroke-linejoin="round"/><path d="M240.146 240.014h-91.923a5.35 5.35 0 00-5.35 5.351v19.734a5.35 5.35 0 005.35 5.351h91.923a5.35 5.35 0 005.351-5.351v-19.734a5.35 5.35 0 00-5.351-5.351z" fill="#fff" stroke="#263238" stroke-linecap="round" stroke-linejoin="round"/><path d="M216.434 256.737H174.61a1.765 1.765 0 00-1.762 1.763 1.76 1.76 0 001.762 1.763h41.824v-3.526z" fill="#fff"/><path d="M174.61 260.263a1.762 1.762 0 010-3.526h59.904a1.774 1.774 0 011.247.516 1.766 1.766 0 010 2.493 1.757 1.757 0 01-1.247.517H174.61z" stroke="#263238" stroke-linecap="round" stroke-linejoin="round"/><path d="M165.594 263.78h-13.517v-17.097h9.009l4.508 4.5v12.597z" fill="#fff"/><path opacity=".5" d="M165.594 263.78h-13.517v-17.097h9.009l4.508 4.5v12.597z" fill="#fff"/><path d="M165.594 263.78h-13.517v-17.097h9.009l4.508 4.5v12.597z" stroke="#263238" stroke-linecap="round" stroke-linejoin="round"/><path d="M155.08 255.754a.858.858 0 010-1.708h7.511a.855.855 0 01.776.854.855.855 0 01-.776.854h-7.511zm-.001 3.588a.848.848 0 01-.85-.85.852.852 0 01.85-.85h5.874a.85.85 0 110 1.7h-5.874z" fill="#858585" stroke="#263238" stroke-width=".75" stroke-linecap="round" stroke-linejoin="round"/><path d="M161.085 251.183h4.509l-4.509-4.5v4.5z" fill="#fff" stroke="#263238" stroke-linecap="round" stroke-linejoin="round"/><path d="M200.616 247.689h-2.005v-.897h2.972v.866l-1.56 5.46h-1.014l1.607-5.429zm1.591 3.916v-3.315a1.508 1.508 0 011.505-1.506 1.506 1.506 0 011.506 1.506v3.315a1.506 1.506 0 01-3.011 0zm2.02.062v-3.44c0-.452-.203-.624-.515-.624s-.514.172-.514.624v3.44c0 .452.202.616.514.616s.515-.164.515-.616zm1.599-2.379v-1.56a.954.954 0 01.247-.733.958.958 0 011.664.733v1.56a.969.969 0 01-.247.734.952.952 0 01-.708.312.956.956 0 01-.956-1.046zm1.279.047v-1.669c0-.281-.124-.398-.319-.398s-.328.117-.328.398v1.669c0 .273.117.39.328.39.21 0 .319-.125.319-.39zm1.935-2.543h.632l-2.442 6.302h-.632l2.442-6.302zm-.476 5.39v-1.56a.969.969 0 01.247-.734.952.952 0 01.708-.312.956.956 0 01.956 1.046v1.56a.96.96 0 11-1.911 0zm1.279.039v-1.662c0-.28-.125-.397-.327-.397-.203 0-.32.117-.32.397v1.662c0 .281.117.398.32.398.202 0 .358-.117.358-.398h-.031z" fill="#263238"/><path d="M92.383 85.956l20.585-15.912 20.584 15.912H92.383z" fill="#263238" stroke="#263238" stroke-linecap="round" stroke-linejoin="round"/><path d="M118.349 68.796h-10.764V78h10.764v-9.204z" fill="#263238" stroke="#263238" stroke-linecap="round" stroke-linejoin="round"/><path d="M112.967 45.926V78" stroke="#263238" stroke-width=".75" stroke-linecap="round" stroke-linejoin="round"/><path d="M256.44 85.956l20.592-15.912 20.585 15.912H256.44z" fill="#263238" stroke="#263238" stroke-linecap="round" stroke-linejoin="round"/><path d="M282.415 68.796h-10.764V78h10.764v-9.204z" fill="#263238" stroke="#263238" stroke-linecap="round" stroke-linejoin="round"/><path d="M277.033 44.367V78" stroke="#263238" stroke-width=".75" stroke-linecap="round" stroke-linejoin="round"/><path d="M285.067 334.3l-.437 12.87 6.661.32 2.426-13.19h-8.65z" fill="#fff" stroke="#263238" stroke-linecap="round" stroke-linejoin="round"/><path d="M272.033 351.117c2.246-.78 6.13-2.106 7.589-3.019 1.17-.733 2.8-3.12 4.009-3.79a2.021 2.021 0 011.607 0c.196.218.324.489.367.78a.662.662 0 001.209.171c.186-.366.453-.686.78-.936 1.029-.577 3.814-.741 4.726 0 1.514 1.24 2.06 5.515 2.34 7.441.071.422 0 2.762 0 2.762h-24.304v-1.069a2.444 2.444 0 011.677-2.34z" fill="#fff" stroke="#263238" stroke-linecap="round" stroke-linejoin="round"/><path d="M294.676 354.51h-24.321v-1.069c0-.265.045-.529.133-.78h24.219c0 .819-.031 1.849-.031 1.849z" fill="#858585" stroke="#263238" stroke-linecap="round" stroke-linejoin="round"/><path d="M289.271 234.523l-5.109 104.676 9.36 1.56s5.896-30.296 6.614-40.217c.172-2.34 0-9.399 0-9.399l6.622-32.596s4.36-4.025 4.867-23.19l-22.354-.834z" fill="#263238" stroke="#263238" stroke-linecap="round" stroke-linejoin="round"/><path opacity=".7" d="M303.124 275.036c.358-1.513.78-3.003 1.287-4.485a6.82 6.82 0 01.265-.601 59.438 59.438 0 011.068-6.591 3.65 3.65 0 011.241-2.075 3.013 3.013 0 011.973-1.692 40.62 40.62 0 00-1.31-5.952c-.593-2.043-1.56-4.001-1.849-6.115-.078-.546-.39-1.115-.289-1.178a20.268 20.268 0 01-1.965-.889l-.117-.093a295.43 295.43 0 00-.304 29.671z" fill="#000"/><path d="M288.826 294.395a9.347 9.347 0 004.399-2.394" stroke="#7F7F7F" stroke-width=".75" stroke-linecap="round" stroke-linejoin="round"/><path d="M282.929 341.188l11.318.928.842-3.666-12.16-.952v3.69zm32.682-8.471l2.411 15.046 6.162-.484-.203-15.405-8.37.843z" fill="#fff" stroke="#263238" stroke-linecap="round" stroke-linejoin="round"/><path d="M305.292 351.117c2.254-.78 6.138-2.106 7.589-3.019 1.17-.733 2.808-3.12 4.009-3.79a2.04 2.04 0 011.615 0c.141.145.241.325.289.522a.772.772 0 00.662.564.777.777 0 00.773-.4c.159-.269.371-.503.624-.686 1.029-.578 3.814-.741 4.727 0 1.513 1.24 2.059 5.514 2.34 7.441.062.421 0 2.761 0 2.761h-24.297v-1.069a2.45 2.45 0 011.669-2.324z" fill="#fff" stroke="#263238" stroke-linecap="round" stroke-linejoin="round"/><path d="M327.943 354.51h-24.32v-1.069a2.326 2.326 0 01.125-.78h24.219c0 .819-.024 1.849-.024 1.849z" fill="#858585" stroke="#263238" stroke-linecap="round" stroke-linejoin="round"/><path d="M302.297 237.682s2.34 13.548 4.493 24.913c1.466 7.706 1.56 30.474 1.56 30.474l7.472 47.011 9.212-1.24s.109-28.938-.928-38.22c-.234-2.067-.617-8.206-.617-8.206s.351-24.554 2.247-32.76c1.357-5.85 4.056-11.996.78-23.985l-24.219 2.013z" fill="#263238" stroke="#263238" stroke-linecap="round" stroke-linejoin="round"/><path d="M310.37 294.395a6.335 6.335 0 003.9 2.504" stroke="#7F7F7F" stroke-width=".75" stroke-linecap="round" stroke-linejoin="round"/><path d="M314.277 337.966l.531 3.448 11.419-1.225-.078-3.713-11.872 1.49z" fill="#fff" stroke="#263238" stroke-linecap="round" stroke-linejoin="round"/><path d="M258.827 175.009l-2.519-4.236s-.608-6.918-2.012-8.268c-1.404-1.349-4.524-5.319-4.969-4.539-.702 1.248 1.895 3.471 1.895 3.471l.476 2.574s-4.204-3.027-5.39-3.027c0 0-3.354-3.97-4.539-3.978-1.186-.008.483 2.746.483 2.746s-1.131-.866-1.349-.328c-.218.538 1.459 2.379 1.459 2.379s-.648.702.327 2.208a2.757 2.757 0 00.78 2.753c1.295 1.03 8.253 4.969 8.253 4.969l2.34 5.506 4.765-2.23z" fill="#858585" stroke="#263238" stroke-linecap="round" stroke-linejoin="round"/><path d="M243.282 161.912s.92.375.538 1.724c.367.522.573 1.141.593 1.779.093 1.185 6.099.6 7.722 3.12m-8.853-8.081l2.449 2.589" stroke="#263238" stroke-width=".75" stroke-linecap="round" stroke-linejoin="round"/><path d="M284.832 173.94l-16.075 12.527-11.014-15.007-5.608 2.808s8.814 24.351 15.483 24.351c7.09 0 20.568-11.388 20.568-11.388s.851-2.176-3.354-13.291z" fill="#fff" stroke="#263238" stroke-linecap="round" stroke-linejoin="round"/><path d="M269.365 187.66c.376.799.656 1.639.835 2.504" stroke="#263238" stroke-width=".75" stroke-linecap="round" stroke-linejoin="round"/><path d="M284.833 173.94l3.424 45.326v18.829s19.726 2.34 39.187-.499l-.671-19.383 1.973-43.204s-9.032-6.529-22.9-6.529c-13.869 0-21.013 5.46-21.013 5.46z" fill="#fff" stroke="#263238" stroke-linecap="round" stroke-linejoin="round"/><path opacity=".2" d="M327.444 237.596l-.624-17.371c-.335 8.37-9.571 5.226-11.661 4.836-2.239-.421-4.813 6.958-4.813 6.958s-8.58 1.474-15.295.951c-6.716-.522-6.818-6.653-6.818-6.653v11.778s19.75 2.371 39.211-.499z" fill="#000"/><path d="M297.5 218.829a52.07 52.07 0 0023.15-8.338l-23.15 8.338z" fill="#fff"/><path d="M297.5 218.829a52.07 52.07 0 0023.15-8.338" stroke="#263238" stroke-width=".75" stroke-linecap="round" stroke-linejoin="round"/><path d="M294.06 219.063s.663 0 1.833-.086l-1.833.086z" fill="#fff"/><path d="M294.06 219.063s.663 0 1.833-.086" stroke="#263238" stroke-width=".75" stroke-linecap="round" stroke-linejoin="round"/><path d="M300.737 176.124l-3.417-1.24-3.26 3.151 2.387-9.75 2.878-2.262 1.466.928 6.552-.249 5.094.413 2.426-.749 2.589 2.59-5.764 11.021-2.418-4.173-5.335.663-3.198-.343z" fill="#fff"/><path opacity=".5" d="M300.737 176.124l-3.417-1.24-3.26 3.151 2.387-9.75 2.878-2.262 1.466.928 6.552-.249 5.094.413 2.426-.749 2.589 2.59-5.764 11.021-2.418-4.173-5.335.663-3.198-.343z" fill="#fff"/><path d="M300.737 176.124l-3.417-1.24-3.26 3.151 2.387-9.75 2.878-2.262 1.466.928 6.552-.249 5.094.413 2.426-.749 2.589 2.59-5.764 11.021-2.418-4.173-5.335.663-3.198-.343z" stroke="#263238" stroke-linecap="round" stroke-linejoin="round"/><path d="M312.086 168.925l-.78-11.919-7.535 1.334-1.56 5.6-1.56 4.852-.741.078 2.052 11.138 10.873-10.92-.749-.163z" fill="#858585"/><path d="M293.561 157.833c0 3.026.468 9.797 4.625 10.585 4.306.819 9.243-4.08 11.014-6.038a5.178 5.178 0 001.021-1.669l.944-2.504a3.235 3.235 0 001.779-.374h-19.383z" fill="#263238" stroke="#263238" stroke-width=".5" stroke-linecap="round" stroke-linejoin="round"/><path d="M312.086 168.925l-.78-11.919-7.535 1.334-1.56 5.6-1.56 4.852-.741.078 2.052 11.138 10.873-10.92-.749-.163z" stroke="#263238" stroke-linecap="round" stroke-linejoin="round"/><path d="M298.584 142.529s-3.565-2.714-1.817-4.851c.912-1.108 2.098.351 2.098.351s-.632-3.401 1.903-3.9c2.34-.437 2.246 2.246 2.246 2.246s1.209-2.301 3.323-1.786c1.685.406 1.038 2.792 1.038 2.792s2.246-2.792 4.57-1.56c2.005 1.053.351 3.581.351 3.581s2.387-.843 3.721.499c1.334 1.341 0 3.12 0 3.12s2.629 0 2.746 1.965c.117 1.966-2.036 2.34-2.036 2.34s3.042.983 3.065 3.37c.024 2.387-2.012 1.622-2.012 1.622s1.263 2.247.21 3.44a1.264 1.264 0 01-1.021.515 1.274 1.274 0 01-1.022-.515s1.318 2.832-.351 3.658c-1.194.585-1.896-.85-1.896-.85s-1.006 2.449-2.223.952c-1.216-1.498-7.254-13.034-7.254-13.034l-5.639-3.955z" fill="#263238" stroke="#263238" stroke-width=".75" stroke-linecap="round" stroke-linejoin="round"/><path d="M297.554 142.639l-2.246 4.68a3.67 3.67 0 00-.351 1.56v1.466l-1.24 3.12a3.65 3.65 0 00-.156.499c-.398 1.662-2.293 10.585 2.34 12.402 4.087 1.607 9.843-2.27 11.957-3.861a5.117 5.117 0 001.311-1.458l1.404-2.278a2.948 2.948 0 003.268-1.147c1.256-1.801 2.706-2.776.983-4.399-1.724-1.622-3.315.975-3.315.975l.234-4.578-1.997-3.51-.102-2.208s-6.536-.725-10.92-3.12l-1.17 1.857z" fill="#fff" stroke="#263238" stroke-width=".75" stroke-linecap="round" stroke-linejoin="round"/><path d="M297.554 142.639l-2.246 4.68a3.67 3.67 0 00-.351 1.56v1.466l-1.24 3.12a3.65 3.65 0 00-.156.499c-.398 1.662-2.293 10.585 2.34 12.402 4.087 1.607 9.843-2.27 11.957-3.861a5.117 5.117 0 001.311-1.458l1.404-2.278a2.948 2.948 0 003.268-1.147c1.256-1.801 2.706-2.776.983-4.399-1.724-1.622-3.315.975-3.315.975l.234-4.578-1.997-3.51-.102-2.208s-6.536-.725-10.92-3.12l-1.17 1.857z" fill="#858585" stroke="#263238" stroke-linecap="round" stroke-linejoin="round"/><path d="M301.532 158.621c-1.264 2.441-2.98 2.036-4.056 1.427" stroke="#263238" stroke-width=".75" stroke-linecap="round" stroke-linejoin="round"/><path d="M301.555 153.075c-.171.554-.522.936-.779.858-.258-.078-.344-.601-.172-1.154.172-.554.523-.944.78-.858.257.085.343.6.171 1.154zm-5.21-1.615c-.172.562-.523.944-.78.858-.257-.085-.343-.6-.172-1.154.172-.554.531-.936.78-.85.25.086.344.593.172 1.146z" fill="#263238"/><path d="M295.971 147.857a1.55 1.55 0 011.699.608c.123.176.208.375.251.585m2.535.936s1.817-1.911 3.042.117m-5.538 1.849a4.492 4.492 0 01-2.886 3.268l1.419 2.254" stroke="#263238" stroke-width=".75" stroke-linecap="round" stroke-linejoin="round"/><path d="M307.016 241.379l-.398 2.41a1.561 1.561 0 001.256 1.755l25.014 4.103a1.562 1.562 0 001.755-1.256l.39-2.41-28.017-4.602z" fill="#fff" stroke="#263238" stroke-width=".75" stroke-linecap="round" stroke-linejoin="round"/><path d="M336.154 230.793l-25.3-4.152a1.38 1.38 0 00-1.586 1.139l-2.508 15.278a1.38 1.38 0 001.139 1.586l25.3 4.153a1.38 1.38 0 001.586-1.139l2.508-15.279a1.382 1.382 0 00-1.139-1.586z" fill="#fff"/><path opacity=".5" d="M336.154 230.793l-25.3-4.152a1.38 1.38 0 00-1.586 1.139l-2.508 15.278a1.38 1.38 0 001.139 1.586l25.3 4.153a1.38 1.38 0 001.586-1.139l2.508-15.279a1.382 1.382 0 00-1.139-1.586z" fill="#fff"/><path d="M336.154 230.793l-25.3-4.152a1.38 1.38 0 00-1.586 1.139l-2.508 15.278a1.38 1.38 0 001.139 1.586l25.3 4.153a1.38 1.38 0 001.586-1.139l2.508-15.279a1.382 1.382 0 00-1.139-1.586z" stroke="#263238" stroke-linecap="round" stroke-linejoin="round"/><path d="M326.391 233.641l-1.381 4.68-4.68 3.346a55.052 55.052 0 01-2.34 6.014.739.739 0 00.258.976.74.74 0 00.351.108c.647 0 1.404-.304 1.817-1.56 0 0 .18 2.465 1.701.96 0 0 .928 2.387 2.378.507 0 0 3.362.499 3.9-1.927.539-2.426 1.334-6.7 1.334-6.7l2.137-5.015-5.475-1.389z" fill="#858585" stroke="#263238" stroke-linecap="round" stroke-linejoin="round"/><path d="M320.385 246.246l.53-3.611m.305 3.845s.366 1.193 1.193.998c.827-.195 2.005.726 4.579-.358" stroke="#263238" stroke-width=".75" stroke-linecap="round" stroke-linejoin="round"/><path d="M328.746 175.009s11.7 32.51 11.482 37.26c-.218 4.75-8.541 25.413-8.541 25.413l-6.427-2.044 4.29-24.235-3.846-16.84s-.873-12.347 3.042-19.554z" fill="#fff" stroke="#263238" stroke-linecap="round" stroke-linejoin="round"/><path d="M330.993 210.865a3.641 3.641 0 013.073-.647" stroke="#263238" stroke-width=".75" stroke-linecap="round" stroke-linejoin="round"/><path d="M323.388 236.153a3.184 3.184 0 01-.515-1.03 1.777 1.777 0 00-.32 3.533 1.784 1.784 0 002.052-1.466 2.667 2.667 0 01-1.217-1.037zM95.113 167.536l1.42 6.997-15.772.663 2.738-19.391 10.624 1.232.99 10.499z" fill="#fff"/><path d="M102.18 156.92l-13.19 3.9c.165 1.512.478 3.004.936 4.454.78 2.247 5.53 6.24 8.58 6.193 3.05-.046 3.393-9.765 3.393-9.765l1.841-1.022a.856.856 0 00.415-.568.857.857 0 00-.15-.688l-1.825-2.504z" fill="#263238" stroke="#263238" stroke-width=".75" stroke-linecap="round" stroke-linejoin="round"/><path d="M95.113 167.536l1.42 6.997-15.772.663 2.738-19.391 10.624 1.232.99 10.499z" stroke="#263238" stroke-linecap="round" stroke-linejoin="round"/><path d="M95.839 142.888s3.83.78 3.44-3.377c-.39-4.158-7.528-1.615-11.248-1.147-3.72.468-15.733 4.953-11.482 12.036 0 0-2.504 3.993 6.513 10.693 0 0 4.282-2.012 6.63.929l1.833-3.573 4.68-8.221-.366-7.34z" fill="#263238" stroke="#263238" stroke-linecap="round" stroke-linejoin="round"/><path d="M95.558 142.264s3.666 2.044 5.772-.515c0 0 .234 5.46-5.772.515z" fill="#263238" stroke="#263238" stroke-linecap="round" stroke-linejoin="round"/><path d="M95.94 141.695s5.46 5.748 5.273 9.687v3.596l2.886 3.245a.788.788 0 01.101.958.78.78 0 01-.242.243l-1.677 1.162s.492 9.204-2.395 9.532c-2.885.328-7.69-3.12-8.65-5.148a28.2 28.2 0 01-1.56-5.764 4.362 4.362 0 01-3.19-3.697c-.335-3.027 2.715-2.941 3.502-.96l.64 1.615 1.981-.07s-1.13-2.855-.46-3.698c.67-.842 3.307-2.893 2.098-4.851-1.209-1.958-.803-5.289 1.693-5.85z" fill="#fff" stroke="#263238" stroke-linecap="round" stroke-linejoin="round"/><path d="M99.06 162.388a2.208 2.208 0 002.34 1.084" stroke="#263238" stroke-width=".75" stroke-linecap="round" stroke-linejoin="round"/><path d="M97.624 151.406s1.24-1.724 2.419-.148" stroke="#263238" stroke-linecap="round" stroke-linejoin="round"/><path d="M99.583 155.002c0 .538-.211.982-.5.99-.288.008-.538-.421-.553-.959-.016-.538.21-.983.499-.991.288-.008.538.398.554.96z" fill="#263238"/><path d="M74.568 327.787l-2.278 19.602 6.778 1.045 3.736-19.375-8.236-1.272z" fill="#fff" stroke="#263238" stroke-linecap="round" stroke-linejoin="round"/><path d="M71.377 241.176s.273 11.357 4.283 19.344l.912 30.139-4.625 48.563 10.288.983 9.36-50.794 3.12-46.02-23.338-2.215z" fill="#fff" stroke="#263238" stroke-linecap="round" stroke-linejoin="round"/><path opacity=".2" d="M93.264 265.52l-.858-5.406-3.9-17.011-.717-.367-16.38-1.56s0 1.864.366 4.618l8.089 4.586a27.05 27.05 0 001.926 8.385 1.475 1.475 0 01-1.482 2.036c-.834-.063-1.56 0-1.56.546 0 1.263 6.1 5.343 6.1 5.343s6.154 19.89 5.936 27.237l.834-4.524 1.646-23.883z" fill="#000"/><path d="M95.253 329.074l.741 19.719h6.857l.733-19.719h-8.33z" fill="#fff" stroke="#263238" stroke-linecap="round" stroke-linejoin="round"/><path d="M113.771 351.569a42.651 42.651 0 01-6.584-2.62c-1.014-.632-2.433-2.699-3.478-3.284a1.75 1.75 0 00-1.389 0c-.499.406-.522 2.519-.522 2.519s-.882-2.152-1.521-2.519c-.89-.499-3.308-.647-4.095 0-1.31 1.069-1.787 4.781-2.044 6.45-.062.367 0 2.395 0 2.395h21.06v-.928a2.117 2.117 0 00-1.427-2.013z" fill="#263238" stroke="#263238" stroke-linecap="round" stroke-linejoin="round"/><path d="M109.598 242.112l-1.685 45.56-2.816 52.018H94.38s-2.246-39.928-1.685-51.48l-5.624-26.715s-5.904-7.878-4.5-17.433l27.027-1.95z" fill="#fff" stroke="#263238" stroke-linecap="round" stroke-linejoin="round"/><path d="M93.428 335.821l.351 6.256h11.739l.913-6.256H93.428zm-22.339-.538l-.242 6.256 11.685 1.115 1.505-6.139-12.948-1.232zm56.277-123.162l-16.216-10.312 17.09-17.089 16.224 10.311-17.098 17.09z" fill="#fff" stroke="#263238" stroke-linecap="round" stroke-linejoin="round"/><path d="M128.294 208.595l-13.042-8.291 13.744-13.744 13.042 8.292-13.744 13.743z" fill="#fff" stroke="#263238" stroke-width=".75" stroke-linecap="round" stroke-linejoin="round"/><path d="M129.246 194.36l2.277-2.277-2.925-1.857-2.277 2.27 2.925 1.864zm-3.533 3.542l2.277-2.278-2.933-1.864-2.269 2.277 2.925 1.865zm-3.659 3.658l2.27-2.278-2.925-1.864-2.277 2.278 2.932 1.864z" stroke="#263238" stroke-width=".75" stroke-linecap="round" stroke-linejoin="round"/><path d="M134.823 187.379l-2.153 2.161a.962.962 0 00.164 1.49l3.12 2.004a1.795 1.795 0 002.231-.241l1.989-1.997-5.351-3.417zm-57.704-13.314l2.816-6.186s16.31-1.825 20.662 11.81l-23.478-5.624zm-9.259 5.273s-4.025 30.833-2.956 41.761c.842 8.642 6.536 15.959 6.536 15.959l8.44-3.308-4.29-12.651s1.334-22.776 2.597-28.08L67.86 179.338z" fill="#858585" stroke="#263238" stroke-linecap="round" stroke-linejoin="round"/><path d="M68.999 235.544l2.379 2.847 9.75-3.798-1.264-3.799-10.865 4.75z" fill="#858585" stroke="#263238" stroke-linecap="round" stroke-linejoin="round"/><path d="M67.86 179.338s-1.272 17.713 2.34 30.162c3.611 12.449 0 32.893 0 32.893s16.621 10.756 42.12 2.527c0 0-3.159-60.528-7.379-63.898-4.22-3.369-28.033-16.231-37.081-1.684z" fill="#858585" stroke="#263238" stroke-linecap="round" stroke-linejoin="round"/><path opacity=".2" d="M112.32 244.92s-1.084-20.748-2.824-38.626c-3.689-8.954-9.718-20.88-10.038-4.134-.468 24.219 14.438 22.792 2.628 27.012a19.202 19.202 0 01-16.286-1.264.969.969 0 00-1.408.85.968.968 0 00.207.609c2.964 3.767 7.465 6.115 10.92 7.464a1.518 1.518 0 01.964 1.575 1.517 1.517 0 01-1.276 1.335c-11.123 1.646-19.843-4.267-23.845-7.707-.468 5.96-1.24 10.359-1.24 10.359s16.7 10.756 42.198 2.527z" fill="#000"/><path d="M104.957 181.03a9.92 9.92 0 015.694 7.691c.842 5.803 6.24 23.626 6.24 23.626l1.794-1.162a7.463 7.463 0 014.305 7.995s-4.383 8.58-9.173 6.965c-4.921-1.669-7.675-5.694-10.14-12.277-1.302-3.51-5.062-14.087-5.062-14.087" fill="#858585"/><path d="M104.957 181.03a9.92 9.92 0 015.694 7.691c.842 5.803 6.24 23.626 6.24 23.626l1.794-1.162a7.463 7.463 0 014.305 7.995s-4.383 8.58-9.173 6.965c-4.921-1.669-7.675-5.694-10.14-12.277-1.302-3.51-5.062-14.087-5.062-14.087" stroke="#263238" stroke-linecap="round" stroke-linejoin="round"/><path d="M119.043 217.511c.029.458.008.919-.062 1.373m-3.159 2.215s1.474-2.34 1.264-7.387a4.68 4.68 0 011.56 2.098" stroke="#263238" stroke-width=".75" stroke-linecap="round" stroke-linejoin="round"/><path d="M119.862 210.694l5.624-4.01a7.104 7.104 0 014.992-5.272s2.598-4.29 4.072-3.791c1.474.499-1.755 2.246-2.036 4.493l1.193 1.599s3.9-.687 4.852-1.95c0 0-.211 2.675-1.755 3.12 0 0 0 2.035-1.053 1.965l-7.738 2.184-4.5 8.401-3.651-6.739z" fill="#fff" stroke="#263238" stroke-linecap="round" stroke-linejoin="round"/><path d="M96.837 230.194a17.17 17.17 0 002.636-.453m-24.742-12.332s8.292 12.683 20.28 12.855" stroke="#263238" stroke-width=".75" stroke-linecap="round" stroke-linejoin="round"/><path d="M117.437 210.834s5.865 4.43 5.304 9.773l2.113-4.048s-.07-3.408-4.921-7.02l-2.496 1.295z" fill="#858585" stroke="#263238" stroke-linecap="round" stroke-linejoin="round"/><path d="M94.138 354.51h21.06v-.928c0-.228-.037-.455-.109-.671H94.107c0 .71.031 1.599.031 1.599z" fill="#fff" stroke="#263238" stroke-width=".75" stroke-linecap="round" stroke-linejoin="round"/><path d="M89.7 351.569a42.666 42.666 0 01-6.583-2.62c-1.014-.632-2.434-2.699-3.471-3.284a1.765 1.765 0 00-1.397 0c-.499.406-.522 2.519-.522 2.519s-.874-2.152-1.521-2.519c-.89-.499-3.307-.647-4.095 0-1.31 1.069-1.786 4.781-2.044 6.45-.062.367 0 2.395 0 2.395h21.06v-.928a2.12 2.12 0 00-1.427-2.013z" fill="#263238" stroke="#263238" stroke-linecap="round" stroke-linejoin="round"/><path d="M70.052 354.51h21.06v-.928c0-.228-.037-.455-.11-.671h-20.98c0 .71.03 1.599.03 1.599z" fill="#fff" stroke="#263238" stroke-width=".75" stroke-linecap="round" stroke-linejoin="round"/><path d="M101.119 288.514s-2.239 3.861-5.866 2.387m-9.742-1.03s-4.017 3.432-7.34 1.03" stroke="#263238" stroke-width=".75" stroke-linecap="round" stroke-linejoin="round"/><path d="M127.428 189.953l.562 2.793h4.976l-4.048-.944.195-1.903-1.685.054z" fill="#fff"/></svg>