<svg width="104" height="29" fill="none" xmlns="http://www.w3.org/2000/svg"><path d="M13.336 15.076a5.19 5.19 0 012.484 1.116 6.279 6.279 0 011.8 2.232c.456.888.684 1.836.684 2.844 0 1.272-.324 2.424-.972 3.456-.648 1.008-1.596 1.812-2.844 2.412-1.224.576-2.676.864-4.356.864H.772V2.908h9c1.704 0 3.156.288 4.356.864 1.2.552 2.1 1.308 2.7 2.268.6.96.9 2.04.9 3.24 0 1.488-.408 2.724-1.224 3.708-.792.96-1.848 1.656-3.168 2.088zm-9.288-1.332h5.508c1.536 0 2.724-.36 3.564-1.08.84-.72 1.26-1.716 1.26-2.988s-.42-2.268-1.26-2.988c-.84-.72-2.052-1.08-3.636-1.08H4.048v8.136zM9.844 25.3c1.632 0 2.904-.384 3.816-1.152.912-.768 1.368-1.836 1.368-3.204 0-1.392-.48-2.484-1.44-3.276-.96-.816-2.244-1.224-3.852-1.224H4.048V25.3h5.796zm16.282-13.824c.576-1.128 1.392-2.004 2.448-2.628 1.08-.624 2.388-.936 3.924-.936v3.384h-.864c-3.672 0-5.508 1.992-5.508 5.976V28H22.85V8.272h3.276v3.204zm11.846-6.408a2.155 2.155 0 01-1.584-.648 2.155 2.155 0 01-.648-1.584c0-.624.216-1.152.648-1.584.432-.432.96-.648 1.584-.648.6 0 1.104.216 1.512.648.432.432.648.96.648 1.584 0 .624-.216 1.152-.648 1.584a1.997 1.997 0 01-1.512.648zm1.584 3.204V28H36.28V8.272h3.276zm9.58 2.7V22.6c0 .96.203 1.644.611 2.052.408.384 1.116.576 2.124.576h2.412V28h-2.952c-1.824 0-3.192-.42-4.104-1.26-.912-.84-1.368-2.22-1.368-4.14V10.972h-2.556v-2.7h2.556V3.304h3.276v4.968h5.148v2.7h-5.148z" fill="#000"/><path d="M61.529 1.36V28h-3.277V1.36h3.276zm23.583 16.02c0 .624-.036 1.284-.108 1.98H69.236c.12 1.944.78 3.468 1.98 4.572 1.224 1.08 2.7 1.62 4.428 1.62 1.416 0 2.592-.324 3.528-.972a5.302 5.302 0 002.016-2.664h3.528c-.528 1.896-1.584 3.444-3.168 4.644-1.584 1.176-3.552 1.764-5.904 1.764-1.872 0-3.552-.42-5.04-1.26-1.464-.84-2.616-2.028-3.456-3.564-.84-1.56-1.26-3.36-1.26-5.4 0-2.04.408-3.828 1.224-5.364.816-1.536 1.956-2.712 3.42-3.528 1.488-.84 3.192-1.26 5.112-1.26 1.872 0 3.528.408 4.968 1.224a8.324 8.324 0 013.312 3.384c.792 1.416 1.188 3.024 1.188 4.824zm-3.384-.684c0-1.248-.276-2.316-.828-3.204a5.21 5.21 0 00-2.268-2.052c-.936-.48-1.98-.72-3.132-.72-1.656 0-3.072.528-4.248 1.584-1.152 1.056-1.812 2.52-1.98 4.392h12.456zM99.732 28l-4.68-7.344-4.5 7.344h-3.42l6.372-9.792-6.372-9.936h3.708l4.68 7.308 4.464-7.308h3.42l-6.336 9.756L103.44 28h-3.708z" fill="#939393"/></svg>