<svg width="382" height="255" viewBox="0 0 382 255" fill="none" xmlns="http://www.w3.org/2000/svg">
<path d="M204.752 110.201C200.085 107.065 194.491 105.611 188.89 106.077C183.288 106.543 178.011 108.902 173.925 112.767C169.839 116.631 167.186 121.772 166.401 127.345C165.617 132.918 166.748 138.593 169.608 143.437" stroke="#263238" stroke-width="0.969642" stroke-linecap="round" stroke-linejoin="round"/>
<path d="M213.563 120.727C213.081 119.64 212.522 118.589 211.893 117.58" stroke="#263238" stroke-width="0.969642" stroke-linecap="round" stroke-linejoin="round"/>
<path d="M211.45 144.646C213.297 141.894 214.577 138.799 215.213 135.545C215.85 132.291 215.831 128.942 215.158 125.695" stroke="#263238" stroke-width="0.969642" stroke-linecap="round" stroke-linejoin="round"/>
<path d="M166.303 106.141C164.617 107.834 163.107 109.693 161.795 111.69" stroke="#263238" stroke-width="0.969642" stroke-linecap="round" stroke-linejoin="round"/>
<path d="M218.413 152.097C223.399 145.643 225.965 137.641 225.662 129.486C225.36 121.331 222.208 113.541 216.756 107.476C211.304 101.41 203.899 97.4527 195.832 96.2945C187.765 95.1363 179.547 96.8505 172.613 101.138" stroke="#263238" stroke-width="0.969642" stroke-linecap="round" stroke-linejoin="round"/>
<path d="M163.333 152.097C159.893 147.639 157.581 142.413 156.595 136.866C155.608 131.319 155.977 125.616 157.669 120.243" stroke="#263238" stroke-width="0.969642" stroke-linecap="round" stroke-linejoin="round"/>
<path d="M152.428 160.905C154.593 163.673 157.048 166.2 159.752 168.443" stroke="#263238" stroke-width="0.969642" stroke-linecap="round" stroke-linejoin="round"/>
<path d="M218.534 90.4383C209.815 84.4593 199.394 81.4723 188.836 81.9254C178.278 82.3784 168.15 86.247 159.974 92.9509C151.797 99.6547 146.011 108.833 143.484 119.108C140.958 129.383 141.826 140.201 145.96 149.94" stroke="#263238" stroke-width="0.969642" stroke-linecap="round" stroke-linejoin="round"/>
<path d="M236.463 113.108C235.151 109.719 233.464 106.488 231.436 103.474" stroke="#263238" stroke-width="0.969642" stroke-linecap="round" stroke-linejoin="round"/>
<path d="M224.667 166.112C229.441 161.552 233.239 156.068 235.831 149.994C238.424 143.919 239.757 137.38 239.748 130.774" stroke="#263238" stroke-width="0.969642" stroke-linecap="round" stroke-linejoin="round"/>
<path d="M122.647 130.774C122.648 147.003 128.387 162.708 138.847 175.105C149.308 187.501 163.814 195.788 179.795 198.497" stroke="#263238" stroke-width="0.969642" stroke-linecap="round" stroke-linejoin="round"/>
<path d="M246.008 171.641C254.363 160.32 259.044 146.702 259.417 132.63C259.79 118.558 255.836 104.711 248.092 92.962C240.347 81.2134 229.186 72.1306 216.117 66.9423C203.048 61.7541 188.702 60.7109 175.022 63.954" stroke="#263238" stroke-width="0.969642" stroke-linecap="round" stroke-linejoin="round"/>
<path d="M122.647 130.774C122.648 115.379 127.813 100.429 137.315 88.3253C146.816 76.221 160.103 67.6634 175.043 64.0254" stroke="#263238" stroke-width="0.969642" stroke-linecap="round" stroke-linejoin="round"/>
<path d="M231.436 186.15C233.178 184.868 234.854 183.508 236.463 182.07" stroke="#263238" stroke-width="0.969642" stroke-linecap="round" stroke-linejoin="round"/>
<path d="M202.312 198.497C210.112 197.189 217.625 194.532 224.514 190.643" stroke="#263238" stroke-width="0.969642" stroke-linecap="round" stroke-linejoin="round"/>
<path d="M190.903 192.347C183.957 192.338 177.298 189.572 172.386 184.654C167.474 179.736 164.711 173.067 164.703 166.112V157.279C164.703 156.9 164.853 156.537 165.121 156.269C165.388 156.001 165.751 155.851 166.129 155.851H169.695C170.073 155.851 170.436 156.001 170.703 156.269C170.97 156.537 171.121 156.9 171.121 157.279C171.121 157.658 170.97 158.021 170.703 158.289C170.436 158.557 170.073 158.707 169.695 158.707H167.571V166.112C167.571 172.312 170.031 178.259 174.409 182.643C178.788 187.027 184.726 189.491 190.919 189.491C197.111 189.491 203.049 187.027 207.428 182.643C211.806 178.259 214.266 172.312 214.266 166.112V158.707H212.127C211.749 158.707 211.386 158.557 211.119 158.289C210.851 158.021 210.701 157.658 210.701 157.279C210.701 156.9 210.851 156.537 211.119 156.269C211.386 156.001 211.749 155.851 212.127 155.851H215.692C216.071 155.851 216.433 156.001 216.701 156.269C216.968 156.537 217.119 156.9 217.119 157.279V166.112C217.111 173.07 214.345 179.741 209.43 184.659C204.515 189.578 197.852 192.342 190.903 192.347V192.347Z" fill="#263238"/>
<path d="M218.529 214.297V211.441C218.53 211.066 218.457 210.694 218.314 210.347C218.171 210 217.96 209.685 217.695 209.42C217.43 209.155 217.116 208.944 216.769 208.801C216.423 208.658 216.052 208.584 215.677 208.585H166.129C165.754 208.584 165.383 208.658 165.037 208.801C164.69 208.944 164.376 209.155 164.111 209.42C163.846 209.685 163.636 210 163.493 210.347C163.35 210.694 163.276 211.066 163.277 211.441V214.297H218.529Z" fill="#263238"/>
<path d="M193.684 212.063C193.731 211.859 193.755 211.65 193.755 211.441V190.918H188.051V211.441C188.051 211.65 188.075 211.859 188.122 212.063H193.684Z" fill="#263238"/>
<path d="M208.547 130.774C208.587 128.429 208.159 126.099 207.291 123.92C206.422 121.741 205.128 119.758 203.486 118.085C201.843 116.412 199.884 115.083 197.724 114.177C195.563 113.27 193.244 112.802 190.901 112.802C188.558 112.802 186.239 113.27 184.078 114.177C181.917 115.083 179.959 116.412 178.316 118.085C176.673 119.758 175.38 121.741 174.511 123.92C173.642 126.099 173.215 128.429 173.255 130.774V166.112C173.334 170.746 175.227 175.164 178.528 178.413C181.829 181.663 186.272 183.483 190.901 183.483C195.53 183.483 199.973 181.663 203.274 178.413C206.574 175.164 208.468 170.746 208.547 166.112V130.774Z" stroke="#263238" stroke-width="0.969642" stroke-linecap="round" stroke-linejoin="round"/>
<path d="M208.547 130.774C208.587 128.429 208.159 126.099 207.291 123.92C206.422 121.741 205.128 119.758 203.486 118.085C201.843 116.412 199.884 115.083 197.724 114.177C195.563 113.27 193.244 112.802 190.901 112.802C188.558 112.802 186.239 113.27 184.078 114.177C181.917 115.083 179.959 116.412 178.316 118.085C176.673 119.758 175.38 121.741 174.511 123.92C173.642 126.099 173.215 128.429 173.255 130.774V166.112C173.334 170.746 175.227 175.164 178.528 178.413C181.829 181.663 186.272 183.483 190.901 183.483C195.53 183.483 199.973 181.663 203.274 178.413C206.574 175.164 208.468 170.746 208.547 166.112V130.774Z" fill="#E8E8E8"/>
<path d="M183.594 132.636H173.255V136.92H183.594C184.162 136.92 184.706 136.694 185.107 136.292C185.508 135.891 185.734 135.346 185.734 134.778C185.734 134.21 185.508 133.665 185.107 133.263C184.706 132.861 184.162 132.636 183.594 132.636V132.636Z" fill="white"/>
<path d="M208.547 132.636H198.212C197.645 132.636 197.101 132.861 196.7 133.263C196.299 133.665 196.073 134.21 196.073 134.778C196.073 135.346 196.299 135.891 196.7 136.292C197.101 136.694 197.645 136.92 198.212 136.92H208.547V132.636Z" fill="white"/>
<path d="M190.903 132.636C190.48 132.636 190.067 132.761 189.715 132.997C189.363 133.232 189.089 133.567 188.927 133.958C188.765 134.349 188.723 134.78 188.805 135.196C188.888 135.611 189.092 135.993 189.391 136.292C189.69 136.592 190.071 136.796 190.486 136.879C190.901 136.961 191.331 136.919 191.722 136.757C192.113 136.595 192.447 136.32 192.682 135.968C192.917 135.616 193.043 135.201 193.043 134.778C193.043 134.21 192.817 133.665 192.416 133.263C192.015 132.861 191.471 132.636 190.903 132.636V132.636Z" fill="white"/>
<path d="M190.903 141.296C190.48 141.296 190.067 141.421 189.715 141.657C189.363 141.892 189.089 142.226 188.927 142.618C188.765 143.009 188.723 143.44 188.805 143.855C188.888 144.271 189.092 144.653 189.391 144.952C189.69 145.252 190.071 145.456 190.486 145.538C190.901 145.621 191.331 145.579 191.722 145.416C192.113 145.254 192.447 144.98 192.682 144.628C192.917 144.275 193.043 143.861 193.043 143.438C193.043 142.869 192.817 142.325 192.416 141.923C192.015 141.521 191.471 141.296 190.903 141.296V141.296Z" fill="white"/>
<path d="M190.903 149.94C190.48 149.94 190.067 150.066 189.715 150.301C189.363 150.536 189.089 150.871 188.927 151.262C188.765 151.654 188.723 152.084 188.805 152.5C188.888 152.915 189.092 153.297 189.391 153.597C189.69 153.896 190.071 154.1 190.486 154.183C190.901 154.266 191.331 154.223 191.722 154.061C192.113 153.899 192.447 153.624 192.682 153.272C192.917 152.92 193.043 152.506 193.043 152.082C193.043 151.514 192.817 150.969 192.416 150.567C192.015 150.166 191.471 149.94 190.903 149.94V149.94Z" fill="white"/>
<path d="M183.594 141.296H173.255V145.58H183.594C184.162 145.58 184.706 145.354 185.107 144.952C185.508 144.55 185.734 144.006 185.734 143.438C185.734 142.869 185.508 142.325 185.107 141.923C184.706 141.521 184.162 141.296 183.594 141.296V141.296Z" fill="white"/>
<path d="M208.547 141.296H198.212C197.645 141.296 197.101 141.521 196.7 141.923C196.299 142.325 196.073 142.869 196.073 143.438C196.073 144.006 196.299 144.55 196.7 144.952C197.101 145.354 197.645 145.58 198.212 145.58H208.547V141.296Z" fill="white"/>
<path d="M183.594 149.94H173.255V154.224H183.594C184.162 154.224 184.706 153.998 185.107 153.597C185.508 153.195 185.734 152.65 185.734 152.082C185.734 151.514 185.508 150.969 185.107 150.567C184.706 150.166 184.162 149.94 183.594 149.94V149.94Z" fill="white"/>
<path d="M208.547 149.94H198.212C197.645 149.94 197.101 150.166 196.7 150.567C196.299 150.969 196.073 151.514 196.073 152.082C196.073 152.65 196.299 153.195 196.7 153.597C197.101 153.998 197.645 154.224 198.212 154.224H208.547V149.94Z" fill="white"/>
<path d="M208.547 130.774C208.587 128.429 208.159 126.099 207.291 123.92C206.422 121.741 205.128 119.758 203.486 118.085C201.843 116.412 199.884 115.083 197.724 114.177C195.563 113.27 193.244 112.802 190.901 112.802C188.558 112.802 186.239 113.27 184.078 114.177C181.917 115.083 179.959 116.412 178.316 118.085C176.673 119.758 175.38 121.741 174.511 123.92C173.642 126.099 173.215 128.429 173.255 130.774V166.112C173.334 170.746 175.227 175.164 178.528 178.413C181.829 181.663 186.272 183.483 190.901 183.483C195.53 183.483 199.973 181.663 203.274 178.413C206.574 175.164 208.468 170.746 208.547 166.112V130.774Z" stroke="#263238" stroke-width="0.969642" stroke-miterlimit="10"/>
<path d="M173.255 166.112C173.334 170.746 175.227 175.164 178.528 178.413C181.829 181.663 186.272 183.483 190.901 183.483C195.529 183.483 199.973 181.663 203.274 178.413C206.574 175.164 208.468 170.746 208.547 166.112H173.255Z" fill="#263238" stroke="#263238" stroke-width="0.969642" stroke-miterlimit="10"/>
<path d="M340.58 157.211C362.615 135.148 362.615 99.3753 340.58 77.3115C318.546 55.2477 282.82 55.2478 260.785 77.3115C238.75 99.3753 238.75 135.148 260.785 157.211C282.82 179.275 318.546 179.275 340.58 157.211Z" fill="#E8E8E8"/>
<path d="M292.592 93.8859H253.175C251.189 93.8859 249.579 95.4979 249.579 97.4865V136.955C249.579 138.944 251.189 140.556 253.175 140.556H292.592C294.578 140.556 296.188 138.944 296.188 136.955V97.4865C296.188 95.4979 294.578 93.8859 292.592 93.8859Z" fill="white"/>
<g opacity="0.1">
<path opacity="0.1" d="M253.974 140.561H269.529L279.441 93.8859H263.254L253.358 140.51C253.562 140.542 253.768 140.559 253.974 140.561V140.561Z" fill="black"/>
<path opacity="0.1" d="M286.032 93.8859H282.14L272.234 140.561H276.125L286.032 93.8859Z" fill="black"/>
</g>
<path d="M291.792 141.724H253.974C252.503 141.721 251.092 141.136 250.051 140.095C249.01 139.054 248.422 137.643 248.417 136.17V98.2872C248.42 96.8124 249.006 95.3987 250.048 94.3558C251.089 93.3129 252.501 92.7258 253.974 92.7231H291.792C293.266 92.7245 294.679 93.311 295.721 94.354C296.764 95.397 297.351 96.8115 297.354 98.2872V136.17C297.348 137.644 296.76 139.056 295.718 140.097C294.676 141.138 293.264 141.723 291.792 141.724V141.724ZM253.974 95.0538C253.117 95.0538 252.295 95.3943 251.689 96.0006C251.082 96.6068 250.741 97.4292 250.74 98.2872V136.17C250.74 137.029 251.08 137.854 251.687 138.462C252.293 139.07 253.116 139.412 253.974 139.414H291.792C292.217 139.414 292.638 139.33 293.031 139.167C293.423 139.004 293.78 138.765 294.081 138.463C294.381 138.162 294.619 137.804 294.781 137.411C294.944 137.017 295.027 136.596 295.026 136.17V98.2872C295.026 97.8622 294.942 97.4413 294.78 97.0487C294.617 96.6561 294.379 96.2994 294.079 95.9991C293.778 95.6988 293.422 95.4607 293.029 95.2985C292.637 95.1363 292.216 95.0532 291.792 95.0538H253.974Z" fill="white" stroke="#263238" stroke-width="0.932567" stroke-miterlimit="10"/>
<path d="M347.411 93.8859H307.994C306.008 93.8859 304.398 95.4979 304.398 97.4865V136.955C304.398 138.944 306.008 140.556 307.994 140.556H347.411C349.397 140.556 351.007 138.944 351.007 136.955V97.4865C351.007 95.4979 349.397 93.8859 347.411 93.8859Z" fill="white"/>
<g opacity="0.1">
<path opacity="0.1" d="M312.863 140.561H328.418L338.325 93.8859H322.143L312.221 140.51C312.433 140.543 312.648 140.561 312.863 140.561V140.561Z" fill="black"/>
<path opacity="0.1" d="M344.92 93.8859H341.029L331.117 140.561H335.014L344.92 93.8859Z" fill="black"/>
</g>
<path d="M346.612 141.724H308.794C307.322 141.721 305.912 141.136 304.871 140.095C303.83 139.054 303.242 137.643 303.237 136.17V98.2872C303.24 96.8124 303.826 95.3987 304.867 94.3558C305.909 93.3129 307.321 92.7258 308.794 92.7231H346.612C348.085 92.7245 349.499 93.311 350.541 94.354C351.584 95.397 352.171 96.8115 352.174 98.2872V136.17C352.168 137.644 351.58 139.056 350.538 140.097C349.495 141.138 348.084 141.723 346.612 141.724V141.724ZM308.794 95.0538C307.937 95.0538 307.115 95.3943 306.508 96.0006C305.902 96.6068 305.561 97.4292 305.559 98.2872V136.17C305.559 137.029 305.9 137.854 306.506 138.462C307.113 139.07 307.935 139.412 308.794 139.414H346.612C347.037 139.414 347.458 139.33 347.851 139.167C348.243 139.004 348.6 138.765 348.9 138.463C349.201 138.162 349.439 137.804 349.601 137.411C349.763 137.017 349.847 136.596 349.846 136.17V98.2872C349.846 97.8622 349.762 97.4413 349.6 97.0487C349.437 96.6561 349.199 96.2994 348.898 95.9991C348.598 95.6988 348.241 95.4607 347.849 95.2985C347.457 95.1363 347.036 95.0532 346.612 95.0538H308.794Z" fill="white" stroke="#263238" stroke-width="0.932567" stroke-miterlimit="10"/>
<path d="M302.208 226.17C316.225 226.17 327.588 224.496 327.588 222.431C327.588 220.367 316.225 218.693 302.208 218.693C288.191 218.693 276.828 220.367 276.828 222.431C276.828 224.496 288.191 226.17 302.208 226.17Z" fill="#E8E8E8"/>
<path d="M313.423 200.654C313.423 200.654 313.357 211.125 312.252 212.849C310.933 214.889 309.996 217.739 313.49 218.515C316.984 219.29 319.062 223.15 323.223 223.405C327.384 223.66 327.807 221.875 325.994 220.442C324.18 219.009 319.576 215.036 318.97 213.104C318.364 211.171 319.54 200.654 319.54 200.654H313.423Z" fill="white"/>
<path opacity="0.1" d="M318.985 206.734C319.209 203.648 319.54 200.654 319.54 200.654H313.428C313.428 200.654 313.428 203.332 313.25 206.203C315.144 206.539 317.062 206.716 318.985 206.734V206.734Z" fill="black"/>
<path d="M313.423 200.654C313.423 200.654 313.357 211.125 312.252 212.849C310.933 214.889 309.996 217.739 313.49 218.515C316.984 219.29 319.062 223.15 323.223 223.405C327.384 223.66 327.807 221.875 325.994 220.442C324.18 219.009 319.576 215.036 318.97 213.104C318.364 211.171 319.54 200.654 319.54 200.654H313.423Z" stroke="#263238" stroke-width="0.932567" stroke-linecap="round" stroke-linejoin="round"/>
<path d="M325.974 220.442C324.275 219.095 322.662 217.642 321.145 216.092C319.694 217.194 315.441 216.153 314.188 215.164C312.66 213.96 312.981 213.343 312.257 212.803L312.232 212.849C310.913 214.889 309.975 217.739 313.47 218.515C316.964 219.29 319.042 223.151 323.203 223.406C327.364 223.661 327.797 221.85 325.974 220.442Z" fill="#BFBFBF" stroke="#263238" stroke-width="0.932567" stroke-miterlimit="10"/>
<path d="M289.928 196.86C289.928 196.86 285.344 206.438 283.612 207.606C281.519 209.003 279.441 211.252 282.308 213.256C285.176 215.261 285.43 219.575 289.133 221.355C292.836 223.135 293.992 221.631 292.948 219.667C291.904 217.704 289.383 212.328 289.663 210.329C289.943 208.33 295.581 198.9 295.581 198.9L289.928 196.86Z" fill="white"/>
<path opacity="0.1" d="M289.928 196.86C289.928 196.86 288.288 200.297 286.602 203.301C287.963 204.652 289.531 205.777 291.247 206.632C293.004 203.225 295.582 198.915 295.582 198.915L289.928 196.86Z" fill="black"/>
<path d="M289.928 196.86C289.928 196.86 285.344 206.438 283.612 207.606C281.519 209.003 279.441 211.252 282.308 213.256C285.176 215.261 285.43 219.575 289.133 221.355C292.836 223.135 293.992 221.631 292.948 219.667C291.904 217.704 289.383 212.328 289.663 210.329C289.943 208.33 295.581 198.9 295.581 198.9L289.928 196.86Z" stroke="#263238" stroke-width="0.932567" stroke-linecap="round" stroke-linejoin="round"/>
<path d="M292.948 219.642C291.972 217.773 291.121 215.84 290.402 213.858C288.593 214.333 284.835 211.91 284.422 210.431C283.622 207.58 284.096 208.315 283.663 207.55L283.622 207.58C281.529 208.978 279.451 211.227 282.318 213.231C285.186 215.235 285.441 219.55 289.143 221.33C292.846 223.11 293.992 221.605 292.948 219.642Z" fill="#BFBFBF" stroke="#263238" stroke-width="0.932567" stroke-miterlimit="10"/>
<path d="M314.162 129.086C314.162 129.086 321.176 162.746 321.644 173.726C322.113 184.707 320.289 204.291 320.289 204.291L312.502 203.781C312.502 203.781 312.451 197.992 311.671 189.934C311.208 185.145 309.751 179.556 309.914 173.905C309.914 173.905 302.514 151.929 302.784 142.285C303.054 132.641 302.784 129.866 302.784 129.866L314.162 129.086Z" fill="#263238" stroke="#263238" stroke-width="0.932567" stroke-linecap="round" stroke-linejoin="round"/>
<path d="M295.413 129.086C295.413 129.086 288.14 135.104 292.357 147.237C294.018 152.051 300.425 174.073 300.425 174.073C298.665 176.089 297.175 178.326 295.994 180.729C293.071 186.512 290.942 195.519 287.335 200.685L292.673 204.291C292.673 204.291 309.909 182.656 311.009 175.787C312.109 168.917 306.935 141.448 306.935 141.448L305.279 130.285L295.413 129.086Z" fill="#263238" stroke="#263238" stroke-width="0.932567" stroke-linecap="round" stroke-linejoin="round"/>
<path d="M327.67 106.274C327.574 105.134 327.19 104.037 326.554 103.086C327.088 102.383 327.55 101.628 327.934 100.832C328.322 99.8988 327.807 98.5779 326.732 100.159C325.658 101.74 324.476 102.893 324.904 104.866C325.129 106.14 324.898 107.453 324.252 108.574L326.732 110.517L331.678 106.59L327.67 106.274Z" fill="white" stroke="#263238" stroke-width="0.932567" stroke-linecap="round" stroke-linejoin="round"/>
<path d="M329.999 96.1855L325.841 97.3174C325.459 97.4216 325.233 97.8168 325.337 98.2L327.706 106.926C327.81 107.309 328.205 107.535 328.587 107.431L332.746 106.299C333.128 106.195 333.354 105.8 333.25 105.416L330.881 96.6907C330.777 96.3075 330.382 96.0813 329.999 96.1855Z" fill="#263238" stroke="#263238" stroke-width="0.932567" stroke-linecap="round" stroke-linejoin="round"/>
<path d="M330.91 96.7991L325.366 98.3083L327.678 106.822L333.222 105.313L330.91 96.7991Z" fill="#E8E8E8" stroke="#263238" stroke-width="0.932567" stroke-linecap="round" stroke-linejoin="round"/>
<path d="M329.799 99.7457C329.731 99.4833 329.562 99.2585 329.329 99.1208C329.096 98.9831 328.818 98.9437 328.556 99.0113C328.294 99.079 328.069 99.2481 327.932 99.4814C327.794 99.7148 327.755 99.9933 327.822 100.256C327.889 100.511 328.22 101.709 328.332 102.133L330.308 101.597C330.196 101.204 329.86 99.9599 329.799 99.7457Z" fill="#263238"/>
<path d="M329.615 102.979C329.86 102.913 330.071 102.758 330.208 102.544C330.345 102.329 330.397 102.072 330.354 101.822L328.393 102.332C328.478 102.574 328.651 102.775 328.877 102.895C329.104 103.015 329.367 103.045 329.615 102.979V102.979Z" fill="#263238"/>
<path d="M331.459 104.04L330.175 104.392L329.91 103.423C330.276 103.281 330.575 103.008 330.752 102.658C330.929 102.308 330.97 101.905 330.868 101.526L330.725 101.016C330.723 101.005 330.718 100.995 330.712 100.985C330.706 100.976 330.697 100.969 330.688 100.963C330.678 100.957 330.668 100.954 330.657 100.952C330.645 100.951 330.634 100.951 330.624 100.955L330.41 101.011C330.399 101.013 330.388 101.019 330.379 101.026C330.371 101.033 330.363 101.042 330.358 101.052C330.353 101.062 330.35 101.073 330.349 101.084C330.348 101.096 330.35 101.107 330.354 101.118C330.356 101.129 330.361 101.139 330.367 101.148C330.374 101.157 330.382 101.165 330.391 101.17C330.401 101.176 330.411 101.18 330.423 101.181C330.434 101.183 330.445 101.182 330.455 101.179L330.583 101.143L330.7 101.577C330.749 101.757 330.762 101.944 330.738 102.129C330.715 102.314 330.655 102.492 330.562 102.654C330.47 102.816 330.346 102.958 330.199 103.072C330.052 103.186 329.884 103.269 329.704 103.318C329.525 103.367 329.337 103.38 329.153 103.357C328.968 103.333 328.79 103.273 328.628 103.181C328.467 103.088 328.325 102.964 328.211 102.817C328.097 102.67 328.014 102.501 327.965 102.321L327.843 101.888L327.97 101.857C327.992 101.85 328.01 101.835 328.021 101.815C328.032 101.796 328.036 101.772 328.031 101.75C328.028 101.739 328.023 101.729 328.016 101.72C328.009 101.71 328 101.703 327.99 101.697C327.98 101.691 327.969 101.688 327.958 101.686C327.947 101.685 327.935 101.686 327.924 101.689L327.715 101.745C327.704 101.748 327.694 101.753 327.685 101.76C327.676 101.767 327.668 101.776 327.662 101.786C327.657 101.796 327.653 101.807 327.652 101.818C327.65 101.83 327.651 101.841 327.654 101.852L327.797 102.362C327.9 102.74 328.139 103.067 328.468 103.28C328.797 103.493 329.193 103.576 329.579 103.515L329.839 104.484L328.556 104.831C328.533 104.836 328.513 104.847 328.495 104.861C328.476 104.875 328.461 104.892 328.45 104.912C328.438 104.932 328.431 104.954 328.428 104.977C328.425 105 328.427 105.023 328.433 105.045L328.479 105.213L331.719 104.331L331.673 104.162C331.667 104.14 331.657 104.119 331.643 104.101C331.629 104.083 331.611 104.068 331.591 104.056C331.571 104.045 331.55 104.038 331.527 104.035C331.504 104.032 331.481 104.034 331.459 104.04Z" fill="#263238"/>
<path d="M331.984 98.787C331.474 98.8431 331.051 99.6438 331.209 100.771C331.367 101.898 332.401 100.674 332.462 100.317C332.523 99.96 332.956 98.6901 331.984 98.787Z" fill="white" stroke="#263238" stroke-width="0.932567" stroke-linecap="round" stroke-linejoin="round"/>
<path d="M333.104 100.47C332.968 100.468 332.834 100.496 332.71 100.553C332.587 100.61 332.478 100.694 332.392 100.799C332.305 100.904 332.243 101.027 332.21 101.159C332.178 101.291 332.175 101.428 332.202 101.561C332.299 102.658 332.513 102.403 332.513 102.403C332.518 102.855 332.61 103.301 332.783 103.719C333.038 104.203 333.71 103.469 333.71 103.03C333.71 102.592 333.639 100.286 333.104 100.47Z" fill="white" stroke="#263238" stroke-width="0.932567" stroke-linecap="round" stroke-linejoin="round"/>
<path d="M332.518 102.382C332.518 102.382 333.399 102.122 333.608 101.48Z" fill="white"/>
<path d="M332.518 102.382C332.518 102.382 333.399 102.122 333.608 101.48" stroke="#263238" stroke-width="0.932567" stroke-linecap="round" stroke-linejoin="round"/>
<path d="M324.863 107.018C325.034 106.313 325.048 105.578 324.904 104.866C324.476 102.892 325.652 101.735 326.732 100.159C327.812 98.583 328.321 99.8988 327.934 100.832C327.55 101.628 327.088 102.383 326.554 103.086C327.242 104.01 327.632 105.122 327.669 106.274C327.669 106.646 327.669 107.758 327.669 107.758" fill="white"/>
<path d="M324.863 107.018C325.034 106.313 325.048 105.578 324.904 104.866C324.476 102.892 325.652 101.735 326.732 100.159C327.812 98.583 328.321 99.8988 327.934 100.832C327.55 101.628 327.088 102.383 326.554 103.086C327.242 104.01 327.632 105.122 327.669 106.274C327.669 106.646 327.669 107.758 327.669 107.758" stroke="#263238" stroke-width="0.932567" stroke-linecap="round" stroke-linejoin="round"/>
<path d="M311.203 94.6917C312.975 94.3194 313.52 93.8655 313.52 93.8655C312.191 88.5054 316.958 70.4769 301.933 69.6456C286.908 68.8143 295.312 94.3602 295.312 94.3602L296.947 94.5693L296.106 89.4336L298.062 94.6968C303.848 95.3241 307.556 95.2068 309.889 94.911C309.572 92.5947 309.54 90.2482 309.792 87.924C310.086 90.2132 310.558 92.4759 311.203 94.6917V94.6917Z" fill="#263238"/>
<path d="M301.928 69.9669C301.344 69.3867 300.582 69.0206 299.765 68.9281C298.948 68.8355 298.124 69.0218 297.425 69.4569" stroke="#263238" stroke-width="0.932567" stroke-linecap="round" stroke-linejoin="round"/>
<path d="M313.372 97.9608V97.7976C313.342 97.869 313.311 97.92 313.372 97.9608Z" fill="white" stroke="#263238" stroke-width="0.932567" stroke-linecap="round" stroke-linejoin="round"/>
<path d="M324.252 108.574L317.121 115.204L317.254 105.269C317.278 103.769 316.922 102.287 316.22 100.961C315.519 99.6349 314.493 98.5082 313.24 97.6854L313.51 123.833C320.514 124.277 326.753 110.517 326.753 110.517C326.499 110.033 326.144 109.609 325.713 109.274C325.281 108.939 324.783 108.7 324.252 108.574V108.574Z" fill="white"/>
<path opacity="0.1" d="M316.026 120.625C314.967 120.722 314.727 118.692 314.743 116.719C314.446 117.461 314.249 118.24 314.157 119.034C314.065 121.283 314.065 123.512 314.101 125.419C322.077 121.798 322.174 118.57 324.221 115.275C322.917 116.933 318.068 120.436 316.026 120.625Z" fill="black"/>
<path d="M324.252 108.574L317.121 115.204L317.254 105.269C317.278 103.769 316.922 102.287 316.22 100.961C315.519 99.6349 314.493 98.5082 313.24 97.6854L313.51 123.833C320.514 124.277 326.753 110.517 326.753 110.517C326.499 110.033 326.144 109.609 325.713 109.274C325.281 108.939 324.783 108.7 324.252 108.574V108.574Z" stroke="#263238" stroke-width="0.932567" stroke-linecap="round" stroke-linejoin="round"/>
<path d="M322.739 109.431L324.303 107.947L327.731 110.303L326.732 111.965L322.739 109.431Z" fill="#E8E8E8" stroke="#263238" stroke-width="0.932567" stroke-linecap="round" stroke-linejoin="round"/>
<path d="M316.057 110.16C313.184 122.91 314.61 131.289 314.61 131.289C314.61 131.289 307.678 136.211 293.106 132.039C293.106 132.039 295.755 125.445 295.042 120.416C294.609 117.32 291.705 106.192 291.705 106.192C291.705 106.192 290.33 101.327 290.962 97.3998C292.179 96.6093 294.787 95.6556 299.396 95.319C299.473 95.0609 299.526 94.7963 299.554 94.5286C299.701 93.2317 299.733 91.9245 299.651 90.6219C299.585 89.0919 299.457 87.873 299.457 87.873H305.019C305.019 87.873 305.091 89.2806 305.269 90.933C305.366 91.9071 305.503 92.9731 305.676 93.8911C305.762 94.3506 305.873 94.8051 306.008 95.2527C311.559 96.0892 313.648 97.5375 314.05 98.7972C315.94 104.479 316.668 107.437 316.057 110.16Z" fill="white" stroke="#263238" stroke-width="0.932567" stroke-linecap="round" stroke-linejoin="round"/>
<path d="M305.284 91.8306C304.831 92.8506 304.265 93.6564 302.305 93.6462C300.848 93.6462 299.534 92.3559 299.386 91.8612C299.544 90.7443 299.386 90.3312 299.32 89.0664C301.193 89.0135 303.068 89.1227 304.922 89.3928C305.002 90.2111 305.122 91.0247 305.284 91.8306V91.8306Z" fill="#263238"/>
<path d="M308.982 80.9115C308.982 80.1567 308.982 79.6926 308.982 79.6926C308.569 77.7138 306.124 77.6118 304.999 77.6169C303.812 77.6554 302.629 77.4488 301.525 77.01C301.887 77.876 302.485 78.622 303.252 79.1622C299.065 78.2289 298.739 76.0155 298.897 74.8221C297.41 80.0292 295.479 80.2485 295.479 80.2485C295.479 80.2485 295.479 80.7126 295.566 81.4623C295.066 81.5772 294.624 81.8691 294.322 82.2842C294.02 82.6993 293.877 83.2098 293.921 83.7216C293.915 84.273 294.125 84.8047 294.506 85.203C294.887 85.6014 295.408 85.8348 295.958 85.8534C296.068 85.8485 296.177 85.8332 296.284 85.8075C297.17 89.2551 298.989 93.0036 302.712 92.8557C306.435 92.7078 307.953 88.8216 308.554 85.3128C308.664 85.323 308.775 85.323 308.885 85.3128C309.437 85.2574 309.945 84.9853 310.297 84.5562C310.649 84.1271 310.817 83.5759 310.764 83.0229C310.766 82.5163 310.588 82.0255 310.261 81.6386C309.935 81.2517 309.481 80.994 308.982 80.9115V80.9115Z" fill="white" stroke="#263238" stroke-width="0.932567" stroke-linecap="round" stroke-linejoin="round"/>
<path d="M301.525 86.751L302.167 87.2151C302.248 87.2755 302.346 87.3082 302.447 87.3082C302.548 87.3082 302.646 87.2755 302.727 87.2151L303.318 86.7612" stroke="#263238" stroke-width="0.932567" stroke-linecap="round" stroke-linejoin="round"/>
<path d="M303.97 83.8491C303.97 83.8491 304.765 82.7985 306.349 83.538" stroke="#263238" stroke-width="0.932567" stroke-linecap="round" stroke-linejoin="round"/>
<path d="M300.507 83.8491C300.507 83.8491 299.717 82.7985 298.128 83.538" stroke="#263238" stroke-width="0.932567" stroke-linecap="round" stroke-linejoin="round"/>
<path d="M304.001 88.6023C303.559 88.9524 303.018 89.1534 302.455 89.1763C301.892 89.1992 301.337 89.0429 300.868 88.7298" stroke="#263238" stroke-width="0.932567" stroke-linecap="round" stroke-linejoin="round"/>
<path d="M310.729 176.904C310.548 177.463 310.337 178.013 310.098 178.551" stroke="white" stroke-width="0.932567" stroke-linecap="round" stroke-linejoin="round"/>
<path d="M303.293 139.74L304.953 141.229C306.435 142.557 307.409 144.36 307.709 146.329C309.13 155.382 311.412 164.689 311.132 174.522" stroke="white" stroke-width="0.932567" stroke-linecap="round" stroke-linejoin="round"/>
<path d="M309.578 140.005L306.945 143.774L307.276 143.31" stroke="white" stroke-width="0.932567" stroke-linecap="round" stroke-linejoin="round"/>
<path d="M299.172 124.884L299.926 125.659" stroke="#263238" stroke-width="0.932567" stroke-linecap="round" stroke-linejoin="round"/>
<path d="M293.717 114.199C294.51 117.452 295.921 120.522 297.873 123.242" stroke="#263238" stroke-width="0.932567" stroke-linecap="round" stroke-linejoin="round"/>
<path d="M293.864 79.7112L293.299 79.7339L293.38 81.7468L293.944 81.7241L293.864 79.7112Z" fill="white" stroke="#263238" stroke-width="0.932567" stroke-linecap="round" stroke-linejoin="round"/>
<path d="M311.105 78.9846L310.54 79.0074L310.621 81.0203L311.186 80.9975L311.105 78.9846Z" fill="white" stroke="#263238" stroke-width="0.932567" stroke-linecap="round" stroke-linejoin="round"/>
<path d="M301.846 70.5738C299.447 70.6714 297.179 71.6961 295.519 73.4326C293.859 75.1692 292.936 77.4824 292.943 79.8864C292.944 79.9315 292.953 79.976 292.971 80.0172C292.99 80.0585 293.016 80.0957 293.049 80.1266C293.081 80.1576 293.12 80.1816 293.162 80.1972C293.204 80.2129 293.249 80.2199 293.294 80.2179H293.89C293.978 80.2139 294.06 80.176 294.12 80.1122C294.18 80.0484 294.213 79.9637 294.211 79.8762C294.225 77.8138 295.032 75.8361 296.464 74.3538C297.896 72.8714 299.843 71.9983 301.902 71.9156C303.96 71.8329 305.97 72.547 307.516 73.9097C309.063 75.2724 310.025 77.179 310.204 79.2336C310.209 79.3206 310.249 79.4021 310.314 79.4603C310.378 79.5185 310.464 79.5489 310.551 79.5447H311.146C311.191 79.5434 311.235 79.5331 311.276 79.5142C311.317 79.4954 311.353 79.4684 311.383 79.4351C311.413 79.4017 311.436 79.3625 311.451 79.32C311.465 79.2775 311.471 79.2325 311.467 79.1877C311.296 76.7815 310.196 74.5366 308.4 72.9287C306.604 71.3208 304.253 70.4762 301.846 70.5738V70.5738Z" fill="#E8E8E8" stroke="#263238" stroke-width="0.932567" stroke-linecap="round" stroke-linejoin="round"/>
<path d="M294.904 80.9421H294.772C294.388 80.9579 294.011 81.0492 293.662 81.2108C293.313 81.3725 293 81.6013 292.739 81.8843C292.214 82.4558 291.936 83.213 291.968 83.9894C292 84.7658 292.338 85.4977 292.909 86.0243C293.479 86.5508 294.236 86.8287 295.011 86.7969H295.138L294.904 80.9421Z" fill="#E8E8E8" stroke="#263238" stroke-width="0.932567" stroke-linecap="round" stroke-linejoin="round"/>
<path d="M295.693 83.8338C295.78 86.0064 295.933 87.4038 295.184 87.4497C294.435 87.4956 294.12 86.0778 294.033 83.8797C293.946 81.6816 294.145 80.3097 294.894 80.2587C295.643 80.2077 295.607 81.6612 295.693 83.8338Z" fill="white" stroke="#263238" stroke-width="0.932567" stroke-linecap="round" stroke-linejoin="round"/>
<path d="M309.624 80.3505H309.756C310.14 80.3351 310.523 80.3956 310.884 80.5284C311.244 80.6613 311.575 80.864 311.858 81.125C312.14 81.3859 312.368 81.7 312.529 82.0493C312.69 82.3985 312.781 82.7762 312.797 83.1606C312.812 83.545 312.752 83.9287 312.619 84.2898C312.486 84.6509 312.284 84.9822 312.023 85.2649C311.763 85.5477 311.449 85.7762 311.1 85.9376C310.751 86.0989 310.374 86.1899 309.99 86.2053H309.858L309.624 80.3505Z" fill="#E8E8E8" stroke="#263238" stroke-width="0.932567" stroke-linecap="round" stroke-linejoin="round"/>
<path d="M309.043 83.2983C309.13 85.4709 309.094 86.8683 309.843 86.8683C310.591 86.8683 310.79 85.4148 310.703 83.2422C310.617 81.0696 310.301 79.6722 309.557 79.6977C308.814 79.7232 308.956 81.1257 309.043 83.2983Z" fill="white" stroke="#263238" stroke-width="0.932567" stroke-linecap="round" stroke-linejoin="round"/>
<path d="M297.028 81.9213C297.028 81.9213 298.968 80.3148 300.807 81.7683" stroke="#263238" stroke-width="0.932567" stroke-linecap="round" stroke-linejoin="round"/>
<path d="M307.678 81.6C307.678 81.6 305.641 80.1567 303.899 81.753" stroke="#263238" stroke-width="0.932567" stroke-linecap="round" stroke-linejoin="round"/>
<path d="M298.663 94.6101C298.663 94.6101 299.824 97.5273 304.133 98.1801C304.133 98.1801 302.412 101.75 300.059 100.348C297.242 98.6748 296.702 95.2017 296.702 95.2017L298.663 94.6101Z" fill="#E8E8E8" stroke="#263238" stroke-width="0.932567" stroke-linecap="round" stroke-linejoin="round"/>
<path d="M306.558 94.9722C306.574 95.7488 306.316 96.5062 305.83 97.1115C305.343 97.7167 304.66 98.1312 303.899 98.2821C303.899 98.2821 305.992 101.719 307.709 99.8121C309.425 97.9047 308.091 95.3088 308.091 95.3088L306.558 94.9722Z" fill="#E8E8E8" stroke="#263238" stroke-width="0.932567" stroke-linecap="round" stroke-linejoin="round"/>
<path d="M305.6 105.096C305.6 105.197 305.57 105.295 305.514 105.379C305.458 105.463 305.379 105.528 305.286 105.567C305.193 105.605 305.09 105.616 304.992 105.596C304.893 105.576 304.802 105.528 304.731 105.456C304.659 105.385 304.611 105.294 304.591 105.195C304.572 105.096 304.582 104.994 304.62 104.901C304.659 104.807 304.724 104.728 304.808 104.672C304.892 104.616 304.99 104.586 305.091 104.586C305.226 104.586 305.355 104.639 305.451 104.735C305.547 104.831 305.6 104.96 305.6 105.096Z" fill="#E8E8E8" stroke="#263238" stroke-width="0.932567" stroke-linecap="round" stroke-linejoin="round"/>
<path d="M306.293 115.138C306.293 115.238 306.263 115.337 306.207 115.421C306.151 115.505 306.071 115.57 305.978 115.609C305.885 115.647 305.783 115.657 305.684 115.638C305.585 115.618 305.494 115.57 305.423 115.498C305.352 115.427 305.303 115.336 305.284 115.237C305.264 115.138 305.274 115.036 305.313 114.942C305.351 114.849 305.417 114.77 305.5 114.714C305.584 114.657 305.683 114.628 305.783 114.628C305.918 114.628 306.048 114.681 306.143 114.777C306.239 114.873 306.293 115.002 306.293 115.138Z" fill="#E8E8E8" stroke="#263238" stroke-width="0.932567" stroke-linecap="round" stroke-linejoin="round"/>
<path d="M306.944 125.419C306.944 125.52 306.915 125.619 306.859 125.703C306.803 125.786 306.723 125.852 306.63 125.89C306.537 125.929 306.435 125.939 306.336 125.919C306.237 125.9 306.146 125.851 306.075 125.78C306.004 125.708 305.955 125.618 305.936 125.519C305.916 125.42 305.926 125.317 305.965 125.224C306.003 125.131 306.068 125.051 306.152 124.995C306.236 124.939 306.334 124.909 306.435 124.909C306.57 124.909 306.7 124.963 306.795 125.059C306.891 125.154 306.944 125.284 306.944 125.419Z" fill="#E8E8E8" stroke="#263238" stroke-width="0.932567" stroke-linecap="round" stroke-linejoin="round"/>
<path d="M351.827 57.0435H248.626C248.148 57.0435 247.76 57.4316 247.76 57.9105V59.772C247.76 60.2508 248.148 60.639 248.626 60.639H351.827C352.305 60.639 352.693 60.2508 352.693 59.772V57.9105C352.693 57.4316 352.305 57.0435 351.827 57.0435Z" fill="white"/>
<path d="M351.654 60.639H248.799" stroke="#263238" stroke-width="0.932567" stroke-linecap="round" stroke-linejoin="round"/>
<path d="M248.799 57.0435H351.654" stroke="#263238" stroke-width="0.932567" stroke-linecap="round" stroke-linejoin="round"/>
<path d="M280.816 81.2379C280.816 81.2379 276.563 80.6412 276.334 81.7836C276.105 82.926 276.232 84.7569 276.965 85.3536C278.351 86.4858 278.096 88.6023 278.096 88.6023L281.661 88.2555L281.753 86.4705C281.936 85.8882 282.264 85.3618 282.706 84.9405C283.989 83.7318 283.48 82.3905 283.261 80.7738C283.042 79.1571 281.977 79.8762 281.891 80.7126C281.865 81.4584 281.927 82.2047 282.074 82.9362L280.816 81.2379Z" fill="white" stroke="#263238" stroke-width="0.932567" stroke-linecap="round" stroke-linejoin="round"/>
<path d="M281.814 82.8087C281.814 82.8087 280.795 83.0178 279.991 84.4611Z" fill="white"/>
<path d="M281.814 82.8087C281.814 82.8087 280.795 83.0178 279.991 84.4611" stroke="#263238" stroke-width="0.932567" stroke-linecap="round" stroke-linejoin="round"/>
<path d="M281.814 83.1861H276.66C276.302 83.1969 275.948 83.122 275.625 82.9677C275.303 82.8133 275.022 82.5839 274.806 82.2987C274.621 82.0395 274.522 81.7294 274.522 81.4113C274.522 81.0932 274.621 80.783 274.806 80.5239V80.5239L277.383 76.7346C277.606 76.4532 277.889 76.2259 278.212 76.0696C278.535 75.9133 278.889 75.8322 279.247 75.8322C279.606 75.8322 279.96 75.9133 280.282 76.0696C280.605 76.2259 280.889 76.4532 281.111 76.7346L283.694 80.5239C283.878 80.783 283.977 81.0932 283.977 81.4113C283.977 81.7294 283.878 82.0395 283.694 82.2987C283.476 82.5882 283.191 82.8202 282.863 82.9748C282.536 83.1294 282.176 83.2019 281.814 83.1861V83.1861ZM275.702 80.9421C275.605 81.0773 275.553 81.2396 275.553 81.4062C275.553 81.5727 275.605 81.735 275.702 81.8703C275.815 82.0179 275.961 82.1365 276.128 82.2163C276.295 82.2962 276.479 82.3349 276.665 82.3293H281.814C282 82.3353 282.184 82.2968 282.351 82.2169C282.519 82.1371 282.665 82.0182 282.777 81.8703C282.875 81.7353 282.927 81.5729 282.927 81.4062C282.927 81.2394 282.875 81.077 282.777 80.9421L280.2 77.1579C280.087 77.0066 279.94 76.8849 279.771 76.8032C279.601 76.7214 279.415 76.6821 279.227 76.6887C279.039 76.6817 278.853 76.7208 278.685 76.8026C278.516 76.8844 278.37 77.0064 278.259 77.1579L275.677 80.9472L275.702 80.9421Z" fill="#263238"/>
<path d="M277.693 81.2889C277.958 82.6353 277.795 83.1147 277.184 83.0433C276.573 82.9719 275.957 81.3195 276.802 80.9421C277.648 80.5647 278.33 80.274 278.33 80.274C278.601 80.1274 278.902 80.046 279.21 80.0363C279.517 80.0265 279.823 80.0887 280.103 80.2179C281.315 79.7946 281.529 80.6769 281.529 80.6769C281.529 80.6769 282.405 83.2269 281.676 83.3136C280.948 83.4003 280.347 81.1869 280.347 81.1869C280.347 81.1869 281.259 83.6145 280.423 83.6553C279.588 83.6961 279.104 81.2991 279.104 81.2991C279.104 81.2991 279.649 83.4054 278.86 83.4768C278.07 83.5482 277.693 81.2889 277.693 81.2889Z" fill="white" stroke="#263238" stroke-width="0.932567" stroke-linecap="round" stroke-linejoin="round"/>
<path d="M279.619 59.675H278.784V76.4183H279.619V59.675Z" fill="white" stroke="#263238" stroke-width="0.932567" stroke-linecap="round" stroke-linejoin="round"/>
<path d="M280.082 76.1583L279.537 76.959C279.502 77.0046 279.456 77.0415 279.404 77.0668C279.352 77.0922 279.295 77.1053 279.237 77.1053C279.179 77.1053 279.122 77.0922 279.07 77.0668C279.018 77.0415 278.972 77.0046 278.936 76.959L278.396 76.1583C278.264 75.9696 278.432 75.735 278.692 75.735H279.782C280.047 75.735 280.21 75.99 280.082 76.1583Z" fill="white" stroke="#263238" stroke-width="0.932567" stroke-linecap="round" stroke-linejoin="round"/>
<path d="M279.685 70.5381H278.794C278.549 70.5381 278.351 70.7367 278.351 70.9818V74.6946C278.351 74.9396 278.549 75.1383 278.794 75.1383H279.685C279.93 75.1383 280.128 74.9396 280.128 74.6946V70.9818C280.128 70.7367 279.93 70.5381 279.685 70.5381Z" fill="white" stroke="#263238" stroke-width="0.932567" stroke-linecap="round" stroke-linejoin="round"/>
<path d="M279.685 56.4672H278.794C278.549 56.4672 278.351 56.6658 278.351 56.9109V60.6237C278.351 60.8687 278.549 61.0674 278.794 61.0674H279.685C279.93 61.0674 280.128 60.8687 280.128 60.6237V56.9109C280.128 56.6658 279.93 56.4672 279.685 56.4672Z" fill="white" stroke="#263238" stroke-width="0.932567" stroke-linecap="round" stroke-linejoin="round"/>
<path d="M269.697 83.186H264.543C264.185 83.1969 263.83 83.122 263.508 82.9677C263.185 82.8133 262.904 82.5839 262.689 82.2986C262.504 82.0395 262.405 81.7293 262.405 81.4112C262.405 81.0932 262.504 80.783 262.689 80.5238V80.5238L265.266 76.7346C265.489 76.4531 265.773 76.2257 266.096 76.0695C266.419 75.9132 266.774 75.832 267.132 75.832C267.491 75.832 267.846 75.9132 268.169 76.0695C268.492 76.2257 268.776 76.4531 268.999 76.7346L271.576 80.5238C271.761 80.783 271.86 81.0932 271.86 81.4112C271.86 81.7293 271.761 82.0395 271.576 82.2986C271.359 82.5881 271.074 82.8202 270.746 82.9748C270.419 83.1294 270.059 83.2019 269.697 83.186V83.186ZM263.585 80.942C263.488 81.0773 263.436 81.2396 263.436 81.4061C263.436 81.5727 263.488 81.735 263.585 81.8702C263.697 82.0179 263.843 82.1365 264.011 82.2163C264.178 82.2962 264.362 82.3349 264.548 82.3292H269.702C269.888 82.3348 270.073 82.2962 270.241 82.2164C270.409 82.1366 270.556 82.018 270.67 81.8702C270.767 81.735 270.819 81.5727 270.819 81.4061C270.819 81.2396 270.767 81.0773 270.67 80.942L268.093 77.1578C267.98 77.0066 267.833 76.8849 267.664 76.8031C267.494 76.7214 267.308 76.6821 267.12 76.6886C266.932 76.6816 266.746 76.7207 266.578 76.8026C266.409 76.8844 266.263 77.0064 266.152 77.1578L263.57 80.9471L263.585 80.942Z" fill="#263238"/>
<path d="M267.502 59.675H266.667V76.4183H267.502V59.675Z" fill="white" stroke="#263238" stroke-width="0.932567" stroke-linecap="round" stroke-linejoin="round"/>
<path d="M267.965 76.1583L267.4 76.959C267.364 77.0046 267.319 77.0415 267.267 77.0668C267.215 77.0922 267.157 77.1053 267.1 77.1053C267.042 77.1053 266.985 77.0922 266.932 77.0668C266.88 77.0415 266.835 77.0046 266.799 76.959L266.259 76.1583C266.127 75.9696 266.295 75.735 266.555 75.735H267.645C267.909 75.735 268.093 75.99 267.965 76.1583Z" fill="white" stroke="#263238" stroke-width="0.932567" stroke-linecap="round" stroke-linejoin="round"/>
<path d="M267.568 70.5381H266.677C266.432 70.5381 266.234 70.7367 266.234 70.9818V74.6946C266.234 74.9396 266.432 75.1383 266.677 75.1383H267.568C267.813 75.1383 268.011 74.9396 268.011 74.6946V70.9818C268.011 70.7367 267.813 70.5381 267.568 70.5381Z" fill="white" stroke="#263238" stroke-width="0.932567" stroke-linecap="round" stroke-linejoin="round"/>
<path d="M267.568 56.4672H266.677C266.432 56.4672 266.234 56.6658 266.234 56.9109V60.6237C266.234 60.8687 266.432 61.0674 266.677 61.0674H267.568C267.813 61.0674 268.011 60.8687 268.011 60.6237V56.9109C268.011 56.6658 267.813 56.4672 267.568 56.4672Z" fill="white" stroke="#263238" stroke-width="0.932567" stroke-linecap="round" stroke-linejoin="round"/>
<path d="M322.209 83.1861H317.055C316.697 83.1978 316.342 83.1233 316.02 82.9688C315.697 82.8144 315.416 82.5845 315.201 82.2987C315.016 82.0395 314.917 81.7294 314.917 81.4113C314.917 81.0932 315.016 80.783 315.201 80.5239V80.5239L317.778 76.7346C318.001 76.4532 318.284 76.2259 318.607 76.0696C318.93 75.9133 319.284 75.8322 319.642 75.8322C320.001 75.8322 320.355 75.9133 320.677 76.0696C321 76.2259 321.284 76.4532 321.506 76.7346L324.084 80.5239C324.268 80.783 324.367 81.0932 324.367 81.4113C324.367 81.7294 324.268 82.0395 324.084 82.2987C323.866 82.5874 323.582 82.8191 323.256 82.9736C322.929 83.1282 322.57 83.2011 322.209 83.1861V83.1861ZM316.097 80.9421C315.999 81.077 315.947 81.2395 315.947 81.4062C315.947 81.5729 315.999 81.7353 316.097 81.8703C316.209 82.0182 316.355 82.1371 316.523 82.2169C316.69 82.2968 316.874 82.3353 317.06 82.3293H322.214C322.4 82.3353 322.584 82.2968 322.751 82.2169C322.919 82.1371 323.065 82.0182 323.177 81.8703C323.275 81.7353 323.327 81.5729 323.327 81.4062C323.327 81.2395 323.275 81.077 323.177 80.9421L320.6 77.1579C320.483 77.0113 320.335 76.8929 320.167 76.8115C319.998 76.7301 319.814 76.6878 319.627 76.6878C319.44 76.6878 319.255 76.7301 319.087 76.8115C318.918 76.8929 318.77 77.0113 318.654 77.1579L316.077 80.9472L316.097 80.9421Z" fill="#263238"/>
<path d="M320.009 59.675H319.174V76.4183H320.009V59.675Z" fill="white" stroke="#263238" stroke-width="0.932567" stroke-linecap="round" stroke-linejoin="round"/>
<path d="M320.473 76.1583L319.933 76.959C319.897 77.0046 319.851 77.0415 319.799 77.0668C319.747 77.0922 319.69 77.1053 319.632 77.1053C319.574 77.1053 319.517 77.0922 319.465 77.0668C319.413 77.0415 319.368 77.0046 319.332 76.959L318.792 76.1583C318.659 75.9696 318.828 75.735 319.087 75.735H320.177C320.437 75.735 320.605 75.99 320.473 76.1583Z" fill="white" stroke="#263238" stroke-width="0.932567" stroke-linecap="round" stroke-linejoin="round"/>
<path d="M320.081 70.5381H319.189C318.944 70.5381 318.746 70.7367 318.746 70.9818V74.6946C318.746 74.9396 318.944 75.1383 319.189 75.1383H320.081C320.325 75.1383 320.524 74.9396 320.524 74.6946V70.9818C320.524 70.7367 320.325 70.5381 320.081 70.5381Z" fill="white" stroke="#263238" stroke-width="0.932567" stroke-linecap="round" stroke-linejoin="round"/>
<path d="M320.081 56.4672H319.189C318.944 56.4672 318.746 56.6658 318.746 56.9109V60.6237C318.746 60.8687 318.944 61.0674 319.189 61.0674H320.081C320.325 61.0674 320.524 60.8687 320.524 60.6237V56.9109C320.524 56.6658 320.325 56.4672 320.081 56.4672Z" fill="white" stroke="#263238" stroke-width="0.932567" stroke-linecap="round" stroke-linejoin="round"/>
<path d="M333.756 83.186H328.602C328.244 83.1969 327.89 83.122 327.567 82.9677C327.245 82.8133 326.964 82.5839 326.748 82.2986C326.563 82.0395 326.464 81.7293 326.464 81.4112C326.464 81.0932 326.563 80.783 326.748 80.5238V80.5238L329.325 76.7346C329.548 76.4531 329.832 76.2257 330.155 76.0695C330.478 75.9132 330.833 75.832 331.192 75.832C331.55 75.832 331.905 75.9132 332.228 76.0695C332.551 76.2257 332.835 76.4531 333.058 76.7346L335.635 80.5238C335.82 80.783 335.919 81.0932 335.919 81.4112C335.919 81.7293 335.82 82.0395 335.635 82.2986C335.418 82.5881 335.133 82.8202 334.805 82.9748C334.478 83.1294 334.118 83.2019 333.756 83.186V83.186ZM327.644 80.942C327.547 81.0773 327.495 81.2396 327.495 81.4061C327.495 81.5727 327.547 81.735 327.644 81.8702C327.757 82.0179 327.903 82.1365 328.07 82.2163C328.237 82.2962 328.421 82.3349 328.607 82.3292H333.761C333.947 82.3348 334.132 82.2962 334.3 82.2164C334.468 82.1366 334.615 82.018 334.729 81.8702C334.826 81.735 334.878 81.5727 334.878 81.4061C334.878 81.2396 334.826 81.0773 334.729 80.942L332.152 77.1578C332.04 77.0066 331.892 76.8849 331.723 76.8031C331.554 76.7214 331.367 76.6821 331.179 76.6886C330.991 76.6816 330.805 76.7207 330.637 76.8026C330.468 76.8844 330.322 77.0064 330.211 77.1578L327.629 80.9471L327.644 80.942Z" fill="#263238"/>
<path d="M331.561 59.675H330.726V76.4183H331.561V59.675Z" fill="white" stroke="#263238" stroke-width="0.932567" stroke-linecap="round" stroke-linejoin="round"/>
<path d="M332.024 76.1583L331.479 76.959C331.443 77.0046 331.398 77.0415 331.346 77.0668C331.294 77.0922 331.237 77.1053 331.179 77.1053C331.121 77.1053 331.064 77.0922 331.012 77.0668C330.96 77.0415 330.914 77.0046 330.878 76.959L330.338 76.1583C330.206 75.9696 330.374 75.735 330.634 75.735H331.724C331.989 75.735 332.152 75.99 332.024 76.1583Z" fill="white" stroke="#263238" stroke-width="0.932567" stroke-linecap="round" stroke-linejoin="round"/>
<path d="M331.627 70.5381H330.736C330.491 70.5381 330.292 70.7367 330.292 70.9818V74.6946C330.292 74.9396 330.491 75.1383 330.736 75.1383H331.627C331.872 75.1383 332.07 74.9396 332.07 74.6946V70.9818C332.07 70.7367 331.872 70.5381 331.627 70.5381Z" fill="white" stroke="#263238" stroke-width="0.932567" stroke-linecap="round" stroke-linejoin="round"/>
<path d="M331.627 56.4672H330.736C330.491 56.4672 330.292 56.6658 330.292 56.9109V60.6237C330.292 60.8687 330.491 61.0674 330.736 61.0674H331.627C331.872 61.0674 332.07 60.8687 332.07 60.6237V56.9109C332.07 56.6658 331.872 56.4672 331.627 56.4672Z" fill="white" stroke="#263238" stroke-width="0.932567" stroke-linecap="round" stroke-linejoin="round"/>
<path d="M282.212 87.4497L282.482 89.6274L276.94 89.8875L277.403 87.7047L282.212 87.4497Z" fill="#E8E8E8" stroke="#263238" stroke-width="0.932567" stroke-linecap="round" stroke-linejoin="round"/>
<path d="M291.608 105.754C291.608 105.754 281.987 114.612 279.766 114.75C279.221 114.786 278.748 115.127 278.289 114.816C277.271 114.123 275.799 112.654 276.013 106.687C276.125 103.423 278.096 89.8212 278.096 89.8212L281.661 89.6631L282.527 104.963C285.583 101.791 290.895 97.3947 290.901 97.3947C292.561 102.709 291.608 105.754 291.608 105.754Z" fill="white" stroke="#263238" stroke-width="0.932567" stroke-linecap="round" stroke-linejoin="round"/>
<path d="M315.873 118.07C316.113 117.012 316.569 116.015 317.213 115.143Z" fill="white"/>
<path d="M315.873 118.07C316.113 117.012 316.569 116.015 317.213 115.143" stroke="#263238" stroke-width="0.932567" stroke-linecap="round" stroke-linejoin="round"/>
<path d="M281.438 108.564C281.809 108.395 282.696 106.738 282.512 103.907" stroke="#263238" stroke-width="0.932567" stroke-linecap="round" stroke-linejoin="round"/>
<path d="M284.855 72.2313V66.1368C284.856 65.8424 284.974 65.5604 285.182 65.3521C285.39 65.1439 285.671 65.0264 285.965 65.025H295.52C295.814 65.0264 296.096 65.1439 296.304 65.3521C296.512 65.5604 296.629 65.8424 296.631 66.1368V72.2313C296.631 72.5262 296.514 72.809 296.306 73.0175C296.097 73.226 295.815 73.3431 295.52 73.3431H292.194L292.459 75.6636H290.743V77.8566L288.706 74.2866H290.371L290.198 73.3482H285.96C285.814 73.3476 285.67 73.3181 285.536 73.2616C285.401 73.2052 285.279 73.1227 285.177 73.019C285.074 72.9153 284.993 72.7923 284.938 72.6572C284.882 72.522 284.854 72.3773 284.855 72.2313Z" fill="white" stroke="#263238" stroke-width="0.932567" stroke-linecap="round" stroke-linejoin="round"/>
<path d="M293.137 67.1108H286.678" stroke="#263238" stroke-width="0.932567" stroke-linecap="round" stroke-linejoin="round"/>
<path d="M294.807 68.8398H286.678" stroke="#263238" stroke-width="0.932567" stroke-linecap="round" stroke-linejoin="round"/>
<path d="M293.554 70.5636H286.678" stroke="#263238" stroke-width="0.932567" stroke-linecap="round" stroke-linejoin="round"/>
<path d="M72.3457 223.074C85.4795 223.074 96.1265 221.505 96.1265 219.57C96.1265 217.635 85.4795 216.067 72.3457 216.067C59.212 216.067 48.5649 217.635 48.5649 219.57C48.5649 221.505 59.212 223.074 72.3457 223.074Z" fill="#E8E8E8"/>
<path d="M70.2625 163.736C93.1348 163.736 111.676 145.17 111.676 122.267C111.676 99.3652 93.1348 80.7993 70.2625 80.7993C47.3903 80.7993 28.8486 99.3652 28.8486 122.267C28.8486 145.17 47.3903 163.736 70.2625 163.736Z" fill="#E8E8E8"/>
<path d="M51.1622 149.384C51.1622 149.384 52.2165 155.504 48.6562 162.384H93.1771C93.1771 162.384 91.1398 159.176 89.0056 149.384H51.1622Z" fill="white" stroke="#263238" stroke-width="0.87381" stroke-linecap="round" stroke-linejoin="round"/>
<path d="M61.3131 150.797C58.8762 150.992 56.5404 151.858 54.5633 153.297C52.5861 154.737 51.0443 156.696 50.1078 158.957C49.629 160.12 49.1299 161.298 48.6562 162.399C45.9466 168.677 48.5085 177.812 55.4354 177.812H87.1975C93.4775 177.812 95.194 169.85 93.6915 163.853C92.7237 159.997 90.773 156.126 87.4419 153.413C82.9904 149.767 69.982 150.103 61.3131 150.797Z" fill="#263238" stroke="#263238" stroke-width="0.87381" stroke-linecap="round" stroke-linejoin="round"/>
<path d="M30.9878 144.06C30.9878 144.06 25.2934 147.507 25.105 149.384H32.0879L34.8638 147.39L33.9266 149.394H36.0506C36.0506 149.394 38.3069 147.64 38.4291 145.697L38.1999 144.06L34.1253 142.244L30.9878 144.06Z" fill="white" stroke="#263238" stroke-width="0.87381" stroke-linecap="round" stroke-linejoin="round"/>
<path d="M97.6901 131.396C97.6901 131.396 96.7784 125.394 94.7768 116.749C92.7751 108.105 88.8634 107.426 88.8634 107.426H88.8277C83.7344 105.233 70.4917 104.05 70.4917 104.05H69.8805C69.8805 104.05 56.6073 105.233 51.5445 107.426H51.5089C51.5089 107.426 47.5616 108.12 45.5599 116.749C43.5582 125.378 42.6414 131.396 42.6414 131.396C42.6414 131.396 39.0251 132.376 32.5158 140.576C31.4939 141.877 30.624 143.29 29.9233 144.789V144.789C29.9233 144.789 34.925 143.142 38.4292 145.666C38.4292 145.666 49.9096 140.791 50.4851 135.65C50.4851 135.466 50.531 135.262 50.5564 135.043C50.8824 142.846 51.1625 149.364 51.1625 149.364H89.169C89.169 149.364 89.4542 142.846 89.7802 135.043C89.7802 135.262 89.826 135.466 89.8464 135.65C90.427 140.791 103.135 146.554 103.135 146.554C106.619 141.188 111.676 144.152 111.676 144.152L97.6901 131.396Z" fill="white"/>
<path opacity="0.3" d="M50.4851 135.66C50.4851 135.507 50.5259 135.334 50.5462 135.15L49.716 117.091C49.716 117.091 47.424 117.56 48.0811 123.104C48.7381 128.648 50.1184 127.694 49.3493 129.831C48.5802 131.968 45.5955 129.52 44.6074 131.361C43.6193 133.202 50.1286 132.809 47.4393 137.552C44.75 142.295 38.4292 145.712 38.4292 145.712C38.4292 145.712 49.9147 140.811 50.4851 135.66Z" fill="black"/>
<g opacity="0.3">
<path opacity="0.3" d="M90.0249 135.66C90.0249 135.507 91.5223 135.772 90.0249 135.66L90.4782 120.202C90.4782 120.202 90.3662 127.679 91.1658 129.831C91.9655 131.983 94.9196 129.52 95.9026 131.361C96.8856 133.202 90.3814 132.809 93.0758 137.552C95.7702 142.295 102.081 145.712 102.081 145.712C102.081 145.712 90.6055 140.811 90.0249 135.66Z" fill="black"/>
</g>
<path opacity="0.3" d="M89.4442 139.179C89.1946 145.029 89.0061 149.379 89.0061 149.379H54.835C77.755 149.379 89.4696 139.179 89.4696 139.179H89.4442Z" fill="black"/>
<path d="M97.6901 131.396C97.6901 131.396 96.7784 125.394 94.7768 116.749C92.7751 108.105 88.8634 107.426 88.8634 107.426H88.8277C83.7344 105.233 70.4917 104.05 70.4917 104.05H69.8805C69.8805 104.05 56.6073 105.233 51.5445 107.426H51.5089C51.5089 107.426 47.5616 108.12 45.5599 116.749C43.5582 125.378 42.6414 131.396 42.6414 131.396C42.6414 131.396 39.0251 132.376 32.5158 140.576C31.4939 141.877 30.624 143.29 29.9233 144.789V144.789C29.9233 144.789 34.925 143.142 38.4292 145.666C38.4292 145.666 49.9096 140.791 50.4851 135.65C50.4851 135.466 50.531 135.262 50.5564 135.043C50.8824 142.846 51.1625 149.364 51.1625 149.364H89.169C89.169 149.364 89.4542 142.846 89.7802 135.043C89.7802 135.262 89.826 135.466 89.8464 135.65C90.427 140.791 103.135 146.554 103.135 146.554C106.619 141.188 111.676 144.152 111.676 144.152L97.6901 131.396Z" stroke="#263238" stroke-width="0.87381" stroke-linecap="round" stroke-linejoin="round"/>
<path d="M43.8584 131.361C45.6912 131.269 47.4875 131.896 48.8651 133.11" stroke="#263238" stroke-width="0.87381" stroke-linecap="round" stroke-linejoin="round"/>
<path d="M47.439 117.632C47.439 117.632 49.7921 118.142 50.332 129.596L49.624 114.561" stroke="#263238" stroke-width="0.87381" stroke-linecap="round" stroke-linejoin="round"/>
<path d="M50.3628 131.187L50.47 133.508" stroke="#263238" stroke-width="0.87381" stroke-linecap="round" stroke-linejoin="round"/>
<path d="M96.4779 131.361C94.6487 131.262 92.8527 131.88 91.4712 133.085" stroke="#263238" stroke-width="0.87381" stroke-linecap="round" stroke-linejoin="round"/>
<path d="M90.5693 117.632C90.6136 116.612 90.6613 115.592 90.7124 114.572" stroke="#263238" stroke-width="0.87381" stroke-linecap="round" stroke-linejoin="round"/>
<path d="M77.3015 104.876C76.6852 107.967 73.7005 109.084 70.1046 109.084C66.5087 109.084 63.5342 107.972 62.9077 104.892H63.0503C63.4228 104.841 63.7712 104.678 64.0494 104.425C64.3277 104.172 64.5227 103.84 64.6089 103.474C64.6588 103.328 64.6846 103.174 64.6853 103.02V99.3939H75.6869V103.02C75.6856 103.247 75.727 103.472 75.8091 103.683C75.9277 103.998 76.129 104.275 76.3916 104.485C76.6542 104.695 76.9686 104.83 77.3015 104.876V104.876Z" fill="white"/>
<path d="M75.5949 102.107C73.7715 103.902 71.7392 105.019 69.7783 105.106C67.741 105.198 65.3777 103.525 64.415 101.883C64.4548 101.74 64.4737 101.592 64.4711 101.444V100.332L75.4727 100.45V101.444C75.4727 101.679 75.7528 101.954 75.5949 102.107Z" fill="#263238"/>
<path d="M77.3015 104.876C76.6852 107.967 73.7005 109.084 70.1046 109.084C66.5087 109.084 63.5342 107.972 62.9077 104.892H63.0503C63.4228 104.841 63.7712 104.678 64.0494 104.425C64.3277 104.172 64.5227 103.84 64.6089 103.474C64.6588 103.328 64.6846 103.174 64.6853 103.02V99.3939H75.6869V103.02C75.6856 103.247 75.727 103.472 75.8091 103.683C75.9277 103.998 76.129 104.275 76.3916 104.485C76.6542 104.695 76.9686 104.83 77.3015 104.876V104.876Z" stroke="#263238" stroke-width="0.87381" stroke-linecap="round" stroke-linejoin="round"/>
<path d="M62.0673 91.6063C62.0673 91.6063 58.2524 87.2866 58.7516 81.3349C59.2507 75.3832 64.1301 75.3832 64.1301 75.3832C64.1301 75.3832 70.0129 70.1863 76.5782 73.4401C83.1435 76.6939 82.6902 87.9751 77.8312 90.7801L62.0673 91.6063Z" fill="#263238"/>
<path d="M78.8853 88.6992C78.9363 87.7098 78.9312 87.0979 78.9312 87.0979C78.4932 84.4663 75.2793 84.201 73.8022 84.1551C67.6138 83.946 65.9839 80.1465 65.9839 80.1465C62.2301 79.0194 61.1656 87.0979 61.1656 87.0979C61.1656 87.0979 61.1656 87.7098 61.2166 88.6992C60.5535 88.826 59.9581 89.1873 59.5391 89.7173C59.1202 90.2473 58.9057 90.9106 58.9347 91.5859C58.9347 93.1975 60.096 94.4979 61.5323 94.4979C61.6776 94.4972 61.8225 94.4836 61.9653 94.4572L62.6376 98.2515C62.7649 99.1032 63.5646 101.118 64.2827 101.597C65.8107 102.617 68.2301 104.071 70.0484 104.071C71.6171 104.071 73.8175 102.775 75.4422 101.893C76.3489 101.383 77.3471 99.4296 77.4337 98.4045L77.8565 94.5693C78.0952 94.5579 78.3333 94.5341 78.5695 94.4979C80.0008 94.4979 81.1672 93.1975 81.1672 91.5859C81.1962 90.9106 80.9817 90.2473 80.5628 89.7173C80.1438 89.1873 79.5484 88.826 78.8853 88.6992V88.6992Z" fill="white" stroke="#263238" stroke-width="0.87381" stroke-linecap="round" stroke-linejoin="round"/>
<path d="M59.9331 86.2512H59.2607V88.6482H59.9331V86.2512Z" fill="white" stroke="#263238" stroke-width="0.87381" stroke-linecap="round" stroke-linejoin="round"/>
<path d="M80.4746 86.2512H79.8022V88.6482H80.4746V86.2512Z" fill="white" stroke="#263238" stroke-width="0.87381" stroke-linecap="round" stroke-linejoin="round"/>
<path d="M69.8652 75.781C67.0059 75.7804 64.2578 76.8905 62.1992 78.8775C60.1407 80.8646 58.9321 83.5737 58.8279 86.4349C58.8259 86.4882 58.8346 86.5413 58.8537 86.5911C58.8728 86.6409 58.9018 86.6862 58.939 86.7244C58.9762 86.7626 59.0207 86.7928 59.0699 86.8131C59.1191 86.8335 59.172 86.8436 59.2252 86.8429H59.9383C60.0419 86.8429 60.1414 86.8024 60.2157 86.73C60.2899 86.6576 60.3329 86.559 60.3356 86.4553C60.4489 84.0009 61.5025 81.6846 63.2772 79.9879C65.0519 78.2911 67.4114 77.3443 69.8652 77.3443C72.319 77.3443 74.6785 78.2911 76.4532 79.9879C78.2279 81.6846 79.2815 84.0009 79.3948 86.4553C79.3988 86.5595 79.4429 86.6581 79.5179 86.7304C79.593 86.8026 79.6931 86.843 79.7972 86.8429H80.5052C80.5586 86.8436 80.6117 86.8335 80.6612 86.8132C80.7106 86.7929 80.7555 86.7627 80.7931 86.7246C80.8306 86.6866 80.8602 86.6413 80.8798 86.5915C80.8995 86.5417 80.9089 86.4884 80.9075 86.4349C80.8021 83.5733 79.5924 80.8641 77.533 78.8772C75.4737 76.8902 72.725 75.7804 69.8652 75.781Z" fill="white" stroke="#263238" stroke-width="0.87381" stroke-linecap="round" stroke-linejoin="round"/>
<path d="M61.0793 87.7864H60.9265C60.0249 87.8209 59.1717 88.2038 58.546 88.8547C57.9203 89.5056 57.5708 90.3739 57.5708 91.2773C57.5708 92.1808 57.9203 93.0491 58.546 93.7C59.1717 94.3509 60.0249 94.7338 60.9265 94.7683H61.0793V87.7864Z" fill="#263238" stroke="#263238" stroke-width="0.87381" stroke-miterlimit="10"/>
<path d="M61.9093 91.29C61.9093 93.8757 62.0214 95.5587 61.13 95.5587C60.2387 95.5587 59.9331 93.8757 59.9331 91.29C59.9331 88.7043 60.2387 87.0162 61.13 87.0162C62.0214 87.0162 61.9093 88.6788 61.9093 91.29Z" fill="white" stroke="#263238" stroke-width="0.87381" stroke-linecap="round" stroke-linejoin="round"/>
<path d="M78.6562 87.7864H78.8091C79.7106 87.8209 80.5638 88.2038 81.1895 88.8547C81.8152 89.5056 82.1647 90.3739 82.1647 91.2773C82.1647 92.1808 81.8152 93.0491 81.1895 93.7C80.5638 94.3509 79.7106 94.7338 78.8091 94.7683H78.6562V87.7864Z" fill="#263238" stroke="#263238" stroke-width="0.87381" stroke-miterlimit="10"/>
<path d="M77.8209 91.29C77.8209 93.8757 77.7139 95.5587 78.6053 95.5587C79.4966 95.5587 79.8022 93.8757 79.8022 91.29C79.8022 88.7043 79.4966 87.0162 78.6053 87.0162C77.7139 87.0162 77.8209 88.6788 77.8209 91.29Z" fill="white" stroke="#263238" stroke-width="0.87381" stroke-linecap="round" stroke-linejoin="round"/>
<path d="M63.9058 91.9174C63.9058 91.9174 65.3574 93.7075 68.0772 92.2948" stroke="#263238" stroke-width="0.87381" stroke-linecap="round" stroke-linejoin="round"/>
<path d="M68.0771 98.8789C68.6775 99.3155 69.4005 99.5507 70.1425 99.5507C70.8845 99.5507 71.6075 99.3155 72.2079 98.8789" stroke="#263238" stroke-width="0.75" stroke-linecap="round" stroke-linejoin="round"/>
<path d="M63.5034 89.5153C63.5034 89.5153 66.1367 87.5059 68.4796 89.5153" stroke="#263238" stroke-width="0.87381" stroke-linecap="round" stroke-linejoin="round"/>
<path d="M76.4357 89.5816C76.4357 89.5816 73.8024 87.5416 71.4595 89.5816" stroke="#263238" stroke-width="0.87381" stroke-linecap="round" stroke-linejoin="round"/>
<path d="M72.0552 96.0637C72.0552 96.0637 72.2895 97.3693 69.9007 97.3387C69.315 97.3387 68.2505 96.9205 68.2148 96.0637" stroke="#263238" stroke-width="0.75" stroke-linecap="round" stroke-linejoin="round"/>
<path d="M64.4766 92.3916C64.6956 92.8251 65.1896 93.3249 66.2949 93.3504C67.4001 93.3759 67.5937 92.9373 67.6141 92.5089C67.1215 92.7482 66.5778 92.8627 66.0307 92.8422C65.4836 92.8218 64.9499 92.667 64.4766 92.3916V92.3916Z" fill="#263238"/>
<path d="M76.0533 91.9174C76.0533 91.9174 74.6017 93.7075 71.8818 92.2948" stroke="#263238" stroke-width="0.87381" stroke-linecap="round" stroke-linejoin="round"/>
<path d="M75.4832 92.3916C75.2642 92.8251 74.7701 93.3249 73.6649 93.3504C72.5596 93.3759 72.3661 92.9373 72.3457 92.5089C72.8381 92.7487 73.3819 92.8634 73.9291 92.8429C74.4763 92.8225 75.01 92.6675 75.4832 92.3916V92.3916Z" fill="#263238"/>
<path d="M65.383 72.8994C65.383 72.8994 64.0434 73.6491 64.1911 75.7809C64.1911 75.7809 63.7225 74.3427 62.001 74.97" stroke="#263238" stroke-width="0.87381" stroke-linecap="round" stroke-linejoin="round"/>
<path d="M70.1656 110.67C71.9212 110.67 73.6337 110.126 75.0688 109.114C76.5039 108.101 77.5914 106.669 78.1825 105.014C77.719 104.943 77.2606 104.882 76.8175 104.82C76.1195 105.958 75.1418 106.898 73.9777 107.55C72.8136 108.203 71.502 108.545 70.1682 108.545C68.8343 108.545 67.5227 108.203 66.3586 107.55C65.1945 106.898 64.2168 105.958 63.5188 104.82C63.0757 104.882 62.6173 104.943 62.1538 105.014C62.7446 106.668 63.8314 108.1 65.2655 109.112C66.6996 110.124 68.411 110.669 70.1656 110.67Z" fill="#263238" stroke="#263238" stroke-width="0.87381" stroke-linecap="round" stroke-linejoin="round"/>
<path d="M89.7798 135.063C90.0039 130.093 90.2297 125.12 90.4572 120.146" stroke="#263238" stroke-width="0.87381" stroke-linecap="round" stroke-linejoin="round"/>
<path d="M89.9479 84.2572V78.7645C89.9479 78.494 89.8406 78.2345 89.6496 78.0433C89.4585 77.852 89.1994 77.7445 88.9293 77.7445H80.3419C80.0717 77.7445 79.8126 77.852 79.6216 78.0433C79.4306 78.2345 79.3232 78.494 79.3232 78.7645V84.2572C79.3232 84.5277 79.4306 84.7872 79.6216 84.9785C79.8126 85.1697 80.0717 85.2772 80.3419 85.2772H83.3368L83.0974 87.3682H84.6254V89.3419L86.4539 86.1238H84.9514L85.1093 85.2772H88.9242C89.0584 85.2779 89.1914 85.252 89.3156 85.201C89.4397 85.1501 89.5526 85.075 89.6478 84.9803C89.7429 84.8855 89.8184 84.7728 89.8699 84.6487C89.9214 84.5246 89.9479 84.3916 89.9479 84.2572V84.2572Z" fill="white" stroke="#263238" stroke-width="0.87381" stroke-linecap="round" stroke-linejoin="round"/>
<path d="M80.9839 79.6467H86.8056" stroke="#263238" stroke-width="0.87381" stroke-linecap="round" stroke-linejoin="round"/>
<path d="M80.9839 81.2023H88.303" stroke="#263238" stroke-width="0.87381" stroke-linecap="round" stroke-linejoin="round"/>
<path d="M80.9839 82.7578H87.1774" stroke="#263238" stroke-width="0.87381" stroke-linecap="round" stroke-linejoin="round"/>
<path d="M116.331 146.727C116.331 148.349 113.785 149.364 110.657 149.364C107.53 149.364 104.983 148.344 104.983 146.727C104.983 145.11 107.53 143.784 110.657 143.784C113.785 143.784 116.331 145.1 116.331 146.727Z" fill="white" stroke="#263238" stroke-width="0.87381" stroke-linecap="round" stroke-linejoin="round"/>
<path d="M106.985 148.777C107.138 148.742 107.26 147.885 105.88 147.247C104.922 146.809 104.897 146.345 105.447 145.773C105.997 145.202 106.934 144.723 107.657 144.932C108.834 145.268 109.613 147.722 110.138 147.191C110.927 146.987 109.975 144.738 108.564 143.999C111.111 144.631 111.233 147.569 112.404 147.334C113.301 147.161 111.752 144.243 110.413 143.381C111.271 143.782 112.022 144.382 112.603 145.131C113.454 146.37 113.55 146.788 114.131 146.61C114.885 146.37 113.087 143.647 112.863 143.351C113.994 143.8 114.207 144.748 114.554 145.131C114.9 145.513 115.063 146.151 115.542 145.901C116.021 145.651 115.578 144.764 115.257 144.243C113.729 141.77 111.182 141.357 108.758 141.663C106.843 141.908 104.642 142.713 103.476 144.243C103.179 144.625 103.005 145.087 102.976 145.57C102.946 146.052 103.064 146.532 103.313 146.946C103.72 147.808 105.177 149.185 106.985 148.777Z" fill="white" stroke="#263238" stroke-width="0.87381" stroke-linecap="round" stroke-linejoin="round"/>
<path d="M117.819 149.384H24.0863C23.8078 149.384 23.582 149.61 23.582 149.889V150.7C23.582 150.979 23.8078 151.205 24.0863 151.205H117.819C118.097 151.205 118.323 150.979 118.323 150.7V149.889C118.323 149.61 118.097 149.384 117.819 149.384Z" fill="#BFBFBF" stroke="#263238" stroke-width="0.87381" stroke-miterlimit="10"/>
<path d="M26.8366 149.384L19.9402 128.398C19.9142 128.316 19.9075 128.229 19.9205 128.144C19.9335 128.06 19.966 127.979 20.0153 127.909C20.0646 127.839 20.1295 127.781 20.2049 127.74C20.2802 127.699 20.3639 127.677 20.4496 127.673H42.2337L49.9909 149.384H26.8366Z" fill="#263238"/>
<path d="M42.8298 127.673L49.9605 148.165H69.0605V148.884C69.0605 149.02 69.0068 149.149 68.9113 149.245C68.8158 149.341 68.6862 149.394 68.5511 149.394H48.7381L41.8773 128.52C41.8469 128.426 41.839 128.327 41.8542 128.229C41.8694 128.132 41.9073 128.04 41.9649 127.96C42.0224 127.88 42.098 127.814 42.1854 127.769C42.2729 127.724 42.3697 127.7 42.4682 127.699L42.8298 127.673Z" fill="white" stroke="#263238" stroke-width="0.87381" stroke-linecap="round" stroke-linejoin="round"/>
<path d="M32.7141 138.531C32.6468 138.175 32.481 137.844 32.2354 137.578C32.342 137.451 32.4757 137.351 32.6265 137.284C32.7773 137.217 32.9414 137.185 33.1063 137.19C33.4913 137.206 33.8604 137.348 34.1574 137.594C34.4544 137.84 34.663 138.176 34.7515 138.552C34.7986 138.714 34.8063 138.886 34.774 139.052C34.7417 139.218 34.6703 139.374 34.5658 139.508C34.4612 139.641 34.3265 139.747 34.1728 139.817C34.0191 139.888 33.8508 139.921 33.6819 139.913C33.2913 139.904 32.9163 139.758 32.6224 139.5C32.7693 139.199 32.8019 138.855 32.7141 138.531V138.531Z" fill="white"/>
<path d="M76.8482 149.384H83.8108C84.7384 148.704 85.49 147.812 86.003 146.782C86.516 145.752 86.7755 144.614 86.7599 143.463V140.184C86.7599 140.059 86.7354 139.936 86.6878 139.821C86.6402 139.706 86.5704 139.601 86.4824 139.513C86.3944 139.425 86.29 139.355 86.1751 139.307C86.0601 139.26 85.9369 139.235 85.8125 139.235H74.872C74.7479 139.235 74.6249 139.26 74.5103 139.307C74.3956 139.355 74.2915 139.425 74.2039 139.513C74.1164 139.601 74.0471 139.706 74 139.821C73.953 139.936 73.9291 140.059 73.9298 140.184V143.463C73.9102 144.611 74.1648 145.748 74.6724 146.778C75.1801 147.808 75.926 148.701 76.8482 149.384V149.384Z" fill="white" stroke="#263238" stroke-width="0.87381" stroke-linecap="round" stroke-linejoin="round"/>
<path d="M88.7358 140.633C88.4423 140.448 88.1061 140.342 87.7597 140.326C87.4134 140.31 87.0688 140.384 86.7595 140.541V141.724C87.0613 141.673 87.3711 141.735 87.6305 141.897C88.6135 142.469 88.4047 143.636 87.7171 144.825C87.4026 145.498 86.8618 146.04 86.1891 146.355C85.9881 146.845 85.7336 147.312 85.4302 147.747C86.7392 148.033 87.9361 146.921 88.8733 145.299C89.9734 143.392 90.3045 141.54 88.7358 140.633Z" fill="white" stroke="#263238" stroke-width="0.87381" stroke-linecap="round" stroke-linejoin="round"/>
<path d="M80.4744 134.069C80.7275 133.243 80.8529 132.383 80.8463 131.519C80.8463 126.725 76.3438 126.159 76.3438 120.712" stroke="#263238" stroke-width="0.87381" stroke-linecap="round" stroke-linejoin="round"/>
<path d="M77.2808 138.297C78.0963 137.788 78.8013 137.12 79.3537 136.333" stroke="#263238" stroke-width="0.87381" stroke-linecap="round" stroke-linejoin="round"/>
<path d="M80.0831 125.282C79.8308 124.813 79.7258 124.28 79.7818 123.752" stroke="#263238" stroke-width="0.87381" stroke-linecap="round" stroke-linejoin="round"/>
<path d="M83.5914 132.014C83.3622 130.514 82.5015 129.107 81.6509 127.826" stroke="#263238" stroke-width="0.87381" stroke-linecap="round" stroke-linejoin="round"/>
<path d="M80.9839 138.353C80.9839 138.353 82.4711 137.726 83.2861 134.895" stroke="#263238" stroke-width="0.87381" stroke-linecap="round" stroke-linejoin="round"/>
<path d="M90.0807 177.796H51.9418C49.157 177.796 46.8994 180.057 46.8994 182.845V208.09C46.8994 210.879 49.157 213.139 51.9418 213.139H90.0807C92.8655 213.139 95.1231 210.879 95.1231 208.09V182.845C95.1231 180.057 92.8655 177.796 90.0807 177.796Z" fill="white" stroke="#263238" stroke-width="0.87381" stroke-miterlimit="10"/>
<path d="M58.9551 202.113L59.5306 212.196L59.5968 212.282C60.0526 212.895 60.6465 213.391 61.3302 213.73C62.0138 214.069 62.7678 214.241 63.5306 214.233C64.2933 214.224 65.0433 214.035 65.7193 213.681C66.3953 213.327 66.9781 212.818 67.4202 212.196V212.196L67.6341 202.113H58.9551Z" fill="white" stroke="#263238" stroke-width="0.87381" stroke-linecap="round" stroke-linejoin="round"/>
<path d="M69.5391 222.049C65.6756 222.727 61.7236 222.727 57.8601 222.049V222.049C57.4994 221.692 57.1892 221.287 56.9382 220.845C56.5477 220.149 56.3271 219.371 56.2943 218.573C56.2616 217.775 56.4176 216.981 56.7497 216.255L59.0774 212.099L68.3014 212.201L70.3795 215.995C70.8782 216.896 71.093 217.926 70.9958 218.951C70.8985 219.976 70.4937 220.948 69.8345 221.738C69.7415 221.847 69.6429 221.951 69.5391 222.049V222.049Z" fill="#BFBFBF" stroke="#263238" stroke-width="0.87381" stroke-miterlimit="10"/>
<path d="M67.2725 216.816C67.843 217.068 68.3873 217.375 68.8972 217.734Z" fill="#BFBFBF"/>
<path d="M67.2725 216.816C67.843 217.068 68.3873 217.375 68.8972 217.734" stroke="#263238" stroke-width="0.87381" stroke-miterlimit="10"/>
<path d="M58.5732 217.734C59.5856 217.04 60.7255 216.555 61.9268 216.305C63.1282 216.056 64.367 216.047 65.5715 216.281" fill="#BFBFBF"/>
<path d="M58.5732 217.734C59.5856 217.04 60.7255 216.555 61.9268 216.305C63.1282 216.056 64.367 216.047 65.5715 216.281" stroke="#263238" stroke-width="0.87381" stroke-miterlimit="10"/>
<path d="M53.9893 160.502L58.0639 207.259H68.6021C68.6021 207.259 69.6462 178.699 70.3083 160.155C70.3516 159.055 70.1722 157.958 69.7808 156.929C69.3894 155.9 68.7941 154.961 68.0309 154.169C67.2676 153.377 66.3521 152.747 65.3395 152.318C64.3269 151.89 63.2381 151.67 62.1386 151.674V151.674C61.0099 151.67 59.8927 151.901 58.8578 152.352C57.8229 152.804 56.893 153.465 56.1268 154.295C55.3607 155.125 54.775 156.105 54.4071 157.174C54.0391 158.242 53.8969 159.376 53.9893 160.502Z" fill="#263238"/>
<path d="M64.4764 152.006C63.7091 151.78 62.9128 151.668 62.1131 151.674V151.674C60.9866 151.674 59.8722 151.907 58.8403 152.36C57.8085 152.813 56.8816 153.475 56.1182 154.305C55.3548 155.134 54.7714 156.113 54.405 157.18C54.0386 158.247 53.897 159.378 53.9893 160.502L55.4358 177.796" stroke="white" stroke-width="0.87381" stroke-linecap="round" stroke-linejoin="round"/>
<path d="M68.8768 155.193C68.4594 154.599 67.9682 154.061 67.4151 153.592C67.4151 153.592 66.7784 153.082 66.4932 152.918" stroke="white" stroke-width="0.87381" stroke-linecap="round" stroke-linejoin="round"/>
<path d="M69.6104 177.796C69.8192 172.008 70.1452 165.235 70.3234 160.155C70.3721 158.894 70.128 157.639 69.6104 156.488" stroke="white" stroke-width="0.87381" stroke-linecap="round" stroke-linejoin="round"/>
<path d="M76.0991 202.113L76.6747 212.196L76.7409 212.282C77.1966 212.895 77.7906 213.391 78.4742 213.73C79.1578 214.069 79.9118 214.241 80.6746 214.233C81.4374 214.224 82.1873 214.035 82.8633 213.681C83.5393 213.327 84.1221 212.818 84.5642 212.196V212.196L84.7781 202.113H76.0991Z" fill="white" stroke="#263238" stroke-width="0.87381" stroke-linecap="round" stroke-linejoin="round"/>
<path d="M86.6832 222.049C82.8197 222.727 78.8677 222.727 75.0042 222.049C74.6443 221.692 74.3358 221.287 74.0874 220.845C73.6949 220.15 73.4727 219.372 73.4391 218.574C73.4054 217.776 73.5613 216.981 73.8939 216.255L76.2266 212.099L85.4455 212.201L87.5236 215.995C88.0223 216.896 88.2371 217.926 88.1399 218.951C88.0426 219.976 87.6378 220.948 86.9786 221.738C86.8856 221.847 86.787 221.951 86.6832 222.049Z" fill="#BFBFBF" stroke="#263238" stroke-width="0.87381" stroke-miterlimit="10"/>
<path d="M84.4165 216.816C84.9877 217.067 85.532 217.374 86.0413 217.734Z" fill="#BFBFBF"/>
<path d="M84.4165 216.816C84.9877 217.067 85.532 217.374 86.0413 217.734" stroke="#263238" stroke-width="0.87381" stroke-miterlimit="10"/>
<path d="M75.7275 217.734C76.7401 217.041 77.88 216.555 79.0812 216.305C80.2825 216.056 81.5213 216.048 82.7258 216.281" fill="#BFBFBF"/>
<path d="M75.7275 217.734C76.7401 217.041 77.88 216.555 79.0812 216.305C80.2825 216.056 81.5213 216.048 82.7258 216.281" stroke="#263238" stroke-width="0.87381" stroke-miterlimit="10"/>
<path d="M71.1485 160.502L75.2231 207.259H85.7612C85.7612 207.259 86.8054 178.699 87.4726 160.155C87.5124 159.053 87.3292 157.954 86.9341 156.924C86.5389 155.894 85.9398 154.954 85.1729 154.162C84.406 153.37 83.4871 152.741 82.4713 152.314C81.4556 151.886 80.364 151.669 79.2621 151.674C78.1364 151.675 77.0231 151.91 75.9925 152.363C74.9619 152.817 74.0362 153.479 73.2739 154.308C72.5116 155.138 71.9292 156.116 71.5634 157.182C71.1976 158.248 71.0563 159.379 71.1485 160.502V160.502Z" fill="#263238"/>
<path d="M82.6237 152.378C81.5659 151.907 80.4199 151.667 79.2621 151.674C78.1364 151.675 77.0231 151.91 75.9925 152.363C74.9619 152.817 74.0362 153.479 73.2739 154.308C72.5116 155.138 71.9292 156.116 71.5634 157.182C71.1976 158.248 71.0563 159.379 71.1485 160.502L72.6765 177.796" stroke="white" stroke-width="0.87381" stroke-linecap="round" stroke-linejoin="round"/>
<path d="M86.0213 155.193C85.6066 154.597 85.1151 154.059 84.5596 153.592" stroke="white" stroke-width="0.87381" stroke-linecap="round" stroke-linejoin="round"/>
<path d="M87.1979 177.796C87.4067 172.008 87.2896 165.235 87.4729 160.155C87.5142 159.039 87.327 157.927 86.9229 156.886" stroke="white" stroke-width="0.87381" stroke-linecap="round" stroke-linejoin="round"/>
<path d="M212.01 80.9216V59.1599C212.01 58.1076 211.593 57.0984 210.85 56.3543C210.106 55.6102 209.099 55.1921 208.048 55.1921H173.953C172.902 55.1921 171.894 55.6102 171.151 56.3543C170.408 57.0984 169.99 58.1076 169.99 59.1599V80.9216C169.99 81.974 170.408 82.9832 171.151 83.7273C171.894 84.4714 172.902 84.8894 173.953 84.8894H185.825L184.888 93.1718H191V100.98L198.253 88.2299H192.304L192.931 84.8843H208.048C209.098 84.8843 210.105 84.467 210.848 83.724C211.591 82.981 212.009 81.9731 212.01 80.9216V80.9216Z" fill="white" stroke="#263238" stroke-width="1.02547" stroke-linecap="round" stroke-linejoin="round"/>
<path d="M176.5 62.6382H199.552" stroke="#263238" stroke-width="1.02547" stroke-linecap="round" stroke-linejoin="round"/>
<path d="M176.5 68.8041H205.501" stroke="#263238" stroke-width="1.02547" stroke-linecap="round" stroke-linejoin="round"/>
<path d="M176.5 74.97H201.039" stroke="#263238" stroke-width="1.02547" stroke-linecap="round" stroke-linejoin="round"/>
<path d="M238.052 174.104L258.65 180.979L253.541 186.099L263.076 195.646L242.478 188.771L247.587 183.651L238.052 174.104Z" fill="#E8E8E8" stroke="#263238" stroke-width="1.02547" stroke-linecap="round" stroke-linejoin="round"/>
<path d="M143.948 174.104L123.35 180.979L128.459 186.099L118.924 195.646L139.522 188.771L134.413 183.651L143.948 174.104Z" fill="#E8E8E8" stroke="#263238" stroke-width="1.02547" stroke-linecap="round" stroke-linejoin="round"/>
<path d="M190.424 16.3914L180.711 35.8428H187.944V49.3476L197.652 29.8962H190.424V16.3914Z" fill="#E8E8E8" stroke="#263238" stroke-width="1.02547" stroke-linecap="round" stroke-linejoin="round"/>
</svg>
