<svg width="371" height="247" viewBox="0 0 371 247" fill="none" xmlns="http://www.w3.org/2000/svg">
<path d="M298.591 151.48C298.591 151.48 292.511 148.106 292.061 155.748C291.611 163.39 290.483 213.102 290.483 213.102" stroke="#263238" stroke-width="2" stroke-linecap="round" stroke-linejoin="round"/>
<path d="M288.885 156.425C288.885 156.425 293.832 167.446 291.591 212.425" stroke="#263238" stroke-width="2" stroke-linecap="round" stroke-linejoin="round"/>
<path d="M293.777 153.016C293.777 153.016 291.447 154.498 290.127 152.804C288.806 151.11 291.022 147.978 289.068 146.644C287.114 145.31 283.736 147.345 283.736 147.345C283.736 147.345 286.333 148.106 286.248 149.524C286.164 150.942 284.913 151.5 284.764 150.858C284.616 150.215 283.355 147.118 281.242 148.417C280.635 148.777 280.107 149.255 279.689 149.824C279.272 150.393 278.974 151.04 278.814 151.727C278.814 151.727 283.726 151.203 284.022 153.051C284.319 154.899 282.009 152.73 279.981 152.611C277.953 152.493 276.103 152.789 276.236 154.014C276.281 155.098 276.217 156.184 276.043 157.255C277.153 156.332 278.557 155.837 280.001 155.862C282.232 155.99 282.148 157.408 280.12 157.29C278.091 157.171 276.35 159.098 276.35 159.098C276.35 159.098 278.2 162.254 280.55 163.815C282.9 165.376 283.745 164.803 284.013 163.613C284.28 162.422 283.656 159.325 285.076 159.409C286.496 159.493 282.726 164.759 284.537 165.07C286.347 165.381 287.807 164.853 288.282 163.662L288.776 162.472C288.776 162.472 288.143 159.389 288.42 158.184C288.697 156.978 289.028 158.218 289.35 159.666C289.672 161.113 289.874 164.576 290.493 164.408C291.111 164.24 293.095 161.716 293.56 160.728C294.025 159.74 290.948 156.712 290.982 156.104C291.017 155.496 293.391 156.652 293.762 157.285C294.031 157.765 294.274 158.26 294.49 158.767C294.49 158.767 295.974 157.838 295.934 154.992C295.894 152.147 293.777 153.016 293.777 153.016Z" fill="white"/>
<path opacity="0.3" d="M293.777 153.016C293.777 153.016 291.447 154.498 290.127 152.804C288.806 151.11 291.022 147.978 289.068 146.644C287.114 145.31 283.736 147.345 283.736 147.345C283.736 147.345 286.333 148.106 286.248 149.524C286.164 150.942 284.913 151.5 284.764 150.858C284.616 150.215 283.355 147.118 281.242 148.417C280.635 148.777 280.107 149.255 279.689 149.824C279.272 150.393 278.974 151.04 278.814 151.727C278.814 151.727 283.726 151.203 284.022 153.051C284.319 154.899 282.009 152.73 279.981 152.611C277.953 152.493 276.103 152.789 276.236 154.014C276.281 155.098 276.217 156.184 276.043 157.255C277.153 156.332 278.557 155.837 280.001 155.862C282.232 155.99 282.148 157.408 280.12 157.29C278.091 157.171 276.35 159.098 276.35 159.098C276.35 159.098 278.2 162.254 280.55 163.815C282.9 165.376 283.745 164.803 284.013 163.613C284.28 162.422 283.656 159.325 285.076 159.409C286.496 159.493 282.726 164.759 284.537 165.07C286.347 165.381 287.807 164.853 288.282 163.662L288.776 162.472C288.776 162.472 288.143 159.389 288.42 158.184C288.697 156.978 289.028 158.218 289.35 159.666C289.672 161.113 289.874 164.576 290.493 164.408C291.111 164.24 293.095 161.716 293.56 160.728C294.025 159.74 290.948 156.712 290.982 156.104C291.017 155.496 293.391 156.652 293.762 157.285C294.031 157.765 294.274 158.26 294.49 158.767C294.49 158.767 295.974 157.838 295.934 154.992C295.894 152.147 293.777 153.016 293.777 153.016Z" fill="#263238"/>
<path d="M281.984 159.69C283.503 157.818 285.734 155.284 287.609 154.074" stroke="#263238" stroke-linecap="round" stroke-linejoin="round"/>
<path d="M280.224 161.973C280.224 161.973 280.614 161.429 281.248 160.619" stroke="#263238" stroke-linecap="round" stroke-linejoin="round"/>
<path d="M288.598 154.538C288.598 154.538 290.854 157.719 291.269 160.995" stroke="#263238" stroke-linecap="round" stroke-linejoin="round"/>
<path d="M286.046 156.42C286.046 156.42 286.679 156.055 286.442 160.1" stroke="#263238" stroke-linecap="round" stroke-linejoin="round"/>
<path d="M287.693 152.646C287.693 152.646 288.979 151.5 288.301 149.228" stroke="#263238" stroke-linecap="round" stroke-linejoin="round"/>
<path d="M285.952 154.587L285.032 152.908" stroke="#263238" stroke-linecap="round" stroke-linejoin="round"/>
<path d="M284.018 156.302C284.018 156.302 281.099 154.098 279.274 153.99" stroke="#263238" stroke-linecap="round" stroke-linejoin="round"/>
<path d="M302.068 147.014C302.068 147.014 301.974 150.354 299.362 150.517C296.75 150.68 295.138 146.338 292.466 147.38C289.795 148.422 289.538 153.189 289.538 153.189C289.538 153.189 292.071 151.11 293.436 152.162C294.801 153.214 294.485 154.829 293.748 154.573C293.011 154.316 289.038 153.431 288.905 156.425C288.85 157.278 288.968 158.133 289.253 158.939C289.538 159.744 289.983 160.484 290.562 161.113C290.562 161.113 293.387 155.847 295.444 156.805C297.502 157.764 293.748 158.599 292.244 160.545C290.74 162.491 289.771 164.541 291.101 165.248C292.218 165.942 293.262 166.746 294.218 167.649C294.218 167.649 293.861 164.892 295.514 162.753C297.166 160.614 298.526 161.661 297.027 163.608C295.528 165.554 296.27 168.607 296.27 168.607C296.27 168.607 300.693 168.913 303.859 167.619C307.025 166.325 307.044 165.105 306.025 164.008C305.006 162.911 301.484 161.444 302.533 160.081C303.582 158.717 306.292 166.078 307.841 164.477C309.389 162.877 309.849 161.064 308.983 159.774L308.113 158.485C308.113 158.485 304.591 157.003 303.572 155.921C302.553 154.839 304.022 155.333 305.689 155.995C307.356 156.657 310.962 158.816 311.219 158.085C311.477 157.354 310.294 153.639 309.622 152.513C308.949 151.386 303.814 152.384 303.23 151.935C302.647 151.485 305.422 149.899 306.307 149.959C307.193 150.018 308.286 150.23 308.286 150.23C308.286 150.23 308.365 148.121 305.486 146.214C302.607 144.307 302.068 147.014 302.068 147.014Z" fill="white"/>
<path opacity="0.2" d="M302.068 147.014C302.068 147.014 301.974 150.354 299.362 150.517C296.75 150.68 295.138 146.338 292.466 147.38C289.795 148.422 289.538 153.189 289.538 153.189C289.538 153.189 292.071 151.11 293.436 152.162C294.801 153.214 294.485 154.829 293.748 154.573C293.011 154.316 289.038 153.431 288.905 156.425C288.85 157.278 288.968 158.133 289.253 158.939C289.538 159.744 289.983 160.484 290.562 161.113C290.562 161.113 293.387 155.847 295.444 156.805C297.502 157.764 293.748 158.599 292.244 160.545C290.74 162.491 289.771 164.541 291.101 165.248C292.218 165.942 293.262 166.746 294.218 167.649C294.218 167.649 293.861 164.892 295.514 162.753C297.166 160.614 298.526 161.661 297.027 163.608C295.528 165.554 296.27 168.607 296.27 168.607C296.27 168.607 300.693 168.913 303.859 167.619C307.025 166.325 307.044 165.105 306.025 164.008C305.006 162.911 301.484 161.444 302.533 160.081C303.582 158.717 306.292 166.078 307.841 164.477C309.389 162.877 309.849 161.064 308.983 159.774L308.113 158.485C308.113 158.485 304.591 157.003 303.572 155.921C302.553 154.839 304.022 155.333 305.689 155.995C307.356 156.657 310.962 158.816 311.219 158.085C311.477 157.354 310.294 153.639 309.622 152.513C308.949 151.386 303.814 152.384 303.23 151.935C302.647 151.485 305.422 149.899 306.307 149.959C307.193 150.018 308.286 150.23 308.286 150.23C308.286 150.23 308.365 148.121 305.486 146.214C302.607 144.307 302.068 147.014 302.068 147.014Z" fill="#263238"/>
<path d="M300.717 163.356C299.876 160.56 298.857 156.598 298.927 153.901" stroke="#263238" stroke-linecap="round" stroke-linejoin="round"/>
<path d="M301.806 166.666C301.806 166.666 301.529 165.91 301.148 164.724" stroke="#263238" stroke-linecap="round" stroke-linejoin="round"/>
<path d="M300.064 153.229C300.064 153.229 304.789 153.145 308.355 154.958" stroke="#263238" stroke-linecap="round" stroke-linejoin="round"/>
<path d="M300.213 157.062C300.213 157.062 300.272 156.183 304.17 159.182" stroke="#263238" stroke-linecap="round" stroke-linejoin="round"/>
<path d="M297.561 152.853C297.561 152.853 297.294 150.784 294.549 149.914" stroke="#263238" stroke-linecap="round" stroke-linejoin="round"/>
<path d="M298.309 155.911L295.999 155.684" stroke="#263238" stroke-linecap="round" stroke-linejoin="round"/>
<path d="M298.709 159.009C298.709 159.009 294.51 160.431 293.159 162.18" stroke="#263238" stroke-linecap="round" stroke-linejoin="round"/>
<path d="M274.045 169.244C274.045 169.244 287.332 178.018 287.104 211.975" stroke="#263238" stroke-width="2" stroke-linecap="round" stroke-linejoin="round"/>
<path d="M290.428 166.928C290.428 166.928 290.003 170.771 286.966 170.717C283.928 170.662 282.484 165.49 279.308 166.443C276.132 167.397 275.376 172.865 275.376 172.865C275.376 172.865 278.497 170.707 279.976 172.045C281.455 173.384 280.931 175.222 280.105 174.856C279.279 174.491 274.782 173.098 274.342 176.541C274.199 177.521 274.256 178.52 274.512 179.477C274.767 180.434 275.214 181.329 275.826 182.108C275.826 182.108 279.585 176.294 281.866 177.593C284.146 178.892 279.739 179.505 277.819 181.609C275.9 183.714 274.599 185.991 276.053 186.93C277.279 187.833 278.41 188.859 279.427 189.992C279.427 189.992 279.274 186.776 281.406 184.465C283.538 182.153 284.987 183.477 283.073 185.591C281.158 187.705 281.727 191.292 281.727 191.292C281.727 191.292 286.807 192.062 290.582 190.877C294.356 189.691 294.49 188.278 293.416 186.925C292.343 185.571 288.42 183.536 289.761 182.064C291.101 180.592 293.53 189.335 295.469 187.636C297.408 185.937 298.111 183.887 297.23 182.316L296.305 180.745C296.305 180.745 292.382 178.714 291.309 177.356C290.235 175.997 291.883 176.724 293.743 177.642C295.603 178.561 299.565 181.397 299.926 180.572C300.287 179.747 299.273 175.37 298.625 173.992C297.977 172.614 291.937 173.3 291.304 172.727C290.671 172.154 294.03 170.583 295.044 170.751C295.799 170.877 296.547 171.042 297.284 171.245C297.284 171.245 297.571 168.815 294.43 166.345C291.289 163.875 290.428 166.928 290.428 166.928Z" fill="white"/>
<path opacity="0.3" d="M290.428 166.928C290.428 166.928 290.003 170.771 286.966 170.717C283.928 170.662 282.484 165.49 279.308 166.443C276.132 167.397 275.376 172.865 275.376 172.865C275.376 172.865 278.497 170.707 279.976 172.045C281.455 173.384 280.931 175.222 280.105 174.856C279.279 174.491 274.782 173.098 274.342 176.541C274.199 177.521 274.256 178.52 274.512 179.477C274.767 180.434 275.214 181.329 275.826 182.108C275.826 182.108 279.585 176.294 281.866 177.593C284.146 178.892 279.739 179.505 277.819 181.609C275.9 183.714 274.599 185.991 276.053 186.93C277.279 187.833 278.41 188.859 279.427 189.992C279.427 189.992 279.274 186.776 281.406 184.465C283.538 182.153 284.987 183.477 283.073 185.591C281.158 187.705 281.727 191.292 281.727 191.292C281.727 191.292 286.807 192.062 290.582 190.877C294.356 189.691 294.49 188.278 293.416 186.925C292.343 185.571 288.42 183.536 289.761 182.064C291.101 180.592 293.53 189.335 295.469 187.636C297.408 185.937 298.111 183.887 297.23 182.316L296.305 180.745C296.305 180.745 292.382 178.714 291.309 177.356C290.235 175.997 291.883 176.724 293.743 177.642C295.603 178.561 299.565 181.397 299.926 180.572C300.287 179.747 299.273 175.37 298.625 173.992C297.977 172.614 291.937 173.3 291.304 172.727C290.671 172.154 294.03 170.583 295.044 170.751C295.799 170.877 296.547 171.042 297.284 171.245C297.284 171.245 297.571 168.815 294.43 166.345C291.289 163.875 290.428 166.928 290.428 166.928Z" fill="#263238"/>
<path d="M287.332 185.655C286.62 182.355 285.823 177.687 286.15 174.58" stroke="#263238" stroke-linecap="round" stroke-linejoin="round"/>
<path d="M288.272 189.577C288.272 189.577 288.024 188.678 287.693 187.275" stroke="#263238" stroke-linecap="round" stroke-linejoin="round"/>
<path d="M287.53 173.888C287.53 173.888 292.971 174.239 296.928 176.669" stroke="#263238" stroke-linecap="round" stroke-linejoin="round"/>
<path d="M287.337 178.334C287.337 178.334 287.49 177.346 291.705 181.15" stroke="#263238" stroke-linecap="round" stroke-linejoin="round"/>
<path d="M284.676 173.241C284.676 173.241 284.562 170.83 281.48 169.565" stroke="#263238" stroke-linecap="round" stroke-linejoin="round"/>
<path d="M285.249 176.837L282.608 176.358" stroke="#263238" stroke-linecap="round" stroke-linejoin="round"/>
<path d="M285.423 180.453C285.423 180.453 280.441 181.693 278.715 183.585" stroke="#263238" stroke-linecap="round" stroke-linejoin="round"/>
<path d="M279.224 196.009C279.224 196.009 287.782 202.53 288.682 212.203L286.906 179.816" stroke="#263238" stroke-width="2" stroke-linecap="round" stroke-linejoin="round"/>
<path d="M299.941 191.287C288.682 189.261 288.682 212.203 288.682 212.203" stroke="#263238" stroke-width="2" stroke-linecap="round" stroke-linejoin="round"/>
<path d="M290.033 211.975C290.033 211.975 283.503 164.522 302.4 164.522" stroke="#263238" stroke-width="2" stroke-linecap="round" stroke-linejoin="round"/>
<path d="M295.652 189.918C294.114 188.194 290.844 188.194 288.925 192.611C287.005 197.027 288.732 196.256 288.732 196.256C288.732 196.256 292.382 195.105 294.668 194.335C296.953 193.564 300.05 191.647 300.243 192.803C300.436 193.959 298.704 195.105 296.587 195.491C294.47 195.876 288.9 197.407 289.474 198.563C290.048 199.719 291.398 203.167 291.398 203.167C293.041 201.776 294.775 200.493 296.587 199.329C299.09 197.793 300.628 198.371 299.283 200.095C297.937 201.819 294.089 203.745 294.861 206.047C295.632 208.349 300.262 211.234 300.262 211.234C300.262 211.234 300.836 206.433 302.187 204.896C303.537 203.36 303.532 205.089 303.146 207.776C302.953 208.921 302.824 210.075 302.76 211.234L308.142 213.151C309.023 211.813 309.986 210.531 311.026 209.313L312.016 208.354C312.016 208.354 307.786 204.704 307.593 202.426C307.4 200.149 310.477 202.426 311.437 202.812C312.397 203.197 313.935 205.879 313.935 205.879C313.935 205.879 314.9 201.468 315.092 199.951L315.285 198.415C315.285 198.415 311.244 196.879 309.706 196.879C308.167 196.879 307.4 198.03 307.4 196.493C307.4 194.957 308.939 193.999 310.67 194.191C312.237 194.45 313.781 194.835 315.285 195.342C315.285 195.342 316.438 194.379 316.052 191.499C315.666 188.619 314.707 188.619 312.401 189.39C310.096 190.16 308.553 191.86 306.822 191.86C305.09 191.86 306.055 189.75 307.207 189.172C308.36 188.594 311.244 187.443 311.823 187.251C312.401 187.058 308.746 184.371 306.822 183.99C304.897 183.61 302.409 184.978 302.592 186.87C302.958 190.882 297.19 191.672 295.652 189.918Z" fill="white"/>
<path d="M308.029 209.688C308.088 210.266 308.128 210.849 308.148 211.427" stroke="#263238" stroke-linecap="round" stroke-linejoin="round"/>
<path d="M304.166 195.906C305.855 199.71 307.071 203.706 307.786 207.806" stroke="#263238" stroke-linecap="round" stroke-linejoin="round"/>
<path d="M303.473 194.364C302.523 192.319 301.806 191.074 301.806 191.074C302.845 190.574 303.708 189.769 304.279 188.767C304.73 187.859 305.389 187.07 306.203 186.465" stroke="#263238" stroke-linecap="round" stroke-linejoin="round"/>
<path d="M295.073 197.6C295.073 197.6 301.999 194.72 301.999 195.298" stroke="#263238" stroke-linecap="round" stroke-linejoin="round"/>
<path d="M305.842 193.954C305.842 193.954 308.919 192.418 311.61 192.418" stroke="#263238" stroke-linecap="round" stroke-linejoin="round"/>
<path d="M304.715 198.588C303.381 199.682 302.157 200.903 301.059 202.234C299.937 203.556 299.029 205.047 298.368 206.65" stroke="#263238" stroke-linecap="round" stroke-linejoin="round"/>
<path d="M306.802 199.329C306.802 199.329 310.843 198.178 312.955 200.095" stroke="#263238" stroke-linecap="round" stroke-linejoin="round"/>
<path d="M314.113 173.394C312.021 172.159 309.706 172.129 308.568 170.825C307.43 169.521 309.661 168.849 310.853 169.343C312.045 169.837 314.811 171.255 315.33 171.566C315.849 171.877 315.493 167.357 314.524 165.638C313.554 163.919 310.898 162.946 309.577 164.334C306.782 167.268 302.419 163.42 302.716 161.128C303.013 158.836 300.871 156.371 296.285 157.818C291.7 159.266 293.401 160.061 293.401 160.061C293.401 160.061 296.666 162.062 298.764 163.302C300.861 164.541 304.324 165.599 303.577 166.498C302.83 167.397 300.826 166.848 299.149 165.51C297.473 164.171 292.659 160.97 292.165 162.16C291.67 163.351 289.939 166.606 289.939 166.606C292.07 166.933 294.177 167.4 296.246 168.004C299.046 168.879 299.619 170.415 297.433 170.534C295.247 170.652 291.269 169.012 290.013 171.102C288.757 173.191 289.622 178.561 289.622 178.561C289.622 178.561 293.629 175.849 295.672 175.859C297.715 175.869 296.409 177 294.124 178.472C293.134 179.078 292.178 179.738 291.26 180.448L293.337 185.769C294.926 185.554 296.527 185.44 298.13 185.428L299.486 185.522C299.486 185.522 299.486 179.939 301.089 178.285C302.691 176.63 302.978 180.458 303.319 181.436C303.661 182.414 302.637 185.334 302.637 185.334C302.637 185.334 306.594 183.165 307.89 182.306L309.181 181.441C309.181 181.441 307.697 177.39 306.708 176.23C305.719 175.069 304.329 175.242 305.486 174.254C306.644 173.266 308.385 173.76 309.374 175.207C310.202 176.559 310.922 177.975 311.526 179.441C311.526 179.441 313.01 179.683 314.934 177.504C316.858 175.325 316.21 174.624 314.113 173.394ZM295.919 179.539C294.381 178.774 298.032 177.237 298.032 177.237C299.382 177.035 297.458 180.31 295.924 179.529L295.919 179.539ZM298.506 172.371C297.853 172.045 299.817 171.383 299.817 171.383C302.667 171.912 299.169 172.692 298.511 172.361L298.506 172.371Z" fill="white"/>
<path d="M295.88 183.442C295.481 183.867 295.07 184.277 294.648 184.672" stroke="#263238" stroke-linecap="round" stroke-linejoin="round"/>
<path d="M303.77 171.492C302.003 175.261 299.778 178.798 297.146 182.024" stroke="#263238" stroke-linecap="round" stroke-linejoin="round"/>
<path d="M304.482 169.961C305.407 167.901 305.877 166.542 305.877 166.542C306.94 167.011 308.121 167.142 309.26 166.918C310.243 166.662 311.271 166.641 312.263 166.858" stroke="#263238" stroke-linecap="round" stroke-linejoin="round"/>
<path d="M302.81 169.442C303.245 169.067 296.533 165.732 296.533 165.732" stroke="#263238" stroke-linecap="round" stroke-linejoin="round"/>
<path d="M306.347 171.477C306.347 171.477 309.527 172.791 311.293 174.822" stroke="#263238" stroke-linecap="round" stroke-linejoin="round"/>
<path d="M302.107 173.626C300.405 173.341 298.679 173.22 296.953 173.266C295.218 173.285 293.497 173.577 291.853 174.13" stroke="#263238" stroke-linecap="round" stroke-linejoin="round"/>
<path d="M302.914 175.726C302.914 175.726 306.431 178.018 306.377 180.868" stroke="#263238" stroke-linecap="round" stroke-linejoin="round"/>
<path d="M284.24 199.991C282.559 199.003 280.694 198.973 279.788 197.921C278.883 196.869 280.664 196.34 281.624 196.74C282.583 197.141 284.804 198.277 285.23 198.524C285.655 198.771 285.358 195.14 284.577 193.772C283.795 192.403 281.658 191.603 280.62 192.724C278.369 195.081 274.857 191.988 275.099 190.141C275.341 188.293 273.615 186.312 269.91 187.478C266.205 188.644 267.59 189.286 267.59 189.286C267.59 189.286 270.217 190.896 271.903 191.889C273.59 192.882 276.355 193.737 275.777 194.463C275.198 195.189 273.566 194.745 272.215 193.663C270.865 192.581 266.991 190.007 266.591 190.966C266.19 191.924 264.805 194.567 264.805 194.567C266.52 194.828 268.215 195.203 269.88 195.688C272.131 196.395 272.591 197.635 270.83 197.728C269.069 197.822 265.883 196.503 264.894 198.183C263.905 199.863 264.582 204.185 264.582 204.185C264.582 204.185 267.808 202.007 269.45 202.011C271.092 202.016 270.044 202.93 268.208 204.116C267.41 204.602 266.638 205.131 265.898 205.702L267.57 209.985C268.849 209.811 270.138 209.718 271.429 209.708L272.522 209.787C272.522 209.787 272.522 205.292 273.813 203.963C275.104 202.634 275.332 205.712 275.604 206.497C275.876 207.282 275.055 209.634 275.055 209.634C275.055 209.634 278.25 207.89 279.284 207.194L280.323 206.502C280.323 206.502 279.126 203.242 278.314 202.308C277.503 201.374 276.395 201.513 277.325 200.702C278.255 199.892 279.655 200.322 280.451 201.473C281.119 202.562 281.7 203.701 282.188 204.882C282.188 204.882 283.38 205.074 284.928 203.321C286.476 201.567 285.917 200.984 284.24 199.991ZM269.598 204.931C268.362 204.314 271.3 203.079 271.3 203.079C272.383 202.925 270.835 205.553 269.593 204.936L269.598 204.931ZM271.686 199.161C271.157 198.899 272.739 198.371 272.739 198.371C275.035 198.815 272.21 199.433 271.686 199.166V199.161Z" fill="white"/>
<path d="M269.593 208.083C269.272 208.423 268.94 208.754 268.604 209.071" stroke="#263238" stroke-linecap="round" stroke-linejoin="round"/>
<path d="M275.915 198.469C274.491 201.5 272.7 204.346 270.583 206.942" stroke="#263238" stroke-linecap="round" stroke-linejoin="round"/>
<path d="M276.489 197.234C277.231 195.579 277.612 194.483 277.612 194.483C278.466 194.859 279.416 194.965 280.332 194.784C281.122 194.579 281.949 194.562 282.746 194.735" stroke="#263238" stroke-linecap="round" stroke-linejoin="round"/>
<path d="M270.088 193.846C270.088 193.846 275.495 196.528 275.143 196.81" stroke="#263238" stroke-linecap="round" stroke-linejoin="round"/>
<path d="M278.002 198.455C278.002 198.455 280.56 199.512 281.96 201.142" stroke="#263238" stroke-linecap="round" stroke-linejoin="round"/>
<path d="M274.574 200.184C273.205 199.952 271.817 199.854 270.429 199.892C269.032 199.909 267.647 200.144 266.323 200.589" stroke="#263238" stroke-linecap="round" stroke-linejoin="round"/>
<path d="M275.223 201.873C275.223 201.873 278.057 203.716 278.003 206.013" stroke="#263238" stroke-linecap="round" stroke-linejoin="round"/>
<path d="M277.374 168.286C277.374 168.286 275.257 169.822 273.912 168.286C272.566 166.75 274.49 163.677 272.561 162.526C270.632 161.375 267.565 163.484 267.565 163.484C267.565 163.484 270.063 164.062 270.063 165.406C270.063 166.75 268.91 167.323 268.718 166.75C268.525 166.177 267.179 163.292 265.255 164.635C264.7 165.009 264.227 165.491 263.864 166.052C263.501 166.613 263.255 167.242 263.143 167.901C263.143 167.901 267.753 167.13 268.139 168.859C268.525 170.588 266.215 168.666 264.295 168.666C262.376 168.666 260.64 169.052 260.833 170.203C260.937 171.224 260.937 172.254 260.833 173.275C261.829 172.344 263.125 171.799 264.488 171.739C266.6 171.739 266.6 173.083 264.681 173.083C262.762 173.083 261.218 175.004 261.218 175.004C261.218 175.004 263.143 177.884 265.448 179.228C267.753 180.572 268.525 179.999 268.718 178.843C268.91 177.687 268.139 174.812 269.484 174.812C270.83 174.812 267.565 179.999 269.291 180.187C271.018 180.374 272.368 179.806 272.754 178.65L273.14 177.499C273.14 177.499 272.368 174.619 272.561 173.468C272.754 172.317 273.14 173.468 273.521 174.812C273.902 176.155 274.292 179.421 274.866 179.228C275.44 179.035 277.176 176.541 277.562 175.582C277.948 174.624 274.866 171.932 274.866 171.359C274.866 170.786 277.176 171.739 277.562 172.317C277.84 172.752 278.096 173.2 278.329 173.661C278.329 173.661 279.674 172.702 279.482 170.01C279.289 167.318 277.374 168.286 277.374 168.286Z" fill="white"/>
<path d="M266.625 175.246C267.956 173.394 269.924 170.875 271.631 169.63" stroke="#263238" stroke-linecap="round" stroke-linejoin="round"/>
<path d="M265.067 177.499C265.067 177.499 265.408 176.966 265.957 176.165" stroke="#263238" stroke-linecap="round" stroke-linejoin="round"/>
<path d="M272.561 170.01C272.561 170.01 274.866 172.89 275.445 175.963" stroke="#263238" stroke-linecap="round" stroke-linejoin="round"/>
<path d="M270.261 171.912C270.261 171.912 270.835 171.527 270.835 175.37" stroke="#263238" stroke-linecap="round" stroke-linejoin="round"/>
<path d="M271.606 168.286C271.606 168.286 272.759 167.13 271.987 165.021" stroke="#263238" stroke-linecap="round" stroke-linejoin="round"/>
<path d="M270.068 170.203L269.104 168.666" stroke="#263238" stroke-linecap="round" stroke-linejoin="round"/>
<path d="M268.337 171.912C268.337 171.912 265.453 169.99 263.722 169.99" stroke="#263238" stroke-linecap="round" stroke-linejoin="round"/>
<path d="M296.79 211.299H281.925V232.664H296.79V211.299Z" fill="#263238" stroke="#263238" stroke-width="2" stroke-linecap="round" stroke-linejoin="round"/>
<path d="M162.904 47.1177C162.904 47.1177 163.083 40.8044 162.859 35.3753C162.636 29.9463 163.088 18.3076 163.088 18.3076" stroke="#263238" stroke-miterlimit="10"/>
<path d="M162.983 25.1544L160.514 23.213" stroke="#263238" stroke-miterlimit="10"/>
<path d="M162.953 26.4882L163.834 25.0704" stroke="#263238" stroke-miterlimit="10"/>
<path d="M162.755 32.1051L164.946 30.2921" stroke="#263238" stroke-miterlimit="10"/>
<path d="M163.087 20.6937L161.929 19.6415" stroke="#263238" stroke-miterlimit="10"/>
<path d="M162.736 33.0881L161.286 31.537" stroke="#263238" stroke-miterlimit="10"/>
<path d="M162.859 39.184L159.847 36.4374" stroke="#263238" stroke-miterlimit="10"/>
<path d="M162.938 42.568C163.706 42.2707 164.453 41.9225 165.174 41.5256" stroke="#263238" stroke-miterlimit="10"/>
<path d="M161.261 26.1277C160.049 25.194 155.983 25.3571 155.202 27.2985C154.42 29.2399 156.908 32.4064 159.283 32.1841C160.218 32.0952 160.623 32.031 160.989 31.5074L157.65 28.247L161.266 31.1517C161.368 30.9626 161.451 30.7641 161.514 30.5589C161.553 30.4156 161.593 30.2575 161.622 30.0945C161.875 28.9336 162.404 27.0021 161.261 26.1277Z" fill="white"/>
<path d="M169.131 23.875V23.9442C168.805 25.3916 167.153 26.2116 165.753 26.0881C165.559 26.0717 165.367 26.0369 165.179 25.9844C164.852 26.5016 164.649 27.0876 164.588 27.6962C164.526 28.3049 164.606 28.9195 164.823 29.4918C164.881 29.6554 164.959 29.8113 165.055 29.9561C165.466 29.6202 169.859 25.8757 169.859 25.8757L165.298 30.2624C166.673 31.7444 169.898 31.532 171.021 28.8101C172.144 26.0881 170.714 24.2653 169.131 23.875Z" fill="white"/>
<path d="M166.896 18.8115C164.531 18.3175 162.414 19.3648 162.444 21.8299C162.457 22.3733 162.581 22.9083 162.809 23.4019C163.037 23.8955 163.364 24.3373 163.769 24.7L166.208 21.3803L164.16 25.0013C164.619 25.3139 165.15 25.5043 165.704 25.5546C167.098 25.6732 168.756 24.8531 169.082 23.4057C169.423 21.7903 169.26 19.3302 166.896 18.8115Z" fill="white"/>
<path d="M164.136 10.2406C164.136 10.2406 163.893 10.3147 162.379 11.0508C161.493 11.5387 160.837 12.3573 160.553 13.3274C160.269 14.2975 160.382 15.3403 160.866 16.2279C161.285 17.0571 162.01 17.6912 162.889 17.9964L163.497 12.1227L163.24 18.0754C163.355 18.0873 163.471 18.0873 163.586 18.0754C164.576 17.9766 166.124 16.8009 166.272 14.3951C166.421 11.9894 164.136 10.2406 164.136 10.2406Z" fill="white"/>
<path d="M157.225 15.5808L161.791 19.2265C161.836 19.0659 161.851 18.8985 161.835 18.7325C161.622 16.6478 159.54 15.4375 158.165 15.0028C156.789 14.5681 155.835 15.3437 156.72 17.3394C157.606 19.3352 159.926 20.3034 160.96 20.0021C161.205 19.9416 161.426 19.8071 161.593 19.6168L157.225 15.5808Z" fill="white"/>
<path d="M160.366 20.2539C159.666 20.2035 158.987 19.995 158.379 19.6442C157.772 19.2933 157.252 18.8093 156.859 18.2285C156.374 18.1826 155.89 18.3279 155.511 18.6335C155.132 18.9391 154.888 19.3806 154.831 19.8637C154.366 22.0373 155.939 24.3097 158.209 24.033C158.922 23.9959 159.599 23.707 160.119 23.2179L156.062 19.5179L160.406 22.8227C160.491 22.6702 160.545 22.5023 160.564 22.3287C160.704 21.6328 160.635 20.911 160.366 20.2539V20.2539Z" fill="white"/>
<path d="M160.341 32.3422C159.972 32.4999 159.579 32.5935 159.179 32.6188C157.695 32.7571 156.181 31.5962 155.429 30.2328C154.988 30.2626 154.569 30.4394 154.24 30.7349C153.911 31.0305 153.69 31.4276 153.614 31.863C153.164 34.4071 155.523 37.7613 157.907 37.2278C158.527 37.1073 159.101 36.8165 159.565 36.388L154.361 31.3887L159.866 36.062C160.181 35.6588 160.384 35.1801 160.455 34.6738C160.716 33.9105 160.675 33.0766 160.341 32.3422Z" fill="white"/>
<path d="M170.813 37.544C169.062 35.5186 166.98 37.3315 166.98 37.3315C166.98 37.3315 165.703 37.7514 165.219 39.5595C165.07 40.108 165.093 40.6887 165.283 41.2243L170.546 38.1615L165.411 41.5108C165.906 42.4197 166.935 42.9928 168.379 42.5729C170.685 41.9406 172.559 39.5842 170.813 37.544Z" fill="white"/>
<path d="M166.451 45.2108H159.164V55.985H166.451V45.2108Z" fill="#263238"/>
<path d="M246.873 55.896H150.77V233.356H246.873V55.896Z" fill="white" stroke="#263238" stroke-miterlimit="10"/>
<path d="M233.32 58.1438H152.768V230.654H233.32V58.1438Z" fill="#263238" stroke="#263238" stroke-linecap="round" stroke-linejoin="round"/>
<path d="M233.32 84.8988H152.768V87.4429H233.32V84.8988Z" fill="white" stroke="#263238" stroke-miterlimit="10"/>
<path d="M233.32 114.312H152.768V116.856H233.32V114.312Z" fill="white" stroke="#263238" stroke-miterlimit="10"/>
<path d="M207.359 58.1733H205.648V84.8938H207.359V58.1733Z" fill="white" stroke="#263238" stroke-miterlimit="10"/>
<path d="M179.975 58.1733H178.263V84.8938H179.975V58.1733Z" fill="white" stroke="#263238" stroke-miterlimit="10"/>
<path d="M207.359 116.885H205.648V143.606H207.359V116.885Z" fill="white" stroke="#263238" stroke-miterlimit="10"/>
<path d="M179.975 116.885H178.263V143.606H179.975V116.885Z" fill="white" stroke="#263238" stroke-miterlimit="10"/>
<path d="M193.533 87.5862H191.822V114.307H193.533V87.5862Z" fill="white" stroke="#263238" stroke-miterlimit="10"/>
<path d="M233.32 143.611H152.768V146.155H233.32V143.611Z" fill="white" stroke="#263238" stroke-miterlimit="10"/>
<path d="M233.32 172.925H152.768V231.553H233.32V172.925Z" fill="white" stroke="#263238" stroke-miterlimit="10"/>
<path d="M193.533 146.199H191.822V172.92H193.533V146.199Z" fill="white" stroke="#263238" stroke-miterlimit="10"/>
<path d="M235.293 55.8812V233.316L246.879 233.356V55.8812H235.293Z" fill="#263238" stroke="#263238" stroke-linecap="round" stroke-linejoin="round"/>
<path d="M212.682 60.2482H208.546V84.8345H212.682V60.2482Z" fill="white" stroke="#263238" stroke-miterlimit="10"/>
<path d="M212.682 79.5537H208.546V81.5692H212.682V79.5537Z" fill="white" stroke="#263238" stroke-miterlimit="10"/>
<path d="M212.682 62.7429H208.546V64.7584H212.682V62.7429Z" fill="white" stroke="#263238" stroke-miterlimit="10"/>
<path d="M216.911 60.2482H212.776V84.8345H216.911V60.2482Z" fill="white" stroke="#263238" stroke-miterlimit="10"/>
<path d="M216.911 79.5537H212.776V81.5692H216.911V79.5537Z" fill="white" stroke="#263238" stroke-miterlimit="10"/>
<path d="M216.911 62.7429H212.776V64.7584H216.911V62.7429Z" fill="white" stroke="#263238" stroke-miterlimit="10"/>
<path d="M221.146 60.2482H217.01V84.8345H221.146V60.2482Z" fill="white" stroke="#263238" stroke-miterlimit="10"/>
<path d="M221.146 79.5537H217.01V81.5692H221.146V79.5537Z" fill="white" stroke="#263238" stroke-miterlimit="10"/>
<path d="M221.146 62.7429H217.01V64.7584H221.146V62.7429Z" fill="white" stroke="#263238" stroke-miterlimit="10"/>
<path d="M225.375 60.2482H221.24V84.8345H225.375V60.2482Z" fill="white" stroke="#263238" stroke-miterlimit="10"/>
<path d="M232.266 60.2482H225.34V84.8345H232.266V60.2482Z" fill="white" stroke="#263238" stroke-miterlimit="10"/>
<path d="M225.375 79.5537H221.24V81.5692H225.375V79.5537Z" fill="white" stroke="#263238" stroke-miterlimit="10"/>
<path d="M225.375 62.7429H221.24V64.7584H225.375V62.7429Z" fill="white" stroke="#263238" stroke-miterlimit="10"/>
<path d="M185.015 60.2482H180.88V84.8345H185.015V60.2482Z" fill="white" stroke="#263238" stroke-miterlimit="10"/>
<path d="M185.015 79.5537H180.88V81.5692H185.015V79.5537Z" fill="white" stroke="#263238" stroke-miterlimit="10"/>
<path d="M185.015 62.7429H180.88V64.7584H185.015V62.7429Z" fill="white" stroke="#263238" stroke-miterlimit="10"/>
<path d="M189.245 60.2482H185.109V84.8345H189.245V60.2482Z" fill="white" stroke="#263238" stroke-miterlimit="10"/>
<path d="M189.245 79.5537H185.109V81.5692H189.245V79.5537Z" fill="white" stroke="#263238" stroke-miterlimit="10"/>
<path d="M189.245 62.7429H185.109V64.7584H189.245V62.7429Z" fill="white" stroke="#263238" stroke-miterlimit="10"/>
<path d="M193.479 60.2482H189.344V84.8345H193.479V60.2482Z" fill="white" stroke="#263238" stroke-miterlimit="10"/>
<path d="M193.479 79.5537H189.344V81.5692H193.479V79.5537Z" fill="white" stroke="#263238" stroke-miterlimit="10"/>
<path d="M193.479 62.7429H189.344V64.7584H193.479V62.7429Z" fill="white" stroke="#263238" stroke-miterlimit="10"/>
<path d="M197.709 60.2482H193.573V84.8345H197.709V60.2482Z" fill="white" stroke="#263238" stroke-miterlimit="10"/>
<path d="M204.599 60.2482H197.674V84.8345H204.599V60.2482Z" fill="white" stroke="#263238" stroke-miterlimit="10"/>
<path d="M197.709 79.5537H193.573V81.5692H197.709V79.5537Z" fill="white" stroke="#263238" stroke-miterlimit="10"/>
<path d="M197.709 62.7429H193.573V64.7584H197.709V62.7429Z" fill="white" stroke="#263238" stroke-miterlimit="10"/>
<path d="M185.015 119.049H180.88V143.635H185.015V119.049Z" fill="white" stroke="#263238" stroke-miterlimit="10"/>
<path d="M185.015 138.354H180.88V140.37H185.015V138.354Z" fill="white" stroke="#263238" stroke-miterlimit="10"/>
<path d="M185.015 121.549H180.88V123.564H185.015V121.549Z" fill="white" stroke="#263238" stroke-miterlimit="10"/>
<path d="M189.245 119.049H185.109V143.635H189.245V119.049Z" fill="white" stroke="#263238" stroke-miterlimit="10"/>
<path d="M189.245 138.354H185.109V140.37H189.245V138.354Z" fill="white" stroke="#263238" stroke-miterlimit="10"/>
<path d="M189.245 121.549H185.109V123.564H189.245V121.549Z" fill="white" stroke="#263238" stroke-miterlimit="10"/>
<path d="M193.479 119.049H189.344V143.635H193.479V119.049Z" fill="white" stroke="#263238" stroke-miterlimit="10"/>
<path d="M193.479 138.354H189.344V140.37H193.479V138.354Z" fill="white" stroke="#263238" stroke-miterlimit="10"/>
<path d="M193.479 121.549H189.344V123.564H193.479V121.549Z" fill="white" stroke="#263238" stroke-miterlimit="10"/>
<path d="M197.709 119.049H193.573V143.635H197.709V119.049Z" fill="white" stroke="#263238" stroke-miterlimit="10"/>
<path d="M204.599 119.049H197.674V143.635H204.599V119.049Z" fill="white" stroke="#263238" stroke-miterlimit="10"/>
<path d="M197.709 138.354H193.573V140.37H197.709V138.354Z" fill="white" stroke="#263238" stroke-miterlimit="10"/>
<path d="M197.709 121.549H193.573V123.564H197.709V121.549Z" fill="white" stroke="#263238" stroke-miterlimit="10"/>
<path d="M212.326 119.049H208.19V143.635H212.326V119.049Z" fill="white" stroke="#263238" stroke-miterlimit="10"/>
<path d="M212.326 138.354H208.19V140.37H212.326V138.354Z" fill="white" stroke="#263238" stroke-miterlimit="10"/>
<path d="M212.326 121.549H208.19V123.564H212.326V121.549Z" fill="white" stroke="#263238" stroke-miterlimit="10"/>
<path d="M216.56 119.049H212.425V143.635H216.56V119.049Z" fill="white" stroke="#263238" stroke-miterlimit="10"/>
<path d="M216.56 138.354H212.425V140.37H216.56V138.354Z" fill="white" stroke="#263238" stroke-miterlimit="10"/>
<path d="M216.56 121.549H212.425V123.564H216.56V121.549Z" fill="white" stroke="#263238" stroke-miterlimit="10"/>
<path d="M220.79 119.049H216.654V143.635H220.79V119.049Z" fill="white" stroke="#263238" stroke-miterlimit="10"/>
<path d="M220.79 138.354H216.654V140.37H220.79V138.354Z" fill="white" stroke="#263238" stroke-miterlimit="10"/>
<path d="M220.79 121.549H216.654V123.564H220.79V121.549Z" fill="white" stroke="#263238" stroke-miterlimit="10"/>
<path d="M225.024 119.049H220.889V143.635H225.024V119.049Z" fill="white" stroke="#263238" stroke-miterlimit="10"/>
<path d="M231.91 119.049H224.984V143.635H231.91V119.049Z" fill="white" stroke="#263238" stroke-miterlimit="10"/>
<path d="M225.024 138.354H220.889V140.37H225.024V138.354Z" fill="white" stroke="#263238" stroke-miterlimit="10"/>
<path d="M225.024 121.549H220.889V123.564H225.024V121.549Z" fill="white" stroke="#263238" stroke-miterlimit="10"/>
<path d="M157.878 119.049H153.743V143.635H157.878V119.049Z" fill="white" stroke="#263238" stroke-miterlimit="10"/>
<path d="M157.878 138.354H153.743V140.37H157.878V138.354Z" fill="white" stroke="#263238" stroke-miterlimit="10"/>
<path d="M157.878 121.549H153.743V123.564H157.878V121.549Z" fill="white" stroke="#263238" stroke-miterlimit="10"/>
<path d="M162.112 119.049H157.977V143.635H162.112V119.049Z" fill="white" stroke="#263238" stroke-miterlimit="10"/>
<path d="M162.112 138.354H157.977V140.37H162.112V138.354Z" fill="white" stroke="#263238" stroke-miterlimit="10"/>
<path d="M162.112 121.549H157.977V123.564H162.112V121.549Z" fill="white" stroke="#263238" stroke-miterlimit="10"/>
<path d="M166.341 119.049H162.206V143.635H166.341V119.049Z" fill="white" stroke="#263238" stroke-miterlimit="10"/>
<path d="M166.341 138.354H162.206V140.37H166.341V138.354Z" fill="white" stroke="#263238" stroke-miterlimit="10"/>
<path d="M166.341 121.549H162.206V123.564H166.341V121.549Z" fill="white" stroke="#263238" stroke-miterlimit="10"/>
<path d="M170.576 119.049H166.44V143.635H170.576V119.049Z" fill="white" stroke="#263238" stroke-miterlimit="10"/>
<path d="M177.462 119.049H170.537V143.635H177.462V119.049Z" fill="white" stroke="#263238" stroke-miterlimit="10"/>
<path d="M170.576 138.354H166.44V140.37H170.576V138.354Z" fill="white" stroke="#263238" stroke-miterlimit="10"/>
<path d="M170.576 121.549H166.44V123.564H170.576V121.549Z" fill="white" stroke="#263238" stroke-miterlimit="10"/>
<path d="M157.349 60.2482H153.213V84.8345H157.349V60.2482Z" fill="white" stroke="#263238" stroke-miterlimit="10"/>
<path d="M157.349 79.5537H153.213V81.5692H157.349V79.5537Z" fill="white" stroke="#263238" stroke-miterlimit="10"/>
<path d="M157.349 62.7429H153.213V64.7584H157.349V62.7429Z" fill="white" stroke="#263238" stroke-miterlimit="10"/>
<path d="M161.578 60.2482H157.442V84.8345H161.578V60.2482Z" fill="white" stroke="#263238" stroke-miterlimit="10"/>
<path d="M161.578 79.5537H157.442V81.5692H161.578V79.5537Z" fill="white" stroke="#263238" stroke-miterlimit="10"/>
<path d="M161.578 62.7429H157.442V64.7584H161.578V62.7429Z" fill="white" stroke="#263238" stroke-miterlimit="10"/>
<path d="M165.812 60.2482H161.677V84.8345H165.812V60.2482Z" fill="white" stroke="#263238" stroke-miterlimit="10"/>
<path d="M165.812 79.5537H161.677V81.5692H165.812V79.5537Z" fill="white" stroke="#263238" stroke-miterlimit="10"/>
<path d="M165.812 62.7429H161.677V64.7584H165.812V62.7429Z" fill="white" stroke="#263238" stroke-miterlimit="10"/>
<path d="M170.042 60.2482H165.906V84.8345H170.042V60.2482Z" fill="white" stroke="#263238" stroke-miterlimit="10"/>
<path d="M176.933 60.2482H170.007V84.8345H176.933V60.2482Z" fill="white" stroke="#263238" stroke-miterlimit="10"/>
<path d="M170.042 79.5537H165.906V81.5692H170.042V79.5537Z" fill="white" stroke="#263238" stroke-miterlimit="10"/>
<path d="M170.042 62.7429H165.906V64.7584H170.042V62.7429Z" fill="white" stroke="#263238" stroke-miterlimit="10"/>
<path d="M169.587 89.5474H165.451V114.134H169.587V89.5474Z" fill="white" stroke="#263238" stroke-miterlimit="10"/>
<path d="M169.587 108.853H165.451V110.868H169.587V108.853Z" fill="white" stroke="#263238" stroke-miterlimit="10"/>
<path d="M169.587 92.047H165.451V94.0625H169.587V92.047Z" fill="white" stroke="#263238" stroke-miterlimit="10"/>
<path d="M165.506 89.5474H161.37V114.134H165.506V89.5474Z" fill="white" stroke="#263238" stroke-miterlimit="10"/>
<path d="M165.506 108.853H161.37V110.868H165.506V108.853Z" fill="white" stroke="#263238" stroke-miterlimit="10"/>
<path d="M165.506 92.047H161.37V94.0625H165.506V92.047Z" fill="white" stroke="#263238" stroke-miterlimit="10"/>
<path d="M161.424 89.5474H157.289V114.134H161.424V89.5474Z" fill="white" stroke="#263238" stroke-miterlimit="10"/>
<path d="M161.424 108.853H157.289V110.868H161.424V108.853Z" fill="white" stroke="#263238" stroke-miterlimit="10"/>
<path d="M161.424 92.047H157.289V94.0625H161.424V92.047Z" fill="white" stroke="#263238" stroke-miterlimit="10"/>
<path d="M157.349 89.5474H153.213V114.134H157.349V89.5474Z" fill="white" stroke="#263238" stroke-miterlimit="10"/>
<path d="M157.349 108.853H153.213V110.868H157.349V108.853Z" fill="white" stroke="#263238" stroke-miterlimit="10"/>
<path d="M157.349 92.047H153.213V94.0625H157.349V92.047Z" fill="white" stroke="#263238" stroke-miterlimit="10"/>
<path d="M173.816 89.5474H169.681V114.134H173.816V89.5474Z" fill="white" stroke="#263238" stroke-miterlimit="10"/>
<path d="M173.816 108.853H169.681V110.868H173.816V108.853Z" fill="white" stroke="#263238" stroke-miterlimit="10"/>
<path d="M173.816 92.047H169.681V94.0625H173.816V92.047Z" fill="white" stroke="#263238" stroke-miterlimit="10"/>
<path d="M178.046 89.5474H173.91V114.134H178.046V89.5474Z" fill="white" stroke="#263238" stroke-miterlimit="10"/>
<path d="M178.046 108.853H173.91V110.868H178.046V108.853Z" fill="white" stroke="#263238" stroke-miterlimit="10"/>
<path d="M178.046 92.047H173.91V94.0625H178.046V92.047Z" fill="white" stroke="#263238" stroke-miterlimit="10"/>
<path d="M182.28 89.5474H178.145V114.134H182.28V89.5474Z" fill="white" stroke="#263238" stroke-miterlimit="10"/>
<path d="M189.17 89.5474H182.245V114.134H189.17V89.5474Z" fill="white" stroke="#263238" stroke-miterlimit="10"/>
<path d="M182.28 108.853H178.145V110.868H182.28V108.853Z" fill="white" stroke="#263238" stroke-miterlimit="10"/>
<path d="M182.28 92.047H178.145V94.0625H182.28V92.047Z" fill="white" stroke="#263238" stroke-miterlimit="10"/>
<path d="M198.989 89.5474H194.854V114.134H198.989V89.5474Z" fill="white" stroke="#263238" stroke-miterlimit="10"/>
<path d="M198.989 108.853H194.854V110.868H198.989V108.853Z" fill="white" stroke="#263238" stroke-miterlimit="10"/>
<path d="M198.989 92.047H194.854V94.0625H198.989V92.047Z" fill="white" stroke="#263238" stroke-miterlimit="10"/>
<path d="M203.224 89.5474H199.088V114.134H203.224V89.5474Z" fill="white" stroke="#263238" stroke-miterlimit="10"/>
<path d="M203.224 108.853H199.088V110.868H203.224V108.853Z" fill="white" stroke="#263238" stroke-miterlimit="10"/>
<path d="M203.224 92.047H199.088V94.0625H203.224V92.047Z" fill="white" stroke="#263238" stroke-miterlimit="10"/>
<path d="M211.691 89.5413L207.835 91.1669L217.531 114.099L221.386 112.474L211.691 89.5413Z" fill="white" stroke="#263238" stroke-miterlimit="10"/>
<path d="M219.305 107.546L215.449 109.172L216.244 111.051L220.099 109.426L219.305 107.546Z" fill="white" stroke="#263238" stroke-miterlimit="10"/>
<path d="M212.678 91.8719L208.822 93.4974L209.617 95.377L213.472 93.7514L212.678 91.8719Z" fill="white" stroke="#263238" stroke-miterlimit="10"/>
<path d="M217.535 114.089H226.167L230.05 112.474L221.388 112.464L217.535 114.089Z" fill="white" stroke="#263238" stroke-miterlimit="10"/>
<path d="M211.693 89.5325H219.8L230.05 112.474L221.388 112.464L211.693 89.5325Z" fill="white" stroke="#263238" stroke-miterlimit="10"/>
<path d="M207.305 89.5474H203.169V114.134H207.305V89.5474Z" fill="white" stroke="#263238" stroke-miterlimit="10"/>
<path d="M207.305 108.853H203.169V110.868H207.305V108.853Z" fill="white" stroke="#263238" stroke-miterlimit="10"/>
<path d="M207.305 92.047H203.169V94.0625H207.305V92.047Z" fill="white" stroke="#263238" stroke-miterlimit="10"/>
<path d="M207.305 89.5474H211.693L207.834 91.1578L217.535 114.089H207.305V89.5474Z" fill="white" stroke="#263238" stroke-miterlimit="10"/>
<path d="M169.587 148.244H165.451V172.831H169.587V148.244Z" fill="white" stroke="#263238" stroke-miterlimit="10"/>
<path d="M169.587 167.55H165.451V169.565H169.587V167.55Z" fill="white" stroke="#263238" stroke-miterlimit="10"/>
<path d="M169.587 150.739H165.451V152.755H169.587V150.739Z" fill="white" stroke="#263238" stroke-miterlimit="10"/>
<path d="M165.506 148.244H161.37V172.831H165.506V148.244Z" fill="white" stroke="#263238" stroke-miterlimit="10"/>
<path d="M165.506 167.55H161.37V169.565H165.506V167.55Z" fill="white" stroke="#263238" stroke-miterlimit="10"/>
<path d="M165.506 150.739H161.37V152.755H165.506V150.739Z" fill="white" stroke="#263238" stroke-miterlimit="10"/>
<path d="M161.424 148.244H157.289V172.831H161.424V148.244Z" fill="white" stroke="#263238" stroke-miterlimit="10"/>
<path d="M161.424 167.55H157.289V169.565H161.424V167.55Z" fill="white" stroke="#263238" stroke-miterlimit="10"/>
<path d="M161.424 150.739H157.289V152.755H161.424V150.739Z" fill="white" stroke="#263238" stroke-miterlimit="10"/>
<path d="M157.349 148.244H153.213V172.831H157.349V148.244Z" fill="white" stroke="#263238" stroke-miterlimit="10"/>
<path d="M157.349 167.55H153.213V169.565H157.349V167.55Z" fill="white" stroke="#263238" stroke-miterlimit="10"/>
<path d="M157.349 150.739H153.213V152.755H157.349V150.739Z" fill="white" stroke="#263238" stroke-miterlimit="10"/>
<path d="M173.816 148.244H169.681V172.831H173.816V148.244Z" fill="white" stroke="#263238" stroke-miterlimit="10"/>
<path d="M173.816 167.55H169.681V169.565H173.816V167.55Z" fill="white" stroke="#263238" stroke-miterlimit="10"/>
<path d="M173.816 150.739H169.681V152.755H173.816V150.739Z" fill="white" stroke="#263238" stroke-miterlimit="10"/>
<path d="M178.046 148.244H173.91V172.831H178.046V148.244Z" fill="white" stroke="#263238" stroke-miterlimit="10"/>
<path d="M178.046 167.55H173.91V169.565H178.046V167.55Z" fill="white" stroke="#263238" stroke-miterlimit="10"/>
<path d="M178.046 150.739H173.91V152.755H178.046V150.739Z" fill="white" stroke="#263238" stroke-miterlimit="10"/>
<path d="M182.28 148.244H178.145V172.831H182.28V148.244Z" fill="white" stroke="#263238" stroke-miterlimit="10"/>
<path d="M189.17 148.244H182.245V172.831H189.17V148.244Z" fill="white" stroke="#263238" stroke-miterlimit="10"/>
<path d="M182.28 167.55H178.145V169.565H182.28V167.55Z" fill="white" stroke="#263238" stroke-miterlimit="10"/>
<path d="M182.28 150.739H178.145V152.755H182.28V150.739Z" fill="white" stroke="#263238" stroke-miterlimit="10"/>
<path d="M198.989 148.244H194.854V172.831H198.989V148.244Z" fill="white" stroke="#263238" stroke-miterlimit="10"/>
<path d="M198.989 167.55H194.854V169.565H198.989V167.55Z" fill="white" stroke="#263238" stroke-miterlimit="10"/>
<path d="M198.989 150.739H194.854V152.755H198.989V150.739Z" fill="white" stroke="#263238" stroke-miterlimit="10"/>
<path d="M203.224 148.244H199.088V172.831H203.224V148.244Z" fill="white" stroke="#263238" stroke-miterlimit="10"/>
<path d="M203.224 167.55H199.088V169.565H203.224V167.55Z" fill="white" stroke="#263238" stroke-miterlimit="10"/>
<path d="M203.224 150.739H199.088V152.755H203.224V150.739Z" fill="white" stroke="#263238" stroke-miterlimit="10"/>
<path d="M211.687 148.235L207.832 149.861L217.527 172.793L221.383 171.168L211.687 148.235Z" fill="white" stroke="#263238" stroke-miterlimit="10"/>
<path d="M219.204 165.803L215.354 167.433L216.15 169.31L220 167.68L219.204 165.803Z" fill="white" stroke="#263238" stroke-width="0.99925" stroke-miterlimit="10"/>
<path d="M212.674 150.566L208.819 152.192L209.613 154.071L213.469 152.446L212.674 150.566Z" fill="white" stroke="#263238" stroke-miterlimit="10"/>
<path d="M217.535 172.786H226.167L230.05 171.171L221.388 171.156L217.535 172.786Z" fill="white" stroke="#263238" stroke-miterlimit="10"/>
<path d="M211.693 148.225H219.8L230.05 171.171L221.388 171.156L211.693 148.225Z" fill="white" stroke="#263238" stroke-miterlimit="10"/>
<path d="M207.305 148.244H203.169V172.831H207.305V148.244Z" fill="white" stroke="#263238" stroke-miterlimit="10"/>
<path d="M207.305 167.55H203.169V169.565H207.305V167.55Z" fill="white" stroke="#263238" stroke-miterlimit="10"/>
<path d="M207.305 150.739H203.169V152.755H207.305V150.739Z" fill="white" stroke="#263238" stroke-miterlimit="10"/>
<path d="M207.305 148.244H211.693L207.834 149.85L217.535 172.786H207.305V148.244Z" fill="white" stroke="#263238" stroke-miterlimit="10"/>
<path d="M191.822 172.92V230.569" stroke="#263238" stroke-miterlimit="10"/>
<path d="M153.421 180.058H233.3" stroke="#263238" stroke-miterlimit="10"/>
<path d="M169.814 184.934V195.387" stroke="#263238" stroke-width="2" stroke-miterlimit="10"/>
<path d="M173.302 184.934V195.387" stroke="#263238" stroke-width="2" stroke-miterlimit="10"/>
<path d="M209.932 184.934V195.387" stroke="#263238" stroke-width="2" stroke-miterlimit="10"/>
<path d="M213.419 184.934V195.387" stroke="#263238" stroke-width="2" stroke-miterlimit="10"/>
<path d="M255.564 56.8149V39.0902H281.376" stroke="#263238" stroke-miterlimit="10"/>
<path d="M283.276 39.0902H294.148V83.0562H255.564V59.5023" stroke="#263238" stroke-miterlimit="10"/>
<path d="M280.11 77.1282H260.763V45.0182H288.944V77.1282H282.326" stroke="#263238" stroke-miterlimit="10"/>
<path d="M280.273 54.8982H269.435V67.2482H280.273V54.8982Z" stroke="#263238" stroke-miterlimit="10"/>
<path d="M297.577 77.3061V66.2504H313.678" stroke="#263238" stroke-miterlimit="10"/>
<path d="M314.86 66.2504H321.642V93.6723H297.577V78.9807" stroke="#263238" stroke-miterlimit="10"/>
<path d="M312.886 89.9771H300.821V69.9454H318.397V89.9771H314.266" stroke="#263238" stroke-miterlimit="10"/>
<path d="M312.99 76.1106H306.228V83.8121H312.99V76.1106Z" stroke="#263238" stroke-miterlimit="10"/>
<path d="M42.4424 233.356H321.434" stroke="#263238" stroke-linecap="round" stroke-linejoin="round"/>
<path d="M62.2291 164.196C62.2291 164.196 59.2611 124.676 60.7451 120.23C62.2291 115.784 71.3804 116.031 73.1118 116.031C74.8431 116.031 110.954 116.031 116.148 118.501C121.342 120.971 122.084 181.733 122.084 181.733H64.7024L62.2291 164.196Z" fill="#263238" stroke="#263238" stroke-miterlimit="10"/>
<path d="M124.058 160.985C124.058 160.985 118.122 160.985 116.934 166.913C115.747 172.841 120.422 197.294 120.768 204.21C121.114 211.126 122.331 220.759 122.331 220.759H143.354L148.054 160.985H124.058Z" fill="#263238" stroke="#263238" stroke-miterlimit="10"/>
<path d="M148.054 160.985C148.054 160.985 142.118 160.985 140.634 166.913C139.15 172.841 142.613 197.294 142.613 204.21C142.613 211.126 143.355 220.759 143.355 220.759H150.775C150.775 220.759 151.517 202.975 151.517 200.505C151.517 198.035 154.485 172.347 153.001 167.16C151.517 161.973 150.28 161.479 148.054 160.985Z" fill="#636363" stroke="#263238" stroke-miterlimit="10"/>
<path d="M85.3549 118.624C85.3549 118.624 65.6919 126.652 65.6919 127.516C65.6919 128.381 72.3699 151.599 74.8432 155.18C77.3166 158.762 79.0479 162.714 79.7899 164.196C80.5319 165.678 83.7472 169.383 86.3442 169.383C88.9412 169.383 92.0329 166.295 100.319 165.06C108.604 163.825 116.024 163.949 117.508 162.837C118.992 161.726 117.137 158.762 116.89 158.144C116.643 157.527 115.653 155.304 115.653 155.304C115.653 155.304 123.692 161.973 126.907 162.22C130.122 162.467 132.472 160.861 132.967 158.762C133.461 156.662 131.606 151.599 130.37 148.882C129.133 146.165 123.321 141.842 120.724 138.508C118.127 135.173 114.788 131.221 112.438 128.504C110.39 126.112 107.862 124.177 105.018 122.823C102.792 121.835 97.1032 119.365 93.5169 118.995C89.9306 118.624 85.3549 118.624 85.3549 118.624Z" fill="white" stroke="#263238" stroke-miterlimit="10"/>
<path d="M123.894 147.563C123.894 147.563 121.094 155.304 122.084 157.28C123.073 159.256 125.71 159.913 125.71 159.913" stroke="#263238" stroke-miterlimit="10"/>
<path d="M82.3867 121.218L98.7107 137.026L101.184 125.17" stroke="#263238" stroke-miterlimit="10"/>
<path d="M124.681 148.511C124.681 148.511 128.638 151.352 129.999 150.364C131.359 149.376 130.988 147.523 130.122 145.547C129.257 143.571 126.412 142.46 125.299 143.324C124.186 144.189 123.815 147.647 124.681 148.511Z" fill="white" stroke="#263238" stroke-miterlimit="10"/>
<path d="M84.1182 113.437L84.7365 120.847L97.8452 133.691L99.8238 124.552L100.689 120.724C100.689 120.724 92.1565 119.242 89.4358 117.389C86.7152 115.537 84.1182 113.437 84.1182 113.437Z" fill="white" stroke="#263238" stroke-miterlimit="10"/>
<path d="M100.689 120.724C100.689 120.724 92.1565 119.242 89.4358 117.389C86.7152 115.537 84.1182 113.437 84.1182 113.437L84.7365 120.847L88.0508 124.093C90.628 124.819 93.1953 125.17 94.9415 124.498C96.8791 123.794 98.7309 122.875 100.462 121.756L100.689 120.724Z" fill="#263238" stroke="#263238" stroke-miterlimit="10"/>
<path d="M80.2002 107.717C80.2002 107.717 77.8901 97.1747 77.8901 95.3667C77.8901 93.5587 84.1576 84.3308 92.7301 85.8128C101.303 87.2948 106.086 92.2348 106.418 93.7168C106.749 95.1987 105.428 98.1627 105.428 98.1627C105.689 99.0214 105.855 99.906 105.923 100.801C105.923 101.789 104.439 106.067 104.439 106.067L103.944 101.621C103.944 101.621 99.8237 102.777 97.5136 102.777C95.2035 102.777 91.2461 101.295 91.2461 101.295C91.2461 101.295 92.0722 103.928 91.2461 105.247C90.42 106.566 87.9517 107.717 87.9517 107.717C87.9517 107.717 87.6202 110.35 86.6309 110.35C85.4104 110.288 84.1974 110.123 83.005 109.856C82.3421 109.693 80.2002 107.717 80.2002 107.717Z" fill="#263238" stroke="#263238" stroke-miterlimit="10"/>
<path d="M83.9944 108.868C83.9944 108.868 83.663 104.916 80.3636 105.904C77.0642 106.892 79.211 110.513 81.0264 112.326C82.8419 114.139 83.3316 112.82 83.3316 112.82C83.3316 112.82 83.8263 116.609 86.2996 118.748C88.7729 120.887 92.567 124.839 96.5243 124.345C100.482 123.851 103.286 118.911 103.781 115.29C104.276 111.669 104.602 103.103 104.602 102.115C104.483 101 104.263 99.8992 103.944 98.8247C103.944 98.8247 100.482 101.295 97.3504 100.633C94.2192 99.9708 90.9198 98.6567 89.4358 98.6567C87.9518 98.6567 88.2783 100.801 88.7729 101.458C89.2676 102.115 90.5883 103.434 89.1043 104.259C87.6203 105.084 85.6417 105.904 85.6417 105.904V109.362L83.9944 108.868Z" fill="white" stroke="#263238" stroke-miterlimit="10"/>
<path d="M99.7694 107.07L98.9582 115.996L94.897 114.82" stroke="#263238" stroke-miterlimit="10"/>
<path d="M96.3416 115.542C96.3416 115.542 94.363 115.542 93.2747 115.635C92.621 115.743 91.9568 115.773 91.296 115.724C90.8459 115.635 90.3067 115.275 91.207 116.174C92.1073 117.073 94.8181 118.15 96.2625 118.338C97.7069 118.525 98.7012 118.066 99.7796 117.35C100.858 116.633 101.758 115.907 101.224 115.729C100.48 115.597 99.7243 115.536 98.9683 115.547V116.001L96.3416 115.542Z" fill="#263238" stroke="#263238" stroke-miterlimit="10"/>
<path d="M93.4969 110.132C93.822 110.132 94.0855 109.588 94.0855 108.917C94.0855 108.246 93.822 107.702 93.4969 107.702C93.1717 107.702 92.9082 108.246 92.9082 108.917C92.9082 109.588 93.1717 110.132 93.4969 110.132Z" fill="#263238"/>
<path d="M102.297 108.739C102.297 109.411 102.035 109.955 101.714 109.955C101.392 109.955 101.125 109.411 101.125 108.739C101.125 108.068 101.387 107.519 101.714 107.519C102.04 107.519 102.297 108.068 102.297 108.739Z" fill="#263238"/>
<path d="M91.2861 107.07C91.2861 107.07 93.7248 105.355 95.7085 106.082" stroke="#263238" stroke-miterlimit="10"/>
<path d="M100.225 106.171C100.225 106.171 102.752 104.995 103.836 106.077" stroke="#263238" stroke-miterlimit="10"/>
<path d="M95.0801 111.15C95.0801 111.15 94.536 111.782 92.7305 112.321" stroke="#263238" stroke-miterlimit="10"/>
<path d="M100.042 110.765C100.576 111.133 101.152 111.436 101.758 111.669" stroke="#263238" stroke-miterlimit="10"/>
<path d="M107.739 134.185L108.604 131.962C108.604 131.962 109.717 133.074 112.685 133.074C115.653 133.074 120.476 135.173 120.476 135.173L120.847 135.791C120.847 135.791 121.713 133.197 123.321 132.703C124.928 132.209 127.525 130.48 127.896 129.986L128.267 129.492L129.999 130.974L122.331 141.101L107.986 135.544L107.739 134.185Z" fill="white" stroke="#263238" stroke-miterlimit="10"/>
<path d="M107.862 133.321L104.152 152.957L117.014 155.921L121.713 136.902L107.862 133.321Z" fill="white" stroke="#263238" stroke-miterlimit="10"/>
<path d="M121.713 136.902L129.999 130.974L125.052 149.993L117.014 155.921L121.713 136.902Z" fill="white" stroke="#263238" stroke-miterlimit="10"/>
<path d="M91.9092 149.376L97.5138 147.069C97.5138 147.069 102.46 141.803 102.955 141.309C103.45 140.815 108.396 140.321 108.396 140.321L113.838 143.942C113.838 143.942 114.827 144.767 113.838 145.093C112.848 145.419 110.707 144.436 110.707 144.436L108.56 143.117L107.244 143.779L110.044 146.081C110.044 146.081 110.87 148.225 110.87 149.376C110.855 150.115 110.686 150.843 110.375 151.515L108.728 153.822L103.781 151.352C103.781 151.352 100.813 153.491 100.15 153.822C99.4875 154.153 93.225 153.659 93.225 153.659L91.9092 149.376Z" fill="white" stroke="#263238" stroke-miterlimit="10"/>
<path d="M103.737 143.606L105.488 143.275L106.992 143.69" stroke="#263238" stroke-miterlimit="10"/>
<path d="M102.07 146.856C102.07 146.856 105.988 145.77 106.24 145.77C106.492 145.77 109.411 148.768 109.411 148.768L109.742 152.019" stroke="#263238" stroke-miterlimit="10"/>
<path d="M102.238 148.936L105.404 149.02L108.322 150.937C108.618 151.869 108.755 152.844 108.728 153.822" stroke="#263238" stroke-miterlimit="10"/>
<path d="M69.1545 125.17C69.1545 125.17 65.5236 125.664 65.029 128.791C64.5343 131.918 61.2398 158.268 62.2291 161.232C63.2185 164.196 81.5211 159.093 82.179 158.762C82.837 158.431 93.225 155.304 93.3931 154.647C93.5613 153.99 93.8878 148.551 92.4038 148.225C90.9198 147.899 76.7377 148.388 76.7377 148.388L74.759 131.261" fill="white"/>
<path d="M69.1545 125.17C69.1545 125.17 65.5236 125.664 65.029 128.791C64.5343 131.918 61.2398 158.268 62.2291 161.232C63.2185 164.196 81.5211 159.093 82.179 158.762C82.837 158.431 93.225 155.304 93.3931 154.647C93.5613 153.99 93.8878 148.551 92.4038 148.225C90.9198 147.899 76.7377 148.388 76.7377 148.388L74.759 131.261" stroke="#263238" stroke-miterlimit="10"/>
<path d="M76.7378 148.388L67.9971 149.87" stroke="#263238" stroke-miterlimit="10"/>
<path d="M66.3496 147.894L73.9328 148.882" stroke="#263238" stroke-miterlimit="10"/>
<path d="M127.772 139.125C127.772 139.125 124.433 142.583 124.557 143.448C124.681 144.312 126.412 142.954 126.783 142.583C127.154 142.213 128.885 141.225 128.885 140.237C128.885 139.249 128.514 138.137 127.772 139.125Z" fill="white" stroke="#263238" stroke-miterlimit="10"/>
<path d="M128.144 141.225C128.144 141.225 129.133 142.213 129.133 143.077C129.133 143.942 127.031 146.782 126.041 146.782C125.052 146.782 125.794 144.806 126.289 143.942C126.783 143.077 128.144 141.225 128.144 141.225Z" fill="white" stroke="#263238" stroke-miterlimit="10"/>
<path d="M129.133 143.077C129.133 143.077 130.37 143.448 130.37 144.559C130.37 145.671 128.02 147.523 127.402 147.647C126.783 147.77 126.907 146.659 127.402 145.794C127.896 144.93 129.133 143.077 129.133 143.077Z" fill="white" stroke="#263238" stroke-miterlimit="10"/>
<path d="M130.369 144.559C130.623 145.185 130.708 145.866 130.617 146.535C130.493 147.77 128.638 148.511 128.02 148.511C127.401 148.511 127.401 147.647 127.401 147.647C128.448 146.674 129.439 145.643 130.369 144.559V144.559Z" fill="white" stroke="#263238" stroke-miterlimit="10"/>
<path d="M91.4737 233.356H89.124L87.9517 217.795H92.651L91.4737 233.356Z" fill="white" stroke="#263238" stroke-miterlimit="10"/>
<path d="M69.9561 233.356H67.6064L66.4341 217.795H71.1334L69.9561 233.356Z" fill="white" stroke="#263238" stroke-miterlimit="10"/>
<path d="M147.619 233.356H145.269L144.097 217.795H148.796L147.619 233.356Z" fill="white" stroke="#263238" stroke-miterlimit="10"/>
<path d="M126.101 233.356H123.751L122.579 217.795H127.278L126.101 233.356Z" fill="white" stroke="#263238" stroke-miterlimit="10"/>
<path d="M144.344 188.021H88.1992V220.625H144.344V188.021Z" fill="#263238" stroke="#263238" stroke-miterlimit="10"/>
<path d="M185.07 182.805C185.07 182.805 191.006 180.335 192.326 179.347C193.647 178.359 195.458 180.498 194.632 182.805C193.805 185.112 191.664 189.227 188.369 191.203C185.075 193.179 182.433 194.824 181.77 195.481C181.107 196.138 181.276 198.613 178.476 199.601C175.676 200.589 172.208 198.613 170.23 195.481C168.251 192.349 166.93 190.215 166.93 190.215C166.93 190.215 167.098 187.908 170.393 186.757C173.687 185.606 179.297 185.107 179.297 185.107L185.07 182.805Z" fill="white" stroke="#263238" stroke-miterlimit="10"/>
<path d="M117.508 162.837C117.508 162.837 121.421 161.889 122.41 162.383C123.4 162.877 126.699 166.009 126.699 166.009C126.699 166.009 146.649 166.335 148.133 166.997C149.617 167.659 164.952 179.347 168.251 180.992C171.55 182.637 174.35 184.119 174.35 184.119L171.877 194.987V195.975L172.045 197.625C172.045 197.625 163.468 194.987 161.326 194.493C159.184 193.999 150.28 189.39 149.454 189.39C148.628 189.39 141.87 187.414 141.87 187.414C141.87 187.414 140.881 186.757 130.162 185.769C119.442 184.781 107.407 183.625 103.118 183.462C98.8295 183.299 93.225 182.968 91.083 182.143C88.9411 181.318 85.147 175.558 84.4891 172.1C83.8312 168.642 90.7516 165.678 93.7196 164.359C96.6876 163.04 107.738 161.395 109.717 161.395C111.696 161.395 117.508 162.837 117.508 162.837Z" fill="white" stroke="#263238" stroke-miterlimit="10"/>
<path d="M121.258 167.654L117.958 172.431L122.41 169.467" fill="white"/>
<path d="M121.258 167.654L117.958 172.431L122.41 169.467" stroke="#263238" stroke-miterlimit="10"/>
<path d="M171.877 181.98C171.877 181.98 176.661 178.191 177.65 177.04C178.639 175.889 181.939 169.63 182.597 167.654C183.255 165.678 184.907 164.69 186.059 166.172C187.212 167.654 188.038 170.618 188.696 171.937C189.354 173.256 188.369 179.673 186.391 181.817C184.412 183.961 181.677 189.153 181.113 190.215C179.629 193.011 177.319 193.342 175.835 193.505C174.351 193.668 170.725 189.721 170.725 189.721L171.877 181.98Z" fill="white" stroke="#263238" stroke-miterlimit="10"/>
<path d="M98.5031 170.949C98.5031 170.949 103.45 169.961 107.902 170.455C112.354 170.949 121.421 173.745 125.215 174.733C129.009 175.721 135.766 176.215 138.903 177.371C142.039 178.527 150.28 180.004 156.542 180.004C162.805 180.004 172.372 180.829 172.372 180.829C172.372 180.829 171.056 190.378 171.382 192.191C171.708 193.65 172.149 195.08 172.703 196.469C172.703 196.469 160.005 197.457 156.379 197.951C152.753 198.445 138.076 196.143 135.603 195.481C133.13 194.819 129.504 193.836 127.194 193.836C124.884 193.836 120.432 194.824 114.001 195.481C107.57 196.138 98.5031 193.342 97.3505 193.179C96.1979 193.016 92.0724 191.529 91.0831 190.872C90.0938 190.215 84.321 180.004 86.2997 175.721C88.2783 171.438 90.7517 170.781 90.7517 170.781" fill="white"/>
<path d="M98.5031 170.949C98.5031 170.949 103.45 169.961 107.902 170.455C112.354 170.949 121.421 173.745 125.215 174.733C129.009 175.721 135.766 176.215 138.903 177.371C142.039 178.527 150.28 180.004 156.542 180.004C162.805 180.004 172.372 180.829 172.372 180.829C172.372 180.829 171.056 190.378 171.382 192.191C171.708 193.65 172.149 195.08 172.703 196.469C172.703 196.469 160.005 197.457 156.379 197.951C152.753 198.445 138.076 196.143 135.603 195.481C133.13 194.819 129.504 193.836 127.194 193.836C124.884 193.836 120.432 194.824 114.001 195.481C107.57 196.138 98.5031 193.342 97.3505 193.179C96.1979 193.016 92.0724 191.529 91.0831 190.872C90.0938 190.215 84.321 180.004 86.2997 175.721C88.2783 171.438 90.7517 170.781 90.7517 170.781" stroke="#263238" stroke-miterlimit="10"/>
<path d="M128.836 187.562C132.017 188.194 135.385 190.121 139.941 191.904C146.021 194.28 158.189 194.063 159.758 194.28C161.326 194.498 165.308 194.28 165.308 194.28" fill="white"/>
<path d="M128.836 187.562C132.017 188.194 135.385 190.121 139.941 191.904C146.021 194.28 158.189 194.063 159.758 194.28C161.326 194.498 165.308 194.28 165.308 194.28" stroke="#263238" stroke-miterlimit="10"/>
<path d="M104.311 189.795L106.126 190.057C111.409 190.847 121.461 187.947 125.675 187.419" fill="white"/>
<path d="M104.311 189.795L106.126 190.057C111.409 190.847 121.461 187.947 125.675 187.419" stroke="#263238" stroke-miterlimit="10"/>
<path d="M98.9927 189.266C98.9927 189.266 99.9424 189.266 102.421 189.558Z" fill="white"/>
<path d="M98.9927 189.266C98.9927 189.266 99.9424 189.266 102.421 189.558" stroke="#263238" stroke-miterlimit="10"/>
<path d="M66.9236 160.985C66.9236 160.985 60.9876 160.985 59.8004 166.913C58.6132 172.841 63.2631 197.294 63.6341 204.21C64.0051 211.126 65.1972 220.759 65.1972 220.759H86.2205L90.9199 160.985H66.9236Z" fill="#263238" stroke="#263238" stroke-miterlimit="10"/>
<path d="M90.9201 160.985C90.9201 160.985 84.9841 160.985 83.5001 166.913C82.0161 172.841 85.4788 197.294 85.4788 204.21C85.4788 211.126 86.2208 220.759 86.2208 220.759H93.6408C93.6408 220.759 94.3828 202.975 94.3828 200.505C94.3828 198.035 97.3508 172.347 95.8668 167.16C94.3828 161.973 93.1461 161.479 90.9201 160.985Z" fill="#636363" stroke="#263238" stroke-miterlimit="10"/>
<path d="M139.209 233.356H136.859L135.687 217.795H140.386L139.209 233.356Z" fill="white" stroke="#263238" stroke-miterlimit="10"/>
<path d="M159.243 233.356H156.894L155.721 217.795H160.421L159.243 233.356Z" fill="white" stroke="#263238" stroke-miterlimit="10"/>
<path d="M168.642 233.356H166.292L165.12 217.795H169.819L168.642 233.356Z" fill="white" stroke="#263238" stroke-miterlimit="10"/>
<path d="M188.429 233.356H186.079L184.907 217.795H189.606L188.429 233.356Z" fill="white" stroke="#263238" stroke-miterlimit="10"/>
<path d="M136.305 197.541H187.973C188.924 197.541 189.837 197.918 190.509 198.59C191.182 199.261 191.56 200.172 191.56 201.122V226.44H132.694V201.122C132.694 200.65 132.788 200.182 132.97 199.746C133.151 199.31 133.418 198.914 133.753 198.581C134.089 198.248 134.487 197.985 134.925 197.806C135.363 197.628 135.832 197.537 136.305 197.541V197.541Z" fill="#263238" stroke="#263238" stroke-miterlimit="10"/>
<path d="M187.998 197.541H169.201C168.25 197.541 167.338 197.918 166.665 198.59C165.993 199.261 165.615 200.172 165.615 201.122V226.44H191.585V201.122C191.583 200.173 191.205 199.263 190.533 198.591C189.861 197.92 188.949 197.542 187.998 197.541V197.541Z" fill="#636363" stroke="#263238" stroke-miterlimit="10"/>
</svg>
