<svg width="390" height="390" viewBox="0 0 390 390" fill="none" xmlns="http://www.w3.org/2000/svg">
<path d="M341.897 130.533H272.228V288.577H341.897V130.533Z" stroke="#263238" stroke-width="0.75" stroke-linecap="round" stroke-linejoin="round"/>
<path d="M335.782 136.648H278.343V282.461H335.782V136.648Z" stroke="#263238" stroke-width="0.75" stroke-linecap="round" stroke-linejoin="round"/>
<path d="M284.872 201.029L283.304 203.751" stroke="#263238" stroke-width="0.75" stroke-linecap="round" stroke-linejoin="round"/>
<path d="M301.361 172.481L286.681 197.909" stroke="#263238" stroke-width="0.75" stroke-linecap="round" stroke-linejoin="round"/>
<path d="M314.831 149.144L303.708 168.41" stroke="#263238" stroke-width="0.75" stroke-linecap="round" stroke-linejoin="round"/>
<path d="M317.187 145.072L316.001 147.116" stroke="#263238" stroke-width="0.75" stroke-linecap="round" stroke-linejoin="round"/>
<path d="M289.544 270.332L288.21 272.641" stroke="#263238" stroke-width="0.75" stroke-linecap="round" stroke-linejoin="round"/>
<path d="M292.633 264.982L291.221 267.439" stroke="#263238" stroke-width="0.75" stroke-linecap="round" stroke-linejoin="round"/>
<path d="M311.47 232.354L295.659 259.748" stroke="#263238" stroke-width="0.75" stroke-linecap="round" stroke-linejoin="round"/>
<path d="M325.47 208.104L313.092 229.554" stroke="#263238" stroke-width="0.75" stroke-linecap="round" stroke-linejoin="round"/>
<path d="M328.536 202.8L327.312 204.922" stroke="#263238" stroke-width="0.75" stroke-linecap="round" stroke-linejoin="round"/>
<path d="M307.063 252.884L295.659 272.641" stroke="#263238" stroke-width="0.75" stroke-linecap="round" stroke-linejoin="round"/>
<path d="M321.649 227.62L308.724 250.006" stroke="#263238" stroke-width="0.75" stroke-linecap="round" stroke-linejoin="round"/>
<path d="M324.683 222.37L323.154 225.014" stroke="#263238" stroke-width="0.75" stroke-linecap="round" stroke-linejoin="round"/>
<path d="M283.304 221.481L281.572 224.484" stroke="#263238" stroke-width="0.75" stroke-linecap="round" stroke-linejoin="round"/>
<path d="M298.459 195.234L284.692 219.079" stroke="#263238" stroke-width="0.75" stroke-linecap="round" stroke-linejoin="round"/>
<path d="M317.374 162.474L300.082 192.418" stroke="#263238" stroke-width="0.75" stroke-linecap="round" stroke-linejoin="round"/>
<path d="M328.739 142.787L318.708 160.165" stroke="#263238" stroke-width="0.75" stroke-linecap="round" stroke-linejoin="round"/>
<path d="M117.772 130.533H48.1025V288.577H117.772V130.533Z" stroke="#263238" stroke-width="0.75" stroke-linecap="round" stroke-linejoin="round"/>
<path d="M111.657 136.648H54.2178V282.461H111.657V136.648Z" stroke="#263238" stroke-width="0.75" stroke-linecap="round" stroke-linejoin="round"/>
<path d="M60.7465 201.029L59.1787 203.751" stroke="#263238" stroke-width="0.75" stroke-linecap="round" stroke-linejoin="round"/>
<path d="M77.2279 172.481L62.5483 197.909" stroke="#263238" stroke-width="0.75" stroke-linecap="round" stroke-linejoin="round"/>
<path d="M90.7063 149.144L79.5835 168.41" stroke="#263238" stroke-width="0.75" stroke-linecap="round" stroke-linejoin="round"/>
<path d="M93.0538 145.072L91.876 147.116" stroke="#263238" stroke-width="0.75" stroke-linecap="round" stroke-linejoin="round"/>
<path d="M65.4188 270.332L64.085 272.641" stroke="#263238" stroke-width="0.75" stroke-linecap="round" stroke-linejoin="round"/>
<path d="M68.5075 264.982L67.0879 267.439" stroke="#263238" stroke-width="0.75" stroke-linecap="round" stroke-linejoin="round"/>
<path d="M87.3443 232.354L71.5259 259.748" stroke="#263238" stroke-width="0.75" stroke-linecap="round" stroke-linejoin="round"/>
<path d="M101.345 208.104L88.959 229.554" stroke="#263238" stroke-width="0.75" stroke-linecap="round" stroke-linejoin="round"/>
<path d="M104.411 202.8L103.178 204.922" stroke="#263238" stroke-width="0.75" stroke-linecap="round" stroke-linejoin="round"/>
<path d="M82.9373 252.884L71.5259 272.641" stroke="#263238" stroke-width="0.75" stroke-linecap="round" stroke-linejoin="round"/>
<path d="M97.5232 227.62L84.5986 250.006" stroke="#263238" stroke-width="0.75" stroke-linecap="round" stroke-linejoin="round"/>
<path d="M100.55 222.37L99.0288 225.014" stroke="#263238" stroke-width="0.75" stroke-linecap="round" stroke-linejoin="round"/>
<path d="M59.1784 221.481L57.439 224.484" stroke="#263238" stroke-width="0.75" stroke-linecap="round" stroke-linejoin="round"/>
<path d="M74.3261 195.234L60.5591 219.079" stroke="#263238" stroke-width="0.75" stroke-linecap="round" stroke-linejoin="round"/>
<path d="M93.2413 162.474L75.9565 192.418" stroke="#263238" stroke-width="0.75" stroke-linecap="round" stroke-linejoin="round"/>
<path d="M104.606 142.787L94.5747 160.165" stroke="#263238" stroke-width="0.75" stroke-linecap="round" stroke-linejoin="round"/>
<path d="M23.0098 354.455H366.99" stroke="#263238" stroke-linecap="round" stroke-linejoin="round"/>
<path d="M142.498 292.664H136.531V312.952H142.498V292.664Z" fill="white"/>
<path opacity="0.2" d="M142.498 292.664H136.531V312.952H142.498V292.664Z" fill="black"/>
<path d="M148.473 294.895H142.506V312.952H148.473V294.895Z" fill="white"/>
<path d="M155.922 294.895H151.71V312.952H155.922V294.895Z" fill="white"/>
<path opacity="0.9" d="M155.922 294.895H151.71V312.952H155.922V294.895Z" fill="white"/>
<path d="M151.718 292.991H147.896V312.959H151.718V292.991Z" fill="white"/>
<path opacity="0.1" d="M151.718 292.991H147.896V312.959H151.718V292.991Z" fill="black"/>
<path d="M161.897 292.664H155.93V312.952H161.897V292.664Z" fill="white"/>
<path d="M167.863 294.895H161.896V312.952H167.863V294.895Z" fill="white"/>
<path opacity="0.2" d="M167.863 294.895H161.896V312.952H167.863V294.895Z" fill="#263238"/>
<path d="M175.32 294.895H171.108V312.952H175.32V294.895Z" fill="white"/>
<path opacity="0.8" d="M175.32 294.895H171.108V312.952H175.32V294.895Z" fill="white"/>
<path d="M171.109 292.991H167.287V312.959H171.109V292.991Z" fill="white"/>
<path opacity="0.1" d="M171.109 292.991H167.287V312.959H171.109V292.991Z" fill="black"/>
<path d="M203.79 312.959H209.757V292.672H203.79V312.959Z" fill="white"/>
<path opacity="0.2" d="M203.79 312.959H209.757V292.672H203.79V312.959Z" fill="black"/>
<path d="M197.816 312.959H203.783V294.902H197.816V312.959Z" fill="white"/>
<path d="M190.367 312.959H194.579V294.902H190.367V312.959Z" fill="white"/>
<path opacity="0.9" d="M190.367 312.959H194.579V294.902H190.367V312.959Z" fill="white"/>
<path d="M194.571 312.952H198.393V292.984H194.571V312.952Z" fill="white"/>
<path opacity="0.1" d="M194.571 312.952H198.393V292.984H194.571V312.952Z" fill="black"/>
<path d="M184.392 312.959H190.359V292.672H184.392V312.959Z" fill="white"/>
<path d="M178.425 312.959H184.392V294.902H178.425V312.959Z" fill="white"/>
<path opacity="0.2" d="M178.425 312.959H184.392V294.902H178.425V312.959Z" fill="#263238"/>
<path d="M175.18 312.952H179.002V292.984H175.18V312.952Z" fill="white"/>
<path opacity="0.1" d="M175.18 312.952H179.002V292.984H175.18V312.952Z" fill="black"/>
<path d="M238.188 312.959H244.155V292.672H238.188V312.959Z" fill="white"/>
<path opacity="0.2" d="M238.188 312.959H244.155V292.672H238.188V312.959Z" fill="black"/>
<path d="M232.214 312.959H238.181V294.902H232.214V312.959Z" fill="white"/>
<path d="M224.765 312.959H228.977V294.902H224.765V312.959Z" fill="white"/>
<path opacity="0.9" d="M224.765 312.959H228.977V294.902H224.765V312.959Z" fill="white"/>
<path d="M228.969 312.952H232.791V292.984H228.969V312.952Z" fill="white"/>
<path opacity="0.1" d="M228.969 312.952H232.791V292.984H228.969V312.952Z" fill="black"/>
<path d="M218.79 312.959H224.757V292.672H218.79V312.959Z" fill="white"/>
<path d="M248.04 312.243L251.959 311.192L246.684 291.513L242.765 292.563L248.04 312.243Z" fill="white"/>
<path d="M212.823 312.959H218.79V294.902H212.823V312.959Z" fill="white"/>
<path opacity="0.2" d="M212.823 312.959H218.79V294.902H212.823V312.959Z" fill="#263238"/>
<path d="M209.578 312.952H213.4V292.984H209.578V312.952Z" fill="white"/>
<path opacity="0.1" d="M209.578 312.952H213.4V292.984H209.578V312.952Z" fill="black"/>
<path d="M250.038 339.313L254.046 338.239L248.795 318.642L244.787 319.716L250.038 339.313Z" fill="white"/>
<path opacity="0.2" d="M250.038 339.313L254.046 338.239L248.795 318.642L244.787 319.716L250.038 339.313Z" fill="black"/>
<path d="M239.741 339.113H245.708V321.056H239.741V339.113Z" fill="white"/>
<path d="M232.276 339.113H236.488V321.056H232.276V339.113Z" fill="white"/>
<path opacity="0.9" d="M232.276 339.113H236.488V321.056H232.276V339.113Z" fill="white"/>
<path d="M236.488 339.121H240.31V319.153H236.488V339.121Z" fill="white"/>
<path opacity="0.1" d="M236.488 339.121H240.31V319.153H236.488V339.121Z" fill="black"/>
<path d="M226.317 339.121H232.284V318.833H226.317V339.121Z" fill="white"/>
<path d="M220.342 339.113H226.309V321.056H220.342V339.113Z" fill="white"/>
<path opacity="0.2" d="M220.342 339.113H226.309V321.056H220.342V339.113Z" fill="#263238"/>
<path d="M212.893 339.113H217.105V321.056H212.893V339.113Z" fill="white"/>
<path opacity="0.8" d="M212.893 339.113H217.105V321.056H212.893V339.113Z" fill="white"/>
<path d="M217.097 339.121H220.919V319.153H217.097V339.121Z" fill="white"/>
<path opacity="0.1" d="M217.097 339.121H220.919V319.153H217.097V339.121Z" fill="black"/>
<path d="M184.423 318.833H178.456V339.121H184.423V318.833Z" fill="white"/>
<path opacity="0.2" d="M184.423 318.833H178.456V339.121H184.423V318.833Z" fill="black"/>
<path d="M190.39 321.063H184.423V339.12H190.39V321.063Z" fill="white"/>
<path d="M197.847 321.063H193.635V339.12H197.847V321.063Z" fill="white"/>
<path opacity="0.9" d="M197.847 321.063H193.635V339.12H197.847V321.063Z" fill="white"/>
<path d="M193.635 319.153H189.813V339.121H193.635V319.153Z" fill="white"/>
<path opacity="0.1" d="M193.635 319.153H189.813V339.121H193.635V319.153Z" fill="black"/>
<path d="M203.814 318.833H197.847V339.121H203.814V318.833Z" fill="white"/>
<path d="M209.781 321.063H203.814V339.12H209.781V321.063Z" fill="white"/>
<path opacity="0.2" d="M209.781 321.063H203.814V339.12H209.781V321.063Z" fill="#263238"/>
<path d="M213.026 319.153H209.204V339.121H213.026V319.153Z" fill="white"/>
<path opacity="0.1" d="M213.026 319.153H209.204V339.121H213.026V319.153Z" fill="black"/>
<path d="M150.025 318.833H144.058V339.121H150.025V318.833Z" fill="white"/>
<path opacity="0.2" d="M150.025 318.833H144.058V339.121H150.025V318.833Z" fill="black"/>
<path d="M155.992 321.063H150.025V339.12H155.992V321.063Z" fill="white"/>
<path d="M163.449 321.063H159.237V339.12H163.449V321.063Z" fill="white"/>
<path opacity="0.9" d="M163.449 321.063H159.237V339.12H163.449V321.063Z" fill="white"/>
<path d="M159.237 319.153H155.415V339.121H159.237V319.153Z" fill="white"/>
<path opacity="0.1" d="M159.237 319.153H155.415V339.121H159.237V319.153Z" fill="black"/>
<path d="M169.416 318.833H163.449V339.121H169.416V318.833Z" fill="white"/>
<path d="M144.046 319.7L140.143 318.654L134.892 338.251L138.795 339.296L144.046 319.7Z" fill="white"/>
<path d="M175.383 321.063H169.416V339.12H175.383V321.063Z" fill="white"/>
<path opacity="0.2" d="M175.383 321.063H169.416V339.12H175.383V321.063Z" fill="#263238"/>
<path d="M178.628 319.153H174.806V339.121H178.628V319.153Z" fill="white"/>
<path opacity="0.1" d="M178.628 319.153H174.806V339.121H178.628V319.153Z" fill="black"/>
<path d="M141.118 354.455H135.151L134.332 342.911H141.937L141.118 354.455Z" fill="#263238"/>
<path d="M254.849 354.455H248.882L248.063 342.911H255.668L254.849 354.455Z" fill="#263238"/>
<path d="M261.425 285.004H128.575C127.816 285.004 127.088 285.306 126.551 285.843C126.014 286.379 125.712 287.108 125.712 287.867V342.139C125.712 342.898 126.014 343.626 126.551 344.163C127.088 344.7 127.816 345.002 128.575 345.002H261.425C262.184 345.002 262.912 344.7 263.449 344.163C263.986 343.626 264.287 342.898 264.287 342.139V287.867C264.287 287.108 263.986 286.379 263.449 285.843C262.912 285.306 262.184 285.004 261.425 285.004ZM258.554 290.737V312.959H131.414V290.737H258.554ZM131.445 339.3V317.054H258.585V339.3H131.445Z" fill="white" stroke="#263238" stroke-width="0.75" stroke-linecap="round" stroke-linejoin="round"/>
<path d="M241.784 171.007H149.861C146.906 171.007 144.51 173.403 144.51 176.358V196.092C144.51 199.047 146.906 201.443 149.861 201.443H241.784C244.739 201.443 247.135 199.047 247.135 196.092V176.358C247.135 173.403 244.739 171.007 241.784 171.007Z" fill="#263238" stroke="#263238" stroke-linecap="round" stroke-linejoin="round"/>
<path d="M240.146 169.369H148.223C145.268 169.369 142.873 171.765 142.873 174.72V194.454C142.873 197.409 145.268 199.805 148.223 199.805H240.146C243.102 199.805 245.497 197.409 245.497 194.454V174.72C245.497 171.765 243.102 169.369 240.146 169.369Z" fill="white" stroke="#263238" stroke-linecap="round" stroke-linejoin="round"/>
<path d="M240.146 169.369H148.223C145.268 169.369 142.873 171.765 142.873 174.72V194.454C142.873 197.409 145.268 199.805 148.223 199.805H240.146C243.102 199.805 245.497 197.409 245.497 194.454V174.72C245.497 171.765 243.102 169.369 240.146 169.369Z" stroke="#263238" stroke-linecap="round" stroke-linejoin="round"/>
<path d="M165.594 193.573H152.077V176.475H161.086L165.594 180.984V193.573Z" fill="white"/>
<path opacity="0.5" d="M165.594 193.573H152.077V176.475H161.086L165.594 180.984V193.573Z" fill="white"/>
<path d="M165.594 193.573H152.077V176.475H161.086L165.594 180.983V193.573Z" stroke="#263238" stroke-linecap="round" stroke-linejoin="round"/>
<path d="M161.085 180.984H165.594L161.085 176.475V180.984Z" fill="white" stroke="#263238" stroke-linecap="round" stroke-linejoin="round"/>
<path d="M155.08 185.546C154.867 185.526 154.67 185.427 154.526 185.269C154.383 185.112 154.303 184.906 154.303 184.692C154.303 184.479 154.383 184.273 154.526 184.115C154.67 183.957 154.867 183.859 155.08 183.838H162.591C162.803 183.859 163.001 183.957 163.144 184.115C163.288 184.273 163.367 184.479 163.367 184.692C163.367 184.906 163.288 185.112 163.144 185.269C163.001 185.427 162.803 185.526 162.591 185.546H155.08Z" fill="#858585" stroke="#263238" stroke-width="0.75" stroke-linecap="round" stroke-linejoin="round"/>
<path d="M155.08 189.142C154.867 189.122 154.67 189.023 154.526 188.865C154.383 188.707 154.303 188.502 154.303 188.288C154.303 188.075 154.383 187.869 154.526 187.711C154.67 187.553 154.867 187.454 155.08 187.434H160.953C161.165 187.454 161.363 187.553 161.506 187.711C161.65 187.869 161.729 188.075 161.729 188.288C161.729 188.502 161.65 188.707 161.506 188.865C161.363 189.023 161.165 189.122 160.953 189.142H155.08Z" fill="#858585" stroke="#263238" stroke-width="0.75" stroke-linecap="round" stroke-linejoin="round"/>
<path d="M199.766 186.529H174.611C174.162 186.559 173.742 186.758 173.435 187.086C173.128 187.414 172.958 187.847 172.958 188.296C172.958 188.745 173.128 189.178 173.435 189.506C173.742 189.834 174.162 190.033 174.611 190.063H199.766V186.529Z" fill="white"/>
<path d="M174.611 190.063C174.162 190.033 173.742 189.834 173.435 189.506C173.128 189.178 172.958 188.745 172.958 188.296C172.958 187.847 173.128 187.414 173.435 187.086C173.742 186.758 174.162 186.559 174.611 186.529H234.515C234.757 186.513 234.999 186.547 235.227 186.628C235.456 186.71 235.665 186.837 235.842 187.003C236.019 187.169 236.16 187.369 236.256 187.591C236.353 187.814 236.403 188.054 236.403 188.296C236.403 188.538 236.353 188.778 236.256 189.001C236.16 189.223 236.019 189.423 235.842 189.589C235.665 189.754 235.456 189.882 235.227 189.964C234.999 190.045 234.757 190.079 234.515 190.063H174.611Z" stroke="#263238" stroke-linecap="round" stroke-linejoin="round"/>
<path d="M200.335 181.74H198.439V180.843L200.241 176.576H201.325V180.843H201.793V181.74H201.325V182.887H200.335V181.74ZM200.335 180.843V178.386L199.36 180.851L200.335 180.843Z" fill="#263238"/>
<path d="M202.254 181.397V180.905H203.19V181.467C203.19 181.919 203.385 182.083 203.705 182.083C204.025 182.083 204.22 181.919 204.22 181.467V180.055C204.22 179.603 204.017 179.431 203.705 179.431C203.393 179.431 203.19 179.603 203.19 180.055V180.11H202.254L202.433 176.584H205.046V177.489H203.315L203.237 178.994C203.324 178.846 203.45 178.725 203.601 178.644C203.753 178.563 203.923 178.525 204.095 178.534C204.82 178.534 205.195 179.049 205.195 179.977V181.397C205.195 182.411 204.688 182.957 203.713 182.957C202.738 182.957 202.254 182.411 202.254 181.397Z" fill="#263238"/>
<path d="M205.826 179.08V177.52C205.814 177.388 205.83 177.254 205.873 177.127C205.915 177.001 205.983 176.885 206.073 176.787C206.163 176.688 206.273 176.61 206.395 176.556C206.517 176.502 206.648 176.474 206.782 176.474C206.915 176.474 207.047 176.502 207.169 176.556C207.291 176.61 207.4 176.688 207.49 176.787C207.58 176.885 207.648 177.001 207.691 177.127C207.733 177.254 207.749 177.388 207.737 177.52V179.08C207.749 179.213 207.733 179.347 207.691 179.473C207.648 179.599 207.58 179.715 207.49 179.814C207.4 179.912 207.291 179.991 207.169 180.045C207.047 180.098 206.915 180.126 206.782 180.126C206.648 180.126 206.517 180.098 206.395 180.045C206.273 179.991 206.163 179.912 206.073 179.814C205.983 179.715 205.915 179.599 205.873 179.473C205.83 179.347 205.814 179.213 205.826 179.08ZM207.105 179.127V177.458C207.105 177.185 206.981 177.068 206.786 177.068C206.591 177.068 206.458 177.185 206.458 177.458V179.127C206.458 179.408 206.575 179.525 206.786 179.525C206.996 179.525 207.105 179.4 207.105 179.127ZM209.071 176.584H209.703L207.261 182.895H206.63L209.071 176.584ZM208.595 181.974V180.414C208.583 180.281 208.599 180.148 208.641 180.021C208.684 179.895 208.752 179.779 208.842 179.681C208.932 179.582 209.042 179.504 209.164 179.45C209.286 179.396 209.417 179.368 209.551 179.368C209.684 179.368 209.816 179.396 209.938 179.45C210.06 179.504 210.169 179.582 210.259 179.681C210.349 179.779 210.417 179.895 210.46 180.021C210.502 180.148 210.518 180.281 210.506 180.414V181.974C210.518 182.107 210.502 182.241 210.46 182.367C210.417 182.493 210.349 182.609 210.259 182.708C210.169 182.806 210.06 182.885 209.938 182.938C209.816 182.992 209.684 183.02 209.551 183.02C209.417 183.02 209.286 182.992 209.164 182.938C209.042 182.885 208.932 182.806 208.842 182.708C208.752 182.609 208.684 182.493 208.641 182.367C208.599 182.241 208.583 182.107 208.595 181.974ZM209.874 182.021V180.352C209.874 180.071 209.75 179.954 209.547 179.954C209.344 179.954 209.227 180.071 209.227 180.352V182.021C209.227 182.302 209.344 182.419 209.547 182.419C209.75 182.419 209.874 182.302 209.874 182.021Z" fill="#263238"/>
<path d="M241.784 206.326H149.861C146.906 206.326 144.51 208.721 144.51 211.676V231.41C144.51 234.366 146.906 236.761 149.861 236.761H241.784C244.739 236.761 247.135 234.366 247.135 231.41V211.676C247.135 208.721 244.739 206.326 241.784 206.326Z" fill="#263238" stroke="#263238" stroke-linecap="round" stroke-linejoin="round"/>
<path d="M240.146 204.688H148.223C145.268 204.688 142.873 207.083 142.873 210.038V229.772C142.873 232.728 145.268 235.123 148.223 235.123H240.146C243.102 235.123 245.497 232.728 245.497 229.772V210.038C245.497 207.083 243.102 204.688 240.146 204.688Z" fill="white" stroke="#263238" stroke-linecap="round" stroke-linejoin="round"/>
<path d="M219.609 221.629H174.611C174.162 221.659 173.742 221.858 173.435 222.186C173.128 222.514 172.958 222.947 172.958 223.396C172.958 223.845 173.128 224.278 173.435 224.606C173.742 224.934 174.162 225.133 174.611 225.163H219.609V221.629Z" fill="white"/>
<path d="M174.611 225.163C174.162 225.133 173.742 224.934 173.435 224.606C173.128 224.278 172.958 223.845 172.958 223.396C172.958 222.947 173.128 222.514 173.435 222.186C173.742 221.858 174.162 221.659 174.611 221.629H234.515C234.757 221.613 234.999 221.647 235.227 221.728C235.456 221.81 235.665 221.937 235.842 222.103C236.019 222.269 236.16 222.469 236.256 222.691C236.353 222.914 236.403 223.154 236.403 223.396C236.403 223.638 236.353 223.878 236.256 224.101C236.16 224.323 236.019 224.523 235.842 224.689C235.665 224.854 235.456 224.982 235.227 225.063C234.999 225.145 234.757 225.179 234.515 225.163H174.611Z" stroke="#263238" stroke-linecap="round" stroke-linejoin="round"/>
<path d="M198.557 216.528V215.967C198.526 215.712 198.571 215.454 198.686 215.225C198.801 214.996 198.981 214.807 199.204 214.68C198.992 214.556 198.821 214.372 198.713 214.151C198.604 213.931 198.564 213.683 198.596 213.439V213.182C198.596 212.781 198.755 212.396 199.039 212.112C199.323 211.828 199.707 211.669 200.109 211.669C200.51 211.669 200.895 211.828 201.179 212.112C201.463 212.396 201.622 212.781 201.622 213.182V213.439C201.65 213.683 201.607 213.931 201.498 214.151C201.388 214.371 201.217 214.554 201.006 214.68C201.23 214.805 201.412 214.995 201.528 215.224C201.645 215.453 201.691 215.711 201.661 215.967V216.528C201.661 216.942 201.497 217.339 201.204 217.631C200.912 217.924 200.515 218.088 200.101 218.088C199.687 218.088 199.29 217.924 198.998 217.631C198.705 217.339 198.541 216.942 198.541 216.528H198.557ZM200.67 216.473V215.865C200.67 215.389 200.475 215.155 200.109 215.155C199.742 215.155 199.547 215.389 199.547 215.865V216.473C199.547 216.949 199.742 217.183 200.109 217.183C200.475 217.183 200.67 216.949 200.67 216.473ZM200.67 213.627V213.127C200.67 212.714 200.491 212.495 200.148 212.495C199.805 212.495 199.625 212.714 199.625 213.127V213.627C199.625 214.04 199.805 214.258 200.148 214.258C200.491 214.258 200.631 214.04 200.631 213.627H200.67Z" fill="#263238"/>
<path d="M202.254 216.497V216.006H203.19V216.567C203.19 217.02 203.385 217.183 203.705 217.183C204.024 217.183 204.219 217.02 204.219 216.567V215.155C204.219 214.703 204.017 214.531 203.705 214.531C203.393 214.531 203.19 214.703 203.19 215.155V215.21H202.254L202.433 211.684H205.046V212.589H203.315L203.237 214.095C203.324 213.946 203.45 213.825 203.601 213.744C203.752 213.663 203.923 213.625 204.095 213.634C204.82 213.634 205.194 214.149 205.194 215.077V216.497C205.209 216.7 205.182 216.904 205.114 217.096C205.047 217.288 204.94 217.464 204.802 217.614C204.663 217.763 204.495 217.882 204.308 217.963C204.122 218.044 203.92 218.086 203.716 218.086C203.513 218.086 203.311 218.044 203.124 217.963C202.938 217.882 202.77 217.763 202.631 217.614C202.492 217.464 202.386 217.288 202.318 217.096C202.251 216.904 202.224 216.7 202.238 216.497H202.254Z" fill="#263238"/>
<path d="M205.826 214.18V212.62C205.814 212.488 205.83 212.354 205.873 212.227C205.915 212.101 205.983 211.985 206.073 211.887C206.163 211.788 206.273 211.71 206.395 211.656C206.517 211.602 206.648 211.574 206.782 211.574C206.915 211.574 207.047 211.602 207.169 211.656C207.291 211.71 207.4 211.788 207.49 211.887C207.58 211.985 207.648 212.101 207.691 212.227C207.733 212.354 207.749 212.488 207.737 212.62V214.18C207.749 214.313 207.733 214.447 207.691 214.573C207.648 214.699 207.58 214.815 207.49 214.914C207.4 215.012 207.291 215.091 207.169 215.145C207.047 215.198 206.915 215.226 206.782 215.226C206.648 215.226 206.517 215.198 206.395 215.145C206.273 215.091 206.163 215.012 206.073 214.914C205.983 214.815 205.915 214.699 205.873 214.573C205.83 214.447 205.814 214.313 205.826 214.18ZM207.105 214.227V212.558C207.105 212.285 206.981 212.16 206.786 212.16C206.591 212.16 206.458 212.285 206.458 212.558V214.227C206.458 214.508 206.575 214.625 206.786 214.625C206.996 214.625 207.105 214.5 207.105 214.227ZM209.071 211.684H209.703L207.261 217.994H206.63L209.071 211.684ZM208.595 217.074V215.514C208.583 215.381 208.599 215.248 208.641 215.121C208.684 214.995 208.752 214.879 208.842 214.781C208.932 214.682 209.042 214.604 209.164 214.55C209.286 214.496 209.417 214.468 209.551 214.468C209.684 214.468 209.816 214.496 209.938 214.55C210.06 214.604 210.169 214.682 210.259 214.781C210.349 214.879 210.417 214.995 210.46 215.121C210.502 215.248 210.518 215.381 210.506 215.514V217.074C210.518 217.207 210.502 217.341 210.46 217.467C210.417 217.593 210.349 217.709 210.259 217.808C210.169 217.906 210.06 217.985 209.938 218.038C209.816 218.092 209.684 218.12 209.551 218.12C209.417 218.12 209.286 218.092 209.164 218.038C209.042 217.985 208.932 217.906 208.842 217.808C208.752 217.709 208.684 217.593 208.641 217.467C208.599 217.341 208.583 217.207 208.595 217.074ZM209.874 217.121V215.452C209.874 215.171 209.75 215.054 209.547 215.054C209.344 215.054 209.227 215.171 209.227 215.452V217.121C209.227 217.402 209.344 217.519 209.547 217.519C209.75 217.519 209.874 217.402 209.874 217.121Z" fill="#263238"/>
<path d="M165.594 228.673H152.077V211.575H161.086L165.594 216.083V228.673Z" fill="white"/>
<path opacity="0.5" d="M165.594 228.673H152.077V211.575H161.086L165.594 216.083V228.673Z" fill="white" stroke="#263238" stroke-linecap="round" stroke-linejoin="round"/>
<path d="M165.594 228.673H152.077V211.575H161.086L165.594 216.083V228.673Z" stroke="#263238" stroke-linecap="round" stroke-linejoin="round"/>
<path d="M155.08 220.646C154.867 220.626 154.67 220.527 154.526 220.369C154.383 220.211 154.303 220.006 154.303 219.792C154.303 219.579 154.383 219.373 154.526 219.215C154.67 219.057 154.867 218.959 155.08 218.938H162.591C162.803 218.959 163.001 219.057 163.144 219.215C163.288 219.373 163.367 219.579 163.367 219.792C163.367 220.006 163.288 220.211 163.144 220.369C163.001 220.527 162.803 220.626 162.591 220.646H155.08Z" fill="#858585" stroke="#263238" stroke-width="0.75" stroke-linecap="round" stroke-linejoin="round"/>
<path d="M155.08 224.242C154.867 224.222 154.67 224.123 154.526 223.965C154.383 223.807 154.303 223.602 154.303 223.388C154.303 223.175 154.383 222.969 154.526 222.811C154.67 222.653 154.867 222.554 155.08 222.534H160.953C161.165 222.554 161.363 222.653 161.506 222.811C161.65 222.969 161.729 223.175 161.729 223.388C161.729 223.602 161.65 223.807 161.506 223.965C161.363 224.123 161.165 224.222 160.953 224.242H155.08Z" fill="#858585" stroke="#263238" stroke-width="0.75" stroke-linecap="round" stroke-linejoin="round"/>
<path d="M161.085 216.083H165.594L161.085 211.575V216.083Z" fill="white" stroke="#263238" stroke-linecap="round" stroke-linejoin="round"/>
<path d="M254.35 123.849H137.288C134.333 123.849 131.937 126.244 131.937 129.199V156.398C131.937 159.353 134.333 161.749 137.288 161.749H254.35C257.305 161.749 259.701 159.353 259.701 156.398V129.199C259.701 126.244 257.305 123.849 254.35 123.849Z" fill="#263238" stroke="#263238" stroke-linecap="round" stroke-linejoin="round"/>
<path d="M252.712 122.21H135.65C132.694 122.21 130.299 124.606 130.299 127.561V154.76C130.299 157.715 132.694 160.111 135.65 160.111H252.712C255.667 160.111 258.063 157.715 258.063 154.76V127.561C258.063 124.606 255.667 122.21 252.712 122.21Z" fill="white" stroke="#263238" stroke-linecap="round" stroke-linejoin="round"/>
<path d="M174.892 156.991H149.861V125.33H166.546L174.892 133.669V156.991Z" fill="white"/>
<path opacity="0.7" d="M174.892 156.991H149.861V125.33H166.546L174.892 133.669V156.991Z" fill="white"/>
<path d="M174.892 156.991H149.861V125.33H166.546L174.892 133.669V156.991Z" stroke="#263238" stroke-linecap="round" stroke-linejoin="round"/>
<path d="M166.545 133.669H174.891L166.545 125.33V133.669Z" fill="white" stroke="#263238" stroke-linecap="round" stroke-linejoin="round"/>
<path d="M157.248 137.569H152.334V142.483H157.248V137.569Z" stroke="white" stroke-width="0.75" stroke-linecap="round" stroke-linejoin="round"/>
<path d="M162.302 137.569H157.388V142.483H162.302V137.569Z" stroke="white" stroke-width="0.75" stroke-linecap="round" stroke-linejoin="round"/>
<path d="M167.364 137.569H162.45V142.483H167.364V137.569Z" stroke="white" stroke-width="0.75" stroke-linecap="round" stroke-linejoin="round"/>
<path d="M172.419 137.569H167.505V142.483H172.419V137.569Z" stroke="white" stroke-width="0.75" stroke-linecap="round" stroke-linejoin="round"/>
<path d="M157.248 142.483H152.334V147.397H157.248V142.483Z" stroke="white" stroke-width="0.75" stroke-linecap="round" stroke-linejoin="round"/>
<path d="M162.302 142.483H157.388V147.397H162.302V142.483Z" stroke="white" stroke-width="0.75" stroke-linecap="round" stroke-linejoin="round"/>
<path d="M167.364 142.483H162.45V147.397H167.364V142.483Z" stroke="white" stroke-width="0.75" stroke-linecap="round" stroke-linejoin="round"/>
<path d="M172.419 142.483H167.505V147.397H172.419V142.483Z" stroke="white" stroke-width="0.75" stroke-linecap="round" stroke-linejoin="round"/>
<path d="M157.248 147.397H152.334V152.311H157.248V147.397Z" stroke="white" stroke-width="0.75" stroke-linecap="round" stroke-linejoin="round"/>
<path d="M162.302 147.397H157.388V152.311H162.302V147.397Z" stroke="white" stroke-width="0.75" stroke-linecap="round" stroke-linejoin="round"/>
<path d="M167.364 147.397H162.45V152.311H167.364V147.397Z" stroke="white" stroke-width="0.75" stroke-linecap="round" stroke-linejoin="round"/>
<path d="M172.419 147.397H167.505V152.311H172.419V147.397Z" stroke="white" stroke-width="0.75" stroke-linecap="round" stroke-linejoin="round"/>
<path d="M152.427 151.835L157.388 147.28L159.845 147.397L162.528 142.553L164.907 144.94L167.575 142.139L169.962 137.569" stroke="white" stroke-width="2" stroke-linecap="round" stroke-linejoin="round"/>
<path d="M167.146 138.996L169.962 137.569L170.531 140.642" stroke="white" stroke-width="2" stroke-linecap="round" stroke-linejoin="round"/>
<path d="M184.735 140.15H183.3V139.199C184.439 139.199 184.86 138.949 185.156 138.115H186.061V146.695H184.712L184.735 140.15Z" fill="#263238"/>
<path d="M187.66 144.675V140.151C187.66 139.606 187.876 139.085 188.261 138.7C188.646 138.315 189.168 138.099 189.712 138.099C190.256 138.099 190.777 138.315 191.162 138.7C191.547 139.085 191.763 139.606 191.763 140.151V144.675C191.763 145.219 191.547 145.74 191.162 146.125C190.777 146.51 190.256 146.726 189.712 146.726C189.168 146.726 188.646 146.51 188.261 146.125C187.876 145.74 187.66 145.219 187.66 144.675ZM190.414 144.76V140.08C190.414 139.472 190.141 139.238 189.712 139.238C189.283 139.238 189.01 139.472 189.01 140.08V144.76C189.01 145.377 189.283 145.611 189.712 145.611C190.141 145.611 190.414 145.377 190.414 144.76Z" fill="#263238"/>
<path d="M192.574 144.675V140.151C192.574 139.606 192.79 139.085 193.175 138.7C193.56 138.315 194.082 138.099 194.626 138.099C195.17 138.099 195.691 138.315 196.076 138.7C196.461 139.085 196.677 139.606 196.677 140.151V144.675C196.677 145.219 196.461 145.74 196.076 146.125C195.691 146.51 195.17 146.726 194.626 146.726C194.082 146.726 193.56 146.51 193.175 146.125C192.79 145.74 192.574 145.219 192.574 144.675ZM195.328 144.76V140.08C195.328 139.472 195.055 139.238 194.626 139.238C194.197 139.238 193.924 139.472 193.924 140.08V144.76C193.924 145.377 194.197 145.611 194.626 145.611C195.055 145.611 195.328 145.377 195.328 144.76Z" fill="#263238"/>
<path d="M197.511 141.515V139.37C197.511 139.025 197.648 138.694 197.893 138.449C198.137 138.205 198.468 138.068 198.814 138.068C199.159 138.068 199.491 138.205 199.735 138.449C199.979 138.694 200.116 139.025 200.116 139.37V141.515C200.116 141.861 199.979 142.192 199.735 142.437C199.491 142.681 199.159 142.818 198.814 142.818C198.468 142.818 198.137 142.681 197.893 142.437C197.648 142.192 197.511 141.861 197.511 141.515ZM199.258 141.578V139.308C199.258 138.926 199.087 138.762 198.814 138.762C198.541 138.762 198.369 138.926 198.369 139.308V141.578C198.369 141.96 198.533 142.116 198.814 142.116C199.095 142.116 199.258 141.96 199.258 141.578ZM201.934 138.115H202.8L199.469 146.695H198.611L201.934 138.115ZM201.279 145.462V143.309C201.279 143.138 201.312 142.969 201.378 142.811C201.443 142.653 201.539 142.509 201.66 142.388C201.781 142.267 201.925 142.171 202.083 142.106C202.241 142.041 202.41 142.007 202.581 142.007C202.752 142.007 202.922 142.041 203.08 142.106C203.238 142.171 203.381 142.267 203.502 142.388C203.623 142.509 203.719 142.653 203.785 142.811C203.85 142.969 203.884 143.138 203.884 143.309V145.462C203.884 145.633 203.85 145.803 203.785 145.961C203.719 146.119 203.623 146.262 203.502 146.383C203.381 146.504 203.238 146.6 203.08 146.666C202.922 146.731 202.752 146.765 202.581 146.765C202.41 146.765 202.241 146.731 202.083 146.666C201.925 146.6 201.781 146.504 201.66 146.383C201.539 146.262 201.443 146.119 201.378 145.961C201.312 145.803 201.279 145.633 201.279 145.462ZM203.026 145.525V143.247C203.026 142.865 202.854 142.709 202.581 142.709C202.308 142.709 202.144 142.865 202.144 143.247V145.525C202.144 145.899 202.3 146.063 202.581 146.063C202.862 146.063 203.026 145.899 203.026 145.525Z" fill="#263238"/>
<path d="M206.068 144.027V140.634C206.068 140.247 206.222 139.876 206.495 139.603C206.769 139.329 207.14 139.175 207.526 139.175C207.913 139.175 208.284 139.329 208.558 139.603C208.831 139.876 208.985 140.247 208.985 140.634V141.305H208.049V140.572C208.049 140.158 207.846 139.987 207.55 139.987C207.253 139.987 207.058 140.158 207.058 140.572V144.097C207.058 144.511 207.253 144.674 207.55 144.674C207.846 144.674 208.049 144.511 208.049 144.097V143.13H208.985V144.027C208.985 144.414 208.831 144.785 208.558 145.058C208.284 145.332 207.913 145.486 207.526 145.486C207.14 145.486 206.769 145.332 206.495 145.058C206.222 144.785 206.068 144.414 206.068 144.027Z" fill="#263238"/>
<path d="M209.523 143.988V140.673C209.523 140.274 209.682 139.891 209.964 139.609C210.247 139.326 210.63 139.168 211.029 139.168C211.428 139.168 211.811 139.326 212.093 139.609C212.376 139.891 212.534 140.274 212.534 140.673V143.988C212.534 144.387 212.376 144.77 212.093 145.052C211.811 145.335 211.428 145.493 211.029 145.493C210.63 145.493 210.247 145.335 209.964 145.052C209.682 144.77 209.523 144.387 209.523 143.988ZM211.544 144.05V140.611C211.544 140.158 211.349 139.987 211.029 139.987C210.709 139.987 210.514 140.158 210.514 140.611V144.05C210.514 144.503 210.717 144.674 211.029 144.674C211.341 144.674 211.544 144.503 211.544 144.05Z" fill="#263238"/>
<path d="M213.197 139.175H214.617L215.249 143.692L215.88 139.175H217.292V145.486H216.356V140.712L215.631 145.486H214.804L214.086 140.712V145.486H213.221L213.197 139.175Z" fill="#263238"/>
<path d="M218.049 139.175H219.507C220.498 139.175 220.982 139.729 220.982 140.735V141.359C220.982 142.366 220.498 142.919 219.507 142.919H219.039V145.486H218.049V139.175ZM219.507 142.015C219.819 142.015 219.991 141.874 219.991 141.422V140.642C219.991 140.189 219.819 140.049 219.507 140.049H219.039V141.983L219.507 142.015Z" fill="#263238"/>
<path d="M221.52 139.175H222.511V144.581H224.141V145.486H221.52V139.175Z" fill="#263238"/>
<path d="M224.64 139.175H227.338V140.08H225.63V141.742H226.98V142.646H225.622V144.581H227.331V145.486H224.64V139.175Z" fill="#263238"/>
<path d="M228.665 140.08H227.635V139.175H230.693V140.08H229.655V145.486H228.665V140.08Z" fill="#263238"/>
<path d="M231.176 139.175H233.875V140.08H232.167V141.742H233.524V142.646H232.167V144.581H233.875V145.486H231.176V139.175Z" fill="#263238"/>
<path d="M234.444 139.175H235.958C236.948 139.175 237.432 139.729 237.432 140.735V143.926C237.432 144.932 236.948 145.486 235.958 145.486H234.444V139.175ZM235.934 144.581C236.254 144.581 236.441 144.417 236.441 143.972V140.689C236.441 140.244 236.254 140.08 235.934 140.08H235.435V144.581H235.934Z" fill="#263238"/>
<path d="M241.784 241.652H149.861C146.906 241.652 144.51 244.048 144.51 247.003V266.737C144.51 269.692 146.906 272.087 149.861 272.087H241.784C244.739 272.087 247.135 269.692 247.135 266.737V247.003C247.135 244.048 244.739 241.652 241.784 241.652Z" fill="#263238" stroke="#263238" stroke-linecap="round" stroke-linejoin="round"/>
<path d="M240.146 240.014H148.223C145.268 240.014 142.873 242.41 142.873 245.365V265.099C142.873 268.054 145.268 270.45 148.223 270.45H240.146C243.102 270.45 245.497 268.054 245.497 265.099V245.365C245.497 242.41 243.102 240.014 240.146 240.014Z" fill="white" stroke="#263238" stroke-linecap="round" stroke-linejoin="round"/>
<path d="M216.434 256.737H174.61C174.143 256.737 173.695 256.923 173.364 257.253C173.033 257.584 172.848 258.032 172.848 258.5C172.848 258.967 173.033 259.416 173.364 259.746C173.695 260.077 174.143 260.263 174.61 260.263H216.434V256.737Z" fill="white"/>
<path d="M174.61 260.263C174.143 260.263 173.695 260.077 173.364 259.746C173.033 259.416 172.848 258.967 172.848 258.5C172.848 258.032 173.033 257.584 173.364 257.253C173.695 256.923 174.143 256.737 174.61 256.737H234.514C234.746 256.737 234.975 256.783 235.189 256.871C235.403 256.96 235.597 257.09 235.761 257.253C235.925 257.417 236.054 257.611 236.143 257.825C236.232 258.039 236.277 258.268 236.277 258.5C236.277 258.731 236.232 258.961 236.143 259.174C236.054 259.388 235.925 259.583 235.761 259.746C235.597 259.91 235.403 260.04 235.189 260.128C234.975 260.217 234.746 260.263 234.514 260.263H174.61Z" stroke="#263238" stroke-linecap="round" stroke-linejoin="round"/>
<path d="M165.594 263.78H152.077V246.683H161.086L165.594 251.183V263.78Z" fill="white"/>
<path opacity="0.5" d="M165.594 263.78H152.077V246.683H161.086L165.594 251.183V263.78Z" fill="white"/>
<path d="M165.594 263.78H152.077V246.683H161.086L165.594 251.183V263.78Z" stroke="#263238" stroke-linecap="round" stroke-linejoin="round"/>
<path d="M155.08 255.754C154.867 255.734 154.67 255.635 154.526 255.477C154.383 255.319 154.303 255.114 154.303 254.9C154.303 254.687 154.383 254.481 154.526 254.323C154.67 254.165 154.867 254.066 155.08 254.046H162.591C162.803 254.066 163.001 254.165 163.144 254.323C163.288 254.481 163.367 254.687 163.367 254.9C163.367 255.114 163.288 255.319 163.144 255.477C163.001 255.635 162.803 255.734 162.591 255.754H155.08Z" fill="#858585" stroke="#263238" stroke-width="0.75" stroke-linecap="round" stroke-linejoin="round"/>
<path d="M155.079 259.342C154.854 259.342 154.637 259.253 154.478 259.093C154.319 258.934 154.229 258.718 154.229 258.492C154.229 258.267 154.319 258.05 154.478 257.891C154.637 257.731 154.854 257.642 155.079 257.642H160.953C161.178 257.642 161.394 257.731 161.554 257.891C161.713 258.05 161.803 258.267 161.803 258.492C161.803 258.718 161.713 258.934 161.554 259.093C161.394 259.253 161.178 259.342 160.953 259.342H155.079Z" fill="#858585" stroke="#263238" stroke-width="0.75" stroke-linecap="round" stroke-linejoin="round"/>
<path d="M161.085 251.183H165.594L161.085 246.683V251.183Z" fill="white" stroke="#263238" stroke-linecap="round" stroke-linejoin="round"/>
<path d="M200.616 247.689H198.611V246.792H201.583V247.658L200.023 253.118H199.009L200.616 247.689Z" fill="#263238"/>
<path d="M202.207 251.605V248.29C202.207 247.89 202.366 247.508 202.648 247.225C202.93 246.943 203.313 246.784 203.712 246.784C204.112 246.784 204.495 246.943 204.777 247.225C205.059 247.508 205.218 247.89 205.218 248.29V251.605C205.218 252.004 205.059 252.387 204.777 252.669C204.495 252.951 204.112 253.11 203.712 253.11C203.313 253.11 202.93 252.951 202.648 252.669C202.366 252.387 202.207 252.004 202.207 251.605ZM204.227 251.667V248.227C204.227 247.775 204.024 247.603 203.712 247.603C203.4 247.603 203.198 247.775 203.198 248.227V251.667C203.198 252.119 203.4 252.283 203.712 252.283C204.024 252.283 204.227 252.119 204.227 251.667Z" fill="#263238"/>
<path d="M205.826 249.288V247.728C205.814 247.595 205.83 247.462 205.873 247.335C205.915 247.209 205.983 247.093 206.073 246.995C206.163 246.896 206.273 246.818 206.395 246.764C206.517 246.71 206.648 246.682 206.782 246.682C206.915 246.682 207.047 246.71 207.169 246.764C207.291 246.818 207.4 246.896 207.49 246.995C207.58 247.093 207.648 247.209 207.691 247.335C207.733 247.462 207.749 247.595 207.737 247.728V249.288C207.749 249.421 207.733 249.555 207.691 249.681C207.648 249.807 207.58 249.923 207.49 250.022C207.4 250.12 207.291 250.199 207.169 250.252C207.047 250.306 206.915 250.334 206.782 250.334C206.648 250.334 206.517 250.306 206.395 250.252C206.273 250.199 206.163 250.12 206.073 250.022C205.983 249.923 205.915 249.807 205.873 249.681C205.83 249.555 205.814 249.421 205.826 249.288ZM207.105 249.335V247.666C207.105 247.385 206.981 247.268 206.786 247.268C206.591 247.268 206.458 247.385 206.458 247.666V249.335C206.458 249.608 206.575 249.725 206.786 249.725C206.996 249.725 207.105 249.6 207.105 249.335ZM209.04 246.792H209.672L207.23 253.094H206.598L209.04 246.792ZM208.564 252.182V250.622C208.552 250.489 208.568 250.355 208.61 250.229C208.653 250.103 208.721 249.987 208.811 249.888C208.901 249.79 209.01 249.711 209.132 249.658C209.254 249.604 209.386 249.576 209.519 249.576C209.653 249.576 209.785 249.604 209.906 249.658C210.028 249.711 210.138 249.79 210.228 249.888C210.318 249.987 210.386 250.103 210.429 250.229C210.471 250.355 210.487 250.489 210.475 250.622V252.182C210.487 252.315 210.471 252.448 210.429 252.575C210.386 252.701 210.318 252.817 210.228 252.915C210.138 253.014 210.028 253.092 209.906 253.146C209.785 253.2 209.653 253.228 209.519 253.228C209.386 253.228 209.254 253.2 209.132 253.146C209.01 253.092 208.901 253.014 208.811 252.915C208.721 252.817 208.653 252.701 208.61 252.575C208.568 252.448 208.552 252.315 208.564 252.182ZM209.843 252.221V250.559C209.843 250.279 209.718 250.162 209.516 250.162C209.313 250.162 209.196 250.279 209.196 250.559V252.221C209.196 252.502 209.313 252.619 209.516 252.619C209.718 252.619 209.874 252.502 209.874 252.221H209.843Z" fill="#263238"/>
<path d="M92.3833 85.9561L112.968 70.0441L133.552 85.9561H92.3833Z" fill="#263238" stroke="#263238" stroke-linecap="round" stroke-linejoin="round"/>
<path d="M118.349 68.796H107.585V78H118.349V68.796Z" fill="#263238" stroke="#263238" stroke-linecap="round" stroke-linejoin="round"/>
<path d="M112.967 45.9265V78.0001" stroke="#263238" stroke-width="0.75" stroke-linecap="round" stroke-linejoin="round"/>
<path d="M256.44 85.9561L277.032 70.0441L297.617 85.9561H256.44Z" fill="#263238" stroke="#263238" stroke-linecap="round" stroke-linejoin="round"/>
<path d="M282.415 68.796H271.651V78H282.415V68.796Z" fill="#263238" stroke="#263238" stroke-linecap="round" stroke-linejoin="round"/>
<path d="M277.033 44.3665V78.0001" stroke="#263238" stroke-width="0.75" stroke-linecap="round" stroke-linejoin="round"/>
<path d="M285.067 334.3L284.63 347.17L291.291 347.49L293.717 334.3H285.067Z" fill="white" stroke="#263238" stroke-linecap="round" stroke-linejoin="round"/>
<path d="M272.033 351.117C274.279 350.337 278.163 349.011 279.622 348.098C280.792 347.365 282.422 344.978 283.631 344.308C283.885 344.198 284.158 344.141 284.435 344.141C284.711 344.141 284.984 344.198 285.238 344.308C285.434 344.526 285.562 344.797 285.605 345.088C285.638 345.213 285.708 345.327 285.805 345.413C285.903 345.5 286.023 345.556 286.152 345.574C286.281 345.592 286.413 345.572 286.53 345.516C286.648 345.46 286.746 345.371 286.814 345.259C287 344.893 287.267 344.573 287.594 344.323C288.623 343.746 291.408 343.582 292.32 344.323C293.834 345.563 294.38 349.838 294.66 351.764C294.731 352.186 294.66 354.526 294.66 354.526H270.356V353.457C270.352 352.94 270.513 352.435 270.814 352.015C271.115 351.594 271.542 351.28 272.033 351.117Z" fill="white" stroke="#263238" stroke-linecap="round" stroke-linejoin="round"/>
<path d="M294.676 354.51H270.355V353.441C270.355 353.176 270.4 352.912 270.488 352.661H294.707C294.707 353.48 294.676 354.51 294.676 354.51Z" fill="#858585" stroke="#263238" stroke-linecap="round" stroke-linejoin="round"/>
<path d="M289.271 234.523L284.162 339.199L293.522 340.759C293.522 340.759 299.418 310.463 300.136 300.542C300.308 298.202 300.136 291.143 300.136 291.143L306.758 258.547C306.758 258.547 311.118 254.522 311.625 235.357L289.271 234.523Z" fill="#263238" stroke="#263238" stroke-linecap="round" stroke-linejoin="round"/>
<path opacity="0.7" d="M303.124 275.036C303.482 273.523 303.904 272.033 304.411 270.551C304.489 270.34 304.582 270.145 304.676 269.95C304.908 267.735 305.265 265.534 305.744 263.359C305.91 262.547 306.347 261.815 306.985 261.284C307.167 260.873 307.438 260.508 307.78 260.215C308.121 259.922 308.524 259.709 308.958 259.592C308.671 257.578 308.233 255.588 307.648 253.64C307.055 251.597 306.088 249.639 305.799 247.525C305.721 246.979 305.409 246.41 305.51 246.347C304.84 246.086 304.184 245.789 303.545 245.458L303.428 245.365C302.83 255.244 302.728 265.147 303.124 275.036Z" fill="black"/>
<path d="M288.826 294.395C290.483 294.012 292.004 293.184 293.225 292.001" stroke="#7F7F7F" stroke-width="0.75" stroke-linecap="round" stroke-linejoin="round"/>
<path d="M282.929 341.188L294.247 342.116L295.089 338.45L282.929 337.498V341.188Z" fill="white" stroke="#263238" stroke-linecap="round" stroke-linejoin="round"/>
<path d="M315.611 332.717L318.022 347.763L324.184 347.279L323.981 331.874L315.611 332.717Z" fill="white" stroke="#263238" stroke-linecap="round" stroke-linejoin="round"/>
<path d="M305.292 351.117C307.546 350.337 311.43 349.011 312.881 348.098C314.051 347.365 315.689 344.978 316.89 344.308C317.145 344.198 317.42 344.141 317.698 344.141C317.975 344.141 318.25 344.198 318.505 344.308C318.646 344.453 318.746 344.633 318.794 344.83C318.835 344.979 318.921 345.113 319.039 345.213C319.157 345.314 319.302 345.377 319.456 345.394C319.61 345.412 319.766 345.383 319.903 345.312C320.041 345.241 320.154 345.13 320.229 344.994C320.388 344.725 320.6 344.491 320.853 344.308C321.882 343.73 324.667 343.567 325.58 344.308C327.093 345.548 327.639 349.822 327.92 351.749C327.982 352.17 327.92 354.51 327.92 354.51H303.623V353.441C303.622 352.928 303.783 352.427 304.082 352.01C304.382 351.593 304.805 351.281 305.292 351.117Z" fill="white" stroke="#263238" stroke-linecap="round" stroke-linejoin="round"/>
<path d="M327.943 354.51H303.623V353.441C303.62 353.176 303.662 352.912 303.748 352.661H327.967C327.967 353.48 327.943 354.51 327.943 354.51Z" fill="#858585" stroke="#263238" stroke-linecap="round" stroke-linejoin="round"/>
<path d="M302.297 237.682C302.297 237.682 304.637 251.23 306.79 262.595C308.256 270.301 308.35 293.069 308.35 293.069L315.822 340.08L325.034 338.84C325.034 338.84 325.143 309.902 324.106 300.62C323.872 298.553 323.489 292.414 323.489 292.414C323.489 292.414 323.84 267.86 325.736 259.654C327.093 253.804 329.792 247.658 326.516 235.669L302.297 237.682Z" fill="#263238" stroke="#263238" stroke-linecap="round" stroke-linejoin="round"/>
<path d="M310.37 294.395C311.307 295.692 312.7 296.587 314.27 296.899" stroke="#7F7F7F" stroke-width="0.75" stroke-linecap="round" stroke-linejoin="round"/>
<path d="M314.277 337.966L314.808 341.414L326.227 340.189L326.149 336.476L314.277 337.966Z" fill="white" stroke="#263238" stroke-linecap="round" stroke-linejoin="round"/>
<path d="M258.827 175.009L256.308 170.773C256.308 170.773 255.7 163.855 254.296 162.505C252.892 161.156 249.772 157.186 249.327 157.966C248.625 159.214 251.222 161.437 251.222 161.437L251.698 164.011C251.698 164.011 247.494 160.984 246.308 160.984C246.308 160.984 242.954 157.014 241.769 157.006C240.583 156.998 242.252 159.752 242.252 159.752C242.252 159.752 241.121 158.886 240.903 159.424C240.685 159.962 242.362 161.803 242.362 161.803C242.362 161.803 241.714 162.505 242.689 164.011C242.554 164.497 242.556 165.011 242.693 165.497C242.831 165.982 243.099 166.421 243.469 166.764C244.764 167.794 251.722 171.733 251.722 171.733L254.062 177.239L258.827 175.009Z" fill="#858585" stroke="#263238" stroke-linecap="round" stroke-linejoin="round"/>
<path d="M243.282 161.912C243.282 161.912 244.202 162.287 243.82 163.636C244.187 164.158 244.393 164.777 244.413 165.415C244.506 166.6 250.512 166.015 252.135 168.535" stroke="#263238" stroke-width="0.75" stroke-linecap="round" stroke-linejoin="round"/>
<path d="M243.282 160.454L245.731 163.043" stroke="#263238" stroke-width="0.75" stroke-linecap="round" stroke-linejoin="round"/>
<path d="M284.832 173.94L268.757 186.467L257.743 171.46L252.135 174.268C252.135 174.268 260.949 198.619 267.618 198.619C274.708 198.619 288.186 187.231 288.186 187.231C288.186 187.231 289.037 185.055 284.832 173.94Z" fill="white" stroke="#263238" stroke-linecap="round" stroke-linejoin="round"/>
<path d="M269.365 187.66C269.741 188.459 270.021 189.299 270.2 190.164" stroke="#263238" stroke-width="0.75" stroke-linecap="round" stroke-linejoin="round"/>
<path d="M284.833 173.94L288.257 219.266V238.095C288.257 238.095 307.983 240.435 327.444 237.596L326.773 218.213L328.746 175.009C328.746 175.009 319.714 168.48 305.846 168.48C291.977 168.48 284.833 173.94 284.833 173.94Z" fill="white" stroke="#263238" stroke-linecap="round" stroke-linejoin="round"/>
<path opacity="0.2" d="M327.444 237.596L326.82 220.225C326.485 228.595 317.249 225.451 315.159 225.061C312.92 224.64 310.346 232.019 310.346 232.019C310.346 232.019 301.766 233.493 295.051 232.97C288.335 232.448 288.233 226.317 288.233 226.317V238.095C288.233 238.095 307.983 240.466 327.444 237.596Z" fill="black"/>
<path d="M297.5 218.829C305.772 217.939 313.71 215.08 320.65 210.491L297.5 218.829Z" fill="white"/>
<path d="M297.5 218.829C305.772 217.939 313.71 215.08 320.65 210.491" stroke="#263238" stroke-width="0.75" stroke-linecap="round" stroke-linejoin="round"/>
<path d="M294.06 219.063C294.06 219.063 294.723 219.063 295.893 218.977L294.06 219.063Z" fill="white"/>
<path d="M294.06 219.063C294.06 219.063 294.723 219.063 295.893 218.977" stroke="#263238" stroke-width="0.75" stroke-linecap="round" stroke-linejoin="round"/>
<path d="M300.737 176.124L297.32 174.884L294.06 178.035L296.447 168.285L299.325 166.023L300.791 166.951L307.343 166.702L312.437 167.115L314.863 166.366L317.452 168.956L311.688 179.977L309.27 175.804L303.935 176.467L300.737 176.124Z" fill="white"/>
<path opacity="0.5" d="M300.737 176.124L297.32 174.884L294.06 178.035L296.447 168.285L299.325 166.023L300.791 166.951L307.343 166.702L312.437 167.115L314.863 166.366L317.452 168.956L311.688 179.977L309.27 175.804L303.935 176.467L300.737 176.124Z" fill="white"/>
<path d="M300.737 176.124L297.32 174.884L294.06 178.035L296.447 168.285L299.325 166.023L300.791 166.951L307.343 166.702L312.437 167.115L314.863 166.366L317.452 168.956L311.688 179.977L309.27 175.804L303.935 176.467L300.737 176.124Z" stroke="#263238" stroke-linecap="round" stroke-linejoin="round"/>
<path d="M312.086 168.925L311.306 157.006L303.771 158.34L302.211 163.94L300.651 168.792L299.91 168.87L301.962 180.008L312.835 169.088L312.086 168.925Z" fill="#858585"/>
<path d="M293.561 157.833C293.561 160.859 294.029 167.63 298.186 168.418C302.492 169.237 307.429 164.338 309.2 162.38C309.643 161.894 309.99 161.327 310.221 160.711L311.165 158.207C311.782 158.255 312.399 158.125 312.944 157.833H293.561Z" fill="#263238" stroke="#263238" stroke-width="0.5" stroke-linecap="round" stroke-linejoin="round"/>
<path d="M312.086 168.925L311.306 157.006L303.771 158.34L302.211 163.94L300.651 168.792L299.91 168.87L301.962 180.008L312.835 169.088L312.086 168.925Z" stroke="#263238" stroke-linecap="round" stroke-linejoin="round"/>
<path d="M298.584 142.529C298.584 142.529 295.019 139.815 296.767 137.678C297.679 136.57 298.865 138.029 298.865 138.029C298.865 138.029 298.233 134.628 300.768 134.129C303.108 133.692 303.014 136.375 303.014 136.375C303.014 136.375 304.223 134.074 306.337 134.589C308.022 134.995 307.375 137.381 307.375 137.381C307.375 137.381 309.621 134.589 311.945 135.821C313.95 136.874 312.296 139.402 312.296 139.402C312.296 139.402 314.683 138.559 316.017 139.901C317.351 141.242 316.017 143.021 316.017 143.021C316.017 143.021 318.646 143.021 318.763 144.986C318.88 146.952 316.727 147.326 316.727 147.326C316.727 147.326 319.769 148.309 319.792 150.696C319.816 153.083 317.78 152.318 317.78 152.318C317.78 152.318 319.043 154.565 317.99 155.758C317.872 155.918 317.718 156.048 317.541 156.137C317.363 156.226 317.167 156.273 316.969 156.273C316.77 156.273 316.574 156.226 316.397 156.137C316.219 156.048 316.065 155.918 315.947 155.758C315.947 155.758 317.265 158.59 315.596 159.416C314.402 160.001 313.7 158.566 313.7 158.566C313.7 158.566 312.694 161.015 311.477 159.518C310.261 158.02 304.223 146.484 304.223 146.484L298.584 142.529Z" fill="#263238" stroke="#263238" stroke-width="0.75" stroke-linecap="round" stroke-linejoin="round"/>
<path d="M297.554 142.639L295.308 147.319C295.078 147.806 294.958 148.339 294.957 148.879V150.345L293.717 153.465C293.653 153.628 293.601 153.794 293.561 153.964C293.163 155.626 291.268 164.549 295.901 166.366C299.988 167.973 305.744 164.096 307.858 162.505C308.385 162.108 308.83 161.613 309.169 161.047L310.573 158.769C311.169 158.947 311.806 158.932 312.393 158.726C312.98 158.52 313.487 158.134 313.841 157.622C315.097 155.821 316.547 154.846 314.824 153.223C313.1 151.601 311.509 154.198 311.509 154.198L311.743 149.62L309.746 146.11L309.644 143.902C309.644 143.902 303.108 143.177 298.724 140.782L297.554 142.639Z" fill="white" stroke="#263238" stroke-width="0.75" stroke-linecap="round" stroke-linejoin="round"/>
<path d="M297.554 142.639L295.308 147.319C295.078 147.806 294.958 148.339 294.957 148.879V150.345L293.717 153.465C293.653 153.628 293.601 153.794 293.561 153.964C293.163 155.626 291.268 164.549 295.901 166.366C299.988 167.973 305.744 164.096 307.858 162.505C308.385 162.108 308.83 161.613 309.169 161.047L310.573 158.769C311.169 158.947 311.806 158.932 312.393 158.726C312.98 158.52 313.487 158.134 313.841 157.622C315.097 155.821 316.547 154.846 314.824 153.223C313.1 151.601 311.509 154.198 311.509 154.198L311.743 149.62L309.746 146.11L309.644 143.902C309.644 143.902 303.108 143.177 298.724 140.782L297.554 142.639Z" fill="#858585" stroke="#263238" stroke-linecap="round" stroke-linejoin="round"/>
<path d="M301.532 158.621C300.268 161.062 298.552 160.657 297.476 160.048" stroke="#263238" stroke-width="0.75" stroke-linecap="round" stroke-linejoin="round"/>
<path d="M301.555 153.075C301.384 153.629 301.033 154.011 300.776 153.933C300.518 153.855 300.432 153.332 300.604 152.779C300.776 152.225 301.127 151.835 301.384 151.921C301.641 152.006 301.727 152.521 301.555 153.075Z" fill="#263238"/>
<path d="M296.345 151.46C296.173 152.022 295.822 152.404 295.565 152.318C295.308 152.233 295.222 151.718 295.393 151.164C295.565 150.61 295.924 150.228 296.173 150.314C296.423 150.4 296.517 150.907 296.345 151.46Z" fill="#263238"/>
<path d="M295.971 147.857C296.177 147.799 296.394 147.784 296.606 147.814C296.819 147.843 297.023 147.916 297.206 148.028C297.389 148.14 297.547 148.289 297.67 148.465C297.793 148.641 297.878 148.84 297.921 149.05" stroke="#263238" stroke-width="0.75" stroke-linecap="round" stroke-linejoin="round"/>
<path d="M300.456 149.986C300.456 149.986 302.273 148.075 303.498 150.103" stroke="#263238" stroke-width="0.75" stroke-linecap="round" stroke-linejoin="round"/>
<path d="M297.96 151.952C297.796 152.697 297.446 153.388 296.941 153.96C296.436 154.532 295.793 154.966 295.074 155.22L296.493 157.474" stroke="#263238" stroke-width="0.75" stroke-linecap="round" stroke-linejoin="round"/>
<path d="M307.016 241.379L306.618 243.789C306.561 244.187 306.659 244.592 306.893 244.919C307.127 245.246 307.479 245.47 307.874 245.544L332.888 249.647C333.286 249.704 333.691 249.605 334.018 249.371C334.345 249.137 334.569 248.786 334.643 248.391L335.033 245.981L307.016 241.379Z" fill="white" stroke="#263238" stroke-width="0.75" stroke-linecap="round" stroke-linejoin="round"/>
<path d="M336.154 230.793L310.854 226.641C310.101 226.518 309.391 227.027 309.268 227.78L306.76 243.058C306.637 243.811 307.147 244.521 307.899 244.644L333.199 248.797C333.952 248.92 334.662 248.41 334.785 247.658L337.293 232.379C337.416 231.627 336.906 230.917 336.154 230.793Z" fill="white"/>
<path opacity="0.5" d="M336.154 230.793L310.854 226.641C310.101 226.518 309.391 227.027 309.268 227.78L306.76 243.058C306.637 243.811 307.147 244.521 307.899 244.644L333.199 248.797C333.952 248.92 334.662 248.41 334.785 247.658L337.293 232.379C337.416 231.627 336.906 230.917 336.154 230.793Z" fill="white"/>
<path d="M336.154 230.793L310.854 226.641C310.101 226.518 309.391 227.027 309.268 227.78L306.76 243.058C306.637 243.811 307.147 244.521 307.899 244.644L333.199 248.797C333.952 248.92 334.662 248.41 334.785 247.658L337.293 232.379C337.416 231.627 336.906 230.917 336.154 230.793Z" stroke="#263238" stroke-linecap="round" stroke-linejoin="round"/>
<path d="M326.391 233.641L325.01 238.321L320.33 241.667C319.668 243.716 318.887 245.724 317.99 247.681C317.931 247.79 317.9 247.913 317.9 248.037C317.901 248.161 317.933 248.283 317.994 248.392C318.055 248.5 318.142 248.591 318.248 248.657C318.354 248.722 318.475 248.759 318.599 248.765C319.246 248.765 320.003 248.461 320.416 247.205C320.416 247.205 320.596 249.67 322.117 248.165C322.117 248.165 323.045 250.552 324.495 248.672C324.495 248.672 327.857 249.171 328.395 246.745C328.934 244.319 329.729 240.045 329.729 240.045L331.866 235.03L326.391 233.641Z" fill="#858585" stroke="#263238" stroke-linecap="round" stroke-linejoin="round"/>
<path d="M320.385 246.246L320.915 242.635" stroke="#263238" stroke-width="0.75" stroke-linecap="round" stroke-linejoin="round"/>
<path d="M321.22 246.48C321.22 246.48 321.586 247.673 322.413 247.478C323.24 247.283 324.418 248.204 326.992 247.12" stroke="#263238" stroke-width="0.75" stroke-linecap="round" stroke-linejoin="round"/>
<path d="M328.746 175.009C328.746 175.009 340.446 207.519 340.228 212.269C340.01 217.019 331.687 237.682 331.687 237.682L325.26 235.638L329.55 211.403L325.704 194.563C325.704 194.563 324.831 182.216 328.746 175.009Z" fill="white" stroke="#263238" stroke-linecap="round" stroke-linejoin="round"/>
<path d="M330.993 210.865C331.424 210.535 331.924 210.305 332.456 210.193C332.988 210.081 333.538 210.09 334.066 210.218" stroke="#263238" stroke-width="0.75" stroke-linecap="round" stroke-linejoin="round"/>
<path d="M323.388 236.153C323.155 235.844 322.981 235.495 322.873 235.123C322.423 235.114 321.987 235.277 321.652 235.577C321.317 235.877 321.108 236.293 321.068 236.741C321.027 237.189 321.158 237.636 321.434 237.991C321.709 238.347 322.109 238.584 322.553 238.656C323.02 238.733 323.498 238.622 323.882 238.347C324.267 238.072 324.527 237.656 324.605 237.19C324.103 236.977 323.678 236.615 323.388 236.153Z" fill="white"/>
<path d="M95.1132 167.536L96.5328 174.533L80.7612 175.196L83.499 155.805L94.1226 157.037L95.1132 167.536Z" fill="white"/>
<path d="M102.18 156.92L88.9902 160.82C89.1548 162.332 89.4684 163.824 89.9262 165.274C90.7062 167.521 95.4564 171.514 98.5062 171.467C101.556 171.421 101.899 161.702 101.899 161.702L103.74 160.68C103.845 160.62 103.937 160.538 104.008 160.44C104.08 160.342 104.13 160.23 104.155 160.112C104.18 159.993 104.18 159.87 104.154 159.752C104.128 159.633 104.077 159.522 104.005 159.424L102.18 156.92Z" fill="#263238" stroke="#263238" stroke-width="0.75" stroke-linecap="round" stroke-linejoin="round"/>
<path d="M95.1132 167.536L96.5328 174.533L80.7612 175.196L83.499 155.805L94.1226 157.037L95.1132 167.536Z" stroke="#263238" stroke-linecap="round" stroke-linejoin="round"/>
<path d="M95.8387 142.888C95.8387 142.888 99.6685 143.668 99.2785 139.511C98.8885 135.353 91.7515 137.896 88.0309 138.364C84.3103 138.832 72.2983 143.317 76.5493 150.4C76.5493 150.4 74.0455 154.393 83.0623 161.093C83.0623 161.093 87.3445 159.081 89.6923 162.022L91.5253 158.449L96.2053 150.228L95.8387 142.888Z" fill="#263238" stroke="#263238" stroke-linecap="round" stroke-linejoin="round"/>
<path d="M95.5576 142.264C95.5576 142.264 99.2236 144.308 101.33 141.749C101.33 141.749 101.564 147.209 95.5576 142.264Z" fill="#263238" stroke="#263238" stroke-linecap="round" stroke-linejoin="round"/>
<path d="M95.9397 141.695C95.9397 141.695 101.4 147.443 101.213 151.382V154.978L104.099 158.223C104.179 158.306 104.24 158.406 104.278 158.516C104.315 158.625 104.327 158.742 104.314 158.857C104.3 158.972 104.261 159.083 104.2 159.181C104.138 159.279 104.056 159.362 103.958 159.424L102.281 160.586C102.281 160.586 102.773 169.79 99.8865 170.118C97.0005 170.446 92.1957 166.998 91.2363 164.97C90.5137 163.109 89.9908 161.177 89.6763 159.206C88.8363 158.978 88.0836 158.505 87.5151 157.846C86.9465 157.187 86.5882 156.373 86.4861 155.509C86.1507 152.482 89.2005 152.568 89.9883 154.549L90.6279 156.164L92.6091 156.094C92.6091 156.094 91.4781 153.239 92.1489 152.396C92.8197 151.554 95.4561 149.503 94.2471 147.545C93.0381 145.587 93.4437 142.256 95.9397 141.695Z" fill="white" stroke="#263238" stroke-linecap="round" stroke-linejoin="round"/>
<path d="M99.0601 162.388C99.2872 162.791 99.6353 163.113 100.055 163.308C100.475 163.502 100.946 163.56 101.4 163.472" stroke="#263238" stroke-width="0.75" stroke-linecap="round" stroke-linejoin="round"/>
<path d="M97.6245 151.406C97.6245 151.406 98.8647 149.682 100.043 151.258" stroke="#263238" stroke-linecap="round" stroke-linejoin="round"/>
<path d="M99.5826 155.002C99.5826 155.54 99.372 155.984 99.0834 155.992C98.7948 156 98.5452 155.571 98.5296 155.033C98.514 154.495 98.7402 154.05 99.0288 154.042C99.3174 154.034 99.567 154.44 99.5826 155.002Z" fill="#263238"/>
<path d="M74.5676 327.787L72.29 347.389L79.0682 348.434L82.8044 329.059L74.5676 327.787Z" fill="white" stroke="#263238" stroke-linecap="round" stroke-linejoin="round"/>
<path d="M71.3774 241.176C71.3774 241.176 71.6504 252.533 75.6596 260.52L76.5722 290.659L71.9468 339.222L82.235 340.205L91.595 289.411L94.715 243.391L71.3774 241.176Z" fill="white" stroke="#263238" stroke-linecap="round" stroke-linejoin="round"/>
<path opacity="0.2" d="M93.2643 265.52L92.4063 260.114L88.5063 243.103L87.7887 242.736L71.4087 241.176C71.4087 241.176 71.4087 243.04 71.7753 245.794L79.8639 250.38C80.0547 253.26 80.7051 256.091 81.7905 258.765C81.8877 258.999 81.9232 259.253 81.8936 259.504C81.8639 259.755 81.7702 259.995 81.6214 260.199C81.4725 260.404 81.2736 260.566 81.0436 260.672C80.8137 260.777 80.5606 260.822 80.3085 260.801C79.4739 260.738 78.7485 260.801 78.7485 261.347C78.7485 262.61 84.8481 266.69 84.8481 266.69C84.8481 266.69 91.0023 286.58 90.7839 293.927L91.6185 289.403L93.2643 265.52Z" fill="black"/>
<path d="M95.2534 329.074L95.9944 348.793H102.851L103.584 329.074H95.2534Z" fill="white" stroke="#263238" stroke-linecap="round" stroke-linejoin="round"/>
<path d="M113.771 351.569C111.507 350.88 109.305 350.003 107.187 348.949C106.173 348.317 104.754 346.25 103.709 345.665C103.489 345.57 103.253 345.522 103.014 345.522C102.776 345.522 102.54 345.57 102.32 345.665C101.821 346.071 101.798 348.184 101.798 348.184C101.798 348.184 100.916 346.032 100.277 345.665C99.3875 345.166 96.9695 345.018 96.1817 345.665C94.8713 346.734 94.3955 350.446 94.1381 352.115C94.0757 352.482 94.1381 354.51 94.1381 354.51H115.198V353.582C115.2 353.139 115.063 352.708 114.807 352.347C114.551 351.986 114.189 351.714 113.771 351.569Z" fill="#263238" stroke="#263238" stroke-linecap="round" stroke-linejoin="round"/>
<path d="M109.598 242.112L107.913 287.672L105.097 339.69H94.38C94.38 339.69 92.1336 299.762 92.6952 288.21L87.0714 261.495C87.0714 261.495 81.1668 253.617 82.5708 244.062L109.598 242.112Z" fill="white" stroke="#263238" stroke-linecap="round" stroke-linejoin="round"/>
<path d="M93.4282 335.821L93.7792 342.077H105.518L106.431 335.821H93.4282Z" fill="white" stroke="#263238" stroke-linecap="round" stroke-linejoin="round"/>
<path d="M71.089 335.283L70.8472 341.539L82.5316 342.654L84.037 336.515L71.089 335.283Z" fill="white" stroke="#263238" stroke-linecap="round" stroke-linejoin="round"/>
<path d="M127.366 212.121L111.15 201.809L128.24 184.72L144.464 195.031L127.366 212.121Z" fill="white" stroke="#263238" stroke-linecap="round" stroke-linejoin="round"/>
<path d="M128.294 208.595L115.252 200.304L128.996 186.56L142.038 194.852L128.294 208.595Z" fill="white" stroke="#263238" stroke-width="0.75" stroke-linecap="round" stroke-linejoin="round"/>
<path d="M129.246 194.36L131.523 192.083L128.598 190.226L126.321 192.496L129.246 194.36Z" stroke="#263238" stroke-width="0.75" stroke-linecap="round" stroke-linejoin="round"/>
<path d="M125.713 197.902L127.99 195.624L125.057 193.76L122.788 196.037L125.713 197.902Z" stroke="#263238" stroke-width="0.75" stroke-linecap="round" stroke-linejoin="round"/>
<path d="M122.054 201.56L124.324 199.282L121.399 197.418L119.122 199.696L122.054 201.56Z" stroke="#263238" stroke-width="0.75" stroke-linecap="round" stroke-linejoin="round"/>
<path d="M134.823 187.379L132.67 189.54C132.568 189.642 132.491 189.765 132.443 189.901C132.395 190.036 132.378 190.181 132.394 190.324C132.41 190.467 132.457 190.605 132.534 190.727C132.61 190.849 132.712 190.953 132.834 191.03L135.954 193.034C136.298 193.254 136.706 193.349 137.112 193.305C137.517 193.261 137.896 193.081 138.185 192.793L140.174 190.796L134.823 187.379Z" fill="#858585" stroke="#263238" stroke-linecap="round" stroke-linejoin="round"/>
<path d="M77.1187 174.065L79.9345 167.879C79.9345 167.879 96.2442 166.054 100.597 179.689L77.1187 174.065Z" fill="#858585" stroke="#263238" stroke-linecap="round" stroke-linejoin="round"/>
<path d="M67.8599 179.338C67.8599 179.338 63.8351 210.171 64.9037 221.099C65.7461 229.741 71.4401 237.058 71.4401 237.058L79.8797 233.75L75.5897 221.099C75.5897 221.099 76.9235 198.323 78.1871 193.019L67.8599 179.338Z" fill="#858585" stroke="#263238" stroke-linecap="round" stroke-linejoin="round"/>
<path d="M68.9985 235.544L71.3775 238.391L81.1275 234.593L79.8639 230.794L68.9985 235.544Z" fill="#858585" stroke="#263238" stroke-linecap="round" stroke-linejoin="round"/>
<path d="M67.8596 179.338C67.8596 179.338 66.5882 197.051 70.1996 209.5C73.811 221.949 70.1996 242.393 70.1996 242.393C70.1996 242.393 86.8214 253.149 112.32 244.92C112.32 244.92 109.161 184.392 104.941 181.022C100.721 177.653 76.9076 164.791 67.8596 179.338Z" fill="#858585" stroke="#263238" stroke-linecap="round" stroke-linejoin="round"/>
<path opacity="0.2" d="M112.32 244.92C112.32 244.92 111.236 224.172 109.496 206.294C105.807 197.34 99.7777 185.414 99.4579 202.16C98.9899 226.379 113.896 224.952 102.086 229.172C99.4459 230.172 96.6173 230.577 93.8021 230.359C90.987 230.14 88.2547 229.304 85.8001 227.908C85.6038 227.808 85.379 227.777 85.163 227.822C84.9471 227.867 84.7529 227.984 84.6127 228.154C84.4725 228.325 84.3947 228.538 84.3922 228.758C84.3897 228.979 84.4626 229.193 84.5989 229.367C87.5629 233.134 92.0635 235.482 95.5189 236.831C95.8309 236.951 96.0947 237.17 96.2691 237.455C96.4436 237.74 96.5189 238.074 96.4833 238.406C96.4476 238.738 96.3031 239.049 96.0722 239.291C95.8414 239.532 95.5371 239.69 95.2069 239.741C84.0841 241.387 75.3637 235.474 71.3623 232.034C70.8943 237.994 70.1221 242.393 70.1221 242.393C70.1221 242.393 86.8219 253.149 112.32 244.92Z" fill="black"/>
<path d="M104.957 181.03C106.477 181.728 107.797 182.799 108.792 184.144C109.788 185.488 110.427 187.063 110.651 188.721C111.493 194.524 116.891 212.347 116.891 212.347L118.685 211.185C120.182 211.858 121.416 213.006 122.195 214.452C122.973 215.897 123.253 217.559 122.99 219.18C122.99 219.18 118.607 227.76 113.817 226.145C108.896 224.476 106.142 220.451 103.677 213.868C102.375 210.358 98.6152 199.781 98.6152 199.781" fill="#858585"/>
<path d="M104.957 181.03C106.477 181.728 107.797 182.799 108.792 184.144C109.788 185.488 110.427 187.063 110.651 188.721C111.493 194.524 116.891 212.347 116.891 212.347L118.685 211.185C120.182 211.858 121.416 213.006 122.195 214.452C122.973 215.897 123.253 217.559 122.99 219.18C122.99 219.18 118.607 227.76 113.817 226.145C108.896 224.476 106.142 220.451 103.677 213.868C102.375 210.358 98.6152 199.781 98.6152 199.781" stroke="#263238" stroke-linecap="round" stroke-linejoin="round"/>
<path d="M119.043 217.511C119.072 217.969 119.051 218.43 118.981 218.884" stroke="#263238" stroke-width="0.75" stroke-linecap="round" stroke-linejoin="round"/>
<path d="M115.822 221.099C115.822 221.099 117.296 218.759 117.086 213.712C117.795 214.249 118.336 214.977 118.646 215.81" stroke="#263238" stroke-width="0.75" stroke-linecap="round" stroke-linejoin="round"/>
<path d="M119.862 210.694L125.486 206.684C125.767 205.438 126.379 204.29 127.258 203.362C128.136 202.434 129.249 201.76 130.478 201.412C130.478 201.412 133.076 197.122 134.55 197.621C136.024 198.12 132.795 199.867 132.514 202.114L133.707 203.713C133.707 203.713 137.607 203.026 138.559 201.763C138.559 201.763 138.348 204.438 136.804 204.883C136.804 204.883 136.804 206.918 135.751 206.848L128.013 209.032L123.513 217.433L119.862 210.694Z" fill="white" stroke="#263238" stroke-linecap="round" stroke-linejoin="round"/>
<path d="M96.8369 230.194C97.7261 230.112 98.6076 229.96 99.4733 229.741" stroke="#263238" stroke-width="0.75" stroke-linecap="round" stroke-linejoin="round"/>
<path d="M74.7314 217.409C74.7314 217.409 83.0228 230.092 95.0114 230.264" stroke="#263238" stroke-width="0.75" stroke-linecap="round" stroke-linejoin="round"/>
<path d="M117.437 210.834C117.437 210.834 123.302 215.264 122.741 220.607L124.854 216.559C124.854 216.559 124.784 213.151 119.933 209.539L117.437 210.834Z" fill="#858585" stroke="#263238" stroke-linecap="round" stroke-linejoin="round"/>
<path d="M94.1381 354.51H115.198V353.582C115.198 353.354 115.161 353.127 115.089 352.911H94.1069C94.1069 353.621 94.1381 354.51 94.1381 354.51Z" fill="white" stroke="#263238" stroke-width="0.75" stroke-linecap="round" stroke-linejoin="round"/>
<path d="M89.6999 351.569C87.4366 350.88 85.2346 350.003 83.1167 348.949C82.1027 348.317 80.6831 346.25 79.6457 345.665C79.4251 345.57 79.1876 345.521 78.9476 345.521C78.7076 345.521 78.4701 345.57 78.2495 345.665C77.7503 346.071 77.7269 348.184 77.7269 348.184C77.7269 348.184 76.8533 346.032 76.2059 345.665C75.3167 345.166 72.8987 345.018 72.1109 345.665C70.8005 346.734 70.3247 350.446 70.0673 352.115C70.0049 352.482 70.0673 354.51 70.0673 354.51H91.1273V353.582C91.1289 353.139 90.9921 352.708 90.7362 352.347C90.4802 351.986 90.1179 351.714 89.6999 351.569Z" fill="#263238" stroke="#263238" stroke-linecap="round" stroke-linejoin="round"/>
<path d="M70.0517 354.51H91.1117V353.582C91.1116 353.354 91.0747 353.127 91.0025 352.911H70.0205C70.0205 353.621 70.0517 354.51 70.0517 354.51Z" fill="white" stroke="#263238" stroke-width="0.75" stroke-linecap="round" stroke-linejoin="round"/>
<path d="M101.119 288.514C101.119 288.514 98.8804 292.375 95.2534 290.901" stroke="#263238" stroke-width="0.75" stroke-linecap="round" stroke-linejoin="round"/>
<path d="M85.5112 289.871C85.5112 289.871 81.4942 293.303 78.1714 290.901" stroke="#263238" stroke-width="0.75" stroke-linecap="round" stroke-linejoin="round"/>
<path d="M127.428 189.953L127.99 192.746H132.966L128.918 191.802L129.113 189.899L127.428 189.953Z" fill="white"/>
</svg>
