<svg width="293" height="293" viewBox="0 0 293 293" fill="none" xmlns="http://www.w3.org/2000/svg">
<path d="M250.187 189.694L249.73 193.796L257.705 184.473C258.659 184.573 259.618 184.623 260.577 184.625" stroke="#263238" stroke-linecap="round" stroke-linejoin="round"/>
<path d="M240.196 161.402C239.148 162.983 238.491 164.791 238.28 166.676C237.524 173.491 242.868 179.937 250.943 182.92L250.533 186.582" stroke="#263238" stroke-linecap="round" stroke-linejoin="round"/>
<path d="M243.296 158.009C242.776 158.43 242.283 158.882 241.819 159.363" stroke="#263238" stroke-linecap="round" stroke-linejoin="round"/>
<path d="M273.205 158.009C269.564 155.514 265.355 153.975 260.963 153.532C256.322 152.963 251.614 153.655 247.333 155.536" stroke="#263238" stroke-linecap="round" stroke-linejoin="round"/>
<path d="M266.126 184.074C273.744 182.498 279.516 177.628 280.19 171.311C280.682 166.893 278.614 162.633 274.916 159.363" stroke="#263238" stroke-linecap="round" stroke-linejoin="round"/>
<path d="M247.339 162.539C247.984 162.659 248.646 162.65 249.288 162.514C249.929 162.377 250.538 162.115 251.078 161.742L253.926 163.951C253.726 164.015 253.744 163.594 253.955 163.582C254.166 163.57 254.324 163.764 254.47 163.916C255.139 164.625 256.264 164.648 257.219 164.443C258.174 164.238 259.106 163.857 260.079 163.892C260.657 163.953 261.226 164.085 261.772 164.285C265.687 165.498 269.759 166.108 273.814 166.705" stroke="#263238" stroke-linecap="round" stroke-linejoin="round"/>
<path d="M243.976 166.705C244.562 166.67 247.826 166.705 248.294 166.313L249.091 167.701L249.97 166.852C250.123 167.438 250.275 168.024 250.422 168.575C251.084 168.733 251.008 167.455 251.594 167.074C251.774 166.986 251.981 166.969 252.173 167.027C252.365 167.084 252.529 167.212 252.631 167.385C252.823 167.745 252.916 168.149 252.9 168.557L256.909 168.885L257.688 168.95C257.967 168.525 258.379 168.205 258.86 168.041C258.713 168.967 259.88 169.495 260.806 169.682C265.365 170.612 269.947 171.415 274.553 172.091" stroke="#263238" stroke-linecap="round" stroke-linejoin="round"/>
<path d="M245.757 173.069C246.126 173.327 246.577 172.847 247.028 172.788C247.48 172.729 247.849 173.069 248.247 173.274C248.646 173.479 249.302 173.392 249.326 172.946C249.419 173.532 250.146 173.743 250.738 173.825L266.126 175.988" stroke="#263238" stroke-linecap="round" stroke-linejoin="round"/>
<path d="M39.8481 153.051L46.0129 161.349L44.7764 150.491C46.2503 149.775 47.66 148.934 48.9897 147.977C55.3068 143.406 57.8501 136.052 55.5354 130.127C53.9121 125.99 50.109 123.177 45.3038 122.011" stroke="#263238" stroke-linecap="round" stroke-linejoin="round"/>
<path d="M15.4998 139.96C15.3077 141.839 15.5648 143.737 16.2499 145.498C18.7463 151.885 26.4697 155.108 35.0019 153.995" stroke="#263238" stroke-linecap="round" stroke-linejoin="round"/>
<path d="M16.6661 135.512C16.4043 136.128 16.1793 136.758 15.9922 137.399" stroke="#263238" stroke-linecap="round" stroke-linejoin="round"/>
<path d="M43.153 121.613C38.7686 121.088 34.3228 121.677 30.2258 123.324C25.853 124.977 22.0067 127.779 19.0918 131.434" stroke="#263238" stroke-linecap="round" stroke-linejoin="round"/>
<path d="M22.3501 137.64C23.6107 137.246 24.6642 136.37 25.2801 135.202L28.7961 135.835C28.6437 135.981 28.4679 135.6 28.6496 135.489C28.8313 135.378 29.0598 135.489 29.2356 135.548C30.1615 135.864 31.1635 135.366 31.9136 134.739C32.6637 134.112 33.3083 133.332 34.1932 132.922C34.7337 132.706 35.2984 132.557 35.875 132.477C39.9067 131.739 43.7918 130.379 47.6653 129.025" stroke="#263238" stroke-linecap="round" stroke-linejoin="round"/>
<path d="M21.3071 142.896C21.8287 142.585 24.7176 141.103 24.952 140.552L26.3057 141.413C26.4346 141.027 26.5635 140.634 26.6866 140.241L27.8879 141.56C28.5501 141.396 27.8879 140.3 28.2043 139.702C28.3222 139.54 28.4973 139.429 28.6942 139.391C28.8911 139.352 29.0951 139.391 29.265 139.497C29.5997 139.722 29.8686 140.031 30.0444 140.394L33.7421 138.823L34.4687 138.519C34.5103 138.015 34.7162 137.54 35.0547 137.165C35.3594 138.062 36.6369 137.979 37.5393 137.716C42.0125 136.427 46.4446 135.008 50.8357 133.461" stroke="#263238" stroke-linecap="round" stroke-linejoin="round"/>
<path d="M25.8428 147.701C26.294 147.76 26.4698 147.115 26.839 146.857C27.2082 146.6 27.7004 146.734 28.1458 146.723C28.5911 146.711 29.1361 146.342 28.9486 145.937C29.306 146.412 30.0503 146.26 30.607 146.06L45.257 140.816" stroke="#263238" stroke-linecap="round" stroke-linejoin="round"/>
<path d="M218.537 52.5173H72.4239C69.5791 52.5173 67.2729 54.8235 67.2729 57.6683V189.296C67.2729 192.14 69.5791 194.447 72.4239 194.447H218.537C221.382 194.447 223.688 192.14 223.688 189.296V57.6683C223.688 54.8235 221.382 52.5173 218.537 52.5173Z" fill="white"/>
<path opacity="0.2" d="M223.688 130.262V189.448C223.688 190.773 223.162 192.043 222.226 192.98C221.29 193.918 220.02 194.445 218.695 194.446H72.2715C70.9458 194.446 69.6744 193.92 68.737 192.982C67.7996 192.045 67.2729 190.774 67.2729 189.448V177.728H67.5835V185.627C67.5835 186.378 67.7315 187.121 68.019 187.815C68.3065 188.509 68.7279 189.139 69.259 189.669C69.7902 190.2 70.4208 190.621 71.1146 190.907C71.8085 191.194 72.5521 191.341 73.3029 191.341H214.757C215.508 191.341 216.252 191.194 216.946 190.907C217.64 190.621 218.27 190.2 218.801 189.669C219.332 189.139 219.754 188.509 220.041 187.815C220.329 187.121 220.477 186.378 220.477 185.627V139.04C220.477 137.985 220.058 136.973 219.311 136.227C218.565 135.48 217.553 135.061 216.498 135.061H67.2729V130.262H223.688Z" fill="black"/>
<path d="M218.537 52.5173H72.4239C69.5791 52.5173 67.2729 54.8235 67.2729 57.6683V189.296C67.2729 192.14 69.5791 194.447 72.4239 194.447H218.537C221.382 194.447 223.688 192.14 223.688 189.296V57.6683C223.688 54.8235 221.382 52.5173 218.537 52.5173Z" stroke="#263238" stroke-linecap="round" stroke-linejoin="round"/>
<path d="M210.069 147.115V140.335C210.07 140.006 210.006 139.679 209.88 139.375C209.754 139.07 209.57 138.793 209.337 138.56C209.104 138.327 208.827 138.142 208.522 138.017C208.217 137.891 207.891 137.826 207.561 137.827H83.3997C82.7345 137.827 82.0966 138.091 81.6262 138.562C81.1559 139.032 80.8916 139.67 80.8916 140.335V147.115C80.8916 147.78 80.6274 148.418 80.1571 148.889C79.6867 149.359 79.0487 149.623 78.3836 149.623C77.7168 149.623 77.0774 149.888 76.6059 150.36C76.1345 150.831 75.8696 151.471 75.8696 152.137V165.516C75.8696 168.601 77.0952 171.559 79.2766 173.741C81.458 175.922 84.4167 177.148 87.5017 177.148C87.9975 177.148 88.473 177.345 88.8235 177.695C89.1741 178.046 89.3711 178.521 89.3711 179.017V183.025C89.3711 184.505 89.9588 185.924 91.005 186.97C92.0512 188.016 93.4702 188.604 94.9498 188.604H196.011C197.491 188.604 198.91 188.016 199.956 186.97C201.002 185.924 201.59 184.505 201.59 183.025V179.017C201.59 178.521 201.787 178.046 202.138 177.695C202.488 177.345 202.964 177.148 203.459 177.148C204.987 177.148 206.5 176.847 207.911 176.262C209.322 175.678 210.604 174.821 211.685 173.741C212.765 172.661 213.621 171.378 214.206 169.967C214.791 168.556 215.091 167.043 215.091 165.516V152.137C215.091 151.472 214.827 150.833 214.357 150.362C213.887 149.89 213.249 149.625 212.583 149.623C211.918 149.623 211.279 149.359 210.808 148.889C210.337 148.419 210.071 147.781 210.069 147.115Z" fill="#263238"/>
<path d="M90.402 141.666H86.0598C85.5283 141.666 85.0185 141.877 84.6427 142.253C84.2668 142.628 84.0557 143.138 84.0557 143.67V144.783C84.0557 147.092 85.925 150.022 88.2338 150.022C90.5427 150.022 92.412 147.092 92.412 144.783V143.67C92.4105 143.138 92.198 142.628 91.8212 142.252C91.4445 141.876 90.9341 141.666 90.402 141.666Z" fill="white" stroke="#263238" stroke-linecap="round" stroke-linejoin="round"/>
<path d="M100.792 141.666H96.4499C95.9179 141.666 95.4075 141.876 95.0307 142.252C94.6539 142.628 94.4415 143.138 94.4399 143.67V144.783C94.4399 147.092 96.3093 150.022 98.6181 150.022C100.927 150.022 102.796 147.092 102.796 144.783V143.67C102.796 143.138 102.585 142.628 102.209 142.253C101.833 141.877 101.324 141.666 100.792 141.666Z" fill="white" stroke="#263238" stroke-linecap="round" stroke-linejoin="round"/>
<path d="M111.223 141.666H106.881C106.349 141.666 105.839 141.877 105.463 142.253C105.088 142.628 104.876 143.138 104.876 143.67V144.783C104.876 147.092 106.746 150.022 109.049 150.022C111.352 150.022 113.227 147.092 113.227 144.783V143.67C113.227 143.138 113.016 142.628 112.64 142.253C112.264 141.877 111.754 141.666 111.223 141.666Z" fill="white" stroke="#263238" stroke-linecap="round" stroke-linejoin="round"/>
<path d="M121.63 141.666H117.288C116.756 141.666 116.247 141.877 115.871 142.253C115.495 142.628 115.284 143.138 115.284 143.67V144.783C115.284 147.092 117.153 150.022 119.462 150.022C121.771 150.022 123.634 147.092 123.634 144.783V143.67C123.634 143.406 123.582 143.146 123.482 142.903C123.381 142.66 123.233 142.439 123.047 142.253C122.861 142.066 122.64 141.919 122.397 141.818C122.154 141.717 121.893 141.666 121.63 141.666Z" fill="white" stroke="#263238" stroke-linecap="round" stroke-linejoin="round"/>
<path d="M132.038 141.666H127.696C127.164 141.666 126.654 141.877 126.278 142.253C125.903 142.628 125.691 143.138 125.691 143.67V144.783C125.691 147.092 127.561 150.022 129.87 150.022C132.178 150.022 134.048 147.092 134.048 144.783V143.67C134.046 143.138 133.834 142.628 133.457 142.252C133.08 141.876 132.57 141.666 132.038 141.666Z" fill="white" stroke="#263238" stroke-linecap="round" stroke-linejoin="round"/>
<path d="M142.451 141.666H138.109C137.577 141.666 137.066 141.876 136.689 142.252C136.313 142.628 136.1 143.138 136.099 143.67V144.783C136.099 147.092 137.968 150.022 140.277 150.022C142.586 150.022 144.455 147.092 144.455 144.783V143.67C144.455 143.138 144.244 142.628 143.868 142.253C143.492 141.877 142.982 141.666 142.451 141.666Z" fill="white" stroke="#263238" stroke-linecap="round" stroke-linejoin="round"/>
<path d="M152.858 141.666H148.516C147.984 141.666 147.475 141.877 147.099 142.253C146.723 142.628 146.512 143.138 146.512 143.67V144.783C146.512 147.092 148.381 150.022 150.684 150.022C152.987 150.022 154.862 147.092 154.862 144.783V143.67C154.862 143.138 154.651 142.628 154.275 142.253C153.899 141.877 153.39 141.666 152.858 141.666Z" fill="white" stroke="#263238" stroke-linecap="round" stroke-linejoin="round"/>
<path d="M163.265 141.666H158.923C158.392 141.666 157.882 141.877 157.506 142.253C157.13 142.628 156.919 143.138 156.919 143.67V144.783C156.919 147.092 158.788 150.022 161.097 150.022C163.406 150.022 165.269 147.092 165.269 144.783V143.67C165.269 143.138 165.058 142.628 164.682 142.253C164.307 141.877 163.797 141.666 163.265 141.666Z" fill="white" stroke="#263238" stroke-linecap="round" stroke-linejoin="round"/>
<path d="M173.673 141.665H169.354C169.091 141.665 168.83 141.717 168.587 141.818C168.344 141.919 168.123 142.066 167.937 142.252C167.751 142.439 167.603 142.659 167.503 142.903C167.402 143.146 167.35 143.406 167.35 143.67V144.783C167.35 147.092 169.219 150.022 171.528 150.022C173.837 150.022 175.706 147.092 175.706 144.783V143.67C175.706 143.404 175.652 143.141 175.55 142.897C175.447 142.652 175.296 142.43 175.107 142.244C174.918 142.057 174.694 141.91 174.448 141.811C174.202 141.712 173.938 141.662 173.673 141.665Z" fill="white" stroke="#263238" stroke-linecap="round" stroke-linejoin="round"/>
<path d="M184.086 141.666H179.744C179.212 141.666 178.701 141.876 178.325 142.252C177.948 142.628 177.735 143.138 177.734 143.67V144.783C177.734 147.092 179.603 150.022 181.912 150.022C184.221 150.022 186.09 147.092 186.09 144.783V143.67C186.09 143.138 185.879 142.628 185.503 142.253C185.127 141.877 184.618 141.666 184.086 141.666Z" fill="white" stroke="#263238" stroke-linecap="round" stroke-linejoin="round"/>
<path d="M194.493 141.666H190.151C189.62 141.666 189.11 141.877 188.734 142.253C188.358 142.628 188.147 143.138 188.147 143.67V144.783C188.147 147.092 190.016 150.022 192.319 150.022C194.622 150.022 196.497 147.092 196.497 144.783V143.67C196.497 143.138 196.286 142.628 195.91 142.253C195.535 141.877 195.025 141.666 194.493 141.666Z" fill="white" stroke="#263238" stroke-linecap="round" stroke-linejoin="round"/>
<path d="M204.901 141.665H200.559C200.027 141.665 199.518 141.877 199.142 142.252C198.766 142.628 198.555 143.138 198.555 143.67V144.783C198.555 147.086 200.412 150.016 202.756 150.016C205.1 150.016 206.929 147.086 206.929 144.777V143.664C206.928 143.399 206.875 143.137 206.772 142.893C206.67 142.649 206.52 142.428 206.331 142.242C206.143 142.056 205.919 141.91 205.674 141.811C205.428 141.712 205.166 141.662 204.901 141.665Z" fill="white" stroke="#263238" stroke-linecap="round" stroke-linejoin="round"/>
<path d="M90.402 163.723H86.0598C85.5283 163.723 85.0185 163.934 84.6427 164.31C84.2668 164.685 84.0557 165.195 84.0557 165.727V166.84C84.0557 169.149 85.925 172.079 88.2338 172.079C90.5427 172.079 92.412 169.149 92.412 166.84V165.727C92.4105 165.195 92.198 164.685 91.8212 164.309C91.4445 163.933 90.9341 163.723 90.402 163.723Z" fill="white" stroke="#263238" stroke-linecap="round" stroke-linejoin="round"/>
<path d="M100.792 163.723H96.4499C95.9179 163.723 95.4075 163.933 95.0307 164.309C94.6539 164.685 94.4415 165.195 94.4399 165.727V166.84C94.4399 169.149 96.3093 172.079 98.6181 172.079C100.927 172.079 102.796 169.149 102.796 166.84V165.727C102.796 165.195 102.585 164.685 102.209 164.31C101.833 163.934 101.324 163.723 100.792 163.723Z" fill="white" stroke="#263238" stroke-linecap="round" stroke-linejoin="round"/>
<path d="M111.223 163.723H106.881C106.349 163.723 105.839 163.934 105.463 164.31C105.088 164.685 104.876 165.195 104.876 165.727V166.84C104.876 169.149 106.746 172.079 109.049 172.079C111.352 172.079 113.227 169.149 113.227 166.84V165.727C113.227 165.195 113.016 164.685 112.64 164.31C112.264 163.934 111.754 163.723 111.223 163.723Z" fill="white" stroke="#263238" stroke-linecap="round" stroke-linejoin="round"/>
<path d="M121.63 163.723H117.288C116.756 163.723 116.247 163.934 115.871 164.31C115.495 164.685 115.284 165.195 115.284 165.727V166.84C115.284 169.149 117.153 172.079 119.462 172.079C121.771 172.079 123.634 169.149 123.634 166.84V165.727C123.634 165.463 123.582 165.203 123.482 164.96C123.381 164.717 123.233 164.496 123.047 164.31C122.861 164.123 122.64 163.976 122.397 163.875C122.154 163.774 121.893 163.723 121.63 163.723Z" fill="white" stroke="#263238" stroke-linecap="round" stroke-linejoin="round"/>
<path d="M132.038 163.723H127.696C127.164 163.723 126.654 163.934 126.278 164.31C125.903 164.685 125.691 165.195 125.691 165.727V166.84C125.691 169.149 127.561 172.079 129.87 172.079C132.178 172.079 134.048 169.149 134.048 166.84V165.727C134.046 165.195 133.834 164.685 133.457 164.309C133.08 163.933 132.57 163.723 132.038 163.723Z" fill="white" stroke="#263238" stroke-linecap="round" stroke-linejoin="round"/>
<path d="M142.451 163.723H138.109C137.577 163.723 137.066 163.933 136.689 164.309C136.313 164.685 136.1 165.195 136.099 165.727V166.84C136.099 169.149 137.968 172.079 140.277 172.079C142.586 172.079 144.455 169.149 144.455 166.84V165.727C144.455 165.195 144.244 164.685 143.868 164.31C143.492 163.934 142.982 163.723 142.451 163.723Z" fill="white" stroke="#263238" stroke-linecap="round" stroke-linejoin="round"/>
<path d="M152.858 163.723H148.516C147.984 163.723 147.475 163.934 147.099 164.31C146.723 164.685 146.512 165.195 146.512 165.727V166.84C146.512 169.149 148.381 172.079 150.684 172.079C152.987 172.079 154.862 169.149 154.862 166.84V165.727C154.862 165.195 154.651 164.685 154.275 164.31C153.899 163.934 153.39 163.723 152.858 163.723Z" fill="white" stroke="#263238" stroke-linecap="round" stroke-linejoin="round"/>
<path d="M163.265 163.723H158.923C158.392 163.723 157.882 163.934 157.506 164.31C157.13 164.685 156.919 165.195 156.919 165.727V166.84C156.919 169.149 158.788 172.079 161.097 172.079C163.406 172.079 165.269 169.149 165.269 166.84V165.727C165.269 165.195 165.058 164.685 164.682 164.31C164.307 163.934 163.797 163.723 163.265 163.723Z" fill="white" stroke="#263238" stroke-linecap="round" stroke-linejoin="round"/>
<path d="M173.673 163.723H169.354C169.091 163.723 168.83 163.774 168.587 163.875C168.344 163.976 168.123 164.123 167.937 164.31C167.751 164.496 167.603 164.717 167.503 164.96C167.402 165.203 167.35 165.463 167.35 165.727V166.84C167.35 169.149 169.219 172.079 171.528 172.079C173.837 172.079 175.706 169.149 175.706 166.84V165.727C175.706 165.461 175.652 165.199 175.55 164.954C175.447 164.709 175.296 164.487 175.107 164.301C174.918 164.115 174.694 163.967 174.448 163.868C174.202 163.769 173.938 163.719 173.673 163.723Z" fill="white" stroke="#263238" stroke-linecap="round" stroke-linejoin="round"/>
<path d="M184.086 163.723H179.744C179.212 163.723 178.701 163.933 178.325 164.309C177.948 164.685 177.735 165.195 177.734 165.727V166.84C177.734 169.149 179.603 172.079 181.912 172.079C184.221 172.079 186.09 169.149 186.09 166.84V165.727C186.09 165.195 185.879 164.685 185.503 164.31C185.127 163.934 184.618 163.723 184.086 163.723Z" fill="white" stroke="#263238" stroke-linecap="round" stroke-linejoin="round"/>
<path d="M194.493 163.723H190.151C189.62 163.723 189.11 163.934 188.734 164.31C188.358 164.685 188.147 165.195 188.147 165.727V166.84C188.147 169.149 190.016 172.079 192.319 172.079C194.622 172.079 196.497 169.149 196.497 166.84V165.727C196.497 165.195 196.286 164.685 195.91 164.31C195.535 163.934 195.025 163.723 194.493 163.723Z" fill="white" stroke="#263238" stroke-linecap="round" stroke-linejoin="round"/>
<path d="M204.901 163.723H200.559C200.027 163.723 199.518 163.934 199.142 164.31C198.766 164.685 198.555 165.195 198.555 165.727V166.84C198.555 169.149 200.424 172.079 202.733 172.079C205.042 172.079 206.905 169.149 206.905 166.84V165.727C206.905 165.195 206.694 164.685 206.318 164.31C205.942 163.934 205.433 163.723 204.901 163.723Z" fill="white" stroke="#263238" stroke-linecap="round" stroke-linejoin="round"/>
<path d="M85.1984 153.051H80.8679C80.3364 153.051 79.8266 153.263 79.4508 153.638C79.0749 154.014 78.8638 154.524 78.8638 155.056V156.169C78.8638 158.472 80.7331 161.408 83.0419 161.408C85.3508 161.408 87.2143 158.478 87.2143 156.169V155.056C87.2143 154.791 87.162 154.53 87.0606 154.286C86.9591 154.042 86.8105 153.821 86.6231 153.634C86.4358 153.448 86.2135 153.301 85.969 153.201C85.7245 153.101 85.4626 153.05 85.1984 153.051Z" fill="white" stroke="#263238" stroke-linecap="round" stroke-linejoin="round"/>
<path d="M95.6061 153.051H91.2639C90.7324 153.051 90.2226 153.263 89.8468 153.638C89.4709 154.014 89.2598 154.524 89.2598 155.056V156.169C89.2598 158.472 91.1291 161.408 93.4379 161.408C95.7468 161.408 97.6161 158.478 97.6161 156.169V155.056C97.6146 154.523 97.4021 154.014 97.0253 153.638C96.6486 153.262 96.1382 153.051 95.6061 153.051Z" fill="white" stroke="#263238" stroke-linecap="round" stroke-linejoin="round"/>
<path d="M106.019 153.051H101.677C101.145 153.051 100.635 153.262 100.258 153.638C99.881 154.014 99.6685 154.523 99.667 155.056V156.169C99.667 158.472 101.542 161.408 103.845 161.408C106.148 161.408 108.023 158.478 108.023 156.169V155.056C108.023 154.524 107.812 154.014 107.436 153.638C107.061 153.263 106.551 153.051 106.019 153.051Z" fill="white" stroke="#263238" stroke-linecap="round" stroke-linejoin="round"/>
<path d="M116.426 153.051H112.084C111.553 153.051 111.043 153.263 110.667 153.638C110.291 154.014 110.08 154.524 110.08 155.056V156.169C110.08 158.472 111.949 161.408 114.252 161.408C116.555 161.408 118.431 158.478 118.431 156.169V155.056C118.431 154.792 118.379 154.532 118.278 154.289C118.177 154.045 118.03 153.824 117.844 153.638C117.657 153.452 117.437 153.305 117.193 153.204C116.95 153.103 116.69 153.051 116.426 153.051Z" fill="white" stroke="#263238" stroke-linecap="round" stroke-linejoin="round"/>
<path d="M126.834 153.051H122.474C121.942 153.051 121.433 153.263 121.057 153.638C120.681 154.014 120.47 154.524 120.47 155.056V156.169C120.47 158.472 122.339 161.408 124.648 161.408C126.957 161.408 128.82 158.478 128.82 156.169V155.056C128.82 154.527 128.612 154.02 128.239 153.645C127.867 153.269 127.362 153.056 126.834 153.051Z" fill="white" stroke="#263238" stroke-linecap="round" stroke-linejoin="round"/>
<path d="M137.241 153.051H132.899C132.368 153.051 131.858 153.263 131.482 153.638C131.106 154.014 130.895 154.524 130.895 155.056V156.169C130.895 158.472 132.764 161.408 135.073 161.408C137.382 161.408 139.251 158.478 139.251 156.169V155.056C139.25 154.523 139.037 154.014 138.661 153.638C138.284 153.262 137.773 153.051 137.241 153.051Z" fill="white" stroke="#263238" stroke-linecap="round" stroke-linejoin="round"/>
<path d="M147.672 153.051H143.33C142.798 153.051 142.287 153.262 141.911 153.638C141.534 154.014 141.321 154.523 141.32 155.056V156.169C141.32 158.472 143.195 161.408 145.498 161.408C147.801 161.408 149.676 158.478 149.676 156.169V155.056C149.676 154.524 149.465 154.014 149.089 153.638C148.713 153.263 148.204 153.051 147.672 153.051Z" fill="white" stroke="#263238" stroke-linecap="round" stroke-linejoin="round"/>
<path d="M158.062 153.051H153.719C153.188 153.051 152.678 153.263 152.302 153.638C151.926 154.014 151.715 154.524 151.715 155.056V156.169C151.715 158.472 153.585 161.408 155.888 161.408C158.191 161.408 160.066 158.478 160.066 156.169V155.056C160.066 154.524 159.855 154.014 159.479 153.638C159.103 153.263 158.593 153.051 158.062 153.051Z" fill="white" stroke="#263238" stroke-linecap="round" stroke-linejoin="round"/>
<path d="M168.469 153.051H164.127C163.595 153.051 163.085 153.263 162.71 153.638C162.334 154.014 162.123 154.524 162.123 155.056V156.169C162.123 158.472 163.992 161.408 166.301 161.408C168.61 161.408 170.473 158.478 170.473 156.169V155.056C170.473 154.524 170.262 154.014 169.886 153.638C169.51 153.263 169 153.051 168.469 153.051Z" fill="white" stroke="#263238" stroke-linecap="round" stroke-linejoin="round"/>
<path d="M178.877 153.051H174.534C174.003 153.051 173.493 153.263 173.117 153.638C172.741 154.014 172.53 154.524 172.53 155.056V156.169C172.53 158.472 174.4 161.408 176.708 161.408C179.017 161.408 180.887 158.478 180.887 156.169V155.056C180.885 154.523 180.673 154.014 180.296 153.638C179.919 153.262 179.409 153.051 178.877 153.051Z" fill="white" stroke="#263238" stroke-linecap="round" stroke-linejoin="round"/>
<path d="M189.278 153.051H184.936C184.404 153.051 183.893 153.262 183.517 153.638C183.14 154.014 182.927 154.523 182.926 155.056V156.169C182.926 158.472 184.801 161.408 187.104 161.408C189.407 161.408 191.282 158.478 191.282 156.169V155.056C191.282 154.524 191.071 154.014 190.695 153.638C190.319 153.263 189.81 153.051 189.278 153.051Z" fill="white" stroke="#263238" stroke-linecap="round" stroke-linejoin="round"/>
<path d="M199.697 153.051H195.355C194.828 153.059 194.326 153.274 193.956 153.649C193.587 154.024 193.38 154.529 193.38 155.056V156.169C193.38 158.472 195.249 161.408 197.552 161.408C199.855 161.408 201.73 158.478 201.73 156.169V155.056C201.73 154.79 201.678 154.527 201.575 154.282C201.473 154.037 201.322 153.815 201.133 153.628C200.944 153.442 200.719 153.295 200.473 153.196C200.226 153.097 199.963 153.048 199.697 153.051Z" fill="white" stroke="#263238" stroke-linecap="round" stroke-linejoin="round"/>
<path d="M210.105 153.051H205.762C205.231 153.051 204.721 153.263 204.345 153.638C203.969 154.014 203.758 154.524 203.758 155.056V156.169C203.758 158.472 205.628 161.408 207.936 161.408C210.245 161.408 212.109 158.478 212.109 156.169V155.056C212.109 154.524 211.898 154.014 211.522 153.638C211.146 153.263 210.636 153.051 210.105 153.051Z" fill="white" stroke="#263238" stroke-linecap="round" stroke-linejoin="round"/>
<path d="M185.235 174.833H105.726C104.687 174.833 103.845 175.675 103.845 176.714V182.422C103.845 183.461 104.687 184.303 105.726 184.303H185.235C186.274 184.303 187.116 183.461 187.116 182.422V176.714C187.116 175.675 186.274 174.833 185.235 174.833Z" fill="white" stroke="#263238" stroke-linecap="round" stroke-linejoin="round"/>
<path d="M195.883 175.39H191.54C191.009 175.39 190.499 175.601 190.123 175.977C189.747 176.353 189.536 176.862 189.536 177.394V178.507C189.536 180.816 191.405 183.746 193.714 183.746C196.023 183.746 197.887 180.816 197.887 178.507V177.394C197.887 176.862 197.675 176.353 197.3 175.977C196.924 175.601 196.414 175.39 195.883 175.39Z" fill="white" stroke="#263238" stroke-linecap="round" stroke-linejoin="round"/>
<path d="M99.4206 175.39H95.0783C94.5468 175.39 94.0371 175.601 93.6612 175.977C93.2854 176.353 93.0742 176.862 93.0742 177.394V178.507C93.0742 180.816 94.9436 183.746 97.2524 183.746C99.5612 183.746 101.431 180.816 101.431 178.507V177.394C101.429 176.862 101.217 176.352 100.84 175.976C100.463 175.601 99.9527 175.39 99.4206 175.39Z" fill="white" stroke="#263238" stroke-linecap="round" stroke-linejoin="round"/>
<path opacity="0.2" d="M90.6427 144.847C90.853 144.848 91.0628 144.868 91.2697 144.906C91.2697 144.865 91.2697 144.824 91.2697 144.783V143.67C91.2682 143.439 91.1755 143.218 91.0119 143.056C90.8483 142.893 90.6271 142.802 90.3966 142.802H86.0543C85.8248 142.804 85.605 142.896 85.4427 143.058C85.2804 143.22 85.1885 143.44 85.187 143.67V144.783C85.187 146.383 86.359 148.399 87.742 148.803C87.3142 147.027 88.2752 144.847 90.6427 144.847Z" fill="black"/>
<path opacity="0.2" d="M101.284 144.549C101.417 144.539 101.55 144.539 101.683 144.549V143.646C101.681 143.417 101.589 143.197 101.427 143.035C101.265 142.872 101.045 142.78 100.815 142.779H96.4732C96.2427 142.779 96.0215 142.87 95.8579 143.032C95.6943 143.195 95.6016 143.416 95.6001 143.646V144.759C95.6001 146.517 96.9889 148.715 98.5301 148.861C97.821 147.045 98.7528 144.549 101.284 144.549Z" fill="black"/>
<path opacity="0.2" d="M112.002 144.396H112.09V143.664C112.09 143.434 111.999 143.213 111.836 143.05C111.673 142.888 111.453 142.796 111.223 142.796H106.88C106.65 142.796 106.429 142.888 106.265 143.05C106.102 143.213 106.009 143.433 106.007 143.664V144.777C106.007 146.564 107.484 148.879 109.049 148.879C109.125 148.885 109.201 148.885 109.277 148.879C108.492 147.027 109.4 144.396 112.002 144.396Z" fill="black"/>
<path opacity="0.2" d="M121.748 144.097C121.991 144.09 122.235 144.11 122.474 144.156V143.646C122.474 143.416 122.383 143.195 122.22 143.033C122.058 142.87 121.837 142.779 121.607 142.779H117.265C117.035 142.779 116.814 142.87 116.651 143.033C116.489 143.195 116.397 143.416 116.397 143.646V144.759C116.397 146.435 117.687 148.568 119.14 148.861C118.144 147.021 119.005 144.097 121.748 144.097Z" fill="black"/>
<path opacity="0.2" d="M132.688 144.097H132.911V143.658C132.909 143.427 132.817 143.207 132.653 143.044C132.489 142.882 132.268 142.791 132.038 142.791H127.695C127.466 142.792 127.246 142.884 127.084 143.046C126.922 143.209 126.83 143.428 126.828 143.658V144.771C126.828 146.559 128.305 148.873 129.869 148.873C129.949 148.879 130.03 148.879 130.11 148.873C129.084 147.027 129.946 144.097 132.688 144.097Z" fill="black"/>
<path opacity="0.2" d="M143.183 144.156H143.318V143.646C143.316 143.417 143.225 143.197 143.062 143.035C142.9 142.872 142.68 142.78 142.451 142.779H138.108C137.878 142.779 137.657 142.87 137.493 143.032C137.33 143.195 137.237 143.416 137.235 143.646V144.759C137.235 146.547 138.712 148.861 140.277 148.861C140.372 148.87 140.468 148.87 140.564 148.861C139.603 147.016 140.476 144.156 143.183 144.156Z" fill="black"/>
<path opacity="0.2" d="M153.227 144.097C153.394 144.1 153.56 144.111 153.725 144.132V143.67C153.725 143.44 153.634 143.219 153.471 143.056C153.309 142.894 153.088 142.802 152.858 142.802H148.516C148.286 142.802 148.065 142.894 147.902 143.056C147.74 143.219 147.648 143.44 147.648 143.67V144.783C147.648 146.541 149.102 148.85 150.655 148.885C149.617 147.045 150.473 144.097 153.227 144.097Z" fill="black"/>
<path opacity="0.2" d="M164.133 144.25V143.664C164.133 143.434 164.042 143.213 163.879 143.05C163.716 142.888 163.496 142.796 163.266 142.796H158.923C158.693 142.796 158.473 142.888 158.31 143.05C158.148 143.213 158.056 143.434 158.056 143.664V144.777C158.056 146.564 159.527 148.879 161.098 148.879C161.255 148.877 161.411 148.851 161.56 148.803C160.717 146.998 161.578 144.332 164.133 144.25Z" fill="black"/>
<path opacity="0.2" d="M173.691 144.021C173.979 144.02 174.267 144.058 174.546 144.132V143.67C174.545 143.439 174.452 143.218 174.288 143.056C174.125 142.893 173.903 142.802 173.673 142.802H169.354C169.125 142.804 168.905 142.896 168.743 143.058C168.58 143.22 168.488 143.44 168.487 143.67V144.783C168.487 146.435 169.741 148.522 171.165 148.838C170.069 147.004 170.919 144.021 173.691 144.021Z" fill="black"/>
<path opacity="0.2" d="M184.332 144.021C184.541 144.022 184.748 144.041 184.953 144.08V143.67C184.952 143.44 184.86 143.22 184.698 143.058C184.535 142.896 184.316 142.804 184.086 142.802H179.744C179.513 142.802 179.292 142.893 179.128 143.056C178.965 143.218 178.872 143.439 178.871 143.67V144.783C178.871 146.541 180.277 148.774 181.801 148.885C180.699 147.045 181.543 144.021 184.332 144.021Z" fill="black"/>
<path opacity="0.2" d="M194.903 144.32C195.056 144.322 195.209 144.334 195.361 144.355V143.67C195.361 143.44 195.269 143.219 195.107 143.056C194.944 142.894 194.723 142.802 194.493 142.802H190.151C190.037 142.802 189.924 142.825 189.819 142.868C189.714 142.912 189.618 142.976 189.538 143.056C189.457 143.137 189.393 143.232 189.35 143.338C189.306 143.443 189.284 143.556 189.284 143.67V144.783C189.284 146.541 190.69 148.768 192.214 148.885C191.364 147.033 192.261 144.32 194.903 144.32Z" fill="black"/>
<path opacity="0.2" d="M205.768 144.185V143.67C205.768 143.44 205.677 143.219 205.514 143.056C205.352 142.894 205.131 142.802 204.901 142.802H200.559C200.329 142.802 200.108 142.894 199.945 143.056C199.783 143.219 199.691 143.44 199.691 143.67V144.783C199.691 146.57 201.162 148.885 202.733 148.885C202.959 148.882 203.182 148.834 203.389 148.744C202.557 146.975 203.342 144.384 205.768 144.185Z" fill="black"/>
<path opacity="0.2" d="M90.9415 165.838C91.0528 165.832 91.1643 165.832 91.2755 165.838V165.715C91.274 165.484 91.1813 165.264 91.0177 165.101C90.8542 164.939 90.633 164.848 90.4024 164.848H86.0601C85.8306 164.849 85.6109 164.941 85.4486 165.103C85.2863 165.266 85.1944 165.485 85.1929 165.715V166.828C85.1929 168.616 86.6696 170.93 88.2342 170.93C88.3424 170.928 88.4502 170.916 88.5565 170.895C87.2439 169.114 88.0408 165.838 90.9415 165.838Z" fill="black"/>
<path opacity="0.2" d="M101.138 165.838C101.32 165.839 101.503 165.854 101.683 165.885V165.733C101.681 165.503 101.589 165.283 101.427 165.121C101.265 164.959 101.045 164.867 100.815 164.865H96.4732C96.2427 164.865 96.0215 164.956 95.8579 165.119C95.6943 165.281 95.6016 165.502 95.6001 165.733V166.846C95.6001 168.633 97.0768 170.948 98.6414 170.948H98.7704C97.4284 169.143 98.2195 165.838 101.138 165.838Z" fill="black"/>
<path opacity="0.2" d="M111.481 165.985C111.677 165.985 111.873 166.003 112.067 166.037V165.727C112.067 165.613 112.044 165.5 112.001 165.395C111.957 165.29 111.893 165.194 111.813 165.113C111.732 165.033 111.636 164.969 111.531 164.925C111.426 164.882 111.313 164.859 111.199 164.859H106.857C106.626 164.859 106.405 164.951 106.242 165.113C106.078 165.276 105.985 165.496 105.984 165.727V166.84C105.984 168.598 107.437 170.901 108.99 170.942C107.824 169.12 108.638 165.985 111.481 165.985Z" fill="black"/>
<path opacity="0.2" d="M122.046 166.061C122.197 166.061 122.348 166.071 122.498 166.09V165.727C122.498 165.613 122.475 165.5 122.432 165.395C122.388 165.29 122.324 165.194 122.244 165.113C122.163 165.033 122.068 164.969 121.962 164.925C121.857 164.882 121.744 164.859 121.63 164.859H117.288C117.174 164.859 117.062 164.882 116.956 164.925C116.851 164.969 116.755 165.033 116.675 165.113C116.594 165.194 116.53 165.29 116.487 165.395C116.443 165.5 116.421 165.613 116.421 165.727V166.84C116.421 168.627 117.892 170.942 119.462 170.942H119.533C118.407 169.108 119.245 166.061 122.046 166.061Z" fill="black"/>
<path opacity="0.2" d="M132.243 165.838C132.467 165.838 132.691 165.86 132.911 165.902V165.733C132.909 165.502 132.817 165.281 132.653 165.119C132.489 164.956 132.268 164.865 132.038 164.865H127.695C127.466 164.867 127.246 164.959 127.084 165.121C126.922 165.283 126.83 165.503 126.828 165.733V166.846C126.828 168.633 128.305 170.948 129.869 170.948C128.533 169.155 129.319 165.838 132.243 165.838Z" fill="black"/>
<path opacity="0.2" d="M142.808 165.908C142.979 165.91 143.149 165.923 143.318 165.949V165.727C143.316 165.497 143.225 165.277 143.062 165.115C142.9 164.953 142.68 164.861 142.451 164.859H138.108C137.878 164.859 137.657 164.951 137.493 165.113C137.33 165.276 137.237 165.496 137.235 165.727V166.84C137.235 168.627 138.712 170.942 140.277 170.942H140.388C139.122 169.125 139.931 165.908 142.808 165.908Z" fill="black"/>
<path opacity="0.2" d="M153.602 166.131H153.725V165.721C153.725 165.491 153.634 165.27 153.471 165.108C153.309 164.945 153.088 164.854 152.858 164.854H148.516C148.286 164.854 148.065 164.945 147.902 165.108C147.74 165.27 147.648 165.491 147.648 165.721V166.834C147.648 168.621 149.119 170.936 150.684 170.936C150.798 170.934 150.912 170.921 151.024 170.895C150.016 169.067 150.854 166.131 153.602 166.131Z" fill="black"/>
<path opacity="0.2" d="M164.08 165.908H164.115V165.727C164.115 165.613 164.093 165.5 164.049 165.395C164.006 165.29 163.942 165.194 163.861 165.113C163.781 165.033 163.685 164.969 163.58 164.925C163.475 164.882 163.362 164.859 163.248 164.859H158.923C158.81 164.859 158.697 164.882 158.592 164.925C158.486 164.969 158.391 165.033 158.31 165.113C158.23 165.194 158.166 165.29 158.122 165.395C158.079 165.5 158.056 165.613 158.056 165.727V166.84C158.056 168.627 159.527 170.942 161.098 170.942C161.277 170.939 161.455 170.908 161.625 170.848C160.435 169.032 161.262 165.908 164.08 165.908Z" fill="black"/>
<path opacity="0.2" d="M174.212 165.686H174.54C174.531 165.461 174.436 165.249 174.274 165.093C174.113 164.937 173.898 164.849 173.673 164.848H169.354C169.125 164.849 168.905 164.941 168.743 165.103C168.58 165.266 168.488 165.485 168.487 165.715V166.828C168.487 168.616 169.964 170.93 171.528 170.93C171.671 170.926 171.813 170.904 171.95 170.866C170.479 169.12 171.241 165.686 174.212 165.686Z" fill="black"/>
<path opacity="0.2" d="M184.936 165.838V165.733C184.934 165.503 184.842 165.283 184.68 165.121C184.518 164.959 184.298 164.867 184.068 164.865H179.726C179.496 164.865 179.274 164.956 179.111 165.119C178.947 165.281 178.855 165.502 178.853 165.733V166.846C178.853 168.633 180.33 170.948 181.894 170.948C182.094 170.945 182.292 170.909 182.48 170.842C181.256 169.026 182.064 165.838 184.936 165.838Z" fill="black"/>
<path opacity="0.2" d="M195.138 165.838H195.373V165.721C195.373 165.607 195.35 165.494 195.307 165.389C195.263 165.284 195.199 165.188 195.119 165.108C195.038 165.027 194.943 164.963 194.837 164.92C194.732 164.876 194.619 164.854 194.505 164.854H190.163C189.933 164.854 189.713 164.945 189.55 165.108C189.387 165.27 189.296 165.491 189.296 165.721V166.834C189.296 168.621 190.767 170.936 192.331 170.936C192.47 170.934 192.608 170.915 192.742 170.878C191.435 169.084 192.238 165.838 195.138 165.838Z" fill="black"/>
<path opacity="0.2" d="M205.393 166.283C205.522 166.283 205.651 166.283 205.768 166.283V165.697C205.768 165.467 205.677 165.247 205.514 165.084C205.352 164.921 205.131 164.83 204.901 164.83H200.559C200.329 164.83 200.108 164.921 199.945 165.084C199.783 165.247 199.691 165.467 199.691 165.697V166.811C199.691 168.598 201.162 170.913 202.733 170.913C201.824 169.096 202.703 166.283 205.393 166.283Z" fill="black"/>
<path opacity="0.2" d="M85.9958 155.343H86.0719V155.056C86.0704 154.825 85.9777 154.604 85.8141 154.442C85.6506 154.279 85.4294 154.188 85.1988 154.188H80.8683C80.6382 154.188 80.4176 154.28 80.255 154.442C80.0923 154.605 80.001 154.826 80.001 155.056V156.169C80.001 157.956 81.4718 160.271 83.0423 160.271C83.1932 160.267 83.343 160.244 83.4877 160.201C82.3626 158.372 83.2123 155.343 85.9958 155.343Z" fill="black"/>
<path opacity="0.2" d="M96.1862 155.343H96.4792V155.044C96.4776 154.813 96.3849 154.593 96.2214 154.43C96.0578 154.268 95.8366 154.177 95.606 154.177H91.2638C91.0342 154.178 90.8145 154.27 90.6522 154.432C90.4899 154.595 90.398 154.814 90.3965 155.044V156.157C90.3965 157.944 91.8732 160.259 93.4378 160.259C93.5237 160.265 93.6098 160.265 93.6957 160.259C92.5412 158.425 93.3734 155.343 96.1862 155.343Z" fill="black"/>
<path opacity="0.2" d="M106.834 155.343H106.886V155.056C106.885 154.826 106.793 154.606 106.631 154.444C106.468 154.282 106.249 154.19 106.019 154.188H101.677C101.562 154.187 101.447 154.208 101.34 154.251C101.234 154.294 101.136 154.357 101.054 154.438C100.972 154.518 100.906 154.615 100.861 154.721C100.816 154.827 100.793 154.94 100.792 155.056V156.169C100.792 157.956 102.269 160.271 103.833 160.271C103.991 160.269 104.147 160.243 104.296 160.195C103.2 158.372 104.038 155.343 106.834 155.343Z" fill="black"/>
<path opacity="0.2" d="M117.024 155.29H117.294V155.067C117.294 154.837 117.202 154.617 117.04 154.454C116.877 154.291 116.656 154.2 116.426 154.2H112.084C111.854 154.2 111.633 154.291 111.471 154.454C111.308 154.617 111.217 154.837 111.217 155.067V156.181C111.217 157.968 112.688 160.283 114.252 160.283C114.359 160.28 114.464 160.269 114.569 160.248C113.356 158.425 114.176 155.29 117.024 155.29Z" fill="black"/>
<path opacity="0.2" d="M127.162 155.343C127.349 155.343 127.535 155.358 127.719 155.39V155.056C127.719 154.826 127.628 154.605 127.465 154.442C127.302 154.28 127.082 154.188 126.852 154.188H122.474C122.244 154.188 122.024 154.28 121.861 154.442C121.698 154.605 121.607 154.826 121.607 155.056V156.169C121.607 157.956 123.078 160.271 124.648 160.271C123.488 158.448 124.314 155.343 127.162 155.343Z" fill="black"/>
<path opacity="0.2" d="M137.64 154.968C137.796 154.968 137.953 154.978 138.109 154.997C138.092 154.778 137.994 154.573 137.833 154.423C137.672 154.273 137.461 154.189 137.241 154.188H132.899C132.669 154.19 132.45 154.282 132.287 154.444C132.125 154.606 132.033 154.826 132.032 155.056V156.169C132.032 157.956 133.508 160.271 135.073 160.271C135.186 160.269 135.297 160.255 135.407 160.23C133.884 158.489 134.628 154.968 137.64 154.968Z" fill="black"/>
<path opacity="0.2" d="M148.129 155.413C148.264 155.413 148.399 155.413 148.522 155.413V155.032C148.52 154.803 148.428 154.583 148.266 154.421C148.104 154.258 147.884 154.166 147.654 154.165H143.312C143.082 154.165 142.86 154.256 142.697 154.418C142.533 154.581 142.441 154.802 142.439 155.032V156.145C142.439 157.933 143.916 160.247 145.48 160.247H145.597C144.502 158.431 145.328 155.413 148.129 155.413Z" fill="black"/>
<path opacity="0.2" d="M158.929 155.056C158.929 154.826 158.837 154.605 158.675 154.442C158.512 154.28 158.292 154.188 158.062 154.188H153.719C153.605 154.188 153.493 154.211 153.387 154.254C153.282 154.298 153.187 154.362 153.106 154.442C153.026 154.523 152.962 154.618 152.918 154.724C152.874 154.829 152.852 154.942 152.852 155.056V156.169C152.852 157.956 154.323 160.271 155.888 160.271C156.2 160.263 156.506 160.179 156.778 160.025C155.595 158.279 156.309 155.29 158.929 155.056Z" fill="black"/>
<path opacity="0.2" d="M169.354 155.29V155.067C169.354 154.837 169.263 154.617 169.1 154.454C168.937 154.291 168.717 154.2 168.487 154.2H164.145C163.915 154.2 163.694 154.291 163.531 154.454C163.369 154.617 163.277 154.837 163.277 155.067V156.181C163.277 157.968 164.748 160.283 166.319 160.283C166.57 160.279 166.818 160.221 167.045 160.113C165.973 158.325 166.741 155.437 169.354 155.29Z" fill="black"/>
<path opacity="0.2" d="M179.386 155.114C179.509 155.114 179.632 155.114 179.75 155.114V155.038C179.748 154.807 179.655 154.587 179.492 154.424C179.328 154.262 179.107 154.171 178.877 154.171H174.534C174.305 154.172 174.085 154.264 173.923 154.426C173.76 154.589 173.669 154.808 173.667 155.038V156.151C173.667 157.939 175.144 160.253 176.708 160.253C176.819 160.252 176.929 160.238 177.036 160.212C175.677 158.448 176.456 155.114 179.386 155.114Z" fill="black"/>
<path opacity="0.2" d="M190.157 155.495V155.056C190.155 154.826 190.063 154.606 189.901 154.444C189.739 154.282 189.519 154.19 189.29 154.188H184.947C184.717 154.188 184.496 154.279 184.332 154.442C184.168 154.604 184.076 154.825 184.074 155.056V156.169C184.074 157.956 185.551 160.271 187.116 160.271C187.293 160.268 187.469 160.238 187.637 160.183C186.682 158.366 187.52 155.565 190.157 155.495Z" fill="black"/>
<path opacity="0.2" d="M200.072 155.19C200.237 155.193 200.401 155.204 200.565 155.225V155.056C200.565 154.825 200.473 154.605 200.311 154.442C200.148 154.28 199.927 154.188 199.697 154.188H195.355C195.241 154.188 195.128 154.211 195.023 154.254C194.918 154.298 194.822 154.362 194.742 154.442C194.661 154.523 194.597 154.618 194.554 154.724C194.51 154.829 194.488 154.942 194.488 155.056V156.169C194.488 157.956 195.959 160.271 197.523 160.271C197.578 160.274 197.633 160.274 197.687 160.271C196.375 158.46 197.172 155.19 200.072 155.19Z" fill="black"/>
<path opacity="0.2" d="M210.567 155.642C210.702 155.632 210.837 155.632 210.972 155.642V155.056C210.972 154.826 210.88 154.605 210.718 154.442C210.555 154.28 210.335 154.188 210.105 154.188H205.762C205.532 154.188 205.312 154.28 205.149 154.442C204.986 154.605 204.895 154.826 204.895 155.056V156.169C204.895 157.927 206.354 160.271 207.919 160.271C207.005 158.425 207.889 155.642 210.567 155.642Z" fill="black"/>
<path opacity="0.2" d="M185.979 182.457V176.679C185.979 176.287 185.662 175.97 185.27 175.97H105.691C105.3 175.97 104.982 176.287 104.982 176.679V182.457C104.982 182.849 105.3 183.166 105.691 183.166H185.27C185.662 183.166 185.979 182.849 185.979 182.457Z" fill="black"/>
<path opacity="0.2" d="M196.75 177.974V177.388C196.75 177.274 196.727 177.161 196.684 177.056C196.64 176.951 196.576 176.855 196.496 176.775C196.415 176.694 196.32 176.63 196.214 176.587C196.109 176.543 195.996 176.521 195.882 176.521H191.54C191.426 176.521 191.313 176.543 191.208 176.587C191.103 176.63 191.007 176.694 190.927 176.775C190.846 176.855 190.782 176.951 190.739 177.056C190.695 177.161 190.673 177.274 190.673 177.388V178.501C190.673 180.289 192.144 182.603 193.714 182.603C193.845 182.6 193.974 182.583 194.101 182.551C193.234 180.722 194.119 177.992 196.75 177.974Z" fill="black"/>
<path opacity="0.2" d="M99.7843 177.599C99.955 177.6 100.125 177.614 100.294 177.64V177.394C100.293 177.163 100.2 176.943 100.036 176.78C99.8727 176.618 99.6515 176.527 99.421 176.527H95.0787C94.8492 176.528 94.6295 176.62 94.4671 176.782C94.3048 176.945 94.213 177.164 94.2114 177.394V178.507C94.2114 180.295 95.6881 182.609 97.2528 182.609H97.3524C96.1042 180.793 96.9246 177.599 99.7843 177.599Z" fill="black"/>
<path opacity="0.2" d="M73.6601 55.377H217.3C218.287 55.377 219.234 55.769 219.932 56.4668C220.629 57.1647 221.021 58.1112 221.021 59.0981V91.9141H69.939V59.0981C69.939 58.1112 70.331 57.1647 71.0288 56.4668C71.7267 55.769 72.6732 55.377 73.6601 55.377Z" fill="black"/>
<path d="M205.557 61.5651H85.4273C84.4256 53.2459 82.6601 45.0366 80.1533 37.041H210.855C208.309 45.0274 206.535 53.2398 205.557 61.5651Z" fill="white"/>
<path opacity="0.2" d="M206.741 53.6599C205.867 58.43 205.569 61.5651 205.569 61.5651H85.4386C85.4386 61.5651 85.1339 58.4886 84.2373 53.6599H206.741Z" fill="black"/>
<path d="M205.557 61.5651H85.4273C84.4256 53.2459 82.6601 45.0366 80.1533 37.041H210.855C208.308 45.0274 206.535 53.2398 205.557 61.5651V61.5651Z" stroke="#263238" stroke-linecap="round" stroke-linejoin="round"/>
<path d="M203.922 82.2158H86.0718V130.701H203.922V82.2158Z" fill="#263238"/>
<g opacity="0.4">
<path opacity="0.4" d="M142.058 126.412L142.679 126.441C143.461 114.35 144.242 102.239 145.023 90.1091C144.027 102.243 143.039 114.344 142.058 126.412Z" fill="white"/>
<path opacity="0.4" d="M140.054 126.259L140.675 126.312C142.03 114.299 143.384 102.233 144.736 90.115C143.177 102.241 141.616 114.289 140.054 126.259Z" fill="white"/>
<path opacity="0.4" d="M138.103 126.037C138.308 126.037 138.519 126.084 138.724 126.107C140.646 114.223 142.58 102.224 144.525 90.1091C142.376 102.235 140.236 114.211 138.103 126.037Z" fill="white"/>
<path opacity="0.4" d="M136.127 125.738L136.754 125.838C139.247 114.118 141.759 102.202 144.29 90.0916C141.556 102.214 138.835 114.096 136.127 125.738Z" fill="white"/>
<path opacity="0.4" d="M134.159 125.369L134.792 125.498C137.839 114 140.927 102.202 144.056 90.1033C140.728 102.206 137.429 113.961 134.159 125.369Z" fill="white"/>
<path opacity="0.4" d="M132.202 124.923L132.835 125.082C136.427 113.842 140.119 102.187 143.822 90.0974C139.902 102.187 135.993 113.789 132.202 124.923Z" fill="white"/>
<path opacity="0.4" d="M130.25 124.396L130.889 124.584C134.991 113.66 139.286 102.163 143.587 90.0857C139.069 102.163 134.569 113.596 130.25 124.396Z" fill="white"/>
<path opacity="0.4" d="M128.334 123.798L128.973 124.003C133.608 113.455 138.472 102.14 143.371 90.0798C138.232 102.14 133.145 113.373 128.334 123.798Z" fill="white"/>
<path opacity="0.4" d="M126.388 123.113L127.033 123.347C132.166 113.198 137.622 102.11 143.118 90.0681C137.393 102.11 131.709 113.098 126.388 123.113Z" fill="white"/>
<path opacity="0.4" d="M124.49 122.339L125.134 122.609C130.737 112.916 136.784 102.099 142.884 90.0564C136.538 102.075 130.274 112.834 124.49 122.339Z" fill="white"/>
<path opacity="0.4" d="M122.609 121.472L123.253 121.782C129.301 112.612 135.94 102.034 142.65 90.0447C135.7 102.034 128.832 112.512 122.609 121.472Z" fill="white"/>
<path opacity="0.4" d="M120.757 120.511L121.401 120.862C127.847 112.266 135.096 101.987 142.415 90.0271C135.74 100.564 128.51 110.74 120.757 120.511Z" fill="white"/>
<path opacity="0.4" d="M118.958 119.456C119.169 119.591 119.392 119.714 119.608 119.843C127.741 110.37 135.287 100.409 142.205 90.0154C135.126 100.34 127.359 110.176 118.958 119.456Z" fill="white"/>
<path opacity="0.4" d="M117.159 118.29L117.797 118.729C126.573 109.793 134.647 100.193 141.946 90.0154C134.495 100.122 126.203 109.58 117.159 118.29Z" fill="white"/>
<path opacity="0.4" d="M141.712 89.9802C132.284 101.788 123.06 110.795 115.442 117.018L116.069 117.505C125.474 109.168 134.061 99.9509 141.712 89.9802Z" fill="white"/>
<path opacity="0.4" d="M141.478 89.9626C131.434 101.683 121.619 110.25 113.772 115.641L114.393 116.174C122.134 110.443 131.698 101.712 141.478 89.9626Z" fill="white"/>
<path opacity="0.4" d="M141.226 89.9451C130.578 101.577 120.206 109.641 112.184 114.141C112.377 114.34 112.57 114.539 112.77 114.727C120.716 109.863 130.859 101.606 141.226 89.9451Z" fill="white"/>
<path opacity="0.4" d="M141.009 89.9216C129.781 101.437 118.87 108.967 110.719 112.541L111.305 113.18C119.374 109.213 130.039 101.472 141.009 89.9216Z" fill="white"/>
<path opacity="0.4" d="M109.371 110.83C109.541 111.065 109.717 111.299 109.893 111.527C118.067 108.51 129.231 101.308 140.781 89.9041C128.996 101.255 117.593 108.222 109.371 110.83Z" fill="white"/>
<path opacity="0.4" d="M108.175 109.049C108.328 109.295 108.486 109.541 108.644 109.787C116.848 107.724 128.498 101.097 140.546 89.863C128.263 101.032 116.409 107.414 108.175 109.049Z" fill="white"/>
<path opacity="0.4" d="M107.156 107.238C107.285 107.496 107.419 107.748 107.554 108.006C115.758 106.892 127.806 100.851 140.312 89.8689C127.601 100.745 115.36 106.535 107.156 107.238Z" fill="white"/>
<path opacity="0.4" d="M106.324 105.386C106.429 105.644 106.541 105.908 106.652 106.166C114.809 105.966 127.162 100.522 140.054 89.8279C127.015 100.411 114.469 105.591 106.324 105.386Z" fill="white"/>
<path opacity="0.4" d="M144.044 126.494H144.66C144.847 114.383 145.043 102.257 145.246 90.115C144.836 102.249 144.435 114.375 144.044 126.494Z" fill="white"/>
<path opacity="0.4" d="M146.025 126.506H146.647C146.256 114.395 145.865 102.269 145.475 90.1267L146.025 126.506Z" fill="white"/>
<path opacity="0.4" d="M148.006 126.453H148.627C147.651 114.381 146.674 102.271 145.697 90.1208C146.467 102.255 147.236 114.366 148.006 126.453Z" fill="white"/>
<path opacity="0.4" d="M150.016 126.33L150.637 126.283C149.075 114.301 147.512 102.245 145.949 90.115C147.293 102.245 148.649 114.317 150.016 126.33Z" fill="white"/>
<path opacity="0.4" d="M151.967 126.142L152.589 126.066C150.463 114.225 148.315 102.239 146.143 90.1091C148.1 102.239 150.041 114.25 151.967 126.142Z" fill="white"/>
<path opacity="0.4" d="M153.942 125.879L154.569 125.785C151.874 114.123 149.149 102.232 146.395 90.1091C148.926 102.235 151.442 114.159 153.942 125.879Z" fill="white"/>
<path opacity="0.4" d="M155.911 125.545L156.538 125.427C153.284 113.996 149.981 102.222 146.629 90.1033C149.746 102.222 152.841 114.036 155.911 125.545Z" fill="white"/>
<path opacity="0.4" d="M157.868 125.134L158.507 124.988C154.71 113.854 150.795 102.21 146.863 90.0974C150.579 102.212 154.247 113.891 157.868 125.134Z" fill="white"/>
<path opacity="0.4" d="M159.826 124.654L160.458 124.472C156.134 113.649 151.627 102.204 147.098 90.0857C151.405 102.192 155.694 113.684 159.826 124.654Z" fill="white"/>
<path opacity="0.4" d="M161.765 124.085L162.41 123.874C157.564 113.432 152.448 102.192 147.332 90.0798C152.243 102.169 157.118 113.496 161.765 124.085Z" fill="white"/>
<path opacity="0.4" d="M163.693 123.435L164.338 123.195C159.005 113.18 153.309 102.146 147.566 90.0681C153.081 102.146 158.548 113.256 163.693 123.435Z" fill="white"/>
<path opacity="0.4" d="M165.603 122.702C165.82 122.609 166.043 122.527 166.254 122.433C160.453 112.905 154.159 102.116 147.801 90.0564C153.924 102.116 159.978 112.987 165.603 122.702Z" fill="white"/>
<path opacity="0.4" d="M167.496 121.888L168.147 121.577C161.906 112.594 155.009 102.087 148.035 90.0505C154.768 102.075 161.425 112.688 167.496 121.888Z" fill="white"/>
<path opacity="0.4" d="M169.354 120.968C169.571 120.857 169.787 120.733 169.998 120.616C162.216 110.811 154.959 100.6 148.258 90.0271C155.618 102.04 162.908 112.348 169.354 120.968Z" fill="white"/>
<path opacity="0.4" d="M171.194 119.954L171.85 119.567C163.412 110.253 155.613 100.38 148.504 90.0154C155.447 100.45 163.025 110.448 171.194 119.954Z" fill="white"/>
<path opacity="0.4" d="M148.738 89.9978C156.067 100.223 164.176 109.866 172.993 118.841L173.643 118.401C164.554 109.654 156.222 100.153 148.738 89.9978Z" fill="white"/>
<path opacity="0.4" d="M148.973 89.9802C156.66 99.9988 165.294 109.253 174.757 117.616C174.973 117.458 175.179 117.294 175.39 117.13C167.748 110.906 158.454 101.858 148.973 89.9802Z" fill="white"/>
<path opacity="0.4" d="M149.207 89.9626C159.052 101.782 168.674 110.549 176.438 116.28C176.649 116.104 176.866 115.928 177.071 115.747C169.195 110.367 159.316 101.776 149.207 89.9626Z" fill="white"/>
<path opacity="0.4" d="M149.43 89.9451C159.89 101.665 170.086 109.98 178.056 114.838C178.261 114.645 178.454 114.44 178.642 114.252C170.614 109.758 160.165 101.665 149.43 89.9451Z" fill="white"/>
<path opacity="0.4" d="M149.676 89.9216C160.734 101.56 171.481 109.336 179.562 113.274L180.148 112.629C171.997 109.096 160.997 101.536 149.676 89.9216Z" fill="white"/>
<path opacity="0.4" d="M181.01 111.609C181.191 111.375 181.361 111.141 181.537 110.9C173.304 108.351 161.795 101.36 149.893 89.9041C161.543 101.407 172.817 108.633 181.01 111.609Z" fill="white"/>
<path opacity="0.4" d="M182.281 109.846L182.762 109.096C174.517 107.543 162.551 101.144 150.139 89.8806C162.322 101.208 174.042 107.853 182.281 109.846Z" fill="white"/>
<path opacity="0.4" d="M183.418 108.023C183.559 107.765 183.693 107.507 183.828 107.244C175.624 106.658 163.254 100.862 150.426 89.8572C163.014 100.956 175.214 107.009 183.418 108.023Z" fill="white"/>
<path opacity="0.4" d="M150.602 89.8279C163.635 100.645 176.152 106.089 184.297 106.171C184.414 105.908 184.526 105.644 184.637 105.38C176.503 105.714 163.822 100.528 150.602 89.8279Z" fill="white"/>
</g>
<path opacity="0.2" d="M128.334 90.9882C126.113 96.6841 128.516 113.256 144.543 113.256C160.57 113.256 166.389 101.612 165.738 94.4163L187.133 90.9706C187.133 90.9706 193.691 109.09 179.767 121.765C165.844 134.44 117.581 133.62 107.379 123.986C97.1764 114.352 102.837 95.3187 102.837 95.3187L128.334 90.9882Z" fill="black"/>
<path d="M222.235 66.4114V62.4148C222.234 62.267 222.282 62.1229 222.369 62.0037C222.457 61.8845 222.58 61.7965 222.721 61.7527L225.651 60.8385V56.842C225.651 56.3633 225.841 55.9042 226.18 55.5657C226.518 55.2273 226.977 55.0371 227.456 55.0371H230.972C231.145 55.0338 231.313 55.098 231.44 55.2161C231.567 55.3342 231.643 55.4969 231.652 55.67V56.9592C231.652 57.1354 231.582 57.3044 231.458 57.4295C231.334 57.5546 231.166 57.6257 230.99 57.6272H226.519V61.5358C226.516 61.6537 226.485 61.7691 226.426 61.8715C226.368 61.9739 226.285 62.06 226.185 62.1218L223.688 63.6337V66.4172L222.235 66.4114Z" fill="#999999" stroke="#263238" stroke-linecap="round" stroke-linejoin="round"/>
<path d="M226.091 66.4114H222.235V77.9439H226.091V66.4114Z" fill="#263238"/>
<path d="M230.914 65.4327H226.091V78.9224H230.914V65.4327Z" fill="#757575"/>
<path opacity="0.2" d="M230.902 73.6484H226.091V78.9224H230.902V73.6484Z" fill="black"/>
<path d="M230.914 65.4327H226.091V78.9224H230.914V65.4327Z" stroke="#263238" stroke-linecap="round" stroke-linejoin="round"/>
<path d="M64.8702 77.938H68.7261V66.4055H64.8702V77.938Z" fill="#263238"/>
<path d="M60.0473 78.9166H64.8701V65.4269H60.0473V78.9166Z" fill="#757575"/>
<path opacity="0.2" d="M64.876 73.6484H60.0532V78.7935H64.876V73.6484Z" fill="black"/>
<path d="M60.0473 78.9166H64.8701V65.4269H60.0473V78.9166Z" stroke="#263238" stroke-linecap="round" stroke-linejoin="round"/>
<path d="M68.146 72.8632C68.4942 71.9496 68.5481 70.9501 68.3001 70.0044C68.0521 69.0588 67.5147 68.2143 66.763 67.5892L63.9268 65.2452C63.7463 65.0931 63.5365 64.9798 63.3103 64.9125C63.0841 64.8451 62.8465 64.8251 62.6122 64.8537C62.378 64.8823 62.1521 64.9589 61.9488 65.0787C61.7455 65.1985 61.569 65.3589 61.4304 65.5499L50.1851 81.0613C49.9711 81.3515 49.8561 81.7028 49.8569 82.0634V98.7234C49.8569 98.947 49.9013 99.1684 49.9876 99.3747C50.0739 99.581 50.2003 99.7681 50.3595 99.9251C50.5187 100.082 50.7075 100.206 50.915 100.289C51.1225 100.373 51.3445 100.414 51.5681 100.411C52.0157 100.411 52.4449 100.233 52.7614 99.9167C53.0779 99.6002 53.2557 99.171 53.2557 98.7234V85.1926C53.2568 84.8586 53.3612 84.5331 53.5546 84.2609L61.9637 72.5409C62.0373 72.438 62.1315 72.3515 62.2403 72.2869C62.3491 72.2222 62.4701 72.1809 62.5957 72.1655C62.7213 72.1501 62.8487 72.1609 62.9699 72.1973C63.0911 72.2336 63.2034 72.2948 63.2998 72.3768L64.8468 73.6894C65.2298 74.0145 65.7157 74.1931 66.2181 74.1934C66.6358 74.1909 67.0432 74.0627 67.387 73.8254C67.7309 73.5882 67.9954 73.2529 68.146 72.8632Z" fill="white" stroke="#263238" stroke-linecap="round" stroke-linejoin="round"/>
<path d="M65.8253 71.3455C66.2687 71.3455 66.6281 70.9861 66.6281 70.5427C66.6281 70.0993 66.2687 69.7399 65.8253 69.7399C65.3819 69.7399 65.0225 70.0993 65.0225 70.5427C65.0225 70.9861 65.3819 71.3455 65.8253 71.3455Z" fill="#999999" stroke="#263238" stroke-linecap="round" stroke-linejoin="round"/>
<path d="M218.66 60.8385H72.3066V83.505H218.66V60.8385Z" fill="#263238"/>
<path opacity="0.2" d="M216.545 62.5437H74.3634C73.9167 62.5437 73.5547 62.9058 73.5547 63.3524V67.0207C73.5547 67.4674 73.9167 67.8294 74.3634 67.8294H216.545C216.991 67.8294 217.353 67.4674 217.353 67.0207V63.3524C217.353 62.9058 216.991 62.5437 216.545 62.5437Z" fill="white"/>
<path d="M205.557 88.064H85.4273C82.042 80.3259 80.2484 71.9856 80.1533 63.5399H210.855C210.855 74.8966 205.557 88.064 205.557 88.064Z" fill="white"/>
<g opacity="0.7">
<path opacity="0.7" d="M95.1431 86.224C95.1431 86.224 97.7742 86.0834 99.2451 85.1985C100.716 84.3137 100.61 85.9955 101.454 86.1068C102.298 86.2182 104.291 85.5208 105.345 85.5208C106.4 85.5208 105.597 86.1654 106.787 86.1068C107.976 86.0482 107.338 86.1654 107.959 86.0482L113.051 85.1985C113.051 85.1985 115.635 84.7004 116.157 84.9524C116.679 85.2044 117.364 86.4467 118.126 86.1244C118.888 85.8021 118.483 85.5384 119.632 85.5384C120.342 85.5417 121.048 85.6443 121.73 85.8431C121.73 85.8431 121.835 85.5443 122.363 85.5384H123.306C123.306 85.5384 125.304 86.0658 125.621 86.0658C125.937 86.0658 128.299 85.5443 128.381 85.5384C128.463 85.5325 130.725 84.9524 130.725 84.9524C131.205 85.454 131.813 85.8147 132.483 85.9955C133.339 86.1068 134.241 85.8783 134.886 86.1654C135.53 86.4526 137.652 86.0482 137.652 86.0482C138.158 86.0515 138.663 86.0907 139.163 86.1654C139.82 86.3153 140.504 86.2951 141.15 86.1068C142.338 85.7926 143.585 85.7725 144.783 86.0482C146.688 86.394 148.44 85.5267 149.248 85.5208C150.057 85.515 153.292 85.8783 154.405 85.8783C155.519 85.8783 158.466 86.2768 160.517 86.0482C162.568 85.8197 163.91 86.3354 165.287 86.3354C166.664 86.3354 168.135 86.2768 168.452 86.2768C168.768 86.2768 170.292 85.2806 172.472 85.5208C174.652 85.7611 172.712 85.222 174.054 85.5208C175.396 85.8197 176.456 86.1068 177.025 86.1654C177.481 86.192 177.938 86.1724 178.39 86.1068L180.734 85.9369H192.419" stroke="#263238" stroke-linecap="round" stroke-linejoin="round"/>
<path opacity="0.7" d="M92.7109 81.7001C92.7109 81.7001 99.948 81.7001 101.255 81.5829C102.562 81.4657 103.259 80.7977 103.956 80.7977C104.654 80.7977 108.175 81.4657 108.175 81.4657C108.278 81.2472 108.446 81.0657 108.656 80.9461C108.866 80.8266 109.107 80.7747 109.347 80.7977C110.303 80.7977 109.816 80.8856 110.695 81.2372C111.574 81.5888 111.117 81.2372 111.58 81.5829C112.27 81.8928 113 82.1058 113.748 82.2158C113.748 82.2158 117.012 82.3681 117.135 81.5829C117.258 80.7977 118.893 82.2158 118.893 82.2158C118.893 82.2158 123.324 81.5829 125.035 81.5829C126.746 81.5829 131.035 81.2372 131.035 81.2372C131.035 81.2372 134.551 81.7001 134.715 81.7001C134.879 81.7001 135.46 82.6201 136.087 82.2158C136.714 81.8114 137.317 81.3485 138.061 81.4657C138.753 81.6371 139.421 81.8889 140.054 82.2158L141.689 81.3485L143.564 81.4657C143.564 81.4657 145.474 82.7373 146.84 82.2158C147.879 81.8003 148.895 81.3269 149.881 80.7977L151.563 82.2158H152.665L155.929 81.5829C156.18 81.8917 156.518 82.1173 156.9 82.2302C157.282 82.3432 157.689 82.3381 158.068 82.2158C159.45 81.8173 172.665 82.2158 176.028 82.2158C179.392 82.2158 180.13 81.3485 180.13 81.3485L182.721 82.2158H195.613" stroke="#263238" stroke-linecap="round" stroke-linejoin="round"/>
</g>
<path opacity="0.2" d="M206.782 84.677C206.073 86.7866 205.557 88.0641 205.557 88.0641H85.4274C85.4274 88.0641 84.8414 86.8335 84.0386 84.677H206.782Z" fill="black"/>
<path opacity="0.2" d="M209.284 75.8049C208.88 77.5629 208.434 79.2799 207.995 80.7976H82.7316C82.2979 79.3092 81.8526 77.6274 81.4658 75.8049H209.284Z" fill="black"/>
<path d="M205.557 88.064H85.4273C82.042 80.3259 80.2484 71.9856 80.1533 63.5399H210.855C210.855 74.8966 205.557 88.064 205.557 88.064Z" stroke="#263238" stroke-linecap="round" stroke-linejoin="round"/>
<path d="M72.2772 59.6724H68.6968V84.6828H72.2772V59.6724Z" fill="#757575"/>
<path opacity="0.2" d="M72.2069 77.264H68.7202V84.6828H72.2069V77.264Z" fill="black"/>
<path d="M72.2772 59.6724H68.6968V84.6828H72.2772V59.6724Z" stroke="#263238" stroke-linecap="round" stroke-linejoin="round"/>
<path d="M222.264 59.6724H218.684V84.6828H222.264V59.6724Z" fill="#757575"/>
<path opacity="0.2" d="M222.264 77.264H218.654V84.6828H222.264V77.264Z" fill="black"/>
<path d="M222.264 59.6724H218.684V84.6828H222.264V59.6724Z" stroke="#263238" stroke-linecap="round" stroke-linejoin="round"/>
<path d="M218.713 58.6234V76.8656H72.2482V58.6234H70.8418V78.0903H220.119V58.6234H218.713Z" fill="#999999" stroke="#263238" stroke-linecap="round" stroke-linejoin="round"/>
<path d="M227.368 89.3532V130.262C227.368 130.952 227.094 131.614 226.606 132.102C226.118 132.59 225.456 132.864 224.766 132.864H66.177C65.487 132.864 64.8252 132.59 64.3373 132.102C63.8493 131.614 63.5752 130.952 63.5752 130.262V89.3532C63.5752 88.6631 63.8493 88.0013 64.3373 87.5134C64.8252 87.0255 65.487 86.7513 66.177 86.7513H139.251V89.3532C139.251 89.3532 126.775 100.177 105.263 104.167C108.346 118.12 125.187 128.779 145.51 128.779C165.832 128.779 182.674 118.108 185.762 104.167C164.221 100.177 151.745 89.3532 151.745 89.3532V86.7279H224.784C225.126 86.7302 225.464 86.8 225.78 86.9332C226.095 87.0665 226.381 87.2606 226.621 87.5045C226.861 87.7483 227.05 88.0371 227.178 88.3544C227.307 88.6716 227.371 89.011 227.368 89.3532Z" fill="white" stroke="#263238" stroke-linecap="round" stroke-linejoin="round"/>
<path d="M227.368 89.3532V130.262C227.368 130.604 227.301 130.943 227.169 131.259C227.038 131.575 226.846 131.862 226.604 132.104C226.362 132.345 226.074 132.537 225.758 132.667C225.441 132.798 225.103 132.864 224.76 132.864H66.177C65.8349 132.864 65.4959 132.798 65.1796 132.667C64.8632 132.537 64.5757 132.345 64.3335 132.104C64.0912 131.862 63.8991 131.575 63.7679 131.259C63.6368 130.943 63.5693 130.604 63.5693 130.262V89.3532C63.5709 88.6621 63.8461 87.9997 64.3348 87.511C64.8235 87.0223 65.4859 86.747 66.177 86.7455H139.251V89.3532C139.251 89.3532 126.769 100.171 105.263 104.167C108.346 118.12 125.187 128.779 145.516 128.779C165.844 128.779 182.674 118.108 185.762 104.167C164.221 100.171 151.745 89.3532 151.745 89.3532V86.7279H224.784C225.474 86.7341 226.134 87.014 226.619 87.5062C227.103 87.9983 227.373 88.6626 227.368 89.3532Z" fill="white"/>
<path opacity="0.2" d="M223.852 89.9803V127.748C223.852 127.999 223.802 128.248 223.706 128.48C223.609 128.711 223.468 128.922 223.29 129.099C223.112 129.276 222.9 129.416 222.668 129.511C222.436 129.606 222.187 129.654 221.936 129.652H67.7356C67.4852 129.653 67.2372 129.605 67.0058 129.509C66.7744 129.414 66.5642 129.273 66.3872 129.096C66.2102 128.919 66.0699 128.709 65.9745 128.478C65.879 128.246 65.8303 127.998 65.8311 127.748V89.9803C65.8303 89.7294 65.8789 89.4809 65.9742 89.2488C66.0695 89.0167 66.2096 88.8057 66.3865 88.6278C66.5633 88.4498 66.7735 88.3085 67.0049 88.2117C67.2364 88.115 67.4847 88.0649 67.7356 88.0641H139.228V89.3533C139.228 89.3533 126.746 100.171 105.24 104.167C108.322 118.12 125.164 128.779 145.492 128.779C165.82 128.779 182.65 118.108 185.738 104.167C164.197 100.171 151.721 89.3533 151.721 89.3533V88.0641H221.953C222.458 88.0687 222.941 88.2727 223.297 88.6315C223.652 88.9904 223.852 89.4751 223.852 89.9803Z" fill="white"/>
<path d="M227.368 89.3532V130.262C227.368 130.604 227.301 130.943 227.169 131.259C227.038 131.575 226.846 131.862 226.604 132.104C226.362 132.345 226.074 132.537 225.758 132.667C225.441 132.798 225.103 132.864 224.76 132.864H66.177C65.8349 132.864 65.4959 132.798 65.1796 132.667C64.8632 132.537 64.5757 132.345 64.3335 132.104C64.0912 131.862 63.8991 131.575 63.7679 131.259C63.6368 130.943 63.5693 130.604 63.5693 130.262V89.3532C63.5709 88.6621 63.8461 87.9997 64.3348 87.511C64.8235 87.0223 65.4859 86.747 66.177 86.7455H139.251V89.3532C139.251 89.3532 126.769 100.171 105.263 104.167C108.346 118.12 125.187 128.779 145.516 128.779C165.844 128.779 182.674 118.108 185.762 104.167C164.221 100.171 151.745 89.3532 151.745 89.3532V86.7279H224.784C225.474 86.7341 226.134 87.014 226.619 87.5062C227.103 87.9983 227.373 88.6626 227.368 89.3532V89.3532Z" stroke="#263238" stroke-linecap="round" stroke-linejoin="round"/>
<path opacity="0.2" d="M174.98 144.988L182.768 166.711C182.768 166.711 186.137 142.802 188.147 142.802C190.157 142.802 194.488 155.876 194.488 155.876C194.488 155.876 197.16 149.055 199.691 148.809C202.223 148.563 204.514 165.557 204.514 165.557L204.907 203.278L201.713 260.325C201.713 260.325 181.338 237.881 175.396 232.097C169.454 226.313 163.775 213.585 162.134 211.001C160.494 208.417 160.078 194.886 160.078 194.886C162.155 192.228 163.241 188.929 163.148 185.557C163.148 185.557 167.93 177.552 167.637 171.645C167.344 165.738 166.606 142.785 174.98 144.988Z" fill="black" fill-opacity="0.7"/>
<path d="M236.281 250.222L205.434 266.448C205.434 266.284 201.379 259.715 196.48 252.285C194.265 248.921 191.874 245.388 189.606 242.188C185.891 236.955 181.168 232.437 180.764 231.452C179.592 228.522 170.555 217.553 168.534 213.286C166.512 209.02 166.049 195.747 165.158 192.624C164.268 189.501 166.823 186.518 168.874 185.065C170.925 183.611 173.075 179.791 173.075 179.791C173.075 179.791 170.807 170.954 170.784 166.459C170.761 161.965 169.231 146.277 171.059 144.812C172.888 143.347 174.523 143.963 174.98 144.971C176.48 148.293 177.828 156.65 178.982 160.5C180.137 164.35 182.305 175.519 183.371 176.322C184.438 177.124 186.336 174.112 186.336 174.112C186.336 174.112 186.518 164.736 186.922 160.851L186.336 148.545C186.336 148.545 185.241 141.15 187.79 140.447C191.306 139.48 192.589 141.689 192.988 142.621C193.386 143.552 195.027 148.92 195.027 148.92L195.121 149.289C195.121 149.325 195.121 149.36 195.121 149.401V149.465C195.148 149.567 195.177 149.678 195.208 149.799C195.273 150.045 195.349 150.338 195.431 150.672C196.211 153.725 197.711 159.837 197.646 161.343C197.558 163.377 196.849 174.64 197.851 176.978L199.41 161.42C199.41 161.42 196.896 149.43 197.629 147.701C198.361 145.973 201.813 147.883 202.223 148.563C202.633 149.242 205.985 153.356 206.583 154.927L207.169 156.497C207.169 156.497 207.995 152.782 209.935 153.749C211.874 154.716 212.115 159.439 212.249 161.502C212.384 163.564 213.791 176.831 214.007 176.855C214.224 176.878 216.463 183.77 216.158 188.323C215.519 198.068 217.207 205.317 217.266 209.056C217.324 212.794 214.505 221.455 214.505 221.455C214.605 221.625 216.445 224.754 216.949 227.503C217.318 229.519 223.887 236.803 229.255 242.598C232.988 246.595 236.117 249.865 236.281 250.222Z" fill="white"/>
<path opacity="0.4" d="M196.486 252.296C194.271 248.933 191.88 245.399 189.612 242.2C185.897 236.967 181.174 232.449 180.769 231.464C179.597 228.534 170.561 217.564 168.54 213.298C166.518 209.032 166.055 195.759 165.164 192.636C164.274 189.512 166.829 186.53 168.88 185.076C170.931 183.623 173.081 179.802 173.081 179.802C173.081 179.802 170.813 170.965 170.79 166.471C170.766 161.976 169.237 146.289 171.065 144.824C172.894 143.359 174.529 143.974 174.986 144.982C176.486 148.305 177.834 156.661 178.988 160.511C180.142 164.361 182.311 175.53 183.377 176.333C184.444 177.136 186.342 174.124 186.342 174.124C186.342 174.124 186.524 164.748 186.928 160.863L186.342 148.557C186.342 148.557 185.246 141.162 187.796 140.458C191.312 139.491 192.595 141.701 192.993 142.632C193.392 143.564 195.033 148.932 195.033 148.932L195.126 149.301C195.126 149.336 195.126 149.371 195.126 149.412V149.477C195.15 149.578 195.179 149.69 195.214 149.811C195.279 150.057 195.355 150.35 195.437 150.684C194.529 149.248 193.281 148.024 191.61 147.701C186.922 146.787 187.936 152.003 188.382 155.132C188.634 157.208 188.585 159.31 188.235 161.373L189.407 160.699C188.563 162.205 187.356 174.722 187.356 177.505C187.356 180.289 185.153 181.215 183.178 180.4C181.203 179.586 180.5 166.811 179 164.519C177.5 162.228 173.327 166.606 173.14 170.608C172.952 174.61 176.685 186.547 175.8 189.36C174.915 192.173 174.927 202.838 174.927 202.838L173.849 200.09C173.919 200.465 173.849 201.725 171.593 205.434C170.745 206.777 170.197 208.286 169.986 209.86C169.775 211.433 169.905 213.034 170.368 214.552C171.745 217.594 178.73 225.61 179.902 226.436C179.902 226.436 180.752 222.955 183.418 223.881C182.51 225.325 181.849 226.909 181.461 228.569C180.91 231.124 186.471 232.759 188.212 235.191C189.278 236.674 189.993 241.192 196.486 252.296Z" fill="white"/>
<path opacity="0.4" d="M229.29 242.604C223.805 237.078 214.154 231.816 214.74 230.439C215.525 228.587 214.529 224.643 212.841 221.444C211.153 218.244 213.427 213.052 213.427 213.052L214.47 216.07C215.305 212.589 215.402 208.972 214.757 205.452C213.691 199.469 212.859 201.572 212.859 201.572C212.859 201.572 213.075 196.181 214.031 193.239C214.986 190.298 215.789 183.154 214.47 178.929C213.152 174.704 210.368 175.501 209.624 176.954C208.88 178.408 209.677 184.074 210.292 185.932C210.907 187.79 208.288 190.913 208.235 188.592C208.182 186.272 207.192 179.802 207.192 179.802L209.178 166.811L207.192 156.491C207.192 156.491 208.018 152.776 209.958 153.743C211.897 154.71 212.138 159.433 212.273 161.496C212.407 163.558 213.814 176.826 214.031 176.849C214.247 176.872 216.486 183.764 216.181 188.317C215.542 198.062 217.23 205.311 217.289 209.05C217.347 212.788 214.529 221.449 214.529 221.449C214.628 221.619 216.468 224.749 216.972 227.497C217.341 229.513 223.91 236.797 229.278 242.592L229.29 242.604Z" fill="white"/>
<path opacity="0.4" d="M206.582 154.927C206.694 155.22 206.787 155.46 206.858 155.653C204.994 151.323 201.818 152.665 201.256 153.895C200.693 155.126 202.586 162.762 203.014 163.945C203.441 165.129 201.314 174.581 201.004 177.71C200.693 180.84 199.867 181.478 199.867 181.478C197.763 181.637 197.523 175.829 197.523 175.032C197.564 175.699 197.694 176.357 197.91 176.99L199.468 161.431C199.468 161.431 196.896 149.43 197.628 147.701C198.361 145.973 201.812 147.883 202.223 148.563C202.633 149.242 205.985 153.356 206.582 154.927Z" fill="white"/>
<path d="M236.281 250.222C235.883 249.32 217.582 230.884 216.943 227.497C216.428 224.672 214.494 221.444 214.494 221.444C214.494 221.444 217.312 212.8 217.254 209.044C217.195 205.288 215.496 198.056 216.146 188.311C216.451 183.758 214.218 176.867 213.996 176.843C213.773 176.82 212.367 163.553 212.238 161.49C212.109 159.427 211.868 154.704 209.923 153.737C207.977 152.77 207.157 156.485 207.157 156.485L206.571 154.915C205.985 153.344 202.621 149.231 202.211 148.551C201.801 147.871 198.355 145.955 197.617 147.69C196.879 149.424 199.451 161.396 199.451 161.396L197.904 176.972C196.902 174.628 197.611 163.371 197.699 161.338C197.787 159.304 195.033 148.914 195.033 148.914C195.033 148.914 193.38 143.57 192.993 142.609C192.607 141.648 191.312 139.468 187.796 140.435C185.246 141.138 186.342 148.533 186.342 148.533L186.928 160.839C186.536 164.742 186.342 174.101 186.342 174.101C186.342 174.101 184.444 177.107 183.377 176.31C182.311 175.513 180.142 164.35 178.988 160.488C177.834 156.626 176.486 148.281 174.986 144.959C174.529 143.951 172.894 143.336 171.065 144.801C169.237 146.266 170.761 161.947 170.79 166.447C170.819 170.948 173.081 179.779 173.081 179.779C173.081 179.779 170.931 183.576 168.88 185.053C166.829 186.53 164.274 189.483 165.164 192.612C166.055 195.742 166.518 209.02 168.54 213.275C170.561 217.529 179.574 228.511 180.769 231.441C181.174 232.425 185.897 236.943 189.612 242.176C196.908 252.449 205.434 266.202 205.434 266.437" stroke="#263238" stroke-linecap="round" stroke-linejoin="round"/>
<path d="M173.075 179.808C173.075 179.808 174.529 187.01 174.476 188.217C174.476 188.217 173.204 193.778 173.192 197.382C172.303 198.74 171.504 200.156 170.802 201.619C170.309 202.92 169.43 206.12 169.794 207.901" stroke="#263238" stroke-linecap="round" stroke-linejoin="round"/>
<path d="M170.42 190.45C170.42 190.45 173.983 190.479 173.755 191.979" stroke="#263238" stroke-linecap="round" stroke-linejoin="round"/>
<path d="M173.192 197.382C173.192 197.382 170.907 196.392 170.104 197.722" stroke="#263238" stroke-linecap="round" stroke-linejoin="round"/>
<path d="M186.348 174.124C186.348 174.124 186.184 179.644 184.73 179.205" stroke="#263238" stroke-linecap="round" stroke-linejoin="round"/>
<path d="M197.904 176.972C197.904 176.972 197.482 179.99 198.619 180.922" stroke="#263238" stroke-linecap="round" stroke-linejoin="round"/>
<path d="M207.174 156.497C207.174 156.497 208.757 164.115 209.12 165.92C209.483 167.725 207.321 176.937 207.362 179.334C207.403 181.73 208.428 185.158 208.288 186.77" stroke="#263238" stroke-linecap="round" stroke-linejoin="round"/>
<path d="M213.492 214.353C213.492 214.353 212.982 219.328 214.511 221.455" stroke="#263238" stroke-linecap="round" stroke-linejoin="round"/>
<path d="M182.768 224.198C182.768 224.198 179.357 227.304 180.605 231.124" stroke="#263238" stroke-linecap="round" stroke-linejoin="round"/>
<path d="M205.182 185.475C205.235 187.666 203.952 190.221 203.817 193.251" stroke="#263238" stroke-linecap="round" stroke-linejoin="round"/>
<path d="M194.318 183.518C195.044 185.311 193.462 189.213 193.222 190.678C193.126 191.825 193.251 192.979 193.591 194.077" stroke="#263238" stroke-linecap="round" stroke-linejoin="round"/>
<path d="M214.739 189.694C214.446 191.599 213.099 192.958 212.841 198.818" stroke="#263238" stroke-linecap="round" stroke-linejoin="round"/>
<path d="M181.467 182.961C182.451 184.033 181.789 189.155 182.053 189.993" stroke="#263238" stroke-linecap="round" stroke-linejoin="round"/>
<path d="M199.826 153.456C199.826 153.456 203.178 151.001 206.061 153.895" stroke="#263238" stroke-linecap="round" stroke-linejoin="round"/>
<path d="M188.282 147.813C188.282 147.813 188.868 146.834 191.698 147.074C194.528 147.314 195.032 148.908 195.032 148.908" stroke="#263238" stroke-linecap="round" stroke-linejoin="round"/>
<path d="M180.013 164.543C180.013 164.543 179.064 163.142 176.562 163.605C174.06 164.068 172.946 167.608 172.946 167.608" fill="white"/>
<path d="M180.013 164.543C180.013 164.543 179.064 163.142 176.562 163.605C174.06 164.068 172.946 167.608 172.946 167.608" stroke="#263238" stroke-linecap="round" stroke-linejoin="round"/>
<path d="M214.013 176.855C214.013 176.855 211.927 173.831 209.419 175.126" stroke="#263238" stroke-linecap="round" stroke-linejoin="round"/>
<path opacity="0.2" d="M125.141 154.704C128.657 157.429 125.691 174.153 125.691 174.153L126.002 179.597L132.032 176.972L134.78 188.604C134.78 188.604 134.71 192.864 136.943 194.464C136.943 194.464 137.493 204.022 136.943 211.007C136.392 217.992 125.223 226.202 121.373 233.533C117.523 240.864 92.4124 262.411 92.4124 262.411L71.1523 252.296L86.5231 190.216L100.294 172.513L108.457 152.149C108.457 152.149 109.858 165.451 109.043 174.417L125.141 154.704Z" fill="black" fill-opacity="0.7"/>
<path d="M131.059 191.856C130.526 194.423 131.809 208.493 131.586 210.392C131.364 212.29 120.171 225.042 119.608 226.008C119.046 226.975 111.563 231.283 109.822 233.339C101.689 242.827 97.2467 251.564 93.678 260.325C92.9924 262.012 92.336 263.706 91.6914 265.405L59.4146 246.653C62.1277 243.29 64.6886 240.301 67.0326 237.582C71.7206 232.068 75.4534 227.655 77.2817 223.489C77.8428 222.425 78.4854 221.406 79.2038 220.441C79.9304 219.41 80.5809 218.56 80.5809 218.56C80.5809 218.56 78.2369 211.956 78.7819 209.882C79.3268 207.807 78.108 190.755 78.108 190.755C78.108 190.755 76.5199 179.146 74.9553 176.216C74.571 175.451 74.3971 174.598 74.4513 173.743C74.5275 171.065 76.0804 167.69 76.8422 163.781C77.8618 158.507 77.3696 155.899 80.5692 157.722C83.7687 159.544 82.2744 170.614 82.2744 170.614L87.1089 181.326C88.3805 178.736 87.1089 171.176 87.0445 169.389C87.0445 169.096 87.0445 168.61 86.9976 167.977C86.898 164.895 86.6929 158.478 86.9566 155.946C86.9566 155.806 86.9566 155.677 87.0034 155.56C87.3961 152.946 88.7966 144.631 89.6873 143.705C91.0117 142.334 93.1154 141.179 95.0961 144.291C96.2036 146.049 95.729 159.99 95.729 159.99C95.729 159.99 100.323 154.446 101.718 153.093C103.113 151.739 107.344 149.266 108.474 152.131C109.605 154.997 105.433 163.851 105.433 163.851C106.306 165.902 106.412 171.581 106.412 171.581C106.412 171.581 108.387 178.677 109.6 178.613H109.652C110.004 178.537 110.391 177.247 110.795 175.437C111.791 171.001 112.875 163.412 113.725 162.75L114.311 162.281C114.338 162.247 114.369 162.218 114.405 162.193L114.622 162C116.696 160.154 121.068 156.052 121.068 156.052C121.068 156.052 121.378 154.089 125.205 154.692C129.031 155.296 123.505 166.588 123.505 166.588C122.738 170.18 121.56 179.421 121.56 179.421C121.202 183.266 121.413 193.597 121.413 193.597C121.413 193.597 123.224 187.584 123.107 185.393C122.99 183.201 126.705 177.833 127.795 176.45C128.885 175.068 133.749 175.554 132.395 178.208C131.041 180.863 131.592 189.278 131.059 191.856Z" fill="white"/>
<path opacity="0.4" d="M77.2643 223.512C77.8254 222.448 78.468 221.429 79.1864 220.465C79.1864 220.465 77.2819 225.739 77.0943 228.546C76.9713 230.398 72.0958 233.603 67.0151 237.605C71.7324 232.091 75.436 227.679 77.2643 223.512Z" fill="white"/>
<path opacity="0.4" d="M79.186 220.465C79.9126 219.434 80.5631 218.584 80.5631 218.584C80.5631 218.584 78.2191 211.98 78.7641 209.905C79.3091 207.831 78.0902 190.778 78.0902 190.778C78.0902 190.778 76.5021 179.17 74.9375 176.24L78.5824 182.609C78.5824 182.609 78.225 187.643 79.2622 190.403C80.2994 193.163 81.6062 201.584 81.6062 201.584C81.6062 201.584 80.0709 208.663 80.5924 211.212C81.1139 213.761 83.4638 212.835 83.4638 212.835C83.4638 212.835 84.6182 217.5 79.186 220.465Z" fill="white"/>
<path opacity="0.4" d="M87.6889 172.512C90.2029 187.233 85.8723 183.16 84.3077 179.984C82.7431 176.808 79.0689 170.796 76.3029 172.079C75.5262 172.443 74.8755 173.031 74.4336 173.767C74.5098 171.089 76.0627 167.713 76.8245 163.805C77.8441 158.531 77.3519 155.923 80.5514 157.745C83.751 159.568 82.2567 170.637 82.2567 170.637L87.0912 181.349C88.3628 178.759 87.0912 171.2 87.0267 169.413C87.0267 169.12 87.0267 168.633 86.9799 168C87.1732 169.354 87.4076 170.86 87.6889 172.512Z" fill="white"/>
<path opacity="0.4" d="M93.842 157.968C93.842 157.968 91.1289 154.417 88.7731 154.599C88.3686 154.62 87.9794 154.76 87.6534 155.001C87.3275 155.241 87.0791 155.572 86.939 155.952C86.939 155.812 86.939 155.683 86.9858 155.565C87.3785 152.952 88.779 144.637 89.6697 143.711C90.9941 142.339 93.0978 141.185 95.0785 144.297C96.186 146.055 95.7114 159.996 95.7114 159.996C95.7114 159.996 100.306 154.452 101.7 153.098C103.095 151.745 107.326 149.272 108.457 152.137C109.588 155.003 105.416 163.857 105.416 163.857C106.289 165.908 106.394 171.587 106.394 171.587C106.394 171.587 108.369 178.683 109.582 178.619C106.91 183.647 105.128 172.53 105.128 172.53C105.527 170.233 104.109 165.252 104.249 163.939C104.39 162.627 101.788 157.986 97.4049 159.251C93.0216 160.517 96.186 177.839 96.186 177.839C95.3199 179.219 94.816 180.795 94.721 182.422C93.3674 180.752 94.721 175.976 94.721 175.976C93.5197 171.405 93.842 157.968 93.842 157.968Z" fill="white"/>
<path opacity="0.4" d="M114.27 162.263C112.401 164.227 112.658 169.19 110.754 175.419C111.75 170.983 112.834 163.394 113.684 162.732L114.27 162.263Z" fill="white"/>
<path opacity="0.4" d="M131.059 191.856C130.525 194.423 131.809 208.493 131.586 210.391C131.363 212.29 120.171 225.041 119.608 226.008C119.046 226.975 111.562 231.282 109.822 233.339C101.688 242.827 97.2465 251.564 93.6777 260.325C95.022 255.783 96.6444 251.329 98.5357 246.987C102.386 238.332 103.956 236.791 106.265 234.318C108.574 231.845 108.322 226.589 108.322 226.589C110.026 226.178 111.773 225.972 113.526 225.973C116.456 225.973 125.128 213.609 128.111 211.44C131.094 209.272 131.627 209.272 128.111 204.49C124.595 199.709 125.591 205.258 124.536 205.076C123.482 204.895 122.907 207.204 122.907 207.204C122.538 202.328 119.391 196.656 118.729 195.238C118.067 193.819 120.335 185.504 119.866 183.189C119.397 180.875 121.882 166.781 121.882 166.781C121.882 166.781 121.571 161.373 116.672 161.355C115.921 161.313 115.178 161.537 114.574 161.988C116.649 160.142 121.02 156.04 121.02 156.04C121.02 156.04 121.331 154.077 125.158 154.68C128.984 155.284 123.458 166.576 123.458 166.576C122.691 170.168 121.513 179.41 121.513 179.41C121.155 183.254 121.366 193.585 121.366 193.585C121.366 193.585 123.177 187.573 123.06 185.381C122.943 183.189 126.658 177.822 127.748 176.439C128.838 175.056 133.702 175.542 132.348 178.197C130.994 180.851 131.592 189.278 131.059 191.856Z" fill="white"/>
<path d="M91.6856 265.458C95.6645 254.951 100.112 244.696 109.822 233.369C111.58 231.341 119.04 227.034 119.608 226.038C120.177 225.042 131.369 212.314 131.586 210.421C131.803 208.528 130.526 194.452 131.059 191.886C131.592 189.319 130.971 180.857 132.319 178.22C133.667 175.583 128.803 175.103 127.719 176.462C126.635 177.822 122.931 183.236 123.031 185.405C123.13 187.573 121.337 193.609 121.337 193.609C121.337 193.609 121.126 183.277 121.484 179.433C121.484 179.433 122.656 170.192 123.429 166.6C123.429 166.6 128.949 155.302 125.129 154.704C121.308 154.106 120.991 156.063 120.991 156.063C120.991 156.063 114.891 161.795 113.684 162.732C112.477 163.67 110.83 178.32 109.617 178.595C108.404 178.871 106.377 171.563 106.377 171.563C106.377 171.563 106.271 165.885 105.398 163.834C105.398 163.834 109.564 155.003 108.439 152.114C107.314 149.225 103.083 151.727 101.683 153.075C100.282 154.423 95.6938 159.972 95.6938 159.972C95.6938 159.972 96.1685 146.019 95.0609 144.273C93.0802 141.15 90.9589 142.304 89.6521 143.687C88.7614 144.613 87.3609 152.928 86.9683 155.542C86.5756 158.156 86.9683 167.578 87.0093 169.372C87.0503 171.165 88.3454 178.718 87.0737 181.308L82.2392 170.596C82.2392 170.596 83.7394 159.515 80.534 157.704C77.3286 155.894 77.8267 158.507 76.807 163.764C75.7874 169.02 73.3613 173.292 74.9201 176.228C76.4789 179.164 78.0728 190.766 78.0728 190.766C78.0728 190.766 79.2799 207.819 78.7467 209.893C78.2134 211.968 80.5633 218.578 80.5633 218.578C80.5633 218.578 77.856 222.147 77.2641 223.506C74.5334 229.712 67.6244 236.498 59.4087 246.706" stroke="#263238" stroke-linecap="round" stroke-linejoin="round"/>
<path d="M95.7113 160.007C95.0308 161.014 94.6862 162.21 94.7269 163.424C94.7269 165.651 96.186 177.839 96.186 177.839C96.186 177.839 95.1253 179.093 95.0726 180.183" stroke="#263238" stroke-linecap="round" stroke-linejoin="round"/>
<path d="M121.349 193.579C121.509 195.638 122.039 197.651 122.914 199.521C124.285 202.229 123.84 203.723 123.371 205.323C123.057 206.725 122.89 208.157 122.873 209.595" stroke="#263238" stroke-linecap="round" stroke-linejoin="round"/>
<path d="M87.607 178.923C87.607 178.923 88.6267 182.158 86.7339 183.693" stroke="#263238" stroke-linecap="round" stroke-linejoin="round"/>
<path d="M109.635 178.595C109.635 178.595 109.834 179.867 108.035 179.984" stroke="#263238" stroke-linecap="round" stroke-linejoin="round"/>
<path d="M121.718 163.945C121.718 163.945 117.206 159.023 113.702 162.732" stroke="#263238" stroke-linecap="round" stroke-linejoin="round"/>
<path d="M103.435 161.179C103.435 161.179 101.355 158.548 99.5498 158.706C97.7449 158.865 95.3072 159.966 95.0317 161.414" stroke="#263238" stroke-linecap="round" stroke-linejoin="round"/>
<path d="M123.757 203.74C124.485 204.782 125.015 205.948 125.322 207.18" stroke="#263238" stroke-linecap="round" stroke-linejoin="round"/>
<path d="M112.037 183.734C110.637 186.342 111.305 190.766 110.789 191.979" stroke="#263238" stroke-linecap="round" stroke-linejoin="round"/>
<path d="M97.2 179.404C97.5282 180.904 96.491 183.348 96.3327 185.147C96.1745 186.946 97.6454 189.723 97.3758 192.249" stroke="#263238" stroke-linecap="round" stroke-linejoin="round"/>
<path d="M87.6893 185.545C87.6893 185.545 86.4645 188.37 86.5173 190.233C86.57 192.097 87.2322 196.181 87.2322 196.181" stroke="#263238" stroke-linecap="round" stroke-linejoin="round"/>
<path d="M78.6821 185.41C78.6821 185.41 78.2367 188.34 79.2681 190.403C80.2994 192.466 81.3015 196.849 81.3015 196.849" stroke="#263238" stroke-linecap="round" stroke-linejoin="round"/>
<path d="M80.5635 218.578C81.1036 218.428 81.5864 218.12 81.949 217.693C82.3116 217.265 82.5373 216.739 82.5969 216.181" stroke="#263238" stroke-linecap="round" stroke-linejoin="round"/>
<path d="M110.022 227.509C110.022 227.509 111.141 231.652 108.996 234.318" stroke="#263238" stroke-linecap="round" stroke-linejoin="round"/>
<path d="M74.4629 173.274C74.4629 173.274 77.6156 170.198 80.0006 172.794" stroke="#263238" stroke-linecap="round" stroke-linejoin="round"/>
<path d="M86.9858 155.565C86.9858 155.565 89.3298 153.11 92.0723 155.735" stroke="#263238" stroke-linecap="round" stroke-linejoin="round"/>
</svg>
