<svg width="311" height="311" viewBox="0 0 311 311" fill="none" xmlns="http://www.w3.org/2000/svg">
<path d="M249.857 270.11C259.809 263.088 267.959 253.812 273.643 243.04C309.196 176.43 301.166 78.2103 232.696 36.0822C201.049 16.6136 155.5 4.29181 121.29 24.2891C93.5486 40.5046 76.5432 71.0386 62.4735 98.8171C53.6349 116.314 46.3513 135.092 35.4538 151.438C21.322 172.636 5.76577 200.95 21.4713 225.581C42.8743 259.131 83.2981 274.451 119.953 284.54C159.723 295.481 204.445 297.036 241.18 275.689C244.154 273.96 247.046 272.1 249.857 270.11Z" fill="#C8C8C8"/>
<path opacity="0.7" d="M249.857 270.11C259.809 263.088 267.959 253.812 273.643 243.04C309.196 176.43 301.166 78.2103 232.696 36.0822C201.049 16.6136 155.5 4.29181 121.29 24.2891C93.5486 40.5046 76.5432 71.0386 62.4735 98.8171C53.6349 116.314 46.3513 135.092 35.4538 151.438C21.322 172.636 5.76577 200.95 21.4713 225.581C42.8743 259.131 83.2981 274.451 119.953 284.54C159.723 295.481 204.445 297.036 241.18 275.689C244.154 273.96 247.046 272.1 249.857 270.11Z" fill="white"/>
<g opacity="0.3">
<path opacity="0.3" d="M281.144 50.0522H217.078V134.19H281.144V50.0522Z" stroke="black" stroke-miterlimit="10"/>
<path opacity="0.3" d="M269.388 65.4902H228.834V118.752H269.388V65.4902Z" stroke="black" stroke-miterlimit="10"/>
</g>
<path d="M202.069 40.6228H32.4497V191.607H202.069V40.6228Z" fill="#263238" stroke="#263238" stroke-miterlimit="10"/>
<path d="M198.853 36.9468H29.2339V187.931H198.853V36.9468Z" fill="white" stroke="#263238" stroke-linecap="round" stroke-linejoin="round"/>
<path d="M165.825 97.8779H174.259V89.4436H165.825V97.8779Z" fill="white" stroke="#263238" stroke-linecap="round" stroke-linejoin="round"/>
<path d="M176.866 97.8779H185.3V89.4436H176.866V97.8779Z" fill="white" stroke="#263238" stroke-linecap="round" stroke-linejoin="round"/>
<path d="M162.454 94.1709H119.604" stroke="#263238" stroke-linecap="round" stroke-linejoin="round"/>
<path d="M165.825 117.788H174.259V109.354H165.825V117.788Z" fill="white" stroke="#263238" stroke-linecap="round" stroke-linejoin="round"/>
<path d="M176.866 117.788H185.3V109.354H176.866V117.788Z" fill="white" stroke="#263238" stroke-linecap="round" stroke-linejoin="round"/>
<path d="M162.454 114.075H119.604" stroke="#263238" stroke-linecap="round" stroke-linejoin="round"/>
<path d="M165.825 137.698H174.259V129.264H165.825V137.698Z" fill="white" stroke="#263238" stroke-linecap="round" stroke-linejoin="round"/>
<path d="M176.866 137.698H185.3V129.264H176.866V137.698Z" fill="white" stroke="#263238" stroke-linecap="round" stroke-linejoin="round"/>
<path d="M162.454 133.985H119.604" stroke="#263238" stroke-linecap="round" stroke-linejoin="round"/>
<path d="M85.1892 97.8779H93.6235V89.4436H85.1892V97.8779Z" fill="white" stroke="#263238" stroke-linecap="round" stroke-linejoin="round"/>
<path d="M96.2356 97.8779H104.67V89.4436H96.2356V97.8779Z" fill="white" stroke="#263238" stroke-linecap="round" stroke-linejoin="round"/>
<path d="M81.8178 94.1709H38.9683" stroke="#263238" stroke-linecap="round" stroke-linejoin="round"/>
<path d="M85.1892 117.788H93.6235V109.354H85.1892V117.788Z" fill="white" stroke="#263238" stroke-linecap="round" stroke-linejoin="round"/>
<path d="M96.2356 117.788H104.67V109.354H96.2356V117.788Z" fill="white" stroke="#263238" stroke-linecap="round" stroke-linejoin="round"/>
<path d="M81.8178 114.075H38.9683" stroke="#263238" stroke-linecap="round" stroke-linejoin="round"/>
<path d="M85.1892 137.698H93.6235V129.264H85.1892V137.698Z" fill="white" stroke="#263238" stroke-linecap="round" stroke-linejoin="round"/>
<path d="M96.2356 137.698H104.67V129.264H96.2356V137.698Z" fill="white" stroke="#263238" stroke-linecap="round" stroke-linejoin="round"/>
<path d="M81.8178 133.985H38.9683" stroke="#263238" stroke-linecap="round" stroke-linejoin="round"/>
<path d="M50.923 166.696H41.6304V175.989H50.923V166.696Z" fill="white" stroke="#263238" stroke-linecap="round" stroke-linejoin="round"/>
<path d="M88.8464 166.696H79.5537V175.989H88.8464V166.696Z" fill="white" stroke="#263238" stroke-linecap="round" stroke-linejoin="round"/>
<path d="M128.275 166.696H118.982V175.989H128.275V166.696Z" fill="white" stroke="#263238" stroke-linecap="round" stroke-linejoin="round"/>
<path d="M99.0034 92.2674L100.44 95.1535L107.4 88.4297" stroke="#263238" stroke-width="2" stroke-linecap="round" stroke-linejoin="round"/>
<path d="M99.0034 111.954L100.44 114.834L107.4 108.11" stroke="#263238" stroke-width="2" stroke-linecap="round" stroke-linejoin="round"/>
<path d="M86.999 132.598L88.4421 135.478L95.4023 128.754" stroke="#263238" stroke-width="2" stroke-linecap="round" stroke-linejoin="round"/>
<path d="M179.173 92.0312L180.61 94.9111L187.57 88.1873" stroke="#263238" stroke-width="2" stroke-linecap="round" stroke-linejoin="round"/>
<path d="M167.554 112.19L168.991 115.07L175.951 108.352" stroke="#263238" stroke-width="2" stroke-linecap="round" stroke-linejoin="round"/>
<path d="M167.554 132.418L168.991 135.297L175.951 128.58" stroke="#263238" stroke-width="2" stroke-linecap="round" stroke-linejoin="round"/>
<path d="M198.853 36.9468H29.2339V60.533H198.853V36.9468Z" fill="white" stroke="#263238" stroke-linecap="round" stroke-linejoin="round"/>
<path d="M198.853 36.9468H192.465V187.931H198.853V36.9468Z" fill="#DBDBDB" stroke="#263238" stroke-linecap="round" stroke-linejoin="round"/>
<path d="M198.853 59.6375H192.465V88.7782H198.853V59.6375Z" fill="#949494" stroke="#263238" stroke-linecap="round" stroke-linejoin="round"/>
<path d="M198.853 36.9468H29.2339V48.4165H198.853V36.9468Z" fill="#DBDBDB" stroke="#263238" stroke-linecap="round" stroke-linejoin="round"/>
<path d="M104.726 40.2869H37.8359V45.0638H104.726V40.2869Z" fill="white" stroke="#263238" stroke-linecap="round" stroke-linejoin="round"/>
<path d="M188.839 40.5107H194.711" stroke="#263238" stroke-linecap="round" stroke-linejoin="round"/>
<path d="M188.839 42.9927H194.711" stroke="#263238" stroke-linecap="round" stroke-linejoin="round"/>
<path d="M188.839 45.4807H194.711" stroke="#263238" stroke-linecap="round" stroke-linejoin="round"/>
<path d="M88.4858 70.0746C88.4858 68.6004 89.2633 67.7607 90.6815 67.7607C92.0997 67.7607 92.8709 68.6004 92.8709 70.0746V74.8515C92.8709 76.3195 92.0997 77.1592 90.6815 77.1592C89.2633 77.1592 88.4858 76.3195 88.4858 74.8515V70.0746ZM89.9351 74.9448C89.9351 75.5979 90.2212 75.8467 90.6815 75.8467C91.1418 75.8467 91.4279 75.5979 91.4279 74.9448V69.9688C91.4279 69.3095 91.1418 69.0607 90.6815 69.0607C90.2212 69.0607 89.9351 69.3095 89.9351 69.9688V74.9448Z" fill="#263238"/>
<path d="M95.091 70.4042V77.0534H93.791V67.8665H95.601L97.0876 73.3649V67.8665H98.3752V77.0534H96.8886L95.091 70.4042Z" fill="#263238"/>
<path d="M99.4077 67.8665H100.857V75.741H103.252V77.0534H99.4264L99.4077 67.8665Z" fill="#263238"/>
<path d="M103.874 67.8665H105.317V77.0534H103.874V67.8665Z" fill="#263238"/>
<path d="M107.643 70.4042V77.0534H106.362V67.8665H108.172L109.658 73.3649V67.8665H110.94V77.0534H109.472L107.643 70.4042Z" fill="#263238"/>
<path d="M113.403 71.7415H115.387V73.0539H113.403V75.741H115.891V77.0534H111.96V67.8665H115.897V69.1789H113.409L113.403 71.7415Z" fill="#263238"/>
<path d="M118.41 67.8665H122.87V69.1789H121.358V77.0534H119.915V69.1789H118.41V67.8665Z" fill="#263238"/>
<path d="M124.947 71.7415H126.925V73.0539H124.947V75.741H127.435V77.0534H123.498V67.8665H127.435V69.1789H124.947V71.7415Z" fill="#263238"/>
<path d="M130.272 67.7607C131.677 67.7607 132.399 68.6004 132.399 70.0746V70.3607H131.037V69.9813C131.037 69.322 130.775 69.0732 130.315 69.0732C129.855 69.0732 129.594 69.322 129.594 69.9813C129.594 71.8473 132.411 72.2267 132.411 74.8515C132.411 76.3195 131.677 77.1592 130.259 77.1592C128.841 77.1592 128.132 76.3195 128.132 74.8515V74.2855H129.5V74.9448C129.5 75.5979 129.786 75.8343 130.247 75.8343C130.707 75.8343 130.993 75.5979 130.993 74.9448C130.993 73.0788 128.175 72.6994 128.175 70.0746C128.132 68.6004 128.872 67.7607 130.272 67.7607Z" fill="#263238"/>
<path d="M132.822 67.8665H137.282V69.1789H135.776V77.0534H134.352V69.1789H132.84L132.822 67.8665Z" fill="#263238"/>
<path d="M48.864 164.457H47.4023L47.1535 162.79H45.4057L45.1569 164.457H43.8071L45.275 155.27H47.3898L48.864 164.457ZM45.5674 161.54H46.9607L46.264 156.893L45.5674 161.54Z" fill="#263238"/>
<path d="M86.178 157.366V157.689C86.178 158.635 85.8919 159.238 85.245 159.555C86.0225 159.854 86.3211 160.551 86.3211 161.521V162.274C86.3211 163.692 85.5747 164.451 84.1316 164.451H81.8613V155.27H84.0383C85.5373 155.27 86.178 155.966 86.178 157.366ZM83.3044 156.564V158.989H83.8704C84.4053 158.989 84.735 158.753 84.735 158.019V157.509C84.735 156.85 84.511 156.564 84.001 156.564H83.3044ZM83.3044 160.296V163.119H84.1316C84.6168 163.119 84.878 162.895 84.878 162.211V161.415C84.878 160.557 84.6043 160.296 83.9512 160.296H83.3044Z" fill="#263238"/>
<path d="M125.98 161.03V162.274C125.98 163.748 125.246 164.587 123.827 164.587C122.409 164.587 121.675 163.748 121.675 162.274V157.497C121.675 156.029 122.409 155.189 123.827 155.189C125.246 155.189 125.98 156.029 125.98 157.497V158.392H124.617V157.366C124.617 156.707 124.325 156.458 123.865 156.458C123.404 156.458 123.118 156.707 123.118 157.366V162.342C123.118 163.001 123.411 163.238 123.865 163.238C124.319 163.238 124.617 163.001 124.617 162.342V161.03H125.98Z" fill="#263238"/>
<path d="M39.6211 150.375H149.871" stroke="#263238" stroke-linecap="round" stroke-linejoin="round"/>
<path opacity="0.3" d="M220.704 37.687H232.877V25.5145H220.704V37.687Z" stroke="black" stroke-linecap="round" stroke-linejoin="round"/>
<path opacity="0.3" d="M236.646 37.687H248.818V25.5145H236.646V37.687Z" stroke="black" stroke-linecap="round" stroke-linejoin="round"/>
<path opacity="0.3" d="M223.322 30.3286L225.4 34.4836L231.508 27.7598" stroke="black" stroke-width="2" stroke-linecap="round" stroke-linejoin="round"/>
<path opacity="0.3" d="M36.4368 216.276H48.6094V204.103H36.4368V216.276Z" stroke="black" stroke-linecap="round" stroke-linejoin="round"/>
<path opacity="0.3" d="M52.3724 216.276H64.5449V204.103H52.3724V216.276Z" stroke="black" stroke-linecap="round" stroke-linejoin="round"/>
<path opacity="0.3" d="M39.0425 208.917L41.12 213.072L47.228 206.348" stroke="black" stroke-width="2" stroke-linecap="round" stroke-linejoin="round"/>
<path opacity="0.3" d="M94.1019 216.276H106.274V204.103H94.1019V216.276Z" stroke="black" stroke-linecap="round" stroke-linejoin="round"/>
<path opacity="0.3" d="M110.044 216.276H122.217V204.103H110.044V216.276Z" stroke="black" stroke-linecap="round" stroke-linejoin="round"/>
<path opacity="0.3" d="M96.7144 208.917L98.7918 213.072L104.9 206.348" stroke="black" stroke-width="2" stroke-linecap="round" stroke-linejoin="round"/>
<g opacity="0.3">
<path opacity="0.3" d="M112.98 31.6025C117.24 30.9141 120.135 26.9032 119.446 22.6439C118.758 18.3845 114.747 15.4896 110.488 16.178C106.228 16.8663 103.333 20.8772 104.022 25.1366C104.71 29.3959 108.721 32.2908 112.98 31.6025Z" stroke="black" stroke-linecap="round" stroke-linejoin="round"/>
<path opacity="0.3" d="M113.919 26.7148L111.736 23.8909V19.4436" stroke="black" stroke-linecap="round" stroke-linejoin="round"/>
</g>
<g opacity="0.3">
<path opacity="0.3" d="M257.558 173.737H256.401L256.202 172.418H254.796L254.597 173.737H253.546L254.715 166.453H256.388L257.558 173.737ZM254.945 171.429H256.046L255.493 167.741L254.945 171.429Z" fill="black"/>
<path opacity="0.3" d="M273.848 168.127V168.388C273.892 168.678 273.845 168.975 273.714 169.238C273.583 169.501 273.373 169.717 273.114 169.856C273.406 169.988 273.647 170.213 273.801 170.494C273.955 170.776 274.013 171.1 273.966 171.417V172.039C273.995 172.274 273.97 172.512 273.892 172.735C273.814 172.959 273.686 173.161 273.518 173.328C273.35 173.494 273.146 173.62 272.922 173.695C272.698 173.77 272.459 173.793 272.225 173.762H270.427V166.453H272.156C273.338 166.453 273.848 167.001 273.848 168.127ZM271.572 167.505V169.433H272.02C272.443 169.433 272.704 169.246 272.704 168.661V168.257C272.704 167.735 272.53 167.505 272.119 167.505H271.572ZM271.572 170.472V172.711H272.225C272.61 172.711 272.847 172.537 272.847 171.995V171.373C272.847 170.702 272.623 170.49 272.107 170.49L271.572 170.472Z" fill="black"/>
<path opacity="0.3" d="M290.344 171.05V172.014C290.344 173.183 289.765 173.849 288.639 173.849C287.513 173.849 286.929 173.183 286.929 172.014V168.226C286.929 167.057 287.513 166.391 288.639 166.391C289.765 166.391 290.344 167.057 290.344 168.226V168.935H289.261V168.126C289.261 167.604 289.031 167.411 288.67 167.411C288.31 167.411 288.048 167.604 288.048 168.126V172.064C288.048 172.586 288.278 172.773 288.67 172.773C289.062 172.773 289.261 172.586 289.261 172.064V171.05H290.344Z" fill="black"/>
<path opacity="0.3" d="M259.834 177.711H250.983V186.562H259.834V177.711Z" stroke="black" stroke-miterlimit="10"/>
<path opacity="0.3" d="M276.299 177.711H267.448V186.562H276.299V177.711Z" stroke="black" stroke-miterlimit="10"/>
<path opacity="0.3" d="M292.763 177.711H283.912V186.562H292.763V177.711Z" stroke="black" stroke-miterlimit="10"/>
</g>
<path d="M50.0336 280.248H31.3052" stroke="#263238" stroke-miterlimit="10"/>
<path d="M294.411 280.248H56.1353" stroke="#263238" stroke-miterlimit="10"/>
<path d="M222.452 280.037L226.458 219.205L229.406 190.282L221.32 181.257L217.264 178.309C217.264 178.309 211.554 183.285 207.505 184.386C203.456 185.487 199.562 186.6 199.562 186.6C199.562 186.6 185.748 212.575 184.634 224.362C183.521 236.149 181.686 279.813 181.686 279.813L183.222 280.037H222.452Z" fill="#9E9E9E" stroke="#263238" stroke-miterlimit="10"/>
<path d="M203.463 229.885C203.463 229.885 202.772 229.53 204.153 225.973" stroke="#263238" stroke-miterlimit="10"/>
<path d="M201.839 185.978C202.526 190.893 202.906 195.845 202.977 200.807C202.977 200.807 207.126 199.146 210.441 193.343C212.273 190.228 213.849 186.971 215.156 183.602L201.839 185.978Z" fill="#263238" stroke="#263238" stroke-miterlimit="10"/>
<path d="M222.452 280.037L226.054 225.344C222.521 227.148 215.548 230.127 207.854 230.258C198.636 230.414 187.222 223.254 187.222 223.254L184.653 224.262C184.653 224.293 184.653 224.33 184.653 224.362C183.546 236.18 181.705 279.813 181.705 279.813L183.241 280.037H222.452Z" fill="white" stroke="#263238" stroke-miterlimit="10"/>
<path d="M216.456 249.422C216.456 263.51 216.941 277.064 217.078 280.024H244.228C244.602 275.633 246.94 248.302 248.141 238.506C249.453 227.801 258.062 211.866 258.062 206.162C258.062 200.458 259.809 201.36 251.947 197.211C244.085 193.063 226.744 184.106 224.343 183.011C221.942 181.916 219.317 179.279 219.317 179.279C219.317 179.279 220.188 184.74 219.939 199.587C219.69 214.434 216.456 233.493 216.456 249.422Z" fill="white"/>
<g opacity="0.2">
<path opacity="0.2" d="M219.317 179.335C219.641 181.919 219.828 184.519 219.877 187.122V179.864C219.529 179.546 219.317 179.335 219.317 179.335Z" fill="black"/>
<path opacity="0.2" d="M255.02 214.882V216.748C255.232 216.182 255.443 215.635 255.642 215.094V214.87H255.723C255.804 214.665 255.878 214.453 255.953 214.248H255.642V206.504H258.049C258.049 206.411 258.049 206.311 258.049 206.218C258.049 206.124 258.049 205.994 258.049 205.882H255.642V199.251C255.449 199.133 255.244 199.021 255.02 198.897V205.882H248.489V198.107H253.54L252.37 197.485H248.489V195.432L247.867 195.103V197.466H241.336V191.707L240.714 191.383V197.466H234.183V189.71H237.436L236.23 189.088H234.183V188.037L233.561 187.713V189.088H227.03V184.392C226.812 184.28 226.607 184.174 226.408 184.081V189.088H219.939C219.939 189.293 219.939 189.498 219.939 189.71H226.408V197.485H219.995C219.995 197.69 219.995 197.895 219.995 198.107H226.408V205.882H219.877V202.927C219.753 205.963 219.529 209.147 219.255 212.388V214.254H219.093L219.037 214.876H219.255V222.676H218.322L218.26 223.298H219.286V231.073H217.52L217.464 231.695H219.286V239.47H216.86L216.823 240.092H219.311V247.867H216.556C216.556 248.078 216.556 248.284 216.556 248.489H219.317V256.264H216.574C216.574 256.475 216.574 256.681 216.574 256.886H219.311V264.661H216.699C216.699 264.872 216.699 265.078 216.699 265.283H219.299V280.055H219.921V265.264H226.408V280.037H227.03V265.264H233.561V280.037H234.183V265.264H240.714V280.037H241.336V265.264H245.522C245.522 265.059 245.522 264.854 245.578 264.642H241.336V256.886H246.312C246.312 256.681 246.356 256.475 246.374 256.264H241.336V248.489H247.083C247.083 248.277 247.121 248.078 247.146 247.867H241.336V240.092H247.867V240.919L248.141 238.537C248.228 237.84 248.346 237.119 248.489 236.379V231.695H249.652L249.839 231.073H248.489V223.298H252.532C252.613 223.093 252.688 222.881 252.768 222.676H248.489V214.901L255.02 214.882ZM248.489 206.504H255.02V214.279H248.489V206.504ZM226.408 264.642H219.877V256.886H226.408V264.642ZM226.408 256.245H219.877V248.47H226.408V256.245ZM226.408 247.848H219.877V240.092H226.408V247.848ZM226.408 239.451H219.877V231.676H226.408V239.451ZM226.408 231.054H219.877V223.298H226.408V231.054ZM226.408 222.657H219.877V214.882H226.408V222.657ZM226.408 214.26H219.877V206.504H226.408V214.26ZM233.561 264.642H227.03V256.886H233.561V264.642ZM233.561 256.245H227.03V248.47H233.561V256.245ZM233.561 247.848H227.03V240.092H233.561V247.848ZM233.561 239.451H227.03V231.676H233.561V239.451ZM233.561 231.054H227.03V223.298H233.561V231.054ZM233.561 222.657H227.03V214.882H233.561V222.657ZM233.561 214.26H227.03V206.504H233.561V214.26ZM233.561 205.863H227.03V198.088H233.561V205.863ZM233.561 197.466H227.03V189.71H233.561V197.466ZM240.714 264.642H234.183V256.886H240.714V264.642ZM240.714 256.245H234.183V248.47H240.714V256.245ZM240.714 247.848H234.183V240.092H240.714V247.848ZM240.714 239.451H234.183V231.676H240.714V239.451ZM240.714 231.054H234.183V223.298H240.714V231.054ZM240.714 222.657H234.183V214.882H240.714V222.657ZM240.714 214.26H234.183V206.504H240.714V214.26ZM240.714 205.863H234.183V198.088H240.714V205.863ZM247.867 239.451H241.336V231.676H247.867V239.451ZM247.867 231.054H241.336V223.298H247.867V231.054ZM247.867 222.657H241.336V214.882H247.867V222.657ZM247.867 214.26H241.336V206.504H247.867V214.26ZM247.867 205.863H241.336V198.088H247.867V205.863Z" fill="black"/>
</g>
<path d="M216.456 249.422C216.456 263.51 216.941 277.064 217.078 280.024H244.228C244.602 275.633 246.94 248.302 248.141 238.506C249.453 227.801 258.062 211.866 258.062 206.162C258.062 200.458 259.809 201.36 251.947 197.211C244.085 193.063 226.744 184.106 224.343 183.011C221.942 181.916 219.317 179.279 219.317 179.279C219.317 179.279 220.188 184.74 219.939 199.587C219.69 214.434 216.456 233.493 216.456 249.422Z" stroke="#263238" stroke-miterlimit="10"/>
<path d="M219.317 179.335C219.317 179.335 220.188 184.796 219.939 199.643C219.89 203.375 219.635 207.406 219.317 211.561C220.064 210.534 222.471 207.257 223.049 207.07C223.702 206.852 227.198 210.13 230.034 210.566C232.871 211.001 233.965 211.001 230.911 207.723C227.857 204.445 226.557 194.841 225.45 187.632C225.24 186.089 224.9 184.566 224.436 183.079H224.362C221.936 181.96 219.317 179.335 219.317 179.335Z" fill="#263238" stroke="#263238" stroke-miterlimit="10"/>
<path d="M237.237 246.884C239.246 245.97 240.826 245.18 240.826 245.18L241.566 250.89C241.566 250.89 230.694 255.679 224.617 256.046C218.54 256.413 217.986 256.6 217.986 256.6L218.167 251.076" stroke="#263238" stroke-miterlimit="10"/>
<path d="M231.794 249.117C232.908 248.744 234.214 248.215 235.489 247.662" stroke="#263238" stroke-miterlimit="10"/>
<path d="M220.188 250.523C223.367 250.442 226.538 250.153 229.68 249.658" stroke="#263238" stroke-miterlimit="10"/>
<path d="M241.566 250.89L241.933 255.312" stroke="#263238" stroke-miterlimit="10"/>
<path d="M158.23 280.037H188.783C188.852 277.642 189.735 247.208 190.332 231.676C190.954 215.504 201.926 190.973 201.926 190.973C201.926 190.973 203.394 187.514 201.839 185.959C200.284 184.404 196.552 185.026 193.753 187.203C190.954 189.38 165.141 200.576 163.586 202.131C162.031 203.686 162.342 208.973 161.72 215.193C161.098 221.413 150.835 264.331 150.835 264.331C150.835 264.331 148.036 264.953 147.103 265.575C146.17 266.197 146.17 268.063 146.17 268.063C146.17 268.063 147.414 268.374 151.146 270.24C154.579 271.957 157.745 278.923 158.23 280.037Z" fill="white"/>
<path opacity="0.2" d="M197.796 198.088V201.267C198.008 200.695 198.213 200.141 198.418 199.606V198.088H199.003L199.245 197.466H198.418V189.71H202.337C202.38 189.517 202.43 189.306 202.461 189.088H198.418V185.182C198.213 185.213 198.008 185.244 197.796 185.294V189.088H191.265V188.665L190.643 188.982V189.088H190.432L189.188 189.71H190.643V197.485H184.112V192.136L183.49 192.428V197.466H176.959V195.482L176.337 195.775V197.466H172.723L171.405 198.088H176.337V205.882H169.806V198.853L169.184 199.152V205.882H162.653V204.315C162.303 206.58 162.096 208.865 162.031 211.157V214.267H161.807L161.751 214.889H162.031V222.676H160.358L160.227 223.298H162.031V231.073H158.542C158.498 231.278 158.449 231.49 158.405 231.695H162.031V239.47H156.651C156.601 239.682 156.558 239.887 156.508 240.092H162.031V247.867H155.5V244.446L154.878 247.133V247.836H154.717L154.573 248.458H154.878V256.264H152.751L152.602 256.886H154.878V264.661H149.597C148.963 264.831 148.34 265.038 147.731 265.283V268.667C147.918 268.741 148.123 268.828 148.353 268.934V265.283H154.878V273.991C155.096 274.302 155.301 274.613 155.5 274.93V265.289H162.031V280.062H162.653V265.264H169.184V280.037H169.806V265.264H176.337V280.037H176.959V265.264H183.49V280.037H184.112V265.264H189.219V264.642H184.112V256.886H189.48V256.264H184.112V248.489H189.748V247.867H184.112V240.092H190.027C190.027 239.887 190.027 239.675 190.027 239.47H184.112V231.695H190.332C190.332 231.49 190.332 231.285 190.363 231.073H184.112V223.298H190.643V227.895C190.805 226.57 191.01 225.208 191.265 223.827V223.298H191.365C191.402 223.093 191.446 222.888 191.483 222.676H191.265V214.901H193.349C193.405 214.696 193.467 214.491 193.523 214.279H191.265V206.504H195.93C196.005 206.299 196.073 206.087 196.142 205.882H191.265V198.107L197.796 198.088ZM191.265 189.71H197.796V197.485H191.265V189.71ZM162.031 264.661H155.5V256.886H162.031V264.661ZM162.031 256.264H155.5V248.489H162.031V256.264ZM169.184 264.661H162.653V256.886H169.184V264.661ZM169.184 256.264H162.653V248.489H169.184V256.264ZM169.184 247.867H162.653V240.092H169.184V247.867ZM169.184 239.47H162.653V231.695H169.184V239.47ZM169.184 231.073H162.653V223.298H169.184V231.073ZM169.184 222.676H162.653V214.901H169.184V222.676ZM169.184 214.279H162.653V206.504H169.184V214.279ZM176.337 264.661H169.806V256.886H176.337V264.661ZM176.337 256.264H169.806V248.489H176.337V256.264ZM176.337 247.867H169.806V240.092H176.337V247.867ZM176.337 239.47H169.806V231.695H176.337V239.47ZM176.337 231.073H169.806V223.298H176.337V231.073ZM176.337 222.676H169.806V214.901H176.337V222.676ZM176.337 214.279H169.806V206.504H176.337V214.279ZM183.49 264.661H176.959V256.886H183.49V264.661ZM183.49 256.264H176.959V248.489H183.49V256.264ZM183.49 247.867H176.959V240.092H183.49V247.867ZM183.49 239.47H176.959V231.695H183.49V239.47ZM183.49 231.073H176.959V223.298H183.49V231.073ZM183.49 222.676H176.959V214.901H183.49V222.676ZM183.49 214.279H176.959V206.504H183.49V214.279ZM183.49 205.882H176.959V198.107H183.49V205.882ZM190.643 222.676H184.112V214.901H190.643V222.676ZM190.643 214.279H184.112V206.504H190.643V214.279ZM190.643 205.882H184.112V198.107H190.643V205.882Z" fill="black"/>
<path d="M158.23 280.037H188.783C188.852 277.642 189.735 247.208 190.332 231.676C190.954 215.504 201.926 190.973 201.926 190.973C201.926 190.973 203.394 187.514 201.839 185.959C200.284 184.404 196.552 185.026 193.753 187.203C190.954 189.38 165.141 200.576 163.586 202.131C162.031 203.686 162.342 208.973 161.72 215.193C161.098 221.413 150.835 264.331 150.835 264.331C150.835 264.331 148.036 264.953 147.103 265.575C146.17 266.197 146.17 268.063 146.17 268.063C146.17 268.063 147.414 268.374 151.146 270.24C154.579 271.957 157.745 278.923 158.23 280.037Z" stroke="#263238" stroke-miterlimit="10"/>
<path d="M146.17 268.082C146.17 268.082 147.414 268.393 151.146 270.259C154.878 272.125 158.299 280.211 158.299 280.211H164.326C164.706 279.079 165.632 274.961 161.409 269.948C156.433 264.039 150.835 264.35 150.835 264.35C150.835 264.35 148.036 264.972 147.103 265.594C146.17 266.216 146.17 268.082 146.17 268.082Z" fill="#263238" stroke="#263238" stroke-miterlimit="10"/>
<path d="M198.082 185.219C196.745 188.758 193.579 196.763 190.954 200.576C187.533 205.552 181.313 209.595 183.49 211.461C185.667 213.327 191.887 207.418 191.887 207.418C191.887 207.418 193.442 211.772 193.753 213.016C193.77 213.073 193.797 213.125 193.834 213.172C196.079 205.616 198.779 198.202 201.92 190.973C201.92 190.973 203.388 187.514 201.833 185.959C201.031 185.151 199.662 184.939 198.082 185.219Z" fill="#263238" stroke="#263238" stroke-miterlimit="10"/>
<path d="M175.367 215.243C175.545 214.093 175.661 212.935 175.715 211.772" stroke="#263238" stroke-miterlimit="10"/>
<path d="M170.428 280.814C170.428 280.814 171.361 260.91 171.361 249.403C171.361 241.112 173.619 227.167 174.887 218.627" stroke="#263238" stroke-miterlimit="10"/>
<path d="M171.983 245.068C171.983 245.068 176.959 246.623 179.447 246.934L186.911 247.867L186.345 254.914C186.345 254.914 185.978 254.709 180.38 252.843C174.782 250.977 171.361 249.422 171.361 249.422" stroke="#263238" stroke-miterlimit="10"/>
<path d="M186.345 254.896C186.345 254.896 185.978 268.704 185.978 270.57C185.978 272.436 180.38 271.192 180.38 271.192" stroke="#263238" stroke-miterlimit="10"/>
<path d="M190.811 178.651C190.811 178.651 196.676 187.085 201.926 190.973C207.176 194.86 211.654 189.418 215.156 183.583C218.658 177.749 220.99 173.47 222.738 168.413C224.486 163.356 222.738 154.996 215.741 148.384C208.743 141.772 192.397 132.044 188.317 137.101C184.236 142.158 180.343 153.273 183.061 162.771C184.684 168.481 187.308 173.858 190.811 178.651Z" fill="#9E9E9E" stroke="#263238" stroke-miterlimit="10"/>
<path d="M188.342 160.507C190.555 159.844 192.914 159.844 195.128 160.507" stroke="#263238" stroke-width="2" stroke-miterlimit="10" stroke-linecap="round"/>
<path d="M193.361 165.713C193.548 166.721 193.311 167.61 192.832 167.697C192.353 167.785 191.825 167.038 191.638 166.024C191.451 165.01 191.688 164.127 192.167 164.04C192.646 163.953 193.174 164.699 193.361 165.713Z" fill="#263238"/>
<path d="M210.665 165.981C210.846 166.988 210.609 167.847 210.136 167.965C209.664 168.083 209.129 167.305 208.942 166.292C208.756 165.278 208.992 164.395 209.471 164.307C209.95 164.22 210.479 164.967 210.665 165.981Z" fill="#263238"/>
<path d="M197.846 179.696C200.093 180.47 202.47 180.8 204.843 180.666C208.93 180.473 212.432 177.556 212.432 177.556" stroke="#263238" stroke-miterlimit="10"/>
<path d="M188.92 141.399C188.92 141.399 197.56 161.104 198.642 161.645C199.724 162.186 201.883 155.705 201.883 155.705C201.883 155.705 204.85 161.098 208.37 162.721C211.891 164.345 212.96 161.645 212.96 161.645C214.724 162.639 216.437 163.72 218.092 164.886L219.442 165.962L220.791 170.82C220.791 170.82 216.742 184.05 218.092 185.673C219.442 187.297 226.999 185.132 226.999 185.132C226.999 185.132 225.133 187.832 227.54 187.832C229.947 187.832 234.289 188.373 240.496 180.001C246.704 171.628 247.245 158.137 247.245 158.137C247.245 158.137 250.212 161.372 250.486 157.322C250.759 153.273 246.978 146.525 246.978 146.525C246.978 146.525 252.912 152.465 252.377 146.257C251.842 140.05 248.327 133.027 246.978 131.41C245.628 129.793 237.523 125.19 237.523 125.19C237.523 125.19 240.764 124.649 238.338 120.867C235.912 117.085 226.999 116.009 223.758 116.009C220.518 116.009 213.769 117.091 213.769 117.091C213.769 117.091 218.092 108.719 213.502 108.178C208.911 107.637 200.813 116.55 200.813 116.55C200.813 116.55 192.727 110.069 190.282 111.419C187.838 112.769 189.474 114.659 189.474 114.659C189.474 114.659 178.95 115.468 175.976 120.058C173.003 124.649 176.517 127.348 176.517 127.348C176.517 127.348 157.621 140.305 160.588 145.162C163.555 150.02 168.96 145.436 168.96 145.436C168.96 145.436 161.397 164.874 162.479 166.223C163.561 167.573 168.699 165.682 168.699 165.682C168.699 165.682 168.431 181.338 172.481 182.961C176.53 184.585 177.339 181.612 177.339 181.612C177.339 181.612 179.497 183.77 184.361 184.037C189.225 184.305 190.836 178.638 190.836 178.638C190.836 178.638 185.437 165.95 185.711 155.425C185.984 144.901 188.92 141.399 188.92 141.399Z" fill="#263238" stroke="#263238" stroke-miterlimit="10"/>
<path d="M199.793 164.133C199.793 164.133 197.846 174.247 199.401 176.387C200.956 178.526 206.404 176.387 206.79 175.224" fill="#9E9E9E"/>
<path d="M199.793 164.133C199.793 164.133 197.846 174.247 199.401 176.387C200.956 178.526 206.404 176.387 206.79 175.224" stroke="#263238" stroke-miterlimit="10"/>
<path d="M191.719 170.359C195.961 170.359 199.4 167.834 199.4 164.718C199.4 161.602 195.961 159.076 191.719 159.076C187.476 159.076 184.037 161.602 184.037 164.718C184.037 167.834 187.476 170.359 191.719 170.359Z" stroke="#263238" stroke-miterlimit="10"/>
<path d="M210.192 169.974C214.435 169.974 217.874 167.448 217.874 164.332C217.874 161.217 214.435 158.691 210.192 158.691C205.95 158.691 202.511 161.217 202.511 164.332C202.511 167.448 205.95 169.974 210.192 169.974Z" stroke="#263238" stroke-miterlimit="10"/>
<path d="M199.792 164.133C199.792 164.133 201.347 162.97 202.511 164.332" stroke="#263238" stroke-miterlimit="10"/>
<path d="M135.789 271.758C135.789 271.758 145.554 269.003 148.558 268.505C151.562 268.007 157.577 273.512 158.579 276.516C159.58 279.521 158.299 280.192 158.299 280.192L138.289 279.527L135.789 271.758Z" fill="#9E9E9E" stroke="#263238" stroke-miterlimit="10"/>
<path d="M139.328 270.788C139.328 270.788 146.699 273.549 148.54 274.656C150.381 275.764 149.827 277.972 148.726 279.073C147.398 280.183 145.814 280.944 144.117 281.287C142.4 281.385 140.678 281.385 138.961 281.287C136.753 281.1 134.725 281.474 132.884 281.474C131.043 281.474 125.513 280.92 125.513 280.92L123.853 279.813C123.853 279.813 120.743 280.733 118.329 281.679C115.916 282.624 116.669 280.572 118.51 279.097C120.351 277.623 124.96 273.941 125.7 273.574C126.44 273.207 135.832 270.464 135.832 270.464L139.328 270.788Z" fill="#9E9E9E" stroke="#263238" stroke-miterlimit="10"/>
<path d="M142.09 271.522C142.09 271.522 137.294 269.313 136.007 269.313C134.719 269.313 125.507 272.423 124.22 273.363C122.932 274.302 121.638 283.128 122.559 283.682C123.48 284.235 124.22 282.575 124.425 281.474C124.63 280.373 127.193 274.47 127.193 274.47L125.327 283.868C125.327 283.868 126.067 285.336 126.801 284.049C127.535 282.761 132.144 273.916 132.511 273.363C132.994 272.849 133.554 272.415 134.172 272.075C134.172 272.075 133.251 276.131 132.511 279.999C131.771 283.868 132.331 284.975 133.438 285.156C134.545 285.336 135.092 282.761 135.646 281.474C136.199 280.186 138.594 272.809 138.594 272.809" fill="#9E9E9E"/>
<path d="M142.09 271.522C142.09 271.522 137.294 269.313 136.007 269.313C134.719 269.313 125.507 272.423 124.22 273.363C122.932 274.302 121.638 283.128 122.559 283.682C123.48 284.235 124.22 282.575 124.425 281.474C124.63 280.373 127.193 274.47 127.193 274.47L125.327 283.868C125.327 283.868 126.067 285.336 126.801 284.049C127.535 282.761 132.144 273.916 132.511 273.363C132.994 272.849 133.554 272.415 134.172 272.075C134.172 272.075 133.251 276.131 132.511 279.999C131.771 283.868 132.331 284.975 133.438 285.156C134.545 285.336 135.092 282.761 135.646 281.474C136.199 280.186 138.594 272.809 138.594 272.809" stroke="#263238" stroke-miterlimit="10"/>
<path d="M147.414 275.21C147.414 275.21 141.89 280.92 141.15 282.208C140.41 283.495 140.416 283.682 142.444 283.682C144.472 283.682 150.735 279.626 151.283 279.073C151.83 278.519 151.656 276.865 150.362 275.758C149.95 275.437 149.467 275.221 148.955 275.125C148.442 275.03 147.913 275.059 147.414 275.21Z" fill="#9E9E9E" stroke="#263238" stroke-miterlimit="10"/>
<path d="M181.91 274.576C181.91 274.576 174.54 276.958 172.73 278.308C170.919 279.657 168.307 281.144 168.873 281.598C169.439 282.052 171.255 281.598 171.821 281.144C172.387 280.69 174.994 280.236 174.994 280.236C174.994 280.236 178.054 278.42 180.436 276.952C182.818 275.484 184.628 273.891 181.91 274.576Z" fill="#9E9E9E" stroke="#263238" stroke-miterlimit="10"/>
<path d="M222.595 262.098C222.595 262.098 202.069 265.83 194.642 268.437C187.216 271.043 184.261 272.859 180.548 275.484C176.834 278.109 169.308 283.066 170.428 283.937C171.547 284.808 175.447 281.754 176.107 281.1C176.766 280.447 181.562 278.482 181.562 278.482L184.771 276.84C184.771 276.84 179.938 282.792 178.197 284.304C176.455 285.815 177.631 286.761 178.943 286.325C180.255 285.89 182.731 283.284 182.731 283.284L190.711 278.034C190.711 278.034 187.433 282.624 185.903 283.931C184.373 285.237 187.651 286.338 188.31 285.243C188.97 284.148 192.241 281.312 192.241 281.312C192.241 281.312 197.696 278.476 199.009 277.381C200.321 276.286 203.593 273.232 203.593 273.232L228.05 275.198C228.05 275.198 229.58 274.327 228.709 269.301C227.838 264.275 222.595 262.098 222.595 262.098Z" fill="#9E9E9E" stroke="#263238" stroke-miterlimit="10"/>
<path d="M239.19 223.447L251.201 253.154L231.763 259.921L237.224 275.863C237.224 275.863 251.182 275.9 262.104 275.241C273.027 274.582 280.69 267.995 278.942 260.139C277.194 252.283 270.644 240.919 265.401 227.378C260.158 213.837 261.781 205.764 259.38 201.615C256.979 197.466 250.206 196.372 250.206 196.372L246.474 195.75" fill="white"/>
<path opacity="0.2" d="M277.101 268.399V265.289H278.724C278.793 265.084 278.849 264.879 278.898 264.667H277.101V256.886H278.034C277.965 256.687 277.891 256.476 277.822 256.264H277.101V254.367C276.902 253.851 276.696 253.322 276.479 252.793V256.264H269.948V248.489H274.638C274.544 248.284 274.457 248.079 274.364 247.867H269.948V240.092H270.819C270.719 239.887 270.626 239.682 270.532 239.47H269.948V238.17C269.742 237.71 269.531 237.25 269.326 236.783V239.47H262.795V231.695H267.149C267.062 231.49 266.975 231.285 266.894 231.073H262.795V223.298H263.958C263.889 223.093 263.827 222.881 263.765 222.676H262.795V219.131C262.558 218.148 262.353 217.209 262.173 216.307V222.676H255.642V214.901H261.912L261.8 214.279H255.642V206.504H260.748L260.655 205.882H255.642V198.256C255.096 197.964 254.536 197.7 253.962 197.466H248.489V196.073L247.867 195.961V197.466H246.032L245.864 198.088H247.867V205.882H243.824L243.662 206.504H247.873V214.279H241.609L241.442 214.901H247.867V222.676H241.336V215.299L240.714 217.657V222.633H239.395L239.233 223.255H240.714V227.192L241.336 228.728V223.298H247.867V231.073H242.269L242.518 231.695H247.867V239.47H245.69L245.945 240.092H247.898V244.925L248.52 246.461V240.092H255.02V247.867H249.055L249.31 248.489H255.02V256.264H248.489V254.112L247.867 254.33V256.264H242.306L240.515 256.886H240.714V264.661H234.183V259.063L233.561 259.281V264.63H233.38L234.183 266.969V265.252H240.714V275.826H241.336V265.252H247.867V275.745H248.489V265.264H255.02V275.546H255.642V265.264H262.173V275.216L262.795 275.167V265.264H269.326V273.798L269.948 273.562V265.264H276.479V269.171C276.696 268.916 276.908 268.661 277.101 268.399ZM247.867 264.667H241.336V256.886H247.867V264.667ZM255.02 264.667H248.489V256.886H255.02V264.667ZM255.02 239.476H248.489V231.701H255.02V239.476ZM255.02 231.079H248.489V223.298H255.02V231.079ZM255.02 222.682H248.489V214.907H255.02V222.682ZM255.02 214.285H248.489V206.504H255.02V214.285ZM255.02 205.888H248.489V198.113H255.02V205.888ZM262.173 264.667H255.642V256.886H262.173V264.667ZM262.173 256.27H255.642V248.495H262.173V256.27ZM262.173 247.873H255.642V240.092H262.173V247.873ZM262.173 239.476H255.642V231.701H262.173V239.476ZM262.173 231.079H255.642V223.298H262.173V231.079ZM269.326 264.667H262.795V256.886H269.326V264.667ZM269.326 256.27H262.795V248.495H269.326V256.27ZM269.326 247.873H262.795V240.092H269.326V247.873ZM269.948 264.667V256.886H276.479V264.661L269.948 264.667Z" fill="#263238"/>
<path d="M239.19 223.447L251.201 253.154L231.763 259.921L237.224 275.863C237.224 275.863 251.182 275.9 262.104 275.241C273.027 274.582 280.69 267.995 278.942 260.139C277.194 252.283 270.644 240.919 265.401 227.378C260.158 213.837 261.781 205.764 259.38 201.615C256.979 197.466 250.206 196.372 250.206 196.372L246.474 195.75" stroke="#263238" stroke-miterlimit="10"/>
<path d="M262.894 250.131C258.931 250.865 255.024 251.873 251.201 253.148C251.201 253.148 259.498 247.687 264.082 247.251" stroke="#263238" stroke-miterlimit="10"/>
<path d="M268.455 249.87C267.595 249.746 266.723 249.717 265.855 249.783" stroke="#263238" stroke-miterlimit="10"/>
<path d="M237.442 257.508C237.442 257.508 241.858 261.731 243.164 265.003C244.471 268.275 243.992 277.163 243.121 278.034C242.25 278.905 225.997 278.799 223.323 275.459C222.626 274.588 227.397 272.579 224.996 267.771C222.595 262.963 221.5 262.534 221.5 262.534C221.5 262.534 219.535 261.439 223.248 259.038C226.961 256.637 235.477 254.896 237.442 257.508Z" fill="#263238" stroke="#263238" stroke-miterlimit="10"/>
<path d="M276.162 291.183H260.04L258.024 259.312H278.177L276.162 291.183Z" fill="#263238" stroke="#263238" stroke-linejoin="round"/>
<path d="M279.073 259.362H257.135V264.002H279.073V259.362Z" fill="white" stroke="#263238" stroke-linejoin="round"/>
<path d="M279.073 259.536H257.135L259.324 256.787H276.877L279.073 259.536Z" fill="white" stroke="#263238" stroke-linejoin="round"/>
<path d="M276.752 281.835L277.555 269.14H258.646L259.448 281.835H276.752Z" fill="white" stroke="#263238" stroke-linejoin="round"/>
<path d="M183.253 293.304L203.12 288.054V290.741L183.253 296.308V293.304Z" fill="#263238" stroke="#263238" stroke-linejoin="round"/>
<path d="M203.12 288.054H99.2525L79.1743 293.304H183.254L203.12 288.054Z" fill="white" stroke="#263238" stroke-linejoin="round"/>
<path d="M183.254 233.281H79.1743V296.308H183.254V233.281Z" fill="white" stroke="#263238" stroke-linejoin="round"/>
<path d="M183.254 242.399C160.613 243.475 147.128 264.344 127.093 278.326C108.831 291.077 86.2776 293.254 79.1992 293.596V296.308H183.254V242.399Z" fill="#263238" stroke="#263238" stroke-linejoin="round"/>
<path d="M183.254 293.304H79.1743V296.308H183.254V293.304Z" fill="white" stroke="#263238" stroke-miterlimit="10"/>
<path d="M48.3605 272.511C48.3605 272.511 39.6898 258.64 46.65 250.834C53.6102 243.028 64.856 246.785 67.176 254.012C69.4961 261.24 64.5761 273.381 64.5761 273.381L48.3605 272.511Z" fill="white" stroke="#263238" stroke-linecap="round" stroke-linejoin="round"/>
<path d="M48.6468 256.612C47.2038 256.612 41.7115 254.591 39.9761 251.991C38.2408 249.391 37.9422 243.606 42.8684 243.606C47.7947 243.606 49.5176 252.277 49.5176 252.277L49.8037 255.455" fill="white"/>
<path d="M48.6468 256.612C47.2038 256.612 41.7115 254.591 39.9761 251.991C38.2408 249.391 37.9422 243.606 42.8684 243.606C47.7947 243.606 49.5176 252.277 49.5176 252.277L49.8037 255.455" stroke="#263238" stroke-linecap="round" stroke-linejoin="round"/>
<path d="M53.0941 251.213C51.8004 250.591 47.7885 246.312 47.3966 243.208C47.0048 240.104 49.331 234.805 53.7286 236.988C58.1261 239.171 55.8061 247.718 55.8061 247.718L54.6429 250.691" fill="white"/>
<path d="M53.0941 251.213C51.8004 250.591 47.7885 246.312 47.3966 243.208C47.0048 240.104 49.331 234.805 53.7286 236.988C58.1261 239.171 55.8061 247.718 55.8061 247.718L54.6429 250.691" stroke="#263238" stroke-linecap="round" stroke-linejoin="round"/>
<path d="M58.3436 252.669C57.6221 251.425 56.6518 245.646 58.0451 242.847C59.4383 240.048 64.3148 236.926 66.753 241.193C69.1913 245.46 62.5297 251.269 62.5297 251.269L59.911 253.098" fill="white"/>
<path d="M58.3436 252.669C57.6221 251.425 56.6518 245.646 58.0451 242.847C59.4383 240.048 64.3148 236.926 66.753 241.193C69.1913 245.46 62.5297 251.269 62.5297 251.269L59.911 253.098" stroke="#263238" stroke-linecap="round" stroke-linejoin="round"/>
<path d="M60.0665 263.031C59.8302 261.601 60.9125 255.854 63.1765 253.701C65.4406 251.549 71.107 250.312 71.9219 255.157C72.7367 260.002 64.4579 263.156 64.4579 263.156L61.3479 263.964" fill="white"/>
<path d="M60.0665 263.031C59.8302 261.601 60.9125 255.854 63.1765 253.701C65.4406 251.549 71.107 250.312 71.9219 255.157C72.7367 260.002 64.4579 263.156 64.4579 263.156L61.3479 263.964" stroke="#263238" stroke-linecap="round" stroke-linejoin="round"/>
<path d="M40.6104 248.501L41.5869 250.038" stroke="white" stroke-linecap="round" stroke-linejoin="round"/>
<path d="M43.4033 252.271L44.9334 253.521" stroke="white" stroke-linecap="round" stroke-linejoin="round"/>
<path d="M41.73 245.572L43.2601 247.805" stroke="white" stroke-linecap="round" stroke-linejoin="round"/>
<path d="M45.3564 249.621L47.0296 252.688" stroke="white" stroke-linecap="round" stroke-linejoin="round"/>
<path d="M49.2563 242.225L49.8161 243.899" stroke="white" stroke-linecap="round" stroke-linejoin="round"/>
<path d="M51.2095 246.965L52.186 248.365" stroke="white" stroke-linecap="round" stroke-linejoin="round"/>
<path d="M50.793 238.879L52.0494 241.666" stroke="white" stroke-linecap="round" stroke-linejoin="round"/>
<path d="M45.9102 258.547L46.3331 261.053" stroke="white" stroke-linecap="round" stroke-linejoin="round"/>
<path d="M47.1665 263.423L47.7263 265.519" stroke="white" stroke-linecap="round" stroke-linejoin="round"/>
<path d="M48.5596 258.684L49.1194 261.47" stroke="white" stroke-linecap="round" stroke-linejoin="round"/>
<path d="M50.376 263.423L50.7927 265.519" stroke="white" stroke-linecap="round" stroke-linejoin="round"/>
<path d="M51.3525 255.057L52.186 258.964" stroke="white" stroke-linecap="round" stroke-linejoin="round"/>
<path d="M53.3057 262.727L53.4425 264.543" stroke="white" stroke-linecap="round" stroke-linejoin="round"/>
<path d="M54.8359 253.801L55.5326 257.427" stroke="white" stroke-linecap="round" stroke-linejoin="round"/>
<path d="M55.5322 261.196L55.8121 264.959" stroke="white" stroke-linecap="round" stroke-linejoin="round"/>
<path d="M58.8848 255.194V258.267" stroke="white" stroke-linecap="round" stroke-linejoin="round"/>
<path d="M58.4619 262.173L58.605 264.543" stroke="white" stroke-linecap="round" stroke-linejoin="round"/>
<path d="M62.368 240.689L61.6714 242.368" stroke="white" stroke-linecap="round" stroke-linejoin="round"/>
<path d="M61.3915 244.315L60.6948 246.691" stroke="white" stroke-linecap="round" stroke-linejoin="round"/>
<path d="M65.4347 243.899L64.3213 246.132" stroke="white" stroke-linecap="round" stroke-linejoin="round"/>
<path d="M61.9513 248.645L60.6948 250.038" stroke="white" stroke-linecap="round" stroke-linejoin="round"/>
<path d="M59.3015 243.762L58.8848 245.572" stroke="white" stroke-linecap="round" stroke-linejoin="round"/>
<path d="M65.4344 253.801L63.9043 256.314" stroke="white" stroke-linecap="round" stroke-linejoin="round"/>
<path d="M62.9281 257.844L62.0884 260.077" stroke="white" stroke-linecap="round" stroke-linejoin="round"/>
<path d="M64.1846 261.196L66.6912 259.797" stroke="white" stroke-linecap="round" stroke-linejoin="round"/>
<path d="M68.2271 253.801L66.9707 255.897" stroke="white" stroke-linecap="round" stroke-linejoin="round"/>
<path d="M69.4837 256.171L67.8105 257.427" stroke="white" stroke-linecap="round" stroke-linejoin="round"/>
<path d="M67.6799 267.671H43.9692V291.382H67.6799V267.671Z" fill="#263238" stroke="#263238" stroke-linecap="round" stroke-linejoin="round"/>
</svg>
