<svg width="340" height="340" viewBox="0 0 340 340" fill="none" xmlns="http://www.w3.org/2000/svg">
<path d="M324.816 156.971C321.253 139.543 314.997 122.529 307.557 106.889C294.733 79.9068 273.721 57.5008 246.84 44.2C180.88 11.56 133.28 25.16 107.44 51.68C81.6002 78.2 89.0802 123.76 61.2002 143.48C33.3202 163.2 13.6002 172.04 12.2402 208.08C10.8802 244.12 28.5602 271.32 57.1202 280.16C85.6802 289 128.52 317.56 214.2 301.24C299.88 284.92 320.96 239.36 326.4 206.72C329.12 190.298 328.182 173.448 324.816 156.971Z" fill="#CBCBCB"/>
<path opacity="0.7" d="M324.816 156.971C321.253 139.543 314.997 122.529 307.557 106.889C294.733 79.9068 273.721 57.5008 246.84 44.2C180.88 11.56 133.28 25.16 107.44 51.68C81.6002 78.2 89.0802 123.76 61.2002 143.48C33.3202 163.2 13.6002 172.04 12.2402 208.08C10.8802 244.12 28.5602 271.32 57.1202 280.16C85.6802 289 128.52 317.56 214.2 301.24C299.88 284.92 320.96 239.36 326.4 206.72C329.12 190.298 328.182 173.448 324.816 156.971Z" fill="white"/>
<path d="M123.978 57.4736H117.817V84.7756H123.978V57.4736Z" fill="#C9C9C9" stroke="#263238" stroke-linecap="round" stroke-linejoin="round"/>
<path d="M123.978 61.5808H117.817V64.2464H123.978V61.5808Z" fill="white" stroke="#263238" stroke-linecap="round" stroke-linejoin="round"/>
<path d="M123.978 78.5195H117.817V81.1851H123.978V78.5195Z" fill="white" stroke="#263238" stroke-linecap="round" stroke-linejoin="round"/>
<path d="M131.165 57.4736H122.543V84.7756H131.165V57.4736Z" fill="#878787" stroke="#263238" stroke-linecap="round" stroke-linejoin="round"/>
<path d="M130.553 57.4736H124.393V84.7756H130.553V57.4736Z" fill="#C9C9C9" stroke="#263238" stroke-linecap="round" stroke-linejoin="round"/>
<path d="M130.553 61.5808H124.393V64.2464H130.553V61.5808Z" fill="white" stroke="#263238" stroke-linecap="round" stroke-linejoin="round"/>
<path d="M130.553 78.5195H124.393V81.1851H130.553V78.5195Z" fill="white" stroke="#263238" stroke-linecap="round" stroke-linejoin="round"/>
<path d="M137.734 57.4736H129.112V84.7756H137.734V57.4736Z" fill="#878787" stroke="#263238" stroke-linecap="round" stroke-linejoin="round"/>
<path d="M137.122 57.4736H130.961V84.7756H137.122V57.4736Z" fill="#C9C9C9" stroke="#263238" stroke-linecap="round" stroke-linejoin="round"/>
<path d="M137.122 61.5808H130.961V64.2464H137.122V61.5808Z" fill="white" stroke="#263238" stroke-linecap="round" stroke-linejoin="round"/>
<path d="M137.122 78.5195H130.961V81.1851H137.122V78.5195Z" fill="white" stroke="#263238" stroke-linecap="round" stroke-linejoin="round"/>
<path d="M144.303 57.4736H135.681V84.7756H144.303V57.4736Z" fill="#C9C9C9" stroke="#263238" stroke-linecap="round" stroke-linejoin="round"/>
<path d="M149.92 85.0544H164.39L168.239 81.5728H149.92V85.0544Z" fill="white" stroke="#263238" stroke-linecap="round" stroke-linejoin="round"/>
<path d="M166.6 85.2312L166.138 84.4356L149.621 84.4016L150.097 85.2312H166.6Z" fill="white" stroke="#263238" stroke-linecap="round" stroke-linejoin="round"/>
<path d="M141.542 58.0421L136.209 61.1262L149.876 84.7609L155.21 81.6768L141.542 58.0421Z" fill="#C9C9C9" stroke="#263238" stroke-linecap="round" stroke-linejoin="round"/>
<path d="M143.6 61.588L138.267 64.6721L139.601 66.9797L144.934 63.8955L143.6 61.588Z" fill="white" stroke="#263238" stroke-linecap="round" stroke-linejoin="round"/>
<path d="M152.085 76.2499L146.751 79.334L148.086 81.6415L153.419 78.5574L152.085 76.2499Z" fill="white" stroke="#263238" stroke-linecap="round" stroke-linejoin="round"/>
<path d="M168.144 81.8107L155.067 81.7767L141.399 58.1399L154.476 58.1739L168.144 81.8107Z" fill="#C9C9C9" stroke="#263238" stroke-linecap="round" stroke-linejoin="round"/>
<path d="M175.27 71.23C175.27 71.23 172.89 70.38 172.21 66.64C171.53 62.9 170.34 57.63 171.7 56.44C173.06 55.25 175.61 54.57 175.95 56.95C176.29 59.33 175.78 63.92 176.29 64.94C176.8 65.96 178.5 65.28 178.5 63.24C178.5 59.8808 177.14 56.44 177.623 53.04C178.303 48.3412 183.063 47.8244 183.573 53.04C183.858 55.9232 183.94 58.8676 183.94 61.7644C183.94 62.9544 185.98 63.6344 185.81 60.7444C185.688 58.7044 187.17 56.3244 189.21 57.0044C191.25 57.6844 189.55 66.6944 188.87 68.2244C188.19 69.7544 183.94 70.04 183.94 70.04V73.95L178.84 74.12L178.67 70.21C177.632 70.8102 176.467 71.1595 175.27 71.23V71.23Z" fill="#CBCBCB" stroke="#263238" stroke-linecap="round" stroke-linejoin="round"/>
<path d="M179.86 63.7771C179.922 64.6271 179.962 65.1371 179.962 65.1371" stroke="#263238" stroke-linecap="round" stroke-linejoin="round"/>
<path d="M180.2 50.592C180.2 50.592 179.085 51.3672 179.166 53.6928C179.221 55.1072 179.493 59.024 179.704 61.8868" stroke="#263238" stroke-linecap="round" stroke-linejoin="round"/>
<path d="M182.118 58.6091L182.294 64.3007" stroke="#263238" stroke-linecap="round" stroke-linejoin="round"/>
<path d="M184.607 68C184.213 68.0613 183.815 68.0954 183.417 68.102" stroke="#263238" stroke-linecap="round" stroke-linejoin="round"/>
<path d="M188.156 58.4392C187.763 59.1835 187.556 60.0116 187.551 60.8532C187.551 62.2132 187.639 66.028 186.776 67.0616C186.565 67.2937 186.308 67.479 186.021 67.6056" stroke="#263238" stroke-linecap="round" stroke-linejoin="round"/>
<path d="M173.4 66.0891C173.605 67.1115 174.095 68.0548 174.815 68.8091C175.24 69.1497 175.766 69.342 176.311 69.3568C176.856 69.3715 177.391 69.2078 177.834 68.8907" stroke="#263238" stroke-linecap="round" stroke-linejoin="round"/>
<path d="M173.237 56.8889C173.237 56.8889 171.517 56.8889 172.115 59.9013C172.374 61.1729 172.612 62.7369 172.918 64.2125" stroke="#263238" stroke-linecap="round" stroke-linejoin="round"/>
<path d="M179.704 68.3535L180.05 72.0595" stroke="#263238" stroke-linecap="round" stroke-linejoin="round"/>
<path d="M188.53 72.4199L187.911 77.4927L187.49 80.9471L187 84.9659H174.767L174.277 80.9471L173.856 77.4927L173.237 72.4199H188.53Z" fill="white" stroke="#263238" stroke-linecap="round" stroke-linejoin="round"/>
<path d="M187.912 77.4927L187.49 80.9471H174.278L173.856 77.4927H187.912Z" fill="#CBCBCB" stroke="#263238" stroke-linecap="round" stroke-linejoin="round"/>
<path d="M195.249 84.9661H116.729V90.1681H195.249V84.9661Z" fill="white" stroke="#263238" stroke-linecap="round" stroke-linejoin="round"/>
<path d="M195.249 84.9661H177.147V90.1681H195.249V84.9661Z" fill="white" stroke="#263238" stroke-linecap="round" stroke-linejoin="round"/>
<path d="M175.386 90.1885C183.797 93.2893 182.281 99.1509 182.281 99.1509H190.244V90.1885H175.386Z" fill="#919191" stroke="#263238" stroke-linecap="round" stroke-linejoin="round"/>
<path d="M178.072 90.1885C186.477 93.2893 184.96 99.1509 184.96 99.1509H192.93V90.1885H178.072Z" fill="white" stroke="#263238" stroke-linecap="round" stroke-linejoin="round"/>
<path d="M121.496 90.1885C129.907 93.2893 128.391 99.1509 128.391 99.1509H136.354V90.1885H121.496Z" fill="#919191" stroke="#263238" stroke-linecap="round" stroke-linejoin="round"/>
<path d="M124.182 90.1885C132.586 93.2893 131.07 99.1509 131.07 99.1509H139.04V90.1885H124.182Z" fill="white" stroke="#263238" stroke-linecap="round" stroke-linejoin="round"/>
<path d="M304.667 58.446H234.247V156.203H304.667V58.446Z" fill="#919191" stroke="#263238" stroke-linecap="round" stroke-linejoin="round"/>
<path d="M301.614 62.6892H237.307V151.96H301.614V62.6892Z" fill="#CBCBCB"/>
<path opacity="0.5" d="M301.614 62.6892H237.307V151.96H301.614V62.6892Z" fill="white"/>
<path d="M251.444 145.18C249.719 147.81 247.541 150.113 245.011 151.98H301.614V62.6892H291.183L289.823 63.1176C279.623 66.334 269.083 75.6432 263.106 92.5616" stroke="#263238" stroke-linecap="round" stroke-linejoin="round"/>
<path d="M262.113 95.5264C259.738 103.595 258.426 111.939 258.21 120.346C257.836 130.438 255.687 137.693 252.817 142.909" stroke="#263238" stroke-linecap="round" stroke-linejoin="round"/>
<path d="M295.324 85.3469C285.974 90.7869 275.087 99.9261 271.021 113.941C268.838 121.421 270.885 128.167 274.931 133.94" stroke="#263238" stroke-linecap="round" stroke-linejoin="round"/>
<path d="M277.121 136.755C282.731 143.324 290.721 148.492 297.187 151.966H301.614V82.0488C300.349 82.6404 299.003 83.3068 297.602 84.0888" stroke="#263238" stroke-linecap="round" stroke-linejoin="round"/>
<path d="M247.996 85.9656C252.919 75.9288 253.436 67.966 252.872 62.6892H237.32V103.53C239.619 100.259 242.434 95.8868 245.834 90.0252C246.045 89.6648 246.242 89.3452 246.439 88.9644" stroke="#263238" stroke-linecap="round" stroke-linejoin="round"/>
<path d="M254.089 124.624C253.334 129.567 251.063 133.158 248.384 133.158C245.086 133.158 242.407 127.718 242.407 120.986C242.407 114.254 245.086 108.814 248.384 108.814C251.682 108.814 254.361 114.254 254.361 120.986" stroke="#263238" stroke-linecap="round" stroke-linejoin="round"/>
<path d="M256.925 96.0025C256.925 98.5933 255.782 100.701 254.361 100.701C252.94 100.701 251.804 98.5933 251.804 96.0025C251.804 93.4117 252.947 91.3037 254.361 91.3037C255.775 91.3037 256.925 93.4049 256.925 96.0025Z" stroke="#263238" stroke-linecap="round" stroke-linejoin="round"/>
<path d="M289.551 115.852C292.019 117.028 293.631 119.082 293.631 121.414C293.631 125.066 289.619 128.03 284.662 128.03C279.704 128.03 275.699 125.066 275.699 121.414C275.699 117.762 279.711 114.791 284.662 114.791C285.452 114.79 286.24 114.868 287.014 115.022" stroke="#263238" stroke-linecap="round" stroke-linejoin="round"/>
<path d="M288.443 121.414C288.443 122.944 286.763 124.188 284.682 124.188C282.601 124.188 280.922 122.944 280.922 121.414C280.922 119.884 282.608 118.633 284.682 118.633C286.756 118.633 288.443 119.877 288.443 121.414Z" stroke="#263238" stroke-linecap="round" stroke-linejoin="round"/>
<path d="M294.508 104.543C294.508 106.665 292.407 108.385 289.809 108.385C287.212 108.385 285.11 106.665 285.11 104.543C285.11 102.422 287.212 100.701 289.809 100.701C292.407 100.701 294.508 102.422 294.508 104.543Z" stroke="#263238" stroke-linecap="round" stroke-linejoin="round"/>
<path d="M260.556 83.1911C262.325 83.1911 263.759 79.6535 263.759 75.2895C263.759 70.9256 262.325 67.3879 260.556 67.3879C258.787 67.3879 257.353 70.9256 257.353 75.2895C257.353 79.6535 258.787 83.1911 260.556 83.1911Z" stroke="#263238" stroke-linecap="round" stroke-linejoin="round"/>
<path d="M269.314 143.195C269.314 144.082 269.051 144.95 268.558 145.688C268.065 146.426 267.364 147.001 266.544 147.341C265.724 147.681 264.821 147.769 263.951 147.596C263.08 147.423 262.281 146.996 261.653 146.368C261.025 145.74 260.598 144.941 260.425 144.07C260.251 143.2 260.34 142.297 260.68 141.477C261.02 140.657 261.595 139.956 262.333 139.463C263.071 138.97 263.939 138.707 264.826 138.707C266.017 138.707 267.158 139.179 268 140.021C268.842 140.863 269.314 142.004 269.314 143.195Z" stroke="#263238" stroke-linecap="round" stroke-linejoin="round"/>
<path d="M290.238 76.5681C290.239 77.1188 290.077 77.6574 289.772 78.1158C289.467 78.5742 289.032 78.9317 288.524 79.1431C288.016 79.3544 287.456 79.4101 286.916 79.303C286.375 79.1959 285.879 78.9309 285.49 78.5415C285.101 78.1521 284.836 77.656 284.728 77.1158C284.621 76.5757 284.677 76.0159 284.888 75.5074C285.1 74.999 285.457 74.5647 285.916 74.2596C286.374 73.9545 286.913 73.7924 287.463 73.7937C288.199 73.7955 288.903 74.0884 289.423 74.6083C289.943 75.1282 290.236 75.8328 290.238 76.5681Z" stroke="#263238" stroke-linecap="round" stroke-linejoin="round"/>
<path d="M272.728 96.2133C272.729 96.5095 272.643 96.7994 272.479 97.0463C272.315 97.2932 272.082 97.486 271.809 97.6003C271.536 97.7146 271.235 97.7452 270.944 97.6882C270.654 97.6313 270.386 97.4893 270.176 97.2804C269.967 97.0714 269.823 96.8049 269.765 96.5145C269.707 96.2241 269.736 95.923 269.849 95.6492C269.962 95.3755 270.154 95.1414 270.4 94.9767C270.646 94.8121 270.936 94.7241 271.232 94.7241C271.428 94.7232 271.622 94.7611 271.804 94.8355C271.985 94.91 272.15 95.0195 272.289 95.1579C272.428 95.2963 272.539 95.4608 272.614 95.6419C272.689 95.823 272.728 96.0172 272.728 96.2133V96.2133Z" stroke="#263238" stroke-linecap="round" stroke-linejoin="round"/>
<path d="M301.614 62.6892H237.307V151.96H301.614V62.6892Z" stroke="#263238" stroke-linecap="round" stroke-linejoin="round"/>
<path d="M196.513 189.985H179.044V196.561H196.513V189.985Z" fill="#263238" stroke="#263238" stroke-linecap="round" stroke-linejoin="round"/>
<path d="M219.953 190.978H150.423L153.714 137.081H223.251L219.953 190.978Z" fill="#919191" stroke="#263238" stroke-linecap="round" stroke-linejoin="round"/>
<path d="M217.961 190.978H148.431L151.722 137.081H221.252L217.961 190.978Z" fill="#263238" stroke="#263238" stroke-linecap="round" stroke-linejoin="round"/>
<path d="M214.282 187.979H152.477L155.401 140.073H217.206L214.282 187.979Z" fill="white" stroke="#263238" stroke-linecap="round" stroke-linejoin="round"/>
<path d="M196.303 180.839H154.319L156.57 143.922H198.56L196.303 180.839Z" fill="#919191" stroke="#263238" stroke-linecap="round" stroke-linejoin="round"/>
<path d="M170.884 164.982C170.884 164.982 162.139 168.443 162.085 169.375C162.03 170.306 160.317 180.839 160.317 180.839H186.32L184.13 168.708L174.509 164.71L170.884 164.982Z" fill="white" stroke="#263238" stroke-linecap="round" stroke-linejoin="round"/>
<path d="M171.143 162.847C170.484 163.02 169.873 163.338 169.354 163.778C168.674 164.458 167.845 166.709 167.845 166.709L167.811 169.375L171.258 167.511L174.76 167.28L178.038 170.347L178.459 165.682C178.459 165.682 177.956 163.017 176.895 162.881C175.835 162.745 171.143 162.847 171.143 162.847Z" fill="white" stroke="#263238" stroke-linecap="round" stroke-linejoin="round"/>
<path d="M171.034 160.317L170.884 164.982L172.945 168.314L176.351 164.846L176.882 160.582L171.034 160.317Z" fill="white" stroke="#263238" stroke-linecap="round" stroke-linejoin="round"/>
<path d="M179.439 154.863C179.194 158.773 176.596 163.513 173.747 163.513C170.898 163.513 168.878 158.753 169.116 154.863C169.354 150.974 171.836 147.784 174.706 147.784C177.575 147.784 179.677 150.96 179.439 154.863Z" fill="white" stroke="#263238" stroke-linecap="round" stroke-linejoin="round"/>
<path d="M169.069 155.38C169.069 155.38 168.151 152.987 167.77 154.85C167.389 156.713 169.266 158.712 169.266 158.712L169.069 155.38Z" fill="white" stroke="#263238" stroke-linecap="round" stroke-linejoin="round"/>
<path d="M179.439 154.863C179.439 154.863 181.69 153.918 181.03 155.917C180.863 156.483 180.57 157.004 180.175 157.442C179.779 157.88 179.291 158.223 178.745 158.447L179.439 154.863Z" fill="white" stroke="#263238" stroke-linecap="round" stroke-linejoin="round"/>
<path d="M173.468 155.38C173.486 155.14 173.454 154.899 173.373 154.672C173.293 154.445 173.166 154.237 173.001 154.062C172.836 153.887 172.636 153.748 172.415 153.654C172.193 153.56 171.954 153.513 171.714 153.517C171.212 153.53 170.734 153.727 170.369 154.071C170.004 154.415 169.778 154.881 169.735 155.38C169.717 155.62 169.749 155.862 169.829 156.089C169.91 156.316 170.036 156.525 170.201 156.7C170.366 156.876 170.566 157.016 170.788 157.11C171.009 157.205 171.248 157.253 171.489 157.25C171.991 157.237 172.471 157.038 172.836 156.693C173.201 156.348 173.426 155.881 173.468 155.38V155.38Z" fill="white" stroke="#263238" stroke-linecap="round" stroke-linejoin="round"/>
<path d="M177.997 155.38L180.03 154.85" stroke="#263238" stroke-linecap="round" stroke-linejoin="round"/>
<path d="M177.997 155.38C178.015 155.141 177.983 154.9 177.903 154.674C177.823 154.447 177.697 154.24 177.532 154.065C177.368 153.889 177.169 153.75 176.948 153.656C176.727 153.562 176.489 153.514 176.249 153.517C175.747 153.528 175.266 153.725 174.9 154.069C174.534 154.413 174.307 154.88 174.264 155.38C174.246 155.621 174.278 155.862 174.358 156.089C174.438 156.317 174.565 156.525 174.73 156.701C174.895 156.876 175.095 157.016 175.316 157.111C175.538 157.205 175.777 157.253 176.018 157.25C176.52 157.237 177 157.039 177.365 156.694C177.73 156.348 177.955 155.881 177.997 155.38V155.38Z" fill="white" stroke="#263238" stroke-linecap="round" stroke-linejoin="round"/>
<path d="M174.243 146.982C174.243 146.982 172.203 145.921 170.673 146.588C169.143 147.254 168.015 150.851 168.089 151.783C168.329 153.004 168.657 154.206 169.069 155.38L170.687 150.715L174.93 148.852L174.243 146.982Z" fill="#263238" stroke="#263238" stroke-linecap="round" stroke-linejoin="round"/>
<path d="M172.19 147.92C172.19 147.92 175.549 145.255 178.269 146.56C179.102 146.922 179.79 147.551 180.224 148.348C180.659 149.145 180.816 150.064 180.669 150.96C180.629 151.64 180.574 154.686 180.574 154.686L178.956 154.958L178.16 152.449C177.241 152.086 176.346 151.663 175.481 151.184C175.481 151.184 171.884 150.715 172.19 147.92Z" fill="#263238" stroke="#263238" stroke-linecap="round" stroke-linejoin="round"/>
<path d="M173.468 155.38L173.23 159.249H174.162" fill="white"/>
<path d="M173.468 155.38L173.23 159.249H174.162" stroke="#263238" stroke-linecap="round" stroke-linejoin="round"/>
<path d="M172.741 160.711H174.74" stroke="#263238" stroke-linecap="round" stroke-linejoin="round"/>
<path d="M172.945 168.314L172.204 180.438" stroke="#263238" stroke-linecap="round" stroke-linejoin="round"/>
<path d="M184.117 168.708C184.117 168.708 181.336 174.978 181.254 176.31C181.173 177.643 180.86 180.574 180.86 180.574" stroke="#263238" stroke-linecap="round" stroke-linejoin="round"/>
<path d="M162.085 169.375C162.085 169.375 164.853 174.175 165.213 174.815C165.573 175.454 165.131 180.547 165.131 180.547" stroke="#263238" stroke-linecap="round" stroke-linejoin="round"/>
<path d="M185.973 173.244L186.891 169.109L188.455 167.511L189.931 165.111H190.597L189.781 167.647L191.848 166.444L193.181 164.315L193.956 164.71L192.052 169.646L189.033 171.108L188.51 173.108L185.973 173.244Z" fill="white" stroke="#263238" stroke-linecap="round" stroke-linejoin="round"/>
<path d="M188.558 180.839L188.809 172.577L185.776 172.04L183.383 180.839H188.558Z" fill="white" stroke="#263238" stroke-linecap="round" stroke-linejoin="round"/>
<path d="M196.119 183.906H154.129L154.319 180.839H196.303L196.119 183.906Z" fill="white" stroke="#263238" stroke-linecap="round" stroke-linejoin="round"/>
<path d="M155.843 182.043H194.365" stroke="#263238" stroke-linecap="round" stroke-linejoin="round"/>
<path d="M214.35 153.775H200.219L200.818 144.044H214.948L214.35 153.775Z" fill="#CBCBCB" stroke="#263238" stroke-linecap="round" stroke-linejoin="round"/>
<path d="M214.35 153.775H200.219L200.321 152.177H214.452L214.35 153.775Z" fill="white" stroke="#263238" stroke-linecap="round" stroke-linejoin="round"/>
<path d="M209.787 148.342L206.115 146.146L205.85 150.539L209.787 148.342Z" fill="white" stroke="#263238" stroke-linecap="round" stroke-linejoin="round"/>
<path d="M213.432 168.837H199.301L199.893 159.113H214.023L213.432 168.837Z" fill="#CBCBCB" stroke="#263238" stroke-linecap="round" stroke-linejoin="round"/>
<path d="M213.432 168.837H199.301L199.403 167.239H213.527L213.432 168.837Z" fill="white" stroke="#263238" stroke-linecap="round" stroke-linejoin="round"/>
<path d="M208.869 163.411L205.197 161.215L204.932 165.607L208.869 163.411Z" fill="white" stroke="#263238" stroke-linecap="round" stroke-linejoin="round"/>
<path d="M212.507 183.906H198.383L198.975 174.175H213.105L212.507 183.906Z" fill="#CBCBCB" stroke="#263238" stroke-linecap="round" stroke-linejoin="round"/>
<path d="M212.507 183.906H198.383L198.479 182.308H212.609L212.507 183.906Z" fill="white" stroke="#263238" stroke-linecap="round" stroke-linejoin="round"/>
<path d="M207.944 178.473L204.279 176.277L204.007 180.669L207.944 178.473Z" fill="white" stroke="#263238" stroke-linecap="round" stroke-linejoin="round"/>
<path d="M200.26 155.38H213.983" stroke="#263238" stroke-linecap="round" stroke-linejoin="round"/>
<path d="M200.158 156.985H213.887" stroke="#263238" stroke-linecap="round" stroke-linejoin="round"/>
<path d="M199.329 170.578H213.058" stroke="#263238" stroke-linecap="round" stroke-linejoin="round"/>
<path d="M199.233 172.176H212.963" stroke="#263238" stroke-linecap="round" stroke-linejoin="round"/>
<path d="M193.243 196.561H182.92C182.92 195.531 183.329 194.544 184.058 193.815C184.786 193.087 185.773 192.678 186.803 192.678H189.346C190.376 192.678 191.364 193.087 192.092 193.815C192.82 194.544 193.229 195.531 193.229 196.561H193.243Z" fill="white" stroke="#263238" stroke-linecap="round" stroke-linejoin="round"/>
<path d="M178.004 194.446H127.534V196.561H178.004V194.446Z" fill="#919191" stroke="#263238" stroke-linecap="round" stroke-linejoin="round"/>
<path d="M177.99 194.446H165.308V196.561H177.99V194.446Z" fill="white" stroke="#263238" stroke-linecap="round" stroke-linejoin="round"/>
<path d="M106.849 92.9085V52.7273" stroke="#263238" stroke-linecap="round" stroke-linejoin="round"/>
<path d="M106.849 294.005V96.907" stroke="#263238" stroke-linecap="round" stroke-linejoin="round"/>
<path d="M198.607 210.664L204.727 293.168C204.759 293.47 204.905 293.747 205.134 293.945C205.363 294.143 205.659 294.245 205.962 294.232C206.264 294.219 206.551 294.092 206.762 293.875C206.974 293.658 207.095 293.369 207.101 293.066L206.183 210.664H198.607Z" fill="#919191" stroke="#263238" stroke-linecap="round" stroke-linejoin="round"/>
<path d="M203.225 210.664L206.455 294.12C206.645 294.019 206.804 293.867 206.915 293.681C207.025 293.495 207.082 293.282 207.08 293.066L206.183 210.664H203.225Z" fill="white" stroke="#263238" stroke-linecap="round" stroke-linejoin="round"/>
<path d="M237.075 210.664L243.195 293.168C243.227 293.47 243.372 293.747 243.602 293.945C243.831 294.143 244.127 294.245 244.43 294.232C244.732 294.219 245.018 294.092 245.23 293.875C245.442 293.658 245.563 293.369 245.568 293.066L244.65 210.664H237.075Z" fill="#919191" stroke="#263238" stroke-linecap="round" stroke-linejoin="round"/>
<path d="M241.332 210.664L245.099 293.998C245.24 293.888 245.354 293.746 245.432 293.585C245.51 293.423 245.55 293.246 245.548 293.066L244.65 210.664H241.332Z" fill="white" stroke="#263238" stroke-linecap="round" stroke-linejoin="round"/>
<path d="M135.673 211.562L129.553 293.162C129.533 293.461 129.399 293.742 129.179 293.946C128.959 294.151 128.67 294.264 128.37 294.263V294.263C128.213 294.266 128.056 294.238 127.91 294.179C127.764 294.121 127.63 294.035 127.518 293.925C127.405 293.815 127.316 293.683 127.254 293.538C127.193 293.393 127.161 293.238 127.16 293.08L128.064 211.344L135.673 211.562Z" fill="#263238" stroke="#263238" stroke-linecap="round" stroke-linejoin="round"/>
<path d="M97.2399 211.562L91.1199 293.162C91.0992 293.461 90.9655 293.742 90.7458 293.946C90.5261 294.151 90.2369 294.264 89.9367 294.263V294.263C89.7798 294.262 89.6247 294.231 89.4802 294.17C89.3357 294.108 89.2048 294.019 89.0948 293.908C88.9848 293.796 88.8981 293.663 88.8395 293.518C88.7809 293.372 88.7517 293.217 88.7535 293.06L89.6579 211.324L97.2399 211.562Z" fill="#263238" stroke="#263238" stroke-linecap="round" stroke-linejoin="round"/>
<path d="M246.901 198.479H87.3525V211.331H246.901V198.479Z" fill="#919191" stroke="#263238" stroke-linecap="round" stroke-linejoin="round"/>
<path d="M246.901 198.479H201.178V211.331H246.901V198.479Z" fill="white" stroke="#263238" stroke-linecap="round" stroke-linejoin="round"/>
<path d="M246.901 200.519H87.3525V204.061H246.901V200.519Z" fill="#263238" stroke="#263238" stroke-linecap="round" stroke-linejoin="round"/>
<path d="M249.199 196.636H85.0542V200.933H249.199V196.636Z" fill="#919191" stroke="#263238" stroke-linecap="round" stroke-linejoin="round"/>
<path d="M249.192 196.636H204.115V200.933H249.192V196.636Z" fill="white" stroke="#263238" stroke-linecap="round" stroke-linejoin="round"/>
<path d="M200.797 116.96H178.643C177.489 116.96 176.382 117.418 175.566 118.235C174.75 119.051 174.291 120.158 174.291 121.312V129.472C174.29 130.044 174.402 130.61 174.62 131.138C174.839 131.667 175.159 132.147 175.564 132.551C175.968 132.956 176.448 133.276 176.977 133.494C177.505 133.713 178.071 133.825 178.643 133.824H190.244L185.899 145.962L194.222 133.824H200.797C201.369 133.825 201.936 133.713 202.464 133.494C202.992 133.276 203.472 132.956 203.877 132.551C204.281 132.147 204.602 131.667 204.82 131.138C205.038 130.61 205.15 130.044 205.149 129.472V121.312C205.149 120.158 204.691 119.051 203.875 118.235C203.059 117.418 201.952 116.96 200.797 116.96Z" fill="white" stroke="#263238" stroke-linecap="round" stroke-linejoin="round"/>
<path d="M183.784 127.248C184.659 127.248 185.368 126.539 185.368 125.664C185.368 124.789 184.659 124.08 183.784 124.08C182.909 124.08 182.199 124.789 182.199 125.664C182.199 126.539 182.909 127.248 183.784 127.248Z" fill="#263238"/>
<path d="M189.72 127.248C190.595 127.248 191.305 126.539 191.305 125.664C191.305 124.789 190.595 124.08 189.72 124.08C188.845 124.08 188.136 124.789 188.136 125.664C188.136 126.539 188.845 127.248 189.72 127.248Z" fill="#263238"/>
<path d="M197.234 125.664C197.234 125.35 197.141 125.044 196.967 124.783C196.792 124.522 196.544 124.319 196.255 124.2C195.965 124.08 195.646 124.049 195.338 124.111C195.031 124.172 194.748 124.324 194.527 124.546C194.306 124.768 194.155 125.051 194.095 125.359C194.035 125.667 194.067 125.986 194.188 126.275C194.309 126.564 194.513 126.811 194.775 126.985C195.036 127.158 195.343 127.25 195.657 127.248C195.864 127.248 196.07 127.207 196.262 127.128C196.454 127.048 196.628 126.931 196.775 126.784C196.921 126.637 197.037 126.462 197.116 126.27C197.195 126.078 197.235 125.872 197.234 125.664Z" fill="#263238"/>
<path d="M306 294.44H324.36" stroke="#263238" stroke-linecap="round" stroke-linejoin="round"/>
<path d="M16.3198 294.44H296.48" stroke="#263238" stroke-linecap="round" stroke-linejoin="round"/>
<path d="M124.195 174.271C122.203 170.871 116.341 157.781 116.341 157.781C116.518 156.382 116.805 155 117.198 153.646C117.681 152.286 118.898 148.165 118.653 147.309C118.409 146.452 114.879 144.874 114.519 144.752C114.159 144.629 115.002 142.562 113.662 142.073C112.323 141.583 111.84 142.317 111.84 142.317L111.33 145.717L109.766 148.165C109.115 147.67 108.433 147.216 107.726 146.805C106.631 146.193 104.074 145.949 103.952 146.928C103.829 147.907 105.992 148.75 106.747 149.362C107.501 149.974 108.453 152.891 109.31 153.748C110.089 154.598 110.82 155.49 111.5 156.421L111.989 158.005C111.989 158.005 113.655 174.046 113.853 178.038C114.05 182.029 114.648 192.59 115.845 194.181C117.042 195.772 117.246 196.779 120.605 195.582C123.964 194.385 124.59 192.787 125.365 189.197C126.14 185.606 126.188 177.657 124.195 174.271Z" fill="white" stroke="#263238" stroke-linecap="round" stroke-linejoin="round"/>
<path d="M125.392 189.217C126.188 185.633 126.188 177.657 124.195 174.257C123.978 173.883 123.712 173.4 123.413 172.829C118.905 171.516 114.621 173.658 114.621 173.658L113.533 174.134C113.676 175.8 113.784 177.194 113.825 178.044C114.029 182.029 114.621 192.596 115.818 194.188C117.014 195.779 117.218 196.785 120.578 195.588C123.937 194.392 124.59 192.807 125.392 189.217Z" fill="#CBCBCB" stroke="#263238" stroke-linecap="round" stroke-linejoin="round"/>
<path d="M109.657 120.36C110.148 122.164 110.422 124.02 110.473 125.889C110.473 128.547 109.657 130.186 110.888 131.002C112.119 131.818 113.139 131.825 112.928 133.464C112.847 134.368 112.488 135.226 111.901 135.919C111.901 135.919 111.493 144.31 111.085 145.133C110.677 145.955 105.353 144.929 104.122 144.718C102.891 144.507 99.4162 146.153 97.1586 141.651C94.901 137.149 96.7506 130.39 100.844 126.909C103.66 124.566 106.602 122.38 109.657 120.36V120.36Z" fill="white" stroke="#263238" stroke-linecap="round" stroke-linejoin="round"/>
<path d="M110.473 125.855C110.473 125.855 109.365 125.025 108.78 126.48" stroke="#263238" stroke-linecap="round" stroke-linejoin="round"/>
<path d="M109.48 129.241C109.321 130.065 109.372 130.917 109.63 131.716" stroke="#263238" stroke-linecap="round" stroke-linejoin="round"/>
<path d="M111.52 138.856C111.338 138.914 111.146 138.934 110.957 138.913C110.767 138.892 110.584 138.832 110.419 138.736C110.254 138.64 110.111 138.51 110 138.355C109.889 138.2 109.811 138.023 109.772 137.836" stroke="#263238" stroke-linecap="round" stroke-linejoin="round"/>
<path d="M113.839 177.344C113.839 177.344 113.159 180.458 112.554 182.104C111.949 183.75 101.096 186.769 96.3698 187.394C93.2566 187.783 90.1232 187.99 86.9858 188.013L87.285 196.622C87.285 196.622 96.4378 196.806 97.0838 196.622C97.7298 196.438 113.139 189.55 113.139 189.55L119.789 188.68C119.789 188.68 122.584 188 122.693 185.83C122.801 183.661 120.333 177.494 119.211 176.535C118.089 175.576 115.723 173.033 114.301 174.597C112.88 176.161 113.839 177.344 113.839 177.344Z" fill="white" stroke="#263238" stroke-linecap="round" stroke-linejoin="round"/>
<path d="M93.4321 192.8C93.4321 189.081 94.3841 188.986 95.4721 187.51C92.6607 187.824 89.8349 187.992 87.0061 188.013L86.7817 195.915C86.7817 195.915 91.7933 196.377 94.8465 196.595C94.5949 196.982 93.4321 195.194 93.4321 192.8Z" fill="#CBCBCB" stroke="#263238" stroke-linecap="round" stroke-linejoin="round"/>
<path d="M122.985 209.528C119.364 205.46 114.761 202.386 109.616 200.6L97.675 205.693C96.7477 203.417 95.5171 201.276 94.0166 199.328L91.7862 196.608L93.221 188.809C93.221 188.809 101.816 182.92 102.925 180.37L102.965 180.288C104.693 182.961 112.186 194.528 113.594 195.65C115.185 196.928 119.959 197.084 122.026 195.174C124.093 193.263 125.052 191.991 124.576 189.128C124.576 189.128 121.393 182.281 119.639 179.255C117.885 176.229 114.07 165.41 112.159 162.064C110.799 159.671 110.235 157.984 109.269 156.856C108.599 155.701 107.808 154.62 106.909 153.632C104.999 151.592 99.7422 151.082 98.627 150.606C97.5118 150.13 97.3554 149.967 90.9906 148.063C84.6258 146.159 77.4586 145.037 72.3654 149.015C72.3654 149.015 65.5246 157.134 62.8454 170.503C60.1662 183.872 59.9758 197.404 59.663 199.791C59.3502 202.178 56.637 213.799 55.8414 220.483C55.0458 227.168 62.0226 233.879 66.3202 235.96C70.6178 238.041 89.0798 238.347 99.9054 235.96C110.731 233.573 127.921 222.748 127.921 222.748C127.921 222.748 128.554 216.056 122.985 209.528Z" fill="#CBCBCB" stroke="#263238" stroke-linecap="round" stroke-linejoin="round"/>
<path d="M94.8395 180.119L92.6567 180.044" stroke="#263238" stroke-linecap="round" stroke-linejoin="round"/>
<path d="M94.0166 176.644C97.0743 177.674 100.052 178.928 102.925 180.397L97.3214 180.207" stroke="#263238" stroke-linecap="round" stroke-linejoin="round"/>
<path d="M123.59 180.662C124.218 181.649 124.605 182.769 124.719 183.933C124.719 185.436 124.971 187.449 124.345 186.823C123.719 186.198 123.461 184.056 123.461 184.056L123.59 180.662Z" fill="white" stroke="#263238" stroke-linecap="round" stroke-linejoin="round"/>
<path d="M119.823 178.908C119.823 178.908 122.176 177.63 123.223 179.167C124.27 180.703 123.991 183.77 123.223 185.287C122.454 186.803 121.577 185.355 121.686 184.008C121.795 182.662 119.823 178.908 119.823 178.908Z" fill="white" stroke="#263238" stroke-linecap="round" stroke-linejoin="round"/>
<path d="M118.939 177.276C118.939 177.276 121.299 175.998 122.339 177.534C123.379 179.071 123.101 182.131 122.339 183.654C121.577 185.178 120.693 183.722 120.802 182.376C120.911 181.03 118.939 177.276 118.939 177.276Z" fill="white" stroke="#263238" stroke-linecap="round" stroke-linejoin="round"/>
<path d="M117.857 175.515C117.857 175.515 120.217 174.236 121.257 175.773C122.298 177.31 122.026 180.377 121.257 181.893C120.489 183.41 119.612 181.961 119.721 180.615C119.829 179.268 117.857 175.515 117.857 175.515Z" fill="white" stroke="#263238" stroke-linecap="round" stroke-linejoin="round"/>
<path d="M111.887 113.975C111.926 116.419 111.296 118.827 110.065 120.938C106.583 126.262 103.312 125.644 101.905 129.948C100.497 134.253 98.3959 138.72 100.64 141.209C102.884 143.698 104.72 142.229 104.72 142.229C104.72 142.229 106.155 145.915 102.469 149.6C98.7835 153.286 92.4391 151.851 90.8003 151.239C89.7683 150.841 88.8029 150.289 87.9375 149.6C87.9375 149.6 86.9107 152.47 81.8175 152.47C76.7243 152.47 70.9375 148.988 70.9375 142.637C70.9375 136.286 74.4123 131.995 75.2351 129.533C76.0579 127.072 73.8003 119.503 77.2751 114.798C80.7499 110.092 86.1151 106.638 90.1951 106.638C94.2751 106.638 102.238 108.875 102.272 108.888C102.809 109.181 106.25 107.78 107.181 107.841C110.602 108.032 111.846 110.84 111.887 113.975Z" fill="#263238" stroke="#263238" stroke-linecap="round" stroke-linejoin="round"/>
<path d="M98.6001 143.099C99.3425 143.198 100.095 143.198 100.837 143.099" stroke="#919191" stroke-linecap="round" stroke-linejoin="round"/>
<path d="M108.936 117.545C108.613 119.368 107.941 121.111 106.957 122.679C103.775 127.677 100.157 129.479 95.8258 134.239C93.0446 137.319 93.5682 140.393 95.8258 142.005" stroke="#919191" stroke-linecap="round" stroke-linejoin="round"/>
<path d="M108.997 112.234C109.13 112.984 109.196 113.744 109.194 114.505" stroke="#919191" stroke-linecap="round" stroke-linejoin="round"/>
<path d="M104.72 117.001C104.72 117.001 104.04 124.039 101.089 128.126C98.1376 132.213 92.2488 134.246 92.4596 138.571" stroke="#919191" stroke-linecap="round" stroke-linejoin="round"/>
<path d="M132.124 234.811C132.124 234.811 136.367 256.612 139.998 267.206C143.629 277.8 147.261 287.49 148.158 288.402C149.056 289.313 151.49 292.638 151.49 292.638C150.365 293.537 148.99 294.066 147.553 294.154C145.431 294.154 142.711 291.434 140.284 289.911C137.856 288.388 137.564 287.49 132.715 285.675C127.867 283.859 131.811 279.018 133.021 276.59C133.721 275.28 134.134 273.836 134.232 272.354C132.307 265.535 128.896 259.228 124.243 253.885C116.688 245.412 115.171 225.76 115.171 225.76L129.703 220.32L132.124 234.811Z" fill="white" stroke="#263238" stroke-linecap="round" stroke-linejoin="round"/>
<path d="M147.56 287.314L146.683 287.491C146.683 287.491 141.535 280.527 137.605 278.107C136.265 277.182 134.689 276.658 133.063 276.597C131.845 279.018 127.915 283.859 132.757 285.675C137.598 287.491 137.904 288.395 140.325 289.911C142.746 291.428 145.473 294.155 147.594 294.155C149.031 294.066 150.406 293.537 151.531 292.638C151.531 292.638 149.104 289.306 148.199 288.402C147.942 288.067 147.727 287.702 147.56 287.314V287.314Z" fill="#CBCBCB" stroke="#263238" stroke-linecap="round" stroke-linejoin="round"/>
<path d="M145.119 293.291C142.725 291.639 140.563 287.967 136.666 285.675C133.124 283.594 131.301 283.513 130.546 283.669C130.731 284.155 131.029 284.59 131.414 284.938C131.799 285.287 132.262 285.539 132.763 285.675C137.612 287.491 137.911 288.395 140.332 289.911C141.862 290.891 143.548 292.4 145.119 293.291Z" fill="#CBCBCB" stroke="#263238" stroke-linecap="round" stroke-linejoin="round"/>
<path d="M147.56 294.155C147.405 294.149 147.251 294.133 147.098 294.107C147.25 294.136 147.405 294.152 147.56 294.155V294.155Z" fill="#CBCBCB" stroke="#263238" stroke-linecap="round" stroke-linejoin="round"/>
<path d="M105.141 201.96C105.141 201.96 119.693 196.806 121.053 200.206C122.413 203.606 128.642 216.288 126.371 221.497C124.1 226.705 108.133 206.537 105.862 206.101C103.591 205.666 104.876 203.483 105.141 201.96Z" fill="white" stroke="#263238" stroke-linecap="round" stroke-linejoin="round"/>
<path d="M119.401 208.604C119.401 208.604 135.946 207.244 139.121 210.195C142.297 213.146 131.417 248.499 125.521 259.604C116.28 276.971 119.075 281.52 119.075 281.52C119.075 281.52 119.755 284.24 124.29 288.551C128.826 292.862 130.186 293.536 128.595 294.216C127.004 294.896 120.21 294.216 119.53 293.76C118.85 293.304 113.866 289.231 109.33 287.871C104.795 286.511 105.475 285.6 107.515 281.52C109.555 277.44 109.33 280.84 111.595 273.816C114.309 265.159 116.453 256.334 118.014 247.398C119.218 240.115 121.054 232.118 120.537 224.713L119.401 208.604Z" fill="white" stroke="#263238" stroke-linecap="round" stroke-linejoin="round"/>
<path d="M131.519 219.674C129.787 215.494 126.806 211.951 122.985 209.529C115.75 204.911 109.616 200.6 109.616 200.6L97.6754 205.693C97.6754 205.693 100.586 210.63 85.6258 213.126C74.1066 215.043 63.5326 212.262 57.8274 208.91C57.0318 212.861 56.2022 217.253 55.7874 220.47C54.9918 227.154 61.9958 233.839 66.2934 235.913C70.591 237.987 105.217 242.277 114.539 236.287C131.519 225.427 131.519 219.674 131.519 219.674Z" fill="#263238" stroke="#263238" stroke-linecap="round" stroke-linejoin="round"/>
<path d="M96.3221 209.44C94.7241 210.752 91.6097 212.16 85.6257 213.132C74.1065 215.05 63.5325 212.269 57.8273 208.917C57.6233 209.93 57.4193 210.956 57.2153 212.01C61.1253 214.363 69.3397 218.348 78.6013 217.212C89.6513 215.859 94.5609 212.84 96.3221 209.44Z" fill="#CBCBCB" stroke="#263238" stroke-linecap="round" stroke-linejoin="round"/>
<path d="M87.4957 224.006C86.9653 224.686 86.4145 225.366 85.8569 226.046" stroke="white" stroke-linecap="round" stroke-linejoin="round"/>
<path d="M95.8254 211.099C93.7327 214.947 91.3978 218.658 88.835 222.211" stroke="white" stroke-linecap="round" stroke-linejoin="round"/>
<path d="M90.8414 215.404C90.8414 215.404 86.7614 220.844 82.457 224.019" stroke="white" stroke-linecap="round" stroke-linejoin="round"/>
<path d="M124.29 288.538C119.755 284.24 119.075 281.52 119.075 281.52C118.923 281.379 118.802 281.208 118.721 281.017C118.415 281.337 117.49 281.942 115.226 281.071C113.261 280.317 111.398 279.031 109.432 278.168C108.963 279.004 108.508 279.528 107.515 281.52C105.475 285.6 104.795 286.511 109.33 287.871C113.866 289.231 118.85 293.311 119.53 293.76C120.21 294.209 127.01 294.896 128.595 294.216C130.179 293.536 128.826 292.842 124.29 288.538Z" fill="#CBCBCB" stroke="#263238" stroke-linecap="round" stroke-linejoin="round"/>
<path d="M128.466 221.979L136.177 217.219" stroke="#263238" stroke-linecap="round" stroke-linejoin="round"/>
<path d="M36.3462 178.881C36.3462 178.881 60.9078 175.807 76.6022 180.241L78.989 239.952H42.1602C42.1602 239.952 44.5334 207.876 36.3462 178.881Z" fill="#919191" stroke="#263238" stroke-linecap="round" stroke-linejoin="round"/>
<path d="M76.6022 180.241C60.9078 175.807 36.3462 178.881 36.3462 178.881C38.9746 188.545 40.7203 198.427 41.5618 208.407C55.2766 215.255 67.8379 224.202 78.7918 234.927L76.6022 180.241Z" fill="#757575" stroke="#263238" stroke-linecap="round" stroke-linejoin="round"/>
<path d="M122.917 295.8C122.639 295.801 122.367 295.717 122.139 295.559C121.91 295.401 121.736 295.177 121.638 294.916C116.198 280.255 114.838 242.196 114.757 240.584C114.744 240.224 114.875 239.873 115.121 239.609C115.367 239.345 115.708 239.189 116.069 239.177C116.43 239.164 116.781 239.295 117.045 239.541C117.309 239.787 117.464 240.128 117.477 240.489C117.477 240.883 118.891 279.718 124.188 293.964C124.314 294.302 124.299 294.676 124.149 295.004C123.998 295.332 123.724 295.586 123.386 295.712C123.237 295.771 123.077 295.801 122.917 295.8Z" fill="white" stroke="#263238" stroke-linecap="round" stroke-linejoin="round"/>
<path d="M93.3029 295.8C93.0262 295.8 92.7562 295.715 92.529 295.557C92.3018 295.399 92.1282 295.175 92.0313 294.916C86.5913 280.255 85.2313 242.196 85.1429 240.584C85.1303 240.224 85.2615 239.873 85.5076 239.609C85.7537 239.345 86.0946 239.189 86.4553 239.177C86.816 239.164 87.167 239.295 87.4309 239.541C87.6949 239.787 87.8503 240.128 87.8629 240.489C87.8629 240.883 89.2773 279.718 94.5813 293.964C94.7066 294.302 94.6925 294.676 94.542 295.004C94.3915 295.332 94.117 295.586 93.7789 295.712C93.6273 295.771 93.4658 295.801 93.3029 295.8V295.8Z" fill="white" stroke="#263238" stroke-linecap="round" stroke-linejoin="round"/>
<path d="M122.55 239.925H41.5142V237.205H119.843C120.565 237.205 121.257 237.491 121.767 238.001C122.277 238.511 122.563 239.203 122.563 239.925H122.55Z" fill="#919191" stroke="#263238" stroke-linecap="round" stroke-linejoin="round"/>
<path d="M122.543 239.265H41.5142V241.964H122.543V239.265Z" fill="white" stroke="#263238" stroke-linecap="round" stroke-linejoin="round"/>
<path d="M75.9969 295.8C75.7922 295.804 75.5892 295.763 75.4029 295.678C75.2167 295.592 75.0521 295.466 74.9214 295.309C74.7906 295.151 74.6971 294.966 74.6479 294.768C74.5986 294.569 74.5948 294.362 74.6369 294.161C82.3276 257.727 75.3169 181.111 75.2217 180.343C75.2051 180.164 75.224 179.984 75.277 179.813C75.3301 179.642 75.4164 179.482 75.531 179.344C75.6456 179.206 75.7863 179.092 75.945 179.009C76.1037 178.925 76.2773 178.874 76.4559 178.857C76.8165 178.824 77.1757 178.935 77.4544 179.167C77.733 179.398 77.9083 179.731 77.9417 180.091C78.0165 180.867 85.0816 257.883 77.3093 294.719C77.2459 295.021 77.0814 295.293 76.8429 295.49C76.6043 295.686 76.3059 295.796 75.9969 295.8Z" fill="white" stroke="#263238" stroke-linecap="round" stroke-linejoin="round"/>
<path d="M33.8368 294.807C33.7101 294.809 33.5839 294.79 33.4628 294.753C33.1171 294.655 32.8243 294.424 32.6485 294.11C32.4727 293.797 32.428 293.426 32.5244 293.08C50.2044 230.316 35.1968 179.779 35.0472 179.275C34.9615 178.937 35.0092 178.579 35.1805 178.274C35.3518 177.97 35.6335 177.743 35.9673 177.641C36.3011 177.539 36.6615 177.569 36.9737 177.725C37.286 177.881 37.5263 178.151 37.6448 178.48C37.8012 178.99 53.0672 230.248 35.1424 293.815C35.0625 294.1 34.8917 294.351 34.6561 294.53C34.4205 294.709 34.1328 294.807 33.8368 294.807V294.807Z" fill="white" stroke="#263238" stroke-linecap="round" stroke-linejoin="round"/>
<path d="M282.458 182.682C282.458 182.682 274.101 178.038 273.482 188.564C272.863 199.091 271.32 267.505 271.32 267.505" stroke="#263238" stroke-width="2" stroke-linecap="round" stroke-linejoin="round"/>
<path d="M269.144 189.489C269.144 189.489 275.944 204.66 272.864 266.58" stroke="#263238" stroke-width="2" stroke-linecap="round" stroke-linejoin="round"/>
<path d="M275.842 184.804C275.842 184.804 272.639 186.844 270.823 184.505C269.008 182.165 272.054 177.868 269.368 176.032C266.682 174.196 262.038 176.997 262.038 176.997C262.038 176.997 265.608 178.045 265.492 179.996C265.377 181.948 263.656 182.682 263.452 181.832C263.248 180.982 261.514 176.685 258.617 178.473C257.78 178.966 257.052 179.624 256.477 180.408C255.902 181.191 255.492 182.083 255.272 183.029C255.272 183.029 262.024 182.308 262.432 184.845C262.84 187.381 259.665 184.403 256.877 184.239C254.089 184.076 251.545 184.484 251.729 186.171C251.791 187.663 251.702 189.157 251.464 190.631C252.99 189.364 254.92 188.683 256.904 188.714C259.971 188.897 259.855 190.849 257.067 190.686C254.279 190.523 251.885 193.175 251.885 193.175C251.885 193.175 254.429 197.52 257.659 199.669C260.889 201.817 262.051 201.029 262.419 199.39C262.786 197.751 261.929 193.487 263.881 193.603C265.832 193.719 260.651 200.961 263.139 201.389C265.628 201.817 267.634 201.097 268.287 199.458L268.967 197.819C268.967 197.819 268.097 193.569 268.477 191.917C268.858 190.264 269.314 191.964 269.756 193.957C270.198 195.949 270.477 200.709 271.327 200.478C272.177 200.247 274.903 196.779 275.543 195.412C276.182 194.045 271.952 189.89 272 189.054C272.047 188.217 275.311 189.809 275.821 190.679C276.192 191.34 276.526 192.021 276.821 192.719C276.821 192.719 278.861 191.441 278.807 187.524C278.752 183.607 275.842 184.804 275.842 184.804Z" fill="#CBCBCB"/>
<path opacity="0.3" d="M275.842 184.804C275.842 184.804 272.639 186.844 270.823 184.505C269.008 182.165 272.054 177.868 269.368 176.032C266.682 174.196 262.038 176.997 262.038 176.997C262.038 176.997 265.608 178.045 265.492 179.996C265.377 181.948 263.656 182.682 263.452 181.832C263.248 180.982 261.514 176.685 258.617 178.473C257.78 178.966 257.052 179.624 256.477 180.408C255.902 181.191 255.492 182.083 255.272 183.029C255.272 183.029 262.024 182.308 262.432 184.845C262.84 187.381 259.665 184.403 256.877 184.239C254.089 184.076 251.545 184.484 251.729 186.171C251.791 187.663 251.702 189.157 251.464 190.631C252.99 189.364 254.92 188.683 256.904 188.714C259.971 188.897 259.855 190.849 257.067 190.686C254.279 190.523 251.885 193.175 251.885 193.175C251.885 193.175 254.429 197.52 257.659 199.669C260.889 201.817 262.051 201.029 262.419 199.39C262.786 197.751 261.929 193.487 263.881 193.603C265.832 193.719 260.651 200.961 263.139 201.389C265.628 201.817 267.634 201.097 268.287 199.458L268.967 197.819C268.967 197.819 268.097 193.569 268.477 191.917C268.858 190.264 269.314 191.964 269.756 193.957C270.198 195.949 270.477 200.709 271.327 200.478C272.177 200.247 274.903 196.779 275.543 195.412C276.182 194.045 271.952 189.89 272 189.054C272.047 188.217 275.311 189.809 275.821 190.679C276.192 191.34 276.526 192.021 276.821 192.719C276.821 192.719 278.861 191.441 278.807 187.524C278.752 183.607 275.842 184.804 275.842 184.804Z" fill="#263238"/>
<path d="M259.631 193.99C261.718 191.413 264.785 187.925 267.362 186.259" stroke="#263238" stroke-linecap="round" stroke-linejoin="round"/>
<path d="M257.217 197.125C257.217 197.125 257.747 196.384 258.618 195.269" stroke="#263238" stroke-linecap="round" stroke-linejoin="round"/>
<path d="M268.722 186.898C268.722 186.898 271.823 191.277 272.394 195.786" stroke="#263238" stroke-linecap="round" stroke-linejoin="round"/>
<path d="M265.2 189.489C265.2 189.489 266.071 188.979 265.744 194.555" stroke="#263238" stroke-linecap="round" stroke-linejoin="round"/>
<path d="M267.478 184.28C267.478 184.28 269.253 182.709 268.314 179.574" stroke="#263238" stroke-linecap="round" stroke-linejoin="round"/>
<path d="M265.085 186.966L263.82 184.654" stroke="#263238" stroke-linecap="round" stroke-linejoin="round"/>
<path d="M262.426 189.326C262.426 189.326 258.413 186.293 255.904 186.143" stroke="#263238" stroke-linecap="round" stroke-linejoin="round"/>
<path d="M287.239 176.542C287.239 176.542 287.109 181.138 283.519 181.363C279.929 181.587 277.712 175.603 274.04 177.045C270.368 178.486 270.014 185.042 270.014 185.042C270.014 185.042 273.496 182.179 275.373 183.62C277.249 185.062 276.814 187.292 275.801 186.939C274.788 186.585 269.334 185.368 269.144 189.489C269.068 190.664 269.23 191.842 269.622 192.952C270.013 194.062 270.626 195.082 271.422 195.949C271.422 195.949 275.305 188.693 278.133 190.012C280.962 191.332 275.801 192.488 273.734 195.167C271.667 197.846 270.334 200.668 272.163 201.64C273.699 202.592 275.135 203.697 276.447 204.938C276.447 204.938 275.957 201.144 278.229 198.2C280.5 195.255 282.37 196.697 280.309 199.376C278.249 202.055 279.269 206.264 279.269 206.264C279.269 206.264 285.348 206.679 289.7 204.904C294.052 203.13 294.079 201.443 292.679 199.94C291.278 198.438 286.436 196.411 287.878 194.5C289.319 192.59 293.046 202.749 295.174 200.546C297.303 198.342 297.942 195.847 296.745 194.072L295.548 192.304C295.548 192.304 290.707 190.264 289.306 188.768C287.905 187.272 289.925 187.966 292.216 188.877C294.508 189.788 299.465 192.76 299.819 191.746C300.172 190.733 298.547 185.626 297.622 184.076C296.697 182.526 289.639 183.906 288.837 183.287C288.034 182.668 291.849 180.486 293.066 180.567C293.979 180.643 294.887 180.768 295.786 180.941C295.786 180.941 295.895 178.031 291.937 175.413C287.98 172.795 287.239 176.542 287.239 176.542Z" fill="#CBCBCB"/>
<path opacity="0.2" d="M287.239 176.542C287.239 176.542 287.109 181.138 283.519 181.363C279.929 181.587 277.712 175.603 274.04 177.045C270.368 178.486 270.014 185.042 270.014 185.042C270.014 185.042 273.496 182.179 275.373 183.62C277.249 185.062 276.814 187.292 275.801 186.939C274.788 186.585 269.334 185.368 269.144 189.489C269.068 190.664 269.23 191.842 269.622 192.952C270.013 194.062 270.626 195.082 271.422 195.949C271.422 195.949 275.305 188.693 278.133 190.012C280.962 191.332 275.801 192.488 273.734 195.167C271.667 197.846 270.334 200.668 272.163 201.64C273.699 202.592 275.135 203.697 276.447 204.938C276.447 204.938 275.957 201.144 278.229 198.2C280.5 195.255 282.37 196.697 280.309 199.376C278.249 202.055 279.269 206.264 279.269 206.264C279.269 206.264 285.348 206.679 289.7 204.904C294.052 203.13 294.079 201.443 292.679 199.94C291.278 198.438 286.436 196.411 287.878 194.5C289.319 192.59 293.046 202.749 295.174 200.546C297.303 198.342 297.942 195.847 296.745 194.072L295.548 192.304C295.548 192.304 290.707 190.264 289.306 188.768C287.905 187.272 289.925 187.966 292.216 188.877C294.508 189.788 299.465 192.76 299.819 191.746C300.172 190.733 298.547 185.626 297.622 184.076C296.697 182.526 289.639 183.906 288.837 183.287C288.034 182.668 291.849 180.486 293.066 180.567C293.979 180.643 294.887 180.768 295.786 180.941C295.786 180.941 295.895 178.031 291.937 175.413C287.98 172.795 287.239 176.542 287.239 176.542Z" fill="#263238"/>
<path d="M285.389 199.029C284.24 195.16 282.825 189.72 282.921 186.021" stroke="#263238" stroke-linecap="round" stroke-linejoin="round"/>
<path d="M286.879 203.592C286.879 203.592 286.498 202.545 285.974 200.92" stroke="#263238" stroke-linecap="round" stroke-linejoin="round"/>
<path d="M284.485 185.096C284.485 185.096 290.979 184.974 295.882 187.476" stroke="#263238" stroke-linecap="round" stroke-linejoin="round"/>
<path d="M284.689 190.4C284.689 190.4 284.771 189.183 290.129 193.311" stroke="#263238" stroke-linecap="round" stroke-linejoin="round"/>
<path d="M281.044 184.572C281.044 184.572 280.677 181.73 276.903 180.533" stroke="#263238" stroke-linecap="round" stroke-linejoin="round"/>
<path d="M282.071 188.782L278.895 188.469" stroke="#263238" stroke-linecap="round" stroke-linejoin="round"/>
<path d="M282.622 193.052C282.622 193.052 276.849 195.004 274.992 197.418" stroke="#263238" stroke-linecap="round" stroke-linejoin="round"/>
<path d="M248.717 207.142C248.717 207.142 266.982 219.212 266.676 265.962" stroke="#263238" stroke-width="2" stroke-linecap="round" stroke-linejoin="round"/>
<path d="M271.239 203.953C271.239 203.953 270.654 209.243 266.479 209.161C262.303 209.08 260.359 201.967 255.952 203.286C251.546 204.605 250.546 212.126 250.546 212.126C250.546 212.126 254.844 209.148 256.87 210.997C258.897 212.847 258.183 215.37 257.047 214.867C255.911 214.363 249.73 212.439 249.125 217.179C248.928 218.528 249.008 219.902 249.358 221.22C249.709 222.537 250.324 223.77 251.165 224.842C251.165 224.842 256.333 216.839 259.468 218.634C262.603 220.429 256.544 221.265 253.905 224.162C251.267 227.059 249.478 230.187 251.478 231.479C253.163 232.723 254.717 234.135 256.115 235.695C256.115 235.695 255.905 231.275 258.801 228.086C261.698 224.897 263.731 226.726 261.093 229.643C258.455 232.56 259.243 237.49 259.243 237.49C259.243 237.49 266.227 238.544 271.415 236.912C276.604 235.28 276.787 233.335 275.312 231.472C273.836 229.609 268.444 226.807 270.287 224.781C272.129 222.755 275.468 234.791 278.134 232.445C280.799 230.099 281.765 227.29 280.555 225.128L279.344 222.965C279.344 222.965 273.952 220.171 272.476 218.301C271.001 216.431 273.265 217.437 275.822 218.702C278.379 219.967 283.825 223.863 284.322 222.734C284.818 221.605 283.431 215.567 282.513 213.67C281.595 211.773 273.319 212.718 272.449 211.929C271.579 211.14 276.196 208.985 277.59 209.209C278.628 209.382 279.656 209.609 280.67 209.889C280.67 209.889 281.065 206.543 276.747 203.143C272.429 199.743 271.239 203.953 271.239 203.953Z" fill="#CBCBCB"/>
<path opacity="0.3" d="M271.239 203.953C271.239 203.953 270.654 209.243 266.479 209.161C262.303 209.08 260.359 201.967 255.952 203.286C251.546 204.605 250.546 212.126 250.546 212.126C250.546 212.126 254.844 209.148 256.87 210.997C258.897 212.847 258.183 215.37 257.047 214.867C255.911 214.363 249.73 212.439 249.125 217.179C248.928 218.528 249.008 219.902 249.358 221.22C249.709 222.537 250.324 223.77 251.165 224.842C251.165 224.842 256.333 216.839 259.468 218.634C262.603 220.429 256.544 221.265 253.905 224.162C251.267 227.059 249.478 230.187 251.478 231.479C253.163 232.723 254.717 234.135 256.115 235.695C256.115 235.695 255.905 231.275 258.801 228.086C261.698 224.897 263.731 226.726 261.093 229.643C258.455 232.56 259.243 237.49 259.243 237.49C259.243 237.49 266.227 238.544 271.415 236.912C276.604 235.28 276.787 233.335 275.312 231.472C273.836 229.609 268.444 226.807 270.287 224.781C272.129 222.755 275.468 234.791 278.134 232.445C280.799 230.099 281.765 227.29 280.555 225.128L279.344 222.965C279.344 222.965 273.952 220.171 272.476 218.301C271.001 216.431 273.265 217.437 275.822 218.702C278.379 219.967 283.825 223.863 284.322 222.734C284.818 221.605 283.431 215.567 282.513 213.67C281.595 211.773 273.319 212.718 272.449 211.929C271.579 211.14 276.196 208.985 277.59 209.209C278.628 209.382 279.656 209.609 280.67 209.889C280.67 209.889 281.065 206.543 276.747 203.143C272.429 199.743 271.239 203.953 271.239 203.953Z" fill="#263238"/>
<path d="M266.982 229.725C266.003 225.182 264.908 218.756 265.357 214.479" stroke="#263238" stroke-linecap="round" stroke-linejoin="round"/>
<path d="M268.274 235.13C268.274 235.13 267.934 233.886 267.478 231.962" stroke="#263238" stroke-linecap="round" stroke-linejoin="round"/>
<path d="M267.24 213.561C267.24 213.561 274.72 214.037 280.16 217.382" stroke="#263238" stroke-linecap="round" stroke-linejoin="round"/>
<path d="M266.988 219.64C266.988 219.64 267.199 218.246 272.993 223.516" stroke="#263238" stroke-linecap="round" stroke-linejoin="round"/>
<path d="M263.33 212.636C263.33 212.636 263.173 209.318 258.937 207.577" stroke="#263238" stroke-linecap="round" stroke-linejoin="round"/>
<path d="M264.119 217.587L260.488 216.927" stroke="#263238" stroke-linecap="round" stroke-linejoin="round"/>
<path d="M264.357 222.564C264.357 222.564 257.509 224.278 255.136 226.882" stroke="#263238" stroke-linecap="round" stroke-linejoin="round"/>
<path d="M255.836 243.977C255.836 243.977 267.6 252.953 268.838 266.268L266.363 221.68" stroke="#263238" stroke-width="2" stroke-linecap="round" stroke-linejoin="round"/>
<path d="M284.315 237.477C268.838 234.689 268.838 266.268 268.838 266.268" stroke="#263238" stroke-width="2" stroke-linecap="round" stroke-linejoin="round"/>
<path d="M270.694 265.962C270.694 265.962 261.718 200.641 287.694 200.641" stroke="#263238" stroke-width="2" stroke-linecap="round" stroke-linejoin="round"/>
<path d="M278.419 235.6C276.305 233.22 271.81 233.22 269.171 239.299C266.533 245.378 268.906 244.324 268.906 244.324C268.906 244.324 273.925 242.733 277.1 241.679C280.276 240.625 284.499 237.98 284.764 239.564C285.029 241.148 282.649 242.733 279.739 243.263C276.828 243.794 269.171 245.908 269.96 247.52C270.749 249.132 272.605 253.864 272.605 253.864C274.863 251.946 277.246 250.181 279.739 248.581C283.179 246.466 285.294 247.255 283.445 249.635C281.595 252.015 276.305 254.653 277.365 257.829C278.426 261.004 284.764 264.962 284.764 264.962C284.764 264.962 285.559 258.359 287.409 256.244C289.259 254.13 289.259 256.51 288.728 260.209C288.463 261.784 288.286 263.374 288.198 264.969L295.596 267.614C296.806 265.772 298.13 264.007 299.561 262.33L300.921 260.97C300.921 260.97 295.107 255.952 294.841 252.81C294.576 249.669 298.806 252.81 300.125 253.341C301.444 253.871 303.559 257.57 303.559 257.57C303.559 257.57 304.885 251.491 305.15 249.376L305.415 247.262C305.415 247.262 299.86 245.147 297.745 245.147C295.63 245.147 294.576 246.731 294.576 244.623C294.576 242.515 296.691 241.182 299.071 241.448C301.224 241.808 303.346 242.337 305.415 243.032C305.415 243.032 307 241.713 306.469 237.748C305.939 233.784 304.62 233.784 301.451 234.838C298.282 235.892 296.161 238.279 293.781 238.279C291.401 238.279 292.727 235.368 294.311 234.58C295.895 233.791 299.86 232.2 300.655 231.934C301.451 231.669 296.426 227.97 293.781 227.44C291.135 226.909 287.715 228.8 287.967 231.404C288.463 236.919 280.534 238 278.419 235.6Z" fill="#CBCBCB"/>
<path d="M295.433 262.813C295.514 263.607 295.569 264.402 295.596 265.2" stroke="#263238" stroke-linecap="round" stroke-linejoin="round"/>
<path d="M290.122 243.841C292.452 249.074 294.13 254.574 295.12 260.216" stroke="#263238" stroke-linecap="round" stroke-linejoin="round"/>
<path d="M289.17 241.72C287.864 238.904 286.878 237.184 286.878 237.184C288.321 236.505 289.52 235.398 290.312 234.015C290.931 232.763 291.837 231.674 292.958 230.84" stroke="#263238" stroke-linecap="round" stroke-linejoin="round"/>
<path d="M277.63 246.16C277.63 246.16 287.15 242.196 287.15 242.984" stroke="#263238" stroke-linecap="round" stroke-linejoin="round"/>
<path d="M292.4 241.148C292.4 241.148 296.63 239.034 300.329 239.034" stroke="#263238" stroke-linecap="round" stroke-linejoin="round"/>
<path d="M290.843 247.52C289.008 249.028 287.325 250.711 285.817 252.545C284.275 254.364 283.027 256.413 282.118 258.618" stroke="#263238" stroke-linecap="round" stroke-linejoin="round"/>
<path d="M293.76 248.554C293.76 248.554 299.316 246.962 302.219 249.608" stroke="#263238" stroke-linecap="round" stroke-linejoin="round"/>
<path d="M303.804 212.84C300.927 211.14 297.745 211.099 296.181 209.304C294.617 207.509 297.684 206.584 299.322 207.264C300.961 207.944 304.762 209.896 305.476 210.317C306.19 210.739 305.701 204.531 304.368 202.157C303.035 199.784 299.384 198.451 297.568 200.369C293.726 204.401 287.728 199.111 288.136 195.956C288.544 192.801 285.6 189.407 279.296 191.393C272.993 193.379 275.332 194.487 275.332 194.487C275.332 194.487 279.82 197.241 282.703 198.941C285.586 200.641 290.346 202.103 289.32 203.341C288.293 204.578 285.539 203.823 283.234 201.981C280.928 200.138 274.312 195.731 273.632 197.37C272.952 199.009 270.572 203.524 270.572 203.524C273.501 203.973 276.398 204.616 279.242 205.449C283.091 206.659 283.88 208.774 280.874 208.937C277.868 209.1 272.401 206.843 270.674 209.719C268.947 212.595 270.137 219.98 270.137 219.98C270.137 219.98 275.645 216.254 278.453 216.261C281.262 216.267 279.466 217.831 276.325 219.858C274.962 220.69 273.648 221.598 272.388 222.578L275.244 229.901C277.428 229.606 279.629 229.447 281.833 229.425L283.696 229.561C283.696 229.561 283.696 221.877 285.899 219.599C288.102 217.321 288.497 222.591 288.966 223.938C289.435 225.284 288.028 229.303 288.028 229.303C288.028 229.303 293.468 226.318 295.249 225.128L297.024 223.945C297.024 223.945 294.984 218.362 293.59 216.771C292.196 215.179 290.319 215.411 291.91 214.051C293.502 212.691 295.895 213.371 297.255 215.37C298.395 217.23 299.384 219.179 300.213 221.197C300.213 221.197 302.253 221.531 304.898 218.532C307.544 215.533 306.68 214.54 303.804 212.84ZM278.8 221.299C276.685 220.239 281.704 218.124 281.704 218.124C283.56 217.865 280.908 222.36 278.8 221.299ZM282.356 211.433C281.459 210.984 284.158 210.073 284.158 210.073C288.062 210.8 283.254 211.881 282.35 211.433H282.356Z" fill="#CBCBCB"/>
<path d="M278.732 226.685C278.188 227.263 277.617 227.827 277.039 228.371" stroke="#263238" stroke-linecap="round" stroke-linejoin="round"/>
<path d="M289.578 210.236C287.149 215.421 284.091 220.288 280.473 224.726" stroke="#263238" stroke-linecap="round" stroke-linejoin="round"/>
<path d="M290.557 208.128C291.829 205.292 292.475 203.422 292.475 203.422C293.936 204.063 295.559 204.244 297.126 203.939C298.475 203.582 299.89 203.552 301.254 203.851" stroke="#263238" stroke-linecap="round" stroke-linejoin="round"/>
<path d="M288.259 207.434C288.857 206.911 279.629 202.327 279.629 202.327" stroke="#263238" stroke-linecap="round" stroke-linejoin="round"/>
<path d="M293.121 210.208C293.121 210.208 297.493 212.017 299.921 214.812" stroke="#263238" stroke-linecap="round" stroke-linejoin="round"/>
<path d="M287.293 213.173C284.953 212.776 282.58 212.608 280.208 212.67C277.821 212.7 275.453 213.101 273.19 213.86" stroke="#263238" stroke-linecap="round" stroke-linejoin="round"/>
<path d="M288.401 216.063C288.401 216.063 293.236 219.212 293.161 223.142" stroke="#263238" stroke-linecap="round" stroke-linejoin="round"/>
<path d="M262.731 249.458C260.419 248.098 257.856 248.064 256.611 246.616C255.367 245.167 257.815 244.44 259.134 244.984C260.453 245.528 263.513 247.105 264.091 247.445C264.669 247.785 264.268 242.781 263.194 240.897C262.119 239.013 259.182 237.919 257.72 239.455C254.626 242.706 249.798 238.442 250.131 235.906C250.464 233.369 248.091 230.636 242.998 232.234C237.905 233.832 239.809 234.723 239.809 234.723C239.809 234.723 243.419 236.939 245.738 238.306C248.057 239.673 251.892 240.856 251.063 241.849C250.233 242.842 248.023 242.243 246.167 240.754C244.31 239.265 238.986 235.722 238.442 237.041C237.898 238.361 235.98 241.992 235.98 241.992C238.337 242.355 240.668 242.873 242.957 243.542C246.051 244.515 246.683 246.215 244.263 246.344C241.842 246.473 237.463 244.657 236.103 246.976C234.743 249.295 235.667 255.238 235.667 255.238C235.667 255.238 240.101 252.233 242.359 252.239C244.616 252.246 243.175 253.504 240.652 255.136C239.555 255.806 238.497 256.537 237.483 257.326L239.775 263.215C241.533 262.979 243.305 262.854 245.079 262.841L246.581 262.943C246.581 262.943 246.581 256.761 248.356 254.925C250.131 253.089 250.444 257.333 250.818 258.421C251.192 259.509 250.063 262.739 250.063 262.739C250.063 262.739 254.456 260.331 255.877 259.379L257.305 258.421C257.305 258.421 255.659 253.933 254.544 252.647C253.429 251.362 251.906 251.559 253.184 250.444C254.463 249.329 256.387 249.914 257.482 251.498C258.4 252.997 259.198 254.566 259.869 256.19C259.869 256.19 261.507 256.455 263.636 254.048C265.764 251.641 265.05 250.832 262.731 249.458ZM242.603 256.258C240.903 255.408 244.943 253.708 244.943 253.708C246.432 253.504 244.303 257.122 242.603 256.265V256.258ZM245.48 248.329C244.752 247.962 246.928 247.241 246.928 247.241C250.063 247.847 246.194 248.69 245.48 248.329Z" fill="#CBCBCB"/>
<path d="M242.563 260.603C242.121 261.066 241.665 261.521 241.203 261.963" stroke="#263238" stroke-linecap="round" stroke-linejoin="round"/>
<path d="M251.287 247.364C249.334 251.537 246.874 255.454 243.963 259.026" stroke="#263238" stroke-linecap="round" stroke-linejoin="round"/>
<path d="M252.076 245.664C253.096 243.386 253.62 241.883 253.62 241.883C254.795 242.397 256.1 242.542 257.36 242.298C258.445 242.01 259.582 241.987 260.678 242.23" stroke="#263238" stroke-linecap="round" stroke-linejoin="round"/>
<path d="M243.277 240.999C243.277 240.999 250.709 244.691 250.226 245.079" stroke="#263238" stroke-linecap="round" stroke-linejoin="round"/>
<path d="M254.136 247.343C254.136 247.343 257.652 248.798 259.576 251.049" stroke="#263238" stroke-linecap="round" stroke-linejoin="round"/>
<path d="M249.444 249.73C247.563 249.411 245.654 249.277 243.746 249.329C241.826 249.347 239.921 249.671 238.102 250.288" stroke="#263238" stroke-linecap="round" stroke-linejoin="round"/>
<path d="M250.342 252.056C250.342 252.056 254.231 254.592 254.157 257.747" stroke="#263238" stroke-linecap="round" stroke-linejoin="round"/>
<path d="M253.293 205.816C253.293 205.816 250.383 207.93 248.533 205.816C246.684 203.701 249.329 199.471 246.684 197.887C244.038 196.302 239.816 199.206 239.816 199.206C239.816 199.206 243.25 200.002 243.25 201.851C243.25 203.701 241.665 204.496 241.4 203.701C241.135 202.905 239.285 198.941 236.64 200.797C235.878 201.31 235.228 201.973 234.729 202.744C234.23 203.515 233.892 204.38 233.736 205.285C233.736 205.285 240.074 204.231 240.604 206.611C241.135 208.991 237.966 206.346 235.321 206.346C232.676 206.346 230.296 206.876 230.561 208.461C230.705 209.867 230.705 211.284 230.561 212.69C231.93 211.409 233.712 210.659 235.586 210.576C238.49 210.576 238.49 212.425 235.851 212.425C233.213 212.425 231.091 215.07 231.091 215.07C231.091 215.07 233.736 219.035 236.905 220.884C240.074 222.734 241.135 221.938 241.4 220.354C241.665 218.77 240.604 214.805 242.454 214.805C244.304 214.805 239.816 221.938 242.189 222.204C244.562 222.469 246.418 221.673 246.949 220.089L247.479 218.504C247.479 218.504 246.418 214.54 246.684 212.956C246.949 211.371 247.479 212.956 248.003 214.805C248.526 216.655 249.064 221.143 249.859 220.884C250.655 220.626 253.028 217.178 253.558 215.859C254.089 214.54 249.859 210.841 249.859 210.045C249.859 209.25 253.028 210.576 253.558 211.364C254.089 212.153 254.612 213.214 254.612 213.214C254.612 213.214 256.462 211.895 256.197 208.196C255.932 204.496 253.293 205.816 253.293 205.816Z" fill="#CBCBCB"/>
<path d="M238.483 215.404C240.312 212.854 243.025 209.386 245.364 207.665" stroke="#263238" stroke-linecap="round" stroke-linejoin="round"/>
<path d="M236.375 218.504C236.375 218.504 236.844 217.77 237.599 216.668" stroke="#263238" stroke-linecap="round" stroke-linejoin="round"/>
<path d="M246.684 208.196C246.684 208.196 249.859 212.16 250.648 216.39" stroke="#263238" stroke-linecap="round" stroke-linejoin="round"/>
<path d="M243.515 210.841C243.515 210.841 244.303 210.311 244.303 215.601" stroke="#263238" stroke-linecap="round" stroke-linejoin="round"/>
<path d="M245.364 205.816C245.364 205.816 246.949 204.231 245.895 201.321" stroke="#263238" stroke-linecap="round" stroke-linejoin="round"/>
<path d="M243.249 208.461L241.93 206.346" stroke="#263238" stroke-linecap="round" stroke-linejoin="round"/>
<path d="M240.87 210.841C240.87 210.841 236.905 208.196 234.525 208.196" stroke="#263238" stroke-linecap="round" stroke-linejoin="round"/>
<path d="M279.983 265.03H259.549V294.44H279.983V265.03Z" fill="#263238" stroke="#263238" stroke-width="2" stroke-linecap="round" stroke-linejoin="round"/>
</svg>
