<svg width="500" height="500" viewBox="0 0 500 500" fill="none" xmlns="http://www.w3.org/2000/svg">
<path d="M322.1 97.3401C321.063 98.1733 319.854 98.7674 318.56 99.0801C315.01 99.8701 305.56 99.4701 303.96 103.81C303.449 105.112 302.652 106.284 301.63 107.239C300.607 108.194 299.384 108.908 298.05 109.33C298.05 109.33 290.56 109.73 290.16 111.33C289.76 112.93 287.01 115.67 287.01 115.67H416C416 115.67 420.34 108.97 413.24 102.67C407.03 97.1501 395.68 105.51 394.24 98.6701" stroke="#263238" stroke-linecap="round" stroke-linejoin="round"/>
<path d="M393.07 88.63C391.63 83.44 388.6 76.44 382.45 73.84C372.19 69.5 363.52 75.42 361.15 81.33C358.78 87.24 357.21 91.19 348.15 86.06C339.09 80.93 331.15 81.33 328.43 88.06C327.645 90.0084 326.664 91.8714 325.5 93.62" stroke="#263238" stroke-linecap="round" stroke-linejoin="round"/>
<path d="M103.05 166.1H147.84C147.84 166.1 150.46 162.1 146.17 158.23C141.88 154.36 133.52 161.57 134.72 153.46C134.72 153.46 133.72 143.46 127.56 140.82C125.974 140.094 124.227 139.795 122.49 139.953C120.753 140.111 119.088 140.72 117.66 141.72" stroke="#263238" stroke-linecap="round" stroke-linejoin="round"/>
<path d="M114.68 145.35C113.25 148.93 112.29 151.35 106.81 148.21C101.33 145.07 96.55 145.35 94.88 149.41C93.21 153.47 91.06 155.61 88.88 156.08C86.7 156.55 81.01 156.32 80.05 158.95C79.7383 159.737 79.2554 160.446 78.6362 161.023C78.017 161.601 77.2771 162.034 76.47 162.29C76.47 162.29 71.94 162.52 71.7 163.48C71.2229 164.459 70.5763 165.346 69.79 166.1H96" stroke="#263238" stroke-linecap="round" stroke-linejoin="round"/>
<path d="M327.25 166.1H348.4C348.4 166.1 351.02 162.1 346.73 158.23C342.44 154.36 334.09 161.57 335.28 153.46C335.28 153.46 334.33 143.46 328.12 140.82C321.91 138.18 316.68 141.82 315.24 145.35C313.8 148.88 312.86 151.35 307.37 148.21C301.88 145.07 297.11 145.35 295.45 149.41C293.79 153.47 291.63 155.61 289.45 156.08C287.27 156.55 281.58 156.32 280.63 158.95C280.317 159.737 279.834 160.444 279.215 161.022C278.596 161.599 277.857 162.032 277.05 162.29C277.05 162.29 272.52 162.52 272.28 163.48C271.803 164.459 271.156 165.346 270.37 166.1H320.19" stroke="#263238" stroke-linecap="round" stroke-linejoin="round"/>
<g opacity="0.1">
<path opacity="0.1" d="M23.23 232.17C27.17 232.95 35.92 230.84 35.92 230.84C35.92 230.84 32.78 225.49 32.54 225.18C29.73 221.56 22.17 216.18 17.36 217.98C16.5686 218.295 15.8522 218.772 15.2571 219.381C14.662 219.991 14.2015 220.718 13.9055 221.516C13.6095 222.315 13.4845 223.167 13.5387 224.017C13.5929 224.867 13.825 225.696 14.22 226.45C15.79 229.71 19.88 231.5 23.23 232.17Z" fill="black"/>
<path opacity="0.1" d="M31.8202 257C35.6602 256.73 43.0101 252.75 43.6001 252.43C45.8717 256.638 48.4207 260.69 51.2302 264.56C52.8502 266.82 54.5602 269.05 56.3002 271.26C55.3502 270.37 54.5002 269.58 54.3702 269.48C50.7102 266.74 42.0102 263.59 37.8302 266.55C37.1499 267.063 36.5849 267.713 36.1718 268.457C35.7587 269.202 35.5068 270.026 35.4323 270.874C35.3578 271.723 35.4625 272.578 35.7394 273.383C36.0164 274.189 36.4596 274.927 37.0402 275.55C39.4202 278.27 43.8302 278.92 47.2402 278.68C50.6502 278.44 57.0402 275.16 58.7002 274.28C59.3802 275.12 60.0402 275.97 60.7002 276.81C63.9602 280.81 67.2302 284.81 70.3202 288.87C71.4102 290.29 72.4202 291.73 73.4501 293.16C72.6101 292.37 71.9002 291.71 71.7802 291.62C68.1102 288.87 59.4202 285.72 55.2402 288.69C54.5572 289.201 53.9898 289.85 53.5749 290.595C53.16 291.34 52.907 292.164 52.8324 293.013C52.7578 293.863 52.8634 294.719 53.1422 295.524C53.4209 296.33 53.8666 297.068 54.4502 297.69C56.8302 300.42 61.2402 301.06 64.6502 300.82C68.0602 300.58 73.8302 297.62 75.8102 296.58C76.8102 298.08 77.8102 299.58 78.7302 301.08C79.3302 302.08 79.9702 303.08 80.5102 304.15L82.1702 307.28C83.1702 309.28 84.1702 311.4 85.0802 313.4C85.7202 314.79 86.3102 316.12 86.9002 317.47C85.8302 316.04 83.6902 313.29 83.4802 313.08C80.2802 309.82 72.1602 305.39 67.5702 307.68C66.8202 308.083 66.1634 308.639 65.6424 309.312C65.1214 309.986 64.7478 310.761 64.546 311.588C64.3442 312.415 64.3186 313.276 64.471 314.113C64.6233 314.951 64.9501 315.747 65.4302 316.45C67.3702 319.51 71.6302 320.81 75.0402 321.09C78.7902 321.4 86.3701 318.72 87.3102 318.38C88.3102 320.61 89.2102 322.78 90.0502 324.85C90.6835 326.37 91.2735 327.84 91.8202 329.26L94.9402 328.58C94.2735 327.013 93.5768 325.373 92.8502 323.66C91.8502 321.4 90.7802 319 89.6301 316.55C91.7732 315.102 93.8269 313.526 95.7802 311.83C98.9501 314.05 106.23 315.83 107.17 316.1C106.75 318.49 106.33 320.81 105.89 323C105.66 324.16 105.43 325.25 105.2 326.34L108.5 325.62C108.63 324.94 108.75 324.27 108.87 323.56C109.31 321.13 109.72 318.56 110.12 315.85C111.12 315.85 119.12 315.72 122.57 314.13C125.67 312.68 129.21 309.98 129.97 306.44C130.176 305.614 130.206 304.753 130.057 303.914C129.908 303.076 129.585 302.277 129.108 301.572C128.631 300.866 128.01 300.269 127.287 299.819C126.564 299.369 125.754 299.077 124.91 298.96C119.82 298.4 113.74 305.37 111.91 309.55C111.8 309.8 110.91 312.61 110.37 314.39C110.52 313.29 110.69 312.23 110.83 311.1C111.14 308.87 111.38 306.64 111.65 304.23C111.74 303.07 111.83 301.89 111.92 300.7C112.01 299.51 112.01 298.27 112.06 297.04C112.06 294.18 112.06 291.29 111.88 288.38C113.88 288.64 120.79 289.48 124.08 288.52C127.37 287.56 131.28 285.42 132.56 282.04C132.891 281.255 133.052 280.409 133.033 279.558C133.015 278.706 132.817 277.868 132.453 277.098C132.089 276.328 131.566 275.643 130.919 275.089C130.273 274.535 129.517 274.123 128.7 273.88C123.7 272.55 116.7 278.52 114.2 282.37C114.05 282.61 112.58 285.57 111.8 287.21C111.7 285.46 111.6 283.72 111.44 281.95C110.97 276.85 110.34 271.7 109.74 266.56C109.55 264.98 109.38 263.41 109.21 261.84C109.9 261.94 118.15 263.12 121.84 262.04C125.12 261.04 129.03 258.94 130.32 255.56C130.649 254.774 130.808 253.928 130.788 253.076C130.768 252.225 130.57 251.387 130.205 250.617C129.84 249.848 129.317 249.163 128.67 248.609C128.023 248.055 127.267 247.643 126.45 247.4C121.45 246.07 114.45 252.05 111.96 255.89C111.77 256.18 109.66 260.45 109.18 261.56C108.8 258.09 108.45 254.64 108.25 251.22C107.95 246.605 107.95 241.975 108.25 237.36C108.57 237.41 117.17 238.68 120.95 237.57C124.23 236.57 128.15 234.48 129.43 231.09C129.759 230.305 129.919 229.459 129.9 228.608C129.88 227.757 129.682 226.92 129.318 226.15C128.954 225.381 128.432 224.696 127.787 224.141C127.141 223.587 126.386 223.174 125.57 222.93C120.57 221.61 113.57 227.58 111.07 231.43C110.88 231.73 108.61 236.31 108.26 237.18C108.26 236.91 108.26 236.63 108.26 236.36C108.689 231.741 109.529 227.17 110.77 222.7C111.42 220.22 112.19 217.89 112.98 215.64C114.56 216.04 121.79 217.79 125.3 217.17C128.81 216.55 132.79 214.88 134.44 211.66C134.852 210.915 135.103 210.092 135.176 209.244C135.249 208.396 135.143 207.542 134.865 206.738C134.587 205.934 134.143 205.197 133.561 204.575C132.98 203.954 132.274 203.461 131.49 203.13C126.71 201.26 119.04 206.43 116.15 209.98C116 210.17 114.62 212.31 113.63 213.88C114.01 212.88 114.37 211.82 114.75 210.88C116.16 207.27 117.67 204.05 119.03 201.2C119.82 199.59 120.56 198.2 121.27 196.81C123.02 196.4 130.07 194.64 132.85 192.51C135.63 190.38 138.44 187.03 138.42 183.41C138.444 182.558 138.288 181.711 137.963 180.924C137.638 180.136 137.15 179.426 136.532 178.839C135.914 178.253 135.18 177.803 134.377 177.518C133.574 177.234 132.719 177.122 131.87 177.19C126.77 177.74 122.34 185.85 121.42 190.34C121.34 190.72 120.78 196.93 120.87 196.91H120.97C120.26 198.19 119.52 199.56 118.73 201.08C117.31 203.9 115.73 207.08 114.23 210.69C112.594 214.518 111.181 218.438 110 222.43C108.644 226.929 107.693 231.541 107.16 236.21C107.155 236.267 107.155 236.324 107.16 236.38C106.86 234.91 105.9 230.82 105.79 230.51C104.25 226.2 98.7402 218.78 93.6102 218.94C92.7617 218.993 91.9338 219.223 91.18 219.616C90.4263 220.009 89.7635 220.557 89.2346 221.222C88.7057 221.888 88.3226 222.657 88.1099 223.48C87.8973 224.303 87.8599 225.162 88.0002 226C88.4802 229.58 91.8001 232.55 94.7802 234.24C98.1402 236.13 106.47 236.86 107.13 236.92C106.703 241.684 106.593 246.471 106.8 251.25C106.91 254.03 107.1 256.83 107.33 259.64C107.04 258.37 106.76 257.24 106.71 257.09C105.17 252.78 99.6502 245.36 94.5302 245.52C93.6803 245.57 92.8504 245.798 92.0947 246.19C91.339 246.583 90.6743 247.129 90.1441 247.796C89.6139 248.462 89.2299 249.232 89.0173 250.056C88.8047 250.881 88.7682 251.741 88.9102 252.58C89.3902 256.17 92.7102 259.14 95.6902 260.82C98.6702 262.5 105.8 263.3 107.69 263.48C107.79 264.55 107.87 265.63 107.98 266.7C108.47 271.86 108.98 277 109.34 282.07C109.47 283.85 109.52 285.61 109.59 287.37C109.32 286.25 109.09 285.31 109.04 285.17C107.5 280.85 102.04 273.43 96.8602 273.59C96.0098 273.641 95.1798 273.871 94.4241 274.264C93.6683 274.657 93.0038 275.205 92.4737 275.872C91.9436 276.539 91.5598 277.31 91.3473 278.135C91.1348 278.96 91.0983 279.82 91.2402 280.66C91.7202 284.25 95.0501 287.22 98.0201 288.9C100.99 290.58 107.44 291.3 109.67 291.52C109.67 293.32 109.67 295.13 109.67 296.88C109.59 298.08 109.6 299.23 109.46 300.43C109.32 301.63 109.23 302.79 109.12 303.95C108.81 306.19 108.52 308.49 108.12 310.66C107.89 312.17 107.64 313.61 107.39 315.06C107.29 313.28 107.01 309.8 106.96 309.52C106.034 305.595 104.116 301.973 101.39 299C101.311 298.559 101.187 298.126 101.02 297.71C100.737 296.907 100.288 296.172 99.7027 295.554C99.1169 294.936 98.4074 294.448 97.6205 294.123C96.8336 293.797 95.987 293.641 95.1357 293.665C94.2845 293.689 93.4478 293.891 92.6802 294.26C88.1202 296.6 86.9002 305.77 87.6802 310.26C87.6802 310.52 88.5302 313.36 89.0602 315.14C88.5901 314.14 88.1402 313.14 87.6402 312.14C86.6402 310.14 85.6402 308.14 84.5302 305.96L82.8102 302.87C82.2501 301.87 81.5402 300.79 80.9002 299.74C79.3702 297.33 77.7002 294.96 75.9702 292.62C77.7502 291.76 83.9702 288.62 86.2302 286C88.4902 283.38 90.5202 279.45 89.7302 275.92C89.5668 275.086 89.2303 274.295 88.7424 273.599C88.2545 272.903 87.626 272.317 86.8976 271.879C86.1692 271.441 85.357 271.16 84.5134 271.055C83.6698 270.95 82.8137 271.024 82.0002 271.27C77.1402 272.9 74.5502 281.78 74.6002 286.35C74.6002 286.64 75.0102 289.92 75.2602 291.72C74.2602 290.32 73.1702 288.91 72.0602 287.52C68.8601 283.52 65.4902 279.58 62.1502 275.63C61.1502 274.42 60.1502 273.2 59.1502 271.99C59.7802 271.69 67.3102 268.12 69.7902 265.18C72.0002 262.57 74.0802 258.63 73.2902 255.1C73.132 254.263 72.7991 253.468 72.3129 252.768C71.8268 252.068 71.1985 251.478 70.469 251.037C69.7395 250.597 68.9252 250.315 68.0793 250.21C67.2335 250.105 66.3751 250.18 65.5602 250.43C60.7001 252.05 58.1102 260.93 58.1602 265.51C58.1602 265.85 58.7602 270.57 58.9602 271.76C56.7402 269.09 54.5402 266.4 52.4902 263.66C49.6981 259.975 47.1462 256.113 44.8501 252.1C45.1402 251.96 53.0102 248.27 55.5502 245.26C57.7602 242.65 59.8502 238.71 59.0502 235.18C58.8918 234.344 58.5591 233.55 58.0736 232.851C57.5881 232.152 56.9608 231.563 56.2325 231.122C55.5041 230.681 54.6912 230.399 53.8465 230.294C53.0018 230.188 52.1444 230.262 51.3302 230.51C46.4602 232.13 43.8701 241.01 43.9201 245.59C43.9201 245.95 44.5702 251.03 44.7502 251.94C44.6202 251.7 44.4501 251.48 44.3202 251.24C42.1364 247.147 40.3161 242.871 38.8802 238.46C38.0602 236.04 37.4102 233.67 36.8802 231.35C38.4202 230.82 45.4102 228.29 48.0002 225.83C50.5902 223.37 53.0002 219.83 52.5802 216.2C52.516 215.351 52.2735 214.524 51.8683 213.775C51.4632 213.025 50.9046 212.369 50.2289 211.85C49.5533 211.331 48.7758 210.961 47.9472 210.763C47.1186 210.564 46.2575 210.543 45.4201 210.7C40.4201 211.78 36.8601 220.32 36.4201 224.88C36.4201 225.13 36.4202 227.67 36.4802 229.53C36.2302 228.48 35.9602 227.4 35.7402 226.39C34.9202 222.6 34.4002 219.08 33.9702 215.96C33.7402 214.18 33.5701 212.57 33.4201 211.06C34.6501 209.75 39.5502 204.39 40.7002 201.06C41.8502 197.73 42.3402 193.4 40.3302 190.4C39.8795 189.677 39.2818 189.056 38.5758 188.578C37.8698 188.101 37.0713 187.777 36.232 187.628C35.3928 187.479 34.5316 187.508 33.7043 187.714C32.8771 187.919 32.1023 188.296 31.4302 188.82C27.4902 192.09 28.2702 201.31 29.9701 205.56C30.1102 205.93 33.0702 211.41 33.1302 211.34L33.2101 211.26C33.3201 212.72 33.4601 214.26 33.6402 215.98C34.0101 219.11 34.4501 222.65 35.1901 226.48C35.9525 230.608 36.9542 234.688 38.1901 238.7C39.5412 243.197 41.2915 247.565 43.4201 251.75C43.4201 251.75 43.4802 251.85 43.5002 251.9C42.5002 250.83 39.3902 247.95 39.1302 247.76C35.4602 245.01 26.7702 241.86 22.5902 244.83C21.9072 245.341 21.3398 245.99 20.9249 246.735C20.51 247.48 20.257 248.304 20.1824 249.153C20.1078 250.003 20.2134 250.859 20.4922 251.664C20.7709 252.47 21.2166 253.208 21.8002 253.83C24.0002 256.57 28.4102 257.21 31.8202 257Z" fill="black"/>
<path opacity="0.1" d="M112.58 214.71C112.67 214.71 112.91 208.52 112.88 208.13C112.53 203.56 109.17 194.95 104.19 193.75C103.357 193.575 102.496 193.576 101.663 193.756C100.83 193.935 100.045 194.287 99.3569 194.79C98.6693 195.293 98.0953 195.934 97.672 196.674C97.2487 197.413 96.9858 198.233 96.9002 199.08C96.4202 202.67 98.8402 206.41 101.26 208.82C104.11 211.65 112.58 214.71 112.58 214.71Z" fill="black"/>
</g>
<g opacity="0.1">
<path opacity="0.1" d="M469.06 318.29C465.68 318.41 458.69 315.49 458.69 315.49C458.69 315.49 462.01 311.49 462.26 311.24C465.07 308.61 472.06 305.19 475.83 307.24C476.446 307.607 476.977 308.1 477.391 308.686C477.804 309.272 478.09 309.938 478.229 310.641C478.369 311.344 478.359 312.069 478.201 312.768C478.042 313.467 477.739 314.126 477.31 314.7C475.56 317.24 471.93 318.18 469.06 318.29Z" fill="black"/>
<path opacity="0.1" d="M458.61 337.75C455.45 337.02 449.88 332.75 449.43 332.38C446.971 335.577 444.298 338.604 441.43 341.44C439.78 343.11 438.07 344.73 436.33 346.34C437.23 345.72 438.04 345.18 438.17 345.12C441.58 343.32 449.22 341.87 452.3 344.89C452.797 345.406 453.181 346.021 453.425 346.694C453.67 347.368 453.77 348.086 453.719 348.8C453.668 349.515 453.467 350.211 453.13 350.844C452.792 351.476 452.325 352.03 451.76 352.47C449.42 354.42 445.67 354.36 442.87 353.71C440.07 353.06 435.19 349.48 433.93 348.52C433.25 349.13 432.59 349.75 431.93 350.35C428.69 353.27 425.44 356.16 422.33 359.1C421.24 360.1 420.2 361.19 419.16 362.24C419.96 361.7 420.64 361.24 420.75 361.18C424.16 359.39 431.81 357.94 434.89 360.96C435.387 361.475 435.77 362.089 436.015 362.762C436.259 363.435 436.359 364.152 436.308 364.866C436.257 365.58 436.057 366.275 435.719 366.906C435.382 367.538 434.915 368.091 434.35 368.53C432.01 370.53 428.26 370.43 425.45 369.78C422.64 369.13 418.25 365.89 416.74 364.78C415.74 365.89 414.67 367.01 413.74 368.13C413.1 368.91 412.44 369.62 411.85 370.45L410.05 372.83C408.97 374.38 407.84 375.98 406.82 377.52C406.1 378.59 405.44 379.62 404.76 380.66C405.84 379.61 407.99 377.66 408.19 377.47C411.29 375.18 418.62 372.59 422.13 375.1C422.699 375.536 423.17 376.086 423.513 376.716C423.856 377.345 424.063 378.04 424.121 378.754C424.178 379.469 424.085 380.188 423.847 380.864C423.609 381.54 423.232 382.159 422.74 382.68C420.74 384.96 417 385.48 414.13 385.25C410.98 385.01 405.04 381.77 404.3 381.36C403.19 383.08 402.13 384.76 401.16 386.36C400.44 387.54 399.75 388.69 399.1 389.79L396.6 388.79C397.35 387.57 398.15 386.31 398.99 384.98C400.11 383.23 401.34 381.39 402.62 379.5C401.032 378.012 399.536 376.429 398.14 374.76C395.21 376.18 388.92 376.76 388.14 376.76C388.14 378.76 388.21 380.76 388.29 382.66C388.29 383.66 388.37 384.6 388.41 385.53L385.77 384.53C385.77 383.94 385.77 383.37 385.77 382.76C385.77 380.68 385.77 378.46 385.77 376.19C384.95 376.05 378.27 374.88 375.65 373.1C373.27 371.48 370.65 368.76 370.53 365.72C370.468 365.006 370.557 364.286 370.792 363.609C371.027 362.932 371.401 362.311 371.892 361.788C372.383 361.266 372.978 360.852 373.64 360.575C374.301 360.298 375.013 360.163 375.73 360.18C380.03 360.4 384.15 367 385.15 370.72C385.21 370.94 385.58 373.39 385.79 374.95C385.79 374.01 385.79 373.11 385.84 372.15C385.84 370.26 385.98 368.37 386.07 366.34C386.16 365.34 386.24 364.34 386.32 363.34C386.4 362.34 386.57 361.34 386.7 360.28C387.03 357.9 387.49 355.51 388 353.11C386.34 353.11 380.45 352.84 377.84 351.6C375.23 350.36 372.28 348.07 371.66 345.08C371.493 344.384 371.473 343.66 371.604 342.956C371.734 342.252 372.011 341.583 372.416 340.993C372.822 340.403 373.347 339.904 373.957 339.53C374.568 339.156 375.25 338.914 375.96 338.82C380.25 338.38 385.32 344.28 386.87 347.82C386.97 348.04 387.8 350.7 388.22 352.16C388.54 350.72 388.85 349.28 389.22 347.84C390.29 343.66 391.5 339.47 392.69 335.28C393.06 333.99 393.4 332.71 393.76 331.43C393.17 331.43 386.16 331.3 383.24 329.91C380.64 328.67 377.67 326.37 377.06 323.39C376.889 322.694 376.868 321.969 376.997 321.264C377.126 320.558 377.402 319.888 377.808 319.297C378.214 318.706 378.74 318.208 379.352 317.834C379.965 317.461 380.649 317.221 381.36 317.13C385.65 316.69 390.72 322.59 392.27 326.13C392.38 326.39 393.57 330.22 393.82 331.2C394.6 328.38 395.35 325.55 395.97 322.74C396.836 318.948 397.454 315.103 397.82 311.23C397.54 311.23 390.23 311.13 387.24 309.7C384.64 308.47 381.67 306.17 381.05 303.19C380.881 302.493 380.861 301.769 380.99 301.063C381.12 300.358 381.396 299.688 381.802 299.096C382.207 298.505 382.733 298.006 383.344 297.631C383.956 297.256 384.639 297.014 385.35 296.92C389.65 296.48 394.71 302.39 396.26 305.92C396.39 306.2 397.66 310.32 397.84 311.08C397.84 310.85 397.9 310.62 397.92 310.4C398.179 306.503 398.089 302.591 397.65 298.71C397.44 296.57 397.12 294.53 396.76 292.55C395.4 292.67 389.16 293.16 386.32 292.18C383.48 291.2 380.4 289.28 379.46 286.38C379.216 285.706 379.117 284.988 379.169 284.273C379.221 283.558 379.423 282.862 379.762 282.23C380.1 281.598 380.568 281.044 381.134 280.605C381.701 280.166 382.354 279.851 383.05 279.68C387.26 278.77 392.95 284.08 394.88 287.42C394.98 287.6 395.88 289.56 396.45 291C396.28 290.11 396.11 289.19 395.93 288.34C395.24 285.15 394.41 282.27 393.66 279.73C393.22 278.29 392.79 276.99 392.38 275.73C390.98 275.15 385.38 272.73 383.38 270.61C381.38 268.49 379.46 265.31 379.96 262.31C380.052 261.598 380.293 260.914 380.668 260.302C381.042 259.69 381.542 259.164 382.133 258.758C382.725 258.352 383.396 258.076 384.102 257.947C384.808 257.818 385.533 257.84 386.23 258.01C390.39 259.15 392.99 266.48 393.17 270.33C393.17 270.67 392.82 275.89 392.75 275.86H392.66C393.08 277.02 393.52 278.26 393.97 279.63C394.78 282.16 395.67 285.03 396.43 288.21C397.296 291.635 397.964 295.108 398.43 298.61C398.954 302.53 399.132 306.489 398.96 310.44C398.954 310.487 398.954 310.534 398.96 310.58C399.4 309.39 400.75 306.12 400.88 305.88C402.73 302.51 408.3 297.07 412.54 297.88C413.239 298.036 413.898 298.337 414.473 298.765C415.049 299.192 415.528 299.735 415.88 300.359C416.231 300.983 416.448 301.675 416.515 302.388C416.582 303.102 416.499 303.821 416.27 304.5C415.39 307.42 412.27 309.5 409.54 310.5C406.49 311.63 399.47 311.12 398.92 311.08C398.576 315.089 397.968 319.071 397.1 323C396.64 325.3 396.1 327.6 395.54 329.9C395.95 328.9 396.33 327.99 396.4 327.9C398.26 324.52 403.83 319.09 408.06 319.9C408.76 320.055 409.42 320.355 409.996 320.782C410.572 321.209 411.052 321.752 411.404 322.377C411.756 323.001 411.972 323.693 412.039 324.407C412.105 325.121 412.02 325.841 411.79 326.52C410.91 329.43 407.79 331.46 405.06 332.46C402.33 333.46 396.33 333.17 394.74 333.06C394.52 333.94 394.3 334.83 394.07 335.7C392.97 339.92 391.86 344.13 390.89 348.29C390.55 349.76 390.26 351.21 389.98 352.67C390.35 351.77 390.66 351.02 390.72 350.91C392.58 347.53 398.15 342.1 402.39 342.91C403.089 343.066 403.748 343.367 404.323 343.795C404.899 344.222 405.378 344.765 405.73 345.389C406.081 346.013 406.298 346.705 406.365 347.418C406.432 348.132 406.349 348.851 406.12 349.53C405.24 352.44 402.12 354.47 399.38 355.47C396.64 356.47 391.24 356.2 389.38 356.09C389.13 357.59 388.88 359.09 388.7 360.56C388.61 361.56 388.45 362.56 388.4 363.56L388.22 366.56C388.17 368.46 388.11 370.41 388.11 372.26C388.11 373.55 388.11 374.78 388.11 376.01C388.43 374.55 389.11 371.7 389.21 371.47C390.493 368.334 392.559 365.58 395.21 363.47C395.337 363.122 395.498 362.787 395.69 362.47C396.034 361.842 396.505 361.293 397.075 360.859C397.644 360.425 398.299 360.115 398.995 359.95C399.692 359.785 400.416 359.768 401.119 359.901C401.823 360.034 402.491 360.313 403.08 360.72C406.56 363.28 406.35 371.06 405.08 374.72C405.01 374.93 403.97 377.19 403.29 378.6C403.82 377.83 404.29 377.08 404.87 376.29C405.95 374.74 407.07 373.21 408.28 371.57L410.12 369.23C410.72 368.44 411.45 367.67 412.12 366.88C413.72 365.09 415.42 363.34 417.17 361.62C415.8 360.67 411.02 357.23 409.53 354.76C408.04 352.29 406.83 348.76 407.97 345.91C408.214 345.241 408.595 344.631 409.089 344.118C409.583 343.606 410.179 343.202 410.838 342.934C411.498 342.665 412.206 342.538 412.917 342.56C413.629 342.581 414.328 342.752 414.97 343.06C418.79 345.06 419.76 352.78 419.11 356.58C419.11 356.81 418.29 359.49 417.84 360.94C418.9 359.94 419.95 358.89 421.06 357.89C424.26 354.99 427.58 352.16 430.88 349.33L433.88 346.7C433.39 346.37 427.61 342.4 425.94 339.63C424.45 337.17 423.25 333.63 424.38 330.79C424.624 330.121 425.005 329.511 425.499 328.998C425.993 328.485 426.588 328.081 427.247 327.812C427.906 327.543 428.614 327.414 429.326 327.434C430.038 327.455 430.737 327.624 431.38 327.93C435.2 329.93 436.17 337.65 435.52 341.45C435.52 341.74 434.35 345.58 434.02 346.54C436.23 344.62 438.41 342.67 440.48 340.67C443.343 337.961 446.022 335.065 448.5 332C448.27 331.84 442.23 327.73 440.5 324.89C439.01 322.42 437.8 318.89 438.93 316.04C439.175 315.367 439.56 314.752 440.058 314.237C440.556 313.721 441.157 313.316 441.821 313.047C442.486 312.779 443.199 312.653 443.916 312.677C444.632 312.702 445.335 312.877 445.98 313.19C449.8 315.19 450.77 322.91 450.12 326.71C450.07 327.01 448.86 331.14 448.59 331.87C448.73 331.7 448.89 331.53 449.03 331.35C451.395 328.244 453.48 324.935 455.26 321.46C456.26 319.55 457.12 317.67 457.91 315.83C456.7 315.18 451.23 312.14 449.41 309.76C447.59 307.38 446.07 304.07 446.88 301.14C447.047 300.442 447.359 299.788 447.797 299.219C448.234 298.65 448.786 298.18 449.418 297.839C450.049 297.499 450.745 297.295 451.461 297.242C452.176 297.188 452.895 297.287 453.57 297.53C457.57 299.1 459.4 306.66 459.17 310.53C459.17 310.74 458.79 312.85 458.51 314.38C458.85 313.55 459.22 312.69 459.51 311.88C460.69 308.88 461.59 305.98 462.37 303.44C462.8 302 463.16 300.68 463.48 299.44C462.63 298.18 459.27 293.08 458.76 290.18C458.25 287.28 458.42 283.59 460.49 281.37C460.96 280.829 461.539 280.392 462.188 280.089C462.838 279.786 463.544 279.623 464.261 279.611C464.978 279.599 465.689 279.738 466.349 280.018C467.008 280.299 467.602 280.715 468.09 281.24C470.94 284.49 469.09 292.04 467.09 295.34C466.92 295.63 463.73 299.79 463.69 299.73L463.63 299.65C463.35 300.85 463.02 302.12 462.63 303.51C462 306 461.12 308.92 460 312C458.825 315.331 457.456 318.59 455.9 321.76C454.178 325.319 452.14 328.716 449.81 331.91C449.783 331.949 449.753 331.986 449.72 332.02C450.72 331.28 453.67 329.29 453.91 329.16C457.32 327.37 464.97 325.91 468.05 328.93C468.547 329.446 468.931 330.061 469.175 330.734C469.42 331.408 469.52 332.126 469.469 332.84C469.418 333.555 469.217 334.251 468.88 334.884C468.542 335.516 468.075 336.07 467.51 336.51C465.17 338.46 461.41 338.41 458.61 337.75Z" fill="black"/>
<path opacity="0.1" d="M397.14 291.87C397.06 291.87 397.69 286.68 397.77 286.35C398.67 282.61 402.61 275.9 406.91 275.57C407.625 275.535 408.34 275.651 409.008 275.911C409.676 276.171 410.282 276.568 410.785 277.078C411.289 277.587 411.68 278.197 411.932 278.868C412.185 279.539 412.293 280.255 412.25 280.97C412.18 283.97 409.67 286.8 407.33 288.48C404.58 290.45 397.14 291.86 397.14 291.87Z" fill="black"/>
</g>
<path d="M208.65 33.3601L221.15 152.15" stroke="#263238" stroke-linecap="round" stroke-linejoin="round"/>
<path d="M246.14 58.6001L236.82 60.7401L228.29 77.6101L214.78 73.7501L214.4 77.4301L231.2 84.4001L237.21 76.0601V90.6101L255.25 91.3901L258.94 74.9001L265.53 80.7201V96.0401H269.41L271.74 76.8401L261.46 60.1601L246.14 58.6001Z" fill="white" stroke="#263238" stroke-linecap="round" stroke-linejoin="round"/>
<path d="M237.21 76.0601L237.07 67.8501" stroke="#263238" stroke-linecap="round" stroke-linejoin="round"/>
<path d="M246 64.0001L248.53 68.7501C248.53 68.7501 255.53 70.9701 256.77 71.2801C258.01 71.5901 261.84 70.3301 265 69.7001C268.16 69.0701 278.31 74.1301 278.31 74.1301L287.18 74.4501L282.43 68.7501L265.32 66.2101L256.45 69.0701L250.45 67.4801L251.73 65.0001L248.88 60.5601L246 64.0001Z" fill="black" stroke="#263238" stroke-linecap="round" stroke-linejoin="round"/>
<path d="M246.91 57.2402C246.395 57.1428 245.862 57.2517 245.426 57.5435C244.99 57.8353 244.686 58.2866 244.58 58.8002C244.2 60.7402 243.81 65.5902 243.81 65.5902L248.46 64.2302L253.9 66.5602C253.9 66.5602 255.64 61.5102 254.67 59.7702C253.7 58.0302 249.24 55.6902 246.91 57.2402Z" fill="white" stroke="#263238" stroke-linecap="round" stroke-linejoin="round"/>
<path d="M245.94 54.53C245.94 54.53 246.52 59.96 246.72 61.9C246.92 63.84 248.08 66.75 248.85 66.17C249.62 65.59 252.34 60.17 252.34 60.17L253.7 56.49L245.94 54.53Z" fill="white" stroke="#263238" stroke-linecap="round" stroke-linejoin="round"/>
<path d="M246 46.6001C246 46.6001 244.3 46.4501 244.3 49.2301C244.3 52.0101 245.53 52.1601 245.53 52.1601L246 46.6001Z" fill="white" stroke="#263238" stroke-linecap="round" stroke-linejoin="round"/>
<path d="M257.37 48.9202C257.59 48.932 257.805 48.9919 258 49.0957C258.195 49.1995 258.364 49.3446 258.497 49.521C258.629 49.6973 258.721 49.9005 258.767 50.1163C258.812 50.3322 258.81 50.5553 258.76 50.7702C258.45 52.4702 255.52 54.7702 255.52 54.7702L257.37 48.9202Z" fill="white" stroke="#263238" stroke-linecap="round" stroke-linejoin="round"/>
<path d="M251.76 41C251.76 41 248.66 40.22 246.91 43.91C245.16 47.6 245.55 52.06 245.91 54.58C246.27 57.1 248.63 58.26 250.96 58.26C253.29 58.26 256.77 53.42 257.55 49.73C258.33 46.04 257.77 41 251.76 41Z" fill="white" stroke="#263238" stroke-linecap="round" stroke-linejoin="round"/>
<path d="M211.03 71.6002L211.8 77.4202L215.29 77.8102L214.71 71.2102L211.03 71.6002Z" fill="white" stroke="#263238" stroke-linecap="round" stroke-linejoin="round"/>
<path d="M214.78 71.5101L216.19 71.3201L216.47 74.4201L215.06 74.6101L214.78 71.5101Z" fill="white" stroke="#263238" stroke-linecap="round" stroke-linejoin="round"/>
<path d="M265.53 96.04L263.41 99.36L263.96 102.69L265.81 102.51L268.96 101.4L269.41 96.04H265.53Z" fill="white" stroke="#263238" stroke-linecap="round" stroke-linejoin="round"/>
<path d="M237.21 90.6101L235.84 96.5901L220.66 116.57L230.84 145.26L233.43 144.7L231.21 117.31L243.61 104.17L245.09 105.1L245.13 119.76L259.34 143.78L262.3 143.03L255.64 119.9L256.01 95.2901L255.25 91.3901L237.21 90.6101Z" fill="#263238" stroke="#263238" stroke-linecap="round" stroke-linejoin="round"/>
<path d="M230.84 145.26L228.62 148.4C228.62 148.4 225.1 150.07 224.55 150.99C224 151.91 227.55 151.73 227.55 151.73L231.62 151.36L235.88 148.59L233.47 144.7L230.84 145.26Z" fill="white" stroke="#263238" stroke-linecap="round" stroke-linejoin="round"/>
<path d="M209.18 37.5901C209.18 37.5901 207.32 41.8301 199.64 44.7401C191.96 47.6501 180.84 49.2401 177.93 55.3301C175.02 61.4201 175.02 60.9001 174.49 64.3301C174.207 66.3351 173.276 68.1927 171.84 69.6201C171.84 69.6201 174.49 69.8901 175.84 68.0401C177.19 66.1901 177.7 60.8901 179.84 60.0901C181.98 59.2901 185.87 58.0001 185.87 58.0001C185.87 58.0001 182.17 61.1801 181.87 62.7701C181.57 64.3601 181.34 68.0701 180.81 70.4501C180.579 71.7513 179.946 72.9474 179 73.8701C179 73.8701 182.44 73.8701 183.5 71.4901C184.56 69.1101 183.5 65.9301 186.94 63.5401C190.38 61.1501 194.09 62.2201 199.94 62.4801C205.79 62.7401 211.33 59.3101 211.33 59.3101L209.18 37.5901Z" fill="black" stroke="#263238" stroke-linecap="round" stroke-linejoin="round"/>
<path d="M259.34 143.78L256.79 152.25L263.12 152L262.3 143.03L259.34 143.78Z" fill="white" stroke="#263238" stroke-linecap="round" stroke-linejoin="round"/>
<path d="M249.64 48.43C249.53 48.93 249.18 49.28 248.84 49.21C248.5 49.14 248.32 48.67 248.43 48.21C248.54 47.75 248.89 47.36 249.23 47.43C249.57 47.5 249.74 47.93 249.64 48.43Z" fill="#263238"/>
<path d="M254.27 49.5101C254.16 50.0101 253.81 50.3601 253.47 50.2901C253.13 50.2201 252.95 49.7501 253.06 49.2901C253.17 48.8301 253.52 48.4401 253.86 48.5101C254.2 48.5801 254.37 49.0001 254.27 49.5101Z" fill="#263238"/>
<path d="M251.19 49.0701L249.96 52.7801H251.97" stroke="#263238" stroke-linecap="round" stroke-linejoin="round"/>
<path d="M248.42 53.8601C248.42 53.8601 249.5 55.7101 252.28 54.6301" stroke="#263238" stroke-linecap="round" stroke-linejoin="round"/>
<path d="M248.26 45.8302C248.662 45.613 249.127 45.5402 249.576 45.6239C250.025 45.7076 250.433 45.9427 250.73 46.2902" stroke="#263238" stroke-linecap="round" stroke-linejoin="round"/>
<path d="M253.05 46.9101C253.32 46.7618 253.619 46.6722 253.926 46.6473C254.234 46.6224 254.543 46.6627 254.834 46.7656C255.125 46.8685 255.39 47.0317 255.614 47.2444C255.837 47.4572 256.013 47.7147 256.13 48.0001" stroke="#263238" stroke-linecap="round" stroke-linejoin="round"/>
<path d="M245.33 45.3701L256.44 44.0001C256.44 44.0001 255.98 45.8502 256.6 46.3102C257.22 46.7702 257.37 48.9401 257.37 48.9401L256.91 51.4101L259.38 47.0901C259.38 47.0901 260.15 43.6902 259.53 42.6102C259.327 42.2842 259.057 42.0051 258.738 41.7913C258.419 41.5775 258.059 41.434 257.68 41.3701C257.019 40.3697 256.087 39.578 254.992 39.0875C253.898 38.597 252.687 38.428 251.5 38.6001C247.18 39.0601 245.33 41.2201 245.33 42.9201V45.3701Z" fill="#263238" stroke="#263238" stroke-linecap="round" stroke-linejoin="round"/>
<path d="M237.13 465.2L256.73 352.73L182.75 284.84L209.6 193.36L180.86 194L168.72 204.86L143.35 204.24L139.92 216.61L132.96 215.74L130.56 220.08L118.69 243.78L112.52 267.45L89.5198 296.2L86.9998 364.04L49.9198 417.56L38.2598 465.2H237.13Z" fill="#808080" stroke="#39515E" stroke-linecap="round" stroke-linejoin="round"/>
<path d="M404.06 465.2L379.51 411.37L419.51 438.02V395.37L396 367.52L399.48 336.19L363.78 268.3L362 244.8L349.82 233.48L287.3 238L282.84 216.05L242.84 193.42L218.84 251.53L196.73 261.31L212.31 282.67L209.79 299.6L215 325.74L128 344.89C128 344.89 127.13 386.67 127.13 390.15C127.13 393.63 109.72 413.65 109.72 413.65L108.91 465.2H404.06Z" fill="#ABABAB" stroke="#39515E" stroke-linecap="round" stroke-linejoin="round"/>
<path d="M452.51 465.2L442.12 460.65L429.06 432.8L413.39 421.49L406.43 404.95L399.47 391.89L362.27 373.72L368.04 465.2H452.51Z" fill="#CCCCCC" stroke="#39515E" stroke-linecap="round" stroke-linejoin="round"/>
<path d="M63.1497 465.09H109.66L110.5 438.02L106.15 422.36V380.58L95.7097 378.84L86.9997 388.41L73.0797 396.25L42.9097 465.2H63.1497V465.09Z" fill="#CCCCCC" stroke="#39515E" stroke-linecap="round" stroke-linejoin="round"/>
<path d="M79.2397 419.77L80.2598 415.43" stroke="#39515E" stroke-miterlimit="10"/>
<path d="M63.1499 465.2L69.3499 440.71L75.1999 436.99L78.6199 422.41" stroke="#39515E" stroke-miterlimit="10"/>
<path d="M53.1099 465.46L62.9599 437.52" stroke="#39515E" stroke-miterlimit="10"/>
<path d="M95.8496 390.4L94.8896 394.94" stroke="#39515E" stroke-miterlimit="10"/>
<path d="M98.0798 379.78L96.2598 388.45" stroke="#39515E" stroke-miterlimit="10"/>
<path d="M109.66 465.09L110.5 438.02L106.15 422.36V380.58L97.4499 436.28L89.6099 438.89L86.9999 454.56L85.3799 465.09H109.66Z" fill="white" stroke="#39515E" stroke-linecap="round" stroke-linejoin="round"/>
<path d="M258.61 434.22C263.558 433.55 268.396 432.232 273 430.3C276.676 428.801 279.91 426.392 282.4 423.3C282.69 422.91 282.96 422.5 283.22 422.09L276.35 391.09L262.8 379.27L260.54 369.13L247.54 358.99L243.04 374.77L235.71 384.91L235.15 422.1L242.15 435.48C247.659 435.433 253.158 435.012 258.61 434.22Z" fill="white" stroke="#39515E" stroke-linecap="round" stroke-linejoin="round"/>
<path d="M258.61 434.22L257.23 422.64L261.3 411.67V405.17L260.48 395.01" stroke="#39515E" stroke-miterlimit="10"/>
<path d="M266.86 399.02L269.02 411.26L273.08 412.07L272.27 422.23L273.89 427.52" stroke="#39515E" stroke-miterlimit="10"/>
<path d="M265.36 390.54L266.08 394.62" stroke="#39515E" stroke-miterlimit="10"/>
<path d="M251.95 364.53L255.2 397.85" stroke="#39515E" stroke-miterlimit="10"/>
<path d="M212.25 433.39C221.599 434.811 231.043 435.513 240.5 435.49C242.4 435.49 244.26 435.44 246.09 435.37L245.89 424.91L242.51 420.41V388.29L248.15 382.65L247.58 359L240.82 371.4L231.82 379.28L226.18 395.62L217.18 406.33L214.92 417.6L204.22 426.6L199.95 431.15C203.983 432.01 208.083 432.757 212.25 433.39Z" fill="#CCCCCC" stroke="#39515E" stroke-linecap="round" stroke-linejoin="round"/>
<path d="M375.1 465.2L422.35 465.11L361.17 428.45L346.38 392.76L334.19 391.02L323.75 377.1L318.52 382.32L322 412.78L308.95 434.54V448.47L302.86 464.13L332.3 465.2H375.1Z" fill="white" stroke="#39515E" stroke-linecap="round" stroke-linejoin="round"/>
<path d="M351.4 465.14L349.17 452.69L352.68 445.34L351.72 430.97L354.6 433.85L374.08 465.14H351.4Z" fill="#CCCCCC" stroke="#39515E" stroke-linecap="round" stroke-linejoin="round"/>
<path d="M351.72 430.97L365.46 437.68L370.88 444.38L386.53 452.37L397.39 459.08L404.06 465.2L374.08 465.14L351.72 430.97Z" fill="white" stroke="#39515E" stroke-linecap="round" stroke-linejoin="round"/>
<path d="M308.95 434.54V448.47L302.39 464.92L327.24 465.24L322 435.41L332.45 425.84L318.52 382.32L322 412.78L308.95 434.54Z" fill="#CCCCCC" stroke="#39515E" stroke-linecap="round" stroke-linejoin="round"/>
<path d="M334.19 391.02L343.38 410.45L347.44 410.86L350.69 420.61" stroke="#39515E" stroke-miterlimit="10"/>
<path d="M340.36 449.8L341.76 454.34" stroke="#39515E" stroke-miterlimit="10"/>
<path d="M334.85 414.51L337.69 425.49L342.57 433.61L336.88 438.49L339.34 446.48" stroke="#39515E" stroke-miterlimit="10"/>
<path d="M218.74 191.25L198.34 213.56L197.64 172.66L217.95 148L218.74 191.25Z" fill="#CCCCCC" stroke="#39515E" stroke-linecap="round" stroke-linejoin="round"/>
<path d="M204.58 280.57L225.44 262.16C226.936 260.862 228.601 259.772 230.39 258.92C232.634 257.855 234.979 257.018 237.39 256.42C240.48 255.668 243.622 255.147 246.79 254.86C250.778 254.492 254.785 254.345 258.79 254.42C268.473 254.548 278.133 255.401 287.69 256.97C295.632 258.285 303.485 260.099 311.2 262.4C318.14 264.47 324.2 266.69 329.43 268.74C334.66 270.79 338.98 272.67 342.48 274.05L315.41 291.6C312.1 290.3 307.99 288.53 303.06 286.6C298.13 284.67 292.38 282.6 285.81 280.6C278.512 278.432 271.084 276.732 263.57 275.51C254.522 274.039 245.376 273.251 236.21 273.15C232.411 273.085 228.612 273.231 224.83 273.59C221.833 273.866 218.862 274.364 215.94 275.08C213.641 275.644 211.406 276.442 209.27 277.46C207.573 278.281 205.996 279.327 204.58 280.57Z" fill="#CCCCCC" stroke="#39515E" stroke-linecap="round" stroke-linejoin="round"/>
<path d="M271 431.11L247.46 440.11C249.517 439.346 251.488 438.367 253.34 437.19C254.98 436.144 256.457 434.86 257.72 433.38C258.912 431.978 259.834 430.368 260.44 428.63C261.063 426.779 261.354 424.833 261.3 422.88C261.283 419.474 260.238 416.152 258.3 413.35C255.815 410.055 252.641 407.342 249 405.4C243.755 402.535 238.242 400.19 232.54 398.4C225.74 396.11 217.54 393.85 207.89 391.5C194.747 388.439 181.877 384.306 169.41 379.14C158.151 374.526 147.581 368.381 138 360.88C129.2 354.006 121.952 345.35 116.73 335.48C111.435 324.991 108.694 313.4 108.73 301.65C108.68 296.878 109.014 292.109 109.73 287.39C110.413 282.854 111.484 278.384 112.93 274.03C114.354 269.764 116.151 265.631 118.3 261.68C120.465 257.726 122.972 253.969 125.79 250.45L142 230.12C136.022 237.557 131.423 246.003 128.42 255.06C126.874 259.663 125.73 264.39 125 269.19C124.259 274.188 123.925 279.238 124 284.29C123.992 296.746 126.921 309.028 132.55 320.14C138.088 330.603 145.768 339.782 155.09 347.08C164.57 354.71 175.84 361.08 188.37 366.41C201.561 371.895 215.18 376.29 229.09 379.55C239.34 382.05 247.97 384.46 255.16 386.89C261.196 388.808 267.027 391.316 272.57 394.38C277.05 396.99 280.26 399.75 282.38 402.79C284.446 405.751 285.566 409.269 285.59 412.88C285.657 414.948 285.352 417.01 284.69 418.97C284.053 420.799 283.083 422.494 281.83 423.97C280.493 425.526 278.933 426.874 277.2 427.97C275.25 429.232 273.171 430.285 271 431.11Z" fill="#CCCCCC" stroke="#39515E" stroke-linecap="round" stroke-linejoin="round"/>
<path d="M155.09 347.08C164.57 354.71 175.84 361.08 188.37 366.41C201.561 371.895 215.18 376.29 229.09 379.55C239.34 382.05 247.97 384.46 255.16 386.89C261.196 388.808 267.027 391.316 272.57 394.38C277.05 396.99 280.26 399.75 282.38 402.79C284.446 405.751 285.566 409.269 285.59 412.88C285.755 416.628 284.617 420.317 282.37 423.32C279.88 426.412 276.646 428.821 272.97 430.32C268.375 432.249 263.547 433.567 258.61 434.24C252.613 435.108 246.56 435.532 240.5 435.51C231.043 435.533 221.599 434.831 212.25 433.41C203.272 432.049 194.386 430.142 185.64 427.7C177.14 425.33 169.05 422.59 161.51 419.7C153.97 416.81 146.97 413.7 140.66 410.7L127.88 465H357.57C364.727 457.028 370.327 447.785 374.08 437.75C378.013 427.058 379.84 415.706 379.46 404.32C379.12 392.15 377.27 381.32 373.64 371.61C370.028 361.903 364.405 353.07 357.14 345.69C349.67 338.03 340.14 331.28 328.28 325.26C316.42 319.24 302.14 313.91 285.28 309.1C274.426 305.94 264.936 302.907 256.81 300C249.871 297.599 243.103 294.732 236.55 291.42C231.15 288.59 227.1 285.78 224.4 282.9C221.7 280.02 220.32 277.09 220.26 274.01C220.184 271.491 220.726 268.991 221.84 266.73C223.228 264.101 225.301 261.897 227.84 260.35C231.487 258.152 235.507 256.643 239.7 255.9C246.018 254.718 252.445 254.218 258.87 254.41C268.553 254.538 278.214 255.391 287.77 256.96C295.713 258.275 303.565 260.089 311.28 262.39C318.22 264.46 324.28 266.68 329.51 268.73C334.74 270.78 339.06 272.66 342.56 274.04L357.44 207.04C352.76 205.04 347.73 203.04 342.22 201.14C336.71 199.24 330.71 197.46 324.12 195.85C317.53 194.24 310.33 192.85 302.41 191.64C294.49 190.43 285.82 189.57 276.32 189.01L275.45 149.39L218 148L218.79 191.25C204.819 193.178 191.187 197.052 178.29 202.76C167.185 207.667 157.049 214.521 148.36 223C140.41 230.85 134.161 240.251 130 250.62C125.803 261.339 123.764 272.781 124 284.29C123.992 296.746 126.921 309.028 132.55 320.14C138.088 330.603 145.768 339.782 155.09 347.08Z" fill="white" stroke="#39515E" stroke-linecap="round" stroke-linejoin="round"/>
<path d="M127.88 465L140.66 410.67L124.29 420.91L113.87 465H127.88Z" fill="#CCCCCC" stroke="#39515E" stroke-linecap="round" stroke-linejoin="round"/>
<path d="M404.15 451.89C403.143 451.7 402.101 451.904 401.24 452.46L405.72 455.15C405.84 454.833 405.893 454.496 405.878 454.158C405.863 453.82 405.78 453.489 405.633 453.184C405.486 452.879 405.279 452.607 405.024 452.385C404.769 452.162 404.472 451.994 404.15 451.89Z" fill="#263238"/>
<path d="M405.41 416.49C405.41 416.49 406.01 413.97 406.03 413.81C406.23 411.92 405.5 408.14 403.55 407.27C403.222 407.135 402.869 407.071 402.515 407.083C402.16 407.094 401.812 407.179 401.493 407.334C401.174 407.489 400.891 407.709 400.663 407.981C400.435 408.252 400.267 408.569 400.17 408.91C399.7 410.34 400.41 412.05 401.22 413.22C402.18 414.6 405.41 416.48 405.41 416.49Z" fill="#263238"/>
<path d="M435.06 431.87C436.28 430.4 437.75 426.87 436.6 425.05C436.402 424.756 436.144 424.507 435.843 424.32C435.541 424.133 435.204 424.012 434.852 423.964C434.501 423.917 434.143 423.945 433.803 424.046C433.463 424.147 433.149 424.319 432.88 424.55C432.339 425.094 431.925 425.751 431.665 426.473C431.406 427.196 431.309 427.966 431.38 428.73C431.38 430.4 433.07 433.73 433.08 433.73C433.09 433.73 435 432 435.06 431.87Z" fill="#263238"/>
<path d="M393.86 445.77C395.273 446.672 396.818 447.347 398.44 447.77C398.31 448.51 398.18 449.25 398.02 449.96C398.02 450.14 397.93 450.32 397.89 450.51L398.83 451.07C398.89 450.78 398.95 450.48 399.02 450.19C399.25 449.02 399.44 447.83 399.59 446.63C401.195 447.222 402.882 447.559 404.59 447.63C405.363 447.61 406.121 447.42 406.812 447.074C407.504 446.729 408.11 446.236 408.59 445.63C408.782 445.33 408.909 444.993 408.962 444.642C409.016 444.29 408.995 443.931 408.9 443.587C408.806 443.244 408.641 442.925 408.415 442.649C408.189 442.374 407.908 442.15 407.59 441.99C405.66 441.08 402.32 442.99 401.01 444.38C400.93 444.47 400.11 445.57 399.67 446.19C399.76 445.46 399.85 444.74 399.92 444C400.11 441.88 400.24 439.72 400.37 437.57C400.37 436.92 400.46 436.26 400.51 435.57C400.79 435.67 404.07 436.77 405.67 436.57C407.08 436.42 408.85 435.84 409.67 434.57C409.862 434.271 409.989 433.935 410.042 433.584C410.095 433.233 410.074 432.874 409.98 432.532C409.886 432.189 409.72 431.871 409.495 431.596C409.269 431.322 408.988 431.099 408.67 430.94C406.74 430.03 403.4 431.94 402.09 433.33C402 433.44 400.81 435.03 400.53 435.44C400.63 434 400.75 432.56 400.92 431.14C401.135 429.231 401.469 427.337 401.92 425.47C402.05 425.47 405.48 426.68 407.11 426.47C408.53 426.32 410.29 425.74 411.11 424.47C411.302 424.171 411.429 423.835 411.482 423.484C411.535 423.133 411.514 422.774 411.42 422.432C411.326 422.089 411.16 421.771 410.935 421.496C410.709 421.222 410.428 420.998 410.11 420.84C408.18 419.92 404.84 421.84 403.54 423.23C403.43 423.34 402.16 425.05 401.95 425.37C401.95 425.26 402 425.15 402.03 425.04C402.554 423.183 403.24 421.376 404.08 419.64C404.53 418.64 405.02 417.77 405.51 416.91C406.13 417.19 408.96 418.45 410.44 418.46C411.92 418.47 413.68 418.09 414.6 416.89C414.825 416.615 414.99 416.297 415.084 415.954C415.177 415.612 415.198 415.254 415.144 414.903C415.091 414.552 414.964 414.216 414.772 413.918C414.58 413.619 414.327 413.364 414.03 413.17C412.22 412.05 408.69 413.59 407.24 414.83C407.16 414.9 406.43 415.67 405.91 416.24C406.14 415.85 406.37 415.45 406.6 415.08C407.45 413.71 408.31 412.51 409.08 411.44C409.52 410.84 409.93 410.31 410.32 409.81C412.046 409.776 413.756 409.476 415.39 408.92C416.65 408.27 418.09 407.09 418.39 405.61C418.457 405.266 418.452 404.912 418.376 404.57C418.299 404.229 418.152 403.907 417.944 403.625C417.736 403.343 417.472 403.107 417.169 402.932C416.865 402.757 416.528 402.648 416.18 402.61C414.05 402.46 411.63 405.45 410.91 407.21C410.85 407.37 410.15 409.86 410.19 409.86H410.24C409.85 410.33 409.44 410.86 409.01 411.4C408.21 412.45 407.32 413.64 406.44 415C405.48 416.457 404.602 417.966 403.81 419.52C402.916 421.261 402.18 423.078 401.61 424.95C401.61 424.95 401.61 425 401.61 425.02C401.61 424.39 401.52 422.65 401.5 422.51C401.19 420.63 399.5 417.18 397.38 416.86C397.028 416.818 396.671 416.85 396.332 416.955C395.994 417.059 395.68 417.233 395.413 417.466C395.145 417.698 394.929 417.984 394.779 418.305C394.629 418.626 394.547 418.975 394.54 419.33C394.47 420.84 395.61 422.33 396.7 423.22C397.94 424.22 401.29 425.22 401.56 425.22C401.029 427.138 400.625 429.089 400.35 431.06C400.18 432.21 400.05 433.37 399.94 434.54C399.94 434 399.88 433.54 399.87 433.45C399.56 431.57 397.87 428.11 395.75 427.8C395.398 427.756 395.041 427.787 394.702 427.891C394.363 427.995 394.05 428.169 393.783 428.402C393.516 428.635 393.301 428.922 393.152 429.244C393.004 429.566 392.925 429.915 392.92 430.27C392.85 431.77 393.99 433.27 395.08 434.15C396.539 435.053 398.127 435.728 399.79 436.15C399.79 436.59 399.7 437.04 399.67 437.49C399.48 439.64 399.31 441.78 399.07 443.88C398.99 444.62 398.88 445.35 398.77 446.07C398.77 445.59 398.77 445.19 398.77 445.13C398.46 443.25 396.77 439.8 394.65 439.48C394.298 439.436 393.941 439.467 393.602 439.571C393.263 439.675 392.95 439.849 392.683 440.082C392.416 440.315 392.201 440.602 392.052 440.924C391.904 441.246 391.825 441.595 391.82 441.95C391.63 443.39 392.77 444.86 393.86 445.77Z" fill="#263238"/>
<path d="M449.71 428.05C448.02 426.74 444.35 427.9 442.78 428.98C442.64 429.07 440.68 430.77 440.72 430.79C440.14 430.96 439.52 431.16 438.84 431.39C437.6 431.83 436.2 432.33 434.72 432.98C433.11 433.656 431.544 434.431 430.03 435.3C428.325 436.258 426.709 437.366 425.2 438.61L425.15 438.66C425.48 438.13 426.38 436.66 426.43 436.51C427.21 434.77 427.7 430.95 426.11 429.51C425.841 429.28 425.526 429.11 425.186 429.01C424.846 428.91 424.489 428.882 424.138 428.929C423.787 428.977 423.45 429.097 423.149 429.283C422.848 429.47 422.589 429.717 422.39 430.01C421.5 431.22 421.64 433.07 422.04 434.44C422.51 435.98 424.79 438.6 424.98 438.81C423.472 440.108 422.058 441.512 420.75 443.01C419.97 443.88 419.22 444.77 418.48 445.68C418.76 445.22 419 444.8 419.03 444.74C419.81 443 420.3 439.18 418.71 437.74C418.441 437.51 418.126 437.34 417.786 437.24C417.446 437.14 417.089 437.112 416.738 437.159C416.387 437.207 416.05 437.327 415.749 437.513C415.448 437.7 415.189 437.947 414.99 438.24C414.1 439.45 414.24 441.31 414.65 442.67C415.369 444.224 416.324 445.657 417.48 446.92L416.64 447.92C415.3 449.62 413.97 451.31 412.64 452.92C412.17 453.49 411.64 454.04 411.19 454.58L411.66 453.76C412.44 452.03 412.93 448.21 411.34 446.76C411.071 446.53 410.756 446.36 410.416 446.26C410.076 446.16 409.719 446.132 409.368 446.179C409.017 446.227 408.68 446.347 408.379 446.533C408.078 446.72 407.819 446.967 407.62 447.26C406.73 448.47 406.87 450.32 407.28 451.69C407.948 453.264 408.867 454.72 410 456L409 457.08L409.88 457.61C410.49 456.98 411.08 456.32 411.67 455.61C412.686 456.976 413.907 458.177 415.29 459.17C415.946 459.571 416.681 459.823 417.445 459.909C418.208 459.996 418.981 459.914 419.71 459.67C420.035 459.53 420.327 459.322 420.566 459.061C420.806 458.8 420.988 458.492 421.1 458.156C421.212 457.82 421.252 457.464 421.218 457.112C421.184 456.759 421.075 456.418 420.9 456.11C419.79 454.28 415.9 454.04 414.1 454.48C413.98 454.48 412.69 454.97 411.98 455.24C412.45 454.68 412.93 454.13 413.39 453.55C414.72 451.89 416.02 450.16 417.32 448.44L418.52 446.88C418.7 447.11 420.84 449.88 422.26 450.58C422.915 450.979 423.648 451.23 424.41 451.316C425.171 451.402 425.943 451.322 426.67 451.08C426.995 450.94 427.287 450.732 427.526 450.471C427.766 450.21 427.948 449.902 428.06 449.566C428.172 449.23 428.213 448.874 428.178 448.522C428.144 448.169 428.035 447.828 427.86 447.52C426.76 445.69 422.92 445.44 421.06 445.88C420.92 445.88 419.06 446.59 418.6 446.78C419.48 445.63 420.37 444.5 421.3 443.41C422.538 441.935 423.874 440.545 425.3 439.25C425.38 439.36 427.59 442.25 429.05 442.98C430.31 443.64 432.1 444.13 433.46 443.48C433.786 443.341 434.079 443.134 434.319 442.873C434.56 442.613 434.743 442.305 434.856 441.969C434.969 441.633 435.01 441.276 434.977 440.923C434.943 440.57 434.835 440.229 434.66 439.92C433.55 438.09 429.71 437.85 427.86 438.28C427.71 438.28 425.71 439.04 425.35 439.2L425.6 438.96C427.061 437.7 428.63 436.573 430.29 435.59C431.2 435.03 432.1 434.59 432.99 434.11C433.35 434.68 434.99 437.29 436.25 438.11C437.51 438.93 439.16 439.58 440.58 439.11C440.918 439.006 441.231 438.831 441.498 438.598C441.765 438.365 441.979 438.078 442.128 437.757C442.277 437.435 442.357 437.086 442.363 436.732C442.368 436.378 442.299 436.026 442.16 435.7C441.26 433.76 437.47 433.1 435.58 433.33C435.47 433.33 434.44 433.59 433.69 433.78C434.1 433.58 434.51 433.37 434.9 433.19C436.37 432.51 437.75 431.98 438.98 431.52L440.92 430.85C442.377 431.768 443.965 432.459 445.63 432.9C446.386 433.037 447.162 433.007 447.905 432.812C448.648 432.617 449.339 432.261 449.93 431.77C450.176 431.52 450.367 431.221 450.491 430.892C450.614 430.563 450.667 430.212 450.647 429.861C450.626 429.511 450.532 429.168 450.37 428.856C450.209 428.544 449.984 428.27 449.71 428.05Z" fill="#263238"/>
<path d="M398.72 465.16L399.87 465.87L400.58 465.35L400.85 465.15L398.72 465.16Z" fill="#263238"/>
<path d="M67.4099 399C67.113 399.193 66.8599 399.446 66.6671 399.743C66.4742 400.04 66.3458 400.374 66.2902 400.724C66.2346 401.074 66.253 401.431 66.3442 401.773C66.4355 402.115 66.5975 402.435 66.8199 402.71C67.5347 403.537 68.534 404.065 69.6199 404.19L71.7699 399.28C70.2599 398.6 68.5199 398.28 67.4099 399Z" fill="#263238"/>
<path d="M77.36 392.55C76.6837 393.056 76.2032 393.78 76 394.6L79.77 392.49C79.3987 392.287 78.9802 392.185 78.5569 392.196C78.1337 392.206 77.7207 392.328 77.36 392.55Z" fill="#263238"/>
<path d="M77.9999 356.81C79.2799 357.89 82.8899 358.87 82.8899 358.87C82.8899 358.87 82.8199 356.29 82.7899 356.13C82.4899 354.25 80.7899 350.79 78.6999 350.46C78.3478 350.413 77.9899 350.442 77.6497 350.544C77.3095 350.646 76.9948 350.819 76.7263 351.051C76.4579 351.284 76.2419 351.57 76.0925 351.893C75.9432 352.215 75.8639 352.565 75.8599 352.92C75.8199 354.42 76.9999 355.89 77.9999 356.81Z" fill="#263238"/>
<path d="M51.67 368.15C51.67 368.15 50.18 366.04 50.07 365.92C48.79 364.52 45.47 362.56 43.53 363.45C43.2125 363.608 42.9318 363.83 42.7062 364.104C42.4806 364.377 42.3152 364.695 42.2209 365.036C42.1265 365.378 42.1052 365.736 42.1585 366.086C42.2118 366.437 42.3384 366.772 42.53 367.07C43.29 368.37 45.04 368.97 46.46 369.14C48.11 369.33 51.67 368.16 51.67 368.15Z" fill="#263238"/>
<path d="M49.79 360.17C49.89 360.77 50 361.41 50.13 362.11C50.39 363.4 50.69 364.85 51.13 366.41C51.5755 368.108 52.1232 369.778 52.77 371.41C53.484 373.23 54.3574 374.984 55.38 376.65V376.71C54.91 376.31 53.54 375.21 53.38 375.14C51.77 374.14 48.05 373.14 46.38 374.48C46.1152 374.716 45.9033 375.006 45.7582 375.33C45.6131 375.654 45.5381 376.005 45.5381 376.36C45.5381 376.715 45.6131 377.066 45.7582 377.39C45.9033 377.714 46.1152 378.004 46.38 378.24C47.46 379.29 49.31 379.41 50.72 379.24C52.31 379 55.22 377.09 55.45 376.94C56.5404 378.608 57.7362 380.204 59.03 381.72C59.78 382.6 60.56 383.47 61.36 384.33L60.5 383.65C58.89 382.65 55.17 381.65 53.5 383C53.2366 383.237 53.0259 383.527 52.8817 383.851C52.7376 384.175 52.6631 384.525 52.6631 384.88C52.6631 385.234 52.7376 385.585 52.8817 385.909C53.0259 386.233 53.2366 386.523 53.5 386.76C54.1106 387.225 54.8154 387.551 55.565 387.715C56.3146 387.879 57.091 387.877 57.84 387.71C59.4796 387.211 61.034 386.466 62.45 385.5C62.76 385.82 63.06 386.15 63.37 386.5C64.86 388.06 66.37 389.61 67.77 391.18C68.27 391.73 68.77 392.29 69.22 392.85L68.47 392.27C66.86 391.27 63.14 390.27 61.47 391.61C61.2066 391.847 60.9959 392.137 60.8517 392.461C60.7076 392.785 60.6331 393.135 60.6331 393.49C60.6331 393.844 60.7076 394.195 60.8517 394.519C60.9959 394.843 61.2066 395.133 61.47 395.37C62.55 396.42 64.41 396.54 65.81 396.37C67.4081 395.892 68.9227 395.171 70.3 394.23C70.77 394.81 71.24 395.4 71.67 396C71.95 396.41 72.25 396.78 72.51 397.21V397.27L72.89 396.41L73.11 396.28L72.46 395.4C71.74 394.45 70.97 393.52 70.17 392.61C71.6523 391.789 73.0011 390.747 74.17 389.52C74.657 388.925 75.0086 388.232 75.2003 387.487C75.392 386.743 75.4192 385.966 75.28 385.21C75.1856 384.869 75.0205 384.551 74.7952 384.278C74.57 384.005 74.2897 383.783 73.9727 383.625C73.6558 383.467 73.3091 383.378 72.9554 383.364C72.6017 383.349 72.2489 383.409 71.92 383.54C69.92 384.38 69.18 388.15 69.36 390.04C69.36 390.16 69.65 391.51 69.82 392.25C69.33 391.7 68.82 391.15 68.35 390.61C66.88 389.06 65.35 387.54 63.83 386.01L62.45 384.61C62.7 384.46 65.7 382.73 66.63 381.42C67.1796 380.836 67.5887 380.134 67.8261 379.368C68.0635 378.602 68.123 377.792 68 377C67.9054 376.659 67.7402 376.341 67.5151 376.068C67.2901 375.795 67.0101 375.571 66.6934 375.413C66.3767 375.255 66.0303 375.165 65.6766 375.149C65.3229 375.133 64.9697 375.191 64.64 375.32C62.64 376.16 61.9 379.93 62.08 381.83C62.08 381.97 62.49 383.91 62.62 384.4C61.62 383.4 60.62 382.32 59.62 381.26C58.3347 379.827 57.1454 378.31 56.06 376.72C56.18 376.65 59.32 374.85 60.27 373.52C60.7568 372.927 61.1083 372.235 61.3 371.493C61.4918 370.75 61.5191 369.974 61.38 369.22C61.2903 368.873 61.1278 368.549 60.9033 368.269C60.6788 367.989 60.3974 367.76 60.0778 367.598C59.7582 367.435 59.4077 367.342 59.0494 367.326C58.6912 367.309 58.3335 367.368 58 367.5C56 368.34 55.26 372.11 55.44 374.01C55.44 374.16 55.89 376.24 55.99 376.61L55.79 376.34C54.7459 374.715 53.8458 373.002 53.1 371.22C52.68 370.22 52.33 369.28 52.01 368.34C53.6158 367.684 55.1102 366.784 56.44 365.67C56.9864 365.134 57.4091 364.484 57.6786 363.767C57.948 363.051 58.0577 362.284 58 361.52C57.9388 361.173 57.8059 360.843 57.6099 360.551C57.4139 360.259 57.159 360.01 56.8616 359.822C56.5642 359.634 56.2308 359.51 55.8827 359.458C55.5346 359.406 55.1795 359.427 54.84 359.52C52.84 360.14 51.62 363.8 51.58 365.71C51.58 365.81 51.68 366.87 51.76 367.64C51.63 367.21 51.48 366.77 51.35 366.36C50.88 364.82 50.55 363.36 50.27 362.09C50.11 361.36 49.98 360.7 49.87 360.09C50.9847 358.774 51.8887 357.293 52.55 355.7C52.793 354.972 52.8732 354.2 52.7851 353.438C52.697 352.676 52.4426 351.943 52.04 351.29C51.8293 351.005 51.5608 350.767 51.252 350.593C50.9433 350.419 50.6012 350.312 50.2482 350.279C49.8953 350.246 49.5393 350.288 49.2036 350.401C48.8679 350.515 48.56 350.699 48.3 350.94C46.77 352.43 47.4 356.22 48.3 357.94C48.36 358 49.77 360.2 49.79 360.17Z" fill="#263238"/>
<path d="M76.1901 367.58C77.6501 368.25 81.1301 368.27 81.4101 368.28C81.3885 370.285 81.5021 372.29 81.7501 374.28C81.8901 375.43 82.0701 376.59 82.2601 377.74C82.0901 377.23 81.9401 376.74 81.9101 376.74C81.1301 375 78.5901 372.11 76.4701 372.35C76.119 372.4 75.7822 372.523 75.4816 372.711C75.1811 372.899 74.9234 373.148 74.7254 373.442C74.5274 373.737 74.3934 374.069 74.3322 374.418C74.271 374.768 74.2839 375.126 74.3701 375.47C74.6901 376.94 76.1701 378.06 77.4701 378.66C79.1106 379.153 80.8174 379.389 82.5301 379.36C82.6101 379.8 82.6801 380.24 82.7601 380.68C83.1401 382.81 83.5301 384.92 83.8501 387.01C83.9601 387.75 84.0401 388.48 84.1301 389.21L83.8301 388.31C83.0401 386.57 80.5001 383.68 78.3801 383.92C78.0335 383.97 77.7012 384.092 77.4043 384.278C77.1074 384.464 76.8525 384.709 76.6558 384.999C76.4592 385.289 76.3251 385.616 76.2621 385.961C76.1991 386.306 76.2087 386.659 76.2901 387C76.6101 388.47 78.0901 389.59 79.3801 390.19C80.4804 390.577 81.6343 390.789 82.8001 390.82L85.1301 389.51L86.9701 388.51L92.0001 383C91.8863 382.958 91.7693 382.924 91.6501 382.9C89.5501 382.52 86.8201 385.23 85.9201 386.9C85.9201 387.01 85.3601 388.29 85.0901 388.99C84.9901 388.27 84.8901 387.55 84.7601 386.82C84.4001 384.72 83.9601 382.61 83.5401 380.49C83.4001 379.85 83.2801 379.2 83.1601 378.55C83.4501 378.55 86.9101 378.78 88.4001 378.21C89.7301 377.7 91.2901 376.68 91.7001 375.21C91.8034 374.873 91.8347 374.518 91.7922 374.168C91.7497 373.818 91.6342 373.481 91.4533 373.178C91.2723 372.876 91.0299 372.615 90.7417 372.412C90.4535 372.209 90.1259 372.069 89.7801 372C87.6801 371.62 84.9601 374.33 84.0601 376C83.9901 376.13 83.2601 378 83.0601 378.45C82.7901 377.02 82.5301 375.6 82.3301 374.19C82.0473 372.286 81.8903 370.365 81.8601 368.44C82.0001 368.44 85.6101 368.68 87.1401 368.1C87.8754 367.87 88.5517 367.483 89.1217 366.965C89.6917 366.447 90.1417 365.81 90.4401 365.1C90.5502 364.763 90.5881 364.407 90.5513 364.055C90.5144 363.702 90.4037 363.362 90.2263 363.055C90.0489 362.748 89.8088 362.482 89.5217 362.275C89.2346 362.067 88.9069 361.922 88.5601 361.85C86.4601 361.46 83.7301 364.18 82.8301 365.85C82.7601 365.98 81.9801 367.96 81.8301 368.33C81.8301 368.22 81.8301 368.1 81.8301 367.99C81.8599 366.06 82.054 364.137 82.4101 362.24C82.6001 361.19 82.8401 360.24 83.0901 359.24C83.7601 359.35 86.8201 359.83 88.2501 359.45C89.6801 359.07 91.2501 358.25 91.8601 356.86C92.0055 356.537 92.0815 356.187 92.0832 355.833C92.0849 355.479 92.0122 355.129 91.8699 354.804C91.7275 354.48 91.5187 354.189 91.2569 353.951C90.9951 353.712 90.6862 353.532 90.3501 353.42C88.3501 352.81 85.3501 355.21 84.2201 356.78C84.1601 356.86 83.6601 357.78 83.3001 358.48C83.4201 358.05 83.5401 357.6 83.6601 357.19C84.1301 355.65 84.6601 354.26 85.1101 353.03C85.3901 352.34 85.6501 351.72 85.8901 351.14C86.6101 350.9 89.4701 349.94 90.5501 348.96C91.6301 347.98 92.6901 346.49 92.5501 344.96C92.5308 344.606 92.4372 344.26 92.2754 343.944C92.1136 343.628 91.8872 343.35 91.6109 343.127C91.3346 342.905 91.0146 342.743 90.6716 342.652C90.3286 342.561 89.9704 342.543 89.6201 342.6C87.5201 343 85.9601 346.52 85.7201 348.41C85.7201 348.58 85.7201 351.17 85.7201 351.16C85.4701 351.72 85.2101 352.31 84.9301 352.97C84.4401 354.19 83.9301 355.57 83.3901 357.11C82.8378 358.766 82.3804 360.452 82.0201 362.16C81.6426 364.085 81.4352 366.039 81.4001 368V368.07C81.2301 367.47 80.6901 365.8 80.6401 365.68C79.8501 363.94 77.3101 361.05 75.1901 361.29C74.8392 361.339 74.5026 361.462 74.2024 361.651C73.9022 361.839 73.6451 362.089 73.4478 362.383C73.2506 362.677 73.1177 363.01 73.0578 363.359C72.9978 363.709 73.0123 364.067 73.1001 364.41C73.4201 365.86 74.9001 367 76.1901 367.58Z" fill="#263238"/>
<path d="M221.22 389.76C220.869 389.81 220.532 389.932 220.232 390.121C219.932 390.309 219.675 390.559 219.478 390.853C219.28 391.147 219.147 391.48 219.088 391.83C219.028 392.179 219.042 392.537 219.13 392.88C219.38 393.606 219.786 394.267 220.32 394.819C220.854 395.37 221.503 395.797 222.22 396.07C223.204 396.424 224.235 396.626 225.28 396.67L226.17 395.61L226.67 394.16C225.88 392.41 223.34 389.52 221.22 389.76Z" fill="#263238"/>
<path d="M210.25 404.87C209.953 405.063 209.7 405.316 209.507 405.613C209.315 405.91 209.186 406.244 209.131 406.594C209.075 406.944 209.093 407.301 209.185 407.643C209.276 407.985 209.438 408.304 209.66 408.58C210.56 409.79 212.38 410.18 213.8 410.18C214.73 410.112 215.644 409.903 216.51 409.56L217.09 406.64L217.03 406.58C215.59 405.33 212.07 403.77 210.25 404.87Z" fill="#263238"/>
<path d="M220.2 398.47C218.57 399.47 218.25 402.69 218.54 404.67L223.33 398.98C222.952 398.54 222.431 398.247 221.858 398.153C221.285 398.06 220.698 398.172 220.2 398.47Z" fill="#263238"/>
<path d="M205.43 391.32C205.74 391.64 206.04 391.97 206.35 392.32C207.84 393.88 209.35 395.43 210.75 397C211.25 397.55 211.75 398.11 212.2 398.67L211.45 398.09C209.84 397.09 206.12 396.09 204.45 397.43C204.187 397.667 203.976 397.957 203.832 398.281C203.688 398.605 203.613 398.956 203.613 399.31C203.613 399.665 203.688 400.015 203.832 400.339C203.976 400.663 204.187 400.953 204.45 401.19C205.53 402.24 207.39 402.36 208.79 402.19C210.388 401.713 211.903 400.991 213.28 400.05C213.75 400.64 214.22 401.22 214.65 401.82C214.93 402.23 215.23 402.6 215.49 403.03L216.28 404.27C216.64 404.89 217.01 405.51 217.36 406.12L218.13 405.21C217.83 404.71 217.52 404.21 217.19 403.68L216.37 402.45C216.11 402.04 215.78 401.63 215.48 401.22C214.76 400.22 213.99 399.34 213.19 398.43C214.672 397.609 216.021 396.567 217.19 395.34C217.677 394.746 218.029 394.052 218.221 393.308C218.412 392.563 218.439 391.786 218.3 391.03C218.211 390.691 218.053 390.374 217.834 390.099C217.616 389.825 217.343 389.599 217.032 389.436C216.722 389.273 216.381 389.177 216.031 389.154C215.681 389.13 215.33 389.18 215 389.3C213 390.14 212.26 393.91 212.44 395.8C212.44 395.92 212.73 397.27 212.9 398.01C212.41 397.46 211.9 396.91 211.43 396.38C209.96 394.83 208.43 393.3 206.91 391.77L205.53 390.37C205.78 390.22 208.78 388.49 209.71 387.18C210.198 386.588 210.549 385.896 210.741 385.153C210.933 384.41 210.96 383.634 210.82 382.88C210.726 382.539 210.56 382.221 210.335 381.948C210.11 381.675 209.83 381.452 209.514 381.293C209.197 381.135 208.851 381.045 208.497 381.029C208.143 381.013 207.79 381.071 207.46 381.2C205.46 382.04 204.72 385.81 204.9 387.71C204.9 387.85 205.31 389.79 205.44 390.28C204.44 389.28 203.44 388.2 202.44 387.14C201.155 385.707 199.966 384.19 198.88 382.6C199 382.53 202.14 380.73 203.09 379.4C203.577 378.807 203.929 378.115 204.12 377.373C204.312 376.63 204.339 375.854 204.2 375.1C204.106 374.759 203.94 374.441 203.715 374.168C203.49 373.895 203.21 373.672 202.894 373.513C202.577 373.355 202.231 373.265 201.877 373.249C201.523 373.233 201.17 373.291 200.84 373.42C198.84 374.26 198.1 378.03 198.28 379.93C198.28 380.08 198.73 382.16 198.83 382.53L198.63 382.26C197.586 380.635 196.686 378.922 195.94 377.14C195.52 376.14 195.17 375.2 194.85 374.26C196.454 373.604 197.948 372.707 199.28 371.6C200.23 370.53 201.14 368.92 200.85 367.44C200.789 367.094 200.656 366.764 200.46 366.471C200.264 366.179 200.009 365.931 199.712 365.742C199.414 365.554 199.081 365.43 198.733 365.378C198.385 365.326 198.03 365.347 197.69 365.44C195.69 366.06 194.47 369.73 194.43 371.63C194.43 371.73 194.53 372.79 194.61 373.56C194.48 373.13 194.33 372.69 194.2 372.28C193.73 370.74 193.4 369.28 193.12 368.01C192.96 367.28 192.83 366.62 192.72 366.01C193.835 364.694 194.739 363.213 195.4 361.62C195.643 360.893 195.723 360.12 195.635 359.358C195.547 358.596 195.293 357.863 194.89 357.21C194.679 356.925 194.411 356.688 194.102 356.513C193.793 356.339 193.451 356.232 193.098 356.199C192.745 356.166 192.389 356.208 192.054 356.322C191.718 356.436 191.41 356.619 191.15 356.86C189.62 358.35 190.25 362.15 191.15 363.86C191.23 364.01 192.64 366.18 192.66 366.15C192.76 366.75 192.87 367.39 193 368.09C193.26 369.38 193.56 370.83 194 372.39C194.446 374.088 194.993 375.758 195.64 377.39C196.356 379.213 197.229 380.969 198.25 382.64C198.254 382.657 198.254 382.674 198.25 382.69C197.78 382.29 196.41 381.19 196.3 381.12C194.69 380.12 190.97 379.12 189.3 380.47C189.037 380.706 188.827 380.996 188.682 381.319C188.538 381.642 188.464 381.991 188.464 382.345C188.464 382.699 188.538 383.049 188.682 383.372C188.827 383.695 189.037 383.984 189.3 384.22C190.38 385.28 192.23 385.39 193.64 385.22C195.23 384.98 198.14 383.07 198.37 382.92C199.461 384.588 200.656 386.185 201.95 387.7C202.7 388.58 203.48 389.45 204.28 390.31L203.42 389.63C201.81 388.63 198.09 387.63 196.42 388.98C196.155 389.217 195.943 389.506 195.798 389.83C195.653 390.154 195.578 390.505 195.578 390.86C195.578 391.215 195.653 391.566 195.798 391.89C195.943 392.214 196.155 392.504 196.42 392.74C197.49 393.79 199.35 393.91 200.75 393.69C202.424 393.148 204.003 392.348 205.43 391.32Z" fill="#263238"/>
<path d="M220.88 362.73C222.16 363.81 225.77 364.79 225.77 364.79C225.77 364.79 225.7 362.21 225.67 362.05C225.37 360.17 223.67 356.71 221.58 356.38C221.228 356.335 220.871 356.365 220.531 356.467C220.192 356.57 219.878 356.743 219.61 356.975C219.342 357.207 219.126 357.493 218.976 357.815C218.826 358.136 218.745 358.485 218.74 358.84C218.66 360.34 219.79 361.81 220.88 362.73Z" fill="#263238"/>
<path d="M194.51 374.08C194.51 374.08 193.02 371.96 192.91 371.84C191.63 370.44 188.31 368.48 186.37 369.37C186.052 369.528 185.772 369.75 185.546 370.024C185.32 370.297 185.155 370.615 185.061 370.957C184.966 371.298 184.945 371.656 184.998 372.006C185.052 372.357 185.178 372.692 185.37 372.99C186.13 374.29 187.88 374.89 189.3 375.06C191 375.25 194.51 374.08 194.51 374.08Z" fill="#263238"/>
<path d="M219 373.5C220.46 374.17 223.94 374.2 224.22 374.2C224.201 376.189 224.314 378.176 224.56 380.15C224.7 381.3 224.88 382.46 225.07 383.62C224.9 383.1 224.75 382.62 224.72 382.62C223.94 380.88 221.4 377.99 219.28 378.23C218.929 378.28 218.592 378.402 218.292 378.591C217.991 378.779 217.733 379.028 217.535 379.322C217.337 379.617 217.203 379.949 217.142 380.298C217.081 380.648 217.094 381.006 217.18 381.35C217.5 382.82 218.98 383.94 220.28 384.54C221.921 385.033 223.627 385.269 225.34 385.24C225.42 385.68 225.49 386.12 225.57 386.56C225.95 388.69 226.34 390.81 226.66 392.89C226.66 393.2 226.73 393.51 226.77 393.82L227.4 392.02C227.06 390.16 226.68 388.29 226.31 386.42C226.18 385.78 226.05 385.13 225.93 384.49C227.294 384.572 228.662 384.542 230.02 384.4L231.78 379.31L233.17 378.1C232.987 378.01 232.791 377.946 232.59 377.91C230.49 377.53 227.77 380.24 226.87 381.91C226.8 382.04 226.07 383.91 225.87 384.36C225.6 382.93 225.34 381.51 225.14 380.1C224.857 378.196 224.7 376.275 224.67 374.35C224.81 374.35 228.42 374.59 229.95 374.01C230.685 373.78 231.362 373.393 231.932 372.875C232.502 372.357 232.952 371.72 233.25 371.01C233.36 370.673 233.398 370.317 233.361 369.965C233.324 369.612 233.214 369.272 233.036 368.965C232.859 368.658 232.619 368.392 232.332 368.185C232.045 367.977 231.717 367.832 231.37 367.76C229.27 367.37 226.54 370.09 225.64 371.76C225.57 371.89 224.79 373.87 224.64 374.24C224.64 374.13 224.64 374.02 224.64 373.9C224.67 371.97 224.864 370.047 225.22 368.15C225.41 367.15 225.65 366.15 225.9 365.15C226.57 365.26 229.63 365.74 231.06 365.36C232.49 364.98 234.06 364.16 234.67 362.77C234.815 362.447 234.891 362.097 234.893 361.743C234.895 361.389 234.822 361.039 234.68 360.714C234.538 360.39 234.329 360.099 234.067 359.861C233.805 359.622 233.496 359.441 233.16 359.33C231.16 358.72 228.16 361.12 227.03 362.69C226.97 362.77 226.47 363.69 226.11 364.39C226.23 363.96 226.35 363.51 226.47 363.1C226.94 361.56 227.47 360.17 227.92 358.94C228.2 358.25 228.46 357.63 228.7 357.05C229.42 356.81 232.28 355.85 233.36 354.87C234.44 353.89 235.5 352.4 235.36 350.87C235.341 350.516 235.247 350.169 235.085 349.854C234.924 349.538 234.697 349.26 234.421 349.037C234.145 348.815 233.825 348.653 233.482 348.562C233.139 348.471 232.78 348.453 232.43 348.51C230.33 348.91 228.77 352.43 228.54 354.32C228.54 354.49 228.49 357.08 228.54 357.07C228.29 357.63 228.03 358.22 227.76 358.88C227.26 360.1 226.71 361.48 226.21 363.02C225.658 364.676 225.2 366.362 224.84 368.07C224.434 369.985 224.196 371.933 224.13 373.89V374C223.96 373.4 223.42 371.73 223.37 371.61C222.58 369.87 220.04 366.98 217.92 367.22C217.569 367.269 217.233 367.392 216.932 367.581C216.632 367.769 216.375 368.018 216.178 368.313C215.981 368.607 215.848 368.94 215.788 369.289C215.728 369.639 215.742 369.997 215.83 370.34C216.26 371.78 217.74 372.9 219 373.5Z" fill="#263238"/>
<path d="M370.64 286.16L366.65 281.21L370.24 278.38L372.65 281.39L371.83 283.3L372.51 284.82L371.1 285.83" fill="white"/>
<path d="M370.64 286.16L366.65 281.21L370.24 278.38L372.65 281.39L371.83 283.3L372.51 284.82L371.1 285.83" stroke="#263238" stroke-linecap="round" stroke-linejoin="round"/>
<path d="M403 294.75C403 294.75 400.27 292.31 399.25 292.47C398.23 292.63 384.85 294.87 384.85 294.87L372.54 284.82L370.66 286.16L382.44 300.94L395.24 300.14L392.49 314.14L380.84 323L399.84 334.35L403.67 322.27L418.8 307.37L412.92 300L403 294.75Z" fill="black" stroke="#263238" stroke-linecap="round" stroke-linejoin="round"/>
<path d="M406.9 291.52L404.75 296.04L403.96 295.32L402.45 306.31L412.93 299.96L411.88 298.3L412.12 294.87L406.9 291.52Z" fill="white" stroke="#263238" stroke-linecap="round" stroke-linejoin="round"/>
<path d="M402.45 306.31L408.58 302.59L403.46 298.99L402.45 306.31Z" fill="white" stroke="#263238" stroke-linecap="round" stroke-linejoin="round"/>
<path d="M419 280.75C419 280.75 423.63 275.33 428.34 278.75C433.05 282.17 431.75 285.51 435.11 283.68C438.47 281.85 444.78 277.2 448.58 283.12C452.38 289.04 449.45 295.24 447.06 296.66C444.67 298.08 445.3 295.37 445.35 294.06C445.4 292.75 441.48 291.06 440.61 293.76C439.74 296.46 435.17 300.62 429.37 300.23C423.57 299.84 422.45 292.71 422.58 288.52C422.572 287.262 422.236 286.029 421.607 284.94C420.978 283.851 420.076 282.945 418.99 282.31L419 280.75Z" fill="#263238" stroke="#263238" stroke-linecap="round" stroke-linejoin="round"/>
<path d="M407.9 279.63C407.9 279.63 405 286.09 405.6 289.9C406.2 293.71 405.88 296.64 407.82 297.38C409.76 298.12 416.19 294.23 417.61 291.66C419.03 289.09 421.06 285.38 420.5 281.82C419.94 278.26 413.12 273.08 407.9 279.63Z" fill="white" stroke="#263238" stroke-linecap="round" stroke-linejoin="round"/>
<path d="M409 286.41C408.85 286.91 408.53 287.25 408.28 287.17C408.03 287.09 407.95 286.63 408.1 286.17C408.25 285.71 408.57 285.33 408.82 285.41C409.07 285.49 409.11 285.91 409 286.41Z" fill="#263238"/>
<path d="M413.62 288.33C413.47 288.83 413.14 289.18 412.89 289.1C412.64 289.02 412.56 288.56 412.71 288.1C412.86 287.64 413.19 287.26 413.44 287.33C413.69 287.4 413.77 287.83 413.62 288.33Z" fill="#263238"/>
<path d="M410.17 287.24C410.17 287.24 410.47 287.46 410.05 288.24C409.63 289.02 408.62 288.74 408.73 289.41C408.84 290.08 410.11 290.41 410.11 290.41" stroke="#263238" stroke-linecap="round" stroke-linejoin="round"/>
<path d="M407.84 291.57C407.84 291.57 409.45 293.09 410.89 292.72" stroke="#263238" stroke-linecap="round" stroke-linejoin="round"/>
<path d="M415.14 286.73L412.15 285.97" stroke="#263238" stroke-linecap="round" stroke-linejoin="round"/>
<path d="M409.79 284.84L408.36 283.56" stroke="#263238" stroke-linecap="round" stroke-linejoin="round"/>
<path d="M407.9 279.63C407.9 279.63 407.47 280.63 406.97 282C408.66 281.12 411.57 280.13 414.23 281.77C416.89 283.41 418.23 287.18 418.77 289.49C419.9 287.2 420.91 284.49 420.5 281.82C419.94 278.26 413.12 273.08 407.9 279.63Z" fill="#263238" stroke="#263238" stroke-linecap="round" stroke-linejoin="round"/>
<path d="M418.08 289.39C418.08 289.39 420.16 287.48 420.08 289.22C420 290.96 417.61 291.99 417.08 292.07C416.55 292.15 416.59 291.48 416.59 291.48" fill="white"/>
<path d="M418.08 289.39C418.08 289.39 420.16 287.48 420.08 289.22C420 290.96 417.61 291.99 417.08 292.07C416.55 292.15 416.59 291.48 416.59 291.48" stroke="#263238" stroke-linecap="round" stroke-linejoin="round"/>
<path d="M418.79 307.38L415.59 330.19C415.52 330.676 415.281 331.121 414.915 331.448C414.55 331.776 414.08 331.964 413.59 331.98H412.9C412.368 332 411.848 331.815 411.448 331.464C411.048 331.112 410.798 330.62 410.75 330.09L409.5 316.37L418.79 307.38Z" fill="black" stroke="#263238" stroke-linecap="round" stroke-linejoin="round"/>
<path d="M413 327.06L402.73 318L400.43 319.93L410.29 331.34C410.506 331.573 410.772 331.754 411.069 331.869C411.365 331.983 411.684 332.028 412 332H412.81C413.121 331.987 413.424 331.905 413.699 331.76C413.974 331.615 414.213 331.411 414.399 331.162C414.585 330.913 414.713 330.625 414.773 330.32C414.834 330.016 414.826 329.701 414.75 329.4" fill="black"/>
<path d="M413 327.06L402.73 318L400.43 319.93L410.29 331.34C410.506 331.573 410.772 331.754 411.069 331.869C411.365 331.983 411.684 332.028 412 332H412.81C413.121 331.987 413.424 331.905 413.699 331.76C413.974 331.615 414.213 331.411 414.399 331.162C414.585 330.913 414.713 330.625 414.773 330.32C414.834 330.016 414.826 329.701 414.75 329.4V329.4" stroke="#263238" stroke-linecap="round" stroke-linejoin="round"/>
<path d="M402.73 317.99L400.32 314.14L394.9 313.54L394.93 316.77L397.53 318.94L399.18 319.17L400.43 319.92L402.73 317.99Z" fill="white" stroke="#263238" stroke-linecap="round" stroke-linejoin="round"/>
<path d="M373.71 330C373.71 330 362.39 344.73 363.01 347.17C363.63 349.61 380.17 375.44 380.17 375.44L382.47 373.92L373.38 345.54L391.65 338.27L373.71 330Z" fill="white" stroke="#263238" stroke-linecap="round" stroke-linejoin="round"/>
<path d="M382.83 335.46L384.17 341.35L390.22 339.03L382.83 335.46Z" fill="#263238" stroke="#263238" stroke-miterlimit="10"/>
<path d="M380.17 375.39L377.17 380.39C377.17 380.39 374.78 383.97 375.48 384.19C377.01 384.68 380.97 382.08 382.1 381.28C383.23 380.48 384.44 379.95 385.19 379.42C385.94 378.89 387.44 378.58 385.39 376.68C384.7 376.05 382.51 373.87 382.51 373.87L380.17 375.39Z" fill="white" stroke="#263238" stroke-linecap="round" stroke-linejoin="round"/>
<path d="M398.86 325.3C393.764 323.268 388.552 321.541 383.25 320.13C374.08 317.64 367.3 315.71 367.43 318C367.56 320.29 384.24 357.18 384.24 357.18L387.1 356.27L382.74 335.93C382.74 335.93 389.74 340.83 394.91 338.4C400.08 335.97 402.05 329.4 401.69 327.16" fill="#263238"/>
<path d="M398.86 325.3C393.764 323.268 388.552 321.541 383.25 320.13C374.08 317.64 367.3 315.71 367.43 318C367.56 320.29 384.24 357.18 384.24 357.18L387.1 356.27L382.74 335.93C382.74 335.93 389.74 340.83 394.91 338.4C400.08 335.97 402.05 329.4 401.69 327.16" stroke="#263238" stroke-linecap="round" stroke-linejoin="round"/>
<path d="M381.3 319.6C373.14 317.39 367.3 315.87 367.43 318C367.56 320.29 384.24 357.18 384.24 357.18L387.1 356.27L382.74 335.93C384.23 332.3 382.65 324.67 381.3 319.6Z" fill="white" stroke="#263238" stroke-linecap="round" stroke-linejoin="round"/>
<path d="M382.74 335.93L375.55 325.5" stroke="#263238" stroke-linecap="round" stroke-linejoin="round"/>
<path d="M384.24 357.18L381.56 362.23C381.56 362.23 376.15 367.47 377.35 367.74C378.55 368.01 388.72 363.64 389.48 362.6C390.24 361.56 387.1 356.27 387.1 356.27L384.24 357.18Z" fill="white" stroke="#263238" stroke-linecap="round" stroke-linejoin="round"/>
<path d="M371.8 283.72L397.02 313.75" stroke="#263238" stroke-miterlimit="10"/>
<path d="M294.2 190.72L368.21 279.28" stroke="#263238" stroke-miterlimit="10"/>
<path d="M399.18 319.16V465.16" stroke="#263238" stroke-miterlimit="10"/>
<path d="M158.33 278.59C158.33 278.59 163.65 309.72 157.87 319.59C152.09 329.46 137.59 322.36 137.59 322.36V464.16" stroke="#263238" stroke-miterlimit="10"/>
<path d="M126.39 290.24C126.39 290.24 131.1 289.7 131.46 290.79C131.658 291.683 131.658 292.607 131.46 293.5C131.46 293.5 134.17 296.4 134.17 298.39C134.17 300.38 131.28 301.29 131.28 301.29L130.74 305.99L123.5 306.35L122.59 300.74C122.59 300.74 119.87 290.06 126.39 290.24Z" fill="white" stroke="#263238" stroke-linecap="round" stroke-linejoin="round"/>
<path d="M127.84 298L125.84 295.1C126.511 294.009 126.884 292.761 126.92 291.48C126.92 289.48 126.74 285.87 122.58 285.87C118.42 285.87 115.7 289.13 114.8 296.19C113.9 303.25 118.05 306.69 124.03 305.42C130.01 304.15 127.84 298 127.84 298Z" fill="#263238" stroke="#263238" stroke-linecap="round" stroke-linejoin="round"/>
<path d="M127.66 296.76C127.66 296.76 124.58 296.4 124.76 298.76C124.808 299.267 125.008 299.748 125.334 300.139C125.661 300.53 126.098 300.813 126.589 300.951C127.079 301.089 127.6 301.074 128.082 300.91C128.565 300.745 128.986 300.439 129.29 300.03" fill="white"/>
<path d="M127.66 296.76C127.66 296.76 124.58 296.4 124.76 298.76C124.808 299.267 125.008 299.748 125.334 300.139C125.661 300.53 126.098 300.813 126.589 300.951C127.079 301.089 127.6 301.074 128.082 300.91C128.565 300.745 128.986 300.439 129.29 300.03" stroke="#263238" stroke-linecap="round" stroke-linejoin="round"/>
<path d="M123.37 308.12L116.7 310C116.7 310 116.18 311.3 115.4 313C114.35 315.31 111.46 320 111.46 320L98.1101 323.81L93.8201 337.64L92.8701 343.36L100.49 339.54L100.97 326.2L112.97 324.35L118.12 311.35L123.37 308.12Z" fill="#263238" stroke="#263238" stroke-linecap="round" stroke-linejoin="round"/>
<path d="M134 306.17C134 306.17 128.75 303.82 124.77 304.36C120.79 304.9 121.15 306.9 121.15 306.9L121.33 309.61C121.33 309.61 128 307.62 134 306.17Z" fill="black" stroke="#263238" stroke-linecap="round" stroke-linejoin="round"/>
<path d="M116.07 319.39L119.82 336.73C119.849 336.938 119.927 337.136 120.047 337.308C120.168 337.48 120.327 337.621 120.513 337.719C120.699 337.816 120.905 337.868 121.115 337.87C121.325 337.872 121.533 337.824 121.72 337.73L130.19 333.5L116.07 319.39Z" fill="black" stroke="#263238" stroke-linecap="round" stroke-linejoin="round"/>
<path d="M125.49 328.62L123.5 332.6" stroke="#263238" stroke-linecap="round" stroke-linejoin="round"/>
<path d="M143.04 346.18L153.97 364.26L152.52 388.71L157.77 388.53L163.02 359.37L155.35 338.94L143.04 346.18Z" fill="#263238" stroke="#263238" stroke-linecap="round" stroke-linejoin="round"/>
<path d="M121.32 309.61C121.32 309.61 116.07 318.66 116.07 319.39C116.07 320.12 136.53 339.84 136.53 339.84L152.1 329.52L142.32 312.52L156.4 298.7L157.48 280.05L154.95 279.87L150.42 293.45L135.42 305.27L121.32 309.61Z" fill="black" stroke="#263238" stroke-linecap="round" stroke-linejoin="round"/>
<path d="M154.95 279.87L155.13 275.71L159.65 272.27L160.02 273.17V275.89L160.2 278.06L157.48 280.05L154.95 279.87Z" fill="white" stroke="#263238" stroke-linecap="round" stroke-linejoin="round"/>
<path d="M136.53 339.84C136.53 339.84 139.97 345.63 142.53 347.44C145.09 349.25 153 343.64 155 342C157 340.36 164.6 330.6 164.6 330.6L171.66 360.68L176.01 358.87C176.01 358.87 173.46 318.87 172.2 317.75C170.94 316.63 151.38 329.33 151.38 329.33L136.53 339.84Z" fill="#263238" stroke="#263238" stroke-linecap="round" stroke-linejoin="round"/>
<path d="M176 358.88H182.15C183.24 358.88 185.95 357.25 186.15 358.52C186.35 359.79 180.9 363.22 178.72 364.31C176.627 365.123 174.44 365.67 172.21 365.94L171.66 360.69L176 358.88Z" fill="white" stroke="#263238" stroke-linecap="round" stroke-linejoin="round"/>
<path d="M157.77 388.53L160.85 394.14C160.85 394.14 164.65 395.77 164.65 396.5C164.65 397.23 158.5 396.86 157.95 396.86C157.4 396.86 151.26 390.86 151.26 390.86L152.52 388.68L157.77 388.53Z" fill="white" stroke="#263238" stroke-linecap="round" stroke-linejoin="round"/>
<path d="M159.65 272.27L218.74 191.25" stroke="#263238" stroke-miterlimit="10"/>
<path d="M12 465.2H486" stroke="#263238" stroke-linecap="round" stroke-linejoin="round"/>
</svg>
