<svg width="477" height="429" viewBox="0 0 477 429" fill="none" xmlns="http://www.w3.org/2000/svg">
<path d="M213.913 206.471C204.078 207.126 194.516 202.92 190.965 200.735H189.325L187.686 209.748V219.58L191.784 230.231C191.784 230.231 195.062 234.328 195.882 234.328C196.701 234.328 184.407 259.727 184.407 259.727V305.609L181.949 327.731L185.227 336.744C182.222 335.924 180.802 335.76 199.16 341.66C217.519 347.559 225.934 329.37 227.846 319.538C228.666 308.613 230.305 287.42 230.305 290.042C230.305 292.664 241.779 297.689 247.516 299.874C261.176 304.244 289.807 312.983 295.052 312.983C300.298 312.983 306.526 310.798 308.985 309.706C317.181 302.332 312.264 281.849 311.444 279.391C310.788 277.424 306.8 274.202 304.887 272.836C302.242 271.32 300.269 270.43 295.052 268.739L272.923 263.004L271.284 267.101C271.2 266.349 270.688 265.807 268.825 264.643L265.547 258.908L262.269 263.004L258.99 264.643V262.185L260.63 257.269L258.99 254.811C258.444 254.538 257.187 253.828 256.532 253.172C255.876 252.517 255.166 251.26 254.892 250.714L254.073 243.34C256.063 239.556 260.204 230.1 263.088 223.676C265.992 217.208 266.367 204.286 265.547 198.277L258.99 189.265C231.944 208.109 226.207 205.651 213.913 206.471Z" fill="#263238"/>
<path d="M194.587 235.836C194.437 235.834 194.289 235.798 194.155 235.73C194.021 235.662 193.905 235.563 193.816 235.442C191.243 231.837 186.538 221.317 186.047 216.467C185.555 211.616 188.325 200.08 188.44 199.556C188.502 199.316 188.656 199.111 188.867 198.982C189.079 198.854 189.332 198.813 189.573 198.869C189.814 198.924 190.024 199.072 190.159 199.279C190.293 199.487 190.341 199.739 190.292 199.982C190.292 200.113 187.489 211.747 187.932 216.368C188.374 220.989 192.964 231.116 195.357 234.393C195.43 234.495 195.483 234.609 195.512 234.731C195.541 234.852 195.546 234.978 195.526 235.101C195.506 235.225 195.462 235.343 195.397 235.449C195.331 235.555 195.245 235.648 195.144 235.721C194.974 235.813 194.78 235.853 194.587 235.836Z" fill="#263238"/>
<path d="M208.077 342.954L201.832 342.512C208.602 340.693 212.798 329.796 215.421 322.307C215.913 320.898 216.388 319.554 216.863 318.325C219.191 312.246 219.404 293.319 219.273 286.043C218.306 282.619 215.699 274.278 213.864 271.574C213.481 271.027 213.214 270.408 213.079 269.754C212.944 269.101 212.943 268.426 213.077 267.772C213.65 265.02 216.47 263.233 218.945 261.677C219.782 261.182 220.587 260.634 221.355 260.038C221.912 256.531 225.993 255.433 229.026 254.63C229.977 254.368 230.878 254.122 231.583 253.86C234.517 251.173 247.368 226.626 250.188 213.435C252.581 202.308 248.549 198.375 248.549 198.343L252.253 194.017C252.942 194.59 258.925 200.08 255.81 214.631C253.384 225.938 239.336 256.908 233.993 259.055C232.867 259.476 231.717 259.831 230.55 260.12C229.326 260.391 228.133 260.792 226.993 261.316C226.633 263.61 224.403 265.02 222.076 266.511C220.925 267.147 219.838 267.894 218.83 268.739C221.519 273.098 224.518 283.618 224.862 284.847L224.961 285.552C224.961 288.239 225.387 312 222.174 320.357C221.732 321.537 221.273 322.815 220.797 324.159C217.863 332.647 217.765 340.365 208.077 342.954Z" fill="white"/>
<path d="M313.722 286.125C309.247 283.93 297.592 281.636 290.609 280.161C287.626 279.538 285.053 278.981 283.118 278.522C279.908 277.76 276.532 278.166 273.595 279.669C272.723 280.051 271.824 280.368 270.907 280.62C267.366 281.504 264.956 278.031 263.219 275.491C263.022 275.212 262.809 274.884 262.58 274.589C260.367 275.884 257.318 277.654 254.384 276.818C253.703 276.613 253.073 276.27 252.531 275.811C251.99 275.351 251.549 274.785 251.236 274.147C250.489 272.536 249.939 270.842 249.597 269.1C249.056 266.822 248.679 265.38 247.548 264.479C243.68 261.398 243.696 259.94 243.614 259.563L246.516 254.827C247.828 256.763 249.369 258.535 251.105 260.104C253.336 262.127 254.766 264.883 255.138 267.871C255.385 269.077 255.747 270.257 256.22 271.394C257.429 270.988 258.584 270.438 259.662 269.755C260.465 269.225 261.336 268.807 262.252 268.51C264.825 267.871 266.399 270.149 267.907 272.328C268.525 273.285 269.227 274.184 270.005 275.015C270.415 274.884 270.907 274.688 271.447 274.458C275.522 272.477 280.163 271.99 284.561 273.082C286.38 273.541 288.905 274.065 291.822 274.72C298.772 276.043 305.547 278.154 312.017 281.013L313.722 286.125Z" fill="white"/>
<path d="M346.014 316.965C345.829 316.965 345.647 316.914 345.489 316.818C334.9 309.919 311.066 307.969 310.804 307.953C310.671 307.956 310.538 307.932 310.415 307.881C310.292 307.83 310.181 307.754 310.089 307.658C309.997 307.561 309.926 307.446 309.882 307.321C309.837 307.195 309.82 307.061 309.83 306.929C309.84 306.796 309.879 306.666 309.942 306.549C310.006 306.432 310.093 306.33 310.199 306.249C310.305 306.167 310.427 306.109 310.556 306.078C310.686 306.047 310.821 306.044 310.952 306.068C311.952 306.068 335.539 308.067 346.522 315.228C346.628 315.295 346.719 315.382 346.791 315.484C346.862 315.587 346.912 315.703 346.938 315.825C346.964 315.947 346.966 316.073 346.942 316.196C346.918 316.319 346.87 316.435 346.8 316.539C346.714 316.669 346.598 316.776 346.46 316.851C346.323 316.925 346.17 316.964 346.014 316.965Z" fill="#263238"/>
<path d="M337.49 298.317C336.75 298.301 336.015 298.179 335.31 297.957C331.916 296.99 314 287.371 313.279 286.961C313.058 286.843 312.893 286.642 312.819 286.403C312.746 286.164 312.77 285.905 312.886 285.683C313.007 285.461 313.211 285.296 313.453 285.222C313.695 285.149 313.956 285.173 314.181 285.29C320.557 288.731 333.277 295.4 335.818 296.138C336.498 296.415 337.244 296.489 337.965 296.351C338.024 296.131 338.16 295.939 338.348 295.811C338.537 295.682 338.765 295.626 338.991 295.652C339.218 295.678 339.427 295.784 339.582 295.951C339.737 296.119 339.826 296.336 339.834 296.564C339.825 296.815 339.758 297.062 339.639 297.283C339.519 297.505 339.35 297.696 339.145 297.842C338.66 298.178 338.079 298.345 337.49 298.317Z" fill="#263238"/>
<path d="M347.505 285.65C347.505 285.65 338.49 294.434 338.49 295.384C338.49 296.334 344.899 302.021 345.374 303.921C345.85 305.822 350.128 303.446 351.308 303.921C352.488 304.397 352.259 307.723 348.931 308.428C345.604 309.132 345.85 317.686 347.03 318.866C348.21 320.046 358.504 325.273 364.126 331.205C369.749 337.137 372.912 343.069 375.273 344.019C377.633 344.97 380.026 345.658 380.731 340.939C381.436 336.219 382.157 325.994 375.994 318.636C369.831 311.279 367.208 310.558 365.307 310.558C363.405 310.558 360.389 310.804 361.52 308.198C362.651 305.593 365.307 303.282 364.356 301.07C363.405 298.858 355.98 284.946 347.505 285.65Z" fill="#263238"/>
<path d="M380.42 347.493C379.728 347.528 379.039 347.372 378.429 347.043C377.819 346.714 377.312 346.223 376.961 345.625C376.906 345.514 376.872 345.394 376.863 345.27C376.855 345.147 376.87 345.022 376.91 344.905C376.95 344.788 377.012 344.679 377.094 344.586C377.176 344.493 377.276 344.417 377.388 344.363C377.61 344.254 377.866 344.235 378.102 344.312C378.338 344.388 378.534 344.554 378.65 344.773C378.732 344.904 379.371 345.969 381.371 345.478C384.108 344.789 386.288 344.003 386.846 340.758C387.614 333.677 386.165 326.531 382.699 320.308C380.593 317.132 378.067 314.255 375.191 311.754C372.618 309.345 370.601 307.444 370.454 305.412C370.454 304.675 370.454 303.938 370.372 303.168C370.511 300.227 369.949 297.295 368.733 294.614C366.586 290.337 361.488 284.782 356.652 282.733C352.21 280.915 350.194 281.718 348.456 286.011C348.358 286.243 348.172 286.427 347.939 286.523C347.705 286.618 347.443 286.617 347.21 286.519C346.978 286.421 346.794 286.235 346.698 286.001C346.603 285.768 346.605 285.506 346.702 285.273C348.915 279.997 352.03 278.719 357.439 280.964C362.848 283.209 368.225 289.157 370.552 293.762C371.923 296.679 372.575 299.881 372.454 303.102C372.454 303.845 372.487 304.566 372.552 305.265C372.634 306.543 374.519 308.313 376.683 310.345C379.691 312.962 382.327 315.978 384.518 319.308C388.239 325.924 389.777 333.545 388.911 341.086C388.091 345.428 385.059 346.543 382.027 347.297C381.503 347.439 380.962 347.505 380.42 347.493Z" fill="#263238"/>
<path d="M211.454 198.834C206.783 198.834 198.341 198.228 193.932 194.131C192.168 192.504 190.625 190.653 189.342 188.625C188.492 187.224 187.462 185.94 186.277 184.807C185.222 183.898 184.461 182.696 184.091 181.355C183.72 180.013 183.756 178.591 184.195 177.27C184.289 177.038 184.472 176.853 184.702 176.755C184.932 176.657 185.191 176.653 185.424 176.745C185.542 176.789 185.649 176.855 185.741 176.941C185.832 177.027 185.905 177.13 185.955 177.245C186.006 177.36 186.033 177.483 186.034 177.609C186.036 177.734 186.012 177.858 185.965 177.974C185.672 178.942 185.671 179.974 185.962 180.942C186.254 181.91 186.825 182.77 187.604 183.415C188.87 184.657 189.972 186.055 190.883 187.577C192.079 189.48 193.523 191.216 195.177 192.739C199.734 196.966 209.93 197.015 212.848 196.917C213.1 196.917 213.342 197.017 213.52 197.195C213.698 197.374 213.798 197.615 213.798 197.868C213.798 198.12 213.698 198.361 213.52 198.54C213.342 198.718 213.1 198.818 212.848 198.818L211.454 198.834Z" fill="#263238"/>
<path d="M218.437 207.29C210.54 207.377 202.685 206.148 195.193 203.652C185.145 199.719 185.358 195.459 185.768 194.295C185.893 193.867 186.04 193.446 186.21 193.034C186.604 192.05 186.751 191.69 186.21 190.805C184.866 188.773 185.965 184.365 186.096 183.873C186.158 183.631 186.313 183.422 186.528 183.293C186.743 183.165 187 183.126 187.243 183.185C187.487 183.251 187.696 183.409 187.825 183.627C187.953 183.844 187.992 184.103 187.932 184.349C187.489 185.987 187.161 188.806 187.8 189.756C188.221 190.326 188.468 191.004 188.512 191.711C188.555 192.417 188.394 193.121 188.046 193.738C187.891 194.082 187.765 194.438 187.669 194.803C187.227 196.442 189.128 199.211 195.865 201.882C204.061 205.16 224.977 207.88 237.353 201.882C257.433 192.214 258.859 188.642 258.81 187.773C258.76 186.905 258.678 186.135 258.58 185.152C258.082 182.53 258.182 179.83 258.875 177.253C259.99 174.369 261.104 171.502 259.957 167.913C259.196 164.63 258.805 161.271 258.793 157.901C258.678 155.672 258.58 153.558 258.351 151.952C258.071 149.059 257.159 146.262 255.679 143.759C255.582 143.681 255.502 143.585 255.442 143.476C255.383 143.367 255.347 143.247 255.334 143.123C255.322 142.999 255.335 142.875 255.371 142.756C255.408 142.637 255.468 142.527 255.548 142.432C255.71 142.239 255.942 142.117 256.193 142.093C256.444 142.068 256.695 142.143 256.892 142.301C258.269 143.464 259.678 148.02 260.17 151.756C260.432 153.394 260.531 155.607 260.645 157.884C260.649 161.094 261.012 164.293 261.727 167.421C263.071 171.649 261.727 174.976 260.645 177.909C260.046 180.239 259.968 182.673 260.416 185.037C260.514 185.987 260.613 186.905 260.662 187.757C260.76 189.887 258.547 193.853 238.123 203.668C232.648 206.29 225.485 207.29 218.437 207.29Z" fill="#263238"/>
<path d="M303.854 208.929C299.596 208.818 295.361 208.269 291.216 207.29C287.397 206.405 286.643 201.407 286.085 197.753C285.988 196.483 285.684 195.238 285.184 194.066C282.922 192.559 282.561 191.231 282.561 187.757C282.372 185.968 281.586 184.295 280.332 183.005C279.532 181.98 278.83 180.883 278.234 179.728C276.906 177.073 272.3 164.095 273.415 160.359C274.201 157.753 271.021 151.854 265.776 149.822C260.072 147.594 248.679 140.548 248.204 140.253C248.097 140.187 248.004 140.101 247.931 140C247.857 139.899 247.805 139.784 247.776 139.662C247.747 139.54 247.742 139.414 247.762 139.29C247.782 139.167 247.827 139.048 247.893 138.942C248.028 138.729 248.24 138.578 248.485 138.52C248.73 138.462 248.988 138.502 249.204 138.63C249.319 138.63 260.924 145.89 266.464 148.053C272.447 150.38 276.299 157.18 275.234 160.9C274.431 163.62 278.266 175.549 279.922 178.925C280.504 179.972 281.179 180.965 281.938 181.891C283.446 183.508 284.364 185.587 284.545 187.79C284.545 191.067 284.856 191.543 286.331 192.526C287.38 193.23 287.659 195.017 287.97 197.442C288.479 200.719 289.101 204.816 291.642 205.406C300.428 207.421 310.362 207.946 311.411 204.373C312.296 201.374 311.919 196.622 311.575 192.427C311.258 189.823 311.192 187.195 311.378 184.578C311.788 181.678 306.46 161.506 303.182 149.462C301.625 143.595 300.395 138.974 300.002 137.139C298.855 131.732 265.71 107.742 257.219 104.366C249.909 101.4 238.992 97.5001 228.501 97.8115C228.362 97.8239 228.222 97.802 228.093 97.7478C227.965 97.6935 227.852 97.6084 227.764 97.5001C226.197 95.6645 224.451 93.9902 222.551 92.5022L221.977 93.1249C219.715 95.5665 214.421 101.318 206.831 100.335C202.659 99.8888 198.573 98.8401 194.701 97.2215C194.729 98.0929 194.424 98.9421 193.849 99.5976L193.701 99.7123C193.538 99.827 189.653 102.252 178.949 101.351C168.622 100.417 162.951 99.9089 153.05 90.0115C150.28 87.2421 147.067 83.8665 143.641 80.2778C135.74 71.806 126.725 62.3509 123.282 60.6304C119.348 58.664 112.267 57.8774 109.71 57.648C109.431 60.6467 107.973 69.3972 100.564 72.3959C100.564 73.5757 101.088 77.0497 105.629 82.998L108.137 86.2753C115.791 96.4022 133.74 120.114 139.428 122.555C141.264 123.342 144.346 124.44 147.854 125.701C157.443 129.143 169.392 133.419 172.95 136.992C175.966 139.99 178.555 151.445 180.85 161.572C182.194 167.471 183.588 173.583 184.407 174.566C186.09 176.161 188.044 177.443 190.177 178.351C191.605 178.89 192.897 179.735 193.964 180.826C194.1 181.037 194.147 181.293 194.095 181.539C194.043 181.784 193.895 181.999 193.685 182.137C193.475 182.27 193.221 182.318 192.977 182.269C192.732 182.22 192.516 182.079 192.374 181.874C191.443 181.131 190.418 180.514 189.325 180.039C186.954 179.026 184.791 177.582 182.948 175.779C181.883 174.517 180.818 169.945 178.998 161.998C177.031 153.051 174.228 140.924 171.605 138.286C168.327 135.009 156.132 130.634 147.214 127.438C143.657 126.16 140.658 125.062 138.674 124.161C132.527 121.523 115.021 98.4014 106.628 87.2913L104.121 84.014C97.8589 75.8207 98.6293 71.7732 98.744 71.3472C98.7769 71.1917 98.8503 71.0476 98.9568 70.9296C99.0633 70.8116 99.1992 70.7239 99.3505 70.6753C107.546 67.9224 107.874 56.632 107.891 56.5173C107.895 56.3911 107.924 56.2669 107.977 56.1521C108.03 56.0373 108.105 55.9341 108.198 55.8487C108.291 55.7632 108.4 55.6972 108.519 55.6545C108.638 55.6117 108.764 55.5931 108.891 55.5997C109.3 55.5997 118.955 56.2715 124.135 58.877C127.856 60.8106 136.609 69.9707 145.067 78.8358C148.477 82.4081 151.624 85.7837 154.443 88.5367C163.852 97.9425 168.966 98.3686 179.162 99.3354C188.145 100.155 191.915 98.4505 192.554 98.1064C192.749 97.6578 192.834 97.1688 192.8 96.6808C192.8 96.14 192.8 94.8946 193.964 94.8946C194.372 94.9462 194.767 95.074 195.128 95.2715C198.92 96.905 202.938 97.9548 207.044 98.385C213.601 99.2207 218.519 93.9934 220.568 91.8304C220.932 91.3704 221.363 90.9673 221.846 90.6341C222.403 90.372 223.485 89.864 228.862 95.9106C239.549 95.714 250.548 99.6304 257.924 102.629C266.464 106.119 300.428 130.159 301.838 136.844C302.215 138.63 303.477 143.235 305.001 149.069C309.771 166.897 313.673 181.842 313.197 184.939C313.036 187.42 313.108 189.91 313.41 192.378C313.755 196.737 314.148 201.669 313.165 204.996C312.312 208.011 308.296 208.929 303.854 208.929Z" fill="#263238"/>
<path d="M206.684 108.266C203.758 108.281 200.85 107.81 198.078 106.873C188.604 103.596 188.702 100.4 188.817 99.7941C188.856 99.5442 188.993 99.3201 189.197 99.1711C189.402 99.022 189.657 98.9603 189.907 98.9994C190.157 99.0385 190.381 99.1753 190.53 99.3796C190.679 99.584 190.741 99.8392 190.702 100.089C190.702 100.253 191.079 102.449 198.701 105.005C203.865 106.659 209.411 106.696 214.596 105.112C219.781 103.528 224.359 100.397 227.715 96.1399C227.791 96.0419 227.887 95.9602 227.995 95.8996C228.104 95.839 228.224 95.8007 228.347 95.787C228.471 95.7732 228.596 95.7843 228.716 95.8196C228.835 95.8549 228.946 95.9137 229.042 95.9924C229.238 96.1527 229.363 96.3831 229.39 96.6342C229.418 96.8854 229.346 97.1373 229.19 97.3361C226.501 100.731 223.081 103.476 219.185 105.369C215.288 107.261 211.016 108.251 206.684 108.266Z" fill="#263238"/>
<path d="M123.709 33.2155L6.31104 12.6504L114.841 16.4521L123.709 33.2155Z" fill="#E8E8E8"/>
<path d="M104.383 16.0751V10.7495L6.31104 12.6504L104.383 16.0751Z" fill="#D9D9D9"/>
<path d="M110.743 10.6349L90.4827 0L6.31104 12.6504L110.743 10.6349Z" fill="#E8E8E8"/>
<path d="M99.6622 72.5924C99.5248 72.5975 99.3881 72.5706 99.2629 72.5137C99.1377 72.4568 99.0275 72.3715 98.941 72.2647C98.7934 72.1008 84.3851 55.3701 80.0905 51.9945C79.2053 51.3063 78.2874 50.5525 77.3366 49.7823C73.5117 46.3478 69.2382 43.4482 64.633 41.163C58.732 38.6722 51.1918 26.5462 50.8804 26.0218C50.8158 25.9142 50.773 25.7949 50.7546 25.6708C50.7361 25.5467 50.7422 25.4202 50.7727 25.2985C50.8031 25.1767 50.8573 25.0622 50.932 24.9614C51.0067 24.8605 51.1006 24.7754 51.2082 24.7109C51.3158 24.6463 51.4351 24.6036 51.5593 24.5851C51.6834 24.5666 51.81 24.5728 51.9318 24.6032C52.0535 24.6337 52.1681 24.6878 52.269 24.7625C52.3698 24.8372 52.4549 24.931 52.5195 25.0386C52.5195 25.1533 60.0597 37.1483 65.4198 39.426C70.1079 41.4088 74.5992 45.0794 78.5332 48.3075L81.2543 50.5033C85.7128 53.9936 99.777 70.331 100.383 71.0357C100.465 71.1289 100.527 71.2373 100.567 71.3548C100.606 71.4723 100.621 71.5964 100.612 71.7199C100.603 71.8434 100.569 71.9639 100.513 72.0743C100.457 72.1847 100.38 72.2828 100.285 72.363C100.113 72.5145 99.8912 72.5963 99.6622 72.5924Z" fill="#263238"/>
<path d="M70.8946 23.826L8.83545 12.6504L73.1567 31.9865L70.8946 23.826Z" fill="#9E9E9E"/>
<path d="M82.6148 34.8214L105.678 41.7529L107.317 30.3642L79.9102 25.4482C79.9102 25.4482 80.5167 29.0041 80.8609 30.3642C81.3395 31.8895 81.9256 33.3789 82.6148 34.8214Z" fill="#9E9E9E"/>
<path d="M198.341 98.4667H198.078C197.958 98.4327 197.845 98.3752 197.746 98.2974C197.648 98.2196 197.566 98.123 197.505 98.0133C197.444 97.9036 197.405 97.783 197.391 97.6583C197.377 97.5336 197.388 97.4074 197.423 97.2869C197.423 97.2869 199.209 90.978 197.423 86.6356C197.36 86.5178 197.322 86.3882 197.313 86.255C197.303 86.1218 197.322 85.9882 197.368 85.8627C197.414 85.7373 197.485 85.6228 197.578 85.5269C197.671 85.4309 197.783 85.3556 197.907 85.3058C198.031 85.2561 198.164 85.2329 198.297 85.238C198.431 85.243 198.561 85.2761 198.681 85.3351C198.801 85.394 198.907 85.4776 198.992 85.5803C199.078 85.6829 199.141 85.8024 199.177 85.931C201.193 90.8469 199.291 97.5327 199.177 97.8112C199.118 97.9913 199.008 98.1498 198.859 98.2666C198.71 98.3834 198.529 98.453 198.341 98.4667Z" fill="#263238"/>
<path d="M219.519 95.1568C219.368 95.1569 219.22 95.1212 219.086 95.0529C218.952 94.9845 218.836 94.8854 218.748 94.7636C216.158 91.1913 211.831 84.9316 211.995 83.1783C212.024 82.9305 212.147 82.7035 212.34 82.5447C212.532 82.3859 212.779 82.3076 213.027 82.3262C213.277 82.355 213.505 82.478 213.667 82.6699C213.828 82.8618 213.91 83.1081 213.896 83.3585C213.896 84.3581 217.175 89.4871 220.289 93.6493C220.362 93.7504 220.415 93.865 220.444 93.9864C220.473 94.1079 220.477 94.2338 220.458 94.3571C220.438 94.4803 220.394 94.5985 220.328 94.7048C220.263 94.8111 220.177 94.9034 220.076 94.9766C219.913 95.0919 219.718 95.1547 219.519 95.1568Z" fill="#263238"/>
<path d="M325.589 242.767C325.363 242.763 325.138 242.735 324.917 242.685C322.294 242.112 312.033 231.608 310.164 229.051C308.72 227.226 306.875 225.757 304.772 224.758C303.727 226.207 303.072 227.9 302.87 229.674C302.673 232.099 302.296 234.475 300.887 235.442C300.549 235.665 300.165 235.805 299.764 235.854C299.363 235.902 298.956 235.857 298.575 235.721C295.658 234.836 296.1 232.132 296.723 228.396L296.936 227.069C297.586 224.144 298.692 221.341 300.215 218.761C300.477 218.269 300.756 217.728 300.903 217.401C300.149 216.139 297.067 211.059 294.953 207.569C294.824 207.353 294.784 207.095 294.843 206.85C294.901 206.605 295.052 206.393 295.264 206.258C295.371 206.192 295.489 206.148 295.613 206.127C295.737 206.107 295.863 206.112 295.985 206.141C296.107 206.17 296.222 206.223 296.323 206.296C296.424 206.37 296.51 206.462 296.576 206.569C297.576 208.208 302.526 216.286 302.755 216.762C302.985 217.237 302.755 217.892 301.887 219.58C300.469 221.983 299.435 224.593 298.821 227.314L298.592 228.642C297.953 232.542 297.92 233.476 299.116 233.836C299.575 233.984 299.739 233.836 299.821 233.836C300.674 233.263 300.903 230.428 300.985 229.494C301.159 227.038 302.185 224.72 303.886 222.939C304.057 222.822 304.251 222.744 304.455 222.71C304.659 222.676 304.868 222.687 305.067 222.743C307.64 223.866 309.893 225.612 311.623 227.822C314.148 231.1 323.72 240.407 325.31 240.751C325.491 240.751 325.802 240.833 325.884 240.669C325.966 240.506 325.884 239.195 324.474 237.867C322.589 236.229 316.377 228.035 316.918 226.151C316.975 225.946 317.088 225.76 317.244 225.616C317.4 225.471 317.594 225.373 317.803 225.332C318.688 225.151 319.573 225.79 324.638 230.248C327.245 232.558 331.195 236.032 332.179 236.229C332.558 236.304 332.941 236.358 333.326 236.393C333.12 236.028 332.89 235.678 332.638 235.344C331.851 234.246 330.294 232.542 328.785 230.887C326.943 229.029 325.27 227.011 323.786 224.856C323.67 224.635 323.646 224.376 323.72 224.137C323.793 223.897 323.959 223.697 324.179 223.578C324.402 223.46 324.662 223.433 324.903 223.504C325.145 223.574 325.35 223.736 325.474 223.955C326.886 225.964 328.459 227.855 330.179 229.609C331.818 231.378 333.326 233.05 334.178 234.23C335.031 235.409 335.818 236.638 335.146 237.507C334.473 238.375 333.146 238.293 331.867 238.015C330.589 237.736 327.753 235.409 323.442 231.608C322.294 230.592 320.917 229.363 319.803 228.445C321.499 231.31 323.512 233.976 325.802 236.393C327.622 238.031 328.359 240.063 327.638 241.456C327.467 241.855 327.181 242.193 326.815 242.427C326.45 242.66 326.023 242.779 325.589 242.767Z" fill="#263238"/>
<path d="M335.195 234.836C333.852 234.763 332.542 234.394 331.359 233.754C331.174 233.615 331.045 233.414 330.998 233.187C330.951 232.96 330.988 232.724 331.103 232.523C331.218 232.321 331.402 232.169 331.621 232.094C331.841 232.019 332.08 232.027 332.294 232.115C333.288 232.689 334.425 232.967 335.572 232.918L335.654 232.82C335.654 232.82 335.654 232.263 333.834 230.608C330.887 227.516 328.149 224.232 325.639 220.776C325.504 220.587 325.431 220.361 325.431 220.129C325.431 219.897 325.504 219.67 325.639 219.481C326.77 218.105 336.441 222.628 336.539 222.759C336.604 222.772 336.671 222.772 336.736 222.759C336.736 222.759 336.736 221.989 335.523 220.973C334.015 219.744 325.573 216.647 312.919 212.681L312.689 212.599C310.001 211.763 308.87 207.945 308.755 207.519C308.718 207.289 308.768 207.053 308.893 206.856C309.019 206.66 309.213 206.517 309.438 206.454C309.663 206.391 309.903 206.413 310.113 206.516C310.322 206.619 310.487 206.795 310.575 207.011C310.837 207.896 311.804 210.289 313.246 210.797H313.476C322.852 213.746 334.506 217.63 336.719 219.432C338.932 221.235 338.883 222.841 338.359 223.758C338.081 224.166 337.66 224.453 337.18 224.562C336.699 224.672 336.195 224.595 335.769 224.348C334.785 223.857 331.146 222.415 328.72 221.579C330.74 224.257 332.93 226.802 335.277 229.199C336.998 230.837 337.719 231.935 337.686 232.918C337.664 233.219 337.577 233.512 337.429 233.775C337.282 234.038 337.079 234.266 336.834 234.442C336.355 234.772 335.771 234.912 335.195 234.836Z" fill="#263238"/>
<path d="M184.801 16.0915C184.801 16.0915 173.065 19.1066 171.491 25.5301C169.917 31.9537 171.491 38.6394 176.556 37.9675C181.621 37.2957 188.26 32.9041 192.686 33.2154C197.111 33.5268 196.177 35.1982 194.587 38.0003C192.997 40.8024 195.849 45.5545 203.766 43.3423C211.684 41.1301 211.962 37.0171 217.683 38.5902C223.404 40.1633 218.191 53.1415 219.519 54.9768C220.847 56.8121 221.158 59.4012 224.141 54.9768C227.125 50.5524 231.616 44.5385 236.353 46.128C241.09 47.7175 231.927 56.8776 227.19 58.7785L222.437 60.6793C222.437 60.6793 220.535 73.9524 217.683 75.8533C217.683 75.8533 236.681 73.3297 243.91 66.6768C251.139 60.0238 244.861 60.1222 246.123 56.5663C247.385 53.0104 254.663 52.8301 254.663 48.5205C254.663 44.2108 253.712 44.8499 247.073 41.6873C240.435 38.5247 242.32 36.9516 243.271 35.3621C244.221 33.7726 245.172 30.9377 239.795 29.3482C234.419 27.7587 221.765 23.9734 224.092 20.4995C226.42 17.0255 227.633 10.0612 219.47 10.6675C211.307 11.2738 203.504 16.5831 198.865 16.0096C194.226 15.436 189.948 14.207 184.801 16.0915Z" fill="#263238"/>
<path d="M200.291 87.619H200.062L197.931 87.1438C192.407 85.9312 180.916 83.424 174.786 79.0816C167.295 73.7724 168.655 60.5648 169.999 56.3535C171.344 52.1421 174.376 37.9022 174.409 37.6892C174.434 37.5641 174.485 37.4455 174.558 37.3411C174.631 37.2367 174.726 37.1488 174.835 37.0829C174.94 37.0126 175.058 36.9659 175.183 36.9461C175.307 36.9263 175.435 36.9338 175.556 36.9682C175.747 36.9857 175.939 36.9857 176.13 36.9682C176.228 36.9183 176.333 36.8851 176.441 36.8699C178.931 36.389 181.353 35.6077 183.654 34.543C186.932 33.1993 190.112 31.9211 192.751 32.1178C194.21 32.2325 196.029 32.4946 196.62 33.7564C197.21 35.0182 196.472 36.493 195.423 38.3446C195.187 38.8002 195.09 39.3153 195.146 39.8255C195.201 40.3356 195.406 40.8181 195.734 41.2123C197.046 42.8509 199.964 43.3262 203.504 42.3266C205.906 41.657 208.178 40.5878 210.225 39.164C212.487 37.7056 214.257 36.5585 217.945 37.5253C222.502 38.8035 221.453 45.3089 220.699 50.0774C220.368 51.4831 220.235 52.9283 220.306 54.3707C220.552 54.7148 220.765 55.0917 220.978 55.4522C221.144 55.807 221.365 56.1333 221.633 56.419C222.274 55.8111 222.826 55.116 223.273 54.3543C225.944 50.4707 230.911 43.2442 236.583 45.1451C237.138 45.2882 237.631 45.6093 237.986 46.0592C238.341 46.509 238.539 47.0628 238.55 47.6358C238.664 51.3883 231.616 57.9102 227.452 59.5652L223.158 61.2858C222.584 63.5799 220.125 73.1825 218.437 76.2304L218.109 76.853C217.06 78.9178 214.831 83.2438 210.618 85.4724C210.396 85.5884 210.137 85.6122 209.898 85.5386C209.659 85.4649 209.458 85.2998 209.34 85.0791C209.223 84.8548 209.199 84.5936 209.272 84.3516C209.346 84.1096 209.511 83.906 209.733 83.7846C213.438 81.8346 215.454 77.8854 216.421 75.9846L216.781 75.3127C218.519 72.1337 221.404 60.5648 221.437 60.3682C221.47 60.2223 221.538 60.0866 221.635 59.9725C221.732 59.8584 221.855 59.7693 221.994 59.7127L226.748 57.8119C230.403 56.3535 236.73 50.2577 236.583 47.685C236.583 47.4392 236.583 47.1442 235.911 46.9312C232.124 45.6694 228.321 50.2085 224.781 55.4358C223.322 57.5497 222.305 58.3362 221.322 58.3035C220.338 58.2707 219.683 57.2711 219.175 56.3862C218.994 56.0749 218.814 55.7472 218.601 55.4358C217.945 54.5182 218.175 52.8631 218.601 49.7661C219.257 45.7186 220.142 40.1799 217.224 39.3606C214.306 38.5413 213.192 39.3606 211.044 40.7043C208.918 42.2643 206.547 43.4605 204.029 44.2438C197.816 45.9808 195.112 43.5883 194.194 42.4741C193.636 41.7937 193.294 40.9634 193.209 40.0882C193.125 39.2131 193.302 38.3325 193.718 37.5581C194.292 36.5257 195.079 35.1329 194.882 34.7724C194.882 34.7724 194.587 34.3299 192.571 34.1825C190.555 34.035 187.293 35.264 184.375 36.4766C181.969 37.5583 179.452 38.3716 176.868 38.9018C176.616 38.9946 176.349 39.0391 176.081 39.0329C175.376 42.3102 172.95 53.3547 171.802 56.927C170.655 60.4993 169.344 72.8875 175.884 77.5413C181.687 81.6543 192.931 84.0959 198.324 85.2921L200.504 85.7673C200.626 85.7962 200.741 85.8488 200.842 85.9221C200.944 85.9954 201.03 86.088 201.095 86.1946C201.161 86.3012 201.204 86.4196 201.224 86.5431C201.244 86.6666 201.239 86.7928 201.209 86.9144C201.158 87.1179 201.039 87.298 200.873 87.4259C200.706 87.5537 200.501 87.6217 200.291 87.619Z" fill="#263238"/>
<path d="M172.392 51.9289C172.237 51.9317 172.084 51.892 171.95 51.8142C169.784 50.5562 167.894 48.8747 166.393 46.87C164.892 44.8654 163.81 42.5789 163.213 40.147C162.721 38.7301 162.721 37.1887 163.213 35.7718C163.465 35.4039 163.815 35.1138 164.224 34.9343C164.632 34.7548 165.082 34.693 165.524 34.7558C167.163 34.9033 169.294 36.3945 170.802 39.9176C171.655 42.1265 172.755 44.2319 174.081 46.1936C174.235 46.3935 174.303 46.6466 174.271 46.897C174.239 47.1475 174.108 47.3748 173.908 47.5291C173.708 47.6834 173.455 47.752 173.205 47.7197C172.954 47.6874 172.727 47.557 172.573 47.3571C171.114 45.2791 169.909 43.0347 168.983 40.6714C167.704 37.6398 166.049 36.7058 165.262 36.6403C164.885 36.6403 164.754 36.7714 164.721 36.8205C164.18 38.0167 166.098 46.6525 172.786 50.1428C172.971 50.2431 173.118 50.402 173.203 50.5946C173.288 50.7872 173.306 51.0027 173.256 51.2071C173.205 51.4115 173.088 51.5933 172.923 51.7239C172.758 51.8546 172.554 51.9267 172.343 51.9289H172.392Z" fill="#263238"/>
<path d="M211.093 49.3071H210.601C210.193 49.2358 209.816 49.0401 209.523 48.7469C209.229 48.4536 209.034 48.077 208.962 47.6685C208.7 46.5542 206.34 44.9647 204.733 44.1945C204.62 44.1403 204.518 44.064 204.434 43.9702C204.35 43.8764 204.286 43.7668 204.245 43.6479C204.204 43.529 204.186 43.4031 204.194 43.2776C204.202 43.152 204.235 43.0292 204.291 42.9164C204.343 42.8034 204.418 42.7022 204.51 42.6185C204.603 42.5349 204.711 42.4705 204.828 42.4293C204.946 42.3881 205.071 42.3708 205.195 42.3784C205.319 42.3861 205.441 42.4186 205.553 42.474C206.34 42.8508 210.257 44.8664 210.814 47.2424C210.814 47.3899 210.814 47.3899 210.946 47.4063C211.153 47.413 211.358 47.3687 211.544 47.2772C211.73 47.1858 211.89 47.05 212.011 46.8819C212.116 46.7272 212.172 46.5445 212.172 46.3576C212.172 46.1706 212.116 45.9879 212.011 45.8332C210.765 43.5227 209.913 42.2282 208.864 41.9496C208.735 41.9261 208.613 41.8764 208.505 41.8036C208.396 41.7307 208.304 41.6363 208.233 41.5262C208.163 41.4161 208.116 41.2927 208.096 41.1637C208.075 41.0347 208.082 40.9029 208.114 40.7764C208.147 40.6499 208.206 40.5316 208.286 40.4287C208.367 40.3259 208.468 40.2407 208.582 40.1786C208.697 40.1165 208.824 40.0787 208.954 40.0676C209.084 40.0566 209.215 40.0724 209.339 40.1143C211.241 40.6059 212.388 42.5067 213.683 44.9483C213.958 45.4249 214.084 45.9725 214.046 46.5211C214.008 47.0698 213.807 47.5947 213.47 48.029C213.193 48.4049 212.837 48.7146 212.426 48.9357C212.014 49.1568 211.559 49.2836 211.093 49.3071Z" fill="#263238"/>
<path d="M177.031 42.7035C176.928 42.7192 176.823 42.7192 176.72 42.7035C176.229 42.5958 175.775 42.3625 175.401 42.0264C175.027 41.6903 174.748 41.263 174.589 40.7863C174.513 40.308 174.545 39.819 174.681 39.3543C174.817 38.8897 175.054 38.4609 175.376 38.0989C175.556 37.9247 175.797 37.8273 176.048 37.8273C176.299 37.8273 176.54 37.9247 176.72 38.0989C176.893 38.2764 176.99 38.5145 176.99 38.7625C176.99 39.0105 176.893 39.2487 176.72 39.4262C176.556 39.6228 176.277 40.098 176.359 40.3602C176.441 40.6224 176.605 40.6879 176.917 40.8354C178.663 40.0385 180.541 39.5718 182.457 39.4589C182.737 39.4483 183.008 39.3512 183.231 39.1811C183.454 39.0109 183.618 38.776 183.703 38.5085C183.949 37.9456 183.996 37.3152 183.834 36.7224C183.618 36.755 183.398 36.7126 183.21 36.6022C183.022 36.4918 182.878 36.3202 182.801 36.1161C182.714 35.8898 182.718 35.6384 182.813 35.4151C182.908 35.1919 183.086 35.0143 183.309 34.9199C183.608 34.7944 183.937 34.7601 184.255 34.8213C184.573 34.8826 184.866 35.0366 185.096 35.264C185.502 35.811 185.754 36.4565 185.826 37.1336C185.898 37.8107 185.787 38.4947 185.506 39.1148C185.297 39.7455 184.902 40.298 184.372 40.6989C183.842 41.0998 183.203 41.3303 182.539 41.3598C180.757 41.466 179.014 41.9226 177.408 42.7035C177.284 42.7316 177.155 42.7316 177.031 42.7035Z" fill="#263238"/>
<path d="M179.408 48.3566C178.45 47.9609 177.464 47.6377 176.458 47.3898C176.02 47.273 175.577 47.18 175.13 47.1112C174.622 47.0129 174.081 46.9638 173.376 46.7671C173.749 46.1831 174.297 45.7322 174.942 45.479C175.587 45.2258 176.295 45.1834 176.966 45.3579C177.654 45.5038 178.272 45.8809 178.716 46.4264C179.161 46.972 179.405 47.6531 179.408 48.3566Z" fill="#263238"/>
<path d="M196.701 50.9785C197.293 50.1799 198.136 49.6029 199.094 49.3398C200.06 49.0612 201.079 49.0274 202.061 49.2415C203.03 49.4647 203.93 49.9203 204.684 50.5688C205.441 51.1925 206.009 52.0155 206.323 52.9448C205.389 52.6171 204.684 52.2402 203.864 51.9616C203.142 51.6728 202.396 51.448 201.635 51.2898C200.883 51.1039 200.114 50.9941 199.34 50.9621C198.455 50.9621 197.619 50.9621 196.701 50.9785Z" fill="#263238"/>
<path d="M184.948 62.2689H184.768C183.086 61.9313 181.44 61.4376 179.85 60.7941C179.557 60.6678 179.295 60.477 179.085 60.2359C178.875 59.9948 178.722 59.7095 178.637 59.4013C178.485 58.2445 178.778 57.0731 179.457 56.124L184.145 46.8983L184.309 46.6689C184.619 46.3045 185.011 46.0181 185.452 45.8331C185.893 45.648 186.372 45.5695 186.85 45.6038C187.357 45.7082 187.837 45.9182 188.258 46.2203C188.679 46.5224 189.031 46.9098 189.292 47.3571C189.395 47.5476 189.435 47.7654 189.407 47.9798C189.407 47.9798 188.341 54.9605 188.227 57.8118C188.274 58.7787 188.008 59.7351 187.467 60.5383C186.926 61.3415 186.141 61.9486 185.227 62.2689H184.948ZM185.719 47.8487L181.047 57.0416C180.644 57.5688 180.425 58.2135 180.424 58.8769C180.424 58.8769 180.424 58.9916 180.604 59.0572C181.98 59.6202 183.408 60.0483 184.866 60.3353C185.327 60.0778 185.704 59.6943 185.953 59.2298C186.203 58.7654 186.315 58.2393 186.276 57.7135C186.391 55.0916 187.194 49.5202 187.423 48.029C187.211 47.7453 186.911 47.5384 186.571 47.4391C186.407 47.447 186.247 47.4889 186.1 47.5623C185.953 47.6356 185.823 47.7388 185.719 47.8651V47.8487Z" fill="#263238"/>
<path d="M173.376 50.9295C173.746 50.809 174.136 50.7672 174.523 50.8067C174.91 50.8462 175.284 50.9661 175.622 51.1589C176.664 51.732 177.497 52.6226 177.998 53.7013C178.499 54.78 178.643 55.9903 178.408 57.1564C177.884 58.5001 176.179 56.9761 173.72 56.0093C172.917 55.698 172.835 56.0093 172.081 55.7471L173.376 50.9295Z" fill="#263238"/>
<path d="M192.8 60.0895C192.521 61.7281 195.554 61.3349 199.111 61.9084C202.668 62.4819 205.373 63.8748 205.668 62.1706C205.963 60.4664 203.668 56.2714 200.127 55.6979C196.587 55.1244 193.079 58.3853 192.8 60.0895Z" fill="#263238"/>
<path d="M183.932 69.4298C186.079 68.7744 187.898 68.4466 189.636 67.9059C190.508 67.6563 191.362 67.3498 192.193 66.9882C193.062 66.6441 193.832 66.1525 194.914 65.6445C194.696 66.7727 194.122 67.801 193.275 68.5777C192.431 69.3441 191.421 69.9049 190.324 70.2164C189.261 70.5241 188.147 70.6188 187.046 70.495C185.934 70.4104 184.862 70.0438 183.932 69.4298Z" fill="#263238"/>
<path d="M225.6 148.708C225.6 157.786 221.797 165.094 208.175 165.094C198.569 165.094 192.783 157.753 192.783 148.708C192.783 139.662 196.652 132.321 208.175 132.321C219.698 132.321 225.6 139.646 225.6 148.708Z" fill="#E8E8E8"/>
<path d="M206.536 150.757H206.225C205.7 150.757 204.7 150.757 204.405 149.855C204.11 148.954 204.782 148.528 205.241 148.217C205.474 148.03 205.688 147.822 205.88 147.594L205.733 147.496C204.503 146.644 196.275 146.906 189.03 147.659C188.906 147.675 188.78 147.666 188.659 147.633C188.539 147.599 188.426 147.541 188.328 147.464C188.23 147.386 188.149 147.289 188.089 147.179C188.03 147.069 187.993 146.948 187.981 146.824C187.958 146.572 188.034 146.322 188.193 146.126C188.352 145.93 188.582 145.804 188.833 145.775C191.406 145.513 204.389 144.251 206.864 145.939C207.15 146.109 207.388 146.348 207.557 146.635C207.726 146.921 207.82 147.245 207.831 147.578C207.838 147.836 207.794 148.094 207.701 148.336C207.608 148.578 207.469 148.799 207.29 148.987C208.077 148.987 209.159 148.807 210.405 148.659C215.896 148.004 225.157 146.906 233.189 149.052C233.426 149.123 233.626 149.284 233.746 149.5C233.866 149.716 233.898 149.97 233.834 150.209C233.77 150.447 233.616 150.652 233.403 150.779C233.191 150.905 232.938 150.944 232.697 150.888C224.944 148.839 215.994 149.904 210.634 150.544C208.765 150.576 207.405 150.757 206.536 150.757Z" fill="#263238"/>
<path d="M74.0252 39.8521C73.8398 39.8535 73.6582 39.7997 73.5035 39.6976C73.3488 39.5954 73.228 39.4496 73.1564 39.2786C72.4605 36.9574 72.1396 34.54 72.2057 32.1177L69.9601 24.2194C69.9203 24.0646 69.9196 23.9025 69.9578 23.7474C69.9961 23.5923 70.0723 23.4491 70.1794 23.3306C70.2866 23.2121 70.4214 23.122 70.572 23.0684C70.7225 23.0147 70.8839 22.9992 71.0419 23.0232L78.9755 24.416C79.3689 24.416 81.2704 25.0387 81.6146 29.332C81.7722 31.1513 82.3929 32.9001 83.4177 34.4118C83.4849 34.5173 83.5298 34.6354 83.5496 34.7589C83.5695 34.8823 83.5639 35.0086 83.5332 35.1298C83.5025 35.251 83.4473 35.3647 83.3711 35.4639C83.2949 35.563 83.1991 35.6455 83.0899 35.7064C82.9837 35.7712 82.8656 35.8142 82.7426 35.8328C82.6196 35.8514 82.494 35.8453 82.3734 35.8148C82.2528 35.7842 82.1395 35.7299 82.0401 35.655C81.9408 35.5801 81.8574 35.4862 81.7949 35.3786C80.616 33.6258 79.9051 31.6007 79.7295 29.4958C79.5001 26.661 78.5821 26.2185 78.5657 26.2185L72.2057 25.1042L74.0744 31.6589C74.0823 31.7516 74.0823 31.8448 74.0744 31.9374C74.0012 34.1496 74.2665 36.36 74.8612 38.4921C74.9602 38.7225 74.964 38.9827 74.8719 39.216C74.7798 39.4493 74.5992 39.6367 74.3694 39.7374C74.2625 39.796 74.1459 39.8349 74.0252 39.8521Z" fill="#263238"/>
<path d="M108.842 57.566C108.668 57.5734 108.496 57.5277 108.35 57.4349C106.186 56.1568 87.1388 44.719 84.5817 39.9996C84.4968 39.8527 84.4521 39.6859 84.4521 39.5162C84.4521 39.3465 84.4968 39.1798 84.5817 39.0328C85.1126 38.0739 85.4312 37.0121 85.516 35.9194C85.5268 35.7946 85.5621 35.6731 85.6198 35.5619C85.6775 35.4507 85.7566 35.352 85.8525 35.2713C85.9484 35.1907 86.0592 35.1297 86.1787 35.0919C86.2981 35.0541 86.4239 35.0401 86.5487 35.0509C86.6736 35.0616 86.7951 35.0969 86.9063 35.1546C87.0175 35.2123 87.1163 35.2913 87.197 35.3872C87.2777 35.4831 87.3387 35.5939 87.3765 35.7133C87.4143 35.8327 87.4283 35.9584 87.4175 36.0832C87.3049 37.27 86.9888 38.4285 86.4832 39.508C89.2698 43.3916 103.744 52.5026 109.284 55.8946C109.393 55.9554 109.489 56.0379 109.565 56.1371C109.642 56.2362 109.697 56.3499 109.727 56.4711C109.758 56.5924 109.764 56.7186 109.744 56.8421C109.724 56.9655 109.679 57.0836 109.612 57.1891C109.522 57.3079 109.405 57.4039 109.272 57.4694C109.138 57.5348 108.99 57.5679 108.842 57.566Z" fill="#263238"/>
<path d="M205.258 382.429C205.258 382.429 204.356 368.566 203.619 367.895C202.881 367.223 193.456 368.501 191.522 367.534C189.587 366.567 188.522 371.86 187.276 372.45C186.03 373.04 183.408 370.516 185.194 367.223C186.981 363.929 179.638 358.013 177.802 358.161C175.966 358.308 164.262 363.077 155.214 363.634C146.166 364.191 138.97 362.487 136.478 363.798C133.987 365.109 131.675 366.584 135.15 370.582C138.625 374.58 146.625 382.495 157.246 382.593C167.868 382.692 170.36 380.955 171.671 379.414C172.983 377.874 174.95 375.072 176.376 377.939C177.802 380.807 177.835 384.691 180.31 385.428C182.785 386.166 199.734 390.098 205.258 382.429Z" fill="#263238"/>
<path d="M189.423 396.555C186.942 396.574 184.466 396.305 182.047 395.752C178.635 394.803 175.496 393.063 172.884 390.672C172.261 390.164 171.638 389.656 171.016 389.197C169.835 388.329 166.983 388.64 163.705 389.001C159.36 389.645 154.948 389.689 150.591 389.132C142.412 387.519 134.953 383.36 129.282 377.251C126.25 373.499 127.495 370.205 129.02 367.141C129.373 366.194 130.042 365.397 130.913 364.883C131.785 364.37 132.806 364.172 133.806 364.322C134.025 364.403 134.206 364.561 134.316 364.766C134.426 364.972 134.456 365.21 134.401 365.437C134.347 365.663 134.211 365.862 134.02 365.995C133.828 366.127 133.595 366.185 133.364 366.158C133.2 366.158 131.725 365.895 130.708 367.993C129.315 370.795 128.43 373.171 130.708 376.055C136.106 381.796 143.159 385.714 150.886 387.264C155.07 387.779 159.305 387.73 163.475 387.116C167.295 386.69 170.327 386.362 172.097 387.673C172.753 388.148 173.392 388.673 174.048 389.197C176.443 391.415 179.331 393.033 182.473 393.917C187.62 395.195 196.029 394.932 201.176 392.278C205.946 389.82 206.717 387.526 204.455 382.856C204.409 382.65 204.434 382.436 204.523 382.245C204.613 382.055 204.764 381.9 204.951 381.804C205.139 381.709 205.353 381.678 205.559 381.717C205.766 381.756 205.954 381.863 206.094 382.02C208.88 387.591 207.733 391.049 202.062 393.949C198.101 395.766 193.779 396.657 189.423 396.555Z" fill="#263238"/>
<path d="M181.211 364.699C181.036 364.7 180.864 364.651 180.716 364.559C180.568 364.466 180.45 364.332 180.375 364.175C180.318 364.067 180.283 363.949 180.272 363.828C180.261 363.707 180.275 363.586 180.311 363.47C180.348 363.354 180.407 363.246 180.485 363.154C180.564 363.061 180.66 362.985 180.768 362.929C180.899 362.831 185.178 359.914 189.849 340.709C189.865 340.576 189.909 340.448 189.978 340.333C190.048 340.218 190.14 340.119 190.251 340.042C190.361 339.965 190.486 339.913 190.618 339.888C190.75 339.864 190.885 339.867 191.016 339.899C191.146 339.93 191.269 339.989 191.375 340.071C191.481 340.153 191.569 340.257 191.632 340.375C191.695 340.493 191.732 340.624 191.742 340.757C191.751 340.891 191.732 341.026 191.685 341.151C186.768 361.536 182.145 364.355 181.637 364.601C181.504 364.666 181.359 364.7 181.211 364.699Z" fill="#263238"/>
<path d="M200.471 371.319C200.232 371.32 200.001 371.228 199.827 371.063C199.653 370.899 199.549 370.674 199.537 370.435C199.078 363.29 208.519 343.495 208.929 342.659C209.068 342.505 209.254 342.4 209.459 342.362C209.663 342.323 209.875 342.353 210.061 342.446C210.247 342.539 210.397 342.69 210.489 342.877C210.58 343.063 210.608 343.275 210.568 343.479C210.47 343.675 200.946 363.667 201.356 370.304C201.365 370.428 201.349 370.554 201.31 370.673C201.27 370.791 201.207 370.901 201.125 370.995C201.043 371.09 200.942 371.167 200.83 371.223C200.718 371.278 200.596 371.311 200.471 371.319Z" fill="#263238"/>
<path d="M207.88 344.117C201.651 344.117 190.456 340.84 185.096 337.678C179.49 334.4 181.195 322.307 182.686 311.623C182.866 310.312 183.047 309.017 183.211 307.788C183.866 302.709 183.702 292.942 183.522 283.487C183.325 272.328 183.145 261.775 184.178 257.4C186.079 249.207 202.553 219.055 203.258 217.777C203.314 217.666 203.393 217.568 203.489 217.488C203.585 217.408 203.696 217.349 203.816 217.314C203.936 217.278 204.061 217.268 204.185 217.283C204.309 217.298 204.428 217.338 204.536 217.4C204.646 217.459 204.743 217.538 204.821 217.634C204.899 217.73 204.958 217.841 204.993 217.96C205.028 218.079 205.039 218.204 205.025 218.327C205.012 218.451 204.974 218.57 204.913 218.678C204.749 218.99 187.866 249.977 186.014 257.826C185.047 261.972 185.243 272.901 185.424 283.454C185.588 292.975 185.768 302.823 185.096 308.034C184.932 309.28 184.752 310.574 184.555 311.885C183.227 321.471 181.555 333.417 186.046 336.039C191.636 339.316 204.766 342.97 209.601 342.086C211.978 341.66 220.043 339.333 224.551 327.502C228.222 317.883 229.239 286.06 229.239 282.75C228.6 280.822 227.69 278.996 226.534 277.326C224.256 273.491 223.256 271.607 224.174 270.542C225.092 269.477 226.288 270.28 226.78 270.542C228.84 271.576 230.762 272.864 232.501 274.376L233.615 275.245C233.615 275.245 233.615 275.065 233.615 274.966C233.206 273.475 232.747 272.148 232.37 271.083C231.583 268.772 231.14 267.494 231.878 266.642C232.123 266.405 232.427 266.238 232.759 266.16C233.091 266.082 233.438 266.096 233.763 266.199C236.254 266.691 237.615 266.511 238.68 265.511C239.959 264.135 262.465 227.822 264.055 219.957C265.858 211.239 265.694 201.538 263.711 198.359C261.383 194.639 258.564 190.87 258.531 190.838C258.381 190.635 258.318 190.382 258.355 190.133C258.392 189.885 258.526 189.661 258.728 189.51C258.826 189.433 258.939 189.377 259.059 189.344C259.18 189.311 259.306 189.303 259.429 189.32C259.553 189.337 259.672 189.378 259.78 189.442C259.887 189.506 259.981 189.59 260.055 189.691C260.055 189.691 262.957 193.558 265.317 197.343C267.923 201.522 267.579 212.304 265.923 220.284C264.268 228.265 241.287 265.462 239.877 266.871C238.041 268.707 235.664 268.51 233.32 268.084C233.514 268.896 233.76 269.696 234.058 270.476C234.435 271.574 234.91 272.934 235.336 274.491C235.664 275.72 235.91 276.965 235.041 277.523C234.173 278.08 233.091 277.342 231.271 275.884C229.65 274.473 227.861 273.268 225.944 272.295H225.846C226.514 273.736 227.275 275.132 228.124 276.474C229.96 279.587 231.091 281.57 231.091 282.865C231.091 283.192 230.353 317.604 226.288 328.288C221.371 341.053 212.519 343.593 209.896 344.068C209.227 344.146 208.552 344.162 207.88 344.117Z" fill="#263238"/>
<path d="M294.101 314.212C293.265 314.212 292.462 314.212 291.823 314.114C287.889 313.819 274.218 309.329 262.154 305.38C254.909 303.004 248.073 300.759 244.664 299.857C238.742 298.134 233.454 294.716 229.452 290.026C229.357 289.931 229.283 289.818 229.235 289.693C229.187 289.568 229.166 289.434 229.173 289.3C229.18 289.167 229.216 289.036 229.277 288.917C229.338 288.798 229.424 288.693 229.529 288.61C229.633 288.526 229.754 288.465 229.884 288.432C230.014 288.398 230.149 288.392 230.281 288.415C230.413 288.437 230.539 288.487 230.65 288.561C230.762 288.635 230.856 288.732 230.927 288.846C234.701 293.184 239.629 296.36 245.139 298.006C248.614 298.923 255.482 301.168 262.744 303.561C274.12 307.281 288.266 311.934 291.97 312.213C297.511 312.639 306.903 311.459 310.001 306.478C313.099 301.496 313.591 289.354 312.739 286.371L312.624 285.962C311.608 282.373 309.231 273.934 301.477 271.361C291.774 268.084 274.841 263.479 273.038 263.791C272.661 263.791 272.251 264.807 272.005 265.347C271.628 266.199 271.235 267.068 270.366 267.084C269.497 267.101 268.923 266.085 268.727 265.659C268.383 264.97 268.038 264.168 267.694 263.332C267.17 262.07 266.055 259.448 265.448 259.301C264.667 260.021 263.958 260.817 263.334 261.677C261.826 263.61 260.81 264.954 259.662 264.479C258.515 264.004 258.646 262.84 258.646 262.381C258.679 261.234 258.822 260.093 259.072 258.973C259.597 256.318 259.613 255.401 257.843 254.729C253.646 253.09 252.712 246.192 252.712 243.652C252.712 243.4 252.812 243.158 252.99 242.98C253.169 242.801 253.411 242.701 253.663 242.701C253.915 242.701 254.157 242.801 254.335 242.98C254.513 243.158 254.613 243.4 254.613 243.652C254.613 245.29 255.286 251.747 258.515 252.959C261.744 254.172 261.4 256.941 260.941 259.334C260.766 260.275 260.662 261.228 260.629 262.185C261.039 261.726 261.531 261.087 261.908 260.546C262.605 259.56 263.413 258.659 264.317 257.859C264.546 257.679 264.812 257.554 265.096 257.491C265.38 257.429 265.674 257.431 265.957 257.498C267.465 257.908 268.383 260.104 269.448 262.627C269.743 263.332 270.038 264.036 270.317 264.643C270.759 263.66 271.366 262.332 272.644 262.005C275.07 261.415 295.74 267.494 302.15 269.624C310.837 272.525 313.509 281.963 314.509 285.519L314.624 285.913C315.607 289.321 315.247 301.939 311.673 307.559C308.28 312.852 299.674 314.212 294.101 314.212Z" fill="#263238"/>
<path d="M420.793 376.219C420.46 376.243 420.126 376.243 419.793 376.219C419.543 376.182 419.318 376.047 419.167 375.844C419.017 375.642 418.953 375.387 418.99 375.137C419.027 374.887 419.161 374.662 419.364 374.512C419.567 374.361 419.822 374.297 420.071 374.334C420.203 374.334 431.546 375.711 441.528 356.604C450.134 340.218 450.544 335.302 450.413 334.056C450.101 334.286 449.691 334.663 449.314 335.007C448.342 336.001 447.198 336.811 445.938 337.399C444.053 338.153 423.71 355.424 419.547 373.613C419.52 373.734 419.469 373.849 419.397 373.95C419.326 374.051 419.234 374.137 419.129 374.203C419.024 374.268 418.907 374.312 418.784 374.332C418.662 374.352 418.537 374.347 418.416 374.318C418.293 374.293 418.177 374.243 418.074 374.172C417.971 374.102 417.883 374.011 417.816 373.905C417.749 373.8 417.703 373.682 417.682 373.559C417.662 373.435 417.666 373.309 417.695 373.187C422.055 354.146 443.004 336.531 445.233 335.629C446.278 335.134 447.222 334.451 448.019 333.614C448.656 332.856 449.49 332.288 450.429 331.975C450.699 331.917 450.981 331.94 451.238 332.042C451.494 332.145 451.715 332.321 451.872 332.549C454.134 335.564 447.413 349.443 443.2 357.44C434.103 374.744 423.973 376.219 420.793 376.219Z" fill="#263238"/>
<path d="M422.235 373.99C422.097 373.989 421.961 373.957 421.837 373.898C421.712 373.838 421.602 373.752 421.514 373.646C421.433 373.551 421.371 373.44 421.333 373.32C421.295 373.201 421.281 373.075 421.292 372.95C421.302 372.826 421.337 372.704 421.395 372.593C421.453 372.482 421.532 372.383 421.629 372.302C421.76 372.204 434.594 361.307 440.151 349.509C440.265 349.293 440.458 349.128 440.689 349.05C440.921 348.972 441.173 348.986 441.395 349.09C441.616 349.193 441.79 349.378 441.878 349.605C441.967 349.833 441.965 350.086 441.872 350.312C436.135 362.503 423.399 373.253 422.858 373.761C422.684 373.908 422.463 373.99 422.235 373.99Z" fill="#263238"/>
<path d="M419.99 351.098H419.908C419.783 351.09 419.662 351.057 419.551 351.001C419.439 350.945 419.34 350.868 419.259 350.773C419.178 350.678 419.117 350.569 419.079 350.45C419.041 350.331 419.028 350.206 419.039 350.082C420.334 334.499 427.94 318.423 441.643 302.332C442.217 301.644 442.61 301.185 442.774 300.955C443.104 300.426 443.405 299.879 443.676 299.317C444.79 297.219 445.692 295.581 446.954 295.941C448.216 296.302 448.593 297.58 448.249 304.134C447.561 317.244 438.627 342.61 438.25 343.675C438.219 343.804 438.161 343.925 438.08 344.03C438 344.136 437.898 344.223 437.781 344.287C437.665 344.35 437.536 344.389 437.404 344.4C437.271 344.41 437.138 344.393 437.013 344.35C436.888 344.306 436.773 344.237 436.676 344.146C436.579 344.055 436.502 343.945 436.45 343.823C436.399 343.701 436.373 343.569 436.375 343.436C436.378 343.304 436.407 343.173 436.463 343.052C436.562 342.79 445.692 316.916 446.298 304.036C446.448 302.155 446.448 300.264 446.298 298.383C445.954 298.923 445.544 299.694 445.282 300.185C445.02 300.677 444.561 301.545 444.266 301.971C443.971 302.397 443.643 302.741 443.004 303.495C429.562 319.292 422.121 334.99 420.858 350.164C420.855 350.4 420.765 350.626 420.604 350.798C420.444 350.971 420.225 351.078 419.99 351.098Z" fill="#263238"/>
<path d="M420.465 360.504H420.203C419.962 360.432 419.759 360.267 419.639 360.046C419.519 359.825 419.492 359.565 419.563 359.324C425.087 340.414 437.971 316.719 438.102 316.424C438.161 316.315 438.24 316.218 438.337 316.14C438.433 316.061 438.544 316.003 438.663 315.968C438.782 315.933 438.907 315.922 439.03 315.935C439.153 315.949 439.273 315.987 439.381 316.047C439.49 316.106 439.587 316.185 439.666 316.282C439.744 316.378 439.803 316.488 439.838 316.607C439.873 316.726 439.884 316.851 439.87 316.975C439.856 317.098 439.818 317.217 439.758 317.326C439.627 317.571 426.858 341.152 421.383 359.931C421.308 360.11 421.18 360.261 421.015 360.364C420.851 360.467 420.659 360.516 420.465 360.504Z" fill="#263238"/>
<path d="M414.712 374.302C414.467 374.303 414.232 374.209 414.056 374.04C413.4 373.417 398.058 358.39 399.844 339.628C401.402 323.241 405.385 307.822 408.532 305.806C408.742 305.654 408.986 305.554 409.242 305.514C409.498 305.474 409.761 305.495 410.007 305.577C411.892 306.232 412.286 309.001 412.777 312.524C413.046 315.324 413.674 318.078 414.646 320.718C417.285 326.928 423.662 355.375 420.236 370.779C420.168 371.01 420.015 371.206 419.807 371.329C419.6 371.452 419.353 371.491 419.118 371.439C418.883 371.387 418.676 371.247 418.54 371.049C418.403 370.85 418.348 370.607 418.383 370.369C421.662 355.343 415.482 327.535 412.892 321.455C411.863 318.678 411.191 315.782 410.892 312.836C410.581 310.656 410.204 307.92 409.499 307.477C407.729 308.592 403.467 321.635 401.729 339.857C400.09 357.653 415.22 372.516 415.367 372.63C415.514 372.757 415.617 372.927 415.663 373.116C415.709 373.304 415.695 373.503 415.623 373.683C415.551 373.863 415.424 374.016 415.261 374.121C415.098 374.226 414.906 374.278 414.712 374.269V374.302Z" fill="#263238"/>
<path d="M416.023 372.057C415.84 372.055 415.662 372.002 415.508 371.904C415.354 371.805 415.231 371.665 415.154 371.5C406.958 353.376 405.63 327.928 405.63 327.682C405.621 327.558 405.637 327.433 405.677 327.316C405.717 327.198 405.78 327.089 405.863 326.996C405.945 326.903 406.045 326.827 406.157 326.773C406.27 326.719 406.391 326.689 406.515 326.682C406.761 326.678 406.997 326.77 407.175 326.938C407.353 327.107 407.458 327.339 407.466 327.584C407.466 327.829 408.859 352.934 416.842 370.729C416.942 370.958 416.949 371.216 416.86 371.449C416.771 371.682 416.594 371.871 416.367 371.975C416.259 372.026 416.142 372.054 416.023 372.057Z" fill="#263238"/>
<path d="M414.908 325.158C414.667 325.159 414.435 325.068 414.258 324.904C414.082 324.739 413.974 324.514 413.958 324.273C412.499 299.268 422.875 277.686 427.858 267.33C428.771 265.541 429.587 263.703 430.3 261.824C431.398 258.137 432.808 257.515 433.775 257.646C435.201 257.826 437.136 259.563 437.48 272.263C437.922 288.289 433.251 316.31 433.218 316.506C433.197 316.63 433.153 316.748 433.087 316.855C433.02 316.961 432.934 317.054 432.832 317.127C432.73 317.2 432.614 317.252 432.492 317.281C432.37 317.309 432.243 317.313 432.12 317.293C431.996 317.272 431.877 317.228 431.771 317.162C431.664 317.095 431.572 317.009 431.499 316.907C431.426 316.805 431.373 316.689 431.345 316.567C431.316 316.445 431.312 316.319 431.333 316.195C431.333 315.916 436.004 288.059 435.578 272.23C435.267 260.415 433.513 259.448 433.497 259.432C432.811 260.256 432.339 261.234 432.12 262.283C431.384 264.261 430.53 266.192 429.563 268.068C424.645 278.293 414.433 299.563 415.859 324.077C415.866 324.202 415.848 324.327 415.806 324.444C415.764 324.562 415.699 324.671 415.616 324.764C415.532 324.856 415.431 324.932 415.318 324.986C415.205 325.039 415.082 325.07 414.957 325.076L414.908 325.158Z" fill="#263238"/>
<path d="M419.629 347.051C419.394 347.049 419.168 346.961 418.993 346.804C418.818 346.647 418.706 346.432 418.679 346.199C418.367 343.364 419.383 339.038 421.252 331.172C422.186 327.207 423.334 322.275 424.645 316.179C427.385 302.089 429.403 287.869 430.694 273.574C430.723 273.325 430.846 273.096 431.038 272.934C431.23 272.773 431.476 272.691 431.726 272.705C431.851 272.715 431.972 272.75 432.083 272.808C432.193 272.866 432.291 272.945 432.371 273.042C432.45 273.138 432.509 273.249 432.545 273.368C432.581 273.488 432.592 273.614 432.579 273.738C431.286 288.109 429.261 302.406 426.514 316.572C425.186 322.684 424.022 327.617 423.088 331.582C421.285 339.251 420.285 343.462 420.564 345.986C420.591 346.236 420.519 346.486 420.362 346.683C420.206 346.879 419.977 347.006 419.728 347.035L419.629 347.051Z" fill="#263238"/>
<path d="M434.251 380.971C434.046 380.97 433.847 380.905 433.682 380.784C433.517 380.664 433.395 380.494 433.333 380.299C433.261 380.058 433.289 379.798 433.408 379.577C433.528 379.356 433.731 379.192 433.972 379.119L435.906 378.513C435.812 378.463 435.725 378.402 435.644 378.333C435.458 378.162 435.323 377.943 435.254 377.7C435.185 377.457 435.183 377.2 435.25 376.956C435.575 375.978 436.057 375.06 436.677 374.236L436.89 373.925C433.333 375.269 428.399 376.727 425.006 375.252C424.89 375.204 424.786 375.133 424.698 375.044C424.61 374.956 424.54 374.85 424.493 374.735C424.446 374.619 424.422 374.495 424.423 374.37C424.424 374.245 424.449 374.122 424.497 374.007C424.602 373.776 424.792 373.595 425.028 373.503C425.264 373.411 425.527 373.416 425.76 373.515C429.038 374.924 434.71 372.729 436.595 372.008C437.267 371.745 438.496 371.27 439.152 372.106C439.807 372.942 439.152 373.925 438.267 375.285C437.955 375.744 437.611 376.268 437.365 376.727C437.906 376.596 438.644 376.366 439.234 376.186C440.815 375.606 442.471 375.253 444.151 375.137C445.2 375.137 445.512 375.645 445.561 376.072C445.692 376.956 445.79 377.53 434.546 380.987L434.251 380.971Z" fill="#263238"/>
<path d="M411.597 373.744C411.442 373.747 411.289 373.708 411.155 373.63C408.565 372.213 406.21 370.406 404.172 368.271C402.615 366.633 401.467 366.19 400.893 366.338C400.788 366.381 400.696 366.453 400.629 366.546C400.563 366.638 400.523 366.748 400.516 366.862C400.489 367.108 400.395 367.341 400.245 367.538C400.095 367.734 399.894 367.886 399.664 367.976C398.763 368.321 397.877 367.6 396.845 366.764L396.582 366.567C396.582 366.682 396.582 366.797 396.582 366.895C396.746 368.812 397.009 371.696 394.943 372.647C394.829 372.698 394.706 372.727 394.581 372.731C394.456 372.735 394.331 372.714 394.214 372.67C394.097 372.626 393.989 372.559 393.898 372.474C393.806 372.388 393.733 372.285 393.681 372.171C393.629 372.057 393.601 371.934 393.597 371.809C393.593 371.684 393.613 371.559 393.657 371.442C393.702 371.325 393.768 371.218 393.854 371.126C393.94 371.035 394.042 370.961 394.156 370.91C394.992 370.533 394.796 368.353 394.681 367.059C394.566 365.764 394.484 364.716 395.271 364.273C396.058 363.831 396.992 364.486 398.009 365.289L398.795 365.912C398.932 365.579 399.141 365.282 399.408 365.041C399.674 364.8 399.992 364.621 400.336 364.519C401.172 364.273 402.942 364.273 405.467 366.977C407.363 368.928 409.54 370.585 411.925 371.893C412.038 371.95 412.138 372.029 412.22 372.125C412.302 372.222 412.364 372.333 412.402 372.454C412.44 372.575 412.454 372.702 412.442 372.827C412.431 372.953 412.394 373.076 412.335 373.187C412.268 373.334 412.166 373.462 412.037 373.56C411.908 373.657 411.757 373.721 411.597 373.744Z" fill="#263238"/>
<path d="M82.8115 372.581C81.1173 372.58 79.4251 372.465 77.7464 372.237C70.3046 371.237 59.4532 367.321 50.0772 354.802C34.5214 333.942 33.9149 316.965 33.6854 309.706C33.6854 308.608 33.6854 307.756 33.5379 307.133C33.1281 303.856 33.5379 299.989 35.4557 299.186C35.9475 298.956 36.9474 298.792 38.0128 300.087C38.703 301.049 39.1116 302.183 39.193 303.364C39.5373 305.462 39.9307 307.854 44.5695 310.558C54.2734 316.178 86.598 336.924 95.5479 367.731C95.5959 367.854 95.6177 367.985 95.6119 368.117C95.6061 368.249 95.5728 368.379 95.5143 368.497C95.4557 368.615 95.3731 368.72 95.2717 368.805C95.1703 368.89 95.0524 368.952 94.9254 368.989C94.7985 369.026 94.6653 369.035 94.5343 369.018C94.4034 369 94.2776 368.955 94.165 368.886C94.0523 368.817 93.9553 368.725 93.8802 368.616C93.805 368.508 93.7533 368.385 93.7284 368.255C84.9752 338.136 53.1588 317.735 43.6188 312.197C38.1931 309.05 37.685 305.937 37.3244 303.676C37.2748 302.846 37.0092 302.044 36.554 301.349C36.4443 301.191 36.2981 301.061 36.1278 300.972C35.8163 301.168 34.964 303.299 35.4229 306.953C35.4229 307.608 35.5377 308.592 35.5868 309.689C35.8327 316.768 36.4228 333.335 51.618 353.72C60.5679 365.748 70.8619 369.418 77.9267 370.402C82.392 371.06 86.9451 370.792 91.3024 369.615C91.5415 369.537 91.8017 369.558 92.0259 369.671C92.2502 369.785 92.4203 369.983 92.499 370.221C92.5398 370.34 92.5563 370.465 92.5477 370.59C92.5391 370.714 92.5056 370.836 92.449 370.948C92.3924 371.059 92.314 371.158 92.2184 371.239C92.1228 371.32 92.012 371.38 91.8925 371.418C88.9402 372.255 85.8795 372.647 82.8115 372.581Z" fill="#263238"/>
<path d="M91.794 369.238H91.6301C91.0236 369.124 76.5333 366.534 60.912 352.606C51.2318 343.649 44.1909 332.213 40.5534 319.538C40.5244 319.416 40.5195 319.29 40.5392 319.167C40.5589 319.043 40.6027 318.925 40.6682 318.818C40.7336 318.712 40.8194 318.619 40.9207 318.546C41.0219 318.473 41.1366 318.42 41.2583 318.391C41.3799 318.362 41.506 318.357 41.6295 318.377C41.753 318.396 41.8714 318.44 41.9779 318.506C42.0845 318.571 42.1771 318.657 42.2505 318.758C42.3239 318.859 42.3766 318.974 42.4057 319.095C45.9331 331.407 52.7705 342.516 62.1741 351.213C77.3529 364.765 91.8104 367.37 91.9579 367.387C92.2035 367.434 92.4209 367.576 92.5645 367.78C92.7082 367.985 92.7669 368.237 92.7284 368.484C92.686 368.7 92.5692 368.893 92.3983 369.031C92.2275 369.169 92.0135 369.242 91.794 369.238Z" fill="#263238"/>
<path d="M101.072 368.91C100.824 368.932 100.578 368.855 100.387 368.695C100.197 368.535 100.078 368.306 100.056 368.058C100.034 367.811 100.112 367.564 100.272 367.374C100.431 367.183 100.66 367.064 100.908 367.042C101.089 367.042 118.939 363.29 119.611 330.205C120.431 293.713 113.054 276.228 108.481 271.656C107.53 270.689 106.694 270.231 106.285 270.395C104.531 271.083 104.383 279.129 104.301 283.93C104.17 290.353 101.023 296.531 96.7939 305.101C95.335 308.018 93.6958 311.328 91.9747 314.933C85.5655 328.714 89.0078 352.491 89.0406 352.721C89.0751 352.85 89.082 352.985 89.0606 353.117C89.0393 353.249 88.9903 353.375 88.9168 353.487C88.8433 353.599 88.7471 353.694 88.6343 353.766C88.5215 353.839 88.3947 353.886 88.2623 353.906C88.1298 353.926 87.9947 353.917 87.8658 353.881C87.7368 353.845 87.617 353.782 87.5141 353.696C87.4111 353.611 87.3274 353.505 87.2685 353.384C87.2095 353.264 87.1766 353.133 87.1719 352.999C87.0244 352.016 83.5985 328.419 90.2536 314.13C91.8927 310.443 93.6467 307.133 95.1711 304.2C99.3346 295.859 102.351 289.845 102.465 283.848C102.613 275.327 102.924 269.657 105.645 268.576C107.498 267.838 109.301 269.673 109.891 270.214C116.234 276.621 122.299 297.645 121.578 330.14C120.791 364.879 102.105 368.648 101.318 368.796L101.072 368.91Z" fill="#263238"/>
<path d="M78.9267 377.366C73.3371 377.17 73.1404 376.186 73.042 375.728C72.9437 375.269 73.3371 374.482 74.3042 374.089C75.6609 373.483 77.155 373.251 78.6316 373.417C79.7342 373.536 80.8495 373.43 81.91 373.106C84.4179 372.336 84.8113 371.385 84.8113 371.385C84.8401 371.266 84.8923 371.153 84.9648 371.053C85.0373 370.954 85.1287 370.87 85.2338 370.806C85.3389 370.742 85.4556 370.7 85.5772 370.681C85.6988 370.662 85.8229 370.668 85.9423 370.697C86.1872 370.763 86.3972 370.92 86.5285 371.137C86.6598 371.354 86.7023 371.613 86.6472 371.86C86.6472 372.172 86.0407 373.827 82.4673 374.925C81.1777 375.313 79.8248 375.447 78.4841 375.318C77.7821 375.228 77.0715 375.228 76.3695 375.318C77.14 375.416 78.0087 375.482 78.943 375.514C79.1952 375.514 79.437 375.615 79.6153 375.793C79.7936 375.971 79.8938 376.213 79.8938 376.465C79.8938 376.717 79.7936 376.959 79.6153 377.137C79.437 377.315 79.1952 377.415 78.943 377.415L78.9267 377.366Z" fill="#263238"/>
<path d="M107.662 371.975C107.533 371.975 107.405 371.949 107.287 371.898C107.169 371.847 107.062 371.773 106.973 371.68C106.795 371.502 106.695 371.26 106.695 371.008C106.695 370.756 106.795 370.515 106.973 370.336C107.573 369.787 108.122 369.183 108.612 368.534L108.514 368.632C107.842 369.435 106.875 370.631 105.514 369.959C104.981 369.639 104.517 369.217 104.148 368.716C103.78 368.215 103.514 367.647 103.367 367.043C103.308 366.797 103.349 366.538 103.482 366.323C103.614 366.108 103.826 365.954 104.072 365.896C104.317 365.837 104.576 365.878 104.791 366.01C105.007 366.142 105.16 366.355 105.219 366.6C105.397 367.273 105.817 367.857 106.399 368.239C106.596 367.929 106.821 367.639 107.071 367.37C107.76 366.567 108.924 365.207 110.35 366.158C110.552 366.297 110.72 366.479 110.842 366.692C110.964 366.905 111.037 367.142 111.055 367.387C111.153 368.911 109.186 370.91 108.334 371.696C108.152 371.869 107.912 371.968 107.662 371.975Z" fill="#263238"/>
<path d="M100.957 364.765C100.833 364.789 100.705 364.789 100.58 364.765C100.465 364.715 100.36 364.643 100.273 364.552C100.186 364.461 100.118 364.353 100.074 364.235C100.029 364.117 100.009 363.992 100.015 363.866C100.02 363.74 100.051 363.616 100.105 363.503C109.307 340.476 112.761 315.555 110.17 290.894C110.142 290.642 110.214 290.39 110.37 290.191C110.526 289.992 110.755 289.862 111.006 289.829C111.13 289.813 111.256 289.822 111.376 289.856C111.497 289.889 111.609 289.947 111.707 290.025C111.805 290.103 111.886 290.2 111.946 290.309C112.006 290.419 112.043 290.54 112.055 290.665C116.776 330.615 101.974 363.945 101.826 364.289C101.739 364.441 101.612 364.565 101.459 364.649C101.305 364.733 101.132 364.773 100.957 364.765Z" fill="#263238"/>
<path d="M87.5156 349.132C87.3405 349.134 87.1683 349.088 87.0179 348.998C86.8675 348.908 86.7448 348.779 86.6633 348.624C86.5485 348.378 74.14 323.733 78.1396 286.814C79.7477 270.764 83.4623 254.996 89.1876 239.916C91.089 234.656 92.3348 231.182 91.9906 229.019C91.8103 227.904 90.3514 218.072 93.056 216.86C93.597 216.614 94.4821 216.581 95.4984 217.827C98.3506 221.333 106.973 247.88 106.464 269.788C106.464 269.913 106.44 270.037 106.392 270.152C106.344 270.267 106.274 270.372 106.186 270.46C106.098 270.549 105.993 270.619 105.878 270.666C105.762 270.714 105.639 270.739 105.514 270.739C105.389 270.739 105.265 270.714 105.15 270.666C105.035 270.619 104.93 270.549 104.842 270.46C104.753 270.372 104.683 270.267 104.635 270.152C104.588 270.037 104.563 269.913 104.563 269.788C105.071 247.699 96.2197 221.759 94.0232 218.99L93.7609 218.711C93.2691 219.76 93.0888 223.758 93.8756 228.691C94.2854 231.329 92.9741 234.983 90.9743 240.522C85.3104 255.463 81.6291 271.081 80.0246 286.978C76.0906 323.307 88.2205 347.477 88.3516 347.723C88.4107 347.833 88.447 347.954 88.4584 348.079C88.4697 348.204 88.4558 348.329 88.4176 348.449C88.3794 348.568 88.3176 348.678 88.2358 348.773C88.1541 348.868 88.0541 348.945 87.9418 349.001C87.8122 349.078 87.6661 349.123 87.5156 349.132Z" fill="#263238"/>
<path d="M87.8269 327.829C87.5803 327.829 87.3433 327.734 87.166 327.562C86.9886 327.391 86.8847 327.158 86.8762 326.912C86.8762 326.567 86.6631 318.587 89.7611 301.316C92.8592 284.044 96.3178 243.16 96.3178 242.734C96.3467 242.485 96.4697 242.256 96.6617 242.095C96.8536 241.933 97.1 241.851 97.3505 241.865C97.4749 241.876 97.596 241.911 97.7066 241.968C97.8173 242.026 97.9152 242.105 97.9947 242.202C98.0741 242.298 98.1335 242.409 98.1692 242.529C98.205 242.648 98.2164 242.774 98.2029 242.898C98.2029 243.307 94.6786 284.454 91.6462 301.66C88.6137 318.866 88.7776 326.764 88.794 326.846C88.7943 327.098 88.6975 327.341 88.5235 327.524C88.3496 327.707 88.1119 327.817 87.8597 327.829H87.8269Z" fill="#263238"/>
<path d="M64.3868 326.567C64.2504 326.566 64.1158 326.536 63.9917 326.479C63.8675 326.423 63.7564 326.341 63.6655 326.24C63.5344 326.076 49.9292 310.296 46.6017 289.108C43.2742 267.92 41.8645 260.857 39.7172 257.809C38.4714 256.023 38.4222 254.106 39.6024 253.008C40.2417 252.402 42.8808 250.796 48.6999 255.581C56.4204 261.89 74.6152 285.077 79.2049 300.201C79.2603 300.438 79.2234 300.686 79.1017 300.895C78.98 301.105 78.7827 301.26 78.5502 301.33C78.3178 301.399 78.0677 301.376 77.8512 301.267C77.6346 301.158 77.468 300.97 77.3854 300.742C72.976 286.207 54.8795 263.053 47.4869 257.056C43.7987 254.041 41.5203 253.778 40.9302 254.401C40.5695 254.745 40.5695 255.646 41.3236 256.712C43.7168 260.104 45.0773 266.97 48.5195 288.813C51.7979 309.46 65.026 324.863 65.1572 324.994C65.2393 325.089 65.3018 325.199 65.3413 325.317C65.3808 325.436 65.3965 325.562 65.3873 325.687C65.3782 325.811 65.3444 325.933 65.2881 326.045C65.2317 326.157 65.1538 326.256 65.0588 326.338C64.872 326.497 64.6318 326.579 64.3868 326.567Z" fill="#263238"/>
<path d="M85.2375 343.905C85.0968 343.905 84.9576 343.875 84.83 343.815C84.7024 343.756 84.5897 343.669 84.4999 343.561C84.4999 343.462 76.5007 333.892 65.9772 318.604C55.4537 303.315 49.733 275.556 49.4871 274.36C49.4633 274.237 49.464 274.111 49.489 273.989C49.514 273.866 49.5629 273.75 49.633 273.647C49.703 273.543 49.7928 273.454 49.8971 273.386C50.0015 273.317 50.1184 273.269 50.2411 273.246C50.4861 273.202 50.7388 273.254 50.9464 273.391C51.154 273.528 51.3006 273.74 51.3558 273.983C51.3558 274.278 57.1748 302.43 67.5508 317.522C77.9268 332.614 85.8932 342.233 85.9752 342.332C86.1329 342.528 86.2075 342.779 86.183 343.03C86.1586 343.281 86.0369 343.513 85.844 343.675C85.675 343.82 85.4603 343.902 85.2375 343.905Z" fill="#263238"/>
<path d="M57.5683 267.346C57.3647 267.341 57.1679 267.272 57.006 267.148C56.8441 267.025 56.7254 266.853 56.6668 266.658C56.6668 266.462 50.6346 246.372 48.7659 233.295C48.3234 230.133 47.8972 227.544 47.553 225.413C46.635 219.858 46.2908 217.761 47.389 216.712C47.6831 216.468 48.0328 216.299 48.4073 216.222C48.7818 216.145 49.1696 216.161 49.5364 216.27C52.618 216.876 78.5661 236.671 84.8278 259.53C84.8644 259.652 84.8761 259.78 84.8623 259.906C84.8485 260.033 84.8095 260.155 84.7475 260.266C84.6855 260.377 84.6019 260.475 84.5015 260.553C84.4011 260.631 84.2861 260.688 84.1632 260.721C84.0403 260.754 83.912 260.762 83.786 260.745C83.66 260.727 83.5387 260.684 83.4295 260.619C83.3203 260.554 83.2253 260.467 83.1501 260.365C83.0749 260.262 83.0211 260.145 82.9919 260.022C77.0417 238.359 52.0115 218.678 49.1757 218.121C49.0077 218.091 48.8356 218.091 48.6676 218.121C48.3398 218.596 48.8479 221.628 49.4216 225.151C49.7658 227.265 50.192 229.887 50.651 233.066C52.4869 246.011 58.4207 265.954 58.4862 266.15C58.5575 266.391 58.5303 266.651 58.4104 266.872C58.2906 267.093 58.088 267.258 57.847 267.33C57.7559 267.352 57.6614 267.358 57.5683 267.346Z" fill="#263238"/>
<path d="M78.4672 295.679C78.2453 295.683 78.0295 295.607 77.8583 295.466C77.6871 295.325 77.5717 295.127 77.5328 294.909C75.7853 287.604 72.6646 280.697 68.3371 274.557C60.7313 263.48 56.1088 238.769 55.9285 237.72C55.9047 237.597 55.9054 237.471 55.9304 237.349C55.9554 237.226 56.0044 237.11 56.0744 237.006C56.1444 236.903 56.2342 236.814 56.3385 236.745C56.4429 236.677 56.5598 236.629 56.6825 236.606C56.9317 236.567 57.1863 236.625 57.3937 236.768C57.6011 236.911 57.7456 237.129 57.7972 237.376C57.7972 237.622 62.518 262.742 69.8943 273.426C74.4005 279.774 77.6294 286.936 79.4015 294.516C79.425 294.639 79.4236 294.765 79.3974 294.887C79.3711 295.009 79.3206 295.125 79.2487 295.228C79.1769 295.33 79.0852 295.417 78.9791 295.483C78.873 295.55 78.7547 295.594 78.6311 295.614L78.4672 295.679Z" fill="#263238"/>
<path d="M89.6632 242.324C89.5383 242.32 89.4155 242.291 89.3018 242.24C89.1881 242.188 89.0856 242.114 89.0004 242.023C88.9151 241.932 88.8487 241.825 88.805 241.708C88.7612 241.591 88.7409 241.466 88.7453 241.341C89.0895 232.279 87.9749 226.298 84.7621 220.039L84.3851 219.334C78.0579 206.897 70.6324 191.952 69.5505 186.774C68.8457 183.497 67.7474 182.169 67.2229 182.153C67.1082 182.153 65.7477 182.268 64.0921 187.757C61.2727 197.032 67.895 231.591 67.9769 232.001C68.0248 232.249 67.9722 232.505 67.8308 232.714C67.6894 232.923 67.4707 233.067 67.2229 233.115C66.9751 233.163 66.7185 233.11 66.5094 232.969C66.3004 232.828 66.1561 232.609 66.1083 232.361C65.8296 230.919 59.3221 196.983 62.2726 187.266C63.6823 182.579 65.3051 180.301 67.1901 180.301H67.2065C69.6653 180.4 70.8291 184.185 71.3045 186.43C72.4847 192.018 82.2869 211.272 86.057 218.515L86.4177 219.236C89.7944 225.79 90.9746 232.099 90.6139 241.505C90.5821 241.734 90.468 241.943 90.2931 242.094C90.1181 242.245 89.8942 242.327 89.6632 242.324Z" fill="#263238"/>
<path d="M82.8767 257.498C82.6392 257.496 82.4111 257.406 82.2357 257.245C82.0604 257.085 81.9502 256.866 81.926 256.63C81.926 256.515 81.0081 244.488 80.1065 236.819C79.205 229.15 70.2715 215.024 70.1404 214.893C70.0056 214.676 69.9627 214.414 70.0211 214.165C70.0795 213.916 70.2344 213.701 70.4518 213.566C70.6692 213.431 70.9312 213.388 71.1802 213.447C71.4292 213.505 71.6448 213.66 71.7795 213.877C72.1565 214.467 81.09 228.625 82.0244 236.589C82.9587 244.553 83.8439 256.368 83.8602 256.482C83.8784 256.732 83.7973 256.979 83.6347 257.169C83.472 257.359 83.2409 257.478 82.9915 257.498H82.8767Z" fill="#263238"/>
<ellipse cx="259.809" cy="264.643" rx="0.819595" ry="0.819321" fill="#263238"/>
<ellipse cx="270.464" cy="267.101" rx="1.63918" ry="1.63866" fill="#263238"/>
<ellipse cx="258.99" cy="263.824" rx="1.63918" ry="1.63864" fill="#263238"/>
<ellipse rx="1.23304" ry="6.16403" transform="matrix(0.895044 0.445977 -0.446202 0.894932 191.013 247.235)" fill="#263238"/>
</svg>
