<svg width="120" height="120" fill="none" xmlns="http://www.w3.org/2000/svg"><g clip-path="url(#clip0_580_309)" fill="#000"><path d="M70.093 75.055a21.679 21.679 0 0011.683-7.585c3.669-4.622 5.296-10.394 4.58-16.252a21.721 21.721 0 00-8.362-14.675c-4.53-3.492-10.178-5.045-15.902-4.372-5.725.673-10.858 3.494-14.455 7.942-3.084 3.813-4.766 8.413-4.864 13.301-.16 7.936-2.894 15.642-7.7 21.697l-5.26 6.625a6.813 6.813 0 001.1 9.561l4.957 3.935a6.813 6.813 0 009.56-1.099l5.26-6.625c4.86-6.122 11.555-10.44 19.403-12.453zM45.577 53.471a18.887 18.887 0 014.24-11.594c6.46-7.987 18.33-9.384 26.464-3.113 4.078 3.149 6.667 7.688 7.29 12.794a18.933 18.933 0 01-3.992 14.169 18.896 18.896 0 01-10.182 6.612c-8.27 2.12-15.38 6.61-20.595 12.997l-11.208-8.897c4.984-6.467 7.815-14.602 7.983-22.968zM32.601 82.736l.706-.89L43.51 92.043l-.276.347a3.996 3.996 0 01-.474.497L32.6 82.736zm2.46-3.1l.792-.998 11.224 8.91-1.812 2.283-10.203-10.196zM32.657 89.1a4.002 4.002 0 01-1.455-3.8l8.595 8.589a3.976 3.976 0 01-2.182-.854L32.656 89.1z"/><path d="M52.471 46.902c.37-.643.799-1.266 1.272-1.851a1.402 1.402 0 00-2.18-1.764 17.19 17.19 0 00-1.522 2.214 1.403 1.403 0 102.43 1.4zm-6.779 21.813a1.405 1.405 0 002.188-.613 44.488 44.488 0 002.744-14.53 14.24 14.24 0 01.26-2.438 1.402 1.402 0 10-2.751-.54 16.991 16.991 0 00-.313 2.922 41.692 41.692 0 01-2.571 13.616 1.403 1.403 0 00.443 1.583zm27.506-1.923a1.402 1.402 0 00-1.898-.572c-.99.532-2.052.946-3.157 1.229a1.402 1.402 0 10.697 2.716 16.853 16.853 0 003.787-1.474 1.402 1.402 0 00.572-1.9zm.162-23.903c6.056 4.806 7.072 13.644 2.265 19.7-.273.343-.564.678-.865.993a1.402 1.402 0 002.028 1.937c.36-.377.708-.776 1.034-1.187 5.768-7.267 4.549-17.872-2.718-23.64a1.402 1.402 0 10-1.743 2.197zm6.386-8.046c.607.482 1.49.38 1.97-.226l4.883-6.15a1.402 1.402 0 00-2.197-1.744l-4.882 6.15a1.402 1.402 0 00.227 1.97zm-12.833-6.649a1.402 1.402 0 102.774.412l1.153-7.765a1.402 1.402 0 10-2.775-.412l-1.152 7.765zm11.3 56.782l-2.884-7.3a1.402 1.402 0 10-2.609 1.03l2.885 7.3a1.402 1.402 0 102.608-1.03zM50.77 23.148l2.884 7.3a1.402 1.402 0 102.608-1.03l-2.885-7.3a1.402 1.402 0 10-2.608 1.03zm41.06 50.825l-6.15-4.882a1.402 1.402 0 10-1.743 2.197l6.15 4.882a1.402 1.402 0 001.744-2.197zM45.272 38.807a1.402 1.402 0 00-.226-1.97l-6.15-4.883a1.402 1.402 0 00-1.744 2.197l6.15 4.882c.607.482 1.489.38 1.97-.226zM89.283 58.97a1.4 1.4 0 00.665.288l7.764 1.153a1.402 1.402 0 10.412-2.775l-7.764-1.152a1.402 1.402 0 00-1.077 2.486zM39.034 48.867l-7.764-1.153a1.402 1.402 0 00-.412 2.774l7.765 1.153a1.402 1.402 0 00.411-2.774zm48.282-3.822a1.402 1.402 0 001.82.789l7.3-2.885a1.402 1.402 0 00-1.03-2.609l-7.301 2.885a1.402 1.402 0 00-.789 1.82z"/></g><defs><clipPath id="clip0_580_309"><path fill="#fff" transform="rotate(38.441 26.496 75.998)" d="M0 0h85.235v85.235H0z"/></clipPath></defs></svg>