<svg width="311" height="311" fill="none" xmlns="http://www.w3.org/2000/svg"><path d="M249.857 270.11a77.253 77.253 0 0023.786-27.07c35.553-66.61 27.523-164.83-40.947-206.958C201.049 16.614 155.5 4.292 121.29 24.29 93.549 40.505 76.543 71.04 62.473 98.817c-8.838 17.497-16.122 36.275-27.02 52.621-14.131 21.198-29.687 49.512-13.982 74.143 21.403 33.55 61.827 48.87 98.482 58.959 39.77 10.941 84.492 12.496 121.227-8.851a115.342 115.342 0 008.677-5.579z" fill="#C8C8C8"/><path opacity=".7" d="M249.857 270.11a77.253 77.253 0 0023.786-27.07c35.553-66.61 27.523-164.83-40.947-206.958C201.049 16.614 155.5 4.292 121.29 24.29 93.549 40.505 76.543 71.04 62.473 98.817c-8.838 17.497-16.122 36.275-27.02 52.621-14.131 21.198-29.687 49.512-13.982 74.143 21.403 33.55 61.827 48.87 98.482 58.959 39.77 10.941 84.492 12.496 121.227-8.851a115.342 115.342 0 008.677-5.579z" fill="#fff"/><g opacity=".3" stroke="#000" stroke-miterlimit="10"><path opacity=".3" d="M281.144 50.052h-64.066v84.138h64.066V50.052z"/><path opacity=".3" d="M269.388 65.49h-40.554v53.262h40.554V65.49z"/></g><path d="M202.069 40.623H32.449v150.984h169.62V40.623z" fill="#263238" stroke="#263238" stroke-miterlimit="10"/><path d="M198.853 36.947H29.233V187.93h169.62V36.947z" fill="#fff" stroke="#263238" stroke-linecap="round" stroke-linejoin="round"/><path d="M165.825 97.878h8.434v-8.434h-8.434v8.434zm11.041 0h8.434v-8.434h-8.434v8.434z" fill="#fff" stroke="#263238" stroke-linecap="round" stroke-linejoin="round"/><path d="M162.454 94.17h-42.85" stroke="#263238" stroke-linecap="round" stroke-linejoin="round"/><path d="M165.825 117.788h8.434v-8.434h-8.434v8.434zm11.041 0h8.434v-8.434h-8.434v8.434z" fill="#fff" stroke="#263238" stroke-linecap="round" stroke-linejoin="round"/><path d="M162.454 114.075h-42.85" stroke="#263238" stroke-linecap="round" stroke-linejoin="round"/><path d="M165.825 137.698h8.434v-8.434h-8.434v8.434zm11.041 0h8.434v-8.434h-8.434v8.434z" fill="#fff" stroke="#263238" stroke-linecap="round" stroke-linejoin="round"/><path d="M162.454 133.985h-42.85" stroke="#263238" stroke-linecap="round" stroke-linejoin="round"/><path d="M85.19 97.878h8.434v-8.434h-8.435v8.434zm11.046 0h8.434v-8.434h-8.434v8.434z" fill="#fff" stroke="#263238" stroke-linecap="round" stroke-linejoin="round"/><path d="M81.818 94.17h-42.85" stroke="#263238" stroke-linecap="round" stroke-linejoin="round"/><path d="M85.19 117.788h8.434v-8.434h-8.435v8.434zm11.046 0h8.434v-8.434h-8.434v8.434z" fill="#fff" stroke="#263238" stroke-linecap="round" stroke-linejoin="round"/><path d="M81.818 114.075h-42.85" stroke="#263238" stroke-linecap="round" stroke-linejoin="round"/><path d="M85.19 137.698h8.434v-8.434h-8.435v8.434zm11.046 0h8.434v-8.434h-8.434v8.434z" fill="#fff" stroke="#263238" stroke-linecap="round" stroke-linejoin="round"/><path d="M81.818 133.985h-42.85" stroke="#263238" stroke-linecap="round" stroke-linejoin="round"/><path d="M50.923 166.696H41.63v9.293h9.293v-9.293zm37.923 0h-9.292v9.293h9.292v-9.293zm39.429 0h-9.293v9.293h9.293v-9.293z" fill="#fff" stroke="#263238" stroke-linecap="round" stroke-linejoin="round"/><path d="M99.003 92.267l1.437 2.886 6.96-6.723m-8.397 23.524l1.437 2.88 6.96-6.724m-20.401 24.488l1.443 2.88 6.96-6.724m83.771-36.723l1.437 2.88 6.96-6.724m-20.016 24.003l1.437 2.88 6.96-6.718m-8.397 24.066l1.437 2.879 6.96-6.717" stroke="#263238" stroke-width="2" stroke-linecap="round" stroke-linejoin="round"/><path d="M198.853 36.947H29.233v23.586h169.62V36.947z" fill="#fff" stroke="#263238" stroke-linecap="round" stroke-linejoin="round"/><path d="M198.853 36.947h-6.388V187.93h6.388V36.947z" fill="#DBDBDB" stroke="#263238" stroke-linecap="round" stroke-linejoin="round"/><path d="M198.853 59.638h-6.388v29.14h6.388v-29.14z" fill="#949494" stroke="#263238" stroke-linecap="round" stroke-linejoin="round"/><path d="M198.853 36.947H29.233v11.47h169.62v-11.47z" fill="#DBDBDB" stroke="#263238" stroke-linecap="round" stroke-linejoin="round"/><path d="M104.726 40.287h-66.89v4.777h66.89v-4.777z" fill="#fff" stroke="#263238" stroke-linecap="round" stroke-linejoin="round"/><path d="M188.839 40.51h5.872m-5.872 2.483h5.872m-5.872 2.487h5.872" stroke="#263238" stroke-linecap="round" stroke-linejoin="round"/><path d="M88.486 70.075c0-1.475.777-2.314 2.195-2.314 1.419 0 2.19.84 2.19 2.314v4.776c0 1.469-.771 2.308-2.19 2.308-1.418 0-2.195-.84-2.195-2.308v-4.776zm1.45 4.87c0 .653.285.902.745.902s.747-.25.747-.902v-4.976c0-.66-.286-.908-.746-.908s-.747.248-.747.908v4.976zm5.155-4.541v6.65h-1.3v-9.188h1.81l1.487 5.499v-5.498h1.287v9.186H96.89l-1.798-6.649zm4.317-2.537h1.449v7.874h2.395v1.312h-3.826l-.018-9.186zm4.466 0h1.443v9.186h-1.443v-9.186zm3.769 2.537v6.65h-1.281v-9.188h1.81l1.486 5.499v-5.498h1.282v9.186h-1.468l-1.829-6.649zm5.76 1.338h1.984v1.312h-1.984v2.687h2.488v1.312h-3.931v-9.186h3.937v1.312h-2.488l-.006 2.563zm5.007-3.875h4.46v1.312h-1.512v7.874h-1.443V69.18h-1.505v-1.313zm6.537 3.875h1.978v1.312h-1.978v2.687h2.488v1.312h-3.937v-9.186h3.937v1.312h-2.488v2.563zm5.325-3.982c1.405 0 2.127.84 2.127 2.315v.286h-1.362v-.38c0-.659-.262-.908-.722-.908-.46 0-.721.249-.721.908 0 1.866 2.817 2.246 2.817 4.87 0 1.469-.734 2.308-2.152 2.308-1.418 0-2.127-.84-2.127-2.308v-.566h1.368v.66c0 .653.286.89.747.89.46 0 .746-.237.746-.89 0-1.866-2.818-2.246-2.818-4.87-.043-1.475.697-2.314 2.097-2.314zm2.55.107h4.46v1.312h-1.506v7.874h-1.424V69.18h-1.512l-.018-1.313zm-83.958 96.59h-1.462l-.248-1.667h-1.748l-.25 1.667h-1.349l1.468-9.187h2.115l1.474 9.187zm-3.297-2.917h1.394l-.697-4.647-.697 4.647zm40.611-4.174v.323c0 .946-.286 1.549-.933 1.866.777.299 1.076.996 1.076 1.966v.753c0 1.418-.746 2.177-2.19 2.177h-2.27v-9.181h2.177c1.5 0 2.14.696 2.14 2.096zm-2.874-.802v2.425h.566c.535 0 .865-.236.865-.97v-.51c0-.659-.224-.945-.734-.945h-.697zm0 3.732v2.823h.828c.485 0 .746-.224.746-.908v-.796c0-.858-.274-1.119-.927-1.119h-.647zm42.676.734v1.244c0 1.474-.734 2.313-2.153 2.313-1.418 0-2.152-.839-2.152-2.313v-4.777c0-1.468.734-2.308 2.152-2.308 1.419 0 2.153.84 2.153 2.308v.895h-1.363v-1.026c0-.659-.292-.908-.752-.908-.461 0-.747.249-.747.908v4.976c0 .659.293.896.747.896s.752-.237.752-.896v-1.312h1.363z" fill="#263238"/><path d="M39.621 150.375h110.25" stroke="#263238" stroke-linecap="round" stroke-linejoin="round"/><path opacity=".3" d="M220.704 37.687h12.173V25.515h-12.173v12.172zm15.942 0h12.172V25.515h-12.172v12.172z" stroke="#000" stroke-linecap="round" stroke-linejoin="round"/><path opacity=".3" d="M223.322 30.329l2.078 4.155 6.108-6.724" stroke="#000" stroke-width="2" stroke-linecap="round" stroke-linejoin="round"/><path opacity=".3" d="M36.437 216.276h12.172v-12.173H36.437v12.173zm15.935 0h12.173v-12.173H52.372v12.173z" stroke="#000" stroke-linecap="round" stroke-linejoin="round"/><path opacity=".3" d="M39.042 208.917l2.078 4.155 6.108-6.724" stroke="#000" stroke-width="2" stroke-linecap="round" stroke-linejoin="round"/><path opacity=".3" d="M94.102 216.276h12.172v-12.173H94.102v12.173zm15.942 0h12.173v-12.173h-12.173v12.173z" stroke="#000" stroke-linecap="round" stroke-linejoin="round"/><path opacity=".3" d="M96.714 208.917l2.078 4.155 6.108-6.724" stroke="#000" stroke-width="2" stroke-linecap="round" stroke-linejoin="round"/><g opacity=".3" stroke="#000" stroke-linecap="round" stroke-linejoin="round"><path opacity=".3" d="M112.98 31.602a7.811 7.811 0 006.466-8.958 7.812 7.812 0 00-8.958-6.466 7.811 7.811 0 00-6.466 8.959 7.812 7.812 0 008.958 6.465z"/><path opacity=".3" d="M113.919 26.715l-2.183-2.824v-4.447"/></g><g opacity=".3"><path opacity=".3" d="M257.558 173.737h-1.157l-.199-1.319h-1.406l-.199 1.319h-1.051l1.169-7.284h1.673l1.17 7.284zm-2.613-2.308h1.101l-.553-3.688-.548 3.688zm18.903-3.302v.261a1.427 1.427 0 01-.734 1.468 1.48 1.48 0 01.852 1.561v.622a1.537 1.537 0 01-.448 1.289 1.548 1.548 0 01-1.293.434h-1.798v-7.309h1.729c1.182 0 1.692.548 1.692 1.674zm-2.276-.622v1.928h.448c.423 0 .684-.187.684-.772v-.404c0-.522-.174-.752-.585-.752h-.547zm0 2.967v2.239h.653c.385 0 .622-.174.622-.716v-.622c0-.671-.224-.883-.74-.883l-.535-.018zm18.772.578v.964c0 1.169-.579 1.835-1.705 1.835-1.126 0-1.71-.666-1.71-1.835v-3.788c0-1.169.584-1.835 1.71-1.835s1.705.666 1.705 1.835v.709h-1.083v-.809c0-.522-.23-.715-.591-.715-.36 0-.622.193-.622.715v3.938c0 .522.23.709.622.709s.591-.187.591-.709v-1.014h1.083z" fill="#000"/><path opacity=".3" d="M259.834 177.711h-8.851v8.851h8.851v-8.851zm16.465 0h-8.851v8.851h8.851v-8.851zm16.464 0h-8.851v8.851h8.851v-8.851z" stroke="#000" stroke-miterlimit="10"/></g><path d="M50.034 280.248H31.305m263.106 0H56.135" stroke="#263238" stroke-miterlimit="10"/><path d="M222.452 280.037l4.006-60.832 2.948-28.923-8.086-9.025-4.056-2.948s-5.71 4.976-9.759 6.077-7.943 2.214-7.943 2.214-13.814 25.975-14.928 37.762c-1.113 11.787-2.948 55.451-2.948 55.451l1.536.224h39.23z" fill="#9E9E9E" stroke="#263238" stroke-miterlimit="10"/><path d="M203.463 229.885s-.691-.355.69-3.912" stroke="#263238" stroke-miterlimit="10"/><path d="M201.839 185.978a119.463 119.463 0 011.138 14.829s4.149-1.661 7.464-7.464a67.048 67.048 0 004.715-9.741l-13.317 2.376z" fill="#263238" stroke="#263238" stroke-miterlimit="10"/><path d="M222.452 280.037l3.602-54.693c-3.533 1.804-10.506 4.783-18.2 4.914-9.218.156-20.632-7.004-20.632-7.004l-2.569 1.008v.1c-1.107 11.818-2.948 55.451-2.948 55.451l1.536.224h39.211z" fill="#fff" stroke="#263238" stroke-miterlimit="10"/><path d="M216.456 249.422c0 14.088.485 27.642.622 30.602h27.15c.374-4.391 2.712-31.722 3.913-41.518 1.312-10.705 9.921-26.64 9.921-32.344 0-5.704 1.747-4.802-6.115-8.951-7.862-4.148-25.203-13.105-27.604-14.2-2.401-1.095-5.026-3.732-5.026-3.732s.871 5.461.622 20.308-3.483 33.906-3.483 49.835z" fill="#fff"/><path opacity=".2" d="M219.317 179.335c.324 2.584.511 5.184.56 7.787v-7.258c-.348-.318-.56-.529-.56-.529zm35.703 35.547v1.866c.212-.566.423-1.113.622-1.654v-.224h.081c.081-.205.155-.417.23-.622h-.311v-7.744h2.407v-.622h-2.407v-6.631c-.193-.118-.398-.23-.622-.354v6.985h-6.531v-7.775h5.051l-1.17-.622h-3.881v-2.053l-.622-.329v2.363h-6.531v-5.759l-.622-.324v6.083h-6.531v-7.756h3.253l-1.206-.622h-2.047v-1.051l-.622-.324v1.375h-6.531v-4.696c-.218-.112-.423-.218-.622-.311v5.007h-6.469v.622h6.469v7.775h-6.413v.622h6.413v7.775h-6.531v-2.955c-.124 3.036-.348 6.22-.622 9.461v1.866h-.162l-.056.622h.218v7.8h-.933l-.062.622h1.026v7.775h-1.766l-.056.622h1.822v7.775h-2.426l-.037.622h2.488v7.775h-2.755v.622h2.761v7.775h-2.743v.622h2.737v7.775h-2.612v.622h2.6v14.772h.622v-14.791h6.487v14.773h.622v-14.773h6.531v14.773h.622v-14.773h6.531v14.773h.622v-14.773h4.186c0-.205 0-.41.056-.622h-4.242v-7.756h4.976c0-.205.044-.411.062-.622h-5.038v-7.775h5.747c0-.212.038-.411.063-.622h-5.81v-7.775h6.531v.827l.274-2.382c.087-.697.205-1.418.348-2.158v-4.684h1.163l.187-.622h-1.35v-7.775h4.043c.081-.205.156-.417.236-.622h-4.279v-7.775l6.531-.019zm-6.531-8.378h6.531v7.775h-6.531v-7.775zm-22.081 58.138h-6.531v-7.756h6.531v7.756zm0-8.397h-6.531v-7.775h6.531v7.775zm0-8.397h-6.531v-7.756h6.531v7.756zm0-8.397h-6.531v-7.775h6.531v7.775zm0-8.397h-6.531v-7.756h6.531v7.756zm0-8.397h-6.531v-7.775h6.531v7.775zm0-8.397h-6.531v-7.756h6.531v7.756zm7.153 50.382h-6.531v-7.756h6.531v7.756zm0-8.397h-6.531v-7.775h6.531v7.775zm0-8.397h-6.531v-7.756h6.531v7.756zm0-8.397h-6.531v-7.775h6.531v7.775zm0-8.397h-6.531v-7.756h6.531v7.756zm0-8.397h-6.531v-7.775h6.531v7.775zm0-8.397h-6.531v-7.756h6.531v7.756zm0-8.397h-6.531v-7.775h6.531v7.775zm0-8.397h-6.531v-7.756h6.531v7.756zm7.153 67.176h-6.531v-7.756h6.531v7.756zm0-8.397h-6.531v-7.775h6.531v7.775zm0-8.397h-6.531v-7.756h6.531v7.756zm0-8.397h-6.531v-7.775h6.531v7.775zm0-8.397h-6.531v-7.756h6.531v7.756zm0-8.397h-6.531v-7.775h6.531v7.775zm0-8.397h-6.531v-7.756h6.531v7.756zm0-8.397h-6.531v-7.775h6.531v7.775zm7.153 33.588h-6.531v-7.775h6.531v7.775zm0-8.397h-6.531v-7.756h6.531v7.756zm0-8.397h-6.531v-7.775h6.531v7.775zm0-8.397h-6.531v-7.756h6.531v7.756zm0-8.397h-6.531v-7.775h6.531v7.775z" fill="#000"/><path d="M216.456 249.422c0 14.088.485 27.642.622 30.602h27.15c.374-4.391 2.712-31.722 3.913-41.518 1.312-10.705 9.921-26.64 9.921-32.344 0-5.704 1.747-4.802-6.115-8.951-7.862-4.148-25.203-13.105-27.604-14.2-2.401-1.095-5.026-3.732-5.026-3.732s.871 5.461.622 20.308-3.483 33.906-3.483 49.835z" stroke="#263238" stroke-miterlimit="10"/><path d="M219.317 179.335s.871 5.461.622 20.308c-.049 3.732-.304 7.763-.622 11.918.747-1.027 3.154-4.304 3.732-4.491.653-.218 4.149 3.06 6.985 3.496 2.837.435 3.931.435.877-2.843-3.054-3.278-4.354-12.882-5.461-20.091a27.933 27.933 0 00-1.014-4.553h-.074c-2.426-1.119-5.045-3.744-5.045-3.744z" fill="#263238" stroke="#263238" stroke-miterlimit="10"/><path d="M237.237 246.884a120.829 120.829 0 003.589-1.704l.74 5.71s-10.872 4.789-16.949 5.156c-6.077.367-6.631.554-6.631.554l.181-5.524m13.627-1.959c1.114-.373 2.42-.902 3.695-1.455m-15.301 2.861c3.179-.081 6.35-.37 9.492-.865m11.886 1.232l.367 4.422" stroke="#263238" stroke-miterlimit="10"/><path d="M158.23 280.037h30.553c.069-2.395.952-32.829 1.549-48.361.622-16.172 11.594-40.703 11.594-40.703s1.468-3.459-.087-5.014c-1.555-1.555-5.287-.933-8.086 1.244-2.799 2.177-28.612 13.373-30.167 14.928-1.555 1.555-1.244 6.842-1.866 13.062-.622 6.22-10.885 49.138-10.885 49.138s-2.799.622-3.732 1.244c-.933.622-.933 2.488-.933 2.488s1.244.311 4.976 2.177c3.433 1.717 6.599 8.683 7.084 9.797z" fill="#fff"/><path opacity=".2" d="M197.796 198.088v3.179c.212-.572.417-1.126.622-1.661v-1.518h.585l.242-.622h-.827v-7.756h3.919c.043-.193.093-.404.124-.622h-4.043v-3.906c-.205.031-.41.062-.622.112v3.794h-6.531v-.423l-.622.317v.106h-.211l-1.244.622h1.455v7.775h-6.531v-5.349l-.622.292v5.038h-6.531v-1.984l-.622.293v1.691h-3.614l-1.318.622h4.932v7.794h-6.531v-7.029l-.622.299v6.73h-6.531v-1.567a55.012 55.012 0 00-.622 6.842v3.11h-.224l-.056.622h.28v7.787h-1.673l-.131.622h1.804v7.775h-3.489c-.044.205-.093.417-.137.622h3.626v7.775h-5.38c-.05.212-.093.417-.143.622h5.523v7.775H155.5v-3.421l-.622 2.687v.703h-.161l-.144.622h.305v7.806h-2.127l-.149.622h2.276v7.775h-5.281c-.634.17-1.257.377-1.866.622v3.384c.187.074.392.161.622.267v-3.651h6.525v8.708c.218.311.423.622.622.939v-9.641h6.531v14.773h.622v-14.798h6.531v14.773h.622v-14.773h6.531v14.773h.622v-14.773h6.531v14.773h.622v-14.773h5.107v-.622h-5.107v-7.756h5.368v-.622h-5.368v-7.775h5.636v-.622h-5.636v-7.775h5.915v-.622h-5.915v-7.775h6.22c0-.205 0-.41.031-.622h-6.251v-7.775h6.531v4.597c.162-1.325.367-2.687.622-4.068v-.529h.1c.037-.205.081-.41.118-.622h-.218v-7.775h2.084c.056-.205.118-.41.174-.622h-2.258v-7.775h4.665c.075-.205.143-.417.212-.622h-4.877v-7.775l6.531-.019zm-6.531-8.378h6.531v7.775h-6.531v-7.775zm-29.234 74.951H155.5v-7.775h6.531v7.775zm0-8.397H155.5v-7.775h6.531v7.775zm7.153 8.397h-6.531v-7.775h6.531v7.775zm0-8.397h-6.531v-7.775h6.531v7.775zm0-8.397h-6.531v-7.775h6.531v7.775zm0-8.397h-6.531v-7.775h6.531v7.775zm0-8.397h-6.531v-7.775h6.531v7.775zm0-8.397h-6.531v-7.775h6.531v7.775zm0-8.397h-6.531v-7.775h6.531v7.775zm7.153 50.382h-6.531v-7.775h6.531v7.775zm0-8.397h-6.531v-7.775h6.531v7.775zm0-8.397h-6.531v-7.775h6.531v7.775zm0-8.397h-6.531v-7.775h6.531v7.775zm0-8.397h-6.531v-7.775h6.531v7.775zm0-8.397h-6.531v-7.775h6.531v7.775zm0-8.397h-6.531v-7.775h6.531v7.775zm7.153 50.382h-6.531v-7.775h6.531v7.775zm0-8.397h-6.531v-7.775h6.531v7.775zm0-8.397h-6.531v-7.775h6.531v7.775zm0-8.397h-6.531v-7.775h6.531v7.775zm0-8.397h-6.531v-7.775h6.531v7.775zm0-8.397h-6.531v-7.775h6.531v7.775zm0-8.397h-6.531v-7.775h6.531v7.775zm0-8.397h-6.531v-7.775h6.531v7.775zm7.153 16.794h-6.531v-7.775h6.531v7.775zm0-8.397h-6.531v-7.775h6.531v7.775zm0-8.397h-6.531v-7.775h6.531v7.775z" fill="#000"/><path d="M158.23 280.037h30.553c.069-2.395.952-32.829 1.549-48.361.622-16.172 11.594-40.703 11.594-40.703s1.468-3.459-.087-5.014c-1.555-1.555-5.287-.933-8.086 1.244-2.799 2.177-28.612 13.373-30.167 14.928-1.555 1.555-1.244 6.842-1.866 13.062-.622 6.22-10.885 49.138-10.885 49.138s-2.799.622-3.732 1.244c-.933.622-.933 2.488-.933 2.488s1.244.311 4.976 2.177c3.433 1.717 6.599 8.683 7.084 9.797z" stroke="#263238" stroke-miterlimit="10"/><path d="M146.17 268.082s1.244.311 4.976 2.177 7.153 9.952 7.153 9.952h6.027c.38-1.132 1.306-5.25-2.917-10.263-4.976-5.909-10.574-5.598-10.574-5.598s-2.799.622-3.732 1.244c-.933.622-.933 2.488-.933 2.488zm51.912-82.863c-1.337 3.539-4.503 11.544-7.128 15.357-3.421 4.976-9.641 9.019-7.464 10.885 2.177 1.866 8.397-4.043 8.397-4.043s1.555 4.354 1.866 5.598a.465.465 0 00.081.156 195.25 195.25 0 018.086-22.199s1.468-3.459-.087-5.014c-.802-.808-2.171-1.02-3.751-.74z" fill="#263238" stroke="#263238" stroke-miterlimit="10"/><path d="M175.367 215.243c.178-1.15.294-2.308.348-3.471m-5.287 69.042s.933-19.904.933-31.411c0-8.291 2.258-22.236 3.526-30.776" stroke="#263238" stroke-miterlimit="10"/><path d="M171.983 245.068s4.976 1.555 7.464 1.866l7.464.933-.566 7.047s-.367-.205-5.965-2.071-9.019-3.421-9.019-3.421" stroke="#263238" stroke-miterlimit="10"/><path d="M186.345 254.896s-.367 13.808-.367 15.674c0 1.866-5.598.622-5.598.622" stroke="#263238" stroke-miterlimit="10"/><path d="M190.811 178.651s5.865 8.434 11.115 12.322c5.25 3.887 9.728-1.555 13.23-7.39 3.502-5.834 5.834-10.113 7.582-15.17 1.748-5.057 0-13.417-6.997-20.029-6.998-6.612-23.344-16.34-27.424-11.283-4.081 5.057-7.974 16.172-5.256 25.67a50.15 50.15 0 007.75 15.88z" fill="#9E9E9E" stroke="#263238" stroke-miterlimit="10"/><path d="M188.342 160.507a11.825 11.825 0 016.786 0" stroke="#263238" stroke-width="2" stroke-miterlimit="10" stroke-linecap="round"/><path d="M193.361 165.713c.187 1.008-.05 1.897-.529 1.984-.479.088-1.007-.659-1.194-1.673-.187-1.014.05-1.897.529-1.984.479-.087 1.007.659 1.194 1.673zm17.304.268c.181 1.007-.056 1.866-.529 1.984-.472.118-1.007-.66-1.194-1.673-.186-1.014.05-1.897.529-1.985.479-.087 1.008.66 1.194 1.674z" fill="#263238"/><path d="M197.846 179.696a18.316 18.316 0 006.997.97c4.087-.193 7.589-3.11 7.589-3.11" stroke="#263238" stroke-miterlimit="10"/><path d="M188.92 141.399s8.64 19.705 9.722 20.246c1.082.541 3.241-5.94 3.241-5.94s2.967 5.393 6.487 7.016c3.521 1.624 4.59-1.076 4.59-1.076a60.346 60.346 0 015.132 3.241l1.35 1.076 1.349 4.858s-4.049 13.23-2.699 14.853c1.35 1.624 8.907-.541 8.907-.541s-1.866 2.7.541 2.7 6.749.541 12.956-7.831c6.208-8.373 6.749-21.864 6.749-21.864s2.967 3.235 3.241-.815c.273-4.049-3.508-10.797-3.508-10.797s5.934 5.94 5.399-.268c-.535-6.207-4.05-13.23-5.399-14.847-1.35-1.617-9.455-6.22-9.455-6.22s3.241-.541.815-4.323c-2.426-3.782-11.339-4.858-14.58-4.858-3.24 0-9.989 1.082-9.989 1.082s4.323-8.372-.267-8.913c-4.591-.541-12.689 8.372-12.689 8.372s-8.086-6.481-10.531-5.131c-2.444 1.35-.808 3.24-.808 3.24s-10.524.809-13.498 5.399c-2.973 4.591.541 7.29.541 7.29s-18.896 12.957-15.929 17.814c2.967 4.858 8.372.274 8.372.274s-7.563 19.438-6.481 20.787c1.082 1.35 6.22-.541 6.22-.541s-.268 15.656 3.782 17.279c4.049 1.624 4.858-1.349 4.858-1.349s2.158 2.158 7.022 2.425c4.864.268 6.475-5.399 6.475-5.399s-5.399-12.688-5.125-23.213c.273-10.524 3.209-14.026 3.209-14.026z" fill="#263238" stroke="#263238" stroke-miterlimit="10"/><path d="M199.793 164.133s-1.947 10.114-.392 12.254c1.555 2.139 7.003 0 7.389-1.163" fill="#9E9E9E"/><path d="M199.793 164.133s-1.947 10.114-.392 12.254c1.555 2.139 7.003 0 7.389-1.163" stroke="#263238" stroke-miterlimit="10"/><path d="M191.719 170.359c4.242 0 7.681-2.525 7.681-5.641s-3.439-5.642-7.681-5.642c-4.243 0-7.682 2.526-7.682 5.642 0 3.116 3.439 5.641 7.682 5.641zm18.473-.385c4.243 0 7.682-2.526 7.682-5.642 0-3.115-3.439-5.641-7.682-5.641-4.242 0-7.681 2.526-7.681 5.641 0 3.116 3.439 5.642 7.681 5.642zm-10.4-5.841s1.555-1.163 2.719.199" stroke="#263238" stroke-miterlimit="10"/><path d="M135.789 271.758s9.765-2.755 12.769-3.253c3.004-.498 9.019 5.007 10.021 8.011 1.001 3.005-.28 3.676-.28 3.676l-20.01-.665-2.5-7.769z" fill="#9E9E9E" stroke="#263238" stroke-miterlimit="10"/><path d="M139.328 270.788s7.371 2.761 9.212 3.868c1.841 1.108 1.287 3.316.186 4.417a10.399 10.399 0 01-4.609 2.214 45.248 45.248 0 01-5.156 0c-2.208-.187-4.236.187-6.077.187-1.841 0-7.371-.554-7.371-.554l-1.66-1.107s-3.11.92-5.524 1.866c-2.413.945-1.66-1.107.181-2.582 1.841-1.474 6.45-5.156 7.19-5.523.74-.367 10.132-3.11 10.132-3.11l3.496.324z" fill="#9E9E9E" stroke="#263238" stroke-miterlimit="10"/><path d="M142.09 271.522s-4.796-2.209-6.083-2.209c-1.288 0-10.5 3.11-11.787 4.05-1.288.939-2.582 9.765-1.661 10.319.921.553 1.661-1.107 1.866-2.208.205-1.101 2.768-7.004 2.768-7.004l-1.866 9.398s.74 1.468 1.474.181c.734-1.288 5.343-10.133 5.71-10.686a6.728 6.728 0 011.661-1.288s-.921 4.056-1.661 7.924c-.74 3.869-.18 4.976.927 5.157 1.107.18 1.654-2.395 2.208-3.682.553-1.288 2.948-8.665 2.948-8.665" fill="#9E9E9E"/><path d="M142.09 271.522s-4.796-2.209-6.083-2.209c-1.288 0-10.5 3.11-11.787 4.05-1.288.939-2.582 9.765-1.661 10.319.921.553 1.661-1.107 1.866-2.208.205-1.101 2.768-7.004 2.768-7.004l-1.866 9.398s.74 1.468 1.474.181c.734-1.288 5.343-10.133 5.71-10.686a6.728 6.728 0 011.661-1.288s-.921 4.056-1.661 7.924c-.74 3.869-.18 4.976.927 5.157 1.107.18 1.654-2.395 2.208-3.682.553-1.288 2.948-8.665 2.948-8.665" stroke="#263238" stroke-miterlimit="10"/><path d="M147.414 275.21s-5.524 5.71-6.264 6.998c-.74 1.287-.734 1.474 1.294 1.474s8.291-4.056 8.839-4.609c.547-.554.373-2.208-.921-3.315a3.269 3.269 0 00-2.948-.548zm34.496-.634s-7.37 2.382-9.18 3.732c-1.811 1.349-4.423 2.836-3.857 3.29.566.454 2.382 0 2.948-.454.566-.454 3.173-.908 3.173-.908s3.06-1.816 5.442-3.284c2.382-1.468 4.192-3.061 1.474-2.376z" fill="#9E9E9E" stroke="#263238" stroke-miterlimit="10"/><path d="M222.595 262.098s-20.526 3.732-27.953 6.339c-7.426 2.606-10.381 4.422-14.094 7.047-3.714 2.625-11.24 7.582-10.12 8.453 1.119.871 5.019-2.183 5.679-2.837.659-.653 5.455-2.618 5.455-2.618l3.209-1.642s-4.833 5.952-6.574 7.464c-1.742 1.511-.566 2.457.746 2.021 1.312-.435 3.788-3.041 3.788-3.041l7.98-5.25s-3.278 4.59-4.808 5.897c-1.53 1.306 1.748 2.407 2.407 1.312.66-1.095 3.931-3.931 3.931-3.931s5.455-2.836 6.768-3.931c1.312-1.095 4.584-4.149 4.584-4.149l24.457 1.966s1.53-.871.659-5.897-6.114-7.203-6.114-7.203z" fill="#9E9E9E" stroke="#263238" stroke-miterlimit="10"/><path d="M239.19 223.447l12.011 29.707-19.438 6.767 5.461 15.942s13.958.037 24.88-.622c10.923-.659 18.586-7.246 16.838-15.102-1.748-7.856-8.298-19.22-13.541-32.761-5.243-13.541-3.62-21.614-6.021-25.763-2.401-4.149-9.174-5.243-9.174-5.243l-3.732-.622" fill="#fff"/><path opacity=".2" d="M277.101 268.399v-3.11h1.623a6.58 6.58 0 00.174-.622h-1.797v-7.781h.933c-.069-.199-.143-.41-.212-.622h-.721v-1.897a79.811 79.811 0 00-.622-1.574v3.471h-6.531v-7.775h4.69c-.094-.205-.181-.41-.274-.622h-4.416v-7.775h.871c-.1-.205-.193-.41-.287-.622h-.584v-1.3c-.206-.46-.417-.92-.622-1.387v2.687h-6.531v-7.775h4.354c-.087-.205-.174-.41-.255-.622h-4.099v-7.775h1.163c-.069-.205-.131-.417-.193-.622h-.97v-3.545a72.85 72.85 0 01-.622-2.824v6.369h-6.531v-7.775h6.27l-.112-.622h-6.158v-7.775h5.106l-.093-.622h-5.013v-7.626a17.85 17.85 0 00-1.68-.79h-5.473v-1.393l-.622-.112v1.505h-1.835l-.168.622h2.003v7.794h-4.043l-.162.622h4.211v7.775h-6.264l-.167.622h6.425v7.775h-6.531v-7.377l-.622 2.358v4.976h-1.319l-.162.622h1.481v3.937l.622 1.536v-5.43h6.531v7.775h-5.598l.249.622h5.349v7.775h-2.177l.255.622h1.953v4.833l.622 1.536v-6.369h6.5v7.775h-5.965l.255.622h5.71v7.775h-6.531v-2.152l-.622.218v1.934h-5.561l-1.791.622h.199v7.775h-6.531v-5.598l-.622.218v5.349h-.181l.803 2.339v-1.717h6.531v10.574h.622v-10.574h6.531v10.493h.622v-10.481h6.531v10.282h.622v-10.282h6.531v9.952l.622-.049v-9.903h6.531v8.534l.622-.236v-8.298h6.531v3.907c.217-.255.429-.51.622-.772zm-29.234-3.732h-6.531v-7.781h6.531v7.781zm7.153 0h-6.531v-7.781h6.531v7.781zm0-25.191h-6.531v-7.775h6.531v7.775zm0-8.397h-6.531v-7.781h6.531v7.781zm0-8.397h-6.531v-7.775h6.531v7.775zm0-8.397h-6.531v-7.781h6.531v7.781zm0-8.397h-6.531v-7.775h6.531v7.775zm7.153 58.779h-6.531v-7.781h6.531v7.781zm0-8.397h-6.531v-7.775h6.531v7.775zm0-8.397h-6.531v-7.781h6.531v7.781zm0-8.397h-6.531v-7.775h6.531v7.775zm0-8.397h-6.531v-7.781h6.531v7.781zm7.153 33.588h-6.531v-7.781h6.531v7.781zm0-8.397h-6.531v-7.775h6.531v7.775zm0-8.397h-6.531v-7.781h6.531v7.781zm.622 16.794v-7.781h6.531v7.775l-6.531.006z" fill="#263238"/><path d="M239.19 223.447l12.011 29.707-19.438 6.767 5.461 15.942s13.958.037 24.88-.622c10.923-.659 18.586-7.246 16.838-15.102-1.748-7.856-8.298-19.22-13.541-32.761-5.243-13.541-3.62-21.614-6.021-25.763-2.401-4.149-9.174-5.243-9.174-5.243l-3.732-.622" stroke="#263238" stroke-miterlimit="10"/><path d="M262.894 250.131a87.09 87.09 0 00-11.693 3.017s8.297-5.461 12.881-5.897m4.373 2.619a11.899 11.899 0 00-2.6-.087" stroke="#263238" stroke-miterlimit="10"/><path d="M237.442 257.508s4.416 4.223 5.722 7.495c1.307 3.272.828 12.16-.043 13.031-.871.871-17.124.765-19.798-2.575-.697-.871 4.074-2.88 1.673-7.688s-3.496-5.237-3.496-5.237-1.965-1.095 1.748-3.496 12.229-4.142 14.194-1.53z" fill="#263238" stroke="#263238" stroke-miterlimit="10"/><path d="M276.162 291.183H260.04l-2.016-31.871h20.153l-2.015 31.871z" fill="#263238" stroke="#263238" stroke-linejoin="round"/><path d="M279.073 259.362h-21.938v4.64h21.938v-4.64z" fill="#fff" stroke="#263238" stroke-linejoin="round"/><path d="M279.073 259.536h-21.938l2.189-2.749h17.553l2.196 2.749zm-2.321 22.299l.803-12.695h-18.909l.802 12.695h17.304z" fill="#fff" stroke="#263238" stroke-linejoin="round"/><path d="M183.253 293.304l19.867-5.25v2.687l-19.867 5.567v-3.004z" fill="#263238" stroke="#263238" stroke-linejoin="round"/><path d="M203.12 288.054H99.252l-20.078 5.25h104.08l19.866-5.25z" fill="#fff" stroke="#263238" stroke-linejoin="round"/><path d="M183.254 233.281H79.174v63.027h104.08v-63.027z" fill="#fff" stroke="#263238" stroke-linejoin="round"/><path d="M183.254 242.399c-22.641 1.076-36.126 21.945-56.161 35.927-18.262 12.751-40.815 14.928-47.894 15.27v2.712h104.055v-53.909z" fill="#263238" stroke="#263238" stroke-linejoin="round"/><path d="M183.254 293.304H79.174v3.004h104.08v-3.004z" fill="#fff" stroke="#263238" stroke-miterlimit="10"/><path d="M48.36 272.511s-8.67-13.871-1.71-21.677c6.96-7.806 18.206-4.049 20.526 3.178 2.32 7.228-2.6 19.369-2.6 19.369l-16.215-.87z" fill="#fff" stroke="#263238" stroke-linecap="round" stroke-linejoin="round"/><path d="M48.647 256.612c-1.443 0-6.935-2.021-8.67-4.621-1.736-2.6-2.035-8.385 2.891-8.385 4.927 0 6.65 8.671 6.65 8.671l.286 3.178" fill="#fff"/><path d="M48.647 256.612c-1.443 0-6.935-2.021-8.67-4.621-1.736-2.6-2.035-8.385 2.891-8.385 4.927 0 6.65 8.671 6.65 8.671l.286 3.178" stroke="#263238" stroke-linecap="round" stroke-linejoin="round"/><path d="M53.094 251.213c-1.294-.622-5.306-4.901-5.697-8.005-.392-3.104 1.934-8.403 6.332-6.22 4.397 2.183 2.077 10.73 2.077 10.73l-1.163 2.973" fill="#fff"/><path d="M53.094 251.213c-1.294-.622-5.306-4.901-5.697-8.005-.392-3.104 1.934-8.403 6.332-6.22 4.397 2.183 2.077 10.73 2.077 10.73l-1.163 2.973" stroke="#263238" stroke-linecap="round" stroke-linejoin="round"/><path d="M58.344 252.669c-.722-1.244-1.692-7.023-.299-9.822 1.393-2.799 6.27-5.921 8.708-1.654 2.438 4.267-4.223 10.076-4.223 10.076l-2.619 1.829" fill="#fff"/><path d="M58.344 252.669c-.722-1.244-1.692-7.023-.299-9.822 1.393-2.799 6.27-5.921 8.708-1.654 2.438 4.267-4.223 10.076-4.223 10.076l-2.619 1.829" stroke="#263238" stroke-linecap="round" stroke-linejoin="round"/><path d="M60.066 263.031c-.236-1.43.846-7.177 3.11-9.33 2.265-2.152 7.931-3.389 8.746 1.456.815 4.845-7.464 7.999-7.464 7.999l-3.11.808" fill="#fff"/><path d="M60.066 263.031c-.236-1.43.846-7.177 3.11-9.33 2.265-2.152 7.931-3.389 8.746 1.456.815 4.845-7.464 7.999-7.464 7.999l-3.11.808" stroke="#263238" stroke-linecap="round" stroke-linejoin="round"/><path d="M40.61 248.501l.977 1.537m1.816 2.233l1.53 1.25m-3.203-7.949l1.53 2.233m2.096 1.816l1.674 3.067m2.226-10.463l.56 1.674m1.394 3.066l.976 1.4m-1.393-9.486l1.256 2.787m-6.139 16.881l.423 2.506m.833 2.37l.56 2.096m.834-6.835l.56 2.786m1.256 1.953l.417 2.096m.559-10.462l.834 3.907m1.12 3.763l.137 1.816m1.393-10.742l.697 3.626m-.001 3.769l.28 3.763m3.073-9.765v3.073m-.423 3.906l.143 2.37m3.763-23.854l-.697 1.679m-.279 1.947l-.697 2.376m4.74-2.792l-1.114 2.233m-2.37 2.513l-1.256 1.393m-1.394-6.276l-.416 1.81m6.549 8.229l-1.53 2.513m-.976 1.53l-.84 2.233m2.097 1.119l2.506-1.399m1.536-5.996l-1.256 2.096m2.513.274l-1.673 1.256" stroke="#fff" stroke-linecap="round" stroke-linejoin="round"/><path d="M67.68 267.671H43.97v23.711h23.71v-23.711z" fill="#263238" stroke="#263238" stroke-linecap="round" stroke-linejoin="round"/></svg>