<svg width="39" height="39" viewBox="0 0 39 39" fill="none" xmlns="http://www.w3.org/2000/svg">
<g clip-path="url(#clip0_598_10820)">
<path d="M21.7913 19.5001L28.7787 12.5288C29.0847 12.2228 29.2566 11.8078 29.2566 11.3751C29.2566 10.9423 29.0847 10.5273 28.7787 10.2213C28.4728 9.91531 28.0577 9.74341 27.625 9.74341C27.1923 9.74341 26.7772 9.91531 26.4713 10.2213L19.5 17.2088L12.5287 10.2213C12.2228 9.91531 11.8077 9.74341 11.375 9.74341C10.9423 9.74341 10.5272 9.91531 10.2212 10.2213C9.91526 10.5273 9.74335 10.9423 9.74335 11.3751C9.74335 11.8078 9.91526 12.2228 10.2212 12.5288L17.2088 19.5001L10.2212 26.4713C10.0689 26.6224 9.94805 26.8021 9.86555 27.0001C9.78305 27.1981 9.74058 27.4105 9.74058 27.6251C9.74058 27.8396 9.78305 28.052 9.86555 28.25C9.94805 28.448 10.0689 28.6277 10.2212 28.7788C10.3723 28.9311 10.552 29.052 10.7501 29.1345C10.9481 29.217 11.1605 29.2595 11.375 29.2595C11.5895 29.2595 11.8019 29.217 11.9999 29.1345C12.198 29.052 12.3777 28.9311 12.5287 28.7788L19.5 21.7913L26.4713 28.7788C26.6223 28.9311 26.802 29.052 27.0001 29.1345C27.1981 29.217 27.4105 29.2595 27.625 29.2595C27.8395 29.2595 28.0519 29.217 28.2499 29.1345C28.448 29.052 28.6277 28.9311 28.7787 28.7788C28.9311 28.6277 29.052 28.448 29.1344 28.25C29.2169 28.052 29.2594 27.8396 29.2594 27.6251C29.2594 27.4105 29.2169 27.1981 29.1344 27.0001C29.052 26.8021 28.9311 26.6224 28.7787 26.4713L21.7913 19.5001Z" fill="#39515E"/>
</g>
<defs>
<clipPath id="clip0_598_10820">
<rect width="39" height="39" fill="white"/>
</clipPath>
</defs>
</svg>
