<svg width="109" height="112" viewBox="0 0 109 112" fill="none" xmlns="http://www.w3.org/2000/svg">
<path d="M65.0934 71.0555C69.7439 69.8629 73.7836 67.2399 76.776 63.4701C80.4449 58.848 82.0715 53.0761 81.356 47.2177C80.6405 41.3604 77.6694 36.1456 72.9937 32.543C68.4636 29.0505 62.8161 27.4979 57.0916 28.1712C51.3674 28.8445 46.2339 31.665 42.6369 36.1129C39.5533 39.9261 37.8715 44.5256 37.7732 49.4141C37.6137 57.3502 34.8789 65.0556 30.0725 71.1108L24.8133 77.7364C22.4804 80.6753 22.9735 84.9642 25.9124 87.297L30.8701 91.2322C33.809 93.5651 38.0979 93.0718 40.4307 90.133L45.6895 83.5079C50.5493 77.3859 57.2445 73.0681 65.0934 71.0555V71.0555ZM40.5771 49.4706C40.6628 45.2103 42.1291 41.2011 44.8175 37.8765C51.2762 29.8897 63.1478 28.4935 71.2812 34.7641C75.3592 37.9127 77.9484 42.4517 78.5719 47.5578C79.1958 52.6652 77.7777 57.6971 74.5793 61.7266C71.9706 65.0131 68.4495 67.2996 64.3966 68.339C56.1265 70.4598 49.0166 74.949 43.8016 81.3359L32.5936 72.4393C37.5779 65.9715 40.409 57.8367 40.5771 49.4706V49.4706ZM27.6007 78.7357L28.3066 77.8465L38.5102 88.0419L38.2342 88.3895C38.0889 88.5726 37.9283 88.7359 37.7597 88.8863L27.6007 78.7357ZM30.0616 75.6355L30.8531 74.6384L42.0774 83.5479L40.2652 85.8309L30.0616 75.6355V75.6355ZM27.6559 85.1005C26.4761 84.164 25.9681 82.6913 26.2006 81.3011L34.796 89.8896C34.0252 89.8319 33.2635 89.5514 32.6138 89.0357L27.6561 85.1004L27.6559 85.1005Z" fill="black"/>
<path d="M47.4713 42.9017C47.8418 42.2589 48.2697 41.636 48.7431 41.0508C49.2301 40.4486 49.1367 39.5658 48.5346 39.0787C47.9363 38.5952 47.0496 38.6851 46.5625 39.2872C45.997 39.9865 45.4852 40.7313 45.0414 41.5012C44.69 42.1108 44.8479 42.8742 45.383 43.299C45.4369 43.3417 45.4947 43.3811 45.5561 43.4165C46.2271 43.803 47.0845 43.5727 47.4713 42.9017Z" fill="black"/>
<path d="M40.6924 64.7152C40.806 64.8054 40.9359 64.8793 41.0795 64.9324C41.8061 65.2003 42.6124 64.8284 42.8802 64.1019C44.6012 59.4341 45.5246 54.5454 45.6244 49.5719C45.641 48.7498 45.7285 47.9296 45.8848 47.1339C46.034 46.3739 45.5388 45.6371 44.7788 45.4878C44.0189 45.3387 43.2819 45.8339 43.1327 46.5939C42.9454 47.5485 42.8403 48.5314 42.8205 49.5157C42.7269 54.1764 41.8617 58.7575 40.249 63.1317C40.034 63.7147 40.2308 64.3488 40.6924 64.7152Z" fill="black"/>
<path d="M68.1985 62.7919C67.832 62.1097 66.9816 61.8539 66.2996 62.2205C65.3102 62.7524 64.2481 63.1657 63.1429 63.449C62.3927 63.6413 61.9406 64.4055 62.1329 65.1556C62.2118 65.4637 62.3873 65.7214 62.6185 65.9049C62.9505 66.1684 63.3974 66.279 63.8397 66.1655C65.1641 65.8259 66.4384 65.3296 67.6272 64.6909C68.3094 64.3243 68.5653 63.4741 68.1985 62.7919V62.7919Z" fill="black"/>
<path d="M68.3606 38.8885C74.4162 43.6953 75.4321 52.5326 70.6253 58.5883C70.352 58.9326 70.0608 59.2669 69.7598 59.582C69.225 60.1422 69.2453 61.0296 69.8053 61.5646C69.837 61.5948 69.8695 61.6232 69.9032 61.65C70.4645 62.0955 71.2832 62.0476 71.7879 61.5191C72.1476 61.1423 72.4956 60.7429 72.8219 60.3319C78.5901 53.065 77.371 42.4601 70.1042 36.6919C69.4976 36.2104 68.6155 36.3118 68.1341 36.9184C67.6526 37.5249 67.754 38.407 68.3606 38.8885V38.8885Z" fill="black"/>
<path d="M74.7465 30.8433C75.3531 31.3248 76.2351 31.2234 76.7166 30.6168L81.5987 24.4663C82.0802 23.8597 81.9788 22.9776 81.3722 22.4961C80.7657 22.0147 79.8836 22.1161 79.4021 22.7226L74.52 28.8732C74.0385 29.4797 74.1399 30.3618 74.7465 30.8433Z" fill="black"/>
<path d="M61.9128 24.1936C61.8366 24.7077 62.0493 25.1976 62.4288 25.4989C62.6151 25.6467 62.8417 25.7493 63.0939 25.7867C63.8599 25.9003 64.5732 25.3716 64.6869 24.6056L65.8396 16.8411C65.9533 16.0748 65.4246 15.3617 64.6586 15.248C63.8925 15.1344 63.1792 15.6631 63.0655 16.4291L61.9128 24.1936Z" fill="black"/>
<path d="M73.2132 80.9761L70.3285 73.6757C70.0439 72.9552 69.2292 72.6022 68.509 72.887C67.7887 73.1715 67.4355 73.9861 67.7202 74.7065L70.605 82.0068C70.6986 82.2439 70.8497 82.4412 71.0361 82.5892C71.4157 82.8905 71.9414 82.9864 72.4244 82.7955C73.1447 82.511 73.4978 81.6963 73.2132 80.9761V80.9761Z" fill="black"/>
<path d="M45.7691 19.1485L48.6538 26.4489C48.7474 26.686 48.8985 26.8833 49.085 27.0313C49.4645 27.3326 49.9902 27.4285 50.4733 27.2376C51.1935 26.9531 51.5467 26.1385 51.262 25.4181L48.3773 18.1178C48.0929 17.3974 47.2782 17.0443 46.5578 17.329C45.8376 17.6136 45.4845 18.428 45.7691 19.1485V19.1485Z" fill="black"/>
<path d="M86.8309 69.9733L80.6803 65.0912C80.0738 64.6097 79.1917 64.7111 78.7102 65.3177C78.2288 65.9242 78.3302 66.8063 78.9367 67.2878L85.0872 72.1699C85.6938 72.6514 86.5759 72.55 87.0574 71.9434C87.5388 71.3368 87.4376 70.4549 86.8309 69.9733Z" fill="black"/>
<path d="M40.2722 34.8067C40.7537 34.2001 40.6523 33.318 40.0457 32.8365L33.8952 27.9544C33.2886 27.4729 32.4065 27.5744 31.9251 28.1809C31.4436 28.7875 31.545 29.6696 32.1516 30.151L38.3021 35.0332C38.9088 35.5148 39.7908 35.4132 40.2722 34.8067Z" fill="black"/>
<path d="M84.2828 54.9702C84.4691 55.118 84.6956 55.2205 84.9479 55.2579L92.7124 56.4106C93.4784 56.5243 94.1917 55.9956 94.3054 55.2295C94.4191 54.4635 93.8902 53.7501 93.1243 53.6365L85.3598 52.4838C84.5938 52.3701 83.8804 52.8989 83.7668 53.6649C83.6905 54.1787 83.9034 54.669 84.2828 54.9702Z" fill="black"/>
<path d="M34.0344 44.8667L26.2699 43.7139C25.5039 43.6002 24.7906 44.129 24.6769 44.895C24.6007 45.4088 24.8134 45.8989 25.193 46.2002C25.3792 46.3481 25.6058 46.4506 25.858 46.488L33.6225 47.6408C34.3885 47.7544 35.1019 47.2257 35.2155 46.4597C35.3295 45.6936 34.8002 44.9801 34.0344 44.8667V44.8667Z" fill="black"/>
<path d="M82.316 41.0446C82.4097 41.2818 82.5608 41.479 82.7472 41.627C83.1267 41.9283 83.6524 42.0242 84.1355 41.8334L91.4358 38.9486C92.156 38.6641 92.5091 37.8494 92.2246 37.1292C91.9402 36.409 91.1254 36.0557 90.4051 36.3404L83.1047 39.2251C82.3845 39.5097 82.0314 40.3244 82.316 41.0446V41.0446Z" fill="black"/>
</svg>
